<svg xmlns="http://www.w3.org/2000/svg" viewBox="0 0 1024 1024">
	<ellipse opacity="0.02" cx="512" cy="782.45" rx="222.78" ry="45.55"/>
	<ellipse opacity="0.02" cx="512" cy="782.45" rx="181.01" ry="37.01"/>
	<ellipse opacity="0.02" cx="512" cy="782.45" rx="208.86" ry="42.71"/>
	<ellipse opacity="0.02" cx="512" cy="782.45" rx="194.93" ry="39.86"/>
	<ellipse opacity="0.02" cx="512" cy="782.45" rx="153.16" ry="31.32"/>
	<ellipse opacity="0.02" cx="512" cy="782.45" rx="125.31" ry="25.62"/>
	<ellipse opacity="0.02" cx="512" cy="782.45" rx="96.91" ry="19.82"/>
	<ellipse opacity="0.02" cx="512" cy="782.45" rx="69.06" ry="14.12"/>
	<ellipse opacity="0.02" cx="512" cy="782.45" rx="46.78" ry="9.57"/>
	<ellipse opacity="0.02" cx="512" cy="782.45" rx="30.08" ry="6.15"/>
	<ellipse opacity="0.02" cx="512" cy="782.45" rx="11.14" ry="2.28"/>
	<ellipse opacity="0.02" cx="512" cy="782.45" rx="139.24" ry="28.47"/>
	<ellipse opacity="0.02" cx="512" cy="782.45" rx="82.43" ry="16.85"/>
	<ellipse opacity="0.02" cx="512" cy="782.45" rx="37.87" ry="7.74"/>
	<ellipse opacity="0.02" cx="512" cy="782.45" rx="167.09" ry="34.17"/>
	<ellipse opacity="0.02" cx="512" cy="782.45" rx="111.39" ry="22.78"/>
	<ellipse opacity="0.02" cx="512" cy="782.45" rx="55.7" ry="11.39"/>
	<ellipse opacity="0.02" cx="512" cy="782.45" rx="22.28" ry="4.56"/>
</svg>