<svg xmlns="http://www.w3.org/2000/svg" viewBox="0 0 1024 1024">
	<path opacity="0.01" d="M512,245.55a265.61,265.61,0,1,1-103.71,20.94A264.78,264.78,0,0,1,512,245.55m0-4c-149.37,0-270.45,121.09-270.45,270.45S362.63,782.45,512,782.45,782.45,661.37,782.45,512,661.37,241.55,512,241.55h0Z"/>
	<path opacity="0.01" d="M512,249.55a261.61,261.61,0,1,1-102.16,20.62A260.8,260.8,0,0,1,512,249.55m0-8c-149.37,0-270.45,121.09-270.45,270.45S362.63,782.45,512,782.45,782.45,661.37,782.45,512,661.37,241.55,512,241.55h0Z"/>
	<path opacity="0.01" d="M512,253.55a257.61,257.61,0,1,1-100.6,20.31A256.82,256.82,0,0,1,512,253.55m0-12c-149.37,0-270.45,121.09-270.45,270.45S362.63,782.45,512,782.45,782.45,661.37,782.45,512,661.37,241.55,512,241.55h0Z"/>
	<path opacity="0.01" d="M512,257.55a253.61,253.61,0,1,1-99,20,252.84,252.84,0,0,1,99-20m0-16c-149.37,0-270.45,121.09-270.45,270.45S362.63,782.45,512,782.45,782.45,661.37,782.45,512,661.37,241.55,512,241.55h0Z"/>
	<path opacity="0.01" d="M512,261.55a249.61,249.61,0,1,1-97.48,19.67A248.87,248.87,0,0,1,512,261.55m0-20c-149.37,0-270.45,121.09-270.45,270.45S362.63,782.45,512,782.45,782.45,661.37,782.45,512,661.37,241.55,512,241.55h0Z"/>
	<path opacity="0.01" d="M512,265.55a245.6,245.6,0,1,1-95.92,19.36A244.88,244.88,0,0,1,512,265.55m0-24c-149.37,0-270.45,121.09-270.45,270.45S362.63,782.45,512,782.45,782.45,661.37,782.45,512,661.37,241.55,512,241.55h0Z"/>
	<path opacity="0.01" d="M512,269.55a241.61,241.61,0,1,1-94.36,19,240.91,240.91,0,0,1,94.36-19m0-28c-149.37,0-270.45,121.09-270.45,270.45S362.63,782.45,512,782.45,782.45,661.37,782.45,512,661.37,241.55,512,241.55h0Z"/>
	<path opacity="0.01" d="M512,273.55a237.61,237.61,0,1,1-92.81,18.73A236.93,236.93,0,0,1,512,273.55m0-32c-149.37,0-270.45,121.09-270.45,270.45S362.63,782.45,512,782.45,782.45,661.37,782.45,512,661.37,241.55,512,241.55h0Z"/>
	<path opacity="0.01" d="M512,277.55A233.61,233.61,0,1,1,420.75,296,232.95,232.95,0,0,1,512,277.55m0-36c-149.37,0-270.45,121.09-270.45,270.45S362.63,782.45,512,782.45,782.45,661.37,782.45,512,661.37,241.55,512,241.55h0Z"/>
	<path opacity="0.01" d="M512,281.55a229.61,229.61,0,1,1-89.69,18.09A229,229,0,0,1,512,281.55m0-40c-149.37,0-270.45,121.09-270.45,270.45S362.63,782.45,512,782.45,782.45,661.37,782.45,512,661.37,241.55,512,241.55h0Z"/>
</svg>