<svg xmlns="http://www.w3.org/2000/svg" viewBox="0 0 1024 1024">
  <g fill="#fff">
	<path opacity="0.02" d="M512,241.55A270,270,0,0,0,298.58,345.87C332.61,430.36,415.33,490,512,490s179.39-59.64,213.42-144.13A270,270,0,0,0,512,241.55Z"/>
	<path opacity="0.02" d="M481.85,243.23a34.5,34.5,0,1,0,60.3,0A271.09,271.09,0,0,0,481.85,243.23Z"/>
	<path opacity="0.02" d="M455.9,247.39a57.5,57.5,0,1,0,112.19,0A272.29,272.29,0,0,0,455.9,247.39Z"/>
	<path opacity="0.02" d="M431.77,253.65c-0.16,2.1-.27,4.21-0.27,6.35a80.5,80.5,0,0,0,161,0c0-2.14-.11-4.25-0.27-6.35A272,272,0,0,0,431.77,253.65Z"/>
	<path opacity="0.02" d="M512,241.55a269.61,269.61,0,0,0-103.47,20.52,103.49,103.49,0,0,0,206.95,0A269.61,269.61,0,0,0,512,241.55Z"/>
	<path opacity="0.02" d="M512,241.55a269.24,269.24,0,0,0-125.88,31,126.51,126.51,0,0,0,251.76,0A269.24,269.24,0,0,0,512,241.55Z"/>
	<path opacity="0.02" d="M512,241.55a269.17,269.17,0,0,0-147.37,43.66,149.52,149.52,0,0,0,294.75,0A269.17,269.17,0,0,0,512,241.55Z"/>
	<path opacity="0.02" d="M512,241.55a269.29,269.29,0,0,0-167.84,58.39,172.54,172.54,0,0,0,335.69,0A269.29,269.29,0,0,0,512,241.55Z"/>
	<path opacity="0.02" d="M512,241.55a269.53,269.53,0,0,0-187.12,75.2,195.56,195.56,0,0,0,374.25,0A269.53,269.53,0,0,0,512,241.55Z"/>
	<path opacity="0.02" d="M512,241.55a269.83,269.83,0,0,0-205,94.1C337.73,419,417.92,478.5,512,478.5S686.27,419,717,335.65A269.83,269.83,0,0,0,512,241.55Z"/>
	<circle opacity="0.02" cx="512" cy="260" r="11.5"/>
	<path opacity="0.02" d="M497.79,241.92a23,23,0,1,0,28.41,0q-7.06-.37-14.21-0.37T497.79,241.92Z"/>
	<path opacity="0.02" d="M468.5,245a46,46,0,1,0,87,0A272.12,272.12,0,0,0,468.5,245Z"/>
	<path opacity="0.02" d="M443.7,250.26a69,69,0,1,0,136.6,0A272.24,272.24,0,0,0,443.7,250.26Z"/>
	<path opacity="0.02" d="M512,241.55a269.68,269.68,0,0,0-196.27,84.39C343.27,407.93,420.73,467,512,467s168.73-59.07,196.27-141.06A269.68,269.68,0,0,0,512,241.55Z"/>
	<path opacity="0.02" d="M512,241.55a269.4,269.4,0,0,0-177.64,66.53,184,184,0,0,0,355.28,0A269.4,269.4,0,0,0,512,241.55Z"/>
	<path opacity="0.02" d="M512,241.55a269.21,269.21,0,0,0-157.75,50.77,161,161,0,0,0,315.51,0A269.21,269.21,0,0,0,512,241.55Z"/>
	<path opacity="0.02" d="M512,241.55a269.17,269.17,0,0,0-136.74,37.09,138,138,0,0,0,273.49,0A269.17,269.17,0,0,0,512,241.55Z"/>
	<path opacity="0.02" d="M512,241.55a269.39,269.39,0,0,0-114.78,25.51,115,115,0,0,0,229.56,0A269.39,269.39,0,0,0,512,241.55Z"/>
	<path opacity="0.02" d="M420,257.6q0,1.2,0,2.4a92,92,0,0,0,184,0q0-1.2,0-2.4A271.5,271.5,0,0,0,420,257.6Z"/>
  </g>
</svg>