<svg id="Clipping_Front" data-name="Clipping Front" xmlns="http://www.w3.org/2000/svg" viewBox="0 0 1026 542.9">
  <defs>
    <style type="text/css">
      .cls-1 {
        fill: #3486c7;
      }
    </style>
  </defs>
  <g class="cls-1">
  <path  d="M1014.2,68.33c-1.21,1.09.52,3.11-1.65,4.1a36,36,0,0,0-.27-4.69,5.19,5.19,0,0,0-1.35-3c-6.31-5-12.76-9.89-19.11-14.88a21.38,21.38,0,0,0-11.56-5,34,34,0,0,1-4.32-1.18,8.34,8.34,0,0,0-3-.3c-4.09.65-4.57,1.9-2.16,5.27,0.88,1.23.75,3.6-.34,4.36-1.3.9-2.49,0.17-3.45-.65a10.51,10.51,0,0,1-1.54-2.24l-3.13-4.65c-4.5,1.64-4.5,1.63-9.62.32-3.16-.81-6.73-0.12-7.47,4.44A4.36,4.36,0,0,1,942.49,54a20.21,20.21,0,0,0,.21-3.17,4,4,0,0,0-.78-2.47c-1.85-1.56-1.88-3.22-1-5.24a6.33,6.33,0,0,0,.36-2.38,1.91,1.91,0,0,0-1.84-2.08c-3.14-.64-6.29-1.28-9.37-2.14a9.88,9.88,0,0,0-7.39.31,13.59,13.59,0,0,1-2.62.7,23.26,23.26,0,0,0-2.31-3.66,33.2,33.2,0,0,0-3.51-2.79,3.78,3.78,0,0,1-1.4-1.48c-0.87-3.19-3.74-4.22-6.06-5.83-1.44-1-2.61-.56-3.52.81s-1.55,2.59-2.48,3.75A27.42,27.42,0,0,1,898,31c-0.64-1.47-1-2.42-1.47-3.31s-1.18-2-1.75-2.91l0.52-1c1.23-2.44,1-3.31-1.44-4.17-3.13-1.11-6.16-1.41-9.27.54-3.92,2.45-4.1,2.55-3.42,7.17A8.52,8.52,0,0,1,881,31c-1,3-3.64,3.63-6,1.53-0.84-.74-1.8-1.35-2.6-1.95-0.59.29-.9,0.45-1.22,0.58-3.33,1.45-4.39,1.16-6.77-1.65a23.44,23.44,0,0,0-2.1-1.93,6.24,6.24,0,0,0-.66,1.53c-0.15,1.84-.09,3.71-0.36,5.52-0.14.92-.77,2.44-1.3,2.49A3.67,3.67,0,0,1,857,35.94a21.27,21.27,0,0,1-2.6-5.2c-0.55-1.54-1-2.95-2.46-4A10.27,10.27,0,0,1,850,24c1.21-1.48,2.63-2.47,2.92-3.71,0.91-3.94-1.53-7-5.54-7.37-3.09-.29-6.2-0.27-9-2-0.75-.47-2-0.07-3.64-0.07l2.21,5.49c-3.07,1-10.65.27-12.85-1.71A14.47,14.47,0,0,0,815,11.09a23.85,23.85,0,0,1-4-.89c-2-.52-2.58-1.48-2.22-3.55,0.11-.65.33-1.27,0.53-2.05l-3.32-2.07C803,4.4,804.66,7.38,803.4,9.4c-3.24,1.25-2-1.93-3-3.65-0.41.75-.57,1.06-0.74,1.36a2.56,2.56,0,0,0-.52.89c-0.2,4.13-3.49,5.63-6.33,7.53-1.63,1.09-3.2,2.28-4.81,3.39-0.59.4-1.24,0.72-2.57,1.48a22.06,22.06,0,0,1,1.49-3.21c4.22-5.76,8.37-11.6,13.83-16.2H729.5c-0.14.7,0.17,1.43,0.89,2.63a48.25,48.25,0,0,1,2.56,4.5,2.85,2.85,0,0,1-.68,3.48,2.27,2.27,0,0,1-3.17,0c-1.6-1.32-3.21-1-4.9-.55-2.79.72-5.59,1.42-8.36,2.2a6,6,0,0,0-1.48.75,46.17,46.17,0,0,1,.36,6.1,4.59,4.59,0,0,0,1.75,4.21,47.93,47.93,0,0,1,3.88,4.24c-1.73,1.11-3,0-4.33-.89-3.74-2.45-7.5-4.87-11.22-7.27a7.91,7.91,0,0,0-3,4.51c-0.4,1.44.29,3.56-2.51,4.43a42.78,42.78,0,0,1,.89-5.36c0.78-2.58,0-4.72-1.44-7.32-0.55,1.83-1,3.25-1.41,4.65A15.33,15.33,0,0,1,696,25.19c-3.11,4.73-4.42,9.44-.64,14-0.63,1.43-1.56,2.53-1.51,3.59A76.18,76.18,0,0,0,695,50.51l5.3,1.34-0.06.61-5,1.93,3.16,4.46c-1,2-2.07,3.46-2.33,5-0.39,2.31-.72,4.29-3.51,4.78A4.34,4.34,0,0,0,691,70a7.47,7.47,0,0,1-8.59.77A6.92,6.92,0,0,1,681.13,69c2.65-.41,5-0.63,7.18-1.17A4.42,4.42,0,0,0,691,66.07c1.82-3.57,2.68-7.43,1.42-11.36a5.75,5.75,0,0,1,.35-5.19,7.72,7.72,0,0,1-1.65-6.63,14.78,14.78,0,0,0-.44-8.51A9.54,9.54,0,0,1,691,28a14.92,14.92,0,0,0,.58-9.11l-2.71-.78c1-2.61-.55-3.94-1.83-5.22-1.71,1.43-3.33,2.63-4.74,4a6,6,0,0,0-1.41,2.66,67.2,67.2,0,0,0-1.59,7.45,9.58,9.58,0,0,1-2.79,5.42c-1.33,1.4-2.53,2.91-3.32,3.83,0.6,2.71,1.32,4.69,1.41,6.7A6.53,6.53,0,0,0,677,48.14c0.8,0.66,1.43,1.54,2.26,2.14,2.29,1.66,2.88,3.69,1.63,6.25-2.36-1.2-4.72-2.41-7.09-3.58A8.36,8.36,0,0,1,670,49.6a9.62,9.62,0,0,0-6.88-4.79c-1.36-.25-2.7-0.67-4.06-0.83a6.58,6.58,0,0,1-5.54-3.61,4,4,0,0,0-.89-0.86c-1.88,2.46-1.84,2.43-.1,4.32,1.33,1.44,2.62,2.93,3.82,4.48a6.09,6.09,0,0,1,1.1,5.48c-2.73.23-3.54-1.75-4.41-3.92l-1.75,2.78c-2.74.4-5.18,0.3-7.35-1.47-1.17-1-2.11-.37-2.86.84l1.19,2.19c-2.34.85-2.42,5-7.07,3.4,3.44-1.43,4.07-3.55,3.1-6.23a7.44,7.44,0,0,0-6.43,2.09c-2,1.88-4,3.82-6.22,5.52a13.4,13.4,0,0,0-4.29,4.78c-1.59,3.29-4,3.45-6.45.82a16.16,16.16,0,0,1-1-1.33c1-.64,1.78-1.1,2.51-1.65,2.09-1.6,2.35-3.18.42-4.84a9.66,9.66,0,0,0-7.86-2.68c0.58,2,1.51,3.75,1.5,5.51s-1,3.41-1.53,5.12c3.56,3.86,3.77,5.47,1.19,8.07-2.79-1.27-1.29-4.32-2.69-6.68-1.64,2.28-2.95,4.43-4.58,6.27a72.89,72.89,0,0,1-5.39,5c2.44,4,2.38,4.59-.58,7.07-1.52-3.19-4.26-4.84-7.74-6.3-0.24,1.46-.95,3-0.49,3.55,1.13,1.33,2.81,2.21,4.53,3.45l-1.85,3.14a18.35,18.35,0,0,0-3-2.9c-1.78-1-3.19-2.17-3.52-4.39-0.3-2-1.08-4,.52-5.88a2.92,2.92,0,0,0,0-1.4c-2.42-.64-5.06-1-5.58-4.59a31.84,31.84,0,0,1,3.24.63c3.3,1,6.62,2,9.87,3.21a5.39,5.39,0,0,0,5.23-.78,11.61,11.61,0,0,0,4.91-6.49c0.65-2.3.33-3.3-1.6-4.77-1-.76-2.31-1.36-2.92-2.37A26,26,0,0,0,587,48.46c-4.1-1.9-8.2-5.32-13.4-2.81a2.23,2.23,0,0,1-2.06-.61,2.34,2.34,0,0,1,.29-2.06,23.82,23.82,0,0,1,2.46-2.73,12.62,12.62,0,0,0-9.76-4.54,28.43,28.43,0,0,1-3.78-.14c-5.09-.43-9.87.19-13.71,4a2.62,2.62,0,0,1-2.76.79c-2.89-.66-4.84.29-6.45,3.1a11.59,11.59,0,0,1-5.55,4.86,12,12,0,0,0-6.5,5.72,26.89,26.89,0,0,1-2.7,3.52,24.93,24.93,0,0,0-2.14,2.25c-0.86,1.34-.7,2.55,1.25,3.42-0.09-3.43,2.71-3.47,4.5-4.6,1.55,1,1.14,2.09.46,3.09-1.43,2.09-2.89,4.16-4.47,6.14-1.9,2.37-3.53,4.87-3.87,7.94-0.29,2.57.32,5.41-2.84,6.78a4,4,0,0,0-.66,1.18,5.6,5.6,0,0,1-1.37,1.48c-7.12,4.29-11.68,10.64-14.77,18.19a8.81,8.81,0,0,0-.16,6.1,3.55,3.55,0,0,1,.24,2.22c-0.71,1.41-.15,2.5.55,3.55,1.28,1.92,2.59,3.83,4,5.64,1.77,2.27,3.9,2.64,6.32,1a42,42,0,0,0,3.55-3.27c0.8-.69,1.7-1.26,2.63-1.94A8.06,8.06,0,0,1,517,118c0.94,3.31,1.84,6.64,2.79,9.95a1.54,1.54,0,0,1-1.25,2.14c-2.36-1.27-2.32-4.31-4.07-6-5.72,3.67-6.77,4.9-6.13,11.57a3.43,3.43,0,0,1,0,.69c-0.35,3.25-1,6.36-4.53,8.31l-0.2-4c-2.1,2.11-2.91,4.51-4.07,6.71a56.89,56.89,0,0,1-3.9,6.46c-1.4,2-3.38,3.54-4.61,5.58-1.84,3.06-4.55,4-7.81,4.26-1,.07-2,0.22-3.13.36l0.42,3.55c-2.61.44-4.86-2.56-7.65,0,2.16,2,4.07,4.2,6.39,5.81a9.34,9.34,0,0,1,3.93,7.36,13.05,13.05,0,0,1-1.43,6.26c-0.82,1.74-2.94.94-4.45,0.92-4.23-.05-8.47-0.3-12.69-0.55-3.83-.22-5.41,1.56-4.21,5.05a6.74,6.74,0,0,1-.31,5.7c-1.77,3.16-1.06,6.19,0,9.34a5.67,5.67,0,0,0,4.6,4.1,17.52,17.52,0,0,1,4.23,2,20.53,20.53,0,0,1,2.16,1.56,23.15,23.15,0,0,1,7.36-2.15,8.82,8.82,0,0,0,8-7.73,7.72,7.72,0,0,1,3.66-5.91c2.13-1.49,4-3.32,6.11-5.07a11.31,11.31,0,0,1-.81-2,2.35,2.35,0,0,1,3-2.93A4.35,4.35,0,0,1,500,190c2.83,2.14,5.09,1.05,7.3-1.09,1.38-1.34,2.78-2.75,4.94-3.2a25.41,25.41,0,0,1,2.18,2.72c2.94,4.88,7.16,8.39,11.92,11.35,0.39,0.24.77,0.52,1.14,0.78,4.25,3,4.25,3,2.45,7.63a2.28,2.28,0,0,1-.61.54c-2.62-1.35-5.06-.51-7.94.86,2.58,1.61,4.68,2.92,7.45,3.11l0.92-2.62c3-.72,4.88-2.77,6.49-5L534.48,201l4.26,1.86c0.92-2.09.37-3.47-1.37-4.59-2.14-1.37-4.12-3-6.28-4.31a23.49,23.49,0,0,1-8.45-8c-1.53-2.58-1.68-2.69,1-5a4.52,4.52,0,0,1,.94.93c2.73,5,7.29,7.91,12,10.66a7.77,7.77,0,0,1,2,1.33,22.79,22.79,0,0,1,3.49,4.57,43.43,43.43,0,0,1,2.75,7.46,7.83,7.83,0,0,0,4.76,5.21c1.75-1.28,2.63-2.75,2-5a30.63,30.63,0,0,1-.39-5l5.79,3.38c0.24-4.2,3-4.62,6.3-5.13-0.44,1-.66,1.63-1,2.21-1.25,2.16-2.22,4.28-.77,6.82a3.13,3.13,0,0,1-.13,2.62c-1.52,2.68-.47,4.58,1.71,6.58,3.88-1,7.9-2,11.83-3.22,1.57-.49,3-0.61,4.25.37a3.93,3.93,0,0,0,4.8.21c1.13-.64,2.66-1.92,3.67-0.53,0.59,0.81,0,2.54-.21,3.84a4.12,4.12,0,0,1-.57,1.26,17,17,0,0,0-2.25,9,3.16,3.16,0,0,1-.72,2.15c-2.51,2.61-5,2.88-7.91.85-1.75-1.23-3.36-2-5.28-.3a3.6,3.6,0,0,1-2,.41c-5.67.4-11.06-.38-15.84-3.77-0.66-.47-1.41-0.79-2.09-1.23a2.61,2.61,0,0,0-3.92.74c-1,1.29-1.9,2.61-2.82,3.94-1.11,1.6-2.61,2.39-4.48,1.7-2.91-1.07-6.07-1.88-8.52-3.65s-4.52-2.79-7.51-2.54c-2.68.22-3.65-.7-4.56-3.31a33.58,33.58,0,0,0-1.4-4.26c-1.14-2.22-1.59-4.29.45-6.17-3.3-2.34-3.8-2.65-7-2.31-5.85.63-11.7,1.34-17.51,2.24a16.66,16.66,0,0,0-6.12,2.1,16.18,16.18,0,0,1-7.8,2.48c-3.17.19-6.37,0.58-8.83-1-2.27,2.72-4,5.63-6.45,7.54-4.14,3.18-6.13,7.48-7.51,12.12a6.58,6.58,0,0,1-2.87,4,32.52,32.52,0,0,0-11.21,12.49,28.42,28.42,0,0,1-2.48,4.16,5.59,5.59,0,0,0-.87,5.23,18.87,18.87,0,0,1,.54,9.24q-1.55,6.73-3.13,13.46c-0.68,2.92-.66,3.58,1.75,4.92a13.51,13.51,0,0,1,6,6.92,21.73,21.73,0,0,0,7.4,9c1.67,1.24,3.26,2.59,5,3.76,7.5,5.15,6,4.7,14.62,2.53,2.5-.63,5-1.29,7.49-0.7a10.6,10.6,0,0,0,9.38-2.26,10,10,0,0,1,7.8-1.93,8.84,8.84,0,0,1,6,3.68c1.29,1.6,2.81,2.43,4.82,1.78,2.35-.76,4.08.48,5.66,1.79a3.27,3.27,0,0,1,.86,2.67c-0.6,3-1.39,6.07-2.26,9.05-1.46,5-1.5,5,2.89,7.74,0.49,0.31,1,.64,1.47.92a9.39,9.39,0,0,1,4.19,5.31c0.91,2.47,2,4.89,2.92,7.35a3,3,0,0,1,.29,1.65c-0.51,2,.33,3.59,1.19,5.25,2.21,4.23,2.08,4.5-1.43,8a7.89,7.89,0,0,0-2.12,3.38c-0.79,3.13-1.25,6.34-1.85,9.51a3.49,3.49,0,0,0,.95,3.5,14.33,14.33,0,0,1,4.91,8.51,4.36,4.36,0,0,0,1,1.79,5.86,5.86,0,0,1,1.11,4.89,19.65,19.65,0,0,0,2,11.76c1.72,3.65,3.48,7.3,5.41,10.84a15.18,15.18,0,0,1,2.18,8.19c-0.18,4.2,4.13,7.29,8.19,6.32,4.36-1,8.7-2.37,13.13-2.92,6.91-.87,11.71-4.46,15.19-10.21,2.09-3.46,4.21-6.9,6.19-10.42a9.35,9.35,0,0,0,1.31-3.85,4.36,4.36,0,0,1,2.48-3.8,6.79,6.79,0,0,0,2.75-2.84,31.7,31.7,0,0,0,1.75-6.68,4.45,4.45,0,0,0-.67-2.85c-1.77-2.81-2-2.9.58-5.1a122.57,122.57,0,0,1,9.77-7.71,7.26,7.26,0,0,0,3.33-5c0.55-3.3,1.07-6.61,1.67-9.9a8,8,0,0,0-1.1-6c-1.8-2.73-2.71-5.49-1.6-8.76a5.59,5.59,0,0,0-.13-2.74c-0.8-3.87.55-6.88,3.19-9.71,6.32-6.75,12.66-13.46,19.79-19.39a19.71,19.71,0,0,0,4.34-4.43c3.16-5.13,4.7-10.93,6.64-16.55-2.46-1-3.78-1.14-7-.63q-6.16,1-12.3,2c-3.93.69-4.85,0.29-6.67-3.12-1.52-2.83-3-5.66-4.52-8.51a2,2,0,0,1-.29-1.32c0.74-2.46-.91-3.5-2.66-4.15-4-1.48-5.91-4.55-7.1-8.33q-0.67-2.15-1.47-4.25c-3-8-6-16-10.24-23.38a5.07,5.07,0,0,1-.25-1.32l3.46,2.85,0.9-4.35a5.75,5.75,0,0,1,1.64,2.77c1.66,6.26,5.07,11.65,8.82,16.75,1.77,2.42,2.83,4.7,2.38,7.61a6.1,6.1,0,0,0,1.62,5.1,17.7,17.7,0,0,0,2.53,2.83c3.76,2.83,5.81,6.78,7.46,11,0.29,0.75.62,1.49,1,2.23,1.23,2.67,1.51,3,4.5,2.51a31.44,31.44,0,0,0,8.26-2.36c7-3.34,13.82-6.93,20.61-10.61a83.81,83.81,0,0,0,7.26-4.9l-1.14-3.37,4-.37,2.82-7.92c-2.39-1.44-4.47-2.89-6.72-4-1.47-.71-2.54-1.37-2.71-3.15-0.14-1.53-1.06-2.5-3.14-2.69a11.33,11.33,0,0,1-8.46,5.39c-2.29.34-3.16,0-3.21-2.43,0-1.2,0-2.39,0-3.88-3,.55-4.25-1.07-5.39-2.9s-2.54-3.86-3.7-5.86a14.09,14.09,0,0,1-.92-2.72c2-.89,3,0,4.16.82,3.9,2.69,7.86,5.28,11.7,8,2.32,1.67,4.51,2.93,7.18.22,1.33,1.4,2.6,2.56,3.64,3.9a5.11,5.11,0,0,0,3.77,2.11c4.83,0.48,9.65,1.12,14.48.07a9.34,9.34,0,0,1,9,2.32,58.78,58.78,0,0,1,6.33,6.79c1.74,2.33,3.5,3.85,6.58,3.21a16.22,16.22,0,0,1,3.16,0,5.06,5.06,0,0,1,.22,1.4c-0.67,4.56.53,9,1.23,13.39a5.22,5.22,0,0,0,1.68,3.19,10,10,0,0,1,3.48,5.39q2,6.07,4.31,12.06a26.72,26.72,0,0,0,2,3.58c3-1.36,5.65-2.57,6.24-5.85,0.67-3.74,1.38-7.49,1.71-11.26,0.19-2.16.5-3.78,2.79-4.58a7.15,7.15,0,0,0,2-1.83c5.68-5.41,11.35-10.85,17.08-16.21a5.57,5.57,0,0,1,2.94-1.64c2.82-.22,5.68-0.08,8.78-0.08a28.64,28.64,0,0,1,1,4.74,4.38,4.38,0,0,0,2.61,4.15c3.59,1.58,4.64,3.92,3.14,7.63-0.53,1.33-.6,3.19,1,4s2.44-.8,3.44-1.66c1.42-1.23,2.52-2.88,4.66-3.74a6.41,6.41,0,0,1,0,1.71,9.32,9.32,0,0,0,.52,7.67,3.48,3.48,0,0,1-.24,3.91c-0.48.64-.75,2.21-0.38,2.56,1.74,1.63,1,3.21.58,5a5.65,5.65,0,0,0,.57,3.66c2.54,4.65,5.28,9.19,8,13.77,0.55,0.94,1.61,1.7.85,3.38-2.87-2.36-5.63-4.61-8.36-6.9a13.88,13.88,0,0,0-9.74-3c1.47,1.78,2.89,3.47,2.59,5.86-0.26,2,.76,2.8,2.76,3.07,2.6,0.36,3.25,1.34,2.19,3.81-1.18,2.76,0,4.4,1.89,6,1.28,1,2.6,2,4.43,3.48-0.73-2.88-3-4.3-2.74-7.25,1.09,1.21,1.86,2,2.61,2.9,4.36,4.93,8.7,9.88,13.09,14.79a11.53,11.53,0,0,0,2.61,2.22A36.16,36.16,0,0,0,800,348.54c6.25,0.49,12.34,1.62,18.48,2.7a17.7,17.7,0,0,0,7.85,0c2.92-.87,5.34-0.52,7.47,1.19a5.08,5.08,0,0,0,6.3.48c0.91-.5,1.93-0.81,2.8-1.36,4.08-2.61,8.34-4.42,13.35-3.39a3.61,3.61,0,0,0,1.38-.09c1.46-.29,2.44-1.11,3-3.08-4.56.67-8.9-.06-13.06,1.66a17.61,17.61,0,0,1-4.28,1.09c-1.68.23-3.52-.15-5.08,0.37-6.33,2.11-12.55,1.25-18.79-.23-8.52-2-16.87-4.79-25.77-5-3.72-.09-7.18-3.84-7.55-7.34,3.55-1.88,6,2.19,9.31,2-1.27-3.44-4.29-5.72-7.36-5.44a4.19,4.19,0,0,1-3.65-1.46c-1.86-1.89-3.87-3.64-5.78-5.49-1.23-1.19-2.35-2.46-2.22-4.73l4,0.84c0-2.49,0-4.79,0-7.08a3.82,3.82,0,0,0-1.88-3.47c-1-.64-2-1.18-3-1.79a18.49,18.49,0,0,1-7-8.28c0.71-.82,1.25-1.41,1.75-2s0.95-1.26,1.43-1.9c-4.25-2.8-4.25-2.8-2.88-6.48,4-1.13,7,.36,9.44,3.38a10.29,10.29,0,0,0,1.76,1.66c1.87,1.42,3.16,3,1.83,6.08a35.28,35.28,0,0,0,17.08-13.08c-3.64-5.89-7-12.2-14.22-16,2.4-2.56,4.52-4.65,6.42-6.91s3.78-3.34,6.52-1.53a2.47,2.47,0,0,0,1.26-.19h0a26.93,26.93,0,0,1,5-1.31c4.4-.31,8.27-2.13,12-4.09,4.37-2.27,8.26-5.4,10.38-9.86a39.36,39.36,0,0,1,5.32-8.43c1.67-2,1.66-4.48,2.1-6.82,0.1-.51-0.74-1.25-1.23-1.81s-1.55-1.16-1.87-1.93c-1.42-3.38-2.69-6.83-4-10.26a2.84,2.84,0,0,1,.12-1.1c1.72-1.1,3.43-2.26,5.21-3.33a3.16,3.16,0,0,0,1.73-3.75c-0.49-1.83-2.15-2.09-3.62-2s-3.54,1.49-4.32.92a9.47,9.47,0,0,0-4.48-2.12,9.26,9.26,0,0,1-2.17-1.27c5.66-1.25,8.57-6.18,14-7,0,2.57-3.06,3.45-2.51,6.14,3.49-.64,6.44-3,10-2.26,0.33,4.31.38,4.28,2.82,8.66a15.81,15.81,0,0,1,1.36,3.86c0.53,2.11.91,4.25,1.37,6.43,4.24-1.74,4.33-1.93,4.76-6a7.41,7.41,0,0,1,1-2.91,3.8,3.8,0,0,0-.08-4.2c-1-1.71-1.64-3.56-2.48-5.33-0.76-1.61-.13-2.65,1.32-3.38a8.11,8.11,0,0,1,1.59-.69c2.59-.66,3.68-2.15,3.73-5,0.08-4.66,2.29-6.24,6.77-5.09a4.41,4.41,0,0,0,4.13-.81c4.42-3.25,8.36-6.92,10.89-11.9a16.52,16.52,0,0,1,2.18-3.53c1.91-2.16,2.7-4.78,3.56-7.42,2.05-6.28,3.47-12.64,2.9-19.31-0.33-3.79-3.38-5.79-7-4.53-0.61.22-1.23,0.4-1.83,0.6l-2-4.48-2.37,2L872.1,137c1.71-1.9,3.22-3.65,4.79-5.34,4.71-5.07,9.39-10.17,14.18-15.16,2.51-2.62,5-2.89,8.29-1.49,2.69,1.15,5.43,2,8.31.35a2.57,2.57,0,0,1,3.16.61c4,3.64,8.37,2.88,12.86,1.35-0.63-7.46,7.67-18,14.16-18.55,0.82,2.64.14,6,3.31,8.06,1.41-1.8,2.71-3.55,4.1-5.22,1.77-2.13,3.58-4.23,5.44-6.27,0.67-.73,1.46-1.58,2.91-0.62a5.26,5.26,0,0,1-.56,2.05,6.67,6.67,0,0,0-1.47,5.19,6.5,6.5,0,0,1-2.67,6c-1.42,1.18-2.82,2.39-4.21,3.6a58.35,58.35,0,0,0-5.41,4.84c-3.61,4.05-7,8.3-10.53,12.42a7.79,7.79,0,0,0-2.17,5.32c0.1,5.31.45,10.57,2.31,15.65a6.61,6.61,0,0,1,0,4.28c-1,2.49-1.2,2.41-.53,5,5-5.85,10.25-11.86,15.39-17.91a3.78,3.78,0,0,0,1-2.47c-0.29-2.67.48-4.42,3.2-5.27a1.84,1.84,0,0,0,1.09-3c-1.64-2.2-1.16-4.2.23-6l-4-3.91c2.8-1,3.09-3.27,3.8-5.15s1.82-2.69,3.61-2.55a38.18,38.18,0,0,1,4.56.89l0.54,0.66a27,27,0,0,1,2-2.82c3.59-3.88,5.06-3.78,8.36.46a0.8,0.8,0,0,0,.47.09c5.64-7.55,14.57-10.85,21.27-17.28L994,97.67c3.17-7.11-2.34-10.51-5.86-14.75,2.56-2.91,3.66,1.33,6.12.76l4.43-6-2.27-3.51,3.68-2.15,2.47,7.35c4.27-2.53,6.54-.14,8.71,2.72a12.74,12.74,0,0,0,3.1,3.18c3.12,2,5,.87,5.08-2.75a5.43,5.43,0,0,0,0-.69,3.71,3.71,0,0,1,1.88-3.72,25.45,25.45,0,0,0,3.71-4V72.08a9.14,9.14,0,0,1-5.27-2.29C1018.08,68.56,1016.36,67.38,1014.2,68.33ZM722.46,40.76a2.08,2.08,0,0,1-1.74-.66,5.76,5.76,0,0,1-1.44-4.79c0.34-2.25.7-4.5,1.05-6.75h0a2.9,2.9,0,0,0,.39,1.26c2.83,2.57,2.34,6.06,2.59,9.33A2,2,0,0,1,722.46,40.76Z"/>
  <path  d="M1,149c4.09,0.37,6.47-2.93,9.66-4.49a11.23,11.23,0,0,1,2.45-1.07c1.16-.25,2.31-0.3,2.58-1.8a1.26,1.26,0,0,1,.68-0.72C22.89,137.9,28,132.82,34.07,129a16.58,16.58,0,0,0,3.12-3.19,2.78,2.78,0,0,0,.79-3.11c-0.3-.86.35-2,0.62-3.3-2.25.61-4.3,3.41-6.71,0.84-0.37.12-.6,0.18-0.81,0.27-4.62,2-6.22.92-5.9-4.07,0.07-1,0-2.05,0-3.07a1.49,1.49,0,0,0-.67-0.22c-3.92,1.38-3.81,1.28-6.81-1.68-2.58-2.55-4.4-5.31-4.27-9.07,0-.58-0.13-1.48.16-1.67C16.43,98.94,16,94.86,19.15,93l2.92,1c0.36-3.59,3.65-3.64,6.17-5l-2.32-4.57c-1.53.72-3,2-4.42,2a43.42,43.42,0,0,1-8-1.75,1.47,1.47,0,0,1-.93-1C12.22,81,9.84,79.88,8,78.1a48.1,48.1,0,0,0,5.88-2.76,50.56,50.56,0,0,0,5-4.18l5.82,3.77c1.94-3.28.93-5.92-2.14-6.78a3.59,3.59,0,0,1-2.12-1.46c-1.78-3.59-4.85-5.79-8-7.89a8.87,8.87,0,0,1-1-.93,4,4,0,0,1,3.66-4.35c4-.5,5.64-3.16,6.95-6.39a8,8,0,0,1,4.72-4.76,10.2,10.2,0,0,0,3.14-2.09c1.43-1.32,2.58-2.66,5-2.22,1,0.19,2.42-1.14,3.58-1.89,4.33-2.77,7.37-1.69,8.79,3.18a4.69,4.69,0,0,0,.41.75A11.18,11.18,0,0,1,49,37.92c1.76-1.81,3.57-1.49,4.66.75,0.44,0.92.78,1.89,1.32,3.21,2.52-3,4.91-1.39,7.1,0s4.36,2.06,6.66.46a8.11,8.11,0,0,1,1.57,1.1c1.39,1.66,2.78,1.87,4.78.78,2.82-1.53,3.28-1.25,5.58,1.15a4.64,4.64,0,0,0,1.67,1,7,7,0,0,0,2,.41c4.89,0.31,8.71,2.6,12,6.13,1,1.1,2.57,1.71,4,2.6,1.62-2.31-.06-4.17.18-6,2.75-1.72,4.19-1.2,4.59,2.06,0.25,2.07,1,3.18,3.23,3.59l7-10.42c1.17,0.48,2.19,1,3.24,1.3,2.13,0.7,3.75-.73,3.14-2.88-0.38-1.34-1.23-2.6.93-3.58,2.53,2.36,3.2,5.93,5.39,9.27l3.82-6.16,2.72,6.87a7.48,7.48,0,0,0,2-1.49c1.17-2,2.72-1.93,4.45-1,3.07,1.59,6.16,3.14,9.13,4.91a6,6,0,0,0,4.53,1,6.48,6.48,0,0,1,4,.53c3,1.6,3.12,4,.57,6.21a3.88,3.88,0,0,1-1,.53,3.57,3.57,0,0,0,.36,1.14c3.93,1.09,7.94,1.57,11.85.23,1.56-.53,2.77-0.45,3.79.54a28.16,28.16,0,0,1,3.5,4.21,46,46,0,0,1,2.35,4.25c3.12-3.19,3.33-4.05,1.26-7.31-1-1.57-.91-2.74.33-4a9.55,9.55,0,0,0,.87-1.08c2-2.69,2.85-3.14,5.18-1,4,3.71,8.79,4.23,13.79,4.5,1.14,0.06,2.27.24,3.49,0.38,0.16-1.23-.05-2.65.55-3.46s2.09-1.32,3.55-2.15l-2.43-1.32A19,19,0,0,1,204,53.69c-2.33-1.84-2.24-3.2.15-4.86,1.86-1.3,3.66-2.69,5.53-4.07,4.73,2.47,5,8.29.12,11.62,1.78,1.66,2.6,3.48,1.53,6-0.67,1.57.55,2.5,3.74,3.21l-1.19-3.53a1.53,1.53,0,0,1,.32-0.65c4.92-2.48,4.86-7.14,5-11.63a4,4,0,0,0-1.31-2.59,40.47,40.47,0,0,0-4.35-3.43c-1.32-1-1.79-2.07-.94-3.55a3.73,3.73,0,0,0-.29-4.19c-0.86-1.39-.62-2.69.66-4,2.69-2.79,4.22-5.9,2.56-10-0.6-1.48-.11-3.41-0.12-5.13a45.19,45.19,0,0,0-.28-6c1.13-2.43,3.73-3.5,6.06-3.68,3.17-.25,6.53-0.93,10.13.25-0.53,1-.7,1.94-1.25,2.3-3.14,2.07-3.78,5.33-4.45,8.63-0.21,1.06-.6,2.09-0.93,3.21-1.73-.86-3-1.82-4.45-2.11-1.08-.22-2.34.43-4.1,0.82l5,3.87c-0.88,1.09-1.51,2-2.28,2.81a5,5,0,0,0-.78,6.63,34.06,34.06,0,0,0,3.55,5.1,4.65,4.65,0,0,1,1,5.34c-1,2.61-.79,2.9,1.62,3.87,4.45,1.79,4.54,1.89,3.77,7-0.25,1.63-.42,3,2,3.3,1.36-2.18.76-4.83,1.43-7.39a21.3,21.3,0,0,1,2.69.89c2.19,1.06,2.59,2,2,4.48a12.06,12.06,0,0,1-.53,1.64c-1.37,3.48-.79,5.17,2.91,7.62,0.92-2,2.37-3.86,2.57-5.86A5.82,5.82,0,0,1,245.37,54c-2.66-2.25-1.9-5-1.69-7.77L231.1,37.91l6.11-1.74,0-.64c-1.44-.41-2.86-0.9-4.32-1.23-1.95-.44-2.8-1.64-3.26-3.54-1.61-6.66,1-12.23,4.27-17.67a2.89,2.89,0,0,1,1.29-1.1,18.76,18.76,0,0,1,9.6-1.63c-1.43,3.89-4.24,6.54-6.51,9.77,0.57,1.55,1.6,3.13.48,5-0.28.47,0.33,1.51,0.59,2.27,0.65,1.85,1.49,3.65,1.95,5.55a5,5,0,0,0,3.49,3.64,9.29,9.29,0,0,0,.52-6.76c-0.17-.66-0.64-1.62-0.37-2,2.12-2.71-.06-4.43-1.3-6.38a11.88,11.88,0,0,1-.55-1.16c2.35-3.84,5.92-6.48,10.1-9.41,1,3.16,2.11,5.91,2.56,8.78,0.42,2.71.09,5.54,0.09,9l2.66-4.19,3.56,3.95a38.08,38.08,0,0,1,1.62-5,35.47,35.47,0,0,1,2.82-4.14c-4-.62-6.71-3-10-5.73a16.69,16.69,0,0,1,9-.3c1.78,0.39,3.08,3.11,2.71,5.06a18.31,18.31,0,0,1-.62,2c0.73,0.84,1.34,1.68,2.08,2.39a7,7,0,0,1,2.47,6.08c-0.3,3.1,2.41,4.08,5,5.62l2.55-5.43c2.27,1.28,2.65,3.46,3.67,5.44l-3.93,2.48c1.15,2.07,2.71,2.37,4.55,2.16a7.08,7.08,0,0,1,6.19,2.34,18.84,18.84,0,0,0-1.86,1.32,21.91,21.91,0,0,0-1.61,1.83c1.81,0.89,2.9-.1,4.06-0.73a3.3,3.3,0,0,1,4.59.85c-0.81.59-1.46,1.14-2.17,1.59-2.52,1.61-3.09,3.52-1.57,6.1a10.74,10.74,0,0,0,2.5,2.83C299,59.13,304,63,309,66.95a24,24,0,0,1,1.9,1.5c1,1,1.16,2.21.08,3-2.63,2-2.93,4.79-3.09,7.72a26.18,26.18,0,0,1-.71,3.56c-2.74-1-4.62-2.86-4.92-5.1-0.4-3.09-2.26-4.34-4.54-5.55-0.89-.47-1.78-0.93-2.91-1.51a5.49,5.49,0,0,0-.28,1.55c0.94,5.05,2.22,9.9,6.62,13.29a61.55,61.55,0,0,1,5.17,5.05l-4.19,2.84,1.72,5.11c-3.12-.66-4.6-2.82-6.51-4.29s-3.86-3.21-6-4.6c1.45,3.68,4.6,6,7.09,9.33-3,.68-5.49-0.35-8-1.08-0.87-.25-1.75-0.86-2.59-0.79-2.52.19-3.82-1.21-4.83-3.19a9.59,9.59,0,0,0-3.7-4.35c-1.54-.91-2.5-2.88-3.58-4.47-1.35-2-2.14-1.88-4.45-.86-1.37.6-2.62,1.46-4,2.15-1,.52-2,0.94-3.61,1.65a16.81,16.81,0,0,1,.39-2.68c0.6-1.74,1.4-3.41,2-5.15,0.86-2.7,1.63-3.24,4.57-2.9,1.49,0.17,3,.34,4.47.45a5.29,5.29,0,0,0,1.31-.23,24.58,24.58,0,0,1-.86-4.11c-0.11-2.89,1.41-4.1,4.18-3.27a9.8,9.8,0,0,1,3.17,2,37.25,37.25,0,0,1,2.91,3l3.52-4.21c-2-.6-3.46-1.1-4.95-1.44a26.44,26.44,0,0,0-3.1-.33c-1.72-.18-2.53-1.1-2.93-2.84a20.21,20.21,0,0,0-2.24-6.05c-3.45-5.6-7.11-11.08-10.8-16.53-0.58-.86-2-2.08-2.51-1.87-1,.4-1.69,1.65-2.36,2.66a6.59,6.59,0,0,0-.53,2c-2,.44-3-0.7-3.43-2.2-0.54-1.83-1.73-2-3.21-1.59-2.62.78-5.2,1.66-8.55,2.74l6.93,4.56c2.51,1.66,2.94,2.26,2,5.14A18,18,0,0,0,253,64.2c0.34,2,.27,3.83-1.47,5.38a4.3,4.3,0,0,0-1,2.87,5,5,0,0,1-3.42,5.06,12.11,12.11,0,0,0-1.34.79c4.52,3.79,10.27,5.85,11.92,12.13-3.72.21-6.29-1.72-9-3.62-2.19,2-1.6,5.66-4.78,7.27-0.85-2.66-2.94-3.57-6.08-3.37l2.35-8c-1.93.05-2.31,1.3-2.77,2.23A6.09,6.09,0,0,1,234,88c-2.53,1-4.71,2.34-5.15,5.43a4.65,4.65,0,0,1-1.39,1.93c-2.15,2.41-4.25,4.89-6.53,7.18-5.09,5.12-5.63,11.46-4.66,18,0.51,3.47,1.46,7,4,9.67a2.05,2.05,0,0,0,.82-0.14c1.34-3.47,4.37-6,5.49-9.57,0.89-2.87,2.26-3.67,5.22-3.24,3.67,0.54,6.76,1.81,8.59,5.52s4.17,7.19,6.36,10.72a9.45,9.45,0,0,0,3.49,3.17c1.65,1,2.74,2.88,4.16,4.48-1.35,1.79-2.65,3.23-.94,5.15,0.3,0.33-.43,1.57-0.65,2.27,1.42,1.74,2.8,3.43,4.19,5.1a6.78,6.78,0,0,0,1.21,1.23c1.73,1.23,3.07.69,3.42-1.5a15.25,15.25,0,0,0,.08-3.8,57,57,0,0,0-1-7.15c-0.43-1.93.44-2.86,1.73-4.07a27,27,0,0,0,4.6-5.57c2.57-4.2,2.19-7.64-.91-11.48-0.94-1.17-2-2.21-2.95-3.41-1.32-1.77-1.31-2.48.57-3.59s1.91-2.52,1.12-4.09a4.72,4.72,0,0,1-.15-4.23,11.67,11.67,0,0,0,.21-4.43c-0.19-4.29,1.49-5.62,5.66-4.37a22.71,22.71,0,0,1,2.47,1.06c0.67-.7,1.29-1.84,1.81-1.8a6.07,6.07,0,0,1,3.42,1.29,10.54,10.54,0,0,1,2.75,3.93,6.51,6.51,0,0,0,4.1,3.86c4.55,1.89,5.23,2.6,4.6,7.47-0.55,4.3,1.74,6.36,5.11,8.33,4.25-2.87,5.67-7.67,8.24-12.29a19.45,19.45,0,0,1,2.13,2.87c2.13,4.48,4.17,9,6.21,13.53a2.35,2.35,0,0,1,.22,1.34c-0.25,1.23-.76,2.38.32,3.55,2.14,2.32,2.77,5.95,6.23,7.15a11.68,11.68,0,0,1,2.15,1.1c1.5,0.9,2.17,2.07.79,3.74,2.78-.42,6.87,1.55,7.55,3.69a3.91,3.91,0,0,1-.19,2.66,4.27,4.27,0,0,0,0,4.26c1,1.86.5,3.46-.67,5.12-1.81,2.58-1.57,3.11,1.22,4.76,2.28,1.35,4.57,2.7,6.71,4.25a5.07,5.07,0,0,1,1.85,5.89c-0.75,2.6-2.26,3.14-4.64,1.77l-1.09-.64c-3.62,4.44-4.37,4.49-7.31.41l3.13-1.64-9.37-2.09c0.58-5.31,4-9.52,4.53-14.51l-0.63-.5a25.74,25.74,0,0,0-4.15,3.26c-2.55,3-5.41,4.13-9.15,2.51a2.25,2.25,0,0,0-.86.2l3.67,4.32a3.65,3.65,0,0,1-4.39-1.43c-2.24-3.4-5.21-2.72-8.27-1.82a25.28,25.28,0,0,0-2.94,1.36c3.16,1.61,6.09,1,8.95,1.62v5.3c-2.7,0-3,1.76-3,3.51l8.41,3,3.83-4.62a12.82,12.82,0,0,1,3.09,6.23,14.69,14.69,0,0,1-1.67,1.11c-5,2.42-10.16,4.43-14.41,8.15a6.88,6.88,0,0,1-1.93.8c-1.93-2.7-1-4.84,1.2-6.92-5.41.91-13.39,7-14.82,12l3.52,1.86c-1.9.65-3.24,1-4.52,1.56a36,36,0,0,1-3.73,1.79,7.72,7.72,0,0,0-5.36,4.92,44.21,44.21,0,0,1-3,5.86c-1.34,2.27-1.76,4.47-.11,6.73-0.93,2.07-3,2.6-4.5,3.74-3.5,2.61-7.05,5.18-10.36,8-2.13,1.83-2.37,7.29-.62,10.07a16.31,16.31,0,0,1,2.34,8.9,32.89,32.89,0,0,1-.78,4.92c-1.31-.68-2.39-0.93-3-1.6-1.85-2.21-3.55-4.5-3.73-7.63a5.32,5.32,0,0,0-4.66-4.78c-1.25-.18-2.56,0-3.8-0.25a8.24,8.24,0,0,1-3.13-1.19c-2.85-2-4.69-1.93-7,.54-1.74,1.82-3.73,1.94-6,1.24a50.17,50.17,0,0,0-5.65-1.25c-4.37-.8-7.08,2.59-10.43,4.32-0.66.34-1.08,1.79-1,2.7a33.47,33.47,0,0,0,1,5.06c-2.66,2.21-2.31,5.51-2.1,8.76,0.1,1.61.25,3.23,0.4,4.83,0.42,4.28,2.71,7.13,6.84,8.13a48.71,48.71,0,0,0,6.17.74,3.38,3.38,0,0,0,3.77-2.38,46.93,46.93,0,0,0,1.83-5.22,2.64,2.64,0,0,1,2.3-2.25c2.51-.3,5-0.56,7.54-0.62,1.66,0,2.28,1.1,1.73,2.59-1.19,3.23-2.51,6.41-4.06,10.33a8.67,8.67,0,0,0,5.62,5.46c3,1.11,6,2.28,9.3,3.54-0.41,2.83-.77,5.43-1.17,8-0.52,3.33-.27,3.87,2.82,5.4a42.39,42.39,0,0,0,4.41,2c0.69,0.25,1.92.4,2.25,0,1.84-2.13,3.64-.7,5.33,0,4.18,1.63,5.32,1.35,7.23-2.78,1.25-2.7,2.86-4.34,6.1-4a5.34,5.34,0,0,0,2.85-1,34.09,34.09,0,0,0,3.21-2.29l2,3.31c0.87-2,2.34-2.32,4.11-2.12,1.95,0.21,3.93.11,5.88,0.34a3.4,3.4,0,0,1,2.37,1.08c1.06,2,2.62,1.73,4.11,1.07,1.3-.58,2.48-0.84,3.52.15,2.6,2.47,5.19,2,7.87.22a4.45,4.45,0,0,1,1-.38,1.63,1.63,0,0,1,.42,0c0.82,2.07-.73,3.4-1.9,5.3,1.48,1.36,3,2.76,4.49,4.1a35.65,35.65,0,0,0,3,2.35,5.79,5.79,0,0,1,2.57,6.27,12.59,12.59,0,0,0,3.56,10.16l2.59-3,4.92,2.45,4.34-8.06a24.59,24.59,0,0,1,1.84,3.14c0.77,2,1.3,4.17,3.16,5.63,1,0.79.78,1.86,0,2.74s-1.5,1.43-2.2,2.2-1.39,1.69-2.2,2.68c3.57,1.51,5.6-2.86,9-1.49l-1.8,5,0.66,0.44,6.22-6.32c3,1,5.66,2.17,5.85,5.84,2.17-.57,2.13-0.51,4.16.49a8.2,8.2,0,0,0,2.93.79,25.94,25.94,0,0,0,4.5-.05c2.76-.27,4.77.83,6.79,2.68a32.63,32.63,0,0,0,6.59,4.3,7.57,7.57,0,0,1,1.51,12.08c-2.26,2.08-5,3.68-6.43,6.65-0.49,1-1.91,1.55-3.13,2.48-0.12,2.54-.19,5.31-0.39,8.06-0.28,3.79-.55,7.59-1.06,11.35a4.79,4.79,0,0,1-1.77,2.73,5.75,5.75,0,0,0-2.23,3.71,13.23,13.23,0,0,1-1.65,4c-0.84,1.44-2.31,1-3.72,1a11.06,11.06,0,0,0-3.33.85c-0.88.28-1.72,1-2.57,1-3.77-.05-6,2.48-8.53,4.63a4.64,4.64,0,0,0-2,3.78c0,1.27,0,2.54,0,3.81,0,2.24-.12,4.4-2.55,5.59a3,3,0,0,0-1.22,1.62c-1.9,5.34-6.33,9-9,13.87-1.26,2.29-3.87,3.16-6.44,3.68-1.67.34-3.32,0.76-5.51,1.26l2.64,4.54a18.51,18.51,0,0,0-1.85,3.59c-0.83,3-3.1,3.75-5.76,4.06-2,.23-3.89.53-5.85,0.69-1.5.12-2.51,0.79-2.44,2.32,0.2,4.39-2,6.25-6.2,6.32a9.54,9.54,0,0,0-2.37.82c1.38,1,2.54,1.67,3.54,2.54,1.65,1.42,1.45,2.77-.45,3.74-3.91,2-3.91,2-3.69,7l-5.35,2.19c-1.1,1.59-.73,3.18,1,4.57a15.25,15.25,0,0,1,1.31,1.14c2.38,2.45,2.37,5.11-.35,7.05-1.84,1.32-3,2.54-2.65,5,0.13,0.84-.92,2-1.66,2.79a32.19,32.19,0,0,1-3.31,2.72,26.77,26.77,0,0,0,1.59,2.38,8.56,8.56,0,0,1,1.62,7.1,3.49,3.49,0,0,0,.82,3.13c2.17,2.5,4.53,4.6,8.12,4.69A30.5,30.5,0,0,1,307,512c-1.49,1.31-2.53,1.33-3.39.91-2.19-1.07-3.46,0-4.62,1.66s-2.3,3.13-3.64,4.93c-2.52-3.61-6.57-3.71-10.11-4.87-1.39-.45-2.61-0.64-2.91-2.4a6.06,6.06,0,0,0-1.28-2l-8.26-12a2,2,0,0,1-.52-0.88c0.06-2.9.13-5.8,0.3-8.7,0.06-1.1.72-2.24,0.53-3.26-0.46-2.46-.68-4.75.86-7a5.08,5.08,0,0,0,.2-2.14c-2.17.35-1.71,2.36-2.58,3.39-1.54-2.28-1.61-2.9,0-4.68,1.2-1.33,2.48-2.52,1.38-4.51a0.38,0.38,0,0,1,0-.33c2-2.07.84-4.16,0.19-6.34a2.59,2.59,0,0,1,1-2,6,6,0,0,0,2.06-5.26c0-1.39,0-2.77,0-4.16-0.11-2.37.12-4.61,1.86-6.11-0.36-2.65-.82-5-0.95-7.44a6.27,6.27,0,0,1,1.05-2.85c1.88-3.6,3.79-7.3,3.89-11.37s0-8.29,1.77-12.22c0.58-1.25-.08-2.45-1.45-3.12a10,10,0,0,1-1.65-1.46l3.52-1.07c0.57-3.93.81-8,1.83-11.87,1.39-5.28-.15-10.58.65-15.82a3.14,3.14,0,0,0-2-3.34c-2.43-1.32-4.91-2.56-7.4-3.78a22.17,22.17,0,0,1-8.42-6.47,19.62,19.62,0,0,1-3.56-7.81,28,28,0,0,0-7.71-14.06c-3.18-3.27-3.26-4.75-.51-8.44a4.34,4.34,0,0,0,.88-4.15,9.62,9.62,0,0,1,2.48-10.16c2.09-2.14,3.84-4.62,5.87-6.83s2.6-4.28,1.19-7.2c-0.92-1.9-1.79-3.11-3.87-3.8-1.7-.57-2.86-0.76-4.39.42-2.52,1.95-4.3,1.87-6.95,0a61.31,61.31,0,0,1-8-6.09,36.49,36.49,0,0,1-5-7c-1.19-1.93-1.72-4.63-5-3a54.18,54.18,0,0,1-7-3.69c-2-1.47-3.7-3.37-6.42-3.83-0.95-.16-1.72-1.38-2.87-2.38l-4.89,3.92a9.46,9.46,0,0,1-2.15-.78c-4.79-3.13-10.21-4.82-15.47-6.86a22.73,22.73,0,0,1-9.54-7.41,20.54,20.54,0,0,1,1-2.21c0.85-1.44.39-2.48-.6-3.72a57.29,57.29,0,0,0-10.27-10.21,21.1,21.1,0,0,1-3.1-3.68c-0.22-.27-0.39-0.58-0.63-0.82-3.3-3.35-6.18-7-7.47-11.6a5.3,5.3,0,0,0-1.2-1.55c-2.8,1.16-2.92,1.24-1.92,3.36a28,28,0,0,0,2.56,4.09c2.79,3.94,6.2,7.42,8.22,11.93,0.73,1.62,2.35,2.83,3.43,4.32s0.93,2.14-1.46,3.18c-0.45-2.75-2.38-3.8-4.87-4.4-0.83-.2-2.05-1.23-2.06-1.91-0.08-4.31-2.67-6.39-6.28-7.74a4.19,4.19,0,0,1-.92-0.81,11.54,11.54,0,0,0,.83-1.75c0.54-1.88.13-3.17-1.69-3.93a5.26,5.26,0,0,1-3.36-4.8c-0.37-3.36-2.23-6.07-4.14-8.65a6.76,6.76,0,0,0-3.74-2.22c-4-.9-6.34-3.42-8-7q-3.75-7.8-7.83-15.44c-1.91-3.59-2.43-7.14-.72-10.95a38.15,38.15,0,0,0,1.44-4.26,18.11,18.11,0,0,0-.55-12.55c-0.48-1.18-1-2.32-1.45-3.52a11.49,11.49,0,0,0-5.33-6.57c-2.29-1.29-3.34-2.92-2.34-5.69a5.87,5.87,0,0,0-1-5.25c-1.68-2.61-3.21-5.33-4.64-8.09a4.11,4.11,0,0,0-3.49-2.47,8.5,8.5,0,0,1-5.13-2.61c-2.67-2.39-5.26-4.88-8.05-7.11a7.85,7.85,0,0,1-3-6c-0.07-1-.11-2.08-0.18-3.11a3.07,3.07,0,0,0-2.68-3.16c-2.69-.34-4.61-2-6.72-3.37-1.92-1.27-3.91-2.46-5.95-3.54-0.89-.47-2.16-1.1-2.9-0.8-2.47,1-4.32-.22-6.13-1.34-2-1.25-3.85-2.81-6.26-4.6l-0.75,6.64a4.27,4.27,0,0,0-5,1.11,37.21,37.21,0,0,1-5.11,3.56c-2,1.31-3.18,2.81-2.51,5.47a11.47,11.47,0,0,1-.19,4.45,3.32,3.32,0,0,1-1.17,2c-1.75,1.29-3.62,2.4-5.48,3.6-0.28-1.72-.28-1.72.64-3.58l-2.46-2.86a20.85,20.85,0,0,1,2.72-1.52,5.92,5.92,0,0,0,3.85-4.14c0.78-2.73,2.52-5,2.84-8.06,0.19-1.8,1-4.29,3.76-4.84,1.36-.27,1.17-1.44.47-2.74-2.92,1.54-5.67,3.37-6.68,6.51-1.88,5.85-5.63,10.58-8.89,15.57-1.91,2.93-4.84,5.27-7.57,7.56-1,.85-2.77.81-4.58,1.28l4.09,4.67c-3.47.71-5.2-2.25-7.9-2.94a12.66,12.66,0,0,0-1.24,1.68,2.93,2.93,0,0,1-3.39,1.81c-1.94-.48-3.11.34-4.17,1.69s-2.5,2.34-4.49,1.73c-1.48-.45-2.42.16-2.87,1.67a3.83,3.83,0,0,1-3.57,2.86c-2.1.09-3.35,1.23-4.61,3L1,149.73V149Z"/>
  <path  d="M322.88,1a53.24,53.24,0,0,0,3,7.48,29.86,29.86,0,0,1,1.38,5.47l4.79,5.57c-1.88,2.71-1.88,2.71-1.37,5.19-3.09,3.39-3.13,3.57-1.55,6.47,3-.84,5.46-3.38,9.29-3.26,0.26,3.94,2.83,7.37,2.29,11.55-2-.2-2-0.2-4.73-2.2-2.45-1.79-3.65-1.48-5.29,1.4,1.07,1.39,3.53.91,4.43,3.16l-5.07.89c0.77,3.51,2.82,5.83,5,8.52l3.44-5.16c-0.26-.74-0.54-1.38-0.71-2a18.69,18.69,0,0,1-.29-1.92c4.75,0.45,5.37,1.43,3.72,5.35a8,8,0,0,0-.87,2.61c-0.11,2.91-1.68,4.83-3.7,6.75-3.22,3.07-4.7,6.79-2.88,11.26,0.52,1.28,1,2.59,1.38,3.92,1.36,4.52,3.86,8.06,8.33,10a13.67,13.67,0,0,1,2,1.45c-1.39.55-2.29,0.93-3.21,1.27-3.65,1.34-3.92,2.28-1.51,5.47,0.84,1.1,1.78,2.13,2.65,3.21,1.74,2.15,3.55,4.26,5.19,6.49,2.53,3.45,2.5,3.83,0,7.49,1.1,0,2,.06,2.81,0a5.76,5.76,0,0,1,6.05,3.22c0.58,1,.87,2.44,2.93,2.56,0.58-2.53,1.17-5.07,1.73-7.61,1.2-5.44,2.52-10.79,7-14.72,1.63-1.43,2.09-3.42,2-5.66a8.91,8.91,0,0,1,2.54-7c1.41-1.35,3-2.57,4.37-3.92s2.79-2.6,4.16-1.6c1.21-1.12,2.72-1.86,3.87-3,2-1.93,3.75-4.07,5.59-6.15,2-2.24,2.91-4.66,1.24-7.51a1.4,1.4,0,0,1,.19-0.66,7.41,7.41,0,0,1,.85.57c3,2.72,3.44,2.85,6.91.67,4.5-2.82,8.9-5.8,13.32-8.74,2.1-1.4,4.14-2.88,6.41-4.47-3.16-2.18-6.22-3.13-9.71-2.42-1.21.25-2.4,0.12-2.8-1.3s0.59-1.85,1.54-2.37,2.13-1.19,3.15-1.75c-0.92-2.31-.92-2.31-0.42-4.31,4.22,1.82,3.13,7.73,7.61,9.63A33.56,33.56,0,0,0,423.31,38c2.37-2.62,2.4-3.68.48-6.75a44.64,44.64,0,0,0-9.46-11.42A18.9,18.9,0,0,1,412.62,18c2.19-1.38,4.4-.68,6.62-0.7l1.37-5c3.71,1.17,3.79,1.17,6-.16,1.17-4.25-3.74-4.54-4.94-7.88L429,1H322.88Z"/>
  <path  d="M834,372.58c2.39,1.17,3.29-.19,4.21-1.83,1.45-2.58,2.46-5.48,5.1-7.51l7.09,4.3c3.29-1.93,5.24-4.54,5.45-8.34a3.75,3.75,0,0,1,4.53-3.46,30.07,30.07,0,0,0,10.21,1.39,1.71,1.71,0,0,1,1.95,1.93,28.13,28.13,0,0,1-.46,5.12c-0.63,2.92-.35,4.44,2.14,5.91,1.93,1.14,4.19,1.73,6.22,2.72a28.91,28.91,0,0,1,3.44,2.35,4.73,4.73,0,0,0,3.3-5.14,83.36,83.36,0,0,1,.66-11,23.79,23.79,0,0,1,1.37-4.41c2.74,1.89,4.87,3.65,5.29,6.85a8.75,8.75,0,0,0,4.41,6.68,4.46,4.46,0,0,1,2.24,5.25,8.54,8.54,0,0,0,3.27,8.92c2.45,1.93,4.7,4.1,7.13,6.06a7.66,7.66,0,0,1,3.06,4.83,11.83,11.83,0,0,0,3.94,7.13,5.53,5.53,0,0,1,1.74,2.86c1.34,7.23,1.12,14.2-3.37,20.57a21.24,21.24,0,0,0-4.32,12.59,15.52,15.52,0,0,1-.72,3.37c-2.23.27-4.47,0.07-6.25,0.88s-2.78,2.59-4.3,4.1c-0.53-.67-0.87-1.09-1.21-1.53-1.09-1.41-2.58-1.49-3.56-.29-1.6,2-3.29,1.3-5.29,1.07-4-.46-6.06-2.53-7.11-6.3a14.62,14.62,0,0,0-3-5.37c-3.39-4-3.5-3.87-3.48-8.59-2.5,2.45-2.11,6.48-5.37,8.55a15.85,15.85,0,0,1-1.86-1.89q-2.79-4-5.45-8a4.17,4.17,0,0,0-4.33-2.15c-5.38.62-10.85,0.69-16,2.71a6.91,6.91,0,0,1-2.67.65,3.51,3.51,0,0,0-3.62,2.14,3.09,3.09,0,0,1-3.12,1.71c-2.42.07-4.85,0.16-7.28,0.14a5.06,5.06,0,0,0-4.22,1.84c-2,2.29-7.38,2.81-9.88,1.19-2-1.29-2.39-2.87-1.27-5,0.38-.71.75-1.44,1.18-2.12a4.25,4.25,0,0,0-.16-5.42,4.58,4.58,0,0,1-1.12-2.49c-0.05-4.24-2.42-7.45-4.78-10.54-2-2.67-2.34-5.15-.56-7.9q3.64-5.67,7.35-11.29a4.33,4.33,0,0,1,3.17-1.77,98.41,98.41,0,0,0,9.76-2.31c2.53-.73,4.61-2,4.94-5.11C832.58,375.38,833.33,374.24,834,372.58Z"/>
  <path  d="M153.16,19.34l7.78-3.43,0.35,6c2.83,0.2,3.74-3.1,6.29-3.25,1.34,2.25.26,5.2,2.62,7.44l5.63-5.4c2.38,3.09.35,6.44,1.61,9.45,2.25,0.54,3.76-.71,5.41-2.36-1.47-3.47-4.93-6.5-2.44-11.12,1.91-.56,3.61.78,5.26,1.48,1.07,4.42,2.23,8.64,3.08,12.91a12.56,12.56,0,0,0,3.47,6.6c1.62,1.65,3.15,3.38,4.66,5.12,0.71,0.82,1.29,1.74,2.25,3l-7.07,1.44c0.74,1.15,1.23,2,1.78,2.76s1.09,1.43,1.62,2.12c-1.11,1.57-2.54,1.43-3.83,1a49,49,0,0,1-6-2.68c-2.27-1.21-2.49-1.32-4.19.36-4.64,4.61-10.35,5.49-16.73,5.1l-1.06-5.66c-1.7-1.14-3.57-.68-5.37-0.66-4,0-5.89-1.88-6.1-6.4,5.6-.79,11.33-0.77,17-1.13l0.09-1.22a23.05,23.05,0,0,0-3.29-1.3c-3.38-.79-6.64,0-9.88.92-3.45,1-5.47-.21-6.34-3.71-0.58-2.31.18-3.14,2.42-2.58a16.1,16.1,0,0,1,2,.78,6,6,0,0,0,3.27-4.29c-1.68-.17-2.15,1.09-2.9,1.79a2.37,2.37,0,0,1-3.13.42,11.78,11.78,0,0,1-5.18-5l4.24-2.52L151.68,20Z"/>
  <path  d="M907.77,181.67l-18.59,14.45c0,1.94,1.58,2.9,2.75,4.1,2,2.06,2.1,3-.22,4.69a21.89,21.89,0,0,0-6.26,6.78c-1.86,3.21-4.38,3.61-8.78,1.79-0.24,1.61-.56,3.11-0.67,4.63-0.32,4.29-1.77,6.13-6,7.27-1.11.3-2.27,0.42-3.39,0.7-2.71.66-5.35,1.43-7.16,3.84-0.68.9-1.48,1.75-2.93,1.25-0.32-.11-0.94.66-1.59,1.14-0.29-1.54-.62-2.93-0.81-4.35a5.27,5.27,0,0,1,4-6.2,3.9,3.9,0,0,0,2.67-2.85,10.12,10.12,0,0,1,5-5.69l0.72,3.73a5.83,5.83,0,0,0,4.63-3.39,10.39,10.39,0,0,1,4.94-4.55,21.82,21.82,0,0,0,6-5c1.79-2,.5-7.27-1.82-8.86-1.78-1.22-1.78-1.22-2.17-4a2.16,2.16,0,0,1,.91-0.25,6.92,6.92,0,0,0,8.5-6.12c0.08-1.15-.58-1.62-1.57-1.93s-2.28-.68-2.22-2.4l3.37-1.22c-1.61-2.44-.84-4.85.29-7.11a11.52,11.52,0,0,0,1.07-6c-0.14-2.53,0-5.08-.09-7.62a7.76,7.76,0,0,0-.25-3.08c-1.59-3.29-.45-6.28.71-9.3,0.48-1.26,1-2.51,1.49-3.77l0.76,0c0.46,2,.94,4.09,1.37,6.15,1,5,1.88,10,3.07,14.9a2.7,2.7,0,0,1-1.44,3.4c-1.64,1-3.49,1.8-4.4,3.83l4,4.65-3.67,1.21a16.24,16.24,0,0,0-.26,3.22c0.24,2.38,2.89,4.56,5.2,5.29,3.07,1,5.57.21,8-1.53,1.3-.92,2.71-1.68,4.07-2.51Z"/>
  <path  d="M642.92,1c-0.15,2.42-1.54,4.21-3.85,5.49-0.49.27-.94,0.62-1.63,1.08L639.78,13a3.54,3.54,0,0,1-.87,1,6.31,6.31,0,0,0-3.66,6.15,5.81,5.81,0,0,1-2.46,4.39c-0.91.77-1.78,1.59-2.82,2.52A15.89,15.89,0,0,0,632,28.65c3.17,1.54,5.53,3.63,6,7.42a3.6,3.6,0,0,0,1.75,2.33,7.64,7.64,0,0,0,7,.13c2.21-1.06,2.48-2.26.76-3.95-1.23-1.21-2.61-2.27-3.94-3.39a6.46,6.46,0,0,1-2.34-7.09,29.72,29.72,0,0,1,4.63-10.35,34.9,34.9,0,0,0,2.66-5.15,15.48,15.48,0,0,1,1.69-3.37c1.27-1.45,2.57-2.9,4-4.23H642.92Z"/>
  <path  d="M860.08,327c3.37-1.26,5.82-.76,7.79,2,0.73,1,2.08,1.62,3.78,2.89L871,327c4.39,1.79,8.51,3.59,12.72,5.14a18.75,18.75,0,0,0,5.71,1.2c5.28,0.2,8.62,3.43,10.81,7.53a18.16,18.16,0,0,0,6.44,6.94,19,19,0,0,1,1.77,1.07c1.92,1.58,4,2.28,7,.52-0.53,1.71-.87,2.72-1.17,3.75-0.52,1.78-1.86,2.29-3.49,2a10.14,10.14,0,0,1-3.28-1,64.2,64.2,0,0,1-7.41-4.4,4.28,4.28,0,0,0-4.47-.77,40.62,40.62,0,0,0-4.36,2,3.85,3.85,0,0,1-4,.24c-2.78-1.62-5.69-3.16-7.26-6.18a6.85,6.85,0,0,0-2.87-2.8,24.89,24.89,0,0,1-3.93-3.35,6.6,6.6,0,0,0-5-2.07c-3.75.22-5.74-1.85-6.82-5.11C861,330.23,860.54,328.6,860.08,327Z"/>
  <path  d="M153.16,19.34l-1.48.65c-4.92,2.32-8.81,5.44-8.74,11.2a24.25,24.25,0,0,0-3.56,2.26,24.61,24.61,0,0,0-2.57,3.25,2.74,2.74,0,0,1-1-.71c-0.42-2.91-2.41-4.49-4.67-6-3.69-2.51-4.21-5.12-1.64-8.79a8.91,8.91,0,0,0,1.91-6.72c-0.14-1,.74-2.32,1.37-3.36,1.67-2.79,1.69-2.74-.6-5a2.51,2.51,0,0,1-.68-1.74,1.8,1.8,0,0,1,1.29-.89c2.37-.42,4.76-0.75,7.15-1.06a3.39,3.39,0,0,1,3.44,1.86c0.66,1.06,1.19,2.21,2,3.69l4.9-2.13C152,7.09,154,8.41,155.79,10c2.6,2.34,2.42,4.34-.19,6.6A28,28,0,0,0,153.16,19.34Z"/>
  <path  d="M468.33,160.08l6.43-4.88-2.69-1.55c1-4.51,2-8.33,5.17-11.11-1.53-2-3.61-.21-5.15-1.45l0.63-3.42c-1.42-2.26-5.25-1.15-5.75-5l1.8-1-4.3-3.12,2.77-3.34-2.39-2.93a5.1,5.1,0,0,1,1.86-.81,8.57,8.57,0,0,0,5.14-1.67c1.56-1,3.17-1.36,4.8.33l-1.73,3.28a31.46,31.46,0,0,1,3.19,1.34c1.15,0.64,2.88,1.25,3.17,2.22,0.49,1.69-1.49,2.29-2.65,3.15l-1.82,1.34a47.66,47.66,0,0,0,9.41,10.67c2.61,2.07,3.42,4.8,4,7.75a2.56,2.56,0,0,1-.12,1.68c-1.07,1.78-2.25,3.45-1.38,5.73a1.83,1.83,0,0,1-.92,1.28,6.92,6.92,0,0,1-2.29.72c-4.56.67-9.11,1.32-13.68,1.89a19.28,19.28,0,0,1-3.3-.14Z"/>
  <path  d="M628,358.55a26.25,26.25,0,0,1,.66,11.13,47.59,47.59,0,0,1-1.67,6c-1.17,4.09-2.28,8.2-3.5,12.28q-1.33,4.45-2.87,8.84a11.09,11.09,0,0,1-4.09,5c-1.91,1.47-3.82,2.09-6.22.53,1.87-2.59.55-5.23-.24-7.76a11.72,11.72,0,0,1,.92-9.94,8,8,0,0,0,.52-4.66,7.81,7.81,0,0,1,2.56-7.08c3.8-3.84,7.22-8.07,10.79-12.14,0.73-.83,1.44-1.66,2.16-2.5Z"/>
  <path  d="M826,309.22c-0.68,2.9-2.62,3.39-4.88,3.38-1.7,3.43,1.53,5.6,2,8.63-2.26.66-2.85,2.62-3.43,4.63-0.7,2.43-1.57,4.82-2.2,7.27-0.72,2.8-2.85,4.23-5.33,2.8a11.27,11.27,0,0,0-7.54-1.69,2.87,2.87,0,0,1-1.82-.81,34.92,34.92,0,0,1-8.27-10.13,5.92,5.92,0,0,1-.39-5.85c2.62,0.67,3.23,3.13,4.81,5,3-.3,6.22-0.58,9.4-1a1.72,1.72,0,0,0,1.58-2.49c-0.87-2.13.24-3.55,1.41-5,1.66-2.07,3.42-4.07,5-6.22a2.81,2.81,0,0,1,3.87-1.1C822.06,307.52,824,308.32,826,309.22Z"/>
  <path  d="M422.72,83.65l-6.43-1.06-0.17-.74,4.42-2.36-4.05-1.58a13.41,13.41,0,0,1,5.92-8.56,3,3,0,0,1,.81.44c0.78,1,.17,2.77,2,3.34,2,0.62,3.92,1.52,6,.73s4-1.66,6-2.56c2.51-1.15,3.32-1.13,5.24.73,1.41,1.36,2.68,2.86,4,4.34a3.16,3.16,0,0,1,0,4.39,27.37,27.37,0,0,1-10.72,8.52c-2.31,1-5.44.58-8.15,0.31-2.1-.21-4.12-1.2-6.46-1.92Z"/>
  <path  d="M979.43,451.11c1.59,1.16,2,2.43,1.29,4-1.26,2.84-2.43,5.73-3.79,8.51-0.76,1.55-1,1.5-5.23,1.85,0.15,4.44-2.22,7.61-5.76,10.09-1.39,1-2.64,2.24-5,2,1.2-2,.11-3.35-1.05-4.78-2.12-2.62-2.1-2.72.48-5s5-4.47,7.65-6.47a12.57,12.57,0,0,0,4.91-7.27,33.61,33.61,0,0,1,1.4-3.67C976.21,451.77,977.84,452.36,979.43,451.11Z"/>
  <path  d="M198.56,13.12l3.59-3.79,3,3.42,3.26-6.39c2.06,4.68-.1,8-1.47,11.8,0.9,0.82,1.84,1.8,2.9,2.6a4.56,4.56,0,0,1,1.81,5.19c-1,3.49-2.27,6.75-6.24,8.17a4,4,0,0,1-.75-1.23c-0.45-3.61-2.9-5.89-5.31-8.25-1.69-1.66-3.22-3.47-5.17-5.6,2.81-.56,3.82,1.66,5.58,1.87,2-1.82,2.08-2,1-3.89C200.1,15.73,199.34,14.46,198.56,13.12Z"/>
  <path  d="M976.13,428.51l6.41,5.77-0.42,2.27c3.24-.23,4,2.8,5.81,4.43,1.79-.05,3.74-2.87,5.24.19-0.62,4.48-4.87,6.41-6.86,9.93a43.7,43.7,0,0,1-3.71,4.77,9.24,9.24,0,0,1,.82-6.89l-4.58-1.74c0.57-1.23,1-2.34,1.6-3.38a6.21,6.21,0,0,0-1.81-8.44C976.39,433.74,976.16,431.26,976.13,428.51Z"/>
  <path  d="M466.38,137.53c2.55,1.36,2.9,3,2.27,5.2a20.56,20.56,0,0,0-.9,5.43,5,5,0,0,1-2.53,4.57c-0.39.25-.74,0.55-1.12,0.81-4.16,2.85-5.12,2.69-8.7-1.62,0.94-.46,1.83-0.86,2.68-1.34,1.71-1,1.94-1.67,1-3.34-0.73-1.28-1.61-2.48-2.54-3.89C459.52,140.5,463.33,139.62,466.38,137.53Z"/>
  <path  d="M841.92,320a9.85,9.85,0,0,1-6.05,4.22c-2.65.6-4.36,2.36-6.39,4.56l5,6-5.82,5a36,36,0,0,1-3.49-3.22,7.86,7.86,0,0,1-1-9.34c1.77-3.3,4.06-6.05,8.32-5.48C835.86,322.21,838.78,320.94,841.92,320Z"/>
  <path  d="M247.06,261.61c1.68-2.64,4.07-3.85,6.72-4.71a1.06,1.06,0,0,1,.67-0.07c4.77,2.29,10.49,1.54,15,4.82a14.79,14.79,0,0,1,4.62,4.93c-3.48,2.06-6.92,2.05-9.64-.44a15.63,15.63,0,0,0-10.64-4.28,3.87,3.87,0,0,0-2.26.33C249.8,263.53,248.61,262.46,247.06,261.61Z"/>
  <path  d="M893.85,449.45c1.6-.47,2.55-0.62,3.52.7,1.53,2.07,5.31,2.32,8,.63l-0.87-3,4.07,1.3-1.45,2.81a8.36,8.36,0,0,1-4.34,10.55,1.84,1.84,0,0,1-2.6-.93c-1-2.05-2-4.14-2.82-6.26-0.42-1-.38-2.32-0.93-3.28A13.62,13.62,0,0,0,893.85,449.45Z"/>
  <path  d="M828.62,287.6c-1.76-3.72-3.35-7.25-3.53-11,1.49-1.49,2.7-2.8,4-4s4.1-.31,4.47,1.39a11.54,11.54,0,0,1,.21,3.77c-0.28,2.26-.76,4.49-1.21,6.72C832.19,286.41,830.66,287,828.62,287.6Z"/>
  <path  d="M839.19,301.9l5.22-5.55c3.73,5.28,2,10.71-2.32,12.73-3.88-2.74-6.61-6.2-6.86-8.72Z"/>
  <path  d="M292,272c-1.08.19-2.17,0.39-3.25,0.57-1.4.23-3-.24-3.88,1.57a1.87,1.87,0,0,1-1.55.35c-2.24-.44-4.49-0.92-6.68-1.55-0.66-.19-1.18-0.92-2.19-1.76,1.43-.63,2.4-1.16,3.43-1.51a40.47,40.47,0,0,1,6.17-1.8,7.28,7.28,0,0,1,4,.59,27.46,27.46,0,0,1,4.14,2.84Z"/>
  <path  d="M991.75,34.85c1.95-1.67,3.71-3.3,5.62-4.73a3,3,0,0,1,2.25-.27c1.75,0.47,3.45,1.17,5.17,1.78a2.54,2.54,0,0,1-1.52,3.41c-1.23.57-2.38,1.29-3.45,1.87-1.28,0-2.66-.37-3.69.08C994,37.92,992.92,36.93,991.75,34.85Z"/>
  <path  d="M893.88,14.89c-2.54,1.66-7.23.86-10.74-1.82a7.8,7.8,0,0,1,.76-0.52c0.29-.15.61-0.25,1-0.42,0.26-2.87-2.45-6.06.78-9.09a18.86,18.86,0,0,1,1,2.17,9.06,9.06,0,0,0,3.6,4.87A7.83,7.83,0,0,1,893.88,14.89Z"/>
  <path  d="M513.54,206.43c-3.19-.27-3.44-0.55-3.8-2.73-0.27-1.63-.8-3.21-1.31-5.17l2.88-1.38c-0.28-1-.62-1.89-0.81-2.84a5.1,5.1,0,0,1-.13-2.3,2,2,0,0,1,1.33-1.24c0.63,0.14,1.67.95,1.61,1.31C512.48,196.82,514.94,201.51,513.54,206.43Z"/>
  <path  d="M716,309.07c-4.15-3.89-4.43-6.36-1.25-11a10.38,10.38,0,0,1,4.88,6.56C720.13,306.54,718.24,308.24,716,309.07Z"/>
  <path  d="M829.24,261.39c-3.67-4.15-3.14-8.12,1-10.72,1.06-.67,1.5-0.5,3.54,1.42-0.77,1.41-1.64,2.85-2.37,4.35S830,259.55,829.24,261.39Z"/>
  <path  d="M273,61.75a3,3,0,0,1-3.4,3.35c-1.95-.07-3.24-1.14-3.29-2.73-0.06-1.9,2.37-4.2,4.46-4.24C272.1,58.1,273,59.53,273,61.75Z"/>
  <path  d="M620.79,49c3.42-2.55,4.39-2.54,6.32-.32,1.36,1.56,1.45,2.48.33,3.58-1.44,1.42-3.43,1.66-4.59.3A21.56,21.56,0,0,1,620.79,49Z"/>
  <path  d="M188,17l-5-4.84c3.1-2.2,4.76-2.42,6-1C190.56,12.88,190.45,14,188,17Z"/>
  <path  d="M798.9,263.57c0.27,1.07.52,2.14,0.81,3.21,0.42,1.51,1.26,3.06,0,4.52-1,1.13-3.11,1.1-5.54,0l4.76-7.7h0Z"/>
  <path  d="M918.05,172.39a12.43,12.43,0,0,1,1.67-2.75c2-1.92,3.49-4,2.9-7l4-1.2c-1.29,2.36-2.63,4.84-4,7.3a10.48,10.48,0,0,1-3.81,4.23Z"/>
  <path  d="M489.48,206.84c0-2.56,1.89-2.77,2.94-3.76s2.08-2.36,3.24-3.71l3.34,2.57c-2.15,1.19-3.5,2.79-6,2.68C492.06,204.58,491,205.82,489.48,206.84Z"/>
  <path  d="M245.78,98.19c2.57-2.15,3.65-5.58,7.45-3.19a8.18,8.18,0,0,1-4.78,4.38C247.92,99.59,247,98.77,245.78,98.19Z"/>
  <path  d="M258.61,101.86c-0.72-2,.07-3.08,1.33-4.09C261.07,100.28,261.07,100.28,258.61,101.86Z"/>
  <path  d="M266.73,90.67l-1.68,1.57a7.87,7.87,0,0,1-.81-0.89,21.67,21.67,0,0,1,1.61-1.63Z"/>
  <path  d="M720.33,28.56a2.9,2.9,0,0,0,.39,1.26c2.83,2.57,2.34,6.06,2.59,9.33a2,2,0,0,1-.86,1.62,2.08,2.08,0,0,1-1.74-.66,5.76,5.76,0,0,1-1.44-4.79c0.34-2.25.7-4.5,1.06-6.75h0Z"/>
  </g>
</svg>