<svg id="Clipping_Front" data-name="Clipping Front" xmlns="http://www.w3.org/2000/svg" viewBox="0 0 1026 542.9">
  <defs>
    <style type="text/css">
      .cls-1 {
        fill: #3486c7;
      }
    </style>
  </defs>
  <g class="cls-1">
  <path d="M6.27,69.79A9.14,9.14,0,0,1,1,72.08v2.08a25.45,25.45,0,0,0,3.71,4,3.71,3.71,0,0,1,1.88,3.72,5.43,5.43,0,0,0,0,.69c0.1,3.62,2,4.71,5.08,2.75a12.74,12.74,0,0,0,3.1-3.18c2.17-2.86,4.43-5.25,8.71-2.72L25.94,72l3.68,2.15-2.27,3.51,4.43,6c2.46,0.57,3.56-3.66,6.12-.76-3.52,4.24-9,7.64-5.86,14.75l4.07-2.94c6.7,6.43,15.63,9.73,21.27,17.28a0.8,0.8,0,0,0,.47-0.09c3.3-4.23,4.77-4.34,8.36-.46a27,27,0,0,1,2,2.82l0.54-.66a38.18,38.18,0,0,1,4.56-.89c1.79-.14,2.93.77,3.61,2.55s1,4.12,3.8,5.15l-4,3.91c1.39,1.76,1.86,3.77.23,6a1.84,1.84,0,0,0,1.09,3c2.72,0.85,3.49,2.6,3.2,5.27a3.78,3.78,0,0,0,1,2.47c5.14,6.06,10.34,12.06,15.39,17.91,0.67-2.55.42-2.48-.53-5a6.61,6.61,0,0,1,0-4.28c1.86-5.08,2.2-10.35,2.31-15.65a7.79,7.79,0,0,0-2.17-5.32c-3.54-4.11-6.92-8.36-10.53-12.42a58.35,58.35,0,0,0-5.41-4.84c-1.39-1.22-2.79-2.42-4.21-3.6a6.5,6.5,0,0,1-2.67-6A6.67,6.67,0,0,0,73,96.72a5.26,5.26,0,0,1-.56-2.05c1.45-1,2.25-.11,2.91.62,1.87,2,3.67,4.15,5.44,6.27,1.39,1.67,2.69,3.41,4.1,5.22,3.16-2,2.48-5.42,3.31-8.06,6.49,0.56,14.78,11.09,14.16,18.55,4.49,1.53,8.88,2.29,12.86-1.35a2.57,2.57,0,0,1,3.16-.61c2.88,1.61,5.61.8,8.31-.35,3.27-1.4,5.78-1.12,8.29,1.49,4.79,5,9.47,10.09,14.18,15.16,1.57,1.69,3.08,3.43,4.79,5.34l-1.15,3.33-2.37-2-2,4.48c-0.6-.19-1.22-0.38-1.83-0.6-3.57-1.27-6.62.73-7,4.53-0.58,6.67.84,13,2.9,19.31,0.86,2.64,1.65,5.26,3.56,7.42a16.52,16.52,0,0,1,2.18,3.53c2.53,5,6.46,8.65,10.89,11.9a4.41,4.41,0,0,0,4.13.81c4.48-1.16,6.69.43,6.77,5.09,0,2.81,1.14,4.3,3.73,5a8.11,8.11,0,0,1,1.59.69c1.45,0.73,2.07,1.77,1.32,3.38-0.84,1.77-1.53,3.63-2.48,5.33a3.8,3.8,0,0,0-.08,4.2,7.41,7.41,0,0,1,1,2.91c0.43,4.09.52,4.28,4.76,6,0.46-2.18.84-4.32,1.37-6.43a15.81,15.81,0,0,1,1.36-3.86c2.44-4.38,2.49-4.35,2.82-8.66,3.55-.76,6.51,1.62,10,2.26,0.55-2.69-2.55-3.57-2.51-6.14,5.4,0.84,8.31,5.77,14,7a9.26,9.26,0,0,1-2.17,1.27,9.47,9.47,0,0,0-4.48,2.12c-0.78.57-2.82-.82-4.32-0.92s-3.13.16-3.62,2a3.16,3.16,0,0,0,1.73,3.75c1.77,1.07,3.49,2.23,5.21,3.33a2.84,2.84,0,0,1,.12,1.1c-1.28,3.44-2.55,6.88-4,10.26-0.32.77-1.28,1.25-1.87,1.93s-1.32,1.3-1.23,1.81c0.44,2.33.44,4.82,2.1,6.82a39.36,39.36,0,0,1,5.32,8.43c2.13,4.46,6,7.59,10.38,9.86,3.78,2,7.64,3.78,12,4.09a26.93,26.93,0,0,1,5,1.31h0a2.47,2.47,0,0,0,1.26.19c2.75-1.81,4.67-.68,6.52,1.53s4,4.35,6.42,6.91c-7.18,3.78-10.58,10.09-14.22,16a35.28,35.28,0,0,0,17.08,13.08c-1.34-3,0-4.66,1.83-6.08a10.29,10.29,0,0,0,1.76-1.66c2.46-3,5.46-4.52,9.44-3.38,1.36,3.68,1.36,3.68-2.88,6.48,0.48,0.64.93,1.29,1.43,1.9s1,1.21,1.75,2a18.49,18.49,0,0,1-7,8.28c-1,.61-2,1.15-3,1.79a3.82,3.82,0,0,0-1.88,3.47c0.06,2.29,0,4.59,0,7.08l4-.84c0.13,2.27-1,3.54-2.22,4.73-1.91,1.84-3.91,3.6-5.78,5.49A4.19,4.19,0,0,1,238,332c-3.08-.27-6.09,2-7.36,5.44,3.32,0.24,5.76-3.83,9.31-2-0.37,3.5-3.83,7.25-7.55,7.34-8.9.22-17.25,3-25.77,5-6.24,1.48-12.46,2.34-18.79.23-1.56-.52-3.4-0.14-5.08-0.37a17.61,17.61,0,0,1-4.28-1.09c-4.15-1.72-8.5-1-13.06-1.66,0.59,2,1.56,2.79,3,3.08a3.61,3.61,0,0,0,1.38.09c5-1,9.27.78,13.35,3.39,0.87,0.55,1.89.86,2.8,1.36a5.08,5.08,0,0,0,6.3-.48c2.13-1.71,4.55-2.06,7.47-1.19a17.7,17.7,0,0,0,7.85,0c6.14-1.08,12.23-2.21,18.48-2.7a36.16,36.16,0,0,0,15.69-5.07,11.53,11.53,0,0,0,2.61-2.22c4.39-4.9,8.73-9.85,13.09-14.79,0.75-.85,1.52-1.69,2.61-2.9,0.26,3-2,4.38-2.74,7.25,1.83-1.43,3.14-2.43,4.43-3.48,1.92-1.56,3.07-3.2,1.89-6-1.06-2.47-.41-3.46,2.19-3.81,2-.27,3-1.05,2.76-3.07-0.31-2.4,1.11-4.08,2.59-5.86a13.88,13.88,0,0,0-9.74,3c-2.73,2.29-5.49,4.53-8.36,6.9-0.77-1.67.3-2.44,0.85-3.38,2.67-4.58,5.41-9.12,8-13.77a5.65,5.65,0,0,0,.57-3.66c-0.42-1.83-1.17-3.41.58-5,0.38-.35.1-1.92-0.38-2.56a3.48,3.48,0,0,1-.24-3.91,9.32,9.32,0,0,0,.52-7.67,6.41,6.41,0,0,1,0-1.71c2.14,0.86,3.24,2.51,4.66,3.74,1,0.86,1.85,2.47,3.44,1.66s1.57-2.69,1-4c-1.49-3.71-.45-6.05,3.14-7.63a4.38,4.38,0,0,0,2.61-4.15,28.64,28.64,0,0,1,1-4.74c3.1,0,6-.15,8.78.08a5.57,5.57,0,0,1,2.94,1.64c5.73,5.36,11.39,10.8,17.08,16.21a7.15,7.15,0,0,0,2,1.83c2.29,0.8,2.6,2.42,2.79,4.58,0.33,3.78,1,7.52,1.71,11.26,0.59,3.28,3.23,4.49,6.24,5.85a26.72,26.72,0,0,0,2-3.58q2.27-6,4.31-12.06a10,10,0,0,1,3.48-5.39,5.22,5.22,0,0,0,1.68-3.19c0.71-4.43,1.91-8.83,1.23-13.39a5.06,5.06,0,0,1,.22-1.4,16.22,16.22,0,0,1,3.16,0c3.08,0.64,4.84-.88,6.58-3.21a58.78,58.78,0,0,1,6.33-6.79,9.34,9.34,0,0,1,9-2.32c4.84,1.05,9.65.41,14.48-.07a5.11,5.11,0,0,0,3.77-2.11c1-1.34,2.31-2.5,3.64-3.9,2.67,2.71,4.87,1.45,7.18-.22,3.84-2.77,7.8-5.36,11.7-8,1.13-.78,2.2-1.71,4.16-0.82a14.09,14.09,0,0,1-.92,2.72c-1.16,2-2.48,3.9-3.7,5.86s-2.38,3.45-5.39,2.9c0,1.49,0,2.68,0,3.88,0,2.39-.92,2.77-3.21,2.43a11.33,11.33,0,0,1-8.46-5.39c-2.08.2-3,1.16-3.14,2.69-0.17,1.77-1.24,2.44-2.71,3.15-2.25,1.08-4.33,2.53-6.72,4l2.82,7.92,4,0.37-1.14,3.37a83.81,83.81,0,0,0,7.26,4.9c6.8,3.67,13.65,7.27,20.61,10.61a31.44,31.44,0,0,0,8.26,2.36c3,0.51,3.27.15,4.5-2.51,0.34-.73.66-1.47,1-2.23,1.65-4.23,3.7-8.18,7.46-11a17.7,17.7,0,0,0,2.53-2.83,6.1,6.1,0,0,0,1.62-5.1c-0.45-2.91.61-5.19,2.38-7.61,3.75-5.11,7.16-10.49,8.82-16.75a5.75,5.75,0,0,1,1.64-2.77l0.9,4.35,3.46-2.85a5.07,5.07,0,0,1-.25,1.32c-4.25,7.43-7.22,15.42-10.24,23.38q-0.8,2.1-1.47,4.25c-1.19,3.78-3.12,6.85-7.1,8.33-1.75.65-3.41,1.69-2.66,4.15a2,2,0,0,1-.29,1.32c-1.49,2.85-3,5.68-4.52,8.51-1.82,3.41-2.74,3.8-6.67,3.12q-6.14-1.07-12.3-2c-3.21-.5-4.54-0.37-7,0.63,1.94,5.62,3.48,11.42,6.64,16.55a19.71,19.71,0,0,0,4.34,4.43c7.13,5.93,13.47,12.64,19.79,19.39,2.65,2.83,4,5.84,3.19,9.71a5.59,5.59,0,0,0-.13,2.74c1.12,3.27.21,6-1.6,8.76a8,8,0,0,0-1.1,6c0.6,3.29,1.13,6.6,1.67,9.9a7.26,7.26,0,0,0,3.33,5,122.57,122.57,0,0,1,9.77,7.71c2.53,2.19,2.35,2.29.58,5.1a4.45,4.45,0,0,0-.67,2.85,31.7,31.7,0,0,0,1.75,6.68,6.79,6.79,0,0,0,2.75,2.84,4.36,4.36,0,0,1,2.48,3.8,9.35,9.35,0,0,0,1.31,3.85c2,3.52,4.1,7,6.19,10.42,3.47,5.76,8.28,9.35,15.19,10.21,4.43,0.56,8.77,1.89,13.13,2.92,4.07,1,8.37-2.12,8.19-6.32a15.18,15.18,0,0,1,2.18-8.19c1.93-3.55,3.69-7.19,5.41-10.84a19.65,19.65,0,0,0,2-11.76,5.86,5.86,0,0,1,1.11-4.89,4.36,4.36,0,0,0,1-1.79,14.33,14.33,0,0,1,4.91-8.51,3.49,3.49,0,0,0,.95-3.5c-0.6-3.17-1.06-6.39-1.85-9.51a7.89,7.89,0,0,0-2.12-3.38c-3.51-3.51-3.64-3.77-1.43-8,0.87-1.66,1.71-3.26,1.19-5.25a3,3,0,0,1,.29-1.65c1-2.46,2-4.88,2.92-7.35a9.39,9.39,0,0,1,4.19-5.31c0.5-.28,1-0.61,1.47-0.92,4.39-2.74,4.35-2.75,2.89-7.74-0.87-3-1.66-6-2.26-9.05a3.27,3.27,0,0,1,.86-2.67c1.57-1.31,3.31-2.55,5.66-1.79,2,0.65,3.53-.18,4.82-1.78a8.84,8.84,0,0,1,6-3.68,10,10,0,0,1,7.8,1.93,10.6,10.6,0,0,0,9.38,2.26c2.54-.59,5,0.07,7.49.7,8.58,2.17,7.12,2.62,14.62-2.53,1.71-1.17,3.31-2.52,5-3.76a21.73,21.73,0,0,0,7.4-9,13.51,13.51,0,0,1,6-6.92c2.41-1.34,2.43-2,1.75-4.92q-1.56-6.73-3.13-13.46a18.87,18.87,0,0,1,.54-9.24,5.59,5.59,0,0,0-.87-5.23,28.42,28.42,0,0,1-2.48-4.16,32.52,32.52,0,0,0-11.21-12.49,6.58,6.58,0,0,1-2.87-4c-1.38-4.65-3.37-8.95-7.51-12.12-2.48-1.9-4.18-4.82-6.45-7.54-2.46,1.58-5.66,1.19-8.83,1a16.18,16.18,0,0,1-7.8-2.48,16.66,16.66,0,0,0-6.12-2.1c-5.81-.91-11.66-1.62-17.51-2.24-3.15-.34-3.65,0-7,2.31,2,1.88,1.59,3.95.45,6.17a33.58,33.58,0,0,0-1.4,4.26C506,226,505,227,502.36,226.74c-3-.25-5.12.82-7.51,2.54s-5.61,2.57-8.52,3.65c-1.87.69-3.37-.1-4.48-1.7-0.92-1.33-1.85-2.65-2.82-3.94a2.61,2.61,0,0,0-3.92-.74c-0.68.44-1.43,0.77-2.09,1.23-4.78,3.38-10.17,4.16-15.84,3.77a3.6,3.6,0,0,1-2-.41c-1.92-1.7-3.53-.93-5.28.3-2.89,2-5.41,1.77-7.91-.85a3.16,3.16,0,0,1-.72-2.15,17,17,0,0,0-2.25-9,4.12,4.12,0,0,1-.57-1.26c-0.17-1.3-.79-3-0.21-3.84,1-1.39,2.54-.11,3.67.53a3.93,3.93,0,0,0,4.8-.21c1.29-1,2.67-.85,4.25-0.37,3.94,1.22,8,2.18,11.83,3.22,2.18-2,3.24-3.9,1.71-6.58a3.13,3.13,0,0,1-.13-2.62c1.45-2.54.48-4.65-.77-6.82-0.33-.58-0.55-1.22-1-2.21,3.27,0.51,6.07.93,6.3,5.13l5.79-3.38a30.63,30.63,0,0,1-.39,5c-0.6,2.28.28,3.74,2,5a7.83,7.83,0,0,0,4.76-5.21,43.43,43.43,0,0,1,2.75-7.46,22.79,22.79,0,0,1,3.49-4.57,7.77,7.77,0,0,1,2-1.33c4.72-2.75,9.28-5.66,12-10.66a4.52,4.52,0,0,1,.94-0.93c2.72,2.3,2.56,2.41,1,5a23.49,23.49,0,0,1-8.45,8c-2.16,1.32-4.15,2.94-6.28,4.31-1.74,1.12-2.28,2.5-1.37,4.59l4.26-1.86L489.77,205c1.6,2.28,3.49,4.33,6.49,5l0.92,2.62c2.77-.19,4.87-1.51,7.45-3.11-2.88-1.37-5.31-2.21-7.94-.86a2.28,2.28,0,0,1-.61-0.54c-1.81-4.67-1.8-4.67,2.45-7.63,0.38-.26.75-0.54,1.14-0.78,4.76-3,9-6.47,11.92-11.35a25.41,25.41,0,0,1,2.18-2.72c2.16,0.45,3.56,1.86,4.94,3.2,2.21,2.15,4.47,3.23,7.3,1.09a4.35,4.35,0,0,1,1.59-.66,2.35,2.35,0,0,1,3,2.93,11.31,11.31,0,0,1-.81,2c2.08,1.74,4,3.57,6.11,5.07a7.72,7.72,0,0,1,3.66,5.91,8.82,8.82,0,0,0,8,7.73,23.15,23.15,0,0,1,7.36,2.15,20.53,20.53,0,0,1,2.16-1.56,17.52,17.52,0,0,1,4.23-2,5.67,5.67,0,0,0,4.6-4.1c1-3.15,1.72-6.19,0-9.34a6.74,6.74,0,0,1-.31-5.7c1.2-3.49-.37-5.28-4.21-5.05-4.23.25-8.46,0.5-12.69,0.55-1.51,0-3.63.82-4.45-.92a13.05,13.05,0,0,1-1.43-6.26,9.34,9.34,0,0,1,3.93-7.36c2.32-1.61,4.23-3.81,6.39-5.81-2.79-2.55-5,.45-7.65,0l0.42-3.55c-1.17-.14-2.14-0.28-3.13-0.36-3.25-.23-6-1.2-7.81-4.26-1.23-2-3.21-3.62-4.61-5.58a56.89,56.89,0,0,1-3.9-6.46c-1.16-2.2-2-4.6-4.07-6.71l-0.2,4c-3.56-1.95-4.17-5.06-4.53-8.31a3.43,3.43,0,0,1,0-.69c0.65-6.66-.41-7.9-6.13-11.57-1.75,1.73-1.71,4.77-4.07,6A1.54,1.54,0,0,1,506.2,128c1-3.31,1.85-6.64,2.79-9.95a8.06,8.06,0,0,1,.76-1.3c0.93,0.68,1.83,1.25,2.63,1.94a42,42,0,0,0,3.55,3.27c2.41,1.65,4.54,1.27,6.32-1,1.42-1.82,2.73-3.72,4-5.64,0.7-1.05,1.25-2.14.55-3.55a3.55,3.55,0,0,1,.24-2.22,8.81,8.81,0,0,0-.16-6.1c-3.09-7.55-7.65-13.9-14.77-18.19a5.6,5.6,0,0,1-1.37-1.48,4,4,0,0,0-.66-1.18c-3.16-1.37-2.55-4.21-2.84-6.78-0.35-3.06-2-5.57-3.87-7.94-1.58-2-3-4.05-4.47-6.14-0.68-1-1.09-2.11.46-3.09,1.79,1.14,4.59,1.17,4.5,4.6,1.95-.87,2.11-2.08,1.25-3.42A24.93,24.93,0,0,0,503,57.55a26.89,26.89,0,0,1-2.7-3.52,12,12,0,0,0-6.5-5.72,11.59,11.59,0,0,1-5.55-4.86c-1.61-2.81-3.55-3.76-6.45-3.1a2.62,2.62,0,0,1-2.76-.79c-3.84-3.79-8.62-4.42-13.71-4a28.43,28.43,0,0,1-3.78.14,12.62,12.62,0,0,0-9.76,4.54A23.82,23.82,0,0,1,454.22,43a2.34,2.34,0,0,1,.29,2.06,2.23,2.23,0,0,1-2.06.61c-5.2-2.52-9.3.9-13.4,2.81A26,26,0,0,0,427.47,58.6c-0.61,1-1.92,1.61-2.92,2.37-1.94,1.47-2.25,2.47-1.6,4.77a11.61,11.61,0,0,0,4.91,6.49,5.39,5.39,0,0,0,5.23.78c3.25-1.18,6.56-2.19,9.87-3.21a31.84,31.84,0,0,1,3.24-.63c-0.52,3.61-3.16,4-5.58,4.59a2.92,2.92,0,0,0,0,1.4c1.6,1.87.82,3.86,0.52,5.88-0.33,2.21-1.73,3.34-3.52,4.39a18.35,18.35,0,0,0-3,2.9l-1.85-3.14c1.71-1.24,3.39-2.11,4.53-3.45,0.46-.55-0.25-2.09-0.49-3.55-3.48,1.46-6.22,3.11-7.74,6.3-3-2.48-3-3.1-.58-7.07a72.89,72.89,0,0,1-5.39-5c-1.64-1.85-2.94-4-4.58-6.27-1.4,2.36.1,5.41-2.69,6.68-2.58-2.6-2.37-4.21,1.19-8.07-0.55-1.7-1.52-3.41-1.53-5.12s0.92-3.52,1.5-5.51a9.66,9.66,0,0,0-7.86,2.68c-1.93,1.67-1.67,3.24.42,4.84,0.72,0.56,1.53,1,2.51,1.65a16.16,16.16,0,0,1-1,1.33c-2.41,2.63-4.85,2.47-6.45-.82A13.4,13.4,0,0,0,400.4,59c-2.18-1.7-4.18-3.64-6.22-5.52a7.44,7.44,0,0,0-6.43-2.09c-1,2.68-.34,4.8,3.1,6.23-4.65,1.64-4.73-2.55-7.07-3.4L385,52c-0.75-1.21-1.69-1.8-2.86-.84-2.17,1.77-4.62,1.87-7.35,1.47L373,49.87C372.14,52,371.33,54,368.6,53.8a6.09,6.09,0,0,1,1.1-5.48c1.19-1.55,2.49-3,3.82-4.48,1.74-1.89,1.78-1.86-.1-4.32a4,4,0,0,0-.89.86A6.58,6.58,0,0,1,367,44c-1.37.15-2.7,0.58-4.06,0.83A9.62,9.62,0,0,0,356,49.6a8.36,8.36,0,0,1-3.8,3.36c-2.37,1.17-4.73,2.38-7.09,3.58-1.25-2.56-.66-4.59,1.63-6.25,0.83-.6,1.47-1.48,2.26-2.14A6.53,6.53,0,0,0,351.44,43c0.09-2,.81-4,1.41-6.7-0.79-.92-2-2.43-3.32-3.83a9.58,9.58,0,0,1-2.79-5.42,67.2,67.2,0,0,0-1.59-7.45A6,6,0,0,0,343.73,17c-1.41-1.41-3-2.61-4.74-4-1.28,1.28-2.84,2.61-1.83,5.22l-2.71.78A14.92,14.92,0,0,0,335,28a9.54,9.54,0,0,1,.26,6.34,14.78,14.78,0,0,0-.44,8.51,7.72,7.72,0,0,1-1.65,6.63,5.75,5.75,0,0,1,.35,5.19c-1.26,3.93-.4,7.79,1.42,11.36a4.42,4.42,0,0,0,2.71,1.78c2.23,0.55,4.53.76,7.18,1.17a6.92,6.92,0,0,1-1.29,1.69A7.47,7.47,0,0,1,335,70a4.34,4.34,0,0,0-1.58-1.31c-2.79-.49-3.12-2.46-3.51-4.78-0.26-1.55-1.34-3-2.33-5l3.16-4.46-5-1.93-0.06-.61,5.3-1.34a76.18,76.18,0,0,0,1.12-7.72c0.06-1.05-.87-2.16-1.51-3.59,3.78-4.57,2.48-9.28-.64-14a15.33,15.33,0,0,1-1.31-3.89c-0.44-1.41-.85-2.82-1.41-4.65-1.39,2.6-2.22,4.75-1.44,7.32a42.78,42.78,0,0,1,.89,5.36c-2.8-.87-2.11-3-2.51-4.43a7.91,7.91,0,0,0-3-4.51c-3.72,2.41-7.48,4.83-11.22,7.27-1.34.87-2.6,2-4.33,0.89a47.93,47.93,0,0,1,3.88-4.24,4.59,4.59,0,0,0,1.75-4.21,46.17,46.17,0,0,1,.36-6.1,6,6,0,0,0-1.48-.75c-2.77-.78-5.57-1.48-8.36-2.2-1.7-.44-3.3-0.76-4.9.55a2.27,2.27,0,0,1-3.17,0,2.85,2.85,0,0,1-.68-3.48,48.25,48.25,0,0,1,2.56-4.5c0.72-1.2,1-1.93.89-2.63H225.26c5.46,4.61,9.61,10.44,13.83,16.2a22.06,22.06,0,0,1,1.49,3.21c-1.33-.76-2-1.08-2.57-1.48-1.62-1.11-3.18-2.3-4.81-3.39-2.84-1.9-6.13-3.4-6.33-7.53a2.56,2.56,0,0,0-.52-0.89c-0.17-.3-0.33-0.61-0.74-1.36-1,1.72.23,4.9-3,3.65-1.26-2,.39-5-2.52-6.87L216.76,4.6c0.2,0.78.42,1.41,0.53,2.05,0.37,2.08-.22,3-2.22,3.55a23.85,23.85,0,0,1-4,.89,14.47,14.47,0,0,0-9.09,3.54c-2.2,2-9.78,2.7-12.85,1.71l2.21-5.49c-1.59,0-2.89-.4-3.64.07-2.81,1.77-5.92,1.74-9,2-4,.38-6.45,3.43-5.54,7.37,0.29,1.25,1.71,2.24,2.92,3.71a10.27,10.27,0,0,1-2,2.69c-1.45,1-1.9,2.46-2.46,4a21.27,21.27,0,0,1-2.6,5.2,3.67,3.67,0,0,1-2.91,1.19c-0.53-.06-1.16-1.57-1.3-2.49-0.28-1.82-.22-3.68-0.36-5.52a6.24,6.24,0,0,0-.66-1.53,23.44,23.44,0,0,0-2.1,1.93c-2.38,2.81-3.44,3.1-6.77,1.65-0.32-.14-0.62-0.3-1.22-0.58-0.8.59-1.75,1.2-2.6,1.95C148.68,34.63,146,34,145,31a8.52,8.52,0,0,1-.17-3.72c0.69-4.62.51-4.72-3.42-7.17-3.11-1.95-6.14-1.65-9.27-.54-2.42.86-2.66,1.73-1.44,4.17l0.52,1c-0.57.94-1.21,1.89-1.75,2.91S128.69,29.53,128,31a27.42,27.42,0,0,1-2.88-2.66c-0.93-1.16-1.65-2.5-2.48-3.75s-2.08-1.8-3.52-.81c-2.33,1.61-5.19,2.65-6.06,5.83a3.78,3.78,0,0,1-1.4,1.48,33.2,33.2,0,0,0-3.51,2.79,23.26,23.26,0,0,0-2.31,3.66,13.59,13.59,0,0,1-2.62-.7,9.88,9.88,0,0,0-7.39-.31c-3.08.86-6.23,1.5-9.37,2.14a1.91,1.91,0,0,0-1.84,2.08A6.33,6.33,0,0,0,85,43.12c0.92,2,.9,3.68-1,5.24a4,4,0,0,0-.78,2.47A20.21,20.21,0,0,0,83.51,54a4.36,4.36,0,0,1-2.71-3.72c-0.75-4.55-4.32-5.25-7.47-4.44-5.12,1.31-5.12,1.31-9.62-.32l-3.13,4.65A10.51,10.51,0,0,1,59,52.42c-1,.82-2.15,1.55-3.45.65-1.09-.76-1.21-3.13-0.34-4.36,2.4-3.37,1.93-4.62-2.16-5.27a8.34,8.34,0,0,0-3,.3,34,34,0,0,1-4.32,1.18,21.38,21.38,0,0,0-11.56,5c-6.35,5-12.8,9.85-19.11,14.88a5.19,5.19,0,0,0-1.35,3,36,36,0,0,0-.27,4.69c-2.17-1-.43-3-1.65-4.1C9.64,67.38,7.92,68.56,6.27,69.79ZM302.68,39.14c0.25-3.26-.24-6.76,2.59-9.33a2.9,2.9,0,0,0,.39-1.26h0c0.35,2.25.71,4.5,1.05,6.75a5.76,5.76,0,0,1-1.44,4.79,2.08,2.08,0,0,1-1.74.66A2,2,0,0,1,302.68,39.14Z"/>
  <path d="M1025,149c-4.09.37-6.47-2.93-9.66-4.49a11.23,11.23,0,0,0-2.45-1.07c-1.16-.25-2.31-0.3-2.58-1.8a1.26,1.26,0,0,0-.68-0.72c-6.52-3.06-11.68-8.14-17.7-11.93a16.58,16.58,0,0,1-3.12-3.19,2.78,2.78,0,0,1-.79-3.11c0.3-.86-0.35-2-0.62-3.3,2.25,0.61,4.3,3.41,6.71.84,0.37,0.12.6,0.18,0.81,0.27,4.62,2,6.22.92,5.9-4.07-0.07-1,0-2.05,0-3.07a1.49,1.49,0,0,1,.67-0.22c3.92,1.38,3.81,1.28,6.81-1.68,2.58-2.55,4.4-5.31,4.27-9.07,0-.58.13-1.48-0.16-1.67-2.82-1.81-2.35-5.89-5.54-7.71l-2.92,1c-0.36-3.59-3.65-3.64-6.17-5l2.32-4.57c1.53,0.72,3,2,4.42,2a43.42,43.42,0,0,0,8-1.75,1.47,1.47,0,0,0,.93-1c0.31-2.73,2.69-3.84,4.49-5.62a48.1,48.1,0,0,1-5.88-2.76,50.56,50.56,0,0,1-5-4.18l-5.82,3.77c-1.94-3.28-.93-5.92,2.14-6.78a3.59,3.59,0,0,0,2.12-1.46c1.78-3.59,4.85-5.79,8-7.89a8.87,8.87,0,0,0,1-.93,4,4,0,0,0-3.66-4.35c-4-.5-5.64-3.16-6.95-6.39a8,8,0,0,0-4.72-4.76,10.2,10.2,0,0,1-3.14-2.09c-1.43-1.32-2.58-2.66-5-2.22-1,.19-2.42-1.14-3.58-1.89-4.33-2.77-7.37-1.69-8.79,3.18a4.69,4.69,0,0,1-.41.75A11.18,11.18,0,0,0,977,37.92c-1.76-1.81-3.57-1.49-4.66.75-0.44.92-.78,1.89-1.32,3.21-2.52-3-4.91-1.39-7.1,0s-4.36,2.06-6.66.46a8.11,8.11,0,0,0-1.57,1.1c-1.39,1.66-2.78,1.87-4.78.78-2.82-1.53-3.28-1.25-5.58,1.15a4.64,4.64,0,0,1-1.67,1,7,7,0,0,1-2,.41c-4.89.31-8.71,2.6-12,6.13-1,1.1-2.57,1.71-4,2.6-1.62-2.31.06-4.17-.18-6-2.75-1.72-4.19-1.2-4.59,2.06-0.25,2.07-1,3.18-3.23,3.59l-7-10.42c-1.17.48-2.19,1-3.24,1.3-2.13.7-3.75-.73-3.14-2.88,0.38-1.34,1.23-2.6-.93-3.58-2.53,2.36-3.2,5.93-5.39,9.27l-3.82-6.16-2.72,6.87a7.48,7.48,0,0,1-2-1.49c-1.17-2-2.72-1.93-4.45-1-3.07,1.59-6.16,3.14-9.13,4.91a6,6,0,0,1-4.53,1,6.48,6.48,0,0,0-4,.53c-3,1.6-3.12,4-.57,6.21a3.88,3.88,0,0,0,1,.53,3.57,3.57,0,0,1-.36,1.14c-3.93,1.09-7.94,1.57-11.85.23-1.56-.53-2.77-0.45-3.79.54a28.16,28.16,0,0,0-3.5,4.21,46,46,0,0,0-2.35,4.25c-3.12-3.19-3.33-4.05-1.26-7.31,1-1.57.91-2.74-.33-4a9.55,9.55,0,0,1-.87-1.08c-2-2.69-2.85-3.14-5.18-1-4,3.71-8.79,4.23-13.79,4.5-1.14.06-2.27,0.24-3.49,0.38-0.16-1.23.05-2.65-.55-3.46s-2.09-1.32-3.55-2.15l2.43-1.32A19,19,0,0,0,822,53.69c2.33-1.84,2.24-3.2-.15-4.86-1.86-1.3-3.66-2.69-5.53-4.07-4.73,2.47-5,8.29-.12,11.62-1.78,1.66-2.6,3.48-1.53,6,0.67,1.57-.55,2.5-3.74,3.21l1.19-3.53a1.53,1.53,0,0,0-.32-0.65c-4.92-2.48-4.86-7.14-5-11.63a4,4,0,0,1,1.31-2.59,40.47,40.47,0,0,1,4.35-3.43c1.32-1,1.79-2.07.94-3.55a3.73,3.73,0,0,1,.29-4.19c0.86-1.39.62-2.69-.66-4-2.69-2.79-4.22-5.9-2.56-10,0.6-1.48.11-3.41,0.12-5.13a45.19,45.19,0,0,1,.28-6c-1.13-2.43-3.73-3.5-6.06-3.68-3.17-.25-6.53-0.93-10.13.25,0.53,1,.7,1.94,1.25,2.3,3.14,2.07,3.78,5.33,4.45,8.63,0.21,1.06.6,2.09,0.93,3.21,1.73-.86,3-1.82,4.45-2.11,1.08-.22,2.34.43,4.1,0.82l-5,3.87c0.88,1.09,1.51,2,2.28,2.81a5,5,0,0,1,.78,6.63,34.06,34.06,0,0,1-3.55,5.1,4.65,4.65,0,0,0-1,5.34c1,2.61.79,2.9-1.62,3.87-4.45,1.79-4.54,1.89-3.77,7,0.25,1.63.42,3-2,3.3-1.36-2.18-.76-4.83-1.43-7.39a21.3,21.3,0,0,0-2.69.89c-2.19,1.06-2.59,2-2,4.48a12.06,12.06,0,0,0,.53,1.64c1.37,3.48.79,5.17-2.91,7.62-0.92-2-2.37-3.86-2.57-5.86A5.82,5.82,0,0,0,780.63,54c2.66-2.25,1.9-5,1.69-7.77l12.58-8.27-6.11-1.74,0-.64c1.44-.41,2.86-0.9,4.32-1.23,1.95-.44,2.8-1.64,3.26-3.54,1.61-6.66-1-12.23-4.27-17.67a2.89,2.89,0,0,0-1.29-1.1,18.76,18.76,0,0,0-9.6-1.63c1.43,3.89,4.24,6.54,6.51,9.77-0.57,1.55-1.6,3.13-.48,5,0.28,0.47-.33,1.51-0.59,2.27-0.65,1.85-1.49,3.65-1.95,5.55a5,5,0,0,1-3.49,3.64,9.29,9.29,0,0,1-.52-6.76c0.17-.66.64-1.62,0.37-2-2.12-2.71.06-4.43,1.3-6.38a11.88,11.88,0,0,0,.55-1.16c-2.35-3.84-5.92-6.48-10.1-9.41-1,3.16-2.11,5.91-2.56,8.78-0.42,2.71-.09,5.54-0.09,9l-2.66-4.19-3.56,3.95a38.08,38.08,0,0,0-1.62-5,35.47,35.47,0,0,0-2.82-4.14c4-.62,6.71-3,10-5.73a16.69,16.69,0,0,0-9-.3c-1.78.39-3.08,3.11-2.71,5.06a18.31,18.31,0,0,0,.62,2c-0.73.84-1.34,1.68-2.08,2.39a7,7,0,0,0-2.47,6.08c0.3,3.1-2.41,4.08-5,5.62l-2.55-5.43c-2.27,1.28-2.65,3.46-3.67,5.44l3.93,2.48c-1.15,2.07-2.71,2.37-4.55,2.16a7.08,7.08,0,0,0-6.19,2.34,18.84,18.84,0,0,1,1.86,1.32,21.91,21.91,0,0,1,1.61,1.83c-1.81.89-2.9-.1-4.06-0.73a3.3,3.3,0,0,0-4.59.85c0.81,0.59,1.46,1.14,2.17,1.59,2.52,1.61,3.09,3.52,1.57,6.1a10.74,10.74,0,0,1-2.5,2.83C727,59.13,722,63,717,66.95a24,24,0,0,0-1.9,1.5c-1,1-1.16,2.21-.08,3,2.63,2,2.93,4.79,3.09,7.72a26.18,26.18,0,0,0,.71,3.56c2.74-1,4.62-2.86,4.92-5.1,0.4-3.09,2.26-4.34,4.54-5.55,0.89-.47,1.78-0.93,2.91-1.51a5.49,5.49,0,0,1,.28,1.55c-0.94,5.05-2.22,9.9-6.62,13.29a61.55,61.55,0,0,0-5.17,5.05l4.19,2.84-1.72,5.11c3.12-.66,4.6-2.82,6.51-4.29s3.86-3.21,6-4.6c-1.45,3.68-4.6,6-7.09,9.33,3,0.68,5.49-.35,8-1.08,0.87-.25,1.75-0.86,2.59-0.79,2.52,0.19,3.82-1.21,4.83-3.19a9.59,9.59,0,0,1,3.7-4.35c1.54-.91,2.5-2.88,3.58-4.47,1.35-2,2.14-1.88,4.45-.86,1.37,0.6,2.62,1.46,4,2.15,1,0.52,2,.94,3.61,1.65a16.81,16.81,0,0,0-.39-2.68c-0.6-1.74-1.4-3.41-2-5.15-0.86-2.7-1.63-3.24-4.57-2.9-1.49.17-3,.34-4.47,0.45a5.29,5.29,0,0,1-1.31-.23,24.58,24.58,0,0,0,.86-4.11c0.11-2.89-1.41-4.1-4.18-3.27a9.8,9.8,0,0,0-3.17,2,37.25,37.25,0,0,0-2.91,3l-3.52-4.21c2-.6,3.46-1.1,4.95-1.44a26.44,26.44,0,0,1,3.1-.33c1.72-.18,2.53-1.1,2.93-2.84a20.21,20.21,0,0,1,2.24-6.05c3.45-5.6,7.11-11.08,10.8-16.53,0.58-.86,2-2.08,2.51-1.87,1,0.4,1.69,1.65,2.36,2.66a6.59,6.59,0,0,1,.53,2c2,0.44,3-.7,3.43-2.2,0.54-1.83,1.73-2,3.21-1.59,2.62,0.78,5.2,1.66,8.55,2.74l-6.93,4.56c-2.51,1.66-2.94,2.26-2,5.14A18,18,0,0,1,773,64.2c-0.34,2-.27,3.83,1.47,5.38a4.3,4.3,0,0,1,1,2.87,5,5,0,0,0,3.42,5.06,12.11,12.11,0,0,1,1.34.79c-4.52,3.79-10.27,5.85-11.92,12.13,3.72,0.21,6.29-1.72,9-3.62,2.19,2,1.6,5.66,4.78,7.27,0.85-2.66,2.94-3.57,6.08-3.37l-2.35-8c1.93,0.05,2.31,1.3,2.77,2.23A6.09,6.09,0,0,0,792,88c2.53,1,4.71,2.34,5.15,5.43a4.65,4.65,0,0,0,1.39,1.93c2.15,2.41,4.25,4.89,6.53,7.18,5.09,5.12,5.63,11.46,4.66,18-0.51,3.47-1.46,7-4,9.67a2.05,2.05,0,0,1-.82-0.14c-1.34-3.47-4.37-6-5.49-9.57-0.89-2.87-2.26-3.67-5.22-3.24-3.67.54-6.76,1.81-8.59,5.52s-4.17,7.19-6.36,10.72a9.45,9.45,0,0,1-3.49,3.17c-1.65,1-2.74,2.88-4.16,4.48,1.35,1.79,2.65,3.23.94,5.15-0.3.33,0.43,1.57,0.65,2.27-1.42,1.74-2.8,3.43-4.19,5.1a6.78,6.78,0,0,1-1.21,1.23c-1.73,1.23-3.07.69-3.42-1.5a15.25,15.25,0,0,1-.08-3.8,57,57,0,0,1,1-7.15c0.43-1.93-.44-2.86-1.73-4.07a27,27,0,0,1-4.6-5.57c-2.57-4.2-2.19-7.64.91-11.48,0.94-1.17,2-2.21,2.95-3.41,1.32-1.77,1.31-2.48-.57-3.59s-1.91-2.52-1.12-4.09a4.72,4.72,0,0,0,.15-4.23,11.67,11.67,0,0,1-.21-4.43c0.19-4.29-1.49-5.62-5.66-4.37a22.71,22.71,0,0,0-2.47,1.06c-0.67-.7-1.29-1.84-1.81-1.8a6.07,6.07,0,0,0-3.42,1.29,10.54,10.54,0,0,0-2.75,3.93,6.51,6.51,0,0,1-4.1,3.86c-4.55,1.89-5.23,2.6-4.6,7.47,0.55,4.3-1.74,6.36-5.11,8.33-4.25-2.87-5.67-7.67-8.24-12.29a19.45,19.45,0,0,0-2.13,2.87c-2.13,4.48-4.17,9-6.21,13.53a2.35,2.35,0,0,0-.22,1.34c0.25,1.23.76,2.38-.32,3.55-2.14,2.32-2.77,5.95-6.23,7.15a11.68,11.68,0,0,0-2.15,1.1c-1.5.9-2.17,2.07-.79,3.74-2.78-.42-6.87,1.55-7.55,3.69a3.91,3.91,0,0,0,.19,2.66,4.27,4.27,0,0,1,0,4.26c-1,1.86-.5,3.46.67,5.12,1.81,2.58,1.57,3.11-1.22,4.76-2.28,1.35-4.57,2.7-6.71,4.25a5.07,5.07,0,0,0-1.85,5.89c0.75,2.6,2.26,3.14,4.64,1.77l1.09-.64c3.62,4.44,4.37,4.49,7.31.41l-3.13-1.64,9.37-2.09c-0.58-5.31-4-9.52-4.53-14.51l0.63-.5a25.74,25.74,0,0,1,4.15,3.26c2.55,3,5.41,4.13,9.15,2.51a2.25,2.25,0,0,1,.86.2l-3.67,4.32a3.65,3.65,0,0,0,4.39-1.43c2.24-3.4,5.21-2.72,8.27-1.82a25.28,25.28,0,0,1,2.94,1.36c-3.16,1.61-6.09,1-8.95,1.62v5.3c2.7,0,3,1.76,3,3.51l-8.41,3L711.62,173a12.82,12.82,0,0,0-3.09,6.23,14.69,14.69,0,0,0,1.67,1.11c5,2.42,10.16,4.43,14.41,8.15a6.88,6.88,0,0,0,1.93.8c1.93-2.7,1-4.84-1.2-6.92,5.41,0.91,13.39,7,14.82,12l-3.52,1.86c1.9,0.65,3.24,1,4.52,1.56a36,36,0,0,0,3.73,1.79,7.72,7.72,0,0,1,5.36,4.92,44.21,44.21,0,0,0,3,5.86c1.34,2.27,1.76,4.47.11,6.73,0.93,2.07,3,2.6,4.5,3.74,3.5,2.61,7.05,5.18,10.36,8,2.13,1.83,2.37,7.29.62,10.07a16.31,16.31,0,0,0-2.34,8.9,32.89,32.89,0,0,0,.78,4.92c1.31-.68,2.39-0.93,3-1.6,1.85-2.21,3.55-4.5,3.73-7.63a5.32,5.32,0,0,1,4.66-4.78c1.25-.18,2.56,0,3.8-0.25a8.24,8.24,0,0,0,3.13-1.19c2.85-2,4.69-1.93,7,.54,1.74,1.82,3.73,1.94,6,1.24a50.17,50.17,0,0,1,5.65-1.25c4.37-.8,7.08,2.59,10.43,4.32,0.66,0.34,1.08,1.79,1,2.7a33.47,33.47,0,0,1-1,5.06c2.66,2.21,2.31,5.51,2.1,8.76-0.1,1.61-.25,3.23-0.4,4.83-0.42,4.28-2.71,7.13-6.84,8.13a48.71,48.71,0,0,1-6.17.74,3.38,3.38,0,0,1-3.77-2.38,46.93,46.93,0,0,1-1.83-5.22,2.64,2.64,0,0,0-2.3-2.25c-2.51-.3-5-0.56-7.54-0.62-1.66,0-2.28,1.1-1.73,2.59,1.19,3.23,2.51,6.41,4.06,10.33a8.67,8.67,0,0,1-5.62,5.46c-3,1.11-6,2.28-9.3,3.54,0.41,2.83.77,5.43,1.17,8,0.52,3.33.27,3.87-2.82,5.4a42.39,42.39,0,0,1-4.41,2c-0.69.25-1.92,0.4-2.25,0-1.84-2.13-3.64-.7-5.33,0-4.18,1.63-5.32,1.35-7.23-2.78-1.25-2.7-2.86-4.34-6.1-4a5.34,5.34,0,0,1-2.85-1,34.09,34.09,0,0,1-3.21-2.29l-2,3.31c-0.87-2-2.34-2.32-4.11-2.12-1.95.21-3.93,0.11-5.88,0.34a3.4,3.4,0,0,0-2.37,1.08c-1.06,2-2.62,1.73-4.11,1.07-1.3-.58-2.48-0.84-3.52.15-2.6,2.47-5.19,2-7.87.22a4.45,4.45,0,0,0-1-.38,1.63,1.63,0,0,0-.42,0c-0.82,2.07.73,3.4,1.9,5.3-1.48,1.36-3,2.76-4.49,4.1a35.65,35.65,0,0,1-3,2.35,5.79,5.79,0,0,0-2.57,6.27,12.59,12.59,0,0,1-3.56,10.16l-2.59-3-4.92,2.45-4.34-8.06a24.59,24.59,0,0,0-1.84,3.14c-0.77,2-1.3,4.17-3.16,5.63-1,.79-0.78,1.86,0,2.74s1.5,1.43,2.2,2.2,1.39,1.69,2.2,2.68c-3.57,1.51-5.6-2.86-9-1.49l1.8,5-0.66.44-6.22-6.32c-3,1-5.66,2.17-5.85,5.84-2.17-.57-2.13-0.51-4.16.49a8.2,8.2,0,0,1-2.93.79,25.94,25.94,0,0,1-4.5-.05c-2.76-.27-4.77.83-6.79,2.68a32.63,32.63,0,0,1-6.59,4.3,7.57,7.57,0,0,0-1.51,12.08c2.26,2.08,5,3.68,6.43,6.65,0.49,1,1.91,1.55,3.13,2.48,0.12,2.54.19,5.31,0.39,8.06,0.28,3.79.55,7.59,1.06,11.35a4.79,4.79,0,0,0,1.77,2.73,5.75,5.75,0,0,1,2.23,3.71,13.23,13.23,0,0,0,1.65,4c0.84,1.44,2.31,1,3.72,1a11.06,11.06,0,0,1,3.33.85c0.88,0.28,1.72,1,2.57,1,3.77-.05,6,2.48,8.53,4.63a4.64,4.64,0,0,1,2,3.78c0,1.27,0,2.54,0,3.81,0,2.24.12,4.4,2.55,5.59a3,3,0,0,1,1.22,1.62c1.9,5.34,6.33,9,9,13.87,1.26,2.29,3.87,3.16,6.44,3.68,1.67,0.34,3.32.76,5.51,1.26l-2.64,4.54a18.51,18.51,0,0,1,1.85,3.59c0.83,3,3.1,3.75,5.76,4.06,2,0.23,3.89.53,5.85,0.69,1.5,0.12,2.51.79,2.44,2.32-0.2,4.39,2,6.25,6.2,6.32a9.54,9.54,0,0,1,2.37.82c-1.38,1-2.54,1.67-3.54,2.54-1.65,1.42-1.45,2.77.45,3.74,3.91,2,3.91,2,3.69,7l5.35,2.19c1.1,1.59.73,3.18-1,4.57a15.25,15.25,0,0,0-1.31,1.14c-2.38,2.45-2.37,5.11.35,7.05,1.84,1.32,3,2.54,2.65,5-0.13.84,0.92,2,1.66,2.79a32.19,32.19,0,0,0,3.31,2.72,26.77,26.77,0,0,1-1.59,2.38,8.56,8.56,0,0,0-1.62,7.1,3.49,3.49,0,0,1-.82,3.13c-2.17,2.5-4.53,4.6-8.12,4.69A30.5,30.5,0,0,0,719,512c1.49,1.31,2.53,1.33,3.39.91,2.19-1.07,3.46,0,4.62,1.66s2.3,3.13,3.64,4.93c2.52-3.61,6.57-3.71,10.11-4.87,1.39-.45,2.61-0.64,2.91-2.4a6.06,6.06,0,0,1,1.28-2l8.26-12a2,2,0,0,0,.52-0.88c-0.06-2.9-.13-5.8-0.3-8.7-0.06-1.1-.72-2.24-0.53-3.26,0.46-2.46.68-4.75-.86-7a5.08,5.08,0,0,1-.2-2.14c2.17,0.35,1.71,2.36,2.58,3.39,1.54-2.28,1.61-2.9,0-4.68-1.2-1.33-2.48-2.52-1.38-4.51a0.38,0.38,0,0,0,0-.33c-2-2.07-.84-4.16-0.19-6.34a2.59,2.59,0,0,0-1-2,6,6,0,0,1-2.06-5.26c0-1.39,0-2.77,0-4.16,0.11-2.37-.12-4.61-1.86-6.11,0.36-2.65.82-5,.95-7.44a6.27,6.27,0,0,0-1.05-2.85c-1.88-3.6-3.79-7.3-3.89-11.37s0-8.29-1.77-12.22c-0.58-1.25.08-2.45,1.45-3.12a10,10,0,0,0,1.65-1.46l-3.52-1.07c-0.57-3.93-.81-8-1.83-11.87-1.39-5.28.15-10.58-.65-15.82a3.14,3.14,0,0,1,2-3.34c2.43-1.32,4.91-2.56,7.4-3.78a22.17,22.17,0,0,0,8.42-6.47,19.62,19.62,0,0,0,3.56-7.81,28,28,0,0,1,7.71-14.06c3.18-3.27,3.26-4.75.51-8.44a4.34,4.34,0,0,1-.88-4.15,9.62,9.62,0,0,0-2.48-10.16c-2.09-2.14-3.84-4.62-5.87-6.83s-2.6-4.28-1.19-7.2c0.92-1.9,1.79-3.11,3.87-3.8,1.7-.57,2.86-0.76,4.39.42,2.52,1.95,4.3,1.87,6.95,0a61.31,61.31,0,0,0,8-6.09,36.49,36.49,0,0,0,5-7c1.19-1.93,1.72-4.63,5-3a54.18,54.18,0,0,0,7-3.69c2-1.47,3.7-3.37,6.42-3.83,0.95-.16,1.72-1.38,2.87-2.38l4.89,3.92a9.46,9.46,0,0,0,2.15-.78c4.79-3.13,10.21-4.82,15.47-6.86a22.73,22.73,0,0,0,9.54-7.41,20.54,20.54,0,0,0-1-2.21c-0.85-1.44-.39-2.48.6-3.72a57.29,57.29,0,0,1,10.27-10.21,21.1,21.1,0,0,0,3.1-3.68c0.22-.27.39-0.58,0.63-0.82,3.3-3.35,6.18-7,7.47-11.6a5.3,5.3,0,0,1,1.2-1.55c2.8,1.16,2.92,1.24,1.92,3.36a28,28,0,0,1-2.56,4.09c-2.79,3.94-6.2,7.42-8.22,11.93-0.73,1.62-2.35,2.83-3.43,4.32s-0.93,2.14,1.46,3.18c0.45-2.75,2.38-3.8,4.87-4.4,0.83-.2,2.05-1.23,2.06-1.91,0.08-4.31,2.67-6.39,6.28-7.74a4.19,4.19,0,0,0,.92-0.81,11.54,11.54,0,0,1-.83-1.75c-0.54-1.88-.13-3.17,1.69-3.93a5.26,5.26,0,0,0,3.36-4.8c0.37-3.36,2.23-6.07,4.14-8.65a6.76,6.76,0,0,1,3.74-2.22c4-.9,6.34-3.42,8-7q3.75-7.8,7.83-15.44c1.91-3.59,2.43-7.14.72-10.95a38.15,38.15,0,0,1-1.44-4.26,18.11,18.11,0,0,1,.55-12.55c0.48-1.18,1-2.32,1.45-3.52a11.49,11.49,0,0,1,5.33-6.57c2.29-1.29,3.34-2.92,2.34-5.69a5.87,5.87,0,0,1,1-5.25c1.68-2.61,3.21-5.33,4.64-8.09a4.11,4.11,0,0,1,3.49-2.47,8.5,8.5,0,0,0,5.13-2.61c2.67-2.39,5.26-4.88,8.05-7.11a7.85,7.85,0,0,0,3-6c0.07-1,.11-2.08.18-3.11a3.07,3.07,0,0,1,2.68-3.16c2.69-.34,4.61-2,6.72-3.37,1.92-1.27,3.91-2.46,5.95-3.54,0.89-.47,2.16-1.1,2.9-0.8,2.47,1,4.32-.22,6.13-1.34,2-1.25,3.85-2.81,6.26-4.6l0.75,6.64a4.27,4.27,0,0,1,5,1.11,37.21,37.21,0,0,0,5.11,3.56c2,1.31,3.18,2.81,2.51,5.47a11.47,11.47,0,0,0,.19,4.45,3.32,3.32,0,0,0,1.17,2c1.75,1.29,3.62,2.4,5.48,3.6,0.28-1.72.28-1.72-.64-3.58l2.46-2.86a20.85,20.85,0,0,0-2.72-1.52,5.92,5.92,0,0,1-3.85-4.14c-0.78-2.73-2.52-5-2.84-8.06-0.19-1.8-1-4.29-3.76-4.84-1.36-.27-1.17-1.44-0.47-2.74,2.92,1.54,5.67,3.37,6.68,6.51,1.88,5.85,5.63,10.58,8.89,15.57,1.91,2.93,4.84,5.27,7.57,7.56,1,0.85,2.77.81,4.58,1.28l-4.09,4.67c3.47,0.71,5.2-2.25,7.9-2.94a12.66,12.66,0,0,1,1.24,1.68,2.93,2.93,0,0,0,3.39,1.81c1.94-.48,3.11.34,4.17,1.69s2.5,2.34,4.49,1.73c1.48-.45,2.42.16,2.87,1.67a3.83,3.83,0,0,0,3.57,2.86c2.1,0.09,3.35,1.23,4.61,3l2.16-2.34V149Z"/>
  <path d="M703.12,1a53.24,53.24,0,0,1-3,7.48,29.86,29.86,0,0,0-1.38,5.47l-4.79,5.57c1.88,2.71,1.88,2.71,1.37,5.19,3.09,3.39,3.13,3.57,1.55,6.47-3-.84-5.46-3.38-9.29-3.26-0.26,3.94-2.83,7.37-2.29,11.55,2-.2,2-0.2,4.73-2.2,2.45-1.79,3.65-1.48,5.29,1.4-1.07,1.39-3.53.91-4.43,3.16l5.07,0.89c-0.77,3.51-2.82,5.83-5,8.52l-3.44-5.16c0.26-.74.54-1.38,0.71-2a18.69,18.69,0,0,0,.29-1.92c-4.75.45-5.37,1.43-3.72,5.35a8,8,0,0,1,.87,2.61c0.11,2.91,1.68,4.83,3.7,6.75,3.22,3.07,4.7,6.79,2.88,11.26-0.52,1.28-1,2.59-1.38,3.92-1.36,4.52-3.86,8.06-8.33,10a13.67,13.67,0,0,0-2,1.45c1.39,0.55,2.29.93,3.21,1.27,3.65,1.34,3.92,2.28,1.51,5.47-0.84,1.1-1.78,2.13-2.65,3.21-1.74,2.15-3.55,4.26-5.19,6.49-2.53,3.45-2.5,3.83,0,7.49-1.1,0-2,.06-2.81,0a5.76,5.76,0,0,0-6.05,3.22c-0.58,1-.87,2.44-2.93,2.56-0.58-2.53-1.17-5.07-1.73-7.61-1.2-5.44-2.52-10.79-7-14.72-1.63-1.43-2.09-3.42-2-5.66a8.91,8.91,0,0,0-2.54-7c-1.41-1.35-3-2.57-4.37-3.92s-2.79-2.6-4.16-1.6c-1.21-1.12-2.72-1.86-3.87-3-2-1.93-3.75-4.07-5.59-6.15-2-2.24-2.91-4.66-1.24-7.51a1.4,1.4,0,0,0-.19-0.66,7.41,7.41,0,0,0-.85.57c-3,2.72-3.44,2.85-6.91.67-4.5-2.82-8.9-5.8-13.32-8.74-2.1-1.4-4.14-2.88-6.41-4.47,3.16-2.18,6.22-3.13,9.71-2.42,1.21,0.25,2.4.12,2.8-1.3s-0.59-1.85-1.54-2.37-2.13-1.19-3.15-1.75c0.92-2.31.92-2.31,0.42-4.31-4.22,1.82-3.13,7.73-7.61,9.63A33.56,33.56,0,0,1,602.69,38c-2.37-2.62-2.4-3.68-.48-6.75a44.64,44.64,0,0,1,9.46-11.42A18.9,18.9,0,0,0,613.38,18c-2.19-1.38-4.4-.68-6.62-0.7l-1.37-5c-3.71,1.17-3.79,1.17-6-.16-1.17-4.25,3.74-4.54,4.94-7.88L597,1h106.1Z"/>
  <path d="M192,372.58c-2.39,1.17-3.29-.19-4.21-1.83-1.45-2.58-2.46-5.48-5.1-7.51l-7.09,4.3c-3.29-1.93-5.24-4.54-5.45-8.34a3.75,3.75,0,0,0-4.53-3.46,30.07,30.07,0,0,1-10.21,1.39,1.71,1.71,0,0,0-1.95,1.93,28.13,28.13,0,0,0,.46,5.12c0.63,2.92.35,4.44-2.14,5.91-1.93,1.14-4.19,1.73-6.22,2.72a28.91,28.91,0,0,0-3.44,2.35,4.73,4.73,0,0,1-3.3-5.14,83.36,83.36,0,0,0-.66-11,23.79,23.79,0,0,0-1.37-4.41c-2.74,1.89-4.87,3.65-5.29,6.85a8.75,8.75,0,0,1-4.41,6.68,4.46,4.46,0,0,0-2.24,5.25,8.54,8.54,0,0,1-3.27,8.92c-2.45,1.93-4.7,4.1-7.13,6.06a7.66,7.66,0,0,0-3.06,4.83,11.83,11.83,0,0,1-3.94,7.13,5.53,5.53,0,0,0-1.74,2.86c-1.34,7.23-1.12,14.2,3.37,20.57a21.24,21.24,0,0,1,4.32,12.59,15.52,15.52,0,0,0,.72,3.37c2.23,0.27,4.47.07,6.25,0.88s2.78,2.59,4.3,4.1c0.53-.67.87-1.09,1.21-1.53,1.09-1.41,2.58-1.49,3.56-.29,1.6,2,3.29,1.3,5.29,1.07,4-.46,6.06-2.53,7.11-6.3a14.62,14.62,0,0,1,3-5.37c3.39-4,3.5-3.87,3.48-8.59,2.5,2.45,2.11,6.48,5.37,8.55a15.85,15.85,0,0,0,1.86-1.89q2.79-4,5.45-8a4.17,4.17,0,0,1,4.33-2.15c5.38,0.62,10.85.69,16,2.71a6.91,6.91,0,0,0,2.67.65,3.51,3.51,0,0,1,3.62,2.14,3.09,3.09,0,0,0,3.12,1.71c2.42,0.07,4.85.16,7.28,0.14a5.06,5.06,0,0,1,4.22,1.84c2,2.29,7.38,2.81,9.88,1.19,2-1.29,2.39-2.87,1.27-5-0.38-.71-0.75-1.44-1.18-2.12a4.25,4.25,0,0,1,.16-5.42,4.58,4.58,0,0,0,1.12-2.49c0.05-4.24,2.42-7.45,4.78-10.54,2-2.67,2.34-5.15.56-7.9q-3.64-5.67-7.35-11.29a4.33,4.33,0,0,0-3.17-1.77,98.41,98.41,0,0,1-9.76-2.31c-2.53-.73-4.61-2-4.94-5.11C193.42,375.38,192.67,374.24,192,372.58Z"/>
  <path d="M872.84,19.34l-7.78-3.43-0.35,6c-2.83.2-3.74-3.1-6.29-3.25-1.34,2.25-.26,5.2-2.62,7.44l-5.63-5.4c-2.38,3.09-.35,6.44-1.61,9.45-2.25.54-3.76-.71-5.41-2.36,1.47-3.47,4.93-6.5,2.44-11.12-1.91-.56-3.61.78-5.26,1.48-1.07,4.42-2.23,8.64-3.08,12.91a12.56,12.56,0,0,1-3.47,6.6c-1.62,1.65-3.15,3.38-4.66,5.12-0.71.82-1.29,1.74-2.25,3l7.07,1.44c-0.74,1.15-1.23,2-1.78,2.76s-1.09,1.43-1.62,2.12c1.11,1.57,2.54,1.43,3.83,1a49,49,0,0,0,6-2.68c2.27-1.21,2.49-1.32,4.19.36,4.64,4.61,10.35,5.49,16.73,5.1l1.06-5.66c1.7-1.14,3.57-.68,5.37-0.66,4,0,5.89-1.88,6.1-6.4-5.6-.79-11.33-0.77-17-1.13l-0.09-1.22a23.05,23.05,0,0,1,3.29-1.3c3.38-.79,6.64,0,9.88.92,3.45,1,5.47-.21,6.34-3.71,0.58-2.31-.18-3.14-2.42-2.58a16.1,16.1,0,0,0-2,.78,6,6,0,0,1-3.27-4.29c1.68-.17,2.15,1.09,2.9,1.79a2.37,2.37,0,0,0,3.13.42,11.78,11.78,0,0,0,5.18-5l-4.24-2.52L874.32,20Z"/>
  <path d="M118.23,181.67l18.59,14.45c0,1.94-1.58,2.9-2.75,4.1-2,2.06-2.1,3,.22,4.69a21.89,21.89,0,0,1,6.26,6.78c1.86,3.21,4.38,3.61,8.78,1.79,0.24,1.61.56,3.11,0.67,4.63,0.32,4.29,1.77,6.13,6,7.27,1.11,0.3,2.27.42,3.39,0.7,2.71,0.66,5.35,1.43,7.16,3.84,0.68,0.9,1.48,1.75,2.93,1.25,0.32-.11.94,0.66,1.59,1.14,0.29-1.54.62-2.93,0.81-4.35a5.27,5.27,0,0,0-4-6.2,3.9,3.9,0,0,1-2.67-2.85,10.12,10.12,0,0,0-5-5.69L159.42,217a5.83,5.83,0,0,1-4.63-3.39,10.39,10.39,0,0,0-4.94-4.55,21.82,21.82,0,0,1-6-5c-1.79-2-.5-7.27,1.82-8.86,1.78-1.22,1.78-1.22,2.17-4a2.16,2.16,0,0,0-.91-0.25,6.92,6.92,0,0,1-8.5-6.12c-0.08-1.15.58-1.62,1.57-1.93s2.28-.68,2.22-2.4l-3.37-1.22c1.61-2.44.84-4.85-.29-7.11a11.52,11.52,0,0,1-1.07-6c0.14-2.53,0-5.08.09-7.62a7.76,7.76,0,0,1,.25-3.08c1.59-3.29.45-6.28-.71-9.3-0.48-1.26-1-2.51-1.49-3.77l-0.76,0c-0.46,2-.94,4.09-1.37,6.15-1,5-1.88,10-3.07,14.9a2.7,2.7,0,0,0,1.44,3.4c1.64,1,3.49,1.8,4.4,3.83l-4,4.65,3.67,1.21a16.24,16.24,0,0,1,.26,3.22c-0.24,2.38-2.89,4.56-5.2,5.29-3.07,1-5.57.21-8-1.53-1.3-.92-2.71-1.68-4.07-2.51Z"/>
  <path d="M383.08,1c0.15,2.42,1.54,4.21,3.85,5.49,0.49,0.27.94,0.62,1.63,1.08L386.22,13a3.54,3.54,0,0,0,.87,1,6.31,6.31,0,0,1,3.66,6.15,5.81,5.81,0,0,0,2.46,4.39c0.91,0.77,1.78,1.59,2.82,2.52A15.89,15.89,0,0,1,394,28.65c-3.17,1.54-5.53,3.63-6,7.42a3.6,3.6,0,0,1-1.75,2.33,7.64,7.64,0,0,1-7,.13c-2.21-1.06-2.48-2.26-.76-3.95,1.23-1.21,2.61-2.27,3.94-3.39a6.46,6.46,0,0,0,2.34-7.09,29.72,29.72,0,0,0-4.63-10.35,34.9,34.9,0,0,1-2.66-5.15,15.48,15.48,0,0,0-1.69-3.37c-1.27-1.45-2.57-2.9-4-4.23h11.33Z"/>
  <path d="M165.92,327c-3.37-1.26-5.82-.76-7.79,2-0.73,1-2.08,1.62-3.78,2.89L155,327c-4.39,1.79-8.51,3.59-12.72,5.14a18.75,18.75,0,0,1-5.71,1.2c-5.28.2-8.62,3.43-10.81,7.53a18.16,18.16,0,0,1-6.44,6.94,19,19,0,0,0-1.77,1.07c-1.92,1.58-4,2.28-7,.52,0.53,1.71.87,2.72,1.17,3.75,0.52,1.78,1.86,2.29,3.49,2a10.14,10.14,0,0,0,3.28-1,64.2,64.2,0,0,0,7.41-4.4,4.28,4.28,0,0,1,4.47-.77,40.62,40.62,0,0,1,4.36,2,3.85,3.85,0,0,0,4,.24c2.78-1.62,5.69-3.16,7.26-6.18a6.85,6.85,0,0,1,2.87-2.8,24.89,24.89,0,0,0,3.93-3.35,6.6,6.6,0,0,1,5-2.07c3.75,0.22,5.74-1.85,6.82-5.11C165,330.23,165.46,328.6,165.92,327Z"/>
  <path d="M872.84,19.34L874.32,20c4.92,2.32,8.81,5.44,8.74,11.2a24.25,24.25,0,0,1,3.56,2.26,24.61,24.61,0,0,1,2.57,3.25,2.74,2.74,0,0,0,1-.71c0.42-2.91,2.41-4.49,4.67-6,3.69-2.51,4.21-5.12,1.64-8.79a8.91,8.91,0,0,1-1.91-6.72c0.14-1-.74-2.32-1.37-3.36-1.67-2.79-1.69-2.74.6-5a2.51,2.51,0,0,0,.68-1.74,1.8,1.8,0,0,0-1.29-.89C890.81,3,888.42,2.68,886,2.37a3.39,3.39,0,0,0-3.44,1.86c-0.66,1.06-1.19,2.21-2,3.69l-4.9-2.13C874,7.09,872,8.41,870.21,10c-2.6,2.34-2.42,4.34.19,6.6A28,28,0,0,1,872.84,19.34Z"/>
  <path d="M557.67,160.08l-6.43-4.88,2.69-1.55c-1-4.51-2-8.33-5.17-11.11,1.53-2,3.61-.21,5.15-1.45l-0.63-3.42c1.42-2.26,5.25-1.15,5.75-5l-1.8-1,4.3-3.12-2.77-3.34,2.39-2.93a5.1,5.1,0,0,0-1.86-.81,8.57,8.57,0,0,1-5.14-1.67c-1.56-1-3.17-1.36-4.8.33l1.73,3.28a31.46,31.46,0,0,0-3.19,1.34c-1.15.64-2.88,1.25-3.17,2.22-0.49,1.69,1.49,2.29,2.65,3.15l1.82,1.34a47.66,47.66,0,0,1-9.41,10.67c-2.61,2.07-3.42,4.8-4,7.75a2.56,2.56,0,0,0,.12,1.68c1.07,1.78,2.25,3.45,1.38,5.73a1.83,1.83,0,0,0,.92,1.28,6.92,6.92,0,0,0,2.29.72c4.56,0.67,9.11,1.32,13.68,1.89a19.28,19.28,0,0,0,3.3-.14Z"/>
  <path d="M398,358.55a26.25,26.25,0,0,0-.66,11.13,47.59,47.59,0,0,0,1.67,6c1.17,4.09,2.28,8.2,3.5,12.28q1.33,4.45,2.87,8.84a11.09,11.09,0,0,0,4.09,5c1.91,1.47,3.82,2.09,6.22.53-1.87-2.59-.55-5.23.24-7.76a11.72,11.72,0,0,0-.92-9.94,8,8,0,0,1-.52-4.66,7.81,7.81,0,0,0-2.56-7.08c-3.8-3.84-7.22-8.07-10.79-12.14-0.73-.83-1.44-1.66-2.16-2.5Z"/>
  <path d="M200,309.22c0.68,2.9,2.62,3.39,4.88,3.38,1.7,3.43-1.53,5.6-2,8.63,2.26,0.66,2.85,2.62,3.43,4.63,0.7,2.43,1.57,4.82,2.2,7.27,0.72,2.8,2.85,4.23,5.33,2.8a11.27,11.27,0,0,1,7.54-1.69,2.87,2.87,0,0,0,1.82-.81,34.92,34.92,0,0,0,8.27-10.13,5.92,5.92,0,0,0,.39-5.85c-2.62.67-3.23,3.13-4.81,5-3-.3-6.22-0.58-9.4-1a1.72,1.72,0,0,1-1.58-2.49c0.87-2.13-.24-3.55-1.41-5-1.66-2.07-3.42-4.07-5-6.22a2.81,2.81,0,0,0-3.87-1.1C203.94,307.52,202,308.32,200,309.22Z"/>
  <path d="M603.28,83.65l6.43-1.06,0.17-.74-4.42-2.36,4.05-1.58a13.41,13.41,0,0,0-5.92-8.56,3,3,0,0,0-.81.44c-0.78,1-.17,2.77-2,3.34-2,.62-3.92,1.52-6,0.73s-4-1.66-6-2.56c-2.51-1.15-3.32-1.13-5.24.73-1.41,1.36-2.68,2.86-4,4.34a3.16,3.16,0,0,0,0,4.39,27.37,27.37,0,0,0,10.72,8.52c2.31,1,5.44.58,8.15,0.31,2.1-.21,4.12-1.2,6.46-1.92Z"/>
  <path d="M46.57,451.11c-1.59,1.16-2,2.43-1.29,4,1.26,2.84,2.43,5.73,3.79,8.51,0.76,1.55,1,1.5,5.23,1.85-0.15,4.44,2.22,7.61,5.76,10.09,1.39,1,2.64,2.24,5,2-1.2-2-.11-3.35,1.05-4.78,2.12-2.62,2.1-2.72-.48-5s-5-4.47-7.65-6.47a12.57,12.57,0,0,1-4.91-7.27,33.61,33.61,0,0,0-1.4-3.67C49.79,451.77,48.16,452.36,46.57,451.11Z"/>
  <path d="M827.44,13.12l-3.59-3.79-3,3.42-3.26-6.39c-2.06,4.68.1,8,1.47,11.8-0.9.82-1.84,1.8-2.9,2.6a4.56,4.56,0,0,0-1.81,5.19c1,3.49,2.27,6.75,6.24,8.17a4,4,0,0,0,.75-1.23c0.45-3.61,2.9-5.89,5.31-8.25,1.69-1.66,3.22-3.47,5.17-5.6-2.81-.56-3.82,1.66-5.58,1.87-2-1.82-2.08-2-1-3.89C825.9,15.73,826.66,14.46,827.44,13.12Z"/>
  <path d="M49.87,428.51l-6.41,5.77,0.42,2.27c-3.24-.23-4,2.8-5.81,4.43-1.79-.05-3.74-2.87-5.24.19,0.62,4.48,4.87,6.41,6.86,9.93a43.7,43.7,0,0,0,3.71,4.77,9.24,9.24,0,0,0-.82-6.89l4.58-1.74c-0.57-1.23-1-2.34-1.6-3.38a6.21,6.21,0,0,1,1.81-8.44C49.61,433.74,49.84,431.26,49.87,428.51Z"/>
  <path d="M559.62,137.53c-2.55,1.36-2.9,3-2.27,5.2a20.56,20.56,0,0,1,.9,5.43,5,5,0,0,0,2.53,4.57c0.39,0.25.74,0.55,1.12,0.81,4.16,2.85,5.12,2.69,8.7-1.62-0.94-.46-1.83-0.86-2.68-1.34-1.71-1-1.94-1.67-1-3.34,0.73-1.28,1.61-2.48,2.54-3.89C566.48,140.5,562.67,139.62,559.62,137.53Z"/>
  <path d="M184.08,320a9.85,9.85,0,0,0,6.05,4.22c2.65,0.6,4.36,2.36,6.39,4.56l-5,6,5.82,5a36,36,0,0,0,3.49-3.22,7.86,7.86,0,0,0,1-9.34c-1.77-3.3-4.06-6.05-8.32-5.48C190.14,322.21,187.22,320.94,184.08,320Z"/>
  <path d="M778.94,261.61c-1.68-2.64-4.07-3.85-6.72-4.71a1.06,1.06,0,0,0-.67-0.07c-4.77,2.29-10.49,1.54-15,4.82a14.79,14.79,0,0,0-4.62,4.93c3.48,2.06,6.92,2.05,9.64-.44a15.63,15.63,0,0,1,10.64-4.28,3.87,3.87,0,0,1,2.26.33C776.2,263.53,777.39,262.46,778.94,261.61Z"/>
  <path d="M132.15,449.45c-1.6-.47-2.55-0.62-3.52.7-1.53,2.07-5.31,2.32-8,.63l0.87-3-4.07,1.3,1.45,2.81a8.36,8.36,0,0,0,4.34,10.55,1.84,1.84,0,0,0,2.6-.93c1-2.05,2-4.14,2.82-6.26,0.42-1,.38-2.32.93-3.28A13.62,13.62,0,0,1,132.15,449.45Z"/>
  <path d="M197.38,287.6c1.76-3.72,3.35-7.25,3.53-11-1.49-1.49-2.7-2.8-4-4s-4.1-.31-4.47,1.39a11.54,11.54,0,0,0-.21,3.77c0.28,2.26.76,4.49,1.21,6.72C193.81,286.41,195.34,287,197.38,287.6Z"/>
  <path d="M186.81,301.9l-5.22-5.55c-3.73,5.28-2,10.71,2.32,12.73,3.88-2.74,6.61-6.2,6.86-8.72Z"/>
  <path d="M734,272c1.08,0.19,2.17.39,3.25,0.57,1.4,0.23,3-.24,3.88,1.57a1.87,1.87,0,0,0,1.55.35c2.24-.44,4.49-0.92,6.68-1.55,0.66-.19,1.18-0.92,2.19-1.76-1.43-.63-2.4-1.16-3.43-1.51a40.47,40.47,0,0,0-6.17-1.8,7.28,7.28,0,0,0-4,.59,27.46,27.46,0,0,0-4.14,2.84Z"/>
  <path d="M34.25,34.85c-1.95-1.67-3.71-3.3-5.62-4.73a3,3,0,0,0-2.25-.27c-1.75.47-3.45,1.17-5.17,1.78A2.54,2.54,0,0,0,22.73,35c1.23,0.57,2.38,1.29,3.45,1.87,1.28,0,2.66-.37,3.69.08C32,37.92,33.08,36.93,34.25,34.85Z"/>
  <path d="M132.12,14.89c2.54,1.66,7.23.86,10.74-1.82a7.8,7.8,0,0,0-.76-0.52c-0.29-.15-0.61-0.25-1-0.42-0.26-2.87,2.45-6.06-.78-9.09a18.86,18.86,0,0,0-1,2.17,9.06,9.06,0,0,1-3.6,4.87A7.83,7.83,0,0,0,132.12,14.89Z"/>
  <path d="M512.46,206.43c3.19-.27,3.44-0.55,3.8-2.73,0.27-1.63.8-3.21,1.31-5.17l-2.88-1.38c0.28-1,.62-1.89.81-2.84a5.1,5.1,0,0,0,.13-2.3,2,2,0,0,0-1.33-1.24c-0.63.14-1.67,0.95-1.61,1.31C513.52,196.82,511.06,201.51,512.46,206.43Z"/>
  <path d="M310,309.07c4.15-3.89,4.43-6.36,1.25-11a10.38,10.38,0,0,0-4.88,6.56C305.87,306.54,307.76,308.24,310,309.07Z"/>
  <path d="M196.76,261.39c3.67-4.15,3.14-8.12-1-10.72-1.06-.67-1.5-0.5-3.54,1.42,0.77,1.41,1.64,2.85,2.37,4.35S196,259.55,196.76,261.39Z"/>
  <path d="M753,61.75a3,3,0,0,0,3.4,3.35c1.95-.07,3.24-1.14,3.29-2.73,0.06-1.9-2.37-4.2-4.46-4.24C753.9,58.1,753,59.53,753,61.75Z"/>
  <path d="M405.21,49c-3.42-2.55-4.39-2.54-6.32-.32-1.36,1.56-1.45,2.48-.33,3.58,1.44,1.42,3.43,1.66,4.59.3A21.56,21.56,0,0,0,405.21,49Z"/>
  <path d="M838,17l5-4.84c-3.1-2.2-4.76-2.42-6-1C835.44,12.88,835.55,14,838,17Z"/>
  <path d="M227.1,263.57c-0.27,1.07-.52,2.14-0.81,3.21-0.42,1.51-1.26,3.06,0,4.52,1,1.13,3.11,1.1,5.54,0l-4.76-7.7h0Z"/>
  <path d="M107.95,172.39a12.43,12.43,0,0,0-1.67-2.75c-2-1.92-3.49-4-2.9-7l-4-1.2c1.29,2.36,2.63,4.84,4,7.3a10.48,10.48,0,0,0,3.81,4.23Z"/>
  <path d="M536.52,206.84c0-2.56-1.89-2.77-2.94-3.76s-2.08-2.36-3.24-3.71L527,201.94c2.15,1.19,3.5,2.79,6,2.68C533.94,204.58,535,205.82,536.52,206.84Z"/>
  <path d="M780.22,98.19c-2.57-2.15-3.65-5.58-7.45-3.19a8.18,8.18,0,0,0,4.78,4.38C778.08,99.59,779,98.77,780.22,98.19Z"/>
  <path d="M767.39,101.86c0.72-2-.07-3.08-1.33-4.09C764.93,100.28,764.93,100.28,767.39,101.86Z"/>
  <path d="M759.27,90.67l1.68,1.57a7.87,7.87,0,0,0,.81-0.89,21.67,21.67,0,0,0-1.61-1.63Z"/>
  <path d="M305.67,28.56a2.9,2.9,0,0,1-.39,1.26c-2.83,2.57-2.34,6.06-2.59,9.33a2,2,0,0,0,.86,1.62,2.08,2.08,0,0,0,1.74-.66,5.76,5.76,0,0,0,1.44-4.79c-0.34-2.25-.7-4.5-1.06-6.75h0Z"/>
  </g>
</svg>