<?xml version="1.0" encoding="utf-8"?>
<!-- Generator: Adobe Illustrator 19.2.1, SVG Export Plug-In . SVG Version: 6.00 Build 0)  -->
<svg version="1.1" id="Clock_Body" xmlns="http://www.w3.org/2000/svg" xmlns:xlink="http://www.w3.org/1999/xlink" x="0px" y="0px"
	 viewBox="0 0 720 720" style="enable-background:new 0 0 720 720;" xml:space="preserve">
<style type="text/css">
	.st0{fill:#353535;}
	.st1{fill:#F1CFA2;}
	.st2{fill:#E3C497;}
	.st3{fill:#4B494A;}
	.st4{fill:#B0AEAE;}
	.st5{opacity:0.2;}
	.st6{fill:#AFD136;}
	.st7{opacity:0.1;}
</style>
<circle id="Face_3_" class="st0" cx="360" cy="360" r="306"/>
<g id="Hardware">
	<path class="st1" d="M360,680.5c-85.61,0-166.09-33.34-226.63-93.87C72.84,526.09,39.5,445.61,39.5,360
		c0-85.61,33.34-166.09,93.87-226.63C193.91,72.84,274.39,39.5,360,39.5c85.61,0,166.09,33.34,226.63,93.87
		C647.16,193.91,680.5,274.39,680.5,360c0,85.61-33.34,166.09-93.87,226.63C526.09,647.16,445.61,680.5,360,680.5z M360,51.5
		C189.89,51.5,51.5,189.89,51.5,360S189.89,668.5,360,668.5S668.5,530.11,668.5,360S530.11,51.5,360,51.5z"/>
	<path class="st2" d="M360,42c42.93,0,84.58,8.41,123.78,24.99c37.87,16.02,71.88,38.95,101.08,68.15s52.14,63.21,68.15,101.08
		C669.59,275.42,678,317.07,678,360s-8.41,84.58-24.99,123.78c-16.02,37.87-38.95,71.88-68.15,101.08S521.65,637,483.78,653.01
		C444.58,669.59,402.93,678,360,678s-84.58-8.41-123.78-24.99c-37.87-16.02-71.88-38.95-101.08-68.15S83,521.65,66.99,483.78
		C50.41,444.58,42,402.93,42,360s8.41-84.58,24.99-123.78c16.02-37.87,38.95-71.88,68.15-101.08S198.35,83,236.22,66.99
		C275.42,50.41,317.07,42,360,42 M360,671c171.49,0,311-139.51,311-311S531.49,49,360,49S49,188.51,49,360S188.51,671,360,671
		 M360,37C181.61,37,37,181.61,37,360s144.61,323,323,323s323-144.61,323-323S538.39,37,360,37L360,37z M360,666
		C191,666,54,529,54,360S191,54,360,54s306,137,306,306S529,666,360,666L360,666z"/>
</g>
<g id="Small_Markers_Drop">
	<path class="st3" d="M388.78,81.4l0.99,0.1l-3.76,35.81l-0.99-0.1L388.78,81.4 M331.22,81.4l3.76,35.81l-0.99,0.1l-3.76-35.81
		L331.22,81.4 M417.74,85.94l0.98,0.21l-7.49,35.22l-0.98-0.21L417.74,85.94 M302.26,85.94l7.49,35.22l-0.98,0.21l-7.49-35.22
		L302.26,85.94 M446.07,93.48l0.95,0.31l-11.13,34.25l-0.95-0.31L446.07,93.48 M273.93,93.48l11.13,34.25l-0.95,0.31l-11.13-34.25
		L273.93,93.48 M473.46,103.93l0.91,0.41l-14.65,32.9l-0.91-0.41L473.46,103.93 M246.54,103.93l14.65,32.9l-0.91,0.41l-14.65-32.9
		L246.54,103.93 M524.22,133.12l0.81,0.59l-21.17,29.13l-0.81-0.59L524.22,133.12 M195.78,133.12l21.17,29.13l-0.81,0.59
		l-21.17-29.13L195.78,133.12 M547.04,151.53l0.74,0.67l-24.09,26.76l-0.74-0.67L547.04,151.53 M172.96,151.53l24.1,26.76
		l-0.74,0.67l-24.1-26.76L172.96,151.53 M567.8,172.22l0.67,0.74l-26.76,24.1l-0.67-0.74L567.8,172.22 M152.2,172.22l26.76,24.1
		l-0.67,0.74l-26.76-24.1L152.2,172.22 M586.29,194.97l0.59,0.81l-29.13,21.17l-0.59-0.81L586.29,194.97 M133.71,194.97l29.13,21.17
		l-0.59,0.81l-29.13-21.17L133.71,194.97 M615.66,245.63l0.41,0.91l-32.9,14.65l-0.41-0.91L615.66,245.63 M104.34,245.63l32.9,14.65
		l-0.41,0.91l-32.9-14.65L104.34,245.63 M626.22,272.98l0.31,0.95l-34.25,11.13l-0.31-0.95L626.22,272.98 M93.78,272.98l34.25,11.13
		l-0.31,0.95l-34.25-11.13L93.78,272.98 M633.85,301.28l0.21,0.98l-35.22,7.49l-0.21-0.98L633.85,301.28 M86.15,301.28l35.22,7.49
		l-0.21,0.98l-35.22-7.49L86.15,301.28 M638.49,330.23l0.11,0.99l-35.81,3.76l-0.11-0.99L638.49,330.23 M81.51,330.23l35.81,3.76
		l-0.1,0.99l-35.81-3.76L81.51,330.23 M602.79,385.01l35.81,3.76l-0.11,0.99l-35.81-3.76L602.79,385.01 M117.22,385.01l0.1,0.99
		l-35.81,3.76l-0.1-0.99L117.22,385.01 M598.84,410.26l35.22,7.49l-0.21,0.98l-35.22-7.49L598.84,410.26 M121.16,410.26l0.21,0.98
		l-35.22,7.49l-0.21-0.98L121.16,410.26 M592.28,434.95l34.25,11.13l-0.31,0.95l-34.25-11.13L592.28,434.95 M127.72,434.95
		l0.31,0.95l-34.25,11.13l-0.31-0.95L127.72,434.95 M583.17,458.81l32.9,14.65l-0.41,0.91l-32.9-14.65L583.17,458.81 M136.83,458.81
		l0.41,0.91l-32.9,14.65l-0.41-0.91L136.83,458.81 M557.75,503.06l29.13,21.17l-0.59,0.81l-29.13-21.17L557.75,503.06
		 M162.25,503.06l0.59,0.81l-29.13,21.17l-0.59-0.81L162.25,503.06 M541.71,522.94l26.76,24.09l-0.67,0.74l-26.76-24.09
		L541.71,522.94 M178.29,522.94l0.67,0.74l-26.76,24.09l-0.67-0.74L178.29,522.94 M523.69,541.04l24.09,26.76l-0.74,0.67
		l-24.09-26.76L523.69,541.04 M196.31,541.04l0.74,0.67l-24.1,26.76l-0.74-0.67L196.31,541.04 M503.86,557.16l21.17,29.13
		l-0.81,0.59l-21.17-29.13L503.86,557.16 M216.14,557.16l0.81,0.59l-21.17,29.13l-0.81-0.59L216.14,557.16 M459.73,582.77
		l14.65,32.9l-0.91,0.41l-14.65-32.9L459.73,582.77 M260.27,582.77l0.91,0.41l-14.65,32.9l-0.91-0.41L260.27,582.77 M435.9,591.97
		l11.13,34.25l-0.95,0.31l-11.13-34.25L435.9,591.97 M284.1,591.97l0.95,0.31l-11.13,34.25l-0.95-0.31L284.1,591.97 M411.23,598.63
		l7.49,35.22l-0.98,0.21l-7.49-35.22L411.23,598.63 M308.77,598.63l0.98,0.21l-7.49,35.22l-0.98-0.21L308.77,598.63 M386.01,602.68
		l3.76,35.81l-0.99,0.11l-3.76-35.81L386.01,602.68 M333.99,602.68l0.99,0.11l-3.76,35.81l-0.99-0.11L333.99,602.68 M387,79.21
		l-0.21,1.99l-3.76,35.81l-0.21,1.99l1.99,0.21l0.99,0.1l1.99,0.21l0.21-1.99l3.76-35.81l0.21-1.99l-1.99-0.21l-0.99-0.1L387,79.21
		L387,79.21z M333,79.21l-1.99,0.21l-0.99,0.1l-1.99,0.21l0.21,1.99l3.76,35.81l0.21,1.99l1.99-0.21l0.99-0.1l1.99-0.21l-0.21-1.99
		l-3.76-35.81L333,79.21L333,79.21z M416.2,83.57l-0.42,1.96l-7.49,35.22l-0.42,1.96l1.96,0.42l0.98,0.21l1.96,0.42l0.42-1.96
		l7.49-35.22l0.42-1.96l-1.96-0.42l-0.98-0.21L416.2,83.57L416.2,83.57z M303.8,83.57l-1.96,0.42l-0.98,0.21l-1.96,0.42l0.42,1.96
		l7.49,35.22l0.42,1.96l1.96-0.42l0.98-0.21l1.96-0.42l-0.42-1.96l-7.49-35.22L303.8,83.57L303.8,83.57z M444.79,90.96l-0.62,1.9
		l-11.13,34.25l-0.62,1.9l1.9,0.62l0.95,0.31l1.9,0.62l0.62-1.9l11.13-34.25l0.62-1.9l-1.9-0.62l-0.95-0.31L444.79,90.96
		L444.79,90.96z M275.21,90.96l-1.9,0.62l-0.95,0.31l-1.9,0.62l0.62,1.9l11.13,34.25l0.62,1.9l1.9-0.62l0.95-0.31l1.9-0.62
		l-0.62-1.9l-11.13-34.25L275.21,90.96L275.21,90.96z M247.55,101.29l-1.83,0.81l-0.91,0.41l-1.83,0.81l0.81,1.83l14.65,32.9
		l0.81,1.83l1.83-0.81l0.91-0.41l1.83-0.81l-0.81-1.83l-14.65-32.9L247.55,101.29L247.55,101.29z M472.45,101.29l-0.81,1.83
		l-14.65,32.9l-0.81,1.83l1.83,0.81l0.91,0.41l1.83,0.81l0.81-1.83l14.65-32.9l0.81-1.83l-1.83-0.81l-0.91-0.41L472.45,101.29
		L472.45,101.29z M523.78,130.32l-1.18,1.62l-21.17,29.13l-1.18,1.62l1.62,1.18l0.81,0.59l1.62,1.18l1.18-1.62l21.17-29.13
		l1.18-1.62l-1.62-1.18l-0.81-0.59L523.78,130.32L523.78,130.32z M196.22,130.32l-1.62,1.18l-0.81,0.59l-1.62,1.18l1.18,1.62
		l21.17,29.13l1.18,1.62l1.62-1.18l0.81-0.59l1.62-1.18l-1.18-1.62l-21.17-29.13L196.22,130.32L196.22,130.32z M546.89,148.7
		l-1.34,1.49l-24.09,26.76l-1.34,1.49l1.49,1.34l0.74,0.67l1.49,1.34l1.34-1.49l24.09-26.76l1.34-1.49l-1.48-1.34l-0.74-0.67
		L546.89,148.7L546.89,148.7z M173.11,148.7l-1.49,1.34l-0.74,0.67l-1.49,1.34l1.34,1.49l24.1,26.76l1.34,1.49l1.49-1.34l0.74-0.67
		l1.49-1.34l-1.34-1.49l-24.1-26.76L173.11,148.7L173.11,148.7z M152.05,169.39l-1.34,1.49l-0.67,0.74l-1.34,1.49l1.49,1.34
		l26.76,24.1l1.49,1.34l1.34-1.49l0.67-0.74l1.34-1.49l-1.49-1.34l-26.76-24.1L152.05,169.39L152.05,169.39z M567.95,169.4
		l-1.49,1.34l-26.76,24.1l-1.49,1.34l1.34,1.49l0.67,0.74l1.34,1.48l1.49-1.34l26.76-24.1l1.49-1.34l-1.34-1.49l-0.67-0.74
		L567.95,169.4L567.95,169.4z M586.74,192.18l-1.62,1.18l-29.13,21.17l-1.62,1.18l1.18,1.62l0.59,0.81l1.18,1.62l1.62-1.18
		l29.13-21.17l1.62-1.18l-1.18-1.62l-0.59-0.81L586.74,192.18L586.74,192.18z M133.26,192.18l-1.18,1.62l-0.59,0.81l-1.18,1.62
		l1.62,1.18l29.13,21.17l1.62,1.18l1.18-1.62l0.59-0.81l1.18-1.62l-1.62-1.18l-29.13-21.17L133.26,192.18L133.26,192.18z
		 M616.68,242.98l-1.83,0.81l-32.9,14.65l-1.83,0.81l0.81,1.83l0.41,0.91l0.81,1.83l1.83-0.81l32.9-14.65l1.83-0.81l-0.81-1.83
		l-0.41-0.91L616.68,242.98L616.68,242.98z M103.33,242.98l-0.81,1.83l-0.41,0.91l-0.81,1.83l1.83,0.81l32.9,14.65l1.83,0.81
		l0.81-1.83l0.41-0.91l0.81-1.83l-1.83-0.81l-32.9-14.65L103.33,242.98L103.33,242.98z M627.5,270.45l-1.9,0.62l-34.25,11.13
		l-1.9,0.62l0.62,1.9l0.31,0.95l0.62,1.9l1.9-0.62l34.25-11.13l1.9-0.62l-0.62-1.9l-0.31-0.95L627.5,270.45L627.5,270.45z
		 M92.5,270.45l-0.62,1.9l-0.31,0.95l-0.62,1.9l1.9,0.62l34.25,11.13l1.9,0.62l0.62-1.9l0.31-0.95l0.62-1.9l-1.9-0.62L94.4,271.07
		L92.5,270.45L92.5,270.45z M635.4,298.91l-1.96,0.42l-35.22,7.49l-1.95,0.42l0.41,1.95l0.21,0.98l0.41,1.96l1.96-0.42l35.22-7.49
		l1.95-0.42l-0.41-1.95l-0.21-0.98L635.4,298.91L635.4,298.91z M84.61,298.91l-0.42,1.96l-0.21,0.98l-0.42,1.96l1.96,0.42
		l35.22,7.49l1.96,0.42l0.42-1.96l0.21-0.98l0.42-1.96l-1.96-0.42l-35.22-7.49L84.61,298.91L84.61,298.91z M79.73,328.03l-0.21,1.99
		l-0.1,0.99L79.21,333l1.99,0.21l35.81,3.76l1.99,0.21l0.21-1.99l0.1-0.99l0.21-1.99l-1.99-0.21l-35.81-3.76L79.73,328.03
		L79.73,328.03z M640.27,328.03l-1.99,0.21L602.47,332l-1.99,0.21l0.21,1.99l0.11,0.99l0.21,1.99l1.99-0.21l35.81-3.76l1.99-0.21
		l-0.21-1.99l-0.11-0.99L640.27,328.03L640.27,328.03z M119,382.82l-1.99,0.21l-35.81,3.76L79.21,387l0.21,1.99l0.1,0.99l0.21,1.99
		l1.99-0.21l35.81-3.76l1.99-0.21l-0.21-1.99l-0.1-0.99L119,382.82L119,382.82z M601.01,382.82l-0.21,1.99l-0.11,0.99l-0.21,1.99
		l1.99,0.21l35.81,3.76l1.99,0.21l0.21-1.99l0.11-0.99l0.21-1.99l-1.99-0.21l-35.81-3.76L601.01,382.82L601.01,382.82z
		 M597.3,407.88l-0.41,1.96l-0.21,0.98l-0.41,1.95l1.95,0.42l35.22,7.49l1.96,0.42l0.41-1.96l0.21-0.98l0.41-1.95l-1.95-0.42
		l-35.22-7.49L597.3,407.88L597.3,407.88z M122.7,407.88l-1.96,0.42l-35.22,7.49l-1.96,0.42l0.42,1.96l0.21,0.98l0.42,1.96
		l1.96-0.42l35.22-7.49l1.96-0.42l-0.42-1.96l-0.21-0.98L122.7,407.88L122.7,407.88z M590.99,432.43l-0.62,1.9l-0.31,0.95l-0.62,1.9
		l1.9,0.62l34.25,11.13l1.9,0.62l0.62-1.9l0.31-0.95l0.62-1.9l-1.9-0.62l-34.25-11.13L590.99,432.43L590.99,432.43z M129.01,432.43
		l-1.9,0.62l-34.25,11.13l-1.9,0.62l0.62,1.9l0.31,0.95l0.62,1.9l1.9-0.62l34.25-11.13l1.9-0.62l-0.62-1.9l-0.31-0.95L129.01,432.43
		L129.01,432.43z M582.16,456.17l-0.81,1.83l-0.41,0.91l-0.81,1.83l1.83,0.81l32.9,14.65l1.83,0.81l0.81-1.83l0.41-0.91l0.81-1.83
		l-1.83-0.81l-32.9-14.65L582.16,456.17L582.16,456.17z M137.84,456.17l-1.83,0.81l-32.9,14.65l-1.83,0.81l0.81,1.83l0.41,0.91
		l0.81,1.83l1.83-0.81l32.9-14.65l1.83-0.81l-0.81-1.83l-0.41-0.91L137.84,456.17L137.84,456.17z M162.69,500.26l-1.62,1.18
		l-29.13,21.17l-1.62,1.18l1.18,1.62l0.59,0.81l1.18,1.62l1.62-1.18l29.13-21.17l1.62-1.18l-1.18-1.62l-0.59-0.81L162.69,500.26
		L162.69,500.26z M557.31,500.26l-1.18,1.62l-0.59,0.81l-1.18,1.62l1.62,1.18l29.13,21.17l1.62,1.18l1.18-1.62l0.59-0.81l1.18-1.62
		l-1.62-1.18l-29.13-21.17L557.31,500.26L557.31,500.26z M178.43,520.12l-1.49,1.34l-26.76,24.09l-1.49,1.34l1.34,1.49l0.67,0.74
		l1.34,1.48l1.49-1.34l26.76-24.09l1.49-1.34l-1.34-1.49l-0.67-0.74L178.43,520.12L178.43,520.12z M541.57,520.12l-1.34,1.48
		l-0.67,0.74l-1.34,1.49l1.49,1.34l26.76,24.09l1.48,1.34l1.34-1.48l0.67-0.74l1.34-1.49l-1.49-1.34l-26.76-24.09L541.57,520.12
		L541.57,520.12z M523.83,538.22l-1.49,1.34l-0.74,0.67l-1.48,1.34l1.34,1.48l24.09,26.76l1.34,1.49l1.49-1.34l0.74-0.67l1.48-1.34
		l-1.34-1.48l-24.09-26.76L523.83,538.22L523.83,538.22z M196.17,538.22l-1.34,1.49l-24.1,26.76l-1.34,1.49l1.48,1.34l0.74,0.67
		l1.49,1.34l1.34-1.49l24.1-26.76l1.34-1.49l-1.48-1.34l-0.74-0.67L196.17,538.22L196.17,538.22z M504.31,554.37l-1.62,1.18
		l-0.81,0.59l-1.62,1.18l1.18,1.62l21.17,29.13l1.18,1.62l1.62-1.18l0.81-0.59l1.62-1.18l-1.18-1.62l-21.17-29.13L504.31,554.37
		L504.31,554.37z M215.69,554.37l-1.18,1.62l-21.17,29.13l-1.18,1.62l1.62,1.18l0.81,0.59l1.62,1.18l1.18-1.62l21.17-29.13
		l1.18-1.62l-1.62-1.18l-0.81-0.59L215.69,554.37L215.69,554.37z M259.26,580.13l-0.81,1.83l-14.65,32.9l-0.81,1.83l1.83,0.81
		l0.91,0.41l1.83,0.81l0.81-1.83l14.65-32.9l0.81-1.83l-1.83-0.81l-0.91-0.41L259.26,580.13L259.26,580.13z M460.74,580.13
		l-1.83,0.81l-0.91,0.41l-1.83,0.81l0.81,1.83l14.65,32.9l0.81,1.83l1.83-0.81l0.91-0.41l1.83-0.81l-0.81-1.83l-14.65-32.9
		L460.74,580.13L460.74,580.13z M282.82,589.45l-0.62,1.9l-11.13,34.25l-0.62,1.9l1.9,0.62l0.95,0.31l1.9,0.62l0.62-1.9l11.13-34.25
		l0.62-1.9l-1.9-0.62l-0.95-0.31L282.82,589.45L282.82,589.45z M437.18,589.45l-1.9,0.62l-0.95,0.31l-1.9,0.62l0.62,1.9l11.13,34.25
		l0.62,1.9l1.9-0.62l0.95-0.31l1.9-0.62l-0.62-1.9l-11.13-34.25L437.18,589.45L437.18,589.45z M412.78,596.26l-1.95,0.41l-0.98,0.21
		l-1.96,0.41l0.42,1.96l7.49,35.22l0.42,1.95l1.95-0.41l0.98-0.21l1.96-0.41l-0.42-1.96l-7.49-35.22L412.78,596.26L412.78,596.26z
		 M307.23,596.26l-0.42,1.95l-7.49,35.22l-0.42,1.96l1.96,0.41l0.98,0.21l1.95,0.41l0.42-1.95l7.49-35.22l0.42-1.96l-1.96-0.41
		l-0.98-0.21L307.23,596.26L307.23,596.26z M387.79,600.48l-1.99,0.21l-0.99,0.11l-1.99,0.21l0.21,1.99l3.76,35.81l0.21,1.99
		l1.99-0.21l0.99-0.11l1.99-0.21l-0.21-1.99L388,602.47L387.79,600.48L387.79,600.48z M332.21,600.48l-0.21,1.99l-3.76,35.81
		l-0.21,1.99l1.99,0.21l0.99,0.11l1.99,0.21l0.21-1.99l3.76-35.81l0.21-1.99l-1.99-0.21l-0.99-0.11L332.21,600.48L332.21,600.48z"/>
</g>
<g id="Markers_Drop_1_">
	<path class="st3" d="M369.53,75.42c1.64,0,2.97,1.33,2.97,2.97v39.08c0,1.64-1.33,2.97-2.97,2.97h-19.07
		c-1.64,0-2.97-1.33-2.97-2.97V78.39c0-1.64,1.33-2.97,2.97-2.97H369.53 M496.94,110.94c0.53,0,1.07,0.14,1.56,0.42l7.56,4.37
		c1.5,0.86,2.01,2.78,1.15,4.28l-19.37,33.56c-0.58,1-1.63,1.57-2.72,1.57c-0.53,0-1.07-0.14-1.56-0.42l-7.56-4.37
		c-1.5-0.86-2.01-2.78-1.15-4.28l19.37-33.56C494.81,111.5,495.86,110.94,496.94,110.94 M223.06,110.94c1.08,0,2.14,0.56,2.72,1.57
		l19.37,33.56c0.86,1.5,0.35,3.41-1.15,4.28l-7.56,4.37c-0.49,0.28-1.03,0.42-1.56,0.42c-1.08,0-2.14-0.56-2.72-1.57l-19.37-33.56
		c-0.87-1.5-0.35-3.41,1.15-4.28l7.56-4.37C221.99,111.08,222.52,110.94,223.06,110.94 M601.55,212.36c1.08,0,2.14,0.56,2.72,1.57
		l4.37,7.56c0.86,1.5,0.35,3.41-1.15,4.28l-33.56,19.37c-0.49,0.28-1.03,0.42-1.56,0.42c-1.08,0-2.14-0.56-2.72-1.57l-4.37-7.56
		c-0.86-1.5-0.35-3.41,1.15-4.28l33.56-19.37C600.48,212.5,601.02,212.36,601.55,212.36 M118.45,212.36c0.53,0,1.07,0.14,1.56,0.42
		l33.56,19.37c1.5,0.86,2.01,2.78,1.15,4.28l-4.37,7.56c-0.58,1-1.63,1.57-2.72,1.57c-0.53,0-1.07-0.14-1.56-0.42l-33.56-19.37
		c-1.5-0.86-2.01-2.78-1.15-4.28l4.37-7.56C116.31,212.92,117.36,212.36,118.45,212.36 M641.61,347.5c1.64,0,2.97,1.33,2.97,2.97
		v19.07c0,1.64-1.33,2.97-2.97,2.97h-39.08c-1.64,0-2.97-1.33-2.97-2.97v-19.07c0-1.64,1.33-2.97,2.97-2.97H641.61 M117.47,347.5
		c1.64,0,2.97,1.33,2.97,2.97v19.07c0,1.64-1.33,2.97-2.97,2.97H78.39c-1.64,0-2.97-1.33-2.97-2.97v-19.07
		c0-1.64,1.33-2.97,2.97-2.97H117.47 M572.37,474.44c0.53,0,1.07,0.14,1.56,0.42l33.56,19.37c1.5,0.86,2.01,2.78,1.15,4.28
		l-4.37,7.56c-0.58,1-1.63,1.57-2.72,1.57c-0.53,0-1.07-0.14-1.56-0.42l-33.56-19.37c-1.5-0.86-2.01-2.78-1.15-4.28l4.37-7.56
		C570.24,475,571.29,474.44,572.37,474.44 M147.63,474.44c1.08,0,2.14,0.56,2.72,1.57l4.37,7.56c0.87,1.5,0.35,3.41-1.15,4.28
		l-33.56,19.37c-0.49,0.28-1.03,0.42-1.56,0.42c-1.08,0-2.14-0.56-2.72-1.57l-4.37-7.56c-0.86-1.5-0.35-3.41,1.15-4.28l33.56-19.37
		C146.56,474.57,147.1,474.44,147.63,474.44 M485.13,564.87c1.08,0,2.14,0.56,2.72,1.57l19.37,33.56c0.87,1.5,0.35,3.41-1.15,4.28
		l-7.56,4.37c-0.49,0.28-1.03,0.42-1.56,0.42c-1.08,0-2.14-0.56-2.72-1.57l-19.37-33.56c-0.86-1.5-0.35-3.41,1.15-4.28l7.56-4.37
		C484.06,565,484.6,564.87,485.13,564.87 M234.87,564.87c0.53,0,1.07,0.14,1.56,0.42l7.56,4.37c1.5,0.87,2.01,2.78,1.15,4.28
		l-19.37,33.56c-0.58,1.01-1.63,1.57-2.72,1.57c-0.53,0-1.07-0.14-1.56-0.42l-7.56-4.37c-1.5-0.86-2.01-2.78-1.15-4.28l19.37-33.56
		C232.73,565.43,233.79,564.87,234.87,564.87 M369.53,599.57c1.64,0,2.97,1.33,2.97,2.97v39.08c0,1.64-1.33,2.97-2.97,2.97h-19.07
		c-1.64,0-2.97-1.33-2.97-2.97v-39.08c0-1.64,1.33-2.97,2.97-2.97H369.53 M369.53,72.42h-19.07c-3.29,0-5.97,2.68-5.97,5.97v39.08
		c0,3.29,2.68,5.97,5.97,5.97h19.07c3.29,0,5.97-2.68,5.97-5.97V78.39C375.5,75.1,372.82,72.42,369.53,72.42L369.53,72.42z
		 M496.94,107.94c-2.19,0-4.22,1.18-5.31,3.07l-19.37,33.56c-0.82,1.42-1.04,3.07-0.61,4.65c0.42,1.58,1.44,2.9,2.86,3.72l7.57,4.37
		c0.93,0.54,1.99,0.82,3.06,0.82c2.19,0,4.22-1.18,5.31-3.07l19.37-33.56c0.82-1.42,1.04-3.07,0.61-4.65
		c-0.42-1.58-1.44-2.9-2.86-3.72l-7.56-4.37C499.08,108.23,498.02,107.94,496.94,107.94L496.94,107.94z M223.06,107.94
		c-1.07,0-2.13,0.28-3.06,0.82l-7.57,4.37c-1.42,0.82-2.43,2.14-2.86,3.72c-0.42,1.58-0.21,3.23,0.61,4.65l19.37,33.56
		c1.09,1.89,3.13,3.07,5.31,3.07c1.07,0,2.13-0.28,3.06-0.82l7.56-4.37c1.42-0.82,2.43-2.14,2.86-3.72
		c0.42-1.58,0.21-3.23-0.61-4.65l-19.37-33.56C227.28,109.12,225.24,107.94,223.06,107.94L223.06,107.94z M601.55,209.36
		c-1.07,0-2.13,0.28-3.06,0.82l-33.56,19.37c-2.93,1.69-3.94,5.45-2.24,8.38l4.37,7.57c1.09,1.89,3.13,3.07,5.31,3.07
		c1.07,0,2.13-0.28,3.06-0.82l33.56-19.37c1.42-0.82,2.43-2.14,2.86-3.72c0.42-1.58,0.21-3.23-0.61-4.65l-4.37-7.57
		C605.78,210.54,603.74,209.36,601.55,209.36L601.55,209.36z M118.45,209.36c-2.19,0-4.22,1.18-5.31,3.07l-4.37,7.56
		c-0.82,1.42-1.04,3.07-0.61,4.65c0.42,1.58,1.44,2.9,2.86,3.72l33.56,19.37c0.93,0.54,1.99,0.82,3.06,0.82
		c2.19,0,4.22-1.18,5.31-3.07l4.37-7.57c0.82-1.42,1.04-3.07,0.61-4.65c-0.42-1.58-1.44-2.9-2.86-3.72l-33.56-19.37
		C120.58,209.65,119.52,209.36,118.45,209.36L118.45,209.36z M641.61,344.5h-39.08c-3.29,0-5.97,2.68-5.97,5.97v19.07
		c0,3.29,2.68,5.97,5.97,5.97h39.08c3.29,0,5.97-2.68,5.97-5.97v-19.07C647.58,347.18,644.9,344.5,641.61,344.5L641.61,344.5z
		 M117.47,344.5H78.39c-3.29,0-5.97,2.68-5.97,5.97v19.07c0,3.29,2.68,5.97,5.97,5.97h39.08c3.29,0,5.97-2.68,5.97-5.97v-19.07
		C123.43,347.18,120.76,344.5,117.47,344.5L117.47,344.5z M572.37,471.43c-2.19,0-4.22,1.18-5.31,3.07l-4.37,7.57
		c-1.69,2.93-0.68,6.69,2.24,8.38l33.56,19.37c0.93,0.54,1.99,0.82,3.06,0.82c2.19,0,4.22-1.18,5.31-3.07l4.37-7.56
		c0.82-1.42,1.04-3.07,0.61-4.65c-0.42-1.58-1.44-2.9-2.86-3.72l-33.56-19.37C574.5,471.72,573.44,471.43,572.37,471.43
		L572.37,471.43z M147.63,471.43c-1.07,0-2.13,0.28-3.06,0.82l-33.56,19.37c-1.42,0.82-2.43,2.14-2.86,3.72
		c-0.42,1.58-0.21,3.23,0.61,4.65l4.37,7.57c1.09,1.89,3.13,3.07,5.31,3.07c1.07,0,2.13-0.28,3.06-0.82l33.56-19.37
		c1.42-0.82,2.43-2.14,2.86-3.72c0.42-1.58,0.21-3.23-0.61-4.65l-4.37-7.56C151.85,472.61,149.81,471.43,147.63,471.43
		L147.63,471.43z M485.13,561.87c-1.07,0-2.13,0.28-3.06,0.82l-7.57,4.37c-2.93,1.69-3.94,5.45-2.24,8.38l19.37,33.56
		c1.09,1.89,3.13,3.07,5.31,3.07c1.07,0,2.13-0.28,3.06-0.82l7.57-4.37c1.42-0.82,2.43-2.14,2.86-3.72
		c0.42-1.58,0.21-3.23-0.61-4.65l-19.37-33.56C489.35,563.04,487.32,561.87,485.13,561.87L485.13,561.87z M234.87,561.87
		c-2.19,0-4.22,1.18-5.31,3.07l-19.37,33.56c-0.82,1.42-1.04,3.07-0.61,4.65c0.42,1.58,1.44,2.9,2.86,3.72l7.57,4.37
		c0.93,0.54,1.99,0.82,3.06,0.82c2.19,0,4.22-1.18,5.31-3.07l19.37-33.56c1.69-2.93,0.68-6.69-2.24-8.38l-7.57-4.37
		C237,562.15,235.94,561.87,234.87,561.87L234.87,561.87z M369.53,596.57h-19.07c-3.29,0-5.97,2.68-5.97,5.97v39.08
		c0,3.29,2.68,5.97,5.97,5.97h19.07c3.29,0,5.97-2.68,5.97-5.97v-39.08C375.5,599.24,372.82,596.57,369.53,596.57L369.53,596.57z"/>
</g>
<path id="Markers" class="st4" d="M333.99,117.32l-3.76-35.81l0.99-0.1l3.76,35.81L333.99,117.32z M309.74,121.16l-7.49-35.22
	l-0.98,0.21l7.49,35.22L309.74,121.16z M285.05,127.72l-11.13-34.25l-0.95,0.31l11.13,34.25L285.05,127.72z M261.18,136.83
	l-14.65-32.9l-0.91,0.41l14.65,32.9L261.18,136.83z M216.94,162.25l-21.17-29.13l-0.81,0.59l21.17,29.13L216.94,162.25z
	 M197.06,178.29l-24.1-26.76l-0.74,0.67l24.1,26.76L197.06,178.29z M178.96,196.31l-26.76-24.1l-0.67,0.74l26.76,24.1L178.96,196.31
	z M162.84,216.14l-29.13-21.17l-0.59,0.81l29.13,21.17L162.84,216.14z M137.23,260.27l-32.9-14.65l-0.41,0.91l32.9,14.65
	L137.23,260.27z M128.03,284.1l-34.25-11.13l-0.31,0.95l34.25,11.13L128.03,284.1z M121.37,308.77l-35.22-7.49l-0.21,0.98
	l35.22,7.49L121.37,308.77z M117.32,333.99l-35.81-3.76l-0.1,0.99l35.81,3.76L117.32,333.99z M117.32,386.01l-0.1-0.99l-35.81,3.76
	l0.1,0.99L117.32,386.01z M121.37,411.23l-0.21-0.98l-35.22,7.49l0.21,0.98L121.37,411.23z M128.03,435.9l-0.31-0.95l-34.25,11.13
	l0.31,0.95L128.03,435.9z M137.23,459.73l-0.41-0.91l-32.9,14.65l0.41,0.91L137.23,459.73z M162.84,503.86l-0.59-0.81l-29.13,21.17
	l0.59,0.81L162.84,503.86z M178.96,523.69l-0.67-0.74l-26.76,24.09l0.67,0.74L178.96,523.69z M197.06,541.71l-0.74-0.67l-24.1,26.76
	l0.74,0.67L197.06,541.71z M216.94,557.75l-0.81-0.59l-21.17,29.13l0.81,0.59L216.94,557.75z M261.18,583.17l-0.91-0.41l-14.65,32.9
	l0.91,0.41L261.18,583.17z M285.05,592.28l-0.95-0.31l-11.13,34.25l0.95,0.31L285.05,592.28z M309.74,598.84l-0.98-0.21l-7.49,35.22
	l0.98,0.21L309.74,598.84z M334.98,602.79l-0.99-0.11l-3.76,35.81l0.99,0.11L334.98,602.79z M389.77,638.49l-3.76-35.81l-0.99,0.11
	l3.76,35.81L389.77,638.49z M418.72,633.85l-7.49-35.22l-0.98,0.21l7.49,35.22L418.72,633.85z M447.02,626.22l-11.13-34.25
	l-0.95,0.31l11.13,34.25L447.02,626.22z M474.38,615.66l-14.65-32.9l-0.91,0.41l14.65,32.9L474.38,615.66z M525.03,586.29
	l-21.17-29.13l-0.81,0.59l21.17,29.13L525.03,586.29z M547.78,567.8l-24.09-26.76l-0.74,0.67l24.09,26.76L547.78,567.8z
	 M568.47,547.04l-26.76-24.09l-0.67,0.74l26.76,24.09L568.47,547.04z M586.88,524.22l-29.13-21.17l-0.59,0.81l29.13,21.17
	L586.88,524.22z M616.07,473.46l-32.9-14.65l-0.41,0.91l32.9,14.65L616.07,473.46z M626.53,446.07l-34.25-11.13l-0.31,0.95
	l34.25,11.13L626.53,446.07z M634.06,417.74l-35.22-7.49l-0.21,0.98l35.22,7.49L634.06,417.74z M638.6,388.78l-35.81-3.76
	l-0.11,0.99l35.81,3.76L638.6,388.78z M638.6,331.22l-0.11-0.99l-35.81,3.76l0.11,0.99L638.6,331.22z M634.06,302.26l-0.21-0.98
	l-35.22,7.49l0.21,0.98L634.06,302.26z M626.53,273.93l-0.31-0.95l-34.25,11.13l0.31,0.95L626.53,273.93z M616.07,246.54l-0.41-0.91
	l-32.9,14.65l0.41,0.91L616.07,246.54z M586.88,195.78l-0.59-0.81l-29.13,21.17l0.59,0.81L586.88,195.78z M568.47,172.96l-0.67-0.74
	l-26.76,24.1l0.67,0.74L568.47,172.96z M547.78,152.2l-0.74-0.67l-24.09,26.76l0.74,0.67L547.78,152.2z M525.03,133.71l-0.81-0.59
	l-21.17,29.13l0.81,0.59L525.03,133.71z M474.38,104.34l-0.91-0.41l-14.65,32.9l0.91,0.41L474.38,104.34z M447.02,93.78l-0.95-0.31
	l-11.13,34.25l0.95,0.31L447.02,93.78z M418.72,86.15l-0.98-0.21l-7.49,35.22l0.98,0.21L418.72,86.15z M389.77,81.51l-0.99-0.1
	l-3.76,35.81l0.99,0.1L389.77,81.51z M236.43,154.71l7.56-4.37c1.5-0.86,2.01-2.78,1.15-4.28l-19.37-33.56
	c-0.86-1.5-2.78-2.01-4.28-1.15l-7.56,4.37c-1.5,0.86-2.01,2.78-1.15,4.28l19.37,33.56C233.02,155.06,234.94,155.58,236.43,154.71z
	 M150.34,244l4.37-7.56c0.86-1.5,0.35-3.41-1.15-4.28l-33.56-19.37c-1.5-0.86-3.41-0.35-4.28,1.15l-4.37,7.56
	c-0.86,1.5-0.35,3.41,1.15,4.28l33.56,19.37C147.56,246.01,149.48,245.5,150.34,244z M120.01,507.22l33.56-19.37
	c1.5-0.86,2.01-2.78,1.15-4.28l-4.37-7.56c-0.86-1.5-2.78-2.01-4.28-1.15l-33.56,19.37c-1.5,0.86-2.01,2.78-1.15,4.28l4.37,7.56
	C116.6,507.57,118.51,508.08,120.01,507.22z M225.77,607.49l19.37-33.56c0.86-1.5,0.35-3.41-1.15-4.28l-7.56-4.37
	c-1.5-0.86-3.41-0.35-4.28,1.15l-19.37,33.56c-0.86,1.5-0.35,3.41,1.15,4.28l7.56,4.37C222.99,609.5,224.91,608.99,225.77,607.49z
	 M498.51,608.64l7.56-4.37c1.5-0.86,2.01-2.78,1.15-4.28l-19.37-33.56c-0.86-1.5-2.78-2.01-4.28-1.15l-7.56,4.37
	c-1.5,0.86-2.01,2.78-1.15,4.28l19.37,33.56C495.09,608.99,497.01,609.5,498.51,608.64z M604.27,506.07l4.37-7.56
	c0.86-1.5,0.35-3.41-1.15-4.28l-33.56-19.37c-1.5-0.86-3.41-0.35-4.28,1.15l-4.37,7.56c-0.86,1.5-0.35,3.41,1.15,4.28l33.56,19.37
	C601.49,508.08,603.4,507.57,604.27,506.07z M573.93,245.14l33.56-19.37c1.5-0.86,2.01-2.78,1.15-4.28l-4.37-7.56
	c-0.86-1.5-2.78-2.01-4.28-1.15l-33.56,19.37c-1.5,0.86-2.01,2.78-1.15,4.28l4.37,7.56C570.52,245.5,572.44,246.01,573.93,245.14z
	 M487.85,153.57l19.37-33.56c0.86-1.5,0.35-3.41-1.15-4.28l-7.56-4.37c-1.5-0.86-3.41-0.35-4.28,1.15l-19.37,33.56
	c-0.86,1.5-0.35,3.41,1.15,4.28l7.56,4.37C485.06,155.58,486.98,155.06,487.85,153.57z M372.5,117.47V78.39
	c0-1.64-1.33-2.97-2.97-2.97h-19.07c-1.64,0-2.97,1.33-2.97,2.97v39.08c0,1.64,1.33,2.97,2.97,2.97h19.07
	C371.17,120.43,372.5,119.1,372.5,117.47z M120.43,369.53v-19.07c0-1.64-1.33-2.97-2.97-2.97H78.39c-1.64,0-2.97,1.33-2.97,2.97
	v19.07c0,1.64,1.33,2.97,2.97,2.97h39.08C119.1,372.5,120.43,371.17,120.43,369.53z M372.5,641.61v-39.08
	c0-1.64-1.33-2.97-2.97-2.97h-19.07c-1.64,0-2.97,1.33-2.97,2.97v39.08c0,1.64,1.33,2.97,2.97,2.97h19.07
	C371.17,644.58,372.5,643.25,372.5,641.61z M644.58,369.53v-19.07c0-1.64-1.33-2.97-2.97-2.97h-39.08c-1.64,0-2.97,1.33-2.97,2.97
	v19.07c0,1.64,1.33,2.97,2.97,2.97h39.08C643.25,372.5,644.58,371.17,644.58,369.53z M372.5,117.47V78.39
	c0-1.64-1.33-2.97-2.97-2.97h-19.07c-1.64,0-2.97,1.33-2.97,2.97v39.08c0,1.64,1.33,2.97,2.97,2.97h19.07
	C371.17,120.43,372.5,119.1,372.5,117.47z"/>
<g id="Circles_Drop" class="st5">
	<path d="M360,60.05c2.54,0,4.6,2.06,4.6,4.6c0,2.54-2.06,4.6-4.6,4.6s-4.6-2.06-4.6-4.6C355.4,62.11,357.46,60.05,360,60.05
		 M507.68,99.62c0.78,0,1.57,0.2,2.3,0.62c2.2,1.27,2.95,4.08,1.68,6.28c-0.85,1.48-2.4,2.3-3.99,2.3c-0.78,0-1.57-0.2-2.3-0.62
		c-2.2-1.27-2.95-4.08-1.68-6.28C504.54,100.45,506.09,99.62,507.68,99.62 M212.32,99.62c1.59,0,3.14,0.83,3.99,2.3
		c1.27,2.2,0.52,5.01-1.68,6.28c-0.72,0.42-1.52,0.62-2.3,0.62c-1.59,0-3.14-0.83-3.99-2.3c-1.27-2.2-0.52-5.01,1.68-6.28
		C210.75,99.82,211.54,99.62,212.32,99.62 M615.77,207.73c1.59,0,3.14,0.82,3.99,2.3c1.27,2.2,0.52,5.01-1.68,6.28
		c-0.72,0.42-1.52,0.62-2.3,0.62c-1.59,0-3.14-0.82-3.99-2.3c-1.27-2.2-0.52-5.01,1.68-6.28
		C614.2,207.93,614.99,207.73,615.77,207.73 M104.23,207.73c0.78,0,1.57,0.2,2.3,0.62c2.2,1.27,2.95,4.08,1.68,6.28
		c-0.85,1.48-2.4,2.3-3.99,2.3c-0.78,0-1.57-0.2-2.3-0.62c-2.2-1.27-2.95-4.08-1.68-6.28C101.09,208.55,102.64,207.73,104.23,207.73
		 M655.35,355.4c2.54,0,4.6,2.06,4.6,4.6s-2.06,4.6-4.6,4.6c-2.54,0-4.6-2.06-4.6-4.6S652.81,355.4,655.35,355.4 M64.65,355.4
		c2.54,0,4.6,2.06,4.6,4.6s-2.06,4.6-4.6,4.6c-2.54,0-4.6-2.06-4.6-4.6S62.11,355.4,64.65,355.4 M615.78,503.07
		c0.78,0,1.57,0.2,2.3,0.62c2.2,1.27,2.95,4.08,1.68,6.28c-0.85,1.48-2.4,2.3-3.99,2.3c-0.78,0-1.57-0.2-2.3-0.62
		c-2.2-1.27-2.95-4.08-1.68-6.28C612.65,503.9,614.19,503.07,615.78,503.07 M104.22,503.07c1.59,0,3.14,0.83,3.99,2.3
		c1.27,2.2,0.52,5.01-1.68,6.28c-0.72,0.42-1.52,0.62-2.3,0.62c-1.59,0-3.14-0.83-3.99-2.3c-1.27-2.2-0.52-5.01,1.68-6.28
		C102.65,503.27,103.44,503.07,104.22,503.07 M507.67,611.18c1.59,0,3.14,0.83,3.99,2.3c1.27,2.2,0.52,5.01-1.68,6.28
		c-0.72,0.42-1.52,0.62-2.3,0.62c-1.59,0-3.14-0.83-3.99-2.3c-1.27-2.2-0.52-5.01,1.68-6.28
		C506.1,611.38,506.89,611.18,507.67,611.18 M212.33,611.18c0.78,0,1.57,0.2,2.3,0.62c2.2,1.27,2.95,4.08,1.68,6.28
		c-0.85,1.48-2.4,2.3-3.99,2.3c-0.78,0-1.57-0.2-2.3-0.62c-2.2-1.27-2.95-4.08-1.68-6.28C209.2,612,210.74,611.18,212.33,611.18
		 M360,650.75c2.54,0,4.6,2.06,4.6,4.6c0,2.54-2.06,4.6-4.6,4.6s-4.6-2.06-4.6-4.6C355.4,652.81,357.46,650.75,360,650.75
		 M360,57.05c-4.19,0-7.6,3.41-7.6,7.6s3.41,7.6,7.6,7.6s7.6-3.41,7.6-7.6S364.19,57.05,360,57.05L360,57.05z M507.68,96.62
		c-2.71,0-5.23,1.46-6.59,3.8c-2.1,3.63-0.85,8.29,2.78,10.38c1.15,0.67,2.47,1.02,3.8,1.02c2.71,0,5.23-1.46,6.59-3.8
		c2.1-3.63,0.85-8.29-2.78-10.38C510.32,96.97,509.01,96.62,507.68,96.62L507.68,96.62z M212.32,96.62c-1.33,0-2.64,0.35-3.8,1.02
		c-3.63,2.1-4.88,6.75-2.78,10.38c1.35,2.34,3.88,3.8,6.59,3.8c1.33,0,2.64-0.35,3.8-1.02c3.63-2.1,4.88-6.75,2.78-10.38
		C217.56,98.08,215.03,96.62,212.32,96.62L212.32,96.62z M615.77,204.73L615.77,204.73c-1.33,0-2.64,0.35-3.8,1.02
		c-1.76,1.01-3.02,2.65-3.54,4.61c-0.53,1.96-0.26,4.01,0.76,5.77c1.35,2.34,3.88,3.8,6.59,3.8c1.33,0,2.64-0.35,3.8-1.02
		c1.76-1.01,3.02-2.65,3.54-4.61c0.53-1.96,0.26-4.01-0.76-5.77C621.01,206.18,618.48,204.73,615.77,204.73L615.77,204.73z
		 M104.23,204.73c-2.71,0-5.23,1.46-6.59,3.8c-2.1,3.63-0.85,8.29,2.78,10.38c1.15,0.67,2.47,1.02,3.8,1.02
		c2.71,0,5.23-1.46,6.59-3.8c1.01-1.76,1.28-3.81,0.76-5.77c-0.53-1.96-1.78-3.6-3.54-4.61
		C106.87,205.08,105.56,204.73,104.23,204.73L104.23,204.73z M655.35,352.4c-4.19,0-7.6,3.41-7.6,7.6s3.41,7.6,7.6,7.6
		c4.19,0,7.6-3.41,7.6-7.6S659.54,352.4,655.35,352.4L655.35,352.4z M64.65,352.4c-4.19,0-7.6,3.41-7.6,7.6s3.41,7.6,7.6,7.6
		s7.6-3.41,7.6-7.6S68.84,352.4,64.65,352.4L64.65,352.4z M615.78,500.07c-2.71,0-5.23,1.46-6.59,3.8
		c-2.1,3.63-0.85,8.29,2.78,10.38c1.15,0.67,2.47,1.02,3.8,1.02c2.71,0,5.23-1.46,6.59-3.8c1.01-1.76,1.28-3.81,0.76-5.77
		c-0.53-1.96-1.78-3.6-3.54-4.61C618.42,500.42,617.11,500.07,615.78,500.07L615.78,500.07z M104.22,500.07
		c-1.33,0-2.64,0.35-3.8,1.02c-3.63,2.1-4.88,6.75-2.78,10.38c1.35,2.34,3.88,3.8,6.59,3.8c1.33,0,2.64-0.35,3.8-1.02
		c3.63-2.1,4.88-6.75,2.78-10.38C109.45,501.53,106.93,500.07,104.22,500.07L104.22,500.07z M507.67,608.18
		c-1.33,0-2.64,0.35-3.8,1.02c-3.63,2.1-4.88,6.75-2.78,10.38c1.35,2.34,3.88,3.8,6.59,3.8c1.33,0,2.64-0.35,3.8-1.02
		c1.76-1.02,3.02-2.65,3.54-4.61c0.53-1.96,0.26-4.01-0.76-5.77C512.9,609.63,510.38,608.18,507.67,608.18L507.67,608.18z
		 M212.33,608.18c-2.71,0-5.23,1.46-6.59,3.8c-1.01,1.76-1.28,3.81-0.76,5.77c0.53,1.96,1.78,3.6,3.54,4.61
		c1.15,0.67,2.47,1.02,3.8,1.02c2.71,0,5.23-1.46,6.59-3.8c2.1-3.63,0.85-8.29-2.78-10.38
		C214.97,608.53,213.66,608.18,212.33,608.18L212.33,608.18z M360,647.75c-4.19,0-7.6,3.41-7.6,7.6c0,4.19,3.41,7.6,7.6,7.6
		s7.6-3.41,7.6-7.6C367.6,651.16,364.19,647.75,360,647.75L360,647.75z"/>
</g>
<path id="Circles" class="st1" d="M618.08,216.31c-2.2,1.27-5.01,0.52-6.28-1.68c-1.27-2.2-0.52-5.01,1.68-6.28s5.01-0.52,6.28,1.68
	C621.03,212.23,620.28,215.04,618.08,216.31z M509.97,100.24c-2.2-1.27-5.01-0.52-6.28,1.68c-1.27,2.2-0.52,5.01,1.68,6.28
	c2.2,1.27,5.01,0.52,6.28-1.68C512.93,104.32,512.17,101.51,509.97,100.24z M360,60.05c-2.54,0-4.6,2.06-4.6,4.6
	c0,2.54,2.06,4.6,4.6,4.6s4.6-2.06,4.6-4.6C364.6,62.11,362.54,60.05,360,60.05z M210.03,100.24c-2.2,1.27-2.95,4.08-1.68,6.28
	c1.27,2.2,4.08,2.95,6.28,1.68c2.2-1.27,2.95-4.08,1.68-6.28C215.04,99.72,212.23,98.97,210.03,100.24z M100.24,210.03
	c-1.27,2.2-0.52,5.01,1.68,6.28c2.2,1.27,5.01,0.52,6.28-1.68c1.27-2.2,0.52-5.01-1.68-6.28
	C104.32,207.07,101.51,207.83,100.24,210.03z M60.05,360c0,2.54,2.06,4.6,4.6,4.6c2.54,0,4.6-2.06,4.6-4.6s-2.06-4.6-4.6-4.6
	C62.11,355.4,60.05,357.46,60.05,360z M100.24,509.97c1.27,2.2,4.08,2.95,6.28,1.68c2.2-1.27,2.95-4.08,1.68-6.28
	c-1.27-2.2-4.08-2.95-6.28-1.68C99.72,504.96,98.97,507.77,100.24,509.97z M210.03,619.76c2.2,1.27,5.01,0.52,6.28-1.68
	c1.27-2.2,0.52-5.01-1.68-6.28c-2.2-1.27-5.01-0.52-6.28,1.68C207.07,615.68,207.83,618.49,210.03,619.76z M360,659.95
	c2.54,0,4.6-2.06,4.6-4.6c0-2.54-2.06-4.6-4.6-4.6s-4.6,2.06-4.6,4.6C355.4,657.89,357.46,659.95,360,659.95z M509.97,619.76
	c2.2-1.27,2.95-4.08,1.68-6.28c-1.27-2.2-4.08-2.95-6.28-1.68c-2.2,1.27-2.95,4.08-1.68,6.28
	C504.96,620.28,507.77,621.03,509.97,619.76z M619.76,509.97c1.27-2.2,0.52-5.01-1.68-6.28c-2.2-1.27-5.01-0.52-6.28,1.68
	c-1.27,2.2-0.52,5.01,1.68,6.28C615.68,512.93,618.49,512.17,619.76,509.97z M659.95,360c0-2.54-2.06-4.6-4.6-4.6
	c-2.54,0-4.6,2.06-4.6,4.6s2.06,4.6,4.6,4.6C657.89,364.6,659.95,362.54,659.95,360z"/>
<path id="Vivante_Blend" class="st3" d="M345.12,233.55h-7.79l-0.48,1.3l-6.4,17.2l-6.62-18.51h-20.3l-6.89,18.51l-6.62-18.51h-8.02
	l11.49,29.63h6.23l10.28-26.27v26.27h7.39v-25.57l9.91,25.57h6.23L345.12,233.55z M422.29,256.16v-4.72h14.18v-7h-14.18v-3.86h15.14
	v-7.03h-53.41v15.54l-10.41-15.54h-6.53v24.02l-9.82-24.02h-6.38l-11.37,29.63h7.9l2.83-7.76h7.94l2.98,7.76h13.16v-15.55
	l10.38,15.55h6.56v-22.61h8.21v22.61h7.39v-22.61h8.04v22.61h23.12v-7.03H422.29z M352.69,248.66l1.45-3.88l1.47,3.88H352.69z"/>
<path id="Vivante" class="st4" d="M294.85,261.18l-9.94-25.63h3.69l6.67,18.63c0.54,1.5,0.98,2.9,1.34,4.2
	c0.39-1.4,0.85-2.8,1.37-4.2l6.93-18.63h3.47l-10.03,25.63H294.85z M311.99,261.18v-25.63h3.39v25.63H311.99z M328.66,261.18
	l-9.94-25.63h3.69l6.67,18.63c0.54,1.5,0.98,2.9,1.34,4.2c0.39-1.4,0.85-2.8,1.37-4.2l6.93-18.63h3.47l-10.03,25.63H328.66z
	 M342.41,261.18l9.84-25.63h3.66l10.47,25.63h-3.86l-2.98-7.76h-10.72l-2.83,7.76H342.41z M349.8,250.66h8.69l-2.69-7.1
	c-0.81-2.15-1.42-3.91-1.81-5.3c-0.33,1.64-0.79,3.27-1.39,4.88L349.8,250.66z M369.07,261.18v-25.63h3.47l13.48,20.12v-20.12h3.25
	v25.63h-3.49l-13.45-20.14v20.14H369.07z M401.46,261.18v-22.61h-8.45v-3.03h20.31v3.03h-8.47v22.61H401.46z M416.89,261.18v-25.63
	h18.53v3.03h-15.14v7.86h14.18v3h-14.18v8.72h15.72v3.03H416.89z"/>
<polygon id="Logo_1_" class="st6" points="346.38,188 334.2,221.68 385.8,195.88 344.95,210.93 "/>
<path id="Logo_Drop_2" class="st5" d="M344.33,197.89l-0.81,12.95c-0.03,0.48,0.19,0.95,0.57,1.24c0.25,0.19,0.55,0.28,0.86,0.28
	c0.17,0,0.33-0.03,0.5-0.09l16.57-6.1l-25.24,12.62L344.33,197.89 M346.38,188l-12.18,33.68l51.6-25.8l-40.85,15.05L346.38,188
	L346.38,188z"/>
<path id="Logo_Drop_1" class="st5" d="M345.36,192.95l-1.12,17.94c-0.02,0.24,0.09,0.47,0.29,0.62c0.13,0.09,0.28,0.14,0.43,0.14
	c0.08,0,0.17-0.01,0.25-0.04l28.71-10.58l-38.42,19.21L345.36,192.95 M346.38,188L346.38,188L346.38,188z M346.38,188l-12.18,33.68
	l51.6-25.8l-40.85,15.05L346.38,188L346.38,188z"/>
<path id="Water_Resistant_Blend" class="st3" d="M330.87,508.41h3.79l1.93-6.09l1.92,6.09h3.79l4.43-14.01h-4.94l-1.46,5.21
	l-1.64-5.21h-4.2l-1.64,5.21l-1.46-5.21h-4.93L330.87,508.41z M342.55,508.41h5.06l1.39-3.35h3.28l1.46,3.35h5.21l-6.53-14.01h-3.73
	L342.55,508.41z M394.05,512.86v5.73l-4.34-5.73h-3.94v8.72l-4.06-8.72h-3.73l-6.14,14.01h5.06l1.39-3.35h3.28l1.46,3.35h7.33v-5.73
	l4.34,5.73h3.95v-9.7h2.92v9.7h4.67v-9.7h4.16v-4.31H394.05z M391.02,503.33c-0.17-0.41-0.37-0.77-0.58-1.08
	c0.12-0.1,0.23-0.2,0.34-0.31c0.78-0.79,1.19-1.81,1.19-2.96c0-0.99-0.29-1.89-0.87-2.68c-0.59-0.81-1.38-1.35-2.33-1.61
	c-0.75-0.2-1.66-0.3-2.77-0.3h-30.53v4.31h4.12v9.7h4.67v-9.7h2.95v9.7h16.38v-4.71h1.58c0.34,0,0.62,0.08,0.86,0.24
	c0.24,0.16,0.4,0.35,0.5,0.6l1.56,3.87h5.07L391.02,503.33z M378.92,504.1h-7.05v-0.73h6.94v-4.31h-6.94v-0.37h7.05V504.1z
	 M387.23,499.21c-0.12,0.05-0.5,0.19-1.43,0.19h-2.21v-0.79h2.47c0.79,0,1.13,0.16,1.18,0.21c0,0,0.02,0.06,0.02,0.17
	C387.25,499.1,387.24,499.17,387.23,499.21z M362.3,512.86v1.44c-0.2-0.19-0.41-0.36-0.65-0.52c-1.12-0.74-2.55-1.11-4.26-1.11
	c-1.66,0-3.04,0.38-4.11,1.13c-0.85,0.6-1.42,1.36-1.68,2.24v-3.17h-4.67v3.44c-0.29-1.03-0.93-1.89-1.87-2.52
	c-1.12-0.74-2.55-1.11-4.26-1.11c-1.66,0-3.04,0.38-4.11,1.13c-0.57,0.4-1,0.87-1.31,1.4v-2.33H323.3v2.84
	c-0.14-0.32-0.3-0.64-0.51-0.93c-0.59-0.81-1.38-1.35-2.33-1.61c-0.75-0.2-1.66-0.3-2.77-0.3h-7.07v14.01h4.66v-4.71h1.58
	c0.34,0,0.62,0.08,0.86,0.24c0.24,0.16,0.4,0.35,0.5,0.6l1.56,3.87h15.89v-1.82c0.2,0.23,0.43,0.44,0.68,0.64
	c1.16,0.92,2.77,1.37,4.91,1.37c1.7,0,3.13-0.41,4.25-1.23c0.63-0.46,1.11-1,1.43-1.61v2.64h4.67v-2.75
	c0.32,0.59,0.77,1.12,1.34,1.57c1.16,0.92,2.77,1.37,4.91,1.37c1.7,0,3.13-0.41,4.25-1.23c1.25-0.91,1.91-2.14,1.91-3.57
	c0-1.15-0.41-2.15-1.17-2.87c-0.15-0.15-0.32-0.28-0.49-0.41h1.44l-0.08-1.57c0-0.08-0.02-0.16-0.02-0.24h2.75v9.7h4.67v-9.7h4.16
	v-4.31H362.3z M318.92,517.67c-0.12,0.05-0.5,0.19-1.43,0.19h-2.21v-0.79h2.47c0.79,0,1.12,0.16,1.18,0.21c0,0,0.02,0.06,0.02,0.17
	C318.94,517.56,318.93,517.63,318.92,517.67z M323.3,523.17l-0.58-1.38c-0.17-0.41-0.37-0.77-0.58-1.08c0.12-0.1,0.23-0.2,0.34-0.31
	c0.36-0.36,0.63-0.78,0.83-1.24V523.17z M334.17,522.56h-6.21v-0.73h5.44h0.99l0,0.06c0.01,0.23,0.04,0.45,0.07,0.67H334.17z
	 M333.4,517.53h-5.44v-0.37h5.92h0.96c0,0.02,0,0.04,0,0.05c0,0.11,0.03,0.21,0.03,0.31H333.4z M335.9,520.33h-1v-1.3v-1.19
	c0.15,0.99,0.63,1.84,1.46,2.47c0.01,0.01,0.01,0.01,0.02,0.02H335.9z M340.87,516.98c1.55,0,1.61,0.46,1.63,0.68l0,0.01
	c-0.41-0.1-0.87-0.19-1.36-0.29c-0.6-0.12-1.01-0.22-1.29-0.3C340.07,517.02,340.4,516.98,340.87,516.98z M342.68,522.45
	c-0.33,0.19-0.84,0.3-1.49,0.3c-0.72,0-1.32-0.13-1.78-0.39c-0.23-0.13-0.38-0.29-0.42-0.67l-0.02-0.21
	c0.35,0.09,0.72,0.17,1.12,0.25c1.66,0.31,2.37,0.56,2.66,0.69C342.73,522.41,342.71,522.43,342.68,522.45z M346.93,520.33
	c-0.18-0.34-0.4-0.67-0.69-0.94c-0.15-0.15-0.32-0.28-0.49-0.41h1.18V520.33z M352.49,520.33h-0.88v-1.97
	c0.23,0.77,0.67,1.44,1.35,1.96c0.01,0.01,0.01,0.01,0.02,0.02H352.49z M357.46,516.98c1.55,0,1.61,0.46,1.63,0.68l0,0.01
	c-0.41-0.1-0.87-0.19-1.36-0.29c-0.6-0.12-1.01-0.22-1.29-0.3C356.66,517.02,356.99,516.98,357.46,516.98z M359.27,522.45
	c-0.33,0.19-0.84,0.3-1.49,0.3c-0.72,0-1.32-0.13-1.78-0.39c-0.23-0.13-0.38-0.29-0.42-0.67l-0.02-0.21
	c0.35,0.09,0.72,0.17,1.12,0.25c1.66,0.31,2.37,0.56,2.66,0.69C359.33,522.41,359.3,522.43,359.27,522.45z"/>
<path id="Water_Resistant" class="st4" d="M331.79,507.16l-3.63-11.51h2.28l2.34,8.34l2.63-8.34h2.36l2.63,8.34l2.34-8.34h2.29
	l-3.64,11.51h-1.96l-2.84-8.99l-2.84,8.99H331.79z M353.09,503.81h-4.93l-1.39,3.35h-2.31l5.05-11.51h2.11l5.36,11.51h-2.43
	L353.09,503.81z M350.56,497.94l-1.74,4.22h3.57L350.56,497.94z M367.16,495.65h-10.46v1.81h4.12v9.7H363v-9.7h4.16V495.65z
	 M378.33,505.35h-7.71v-3.23h6.94v-1.81h-6.94v-2.87h7.42v-1.81h-9.58v11.51h9.87V505.35z M386.72,502.9
	c-0.45-0.3-0.96-0.45-1.56-0.45h-2.83v4.71h-2.16v-11.51h5.82c0.99,0,1.81,0.09,2.45,0.26c0.67,0.18,1.23,0.56,1.65,1.14
	c0.42,0.57,0.63,1.23,0.63,1.94c0,0.83-0.28,1.53-0.83,2.08c-0.39,0.4-0.9,0.7-1.5,0.9c0.63,0.37,1.13,0.99,1.49,1.85l1.41,3.34
	h-2.35l-1.25-3.09C387.49,503.59,387.17,503.21,386.72,502.9z M386.05,497.36h-3.72v3.29h3.46c0.98,0,1.7-0.13,2.12-0.39
	c0.39-0.24,0.58-0.65,0.58-1.27C388.5,498.58,388.5,497.36,386.05,497.36z M321.57,522.27l1.41,3.34h-2.35l-1.25-3.09
	c-0.19-0.48-0.51-0.86-0.96-1.16c-0.45-0.3-0.97-0.45-1.56-0.45h-2.83v4.71h-2.16v-11.51h5.82c0.99,0,1.81,0.09,2.45,0.26
	c0.67,0.18,1.23,0.56,1.65,1.14c0.42,0.57,0.63,1.23,0.63,1.94c0,0.83-0.28,1.53-0.83,2.08c-0.4,0.4-0.9,0.7-1.51,0.9
	C320.7,520.79,321.2,521.41,321.57,522.27z M317.75,515.82h-3.72v3.29h3.46c0.98,0,1.7-0.13,2.12-0.39
	c0.39-0.24,0.58-0.65,0.58-1.27C320.19,517.04,320.19,515.82,317.75,515.82z M326.71,520.59h6.94v-1.81h-6.94v-2.87h7.42v-1.81
	h-9.58v11.51h9.87v-1.81h-7.71V520.59z M343.6,519.26c-0.67-0.21-1.57-0.43-2.69-0.64c-1.09-0.21-1.83-0.43-2.21-0.64
	c-0.33-0.19-0.49-0.45-0.49-0.82c0-0.42,0.21-0.74,0.64-1c0.47-0.28,1.15-0.42,2.02-0.42c1.78,0,2.72,0.58,2.87,1.78l0.03,0.22h2.1
	l-0.01-0.26c-0.05-1.13-0.56-2.02-1.49-2.64c-0.91-0.6-2.11-0.91-3.57-0.91c-1.39,0-2.53,0.3-3.39,0.9
	c-0.88,0.62-1.33,1.43-1.33,2.4c0,0.87,0.35,1.58,1.04,2.1c0.66,0.5,1.71,0.88,3.2,1.16c1.41,0.26,2.41,0.53,2.98,0.8
	c0.5,0.24,0.74,0.58,0.74,1.09c0,0.49-0.24,0.86-0.73,1.15c-0.53,0.31-1.24,0.47-2.12,0.47c-0.94,0-1.74-0.19-2.39-0.56
	c-0.63-0.35-0.97-0.89-1.04-1.63l-0.02-0.22h-2.09l0.01,0.26c0.05,1.16,0.55,2.13,1.48,2.87c0.92,0.73,2.31,1.1,4.13,1.1
	c1.43,0,2.61-0.33,3.51-0.99c0.92-0.67,1.39-1.53,1.39-2.56c0-0.81-0.26-1.48-0.78-1.97C344.89,519.83,344.29,519.48,343.6,519.26z
	 M348.18,525.62h2.17v-11.51h-2.17V525.62z M360.19,519.26c-0.67-0.21-1.57-0.43-2.69-0.64c-1.09-0.21-1.83-0.43-2.21-0.64
	c-0.33-0.19-0.49-0.45-0.49-0.82c0-0.42,0.21-0.74,0.64-1c0.47-0.28,1.15-0.42,2.02-0.42c1.78,0,2.72,0.58,2.87,1.78l0.03,0.22h2.1
	l-0.01-0.26c-0.06-1.13-0.56-2.02-1.49-2.64c-0.91-0.6-2.11-0.91-3.57-0.91c-1.39,0-2.53,0.3-3.39,0.9
	c-0.88,0.62-1.33,1.43-1.33,2.4c0,0.87,0.35,1.58,1.04,2.1c0.66,0.5,1.71,0.88,3.2,1.16c1.41,0.26,2.41,0.53,2.98,0.8
	c0.5,0.24,0.74,0.58,0.74,1.09c0,0.49-0.24,0.86-0.73,1.15c-0.53,0.31-1.24,0.47-2.12,0.47c-0.94,0-1.74-0.19-2.39-0.56
	c-0.63-0.35-0.97-0.89-1.04-1.63l-0.02-0.22h-2.09l0.01,0.26c0.05,1.16,0.55,2.13,1.48,2.87c0.92,0.73,2.31,1.1,4.13,1.1
	c1.43,0,2.61-0.33,3.51-0.99c0.92-0.67,1.39-1.53,1.39-2.56c0-0.81-0.26-1.47-0.78-1.97C361.48,519.83,360.88,519.48,360.19,519.26z
	 M374.01,514.11h-10.46v1.81h4.13v9.7h2.17v-9.7h4.16V514.11z M380.91,514.11l5.36,11.51h-2.43l-1.46-3.35h-4.93l-1.39,3.35h-2.31
	l5.05-11.51H380.91z M379.84,516.4l-1.74,4.22h3.57L379.84,516.4z M395.3,522.3l-6.21-8.2h-2.07v11.51h2.08v-8.2l6.21,8.2h2.08
	v-11.51h-2.09V522.3z M398.68,514.11v1.81h4.13v9.7h2.17v-9.7h4.16v-1.81H398.68z"/>
<g id="Rim_1" class="st7">
	<path d="M360,60c40.5,0,79.79,7.93,116.77,23.57c35.72,15.11,67.81,36.74,95.36,64.29s49.19,59.64,64.29,95.36
		C652.07,280.21,660,319.5,660,360s-7.93,79.79-23.57,116.77c-15.11,35.72-36.74,67.81-64.29,95.36s-59.64,49.19-95.36,64.29
		C439.79,652.07,400.5,660,360,660s-79.79-7.93-116.77-23.57c-35.72-15.11-67.81-36.74-95.36-64.29s-49.19-59.64-64.29-95.36
		C67.93,439.79,60,400.5,60,360s7.93-79.79,23.57-116.77c15.11-35.72,36.74-67.81,64.29-95.36s59.64-49.19,95.36-64.29
		C280.21,67.93,319.5,60,360,60 M360,54C191,54,54,191,54,360s137,306,306,306s306-137,306-306S529,54,360,54L360,54z"/>
</g>
<g id="Rim_2" class="st7">
	<path d="M360,66c39.7,0,78.2,7.77,114.43,23.1c35.01,14.81,66.45,36.01,93.46,63.01s48.2,58.45,63.01,93.46
		C646.23,281.8,654,320.3,654,360s-7.77,78.2-23.1,114.43c-14.81,35.01-36.01,66.45-63.01,93.46s-58.45,48.2-93.46,63.01
		C438.2,646.23,399.7,654,360,654s-78.2-7.77-114.43-23.1c-35.01-14.81-66.45-36.01-93.46-63.01s-48.2-58.45-63.01-93.46
		C73.77,438.2,66,399.7,66,360s7.77-78.2,23.1-114.43c14.81-35.01,36.01-66.45,63.01-93.46s58.45-48.2,93.46-63.01
		C281.8,73.77,320.3,66,360,66 M360,54C191,54,54,191,54,360s137,306,306,306s306-137,306-306S529,54,360,54L360,54z"/>
</g>
<g id="Rim_3" class="st7">
	<path d="M360,72c38.89,0,76.6,7.61,112.1,22.63c34.29,14.5,65.09,35.27,91.55,61.73c26.46,26.46,47.22,57.26,61.73,91.55
		C640.39,283.4,648,321.11,648,360s-7.61,76.6-22.63,112.1c-14.5,34.29-35.27,65.09-61.73,91.55
		c-26.46,26.46-57.26,47.22-91.55,61.73C436.6,640.39,398.89,648,360,648s-76.6-7.61-112.1-22.63
		c-34.29-14.5-65.09-35.27-91.55-61.73c-26.46-26.46-47.22-57.26-61.73-91.55C79.61,436.6,72,398.89,72,360s7.61-76.6,22.63-112.1
		c14.5-34.29,35.27-65.09,61.73-91.55s57.26-47.22,91.55-61.73C283.4,79.61,321.11,72,360,72 M360,54C191,54,54,191,54,360
		s137,306,306,306s306-137,306-306S529,54,360,54L360,54z"/>
</g>
</svg>
