<?xml version="1.0" encoding="utf-8"?>
<!-- Generator: Adobe Illustrator 19.2.1, SVG Export Plug-In . SVG Version: 6.00 Build 0)  -->
<svg version="1.1" id="Hour_Hand" xmlns="http://www.w3.org/2000/svg" xmlns:xlink="http://www.w3.org/1999/xlink" x="0px" y="0px"
	 viewBox="0 0 720 720" style="enable-background:new 0 0 720 720;" xml:space="preserve">
<style type="text/css">
	.st0{opacity:0.13;}
	.st1{fill:#F1CFA2;}
	.st2{opacity:0.5;fill:#FFFFFF;}
	.st3{fill:#E4C498;}
	.st4{fill:#F4D6B1;}
</style>
<path id="Outer_2_" class="st0" d="M360,169.59c-0.63,0-1.25,0.1-1.85,0.29l-6.44,2.08c-2.22,0.72-3.71,2.67-3.71,4.85v166.76
	c0,1.26-0.46,2.44-1.25,3.24c-3.52,3.53-5.46,8.22-5.46,13.2s1.94,9.67,5.46,13.2c0.79,0.8,1.25,1.98,1.25,3.24v35.9
	c0,2.14,1.55,3.97,3.77,4.46l7.09,1.57c0.37,0.08,0.76,0.12,1.14,0.12s0.77-0.04,1.14-0.12l7.09-1.57c2.22-0.49,3.77-2.33,3.77-4.46
	v-35.9c0-1.26,0.46-2.44,1.25-3.24c3.52-3.53,5.46-8.22,5.46-13.2s-1.94-9.67-5.46-13.2c-0.79-0.8-1.25-1.98-1.25-3.24V176.81
	c0-2.18-1.49-4.13-3.71-4.85l-6.44-2.08C361.25,169.69,360.63,169.59,360,169.59L360,169.59z M358.5,192.81h3v103.86h-3V192.81
	L358.5,192.81z M360,364.34c-2.4,0-4.34-1.95-4.34-4.34c0-2.4,1.95-4.34,4.34-4.34s4.34,1.95,4.34,4.34
	C364.34,362.4,362.4,364.34,360,364.34L360,364.34z"/>
<path id="Inner_2_" class="st0" d="M360,171.09c-0.47,0-0.94,0.07-1.39,0.22l-6.44,2.08c-1.6,0.52-2.68,1.89-2.68,3.42v166.76
	c0,1.66-0.61,3.22-1.69,4.3c-3.24,3.25-5.02,7.56-5.02,12.14s1.78,8.89,5.02,12.14c1.07,1.07,1.69,2.64,1.69,4.3v35.9
	c0,1.43,1.07,2.66,2.59,3l7.09,1.57c0.27,0.06,0.54,0.09,0.81,0.09c0.27,0,0.55-0.03,0.81-0.09l7.09-1.57
	c1.53-0.34,2.59-1.57,2.59-3v-35.9c0-1.66,0.61-3.22,1.69-4.3c3.24-3.25,5.02-7.56,5.02-12.14s-1.78-8.89-5.02-12.14
	c-1.07-1.07-1.69-2.64-1.69-4.3V176.81c0-1.53-1.08-2.9-2.68-3.42l-6.44-2.08C360.94,171.16,360.47,171.09,360,171.09L360,171.09z
	 M357,191.37c0.05-0.03,0.14-0.07,0.27-0.07h5.46c0.13,0,0.22,0.04,0.27,0.07V298.1c-0.05,0.03-0.14,0.07-0.27,0.07h-5.46
	c-0.13,0-0.22-0.04-0.27-0.07V191.37L357,191.37z M360,365.84c-3.22,0-5.84-2.62-5.84-5.84c0-3.22,2.62-5.84,5.84-5.84
	s5.84,2.62,5.84,5.84C365.84,363.22,363.22,365.84,360,365.84L360,365.84z"/>
<path id="Hand_6_" class="st1" d="M371.12,348.92c-1.41-1.41-2.12-3.37-2.12-5.36V176.81c0-0.88-0.65-1.67-1.64-1.99l-6.44-2.08
	c-0.6-0.19-1.25-0.19-1.85,0l-6.44,2.08c-0.99,0.32-1.64,1.11-1.64,1.99v166.76c0,1.99-0.72,3.95-2.12,5.36
	c-2.83,2.84-4.59,6.75-4.59,11.08c0,4.33,1.75,8.24,4.59,11.08c1.41,1.41,2.12,3.37,2.12,5.36v35.9c0,0.72,0.58,1.35,1.42,1.54
	l7.09,1.57c0.32,0.07,0.66,0.07,0.98,0l7.09-1.57c0.84-0.19,1.42-0.82,1.42-1.54v-35.9c0-1.99,0.72-3.95,2.12-5.36
	c2.83-2.84,4.59-6.75,4.59-11.08C375.71,355.67,373.96,351.76,371.12,348.92z M355.5,191.27c0-0.81,0.79-1.46,1.77-1.46h5.46
	c0.98,0,1.77,0.65,1.77,1.46v106.94c0,0.81-0.79,1.46-1.77,1.46h-5.46c-0.98,0-1.77-0.65-1.77-1.46V191.27z M360,367.34
	c-4.06,0-7.34-3.29-7.34-7.34s3.29-7.34,7.34-7.34s7.34,3.29,7.34,7.34S364.06,367.34,360,367.34z"/>
<path id="Highlight_1_" class="st2" d="M360,174.09c0.16,0,0.31,0.02,0.47,0.07l6.44,2.08c0.39,0.13,0.6,0.38,0.6,0.56v166.76
	c0,2.45,0.93,4.79,2.56,6.42c2.67,2.68,4.15,6.24,4.15,10.02c0,3.78-1.47,7.34-4.15,10.02c-1.63,1.63-2.56,3.97-2.56,6.42v35.86
	c-0.03,0.03-0.1,0.09-0.24,0.12l-7.09,1.57c-0.05,0.01-0.11,0.02-0.17,0.02s-0.11-0.01-0.17-0.02l-7.09-1.57
	c-0.14-0.03-0.21-0.09-0.24-0.12v-35.86c0-2.45-0.93-4.79-2.56-6.42c-2.67-2.68-4.15-6.24-4.15-10.02c0-3.78,1.47-7.34,4.15-10.02
	c1.63-1.63,2.56-3.97,2.56-6.42V176.81c0-0.18,0.21-0.44,0.6-0.56l6.44-2.08C359.69,174.11,359.84,174.09,360,174.09 M357.27,301.17
	h5.46c1.8,0,3.27-1.33,3.27-2.96V191.27c0-1.63-1.47-2.96-3.27-2.96h-5.46c-1.8,0-3.27,1.33-3.27,2.96v106.94
	C354,299.84,355.47,301.17,357.27,301.17 M360,368.84c4.88,0,8.84-3.97,8.84-8.84c0-4.88-3.97-8.84-8.84-8.84s-8.84,3.97-8.84,8.84
	C351.16,364.88,355.12,368.84,360,368.84 M360,172.59c-0.31,0-0.63,0.05-0.93,0.15l-6.44,2.08c-0.99,0.32-1.64,1.11-1.64,1.99
	v166.76c0,1.99-0.72,3.95-2.12,5.36c-2.83,2.84-4.59,6.75-4.59,11.08c0,4.33,1.75,8.24,4.59,11.08c1.41,1.41,2.12,3.37,2.12,5.36
	v35.9c0,0.72,0.58,1.35,1.42,1.54l7.09,1.57c0.16,0.04,0.33,0.05,0.49,0.05s0.33-0.02,0.49-0.05l7.09-1.57
	c0.84-0.19,1.42-0.82,1.42-1.54v-35.9c0-1.99,0.72-3.95,2.12-5.36c2.83-2.84,4.59-6.75,4.59-11.08c0-4.33-1.75-8.24-4.59-11.08
	c-1.41-1.41-2.12-3.37-2.12-5.36V176.81c0-0.88-0.65-1.67-1.64-1.99l-6.44-2.08C360.63,172.64,360.31,172.59,360,172.59L360,172.59z
	 M357.27,299.67c-0.98,0-1.77-0.65-1.77-1.46V191.27c0-0.81,0.79-1.46,1.77-1.46h5.46c0.98,0,1.77,0.65,1.77,1.46v106.94
	c0,0.81-0.79,1.46-1.77,1.46H357.27L357.27,299.67z M360,367.34c-4.06,0-7.34-3.29-7.34-7.34s3.29-7.34,7.34-7.34
	s7.34,3.29,7.34,7.34S364.06,367.34,360,367.34L360,367.34z"/>
<g id="Bot_Inset">
	<path class="st3" d="M360,412.67c-0.83,0-1.5-0.67-1.5-1.5V378c0-0.83,0.67-1.5,1.5-1.5s1.5,0.67,1.5,1.5v33.17
		C361.5,411.99,360.83,412.67,360,412.67z"/>
	<path class="st4" d="M360,377c0.55,0,1,0.45,1,1v33.17c0,0.55-0.45,1-1,1s-1-0.45-1-1V378C359,377.45,359.45,377,360,377 M360,376
		c-1.1,0-2,0.9-2,2v33.17c0,1.1,0.9,2,2,2s2-0.9,2-2V378C362,376.9,361.1,376,360,376L360,376z"/>
</g>
<g id="Top_Inset">
	<path class="st3" d="M360,342.5c-0.83,0-1.5-0.67-1.5-1.5v-37c0-0.83,0.67-1.5,1.5-1.5s1.5,0.67,1.5,1.5v37
		C361.5,341.83,360.83,342.5,360,342.5z"/>
	<path class="st4" d="M360,303c0.55,0,1,0.45,1,1v37c0,0.55-0.45,1-1,1s-1-0.45-1-1v-37C359,303.45,359.45,303,360,303 M360,302
		c-1.1,0-2,0.9-2,2v37c0,1.1,0.9,2,2,2s2-0.9,2-2v-37C362,302.9,361.1,302,360,302L360,302z"/>
</g>
</svg>
