<?xml version="1.0" encoding="utf-8"?>
<!-- Generator: Adobe Illustrator 19.2.1, SVG Export Plug-In . SVG Version: 6.00 Build 0)  -->
<svg version="1.1" id="Minute_Hand_1_" xmlns="http://www.w3.org/2000/svg" xmlns:xlink="http://www.w3.org/1999/xlink" x="0px"
	 y="0px" viewBox="0 0 720 720" style="enable-background:new 0 0 720 720;" xml:space="preserve">
<style type="text/css">
	.st0{opacity:0.13;}
	.st1{fill:#F1CFA2;}
	.st2{opacity:0.5;fill:#FFFFFF;}
	.st3{fill:#E4C498;}
	.st4{fill:#F4D6B1;}
</style>
<path id="Outer" class="st0" d="M352.45,97.98c-1.63,0.9-2.65,2.63-2.65,4.49v246.13c0,0.63-0.2,1.2-0.57,1.6
	c-2.47,2.74-3.83,6.28-3.83,9.97c0,3.69,1.36,7.23,3.83,9.97c0.37,0.4,0.57,0.97,0.57,1.6l0,40.77c0,2.08,1.4,3.9,3.41,4.44
	l5.91,1.57c0.77,0.2,1.59,0.2,2.36,0l5.91-1.57c0.36-0.1,0.72-0.24,1.05-0.42c1.46-0.81,2.36-2.35,2.36-4.01l0-40.77
	c0-0.63,0.2-1.2,0.57-1.6c2.47-2.74,3.83-6.28,3.83-9.97c0-3.69-1.36-7.23-3.83-9.97c-0.37-0.4-0.57-0.97-0.57-1.6l0-246.13
	c0-2.1-1.32-4.03-3.28-4.79l-5.36-2.08c-1.2-0.46-2.51-0.46-3.71,0l-5.36,2.08C352.87,97.77,352.65,97.87,352.45,97.98L352.45,97.98
	z M359.56,296.85V118.48l1.5,0v178.37L359.56,296.85L359.56,296.85z M362.41,363.98c-0.65,0.36-1.35,0.54-2.1,0.54
	c-1.16,0-2.25-0.45-3.07-1.27s-1.27-1.91-1.27-3.07c0-1.58,0.86-3.04,2.24-3.8c0.65-0.36,1.35-0.54,2.1-0.54
	c1.16,0,2.25,0.45,3.07,1.27c0.82,0.82,1.27,1.91,1.27,3.07C364.65,361.76,363.79,363.22,362.41,363.98L362.41,363.98z"/>
<path id="Inner" class="st0" d="M353.18,99.3c-1.15,0.64-1.87,1.86-1.87,3.18l0,246.13c0,1-0.34,1.93-0.95,2.61
	c-2.22,2.46-3.45,5.65-3.45,8.96c0,3.32,1.22,6.5,3.44,8.96c0.61,0.68,0.95,1.61,0.95,2.61l0,40.77c0,1.4,0.94,2.63,2.3,2.99
	l5.91,1.57c0.52,0.14,1.07,0.14,1.59,0l5.91-1.57c0.25-0.07,0.48-0.16,0.7-0.28c0.98-0.54,1.59-1.58,1.59-2.7l0-40.77
	c0-1,0.34-1.93,0.95-2.61c2.22-2.46,3.45-5.65,3.45-8.96c0-3.32-1.22-6.5-3.45-8.96c-0.61-0.68-0.95-1.61-0.95-2.61V102.48
	c0-1.49-0.93-2.85-2.32-3.39l-5.36-2.08c-0.85-0.33-1.78-0.33-2.63,0l-5.36,2.08C353.47,99.15,353.32,99.22,353.18,99.3L353.18,99.3
	z M362.56,298.35h-4.52l0.02-181.41l4.52,0.04L362.56,298.35L362.56,298.35z M363.13,365.3c-0.86,0.48-1.84,0.73-2.83,0.73
	c-1.56,0-3.03-0.61-4.13-1.71c-1.1-1.1-1.71-2.57-1.71-4.13c0-2.12,1.16-4.08,3.02-5.12c0.86-0.48,1.84-0.73,2.83-0.73
	c3.22,0,5.84,2.62,5.84,5.84C366.15,362.3,364.99,364.26,363.13,365.3L363.13,365.3z"/>
<path id="Hand_7_" class="st1" d="M369.14,352.22c-0.89-0.98-1.34-2.29-1.34-3.61V102.48c0-0.88-0.54-1.67-1.36-1.99l-5.36-2.08
	c-0.5-0.19-1.05-0.19-1.54,0l-5.36,2.08c-0.82,0.32-1.36,1.11-1.36,1.99v246.13c0,1.33-0.45,2.63-1.34,3.61
	c-1.9,2.11-3.06,4.9-3.06,7.96s1.16,5.85,3.06,7.96c0.89,0.98,1.34,2.29,1.34,3.61v40.77c0,0.72,0.48,1.35,1.18,1.54l5.91,1.57
	c0.27,0.07,0.55,0.07,0.82,0l5.91-1.57c0.7-0.19,1.18-0.82,1.18-1.54v-40.77c0-1.33,0.45-2.63,1.34-3.61
	c1.9-2.11,3.06-4.9,3.06-7.96S371.04,354.33,369.14,352.22z M356.56,116.94c0-0.81,0.66-1.46,1.48-1.46h4.55
	c0.82,0,1.48,0.65,1.48,1.46v181.45c0,0.81-0.66,1.46-1.48,1.46h-4.55c-0.82,0-1.48-0.65-1.48-1.46V116.94z M360.31,367.52
	c-4.06,0-7.34-3.29-7.34-7.34s3.29-7.34,7.34-7.34s7.34,3.29,7.34,7.34S364.36,367.52,360.31,367.52z"/>
<path id="Highlight" class="st2" d="M354.39,101.48c0.04-0.02,0.09-0.05,0.14-0.07l5.36-2.08c0.26-0.1,0.56-0.1,0.82,0l5.36,2.08
	c0.43,0.17,0.73,0.59,0.72,1.06l0,246.13c0,1.62,0.57,3.14,1.6,4.28c1.81,2,2.8,4.59,2.8,7.29c0,2.7-0.99,5.29-2.8,7.29
	c-1.03,1.14-1.6,2.66-1.6,4.28l0,40.77c0,0.21-0.12,0.41-0.3,0.52c-0.04,0.02-0.09,0.04-0.13,0.05l-5.91,1.57
	c-0.1,0.03-0.2,0.03-0.3,0l-5.91-1.57c-0.26-0.07-0.44-0.3-0.44-0.57l0-40.77c0-1.62-0.57-3.14-1.6-4.28c-1.81-2-2.8-4.59-2.8-7.29
	c0-2.7,1-5.29,2.8-7.29c1.03-1.14,1.6-2.66,1.6-4.28l0-246.13C353.8,102.06,354.03,101.68,354.39,101.48 M363.78,300.54
	c0.78-0.43,1.27-1.26,1.27-2.15l0-181.45c0-0.66-0.26-1.28-0.73-1.74c-0.47-0.46-1.09-0.72-1.75-0.72l-4.55,0
	c-0.42,0-0.84,0.11-1.21,0.31c-0.78,0.43-1.27,1.26-1.27,2.15v181.45c0,0.66,0.26,1.28,0.73,1.74c0.47,0.46,1.09,0.72,1.75,0.72
	l4.55,0C363,300.85,363.42,300.74,363.78,300.54 M364.35,367.48c2.65-1.47,4.3-4.27,4.3-7.3c0-4.6-3.74-8.34-8.34-8.34
	c-1.41,0-2.81,0.36-4.04,1.04c-2.65,1.47-4.3,4.27-4.3,7.3c0,2.23,0.87,4.32,2.44,5.9c1.58,1.58,3.67,2.44,5.9,2.44
	C361.72,368.52,363.12,368.16,364.35,367.48 M353.9,100.61c-0.67,0.37-1.1,1.08-1.1,1.87l0,246.13c0,1.33-0.45,2.63-1.34,3.61
	c-1.9,2.11-3.06,4.9-3.06,7.96c0,3.06,1.16,5.85,3.06,7.96c0.89,0.98,1.34,2.29,1.34,3.61l0,40.77c0,0.72,0.48,1.35,1.18,1.54
	l5.91,1.57c0.27,0.07,0.55,0.07,0.82,0l5.91-1.57c0.13-0.03,0.25-0.08,0.36-0.15c0.5-0.28,0.82-0.8,0.82-1.39l0-40.77
	c0-1.33,0.45-2.63,1.34-3.61c1.9-2.11,3.06-4.9,3.06-7.96c0-3.06-1.16-5.85-3.06-7.96c-0.89-0.98-1.34-2.29-1.34-3.61V102.48
	c0-0.88-0.54-1.67-1.36-1.99l-5.36-2.08c-0.5-0.19-1.05-0.19-1.54,0l-5.36,2.08C354.08,100.52,353.99,100.56,353.9,100.61
	L353.9,100.61z M363.3,299.66c-0.21,0.12-0.46,0.19-0.72,0.19l-4.55,0c-0.82,0-1.48-0.65-1.48-1.46V116.94
	c0-0.55,0.3-1.02,0.76-1.27c0.21-0.12,0.46-0.19,0.72-0.19l4.55,0c0.82,0,1.48,0.65,1.48,1.46v181.45
	C364.05,298.93,363.75,299.41,363.3,299.66L363.3,299.66z M363.86,366.61c-1.05,0.58-2.27,0.92-3.56,0.92
	c-4.06,0-7.34-3.29-7.34-7.34c0-2.77,1.53-5.18,3.79-6.43c1.05-0.58,2.27-0.92,3.56-0.92c4.06,0,7.34,3.29,7.34,7.34
	C367.65,362.95,366.12,365.35,363.86,366.61L363.86,366.61z"/>
<g id="Bot_Inset_1_">
	<path class="st3" d="M360.31,412.85c-0.83,0-1.5-0.67-1.5-1.5v-33.17c0-0.83,0.67-1.5,1.5-1.5c0.83,0,1.5,0.67,1.5,1.5v33.17
		C361.8,412.17,361.13,412.85,360.31,412.85z"/>
	<path class="st4" d="M360.31,377.18c0.55,0,1,0.45,1,1v33.17c0,0.55-0.45,1-1,1s-1-0.45-1-1v-33.17
		C359.31,377.63,359.75,377.18,360.31,377.18 M360.31,376.18c-1.1,0-2,0.9-2,2v33.17c0,1.1,0.9,2,2,2s2-0.9,2-2v-33.17
		C362.31,377.08,361.41,376.18,360.31,376.18L360.31,376.18z"/>
</g>
<g id="Top_Inset_1_">
	<path class="st3" d="M360.31,342.68c-0.83,0-1.5-0.67-1.5-1.5v-37c0-0.83,0.67-1.5,1.5-1.5c0.83,0,1.5,0.67,1.5,1.5v37
		C361.8,342.01,361.13,342.68,360.31,342.68z"/>
	<path class="st4" d="M360.31,303.18c0.55,0,1,0.45,1,1v37c0,0.55-0.45,1-1,1s-1-0.45-1-1v-37
		C359.31,303.63,359.75,303.18,360.31,303.18 M360.31,302.18c-1.1,0-2,0.9-2,2v37c0,1.1,0.9,2,2,2s2-0.9,2-2v-37
		C362.31,303.08,361.41,302.18,360.31,302.18L360.31,302.18z"/>
</g>
</svg>
