<?xml version="1.0" encoding="utf-8"?>
<!-- Generator: Adobe Illustrator 19.2.1, SVG Export Plug-In . SVG Version: 6.00 Build 0)  -->
<svg version="1.1" id="Second_Hand_1_" xmlns="http://www.w3.org/2000/svg" xmlns:xlink="http://www.w3.org/1999/xlink" x="0px"
	 y="0px" viewBox="0 0 720 720" style="enable-background:new 0 0 720 720;" xml:space="preserve">
<style type="text/css">
	.st0{opacity:0.13;}
	.st1{fill:#F1CFA2;}
</style>
<path id="Outer_1_" class="st0" d="M363,95.93l-2,0l-2,0l-2,0l0,2l0,251.3c-4.77,1.32-8.18,5.67-8.18,10.77
	c0,1.76,0.42,3.51,1.21,5.07c1.44,2.83,3.97,4.87,6.97,5.7l0,77.85v2l2,0l2,0l2,0l0-2l0-77.85c4.77-1.32,8.18-5.67,8.18-10.77
	c0-1.76-0.42-3.51-1.21-5.07c-1.44-2.83-3.97-4.87-6.97-5.7l0-251.3V95.93L363,95.93z M355.23,362.42
	c-0.38-0.75-0.58-1.57-0.58-2.42c0-1.43,0.56-2.77,1.57-3.78c1.01-1.01,2.35-1.57,3.78-1.57c2.02,0,3.85,1.12,4.77,2.92
	c0.38,0.75,0.58,1.57,0.58,2.42c0,1.43-0.56,2.77-1.57,3.78c-1.01,1.01-2.35,1.57-3.78,1.57
	C357.98,365.34,356.15,364.22,355.23,362.42L355.23,362.42z"/>
<path id="Hand_5_" class="st1" d="M361,350.88V97.93h-2v252.95c-4.6,0.5-8.18,4.39-8.18,9.12c0,4.73,3.58,8.62,8.18,9.12v79.5h2
	v-79.5c4.6-0.5,8.18-4.39,8.18-9.12C369.18,355.27,365.6,351.38,361,350.88z M360,367.34c-4.06,0-7.34-3.29-7.34-7.34
	s3.29-7.34,7.34-7.34s7.34,3.29,7.34,7.34S364.06,367.34,360,367.34z"/>
</svg>
