<?xml version="1.0" encoding="utf-8"?>
<svg version="1.1" id="Face" xmlns="http://www.w3.org/2000/svg" xmlns:xlink="http://www.w3.org/1999/xlink" x="0px" y="0px"
	 viewBox="0 0 620 620" style="enable-background:new 0 0 620 620;" xml:space="preserve">
<style type="text/css">
	.st0{fill:#E0CBBB;}
	.st2{opacity:0.25;fill:#FFFFFF;}
	.st3{fill:#B89D80;}
	.st4{fill:#CCB49C;}
</style>
<circle id="Background_1_" class="st0" cx="310" cy="310" r="310"/>
<path id="Strokes" class="st2" d="M186.42,462.81c-1,0-2.42,0.6-3.18,1.92c-0.92,1.59-0.56,3.79,0.72,4.53l3.77,2.18l-28.6,49.53
	l-3.77-2.18c-0.32-0.19-0.69-0.28-1.11-0.28c-1,0-2.42,0.6-3.18,1.92c-0.41,0.71-0.58,1.58-0.48,2.43c0.12,0.96,0.55,1.73,1.2,2.1
	l31.37,18.09c0.34,0.2,0.76,0.3,1.24,0.3c1.13,0,2.59-0.55,3.3-1.79c0.44-0.77,0.56-1.72,0.32-2.69c-0.11-0.43-0.44-1.49-1.29-1.98
	L185.2,536l18.46-26.57l-9.13,31.96l-2.34-1.35c-0.33-0.19-0.73-0.29-1.18-0.29c-1.1,0-2.53,0.57-3.26,1.84
	c-0.43,0.75-0.57,1.67-0.38,2.6c0.09,0.44,0.39,1.52,1.26,2.02l14.05,8.11c0.34,0.2,0.76,0.3,1.24,0.3c1.13,0,2.58-0.55,3.3-1.79
	c0.44-0.77,0.56-1.72,0.32-2.69c-0.11-0.43-0.44-1.49-1.29-1.98l-2.52-1.46l18.34-60.42c0.53-1.71-1.13-3.91-2.55-4.73
	c-0.84-0.48-1.81-0.58-2.48-0.58c-0.25,0-0.71,0.02-1.22,0.11c-0.07-1.01-0.5-1.94-1.24-2.36l-27.06-15.62
	C187.2,462.9,186.83,462.81,186.42,462.81L186.42,462.81z M168.53,526.39l28.6-49.53l0.75,0.44l-28.6,49.53L168.53,526.39
	L168.53,526.39z M178.7,532.25l28.59-49.52l3.73,2.15c0.26,0.15,0.56,0.24,0.89,0.27l-32.94,47.25L178.7,532.25L178.7,532.25z
	 M122.87,375.32c-0.64,0-1.26,0.16-1.78,0.46c-1.66,0.96-2.24,3.25-1.54,4.45l2.08,3.6l-49.53,28.6l-2.08-3.6
	c-0.54-0.93-1.82-1.35-2.84-1.35c-0.64,0-1.26,0.16-1.78,0.46c-1.66,0.96-2.24,3.25-1.54,4.45l24.07,41.6
	c0.54,0.93,1.9,1.42,2.96,1.42c0.63,0,1.2-0.15,1.71-0.44c0.77-0.44,1.35-1.21,1.62-2.17c0.12-0.43,0.36-1.51-0.13-2.36l-0.88-1.53
	l29.27-13.78l-23.88,23.11l-1.35-2.34c-0.54-0.93-1.81-1.34-2.83-1.34c-0.65,0-1.26,0.16-1.79,0.46c-0.75,0.43-1.33,1.16-1.63,2.06
	c-0.14,0.42-0.42,1.51,0.08,2.38l8.11,14.05c0.54,0.93,1.9,1.42,2.96,1.42c0.63,0,1.2-0.15,1.71-0.44c1.63-0.94,2.19-3.32,1.49-4.53
	l-1.46-2.52l46.09-43.16c1.31-1.21,0.98-3.95,0.16-5.37c-0.89-1.54-3.03-2.49-4.18-2.49l-0.61,0.11c0.5-0.45,0.88-1.06,1.1-1.78
	c0.13-0.43,0.37-1.51-0.13-2.36l-20.62-35.71C125.18,375.74,123.9,375.32,122.87,375.32L122.87,375.32z M77.52,421.84l49.53-28.6
	l0.09,0.15l-49.53,28.6L77.52,421.84L77.52,421.84z M83.04,431.39l49.53-28.6l0.13,0.23l-49.53,28.6L83.04,431.39L83.04,431.39z
	 M88.63,441l49.5-28.58l2.04,3.53c0.53,0.92,1.89,1.41,2.95,1.41c0.2,0,0.39-0.02,0.58-0.05l-54.1,25.36L88.63,441L88.63,441z
	 M432.68,76.6L432.68,76.6c-1.08,0-2.49,0.55-3.2,1.79c-0.94,1.63-0.29,3.86,0.9,4.54l2.38,1.37l-27.31,47.3l-2.38-1.37
	c-0.33-0.19-0.73-0.29-1.18-0.29c-1.08,0-2.49,0.55-3.2,1.79c-0.43,0.74-0.55,1.65-0.36,2.57c0.09,0.43,0.4,1.48,1.25,1.97
	l16.17,9.34c0.33,0.19,0.71,0.28,1.14,0.28c1.01,0,2.43-0.57,3.15-1.83c0.41-0.72,0.56-1.59,0.42-2.47
	c-0.07-0.44-0.34-1.51-1.22-2.02l-2.47-1.43l27.31-47.3l2.47,1.43c0.33,0.19,0.71,0.28,1.14,0.28c1.01,0,2.43-0.57,3.15-1.83
	c0.41-0.72,0.56-1.59,0.42-2.47c-0.07-0.44-0.34-1.51-1.22-2.02l-16.17-9.34C433.53,76.7,433.13,76.6,432.68,76.6L432.68,76.6z
	 M529.79,162.4L529.79,162.4c-0.66,0-1.29,0.16-1.83,0.47c-0.74,0.43-1.32,1.14-1.63,2.01c-0.15,0.42-0.45,1.51,0.06,2.39l2.11,3.65
	l-50.83,29.35l-2.11-3.65c-0.56-0.97-1.84-1.31-2.77-1.31c-0.66,0-1.29,0.16-1.83,0.47c-0.74,0.43-1.32,1.14-1.63,2.01
	c-0.15,0.42-0.45,1.51,0.06,2.39l15.52,26.88c0.55,0.96,1.9,1.39,2.93,1.39c0.63,0,1.23-0.15,1.73-0.45
	c0.76-0.44,1.34-1.2,1.63-2.14c0.13-0.43,0.38-1.51-0.12-2.37l-2.05-3.55l50.83-29.35l2.05,3.55c0.55,0.96,1.9,1.39,2.93,1.39
	c0.63,0,1.23-0.15,1.73-0.45c1.63-0.94,2.2-3.31,1.51-4.51l-15.52-26.88C532,162.74,530.72,162.4,529.79,162.4L529.79,162.4
	L529.79,162.4z M483.1,209.67l50.83-29.35l0.51,0.88l-50.83,29.35L483.1,209.67L483.1,209.67z M572.44,285.45
	c-1.92,0-3.56,1.69-3.56,3.07v4.18h-58.69v-4.18c0-1.38-1.64-3.07-3.56-3.07c-1.92,0-3.56,1.69-3.56,3.07v42.7
	c0,1.31,1.6,3.33,3.56,3.33s3.56-2.01,3.56-3.33v-3.91h58.69v3.91c0,1.31,1.6,3.33,3.56,3.33c1.97,0,3.56-2.01,3.56-3.33v-42.7
	C576,287.14,574.36,285.45,572.44,285.45L572.44,285.45z M510.18,303.55h58.69v1.02h-58.69V303.55L510.18,303.55z M510.18,315.43
	h58.69v1.02h-58.69V315.43L510.18,315.43z M493.73,381.66c-1.03,0-2.31,0.42-2.85,1.35l-27.4,47.46c-0.51,0.87-0.23,1.96-0.08,2.38
	c0.3,0.9,0.88,1.63,1.63,2.06c0.52,0.3,1.14,0.46,1.79,0.46c1.02,0,2.29-0.42,2.83-1.34l2.09-3.61l50.83,29.35l-2.09,3.61
	c-0.69,1.2-0.11,3.48,1.55,4.44c0.53,0.3,1.14,0.46,1.79,0.46c1.02,0,2.29-0.42,2.83-1.34l27.4-47.46c0.5-0.87,0.23-1.95,0.09-2.38
	c-0.3-0.91-0.88-1.64-1.63-2.08c-0.52-0.3-1.13-0.46-1.78-0.46c-1.03,0-2.31,0.42-2.85,1.35l-2.08,3.6l-50.83-29.35l2.08-3.6
	c0.5-0.87,0.23-1.95,0.09-2.38c-0.3-0.91-0.88-1.64-1.63-2.08C494.99,381.82,494.37,381.66,493.73,381.66L493.73,381.66z
	 M489.03,400.46l0.51-0.88l50.83,29.35l-0.51,0.88L489.03,400.46L489.03,400.46z M483.1,410.74l0.51-0.88l50.83,29.35l-0.51,0.88
	L483.1,410.74L483.1,410.74z M477.16,421.02l0.51-0.88l50.83,29.35l-0.51,0.88L477.16,421.02L477.16,421.02z M304.47,45
	c-1.38,0-3.12,1.65-3.12,3.51c0,1.82,1.67,3.44,3.03,3.51l-3.95,11.23l-2.94-11.23h0.69c1.47,0,2.91-1.74,2.91-3.51
	c0-1.77-1.44-3.51-2.91-3.51h-17.48c-1.47,0-2.87,1.7-2.87,3.51c0,1.8,1.39,3.51,2.87,3.51h5.44l7.68,30.04l-9.46,26.92h-2.56
	c-1.37,0-3.1,1.65-3.1,3.51c0,1.86,1.73,3.51,3.1,3.51h11.52c0.99,0,1.96-0.77,2.5-1.8c0.54,1.03,1.52,1.8,2.51,1.8h40.65
	c1.49,0,2.94-1.74,2.94-3.51c0-1.77-1.46-3.51-2.94-3.51h-4.11V52.02h4.07c1.35,0,2.99-1.62,2.99-3.51c0-1.89-1.64-3.51-2.99-3.51
	L304.47,45z M323.13,52.02h1.07v56.96h-1.07V52.02L323.13,52.02z M312.16,52.02h0.31v56.96h-0.31l-8.42-32.89L312.16,52.02
	L312.16,52.02z M292.42,108.97l4.82-13.6l3.57,13.6h-2.48c-0.99,0-1.96,0.77-2.51,1.8c-0.54-1.03-1.52-1.8-2.5-1.8H292.42
	L292.42,108.97z M200.07,67.4L200.07,67.4c-0.47,0-0.89,0.1-1.23,0.3l-21.38,12.35c-0.89,0.51-1.18,1.59-1.27,2.03
	c-0.18,0.91-0.04,1.82,0.39,2.56c0.73,1.27,2.14,1.83,3.22,1.83c0.45,0,0.85-0.1,1.19-0.29l0.41-0.23l2.18,12.86l-9.06-8.89
	l0.66-0.38c1.22-0.71,1.9-2.98,0.94-4.63c-0.72-1.24-2.15-1.8-3.25-1.8c-0.47,0-0.89,0.1-1.23,0.3l-16.17,9.33
	c-1.19,0.69-1.83,2.94-0.87,4.59c0.73,1.27,2.14,1.83,3.22,1.83c0.45,0,0.85-0.1,1.19-0.29l5.12-2.96l22.79,22.64l4.8,28.36
	l-2.92,1.69c-0.89,0.51-1.18,1.59-1.27,2.03c-0.18,0.91-0.04,1.82,0.39,2.56c0.73,1.27,2.14,1.83,3.22,1.83
	c0.45,0,0.85-0.1,1.19-0.29l10.83-6.25c0.88-0.51,1.48-1.84,1.38-3.17c0.69,0.49,1.51,0.71,2.19,0.71c0.45,0,0.85-0.1,1.19-0.29
	l26.97-15.57c1.22-0.71,1.9-2.98,0.94-4.63c-0.72-1.24-2.15-1.8-3.25-1.8c-0.47,0-0.89,0.1-1.23,0.3l-3.89,2.24l-28.98-50.2
	l3.89-2.24c1.22-0.71,1.9-2.98,0.94-4.63C202.61,67.96,201.17,67.4,200.07,67.4L200.07,67.4L200.07,67.4z M188.24,81.99l0.51-0.29
	l28.98,50.2l-0.51,0.29l-24.61-24.43L188.24,81.99L188.24,81.99z M198.75,142.86l-2.48-15.02l10.57,10.35l-2.44,1.41
	c-0.89,0.51-1.18,1.59-1.27,2.03c-0.07,0.37-0.09,0.75-0.06,1.11c-0.69-0.47-1.52-0.69-2.21-0.69c-0.47,0-0.89,0.1-1.23,0.3
	L198.75,142.86L198.75,142.86z M91.54,160.34L91.54,160.34c-1.08,0-2.47,0.5-3.01,1.44l-5.86,10.15c-0.52,0.9-0.2,1.98-0.04,2.4
	c0.32,0.85,0.9,1.55,1.63,1.97c0.55,0.32,1.19,0.48,1.86,0.48c0.91,0,2.17-0.34,2.72-1.29l0.21-0.37l8.41,9.8l-12.15-3.34l0.24-0.42
	c0.49-0.84,0.27-1.93,0.15-2.36c-0.27-0.98-0.84-1.77-1.62-2.21c-0.5-0.29-1.06-0.43-1.68-0.43c-1.08,0-2.47,0.5-3.01,1.44
	l-8.79,15.22c-0.75,1.31,0.03,3.47,1.59,4.37c0.55,0.32,1.19,0.48,1.86,0.48c0.91,0,2.17-0.34,2.72-1.29l2.76-4.79l31.17,8.76
	l18.86,21.98l-1.52,2.63c-0.52,0.9-0.2,1.98-0.04,2.4c0.32,0.85,0.9,1.55,1.63,1.97c0.55,0.32,1.19,0.48,1.86,0.48
	c0.91,0,2.17-0.34,2.72-1.29l5.86-10.15c0.5-0.86,0.38-2.29-0.3-3.39c0.09,0.01,0.18,0.01,0.27,0.01c0.91,0,2.17-0.34,2.72-1.29
	l8.79-15.22c0.49-0.84,0.27-1.93,0.15-2.36c-0.27-0.98-0.84-1.77-1.62-2.21c-0.5-0.29-1.06-0.43-1.68-0.43
	c-1.08,0-2.47,0.5-3.01,1.44l-1.71,2.96l-33.67-9.45l-17.16-19.9l1.85-3.2c0.71-1.23,0.16-3.63-1.47-4.57
	C92.73,160.49,92.16,160.34,91.54,160.34L91.54,160.34z M133.53,215.47l-9.78-11.44l14.15,3.87l-1.3,2.25
	c-0.52,0.9-0.2,1.98-0.04,2.4c0.11,0.3,0.26,0.58,0.43,0.83c-0.02,0-0.05,0-0.07,0c-1.08,0-2.47,0.5-3.01,1.44L133.53,215.47
	L133.53,215.47z M47.56,284.3c-1.83,0-3.56,1.39-3.56,2.86v12.13c0,1.48,1.76,2.94,3.56,2.94c1.8,0,3.56-1.45,3.56-2.94v-0.32
	l11.94,4.2l-11.94,3.12v-0.85c0-1.47-1.73-2.86-3.56-2.86c-1.83,0-3.56,1.39-3.56,2.86l0,27.33c0,1.48,1.76,2.94,3.56,2.94
	c1.8,0,3.56-1.45,3.56-2.94v-4.3h58.69v4.3c0,1.48,1.76,2.94,3.56,2.94c1.8,0,3.56-1.45,3.56-2.94V310.4c0-0.99-0.79-1.95-1.87-2.47
	c1.07-0.54,1.87-1.52,1.87-2.52v-17.99c0-1.47-1.73-2.86-3.56-2.86c-1.83,0-3.56,1.39-3.56,2.86v3.78l-33.88,8.65l-24.81-8.65v-4.05
	C51.12,285.69,49.39,284.3,47.56,284.3L47.56,284.3z M95.62,306.49l14.19-3.72v2.65c0,1,0.8,1.98,1.87,2.52
	c-1.08,0.52-1.87,1.47-1.87,2.47v1.1L95.62,306.49L95.62,306.49z M52.04,317.6l30.2-7.7l21.92,7.7H52.04L52.04,317.6z
	 M406.37,480.14c-1.02,0-2.07,0.27-2.87,0.73c-1.54,0.89-2.49,3.03-2.49,4.18l0,0.37l0.16,0.33l26.1,55.68l-3.06,1.77
	c-1.2,0.69-1.84,2.96-0.88,4.62c0.73,1.27,2.17,1.84,3.26,1.84c0.45,0,0.85-0.1,1.18-0.29l10.82-6.25c1.21-0.7,1.92-3.04,0.97-4.67
	c-0.71-1.24-2.17-1.79-3.3-1.79c-0.48,0-0.89,0.1-1.24,0.3l-1.53,0.88l-13.78-29.27l23.11,23.88l-2.34,1.35
	c-0.87,0.51-1.17,1.58-1.26,2.02c-0.19,0.93-0.05,1.85,0.38,2.6c0.73,1.27,2.17,1.84,3.26,1.84c0.45,0,0.85-0.1,1.18-0.29
	l14.05-8.11c0.85-0.49,1.19-1.55,1.29-1.98c0.24-0.97,0.12-1.92-0.32-2.69c-0.71-1.24-2.17-1.79-3.3-1.79c-0.48,0-0.89,0.1-1.24,0.3
	l-2.52,1.46l-43.16-46.09C408.19,480.3,407.13,480.14,406.37,480.14L406.37,480.14z M312.35,504.02c-1.78,0-3.67,1.38-4.24,2.37
	l-0.2,0.54c-0.3-1.55-1.6-2.91-2.93-2.91h-19.41c-1.48,0-2.94,1.76-2.94,3.56c0,1.8,1.45,3.56,2.94,3.56h4.31v57.2h-4.31
	c-1.48,0-2.94,1.76-2.94,3.56c0,1.8,1.45,3.56,2.94,3.56l26.06,0c1.4,0,3.18-1.68,3.18-3.56c0-1.88-1.78-3.56-3.18-3.56h-1.76
	l2.71-32.24l8.08,32.24h-2.7c-1.38,0-3.07,1.64-3.07,3.56c0,1.92,1.69,3.56,3.07,3.56h16.23c1.4,0,3.18-1.68,3.18-3.56
	c0-1.88-1.78-3.56-3.18-3.56h-2.91l-14.33-61.5C316.53,505.09,313.99,504.02,312.35,504.02L312.35,504.02z M300.72,511.14h4.25
	c1.16,0,2.3-1.04,2.77-2.33l-5.09,59.53h-1.93V511.14L300.72,511.14z M465.31,310c0-85.64-69.67-155.31-155.31-155.31
	c-85.64,0-155.31,69.67-155.31,155.31c0,85.64,69.67,155.31,155.31,155.31C395.64,465.31,465.31,395.64,465.31,310z M162.34,310
	c0-81.42,66.24-147.66,147.66-147.66c81.42,0,147.66,66.24,147.66,147.66c0,81.42-66.24,147.66-147.66,147.66
	C228.58,457.66,162.34,391.42,162.34,310z M323.69,427c0.89-1.97,1.34-4.05,1.34-6.19c0-4.27-1.79-8.29-4.95-11.14
	c0.43-14.1,2.38-28.73,5.52-41.44c9.07,9.43,18.08,21.13,25.5,33.13c-1.52,4.69-0.65,9.78,2.37,13.76c2.8,3.68,7.28,5.88,11.99,5.88
	c2.06,0,4.05-0.41,5.92-1.23c3.94-1.72,6.97-5.04,8.31-9.1c1.34-4.06,0.88-8.52-1.26-12.22c-2.13-3.7-5.69-6.28-9.86-7.17
	c-6.68-12.43-12.31-26.08-15.94-38.65c12.57,3.63,26.22,9.26,38.65,15.94c1.03,4.82,4.32,8.8,8.93,10.73
	c1.8,0.75,3.72,1.14,5.7,1.14c4.8,0,9.33-2.27,12.13-6.06c2.55-3.46,3.52-7.85,2.65-12.03c-0.87-4.19-3.5-7.81-7.2-9.95
	c-2.27-1.31-4.87-2.01-7.5-2.01c-1.58,0-3.13,0.24-4.62,0.72c-12-7.42-23.7-16.43-33.13-25.5c12.7-3.14,27.34-5.09,41.44-5.52
	c2.85,3.16,6.87,4.95,11.14,4.95c4.27,0,8.36-1.83,11.21-5.02c2.85-3.19,4.21-7.47,3.73-11.74c-0.76-6.78-6.22-12.32-12.98-13.18
	c-0.64-0.08-1.29-0.12-1.94-0.12c-4.29,0-8.31,1.79-11.16,4.95c-14.1-0.43-28.73-2.38-41.44-5.52c9.43-9.07,21.13-18.08,33.13-25.5
	c1.49,0.48,3.04,0.72,4.61,0.72c3.28,0,6.53-1.1,9.15-3.09c5.42-4.13,7.38-11.66,4.65-17.91c-1.72-3.94-5.04-6.97-9.1-8.31
	c-1.52-0.5-3.1-0.75-4.7-0.75c-2.64,0-5.24,0.7-7.52,2.01c-3.7,2.14-6.28,5.7-7.17,9.86c-12.42,6.68-26.07,12.31-38.65,15.94
	c3.63-12.57,9.26-26.22,15.94-38.65c4.82-1.03,8.8-4.32,10.73-8.93c2.63-6.29,0.56-13.78-4.93-17.83c-2.59-1.91-5.78-2.96-8.98-2.96
	c-1.03,0-2.05,0.11-3.05,0.32c-4.19,0.87-7.81,3.5-9.95,7.2c-2.14,3.7-2.59,8.07-1.28,12.12c-7.42,12-16.43,23.7-25.5,33.13
	c-3.14-12.7-5.09-27.34-5.52-41.44c3.66-3.31,5.46-8.14,4.82-13.1c-0.86-6.76-6.41-12.22-13.19-12.98
	c-0.56-0.06-1.13-0.09-1.69-0.09c-3.73,0-7.3,1.36-10.05,3.82c-3.19,2.85-5.02,6.94-5.02,11.21c0,4.27,1.79,8.29,4.95,11.14
	c-0.43,14.1-2.38,28.74-5.52,41.44c-9.07-9.43-18.08-21.13-25.5-33.13c1.52-4.69,0.65-9.78-2.37-13.76
	c-2.8-3.68-7.28-5.88-11.99-5.88c-2.06,0-4.05,0.41-5.92,1.23c-3.94,1.72-6.97,5.04-8.31,9.1c-1.34,4.06-0.88,8.51,1.26,12.22
	c2.14,3.7,5.7,6.28,9.86,7.17c6.68,12.42,12.31,26.07,15.94,38.65c-12.57-3.63-26.22-9.26-38.65-15.94
	c-1.03-4.82-4.32-8.8-8.93-10.73c-1.8-0.75-3.72-1.14-5.7-1.14c-4.8,0-9.33,2.27-12.13,6.07c-2.55,3.46-3.52,7.85-2.64,12.03
	c0.87,4.19,3.5,7.81,7.2,9.95c2.27,1.31,4.87,2.01,7.5,2.01c1.58,0,3.12-0.24,4.62-0.72c11.99,7.42,23.69,16.43,33.13,25.5
	c-12.71,3.14-27.34,5.09-41.44,5.52c-2.85-3.15-6.88-4.95-11.17-4.95c-0.64,0-1.29,0.04-1.93,0.12
	c-6.76,0.86-12.22,6.41-12.98,13.18c-0.48,4.28,0.88,8.56,3.73,11.74c2.85,3.19,6.94,5.02,11.21,5.02c4.27,0,8.28-1.79,11.14-4.95
	c14.1,0.43,28.74,2.38,41.44,5.52c-9.43,9.07-21.13,18.08-33.13,25.5c-1.49-0.48-3.03-0.72-4.61-0.72c-3.28,0-6.53,1.1-9.15,3.1
	c-5.42,4.13-7.38,11.66-4.65,17.91c1.72,3.94,5.04,6.97,9.1,8.31c1.52,0.5,3.1,0.75,4.7,0.75c2.64,0,5.24-0.7,7.52-2.01
	c3.7-2.13,6.28-5.69,7.17-9.86c12.43-6.68,26.08-12.31,38.65-15.94c-3.63,12.57-9.26,26.22-15.94,38.65
	c-4.82,1.03-8.8,4.32-10.73,8.93c-2.63,6.29-0.56,13.78,4.93,17.83c2.59,1.91,5.78,2.96,8.98,2.96c1.03,0,2.05-0.11,3.05-0.32
	c4.19-0.87,7.81-3.5,9.95-7.2c2.14-3.7,2.59-8.07,1.28-12.12c7.42-12,16.43-23.7,25.5-33.13c3.14,12.7,5.09,27.34,5.52,41.44
	c-3.16,2.85-4.95,6.87-4.95,11.14c0,2.14,0.45,4.22,1.34,6.18c2,5.86,7.49,9.79,13.69,9.79C316.2,436.79,321.69,432.86,323.69,427z
	 M302.47,424.77l-0.02-0.05l-0.02-0.05l-0.07-0.19l-0.02-0.05l-0.02-0.05c-0.54-1.14-0.81-2.35-0.81-3.58c0-2.74,1.35-5.33,3.6-6.93
	l1.43-1.01l-0.04-1.74c-0.34-15.48-2.49-31.68-6.04-45.61c-0.52-2.05-2.15-3.67-4.26-4.23c-0.5-0.13-1.02-0.2-1.54-0.2
	c-1.58,0-3.1,0.64-4.19,1.75c-10.04,10.29-19.99,23.25-28.03,36.48l-0.91,1.49l0.73,1.58c1.16,2.51,1.03,5.42-0.34,7.8
	c-1.21,2.09-3.25,3.57-5.61,4.06c-0.58,0.12-1.18,0.18-1.76,0.18c-1.8,0-3.54-0.58-5.04-1.69c-3.09-2.28-4.25-6.49-2.77-10.02
	c1.23-2.93,3.94-4.92,7.09-5.21l1.74-0.16l0.84-1.53c7.45-13.59,13.69-28.7,17.58-42.54c0.57-2.03-0.03-4.24-1.55-5.77
	c-1.11-1.11-2.64-1.74-4.19-1.74c-0.53,0-1.05,0.07-1.56,0.22c-13.84,3.89-28.94,10.13-42.53,17.58l-1.53,0.84l-0.16,1.74
	c-0.25,2.75-1.82,5.21-4.2,6.58c-1.28,0.74-2.75,1.13-4.24,1.13c-0.9,0-1.79-0.14-2.65-0.42c-2.32-0.76-4.15-2.43-5.14-4.7
	c-1.53-3.51-0.44-7.75,2.61-10.07c1.51-1.15,3.3-1.76,5.18-1.76c1.24,0,2.44,0.26,3.56,0.78l1.58,0.73l1.49-0.9
	c13.24-8.04,26.19-18,36.48-28.03c1.51-1.47,2.1-3.68,1.54-5.78c-0.55-2.07-2.16-3.69-4.21-4.21c-13.92-3.55-30.12-5.69-45.61-6.04
	l-1.74-0.04l-1.01,1.43c-1.59,2.26-4.18,3.6-6.93,3.6c-2.41,0-4.72-1.03-6.32-2.83c-1.63-1.82-2.38-4.18-2.1-6.64
	c0.43-3.81,3.49-6.93,7.29-7.41c0.36-0.05,0.73-0.07,1.1-0.07c2.77,0,5.37,1.35,6.96,3.6l1.01,1.43l1.75-0.04
	c15.48-0.34,31.68-2.49,45.61-6.04c2.05-0.52,3.67-2.15,4.23-4.26c0.55-2.06-0.04-4.26-1.55-5.73
	c-10.29-10.04-23.24-19.99-36.48-28.03l-1.49-0.91l-1.58,0.73c-1.13,0.52-2.33,0.78-3.57,0.78c-1.49,0-2.95-0.39-4.23-1.13
	c-2.09-1.21-3.57-3.25-4.06-5.61c-0.5-2.39,0.03-4.81,1.5-6.8c1.57-2.13,4.13-3.41,6.84-3.41c1.11,0,2.18,0.21,3.19,0.63
	c2.93,1.23,4.92,3.94,5.21,7.09l0.16,1.74l1.53,0.84c13.59,7.45,28.7,13.69,42.53,17.58c0.51,0.14,1.03,0.21,1.56,0.21
	c1.58,0,3.07-0.63,4.21-1.77c1.51-1.51,2.1-3.72,1.53-5.75c-3.89-13.84-10.13-28.94-17.58-42.53l-0.84-1.53l-1.74-0.16
	c-2.75-0.25-5.21-1.82-6.59-4.2c-1.21-2.09-1.46-4.6-0.71-6.89c0.76-2.32,2.43-4.15,4.7-5.14c1.04-0.45,2.16-0.69,3.31-0.69
	c2.66,0,5.18,1.23,6.75,3.3c1.92,2.53,2.29,5.88,0.97,8.74l-0.73,1.58l0.91,1.49c8.04,13.24,18,26.2,28.03,36.48
	c1.1,1.13,2.59,1.75,4.19,1.75c0.53,0,1.06-0.07,1.58-0.21c2.07-0.55,3.69-2.16,4.21-4.21c3.55-13.93,5.69-30.13,6.04-45.61
	l0.04-1.74l-1.43-1.01c-2.26-1.59-3.6-4.18-3.6-6.93c0-2.41,1.03-4.72,2.83-6.32c1.58-1.41,3.53-2.16,5.64-2.16
	c0.33,0,0.67,0.02,1,0.06c3.81,0.43,6.93,3.49,7.41,7.29c0.4,3.15-0.95,6.24-3.53,8.06l-1.43,1.01l0.04,1.74
	c0.35,15.49,2.49,31.68,6.04,45.61c0.52,2.05,2.16,3.67,4.26,4.22c0.5,0.13,1.02,0.2,1.54,0.2c1.58,0,3.1-0.64,4.19-1.75
	c10.03-10.28,19.99-23.24,28.03-36.48l0.91-1.49l-0.73-1.58c-1.16-2.51-1.03-5.42,0.34-7.8c1.21-2.09,3.25-3.57,5.61-4.06
	c0.58-0.12,1.18-0.18,1.76-0.18c1.8,0,3.55,0.58,5.04,1.69c3.09,2.28,4.25,6.49,2.77,10.02c-1.23,2.93-3.94,4.93-7.09,5.21
	l-1.74,0.16l-0.84,1.53c-7.45,13.59-13.69,28.69-17.58,42.53c-0.57,2.03,0.02,4.24,1.55,5.77c1.11,1.11,2.64,1.75,4.19,1.75
	c0.53,0,1.05-0.07,1.56-0.22c13.83-3.89,28.94-10.13,42.53-17.58l1.53-0.84l0.16-1.74c0.25-2.75,1.82-5.21,4.2-6.59
	c1.29-0.74,2.75-1.13,4.24-1.13c0.9,0,1.79,0.14,2.65,0.42c2.32,0.76,4.15,2.43,5.14,4.7c1.54,3.51,0.44,7.75-2.61,10.07
	c-1.51,1.15-3.3,1.75-5.18,1.75c-1.24,0-2.43-0.26-3.56-0.78l-1.58-0.73l-1.49,0.91c-13.24,8.04-26.2,18-36.48,28.03
	c-1.51,1.47-2.09,3.68-1.54,5.77c0.55,2.07,2.16,3.69,4.21,4.21c13.93,3.55,30.13,5.69,45.61,6.04l1.74,0.04l1.01-1.43
	c1.59-2.25,4.2-3.6,6.97-3.6c0.36,0,0.73,0.02,1.09,0.07c3.8,0.49,6.87,3.6,7.29,7.41c0.28,2.46-0.47,4.82-2.1,6.64
	c-1.61,1.8-3.91,2.83-6.33,2.83c-2.74,0-5.33-1.35-6.93-3.6l-1.01-1.43l-1.74,0.04c-15.49,0.35-31.69,2.49-45.61,6.04
	c-2.05,0.52-3.67,2.15-4.23,4.26c-0.55,2.06,0.04,4.26,1.55,5.73c10.28,10.03,23.24,19.99,36.48,28.03l1.49,0.9l1.58-0.73
	c1.13-0.52,2.33-0.79,3.57-0.79c1.49,0,2.95,0.39,4.23,1.13c2.09,1.21,3.57,3.25,4.06,5.62c0.5,2.39-0.03,4.81-1.5,6.8
	c-1.57,2.13-4.13,3.41-6.84,3.41c-1.11,0-2.18-0.21-3.19-0.63c-2.93-1.23-4.93-3.94-5.21-7.09l-0.16-1.74l-1.53-0.84
	c-13.59-7.45-28.7-13.69-42.54-17.58c-0.5-0.14-1.03-0.22-1.56-0.22c-1.58,0-3.07,0.63-4.21,1.77c-1.52,1.51-2.1,3.72-1.53,5.75
	c3.89,13.84,10.13,28.94,17.58,42.53l0.84,1.53l1.74,0.16c2.75,0.25,5.21,1.82,6.59,4.2c1.21,2.09,1.46,4.6,0.71,6.89
	c-0.76,2.32-2.43,4.15-4.7,5.14c-1.04,0.45-2.16,0.68-3.31,0.68c-2.66,0-5.18-1.23-6.75-3.3c-1.92-2.53-2.29-5.88-0.97-8.74
	l0.73-1.59l-0.9-1.49c-8.05-13.24-18-26.2-28.03-36.48c-1.1-1.13-2.58-1.75-4.19-1.75c-0.53,0-1.07,0.07-1.59,0.21
	c-2.07,0.55-3.69,2.17-4.21,4.21c-3.55,13.92-5.69,30.12-6.04,45.61l-0.04,1.74l1.42,1.01c2.26,1.59,3.61,4.18,3.61,6.93
	c0,1.24-0.27,2.44-0.81,3.58l-0.02,0.05l-0.02,0.05l-0.07,0.19l-0.02,0.05l-0.02,0.05c-1.07,3.27-4.09,5.46-7.53,5.46
	C306.57,430.24,303.54,428.04,302.47,424.77z M526.01,93.99C468.31,36.29,391.6,4.52,310,4.52c-81.6,0-158.31,31.78-216.01,89.47
	C36.29,151.69,4.52,228.4,4.52,310c0,81.6,31.78,158.31,89.47,216.01c57.7,57.7,134.41,89.47,216.01,89.47
	c81.6,0,158.31-31.78,216.01-89.47c57.7-57.7,89.47-134.41,89.47-216.01C615.48,228.4,583.71,151.69,526.01,93.99z M607.76,303.99
	h-10.65c-0.15-6.55-0.51-13.1-1.11-19.66l10.63-1.12C607.23,290.08,607.62,297.01,607.76,303.99z M605.71,274.53l-10.67,1.12
	c-0.86-7.03-1.99-14.05-3.37-21.05l10.54-2.24C603.65,259.65,604.82,267.05,605.71,274.53z M600.41,243.8l-10.57,2.25
	c-0.79-3.46-1.63-6.91-2.55-10.35c-0.92-3.44-1.92-6.85-2.97-10.24l10.28-3.34C596.8,229.24,598.74,236.47,600.41,243.8z
	 M141.06,96.7c-3.88,14.47-1.89,29.58,5.6,42.56c7.49,12.97,19.59,22.25,34.06,26.13c4.79,1.28,9.7,1.93,14.6,1.93
	c1.63,0,3.26-0.1,4.89-0.25c-12.43,9.57-23.58,20.72-33.14,33.15c1.85-21.06-8.32-42.32-27.8-53.57c-8.5-4.91-18.17-7.5-27.95-7.5h0
	c-9.97,0-19.59,2.66-27.98,7.46c17.62-24.39,38.95-45.53,62.97-62.85C144.05,87.8,142.29,92.13,141.06,96.7z M147.92,98.54
	c3.39-12.64,11.49-23.2,22.82-29.74c7.46-4.31,15.9-6.58,24.41-6.58c4.28,0,8.57,0.57,12.76,1.69c12.64,3.39,23.2,11.49,29.74,22.82
	c6.54,11.33,8.28,24.53,4.89,37.17c-3.39,12.64-11.49,23.2-22.82,29.74c-7.46,4.31-15.9,6.59-24.41,6.59
	c-4.28,0-8.57-0.57-12.76-1.69c-12.64-3.39-23.2-11.49-29.74-22.82C146.27,124.38,144.53,111.18,147.92,98.54z M111.31,146.26
	c8.54,0,16.98,2.27,24.41,6.55c11.31,6.53,19.41,17.1,22.8,29.75c3.39,12.65,1.66,25.85-4.87,37.16
	c-8.72,15.1-25.01,24.48-42.51,24.48c-8.54,0-16.98-2.27-24.41-6.55c-11.33-6.54-19.44-17.1-22.82-29.74
	c-3.39-12.64-1.65-25.84,4.89-37.17C77.52,155.64,93.81,146.26,111.31,146.26z M83.18,243.81c8.5,4.91,18.17,7.5,27.95,7.5
	c11.71,0,22.94-3.67,32.25-10.18c-5.9,14.22-10.03,29.35-12.12,45.12c-8.96-19.09-28.35-32.34-50.79-32.34
	c-20.78,0-38.94,11.37-48.63,28.21c2.97-29.77,10.77-59,23.29-86.71c0.02,4.78,0.65,9.6,1.92,14.34
	C60.92,224.22,70.2,236.32,83.18,243.81z M80.47,261.02c27.01,0,48.98,21.97,48.98,48.98c0,27.01-21.97,48.98-48.98,48.98
	c-27.01,0-48.98-21.97-48.98-48.98C31.49,282.99,53.46,261.02,80.47,261.02z M80.47,366.08c22.44,0,41.84-13.25,50.79-32.34
	c2.08,15.77,6.22,30.9,12.12,45.12c-9.31-6.5-20.54-10.18-32.25-10.18c-9.78,0-19.45,2.59-27.95,7.5
	c-17.93,10.35-27.97,29.18-28.01,48.53c-6.08-13.59-11.14-27.74-15.07-42.4c-3.93-14.66-6.63-29.45-8.15-44.25
	C41.66,354.8,59.77,366.08,80.47,366.08z M86.73,382.34c7.42-4.29,15.86-6.55,24.41-6.55c17.5,0,33.79,9.38,42.51,24.48
	c6.54,11.33,8.28,24.53,4.89,37.17c-3.39,12.64-11.49,23.2-22.82,29.74c-7.43,4.29-15.87,6.55-24.41,6.55
	c-17.5,0-33.79-9.38-42.51-24.48C55.29,425.87,63.34,395.85,86.73,382.34z M111.31,480.84c9.78,0,19.45-2.59,27.95-7.5
	c12.95-7.48,22.23-19.58,26.11-34.06c1.73-6.45,2.29-13.02,1.72-19.47c9.56,12.41,20.7,23.55,33.12,33.11
	c-1.62-0.14-3.25-0.24-4.88-0.24h0h0c-4.9,0-9.81,0.65-14.6,1.93c-14.47,3.88-26.56,13.16-34.06,26.13
	c-7.49,12.97-9.48,28.09-5.6,42.56c1.27,4.74,3.13,9.23,5.51,13.38c-24.71-17.75-46.09-39.17-63.55-63.49
	C91.48,478.11,101.22,480.84,111.31,480.84z M152.81,484.29c6.54-11.33,17.11-19.44,29.74-22.82c4.19-1.12,8.48-1.69,12.76-1.69
	c8.51,0,16.95,2.28,24.41,6.58c11.33,6.54,19.44,17.1,22.82,29.74c3.39,12.64,1.65,25.84-4.89,37.17
	c-6.54,11.33-17.1,19.44-29.74,22.82c-4.19,1.12-8.48,1.69-12.76,1.69c-8.51,0-16.95-2.28-24.41-6.58
	c-11.33-6.54-19.44-17.1-22.82-29.74C144.53,508.82,146.27,495.62,152.81,484.29z M137.34,310c0-95.2,77.45-172.66,172.66-172.66
	S482.66,214.8,482.66,310c0,95.2-77.45,172.65-172.66,172.65S137.34,405.2,137.34,310z M556.07,207.91
	c-3.39,12.65-11.49,23.22-22.8,29.75c-7.46,4.31-15.9,6.58-24.41,6.58c-4.28,0-8.57-0.57-12.76-1.69
	c-12.64-3.39-23.2-11.49-29.74-22.82c-13.5-23.39-5.46-53.41,17.93-66.91c7.43-4.29,15.86-6.55,24.41-6.55
	c17.5,0,33.79,9.38,42.51,24.48C557.73,182.06,559.46,195.25,556.07,207.91z M562.95,209.75c1.25-4.66,1.88-9.39,1.92-14.09
	c6,13.48,11,27.52,14.9,42.06c3.9,14.57,6.6,29.26,8.13,43.97c-9.75-16.59-27.78-27.77-48.38-27.77
	c-22.44,0-41.83,13.25-50.79,32.34c-2.08-15.73-6.19-30.82-12.07-45.01c5.27,3.68,11.2,6.45,17.59,8.16
	c4.79,1.28,9.7,1.93,14.6,1.93c9.75,0,19.41-2.61,27.95-7.54C549.8,236.32,559.08,224.22,562.95,209.75z M508.69,139.16
	L508.69,139.16c-9.78,0-19.45,2.59-27.95,7.5c-19.48,11.25-29.65,32.51-27.8,53.57c-9.58-12.44-20.73-23.6-33.17-33.17
	c1.63,0.15,3.27,0.25,4.92,0.25c20.03,0,38.68-10.74,48.66-28.03c10.34-17.92,9.63-39.22,0.02-55.99
	c24.67,17.72,46.02,39.13,63.46,63.43C528.4,141.85,518.72,139.16,508.69,139.16z M467.19,135.72
	c-8.72,15.1-25.01,24.48-42.51,24.48c-8.54,0-16.98-2.27-24.41-6.55c-23.39-13.5-31.43-43.52-17.93-66.91
	c8.72-15.1,25.01-24.48,42.51-24.48c8.54,0,16.98,2.27,24.41,6.55C472.65,82.32,480.7,112.33,467.19,135.72z M400.27,466.36
	c7.46-4.31,15.9-6.58,24.41-6.58c4.28,0,8.57,0.57,12.76,1.69c12.64,3.39,23.2,11.49,29.74,22.82c6.54,11.33,8.28,24.53,4.89,37.17
	c-3.39,12.64-11.49,23.2-22.82,29.74c-7.46,4.31-15.9,6.59-24.41,6.59c-4.28,0-8.57-0.57-12.76-1.69
	c-12.64-3.39-23.2-11.49-29.74-22.82c-6.54-11.33-8.28-24.53-4.89-37.17C380.84,483.46,388.94,472.9,400.27,466.36z M478.94,523.29
	c3.88-14.47,1.89-29.58-5.6-42.56c-7.49-12.97-19.58-22.25-34.05-26.13c-4.79-1.28-9.7-1.93-14.6-1.93v1.64l0-1.64h0
	c-1.63,0-3.26,0.1-4.89,0.25c12.43-9.57,23.58-20.72,33.15-33.15c-1.85,21.06,8.32,42.32,27.8,53.57c8.5,4.91,18.17,7.5,27.95,7.5
	c10,0,19.66-2.68,28.07-7.51c-17.74,24.72-39.15,46.11-63.46,63.58C475.73,532.69,477.64,528.13,478.94,523.29z M508.69,473.74
	c-8.54,0-16.98-2.27-24.41-6.55c-23.39-13.5-31.43-43.52-17.93-66.91c6.54-11.33,17.1-19.44,29.74-22.82
	c4.19-1.12,8.48-1.69,12.76-1.69c8.51,0,16.95,2.28,24.41,6.58c23.39,13.51,31.43,43.52,17.93,66.91
	C542.48,464.36,526.19,473.74,508.69,473.74z M536.82,376.19c-8.54-4.93-18.21-7.54-27.95-7.54h0c-4.9,0-9.81,0.65-14.6,1.93
	c-6.39,1.71-12.32,4.48-17.59,8.16c5.87-14.19,9.99-29.28,12.07-45c8.96,19.09,28.35,32.34,50.79,32.34
	c20.72,0,38.83-11.3,48.54-28.05c-2.96,29.76-10.74,58.96-23.24,86.63C564.77,405.33,554.73,386.53,536.82,376.19z M539.53,358.98
	c-27.01,0-48.98-21.97-48.98-48.98c0-27.01,21.97-48.98,48.98-48.98c27.01,0,48.98,21.97,48.98,48.98
	C588.51,337.01,566.54,358.98,539.53,358.98z M591.89,213.81l-10.25,3.33c-2.3-6.76-4.84-13.4-7.6-19.92l9.79-4.36
	C586.76,199.72,589.46,206.71,591.89,213.81z M580.25,184.9l-9.74,4.34c-2.76-5.98-5.72-11.84-8.86-17.58l9.18-5.3
	C574.18,172.41,577.32,178.59,580.25,184.9z M564.81,155.95l-9.17,5.29c-3.4-5.63-6.98-11.13-10.75-16.5l8.51-6.18
	C557.4,144.21,561.21,150.01,564.81,155.95z M548.26,131.49l-8.5,6.18c-4.27-5.69-8.74-11.22-13.43-16.57l7.8-7.02
	C539.05,119.7,543.77,125.51,548.26,131.49z M528.27,107.59l-7.79,7.01c-4.84-5.2-9.87-10.22-15.1-15.06l7.03-7.81
	C517.89,96.82,523.18,102.11,528.27,107.59z M488.51,71.74c5.98,4.49,11.79,9.22,17.41,14.14l-7.05,7.83
	c-5.35-4.65-10.88-9.11-16.6-13.38L488.51,71.74z M464.05,55.19c5.94,3.6,11.73,7.41,17.39,11.41l-6.26,8.62
	c-5.35-3.75-10.84-7.34-16.48-10.75L464.05,55.19z M435.11,39.75c6.3,2.93,12.49,6.07,18.55,9.42l-5.35,9.27
	c-5.76-3.17-11.62-6.13-17.56-8.89L435.11,39.75z M406.19,28.11c7.11,2.43,14.09,5.13,20.94,8.07l-4.37,9.81
	c-6.54-2.8-13.18-5.36-19.89-7.67L406.19,28.11z M376.2,19.59c7.33,1.67,14.56,3.61,21.68,5.81l-3.32,10.21
	c-6.8-2.11-13.67-3.96-20.59-5.55L376.2,19.59z M345.47,14.29c7.48,0.89,14.87,2.06,22.17,3.5l-2.22,10.44
	c-6.98-1.38-14-2.5-21.06-3.36L345.47,14.29z M424.59,55.16c-19.93,0.1-38.46,10.82-48.39,28.03c-11.22,19.44-9.44,42.87,2.62,60.17
	c-14.21-5.89-29.32-10.01-45.07-12.09c19.09-8.96,32.34-28.35,32.34-50.79c0-20.64-11.22-38.7-27.87-48.44
	C368.02,35.04,397.21,42.86,424.59,55.16z M316.01,12.24c6.99,0.14,13.91,0.53,20.77,1.14l-1.11,10.57
	c-6.54-0.59-13.09-0.95-19.66-1.08V12.24z M358.98,80.47c0,27.01-21.97,48.98-48.98,48.98c-27.01,0-48.98-21.97-48.98-48.98
	c0-27.01,21.97-48.98,48.98-48.98C337.01,31.49,358.98,53.46,358.98,80.47z M303.99,12.24v10.65c-6.56,0.15-13.11,0.53-19.66,1.13
	l-1.12-10.64C290.08,12.77,297.01,12.38,303.99,12.24z M253.91,80.47c0,22.44,13.25,41.84,32.34,50.79
	c-15.73,2.08-30.82,6.19-45.01,12.07c3.68-5.27,6.45-11.2,8.16-17.6c3.88-14.47,1.89-29.58-5.6-42.56
	c-7.49-12.97-19.58-22.25-34.05-26.13c-4.52-1.21-9.14-1.84-13.76-1.91c26.89-12.04,55.77-19.9,85.62-23.01
	C265.05,41.9,253.91,59.9,253.91,80.47z M274.53,14.29l1.12,10.66c-7.04,0.86-14.07,1.98-21.05,3.37l-2.24-10.53
	C259.65,16.35,267.05,15.18,274.53,14.29z M243.8,19.59l2.24,10.56c-3.46,0.79-6.91,1.64-10.35,2.56
	c-3.44,0.92-6.85,1.92-10.24,2.97l-3.34-10.28C229.24,23.2,236.47,21.26,243.8,19.59z M213.81,28.11l3.33,10.25
	c-6.76,2.3-13.4,4.84-19.92,7.6l-4.36-9.79C199.72,33.24,206.71,30.54,213.81,28.11z M184.9,39.75l4.34,9.74
	c-5.98,2.76-11.84,5.72-17.58,8.86l-5.3-9.18C172.41,45.82,178.59,42.68,184.9,39.75z M155.95,55.19l5.29,9.17
	c-5.63,3.4-11.13,6.98-16.5,10.75l-6.18-8.51C144.21,62.6,150.01,58.79,155.95,55.19z M131.49,71.74l6.18,8.5
	c-5.69,4.27-11.22,8.74-16.57,13.43l-7.02-7.8C119.7,80.95,125.51,76.23,131.49,71.74z M107.59,91.73l7.01,7.79
	c-5.2,4.84-10.22,9.87-15.06,15.1l-7.81-7.03C96.82,102.11,102.11,96.82,107.59,91.73z M85.87,114.08l7.83,7.05
	c-4.65,5.35-9.11,10.88-13.38,16.6l-8.59-6.24C76.23,125.51,80.95,119.7,85.87,114.08z M66.59,138.56l8.62,6.26
	c-3.75,5.35-7.34,10.84-10.75,16.48l-9.27-5.35C58.79,150.01,62.6,144.21,66.59,138.56z M49.17,166.35l9.28,5.35
	c-3.18,5.77-6.14,11.63-8.9,17.55l-9.8-4.36C42.68,178.59,45.82,172.41,49.17,166.35z M36.18,192.87l9.79,4.36
	c-2.82,6.56-5.38,13.19-7.68,19.89l-10.18-3.31C30.54,206.71,33.24,199.72,36.18,192.87z M25.4,222.12l10.17,3.3
	c-2.11,6.81-3.96,13.68-5.55,20.59l-10.43-2.22C21.26,236.47,23.2,229.24,25.4,222.12z M17.78,252.35l10.42,2.21
	c-1.38,6.98-2.49,14.01-3.34,21.07l-10.57-1.11C15.18,267.05,16.35,259.65,17.78,252.35z M13.38,283.22l10.56,1.11
	c-0.58,6.53-0.94,13.09-1.06,19.66H12.24C12.38,297.01,12.77,290.08,13.38,283.22z M12.24,316.01h10.65
	c0.15,6.55,0.51,13.1,1.11,19.66l-10.63,1.12C12.77,329.92,12.38,322.99,12.24,316.01z M14.29,345.47l10.67-1.12
	c0.86,7.03,1.99,14.05,3.37,21.05l-10.54,2.24C16.35,360.35,15.18,352.95,14.29,345.47z M19.59,376.2l10.57-2.25
	c0.79,3.46,1.63,6.91,2.55,10.35c0.92,3.44,1.92,6.85,2.97,10.24l-10.28,3.34C23.2,390.76,21.26,383.53,19.59,376.2z M28.11,406.19
	l10.25-3.33c2.3,6.76,4.84,13.4,7.6,19.92l-9.79,4.36C33.24,420.28,30.54,413.29,28.11,406.19z M39.75,435.11l9.74-4.34
	c2.76,5.98,5.72,11.84,8.86,17.58l-9.18,5.3C45.82,447.59,42.68,441.41,39.75,435.11z M55.19,464.05l9.17-5.29
	c3.4,5.63,6.98,11.13,10.75,16.5l-8.51,6.18C62.6,475.79,58.79,469.99,55.19,464.05z M71.74,488.51l8.51-6.18
	c4.27,5.69,8.74,11.22,13.43,16.57l-7.8,7.02C80.95,500.3,76.23,494.49,71.74,488.51z M91.73,512.41l7.79-7.01
	c4.84,5.2,9.87,10.22,15.1,15.06l-7.03,7.81C102.11,523.18,96.82,517.89,91.73,512.41z M131.49,548.26
	c-5.98-4.5-11.79-9.22-17.41-14.14l7.05-7.83c5.35,4.65,10.88,9.11,16.6,13.38L131.49,548.26z M155.95,564.81
	c-5.94-3.6-11.73-7.41-17.39-11.41l6.26-8.62c5.35,3.75,10.84,7.34,16.48,10.75L155.95,564.81z M184.9,580.25
	c-6.3-2.93-12.49-6.07-18.55-9.42l5.35-9.27c5.76,3.17,11.62,6.13,17.56,8.89L184.9,580.25z M213.81,591.89
	c-7.11-2.43-14.09-5.13-20.94-8.07l4.37-9.81c6.55,2.8,13.18,5.36,19.89,7.67L213.81,591.89z M243.8,600.41
	c-7.33-1.67-14.56-3.61-21.68-5.81l3.32-10.21c6.8,2.11,13.67,3.96,20.59,5.55L243.8,600.41z M274.53,605.71
	c-7.48-0.89-14.87-2.06-22.17-3.5l2.22-10.44c6.98,1.38,14,2.5,21.06,3.36L274.53,605.71z M195.46,564.88
	c4.8-0.03,9.61-0.67,14.3-1.92c14.47-3.88,26.56-13.16,34.05-26.13c7.49-12.97,9.48-28.09,5.6-42.56
	c-1.71-6.39-4.49-12.32-8.16-17.6c14.19,5.87,29.28,9.99,45.01,12.07c-19.09,8.96-32.34,28.35-32.34,50.79
	c0,20.78,11.37,38.94,28.21,48.63C252.29,585.16,223,577.29,195.46,564.88z M303.99,607.76c-6.99-0.14-13.91-0.53-20.77-1.14
	l1.11-10.57c6.54,0.59,13.09,0.95,19.66,1.08V607.76z M261.02,539.53c0-27.01,21.97-48.98,48.98-48.98
	c27.01,0,48.98,21.97,48.98,48.98s-21.97,48.98-48.98,48.98C282.99,588.51,261.02,566.54,261.02,539.53z M316.01,607.76v-10.65
	c6.56-0.15,13.11-0.53,19.66-1.13l1.12,10.64C329.92,607.23,322.99,607.62,316.01,607.76z M366.09,539.53
	c0-22.44-13.25-41.84-32.34-50.79c15.73-2.08,30.82-6.19,45-12.07c-3.68,5.27-6.45,11.2-8.16,17.59
	c-3.88,14.47-1.89,29.58,5.6,42.56c7.49,12.97,19.58,22.25,34.05,26.13c4.72,1.26,9.55,1.91,14.37,1.93
	c-13.56,6.06-27.68,11.11-42.3,15.02c-14.58,3.91-29.39,6.63-44.28,8.17C354.79,578.36,366.09,560.24,366.09,539.53z M345.47,605.71
	l-1.12-10.66c7.04-0.86,14.07-1.98,21.05-3.37l2.24,10.53C360.35,603.65,352.95,604.82,345.47,605.71z M376.2,600.41l-2.24-10.56
	c3.46-0.79,6.91-1.64,10.35-2.56c3.44-0.92,6.85-1.92,10.24-2.97l3.34,10.28C390.76,596.8,383.53,598.74,376.2,600.41z
	 M406.19,591.89l-3.33-10.25c6.76-2.3,13.4-4.84,19.92-7.6l4.36,9.79C420.28,586.76,413.29,589.46,406.19,591.89z M435.11,580.25
	l-4.34-9.74c5.98-2.76,11.84-5.72,17.58-8.86l5.3,9.18C447.59,574.18,441.41,577.32,435.11,580.25z M464.05,564.81l-5.29-9.17
	c5.63-3.4,11.13-6.98,16.5-10.75l6.18,8.51C475.79,557.4,469.99,561.21,464.05,564.81z M488.51,548.26l-6.18-8.51
	c5.69-4.27,11.22-8.74,16.57-13.43l7.02,7.8C500.3,539.05,494.5,543.77,488.51,548.26z M512.41,528.27l-7.01-7.79
	c5.2-4.84,10.22-9.87,15.06-15.1l7.81,7.03C523.18,517.89,517.89,523.18,512.41,528.27z M534.13,505.92l-7.83-7.05
	c4.65-5.35,9.11-10.88,13.38-16.6l8.59,6.24C543.77,494.49,539.05,500.3,534.13,505.92z M553.41,481.44l-8.62-6.26
	c3.75-5.35,7.34-10.84,10.75-16.48l9.27,5.35C561.21,469.99,557.4,475.79,553.41,481.44z M570.83,453.65l-9.28-5.36
	c3.18-5.77,6.14-11.63,8.9-17.55l9.8,4.36C577.32,441.41,574.18,447.59,570.83,453.65z M583.82,427.13l-9.79-4.36
	c2.82-6.56,5.38-13.19,7.68-19.89l10.18,3.31C589.46,413.29,586.76,420.28,583.82,427.13z M594.6,397.88l-10.17-3.3
	c2.11-6.81,3.96-13.67,5.55-20.59l10.43,2.22C598.74,383.53,596.8,390.76,594.6,397.88z M602.22,367.65l-10.42-2.21
	c1.38-6.98,2.49-14.01,3.34-21.07l10.57,1.11C604.82,352.95,603.65,360.35,602.22,367.65z M606.62,336.78l-10.56-1.11
	c0.58-6.53,0.93-13.09,1.06-19.66h10.64C607.62,322.99,607.23,329.92,606.62,336.78z"/>
<path id="Inset" class="st3" d="M184.78,467.84l5.19,3l-30.24,52.37l-5.19-3c-0.36-0.21-1.51,0.12-2.05,1.04
	c-0.53,0.92-0.24,2.08,0.12,2.29l31.37,18.09c0.36,0.21,1.77,0.03,2.3-0.89c0.53-0.92-0.01-2.23-0.37-2.44l-3.07-1.77l24.18-34.79
	c0.18-0.25,0.57-0.07,0.48,0.23l-11.96,41.89l-4.15-2.4c-0.36-0.21-1.67,0.03-2.2,0.95c-0.53,0.92-0.08,2.17,0.28,2.38l14.05,8.11
	c0.36,0.21,1.77,0.03,2.3-0.89c0.53-0.92-0.01-2.23-0.37-2.44l-3.65-2.11l18.71-61.67c0.21-0.69-0.7-2.2-1.8-2.84
	c-0.96-0.55-2.66-0.39-3.23-0.07l-36.03,51.67l-2.99-1.73l30.23-52.36l5.15,2.97c0.36,0.21,1.55-0.1,2.08-1.02
	c0.53-0.92,0.2-2.1-0.16-2.31l-27.06-15.62c-0.36-0.21-1.51,0.12-2.05,1.04C184.13,466.47,184.42,467.63,184.78,467.84z
	 M196.53,474.62l3.59,2.07l-30.24,52.37l-3.59-2.07L196.53,474.62z M120.97,379.41l2.9,5.02l-52.37,30.24l-2.9-5.02
	c-0.21-0.36-1.47-0.82-2.39-0.29c-0.92,0.53-1.15,1.85-0.94,2.21l5.17,8.96l4.76,8.24l0.8,1.39l4.72,8.17l2,3.46l3.56,6.17
	l0.04-0.03l3.03,5.24c0.21,0.36,1.52,0.9,2.44,0.37s1.1-1.93,0.89-2.3l-1.77-3.07l38.33-18.04c0.28-0.13,0.53,0.23,0.3,0.44
	l-31.3,30.3l-2.4-4.15c-0.21-0.36-1.46-0.81-2.38-0.28c-0.92,0.53-1.16,1.84-0.95,2.2l8.11,14.05c0.21,0.36,1.52,0.9,2.44,0.37
	s1.1-1.93,0.89-2.3l-2.11-3.65l47.04-44.05c0.53-0.49,0.49-2.26-0.14-3.35c-0.55-0.96-2.1-1.67-2.76-1.67l-57.04,26.73l-2.52-4.36
	c-0.01-0.01-0.02-0.02-0.02-0.03l52.34-30.22l2.86,4.95c0.21,0.36,1.51,0.9,2.43,0.36c0.92-0.53,1.11-1.92,0.9-2.29l-5.17-8.96
	l-4.72-8.17l-0.8-1.39l-4.76-8.24l-5.17-8.96c-0.21-0.36-1.47-0.82-2.39-0.29C120.99,377.73,120.76,379.05,120.97,379.41z
	 M133.17,400.55l1.77,3.06l-52.37,30.24l-1.77-3.06L133.17,400.55z M127.66,391l1.73,2.99l-52.37,30.24l-1.73-2.99L127.66,391z
	 M418.63,143.24c-0.51,0.88-1.7,1.15-2.05,0.95l-16.17-9.34c-0.35-0.2-0.81-1.42-0.3-2.3c0.51-0.88,1.79-1.1,2.14-0.9l3.8,2.19
	L435,83.7l-3.8-2.19c-0.35-0.2-0.81-1.42-0.3-2.3c0.51-0.88,1.79-1.1,2.14-0.9l16.17,9.34c0.35,0.2,0.71,1.37,0.2,2.25
	c-0.51,0.88-1.7,1.15-2.05,0.95l-3.89-2.25l-28.95,50.14l3.89,2.25C418.77,141.19,419.14,142.35,418.63,143.24z M489.66,224.32
	l-2.87-4.97l53.67-30.98l2.87,4.97c0.21,0.36,1.5,0.88,2.42,0.35c0.92-0.53,1.12-1.91,0.91-2.27l-15.52-26.88
	c-0.21-0.36-1.44-0.77-2.36-0.24c-0.92,0.53-1.18,1.8-0.97,2.16l2.93,5.07l-53.67,30.98l-2.93-5.07c-0.21-0.36-1.44-0.77-2.36-0.24
	c-0.92,0.53-1.18,1.8-0.97,2.16l15.52,26.88c0.21,0.36,1.5,0.88,2.42,0.35C489.67,226.06,489.87,224.69,489.66,224.32z
	 M480.86,209.07l53.67-30.98l2.15,3.72l-53.67,30.98L480.86,209.07z M508.55,331.22v-5.55h61.97v5.55c0,0.42,0.86,1.69,1.92,1.69
	s1.92-1.27,1.92-1.69v-42.7c0-0.42-0.86-1.43-1.92-1.43s-1.92,1.01-1.92,1.43v5.81h-61.97v-5.81c0-0.42-0.86-1.43-1.92-1.43
	c-1.06,0-1.92,1.01-1.92,1.43v42.7c0,0.42,0.86,1.69,1.92,1.69C507.68,332.91,508.55,331.64,508.55,331.22z M508.55,301.91h61.97
	v4.29h-61.97V301.91z M508.55,313.79h61.97v4.29h-61.97V313.79z M468.23,433.22l2.9-5.03l53.67,30.98l-2.9,5.03
	c-0.21,0.36,0.03,1.67,0.95,2.2c0.92,0.53,2.17,0.08,2.38-0.28l27.4-47.46c0.21-0.36-0.02-1.69-0.94-2.22
	c-0.92-0.53-2.18-0.07-2.39,0.3l-2.9,5.02l-53.67-30.98l2.9-5.02c0.21-0.36-0.02-1.69-0.94-2.22s-2.18-0.07-2.39,0.3l-27.4,47.46
	c-0.21,0.36,0.03,1.67,0.95,2.2C466.76,434.03,468.02,433.58,468.23,433.22z M486.8,401.06l2.15-3.72l53.67,30.98l-2.15,3.72
	L486.8,401.06z M480.86,411.34l2.15-3.72l53.67,30.98l-2.15,3.72L480.86,411.34z M477.07,417.9l53.67,30.98l-2.15,3.72l-53.67-30.98
	L477.07,417.9z M338.98,110.61h-5.75V50.38h5.7c0.41,0,1.35-0.84,1.35-1.87s-0.94-1.87-1.35-1.87l-34.46,0
	c-0.41,0-1.48,0.84-1.48,1.87c0,1.03,1.08,1.87,1.48,1.87h2.22l-6.49,18.47l-4.83-18.47h2.82c0.41,0,1.27-0.84,1.27-1.87
	c0-1.03-0.86-1.87-1.27-1.87h-17.48c-0.41,0-1.23,0.84-1.23,1.87c0,1.03,0.82,1.87,1.23,1.87h6.71l8.11,31.75l-10.01,28.48h-3.72
	c-0.41,0-1.46,0.84-1.46,1.87c0,1.03,1.05,1.87,1.46,1.87h11.52c0.41,0,1.3-0.84,1.3-1.87c0-1.03-0.89-1.87-1.3-1.87h-3.22
	l7.37-20.81l5.47,20.81h-4.6c-0.41,0-1.31,0.84-1.31,1.87c0,1.03,0.9,1.87,1.31,1.87h40.65c0.41,0,1.31-0.84,1.31-1.87
	C340.28,111.45,339.38,110.61,338.98,110.61z M314.11,110.61h-3.22l-8.86-34.6l8.96-25.64h3.11V110.61z M325.84,110.61h-4.35V50.38
	h4.35V110.61z M232.18,125.45l-5.3,3.06l-30.62-53.03l5.3-3.06c0.38-0.22,0.87-1.48,0.35-2.39c-0.52-0.91-1.86-1.12-2.24-0.9
	l-21.38,12.35c-0.38,0.22-0.8,1.44-0.27,2.35s1.79,1.16,2.17,0.94l2.46-1.42l0.07,0.52l3.33,19.66l-14.2-13.94l2.53-1.46
	c0.38-0.22,0.87-1.48,0.35-2.39s-1.86-1.12-2.24-0.9l-16.17,9.33c-0.38,0.22-0.8,1.44-0.27,2.35c0.52,0.91,1.79,1.16,2.17,0.94
	l6.2-3.58l24.05,23.9l5.08,30l-3.91,2.26c-0.38,0.22-0.8,1.44-0.27,2.35c0.52,0.91,1.79,1.16,2.17,0.94l10.83-6.25
	c0.38-0.22,0.87-1.48,0.35-2.39c-0.52-0.91-1.86-1.12-2.24-0.9l-2.93,1.69l-3.69-22.3l15.69,15.37l-4.31,2.49
	c-0.38,0.22-0.8,1.44-0.27,2.35c0.52,0.91,1.79,1.16,2.17,0.94l26.97-15.57c0.38-0.22,0.87-1.48,0.35-2.39
	C233.9,125.44,232.56,125.23,232.18,125.45z M219.97,132.5l-3.01,1.74l-25.87-25.68l-4.65-27.41l2.91-1.68L219.97,132.5z
	 M149.26,195.34c0.92,0.53,1.08,1.97,0.87,2.33l-8.79,15.22c-0.21,0.36-1.42,0.74-2.34,0.21c-0.92-0.53-1.2-1.77-0.99-2.13
	l2.36-4.09l-21.35-5.84l14.76,17.25l1.53-2.65c0.21-0.36,1.54-0.94,2.46-0.41c0.92,0.53,1.08,1.97,0.87,2.33l-5.86,10.15
	c-0.21,0.36-1.42,0.74-2.34,0.21c-0.92-0.53-1.2-1.77-0.99-2.13l2.1-3.64l-19.94-23.23l-32.87-9.24l-3.4,5.89
	c-0.21,0.36-1.42,0.74-2.34,0.21c-0.92-0.53-1.2-1.77-0.99-2.13l8.79-15.22c0.21-0.36,1.54-0.94,2.46-0.41
	c0.92,0.53,1.08,1.97,0.87,2.33l-1.31,2.26l19.36,5.32l-12.84-14.96l-0.55-0.69l-1.38,2.4c-0.21,0.36-1.42,0.74-2.34,0.21
	s-1.2-1.77-0.99-2.13l5.86-10.15c0.21-0.36,1.54-0.94,2.46-0.41c0.92,0.53,1.08,1.97,0.87,2.33l-2.43,4.21l18.24,21.16l35.37,9.93
	l2.35-4.07C147.02,195.39,148.35,194.81,149.26,195.34z M111.45,287.43v5.06l-35.6,9.09l-26.37-9.2v-5.22
	c0-0.42-0.86-1.22-1.92-1.22s-1.92,0.8-1.92,1.22v12.13c0,0.42,0.86,1.3,1.92,1.3s1.92-0.88,1.92-1.3v-2.65l0.47,0.18l18.72,6.58
	l-19.18,5.01v-2.97c0-0.42-0.86-1.22-1.92-1.22s-1.92,0.8-1.92,1.22l0,27.33c0,0.42,0.86,1.3,1.92,1.3s1.92-0.88,1.92-1.3v-5.94
	h61.97v5.94c0,0.42,0.86,1.3,1.92,1.3c1.06,0,1.92-0.88,1.92-1.3V310.4c0-0.42-0.86-1.22-1.92-1.22c-1.06,0-1.92,0.8-1.92,1.22v2.36
	v1.06l-21.41-7.56l21.41-5.61v4.77c0,0.42,0.86,1.3,1.92,1.3c1.06,0,1.92-0.88,1.92-1.3v-17.99c0-0.42-0.86-1.22-1.92-1.22
	C112.32,286.21,111.45,287.01,111.45,287.43z M49.49,319.24v-2.68l32.84-8.37l29.13,10.24v0.81H49.49z M424.74,546.99
	c-0.53-0.92-0.08-2.17,0.28-2.38l4.36-2.52l-26.73-57.04c0-0.66,0.71-2.21,1.67-2.76c1.09-0.63,2.86-0.67,3.35-0.14l44.05,47.04
	l3.65-2.11c0.36-0.21,1.77-0.03,2.3,0.89c0.53,0.92-0.01,2.23-0.37,2.44l-14.05,8.11c-0.36,0.21-1.67-0.03-2.2-0.95
	c-0.53-0.92-0.08-2.17,0.28-2.38l4.15-2.4l-30.3-31.3c-0.21-0.22-0.57,0.03-0.44,0.3l18.04,38.33l3.07-1.77
	c0.36-0.21,1.77-0.03,2.3,0.89c0.53,0.92-0.01,2.23-0.37,2.44l-10.82,6.25C426.58,548.15,425.27,547.91,424.74,546.99z
	 M284.26,507.58c0-1.06,0.88-1.92,1.3-1.92h19.41c0.42,0,1.36,0.86,1.36,1.92s-0.94,1.92-1.36,1.92h-5.89v60.47h0.03l0,0h5.04
	l5.37-62.76c0.33-0.57,1.72-1.56,2.83-1.56c1.26,0,2.82,0.85,2.97,1.56l14.63,62.76h4.22c0.42,0,1.54,0.86,1.54,1.92
	c0,1.06-1.12,1.92-1.54,1.92h-16.23c-0.42,0-1.43-0.86-1.43-1.92c0-1.06,1.02-1.92,1.43-1.92h4.8l-10.59-42.26
	c-0.07-0.3-0.51-0.26-0.53,0.04l-3.54,42.22h3.54c0.42,0,1.54,0.86,1.54,1.92c0,1.06-1.12,1.92-1.54,1.92l-26.06,0
	c-0.42,0-1.3-0.86-1.3-1.92c0-1.06,0.88-1.92,1.3-1.92h5.94V509.5h-5.94C285.14,509.5,284.26,508.64,284.26,507.58z M370.05,14.36
	l5.34,1.14l-3.58,16.86l-5.34-1.14L370.05,14.36z M337.01,26.85l5.43,0.57l1.8-17.14l-5.43-0.57L337.01,26.85z M305.63,25.57h8.74
	V8.34h-8.74V25.57z M155.39,50.94L164,65.87l7.57-4.37l-8.62-14.93L155.39,50.94z M65.87,164l-14.93-8.62l-4.37,7.57l14.93,8.62
	L65.87,164z M25.57,305.63H8.34v8.74h17.23V305.63z M61.5,448.43l-14.93,8.62l4.37,7.57L65.87,456L61.5,448.43z M155.39,569.06
	l7.57,4.37l8.62-14.92l-7.57-4.37L155.39,569.06z M305.63,611.66h8.74v-17.23h-8.74V611.66z M448.43,558.5l8.62,14.92l7.57-4.37
	L456,554.13L448.43,558.5z M554.13,456l14.92,8.62l4.37-7.57l-14.92-8.62L554.13,456z M594.42,305.63v8.74h17.23v-8.74H594.42z
	 M558.5,171.57l14.92-8.62l-4.37-7.57L554.13,164L558.5,171.57z M448.43,61.5l7.57,4.37l8.62-14.93l-7.57-4.37L448.43,61.5z
	 M275.75,10.28l1.8,17.14l5.43-0.57l-1.8-17.14L275.75,10.28z M244.61,15.5l3.58,16.86l5.34-1.14l-3.58-16.86L244.61,15.5z
	 M214.19,23.95l5.33,16.39l5.19-1.69l-5.33-16.39L214.19,23.95z M184.81,35.53l7.01,15.74l4.99-2.22l-7.01-15.74L184.81,35.53z
	 M130.48,67.56l10.13,13.94l4.42-3.21L134.9,64.35L130.48,67.56z M106.12,87.65l11.53,12.81l4.06-3.65L110.18,84L106.12,87.65z
	 M84,110.18l12.81,11.53l3.65-4.06l-12.81-11.53L84,110.18z M64.35,134.9l13.94,10.13l3.21-4.42l-13.94-10.13L64.35,134.9z
	 M51.28,191.82l-15.74-7.01l-2.22,4.99l15.74,7.01L51.28,191.82z M40.34,219.51l-16.39-5.33l-1.69,5.19l16.39,5.33L40.34,219.51z
	 M32.36,248.19l-16.86-3.58l-1.14,5.34l16.86,3.58L32.36,248.19z M27.42,277.55l-17.14-1.8l-0.57,5.43l17.14,1.8L27.42,277.55z
	 M26.85,337.01l-17.14,1.8l0.57,5.43l17.14-1.8L26.85,337.01z M31.22,366.46l-16.86,3.58l1.14,5.34l16.86-3.58L31.22,366.46z
	 M38.65,395.29l-16.39,5.33l1.69,5.2l16.39-5.33L38.65,395.29z M49.05,423.19l-15.74,7.01l2.22,4.99l15.74-7.01L49.05,423.19z
	 M64.35,485.1l3.21,4.42l13.94-10.13l-3.21-4.42L64.35,485.1z M84,509.82l3.65,4.06l12.81-11.53l-3.65-4.06L84,509.82z
	 M106.12,532.35l4.06,3.65l11.53-12.81l-4.06-3.65L106.12,532.35z M130.48,552.44l4.42,3.21l10.13-13.94l-4.42-3.21L130.48,552.44z
	 M184.81,584.47l4.99,2.22l7.01-15.74l-4.99-2.22L184.81,584.47z M214.19,596.05l5.19,1.69l5.33-16.39l-5.19-1.69L214.19,596.05z
	 M244.61,604.5l5.34,1.14l3.58-16.86l-5.34-1.14L244.61,604.5z M275.75,609.72l5.43,0.57l1.8-17.14l-5.43-0.57L275.75,609.72z
	 M337.01,593.15l1.8,17.14l5.43-0.57l-1.8-17.14L337.01,593.15z M366.46,588.78l3.58,16.86l5.34-1.14l-3.58-16.86L366.46,588.78z
	 M395.29,581.35l5.33,16.39l5.2-1.69l-5.33-16.39L395.29,581.35z M423.19,570.95l7.01,15.74l4.99-2.22l-7.01-15.74L423.19,570.95z
	 M474.97,541.71l10.13,13.94l4.42-3.21l-10.13-13.94L474.97,541.71z M498.29,523.2L509.82,536l4.06-3.65l-11.53-12.81L498.29,523.2z
	 M519.54,502.35l12.81,11.53l3.65-4.06l-12.81-11.53L519.54,502.35z M538.5,479.39l13.94,10.13l3.21-4.42l-13.94-10.13L538.5,479.39
	z M568.72,428.18l15.74,7.01l2.22-4.99l-15.74-7.01L568.72,428.18z M579.66,400.49l16.39,5.33l1.69-5.2l-16.39-5.33L579.66,400.49z
	 M587.64,371.81l16.86,3.58l1.14-5.34l-16.86-3.58L587.64,371.81z M592.58,342.45l17.14,1.8l0.57-5.43l-17.14-1.8L592.58,342.45z
	 M593.15,282.99l17.14-1.8l-0.57-5.43l-17.14,1.8L593.15,282.99z M588.78,253.54l16.86-3.58l-1.14-5.34l-16.86,3.58L588.78,253.54z
	 M581.35,224.71l16.39-5.33l-1.69-5.19l-16.39,5.33L581.35,224.71z M570.95,196.81l15.74-7.01l-2.22-4.99l-15.74,7.01L570.95,196.81
	z M555.65,134.9l-3.21-4.42l-13.94,10.13l3.21,4.42L555.65,134.9z M519.54,117.65l3.65,4.06L536,110.18l-3.65-4.06L519.54,117.65z
	 M498.29,96.8l4.06,3.65l11.53-12.81L509.82,84L498.29,96.8z M474.97,78.29l4.42,3.21l10.13-13.94l-4.42-3.21L474.97,78.29z
	 M423.19,49.05l4.99,2.22l7.01-15.74l-4.99-2.22L423.19,49.05z M395.29,38.65l5.2,1.69l5.33-16.39l-5.2-1.69L395.29,38.65z
	 M310,134.92c-30.02,0-54.45-24.42-54.45-54.45c0-30.02,24.42-54.45,54.45-54.45c30.02,0,54.45,24.42,54.45,54.45
	C364.45,110.49,340.02,134.92,310,134.92z M310,29.85c-27.91,0-50.62,22.71-50.62,50.62s22.71,50.62,50.62,50.62
	c27.91,0,50.62-22.71,50.62-50.62S337.91,29.85,310,29.85z M195.32,165.69c-4.73,0-9.49-0.62-14.18-1.88
	c-14.05-3.76-25.79-12.77-33.06-25.37c-7.27-12.59-9.2-27.27-5.44-41.31s12.77-25.79,25.37-33.06c12.59-7.27,27.27-9.2,41.32-5.44
	c14.05,3.76,25.79,12.77,33.06,25.37l0,0c7.27,12.59,9.2,27.27,5.44,41.31s-12.77,25.79-25.37,33.06
	C214.07,163.22,204.76,165.69,195.32,165.69z M195.15,60.58c-8.77,0-17.43,2.3-25.23,6.8c-11.71,6.76-20.09,17.68-23.59,30.74
	c-3.5,13.06-1.7,26.7,5.06,38.41c6.76,11.71,17.68,20.09,30.74,23.59c13.06,3.5,26.7,1.7,38.41-5.06s20.09-17.68,23.59-30.74
	s1.7-26.7-5.06-38.41l0,0c-6.76-11.71-17.68-20.09-30.74-23.59C203.98,61.15,199.55,60.58,195.15,60.58z M111.13,249.67
	c-9.23,0-18.58-2.35-27.13-7.28c-12.59-7.27-21.6-19.01-25.37-33.06c-3.76-14.05-1.83-28.72,5.44-41.31
	c15.01-26,48.37-34.94,74.37-19.93l0,0c26,15.01,34.94,48.38,19.93,74.38C148.3,239.9,129.96,249.67,111.13,249.67z M111.31,144.62
	c-17.51,0-34.56,9.08-43.93,25.3c-6.76,11.71-8.56,25.35-5.06,38.41c3.5,13.06,11.88,23.98,23.59,30.74
	c24.17,13.96,55.2,5.65,69.15-18.53c13.96-24.17,5.64-55.2-18.53-69.15C128.58,146.8,119.89,144.62,111.31,144.62z M80.47,364.45
	c-30.02,0-54.45-24.42-54.45-54.45c0-30.02,24.42-54.45,54.45-54.45c30.02,0,54.45,24.42,54.45,54.45
	C134.92,340.02,110.49,364.45,80.47,364.45z M80.47,259.38c-27.91,0-50.62,22.71-50.62,50.62s22.71,50.62,50.62,50.62
	s50.62-22.71,50.62-50.62S108.38,259.38,80.47,259.38z M111.31,479.2c-18.83,0-37.17-9.76-47.24-27.21
	c-15.01-26-6.07-59.36,19.93-74.38l0,0c26-15.01,59.37-6.07,74.38,19.93c15.01,26,6.07,59.36-19.93,74.37
	C129.89,476.85,120.54,479.2,111.31,479.2z M85.91,380.92c-24.17,13.96-32.49,44.98-18.53,69.15
	c13.96,24.17,44.98,32.49,69.15,18.53c11.71-6.76,20.09-17.68,23.59-30.74s1.7-26.7-5.06-38.41
	C141.11,375.28,110.08,366.97,85.91,380.92L85.91,380.92z M195.15,563.25c-9.44,0-18.75-2.47-27.14-7.32
	c-12.59-7.27-21.6-19.01-25.37-33.06c-3.76-14.05-1.83-28.72,5.44-41.31c7.27-12.59,19.01-21.6,33.06-25.37
	c14.05-3.76,28.72-1.83,41.31,5.44c12.59,7.27,21.6,19.01,25.37,33.06s1.83,28.72-5.44,41.32c-7.27,12.59-19.01,21.6-33.06,25.37
	C204.64,562.63,199.88,563.25,195.15,563.25z M195.32,458.13c-4.4,0-8.82,0.58-13.18,1.75c-13.06,3.5-23.98,11.88-30.74,23.59
	c-6.76,11.71-8.56,25.35-5.06,38.41s11.88,23.98,23.59,30.74c11.71,6.76,25.35,8.56,38.41,5.06c13.06-3.5,23.98-11.88,30.74-23.59
	c6.76-11.71,8.56-25.35,5.06-38.41s-11.88-23.98-23.59-30.74C212.75,460.44,204.09,458.13,195.32,458.13z M310,593.98
	c-30.02,0-54.45-24.42-54.45-54.45c0-30.02,24.42-54.45,54.45-54.45c30.02,0,54.45,24.42,54.45,54.45
	C364.45,569.55,340.02,593.98,310,593.98z M310,488.91c-27.91,0-50.62,22.71-50.62,50.62c0,27.91,22.71,50.62,50.62,50.62
	c27.91,0,50.62-22.71,50.62-50.62C360.62,511.62,337.91,488.91,310,488.91z M424.85,563.25c-4.73,0-9.49-0.62-14.18-1.88
	c-14.05-3.76-25.79-12.77-33.06-25.37l0,0c-7.27-12.59-9.2-27.27-5.44-41.32s12.77-25.79,25.37-33.06
	c12.6-7.27,27.27-9.2,41.32-5.44c14.05,3.76,25.79,12.77,33.06,25.37c7.27,12.59,9.2,27.27,5.44,41.31
	c-3.76,14.05-12.77,25.79-25.37,33.06C443.6,560.77,434.29,563.25,424.85,563.25z M424.68,458.13c-8.77,0-17.43,2.3-25.23,6.8
	c-11.71,6.76-20.09,17.68-23.59,30.74c-3.5,13.06-1.7,26.7,5.06,38.41l0,0c6.76,11.71,17.68,20.09,30.74,23.59
	c13.06,3.5,26.7,1.7,38.41-5.06c11.71-6.76,20.09-17.68,23.59-30.74c3.5-13.06,1.7-26.7-5.06-38.41
	c-6.76-11.71-17.68-20.09-30.74-23.59C433.51,458.71,429.08,458.13,424.68,458.13z M508.69,479.2c-9.23,0-18.58-2.34-27.13-7.28l0,0
	c-26-15.01-34.94-48.38-19.93-74.37c7.27-12.59,19.01-21.6,33.06-25.37c14.05-3.76,28.72-1.83,41.32,5.44
	c26,15.01,34.94,48.38,19.93,74.38C545.86,469.43,527.52,479.2,508.69,479.2z M483.47,468.61c24.18,13.96,55.2,5.64,69.15-18.53
	c13.96-24.17,5.64-55.2-18.53-69.15c-11.71-6.76-25.35-8.56-38.41-5.06c-13.06,3.5-23.98,11.88-30.74,23.59
	C450.98,423.63,459.29,454.65,483.47,468.61L483.47,468.61z M539.53,364.45c-30.02,0-54.45-24.42-54.45-54.45
	c0-30.02,24.42-54.45,54.45-54.45c30.02,0,54.45,24.42,54.45,54.45C593.98,340.02,569.55,364.45,539.53,364.45z M539.53,259.38
	c-27.91,0-50.62,22.71-50.62,50.62s22.71,50.62,50.62,50.62c27.91,0,50.62-22.71,50.62-50.62S567.44,259.38,539.53,259.38z
	 M508.87,249.7c-4.73,0-9.49-0.62-14.18-1.88c-14.05-3.76-25.79-12.77-33.06-25.37c-15.01-26-6.07-59.36,19.93-74.38
	c26-15.01,59.36-6.07,74.38,19.93c7.27,12.59,9.2,27.27,5.44,41.31c-3.76,14.05-12.77,25.79-25.37,33.06
	C527.61,247.23,518.3,249.7,508.87,249.7z M508.69,144.62c-8.58,0-17.27,2.18-25.23,6.77c-24.17,13.96-32.48,44.98-18.53,69.15
	c6.76,11.71,17.68,20.09,30.74,23.59c13.06,3.5,26.7,1.7,38.41-5.06l0,0c24.17-13.96,32.49-44.98,18.53-69.15
	C543.25,153.7,526.2,144.62,508.69,144.62z M424.68,165.67c-9.23,0-18.58-2.35-27.13-7.28c-26-15.01-34.94-48.38-19.93-74.38
	c15.01-26,48.38-34.94,74.38-19.93c26,15.01,34.94,48.38,19.93,74.38C461.85,155.9,443.51,165.67,424.68,165.67z M424.86,60.62
	c-17.51,0-34.56,9.08-43.93,25.3c-13.96,24.17-5.64,55.2,18.53,69.15c24.18,13.96,55.2,5.64,69.15-18.53
	c13.96-24.17,5.64-55.2-18.53-69.15C442.13,62.8,433.44,60.62,424.86,60.62z"/>
<path id="Rings" class="st4" d="M310,156.33c-84.73,0-153.67,68.94-153.67,153.67c0,84.73,68.94,153.67,153.67,153.67
	c84.73,0,153.67-68.94,153.67-153.67C463.67,225.27,394.73,156.33,310,156.33z M310,459.3c-82.32,0-149.3-66.98-149.3-149.3
	c0-82.32,66.98-149.3,149.3-149.3c82.32,0,149.3,66.98,149.3,149.3C459.3,392.32,392.32,459.3,310,459.3z M310,488.66
	c-98.52,0-178.66-80.15-178.66-178.66c0-98.52,80.15-178.66,178.66-178.66c98.52,0,178.66,80.15,178.66,178.66
	C488.66,408.52,408.52,488.66,310,488.66z M310,135.71c-96.11,0-174.29,78.19-174.29,174.29c0,96.11,78.19,174.29,174.29,174.29
	S484.29,406.11,484.29,310C484.29,213.89,406.11,135.71,310,135.71z M309.54,595.56c-49.46,0-98.27-12.97-142.25-38.36
	c-66.03-38.12-113.26-99.67-132.99-173.32c-19.73-73.64-9.61-150.56,28.51-216.59S162.48,54.03,236.12,34.29
	c73.64-19.73,150.57-9.61,216.59,28.52c66.03,38.12,113.26,99.67,132.99,173.32c19.73,73.64,9.61,150.56-28.51,216.59
	s-99.67,113.26-173.32,132.99C359.29,592.29,334.33,595.56,309.54,595.56z M310.47,28.99c-97.21,0-191.88,50.41-243.88,140.48
	c-37.54,65.02-47.51,140.76-28.08,213.28c19.43,72.52,65.94,133.13,130.95,170.66c65.02,37.54,140.76,47.51,213.28,28.08
	c72.52-19.43,133.13-65.94,170.66-130.96c77.49-134.22,31.34-306.45-102.88-383.94C406.39,41.1,358.12,28.99,310.47,28.99z
	 M310,6.16c81.16,0,157.46,31.61,214.85,88.99c57.39,57.39,88.99,133.69,88.99,214.85s-31.61,157.46-88.99,214.85
	c-57.39,57.39-133.69,88.99-214.85,88.99c-81.16,0-157.46-31.61-214.85-88.99C37.76,467.46,6.16,391.16,6.16,310
	c0-81.16,31.6-157.46,88.99-214.85C152.54,37.76,228.84,6.16,310,6.16z M310,609.47c165.13,0,299.47-134.34,299.47-299.47
	S475.13,10.53,310,10.53C144.87,10.53,10.53,144.87,10.53,310S144.87,609.47,310,609.47z M310,435.15c-5.53,0-10.41-3.52-12.17-8.76
	c-0.82-1.77-1.23-3.65-1.23-5.58c0-4.04,1.84-7.87,4.97-10.4c-0.39-14.87-2.47-30.34-5.87-43.67c-0.08-0.32-0.35-0.58-0.71-0.68
	c-0.4-0.11-0.76-0.02-0.99,0.22c-9.6,9.84-19.14,22.21-26.92,34.89c1.44,3.76,1.12,7.99-0.9,11.5c-1.9,3.3-5.14,5.64-8.87,6.42
	c-3.72,0.78-7.64-0.08-10.73-2.36c-4.89-3.6-6.73-10.28-4.39-15.88c1.82-4.33,5.71-7.37,10.29-8.1
	c7.1-13.08,13.04-27.53,16.76-40.77c0.09-0.32-0.02-0.68-0.27-0.94c-0.28-0.28-0.64-0.39-0.96-0.3
	c-13.24,3.72-27.69,9.66-40.77,16.76c-0.63,3.98-3.02,7.49-6.52,9.51c-3.3,1.9-7.27,2.31-10.89,1.12c-3.62-1.19-6.57-3.89-8.11-7.4
	c-2.43-5.56-0.69-12.27,4.14-15.95c3.74-2.85,8.63-3.53,12.96-1.87c12.68-7.78,25.04-17.31,34.89-26.91
	c0.24-0.23,0.33-0.6,0.23-0.95c-0.11-0.4-0.37-0.67-0.69-0.76c-13.32-3.39-28.8-5.47-43.67-5.86c-2.54,3.13-6.36,4.97-10.4,4.97
	c-3.81,0-7.45-1.63-9.99-4.47c-2.54-2.84-3.75-6.65-3.32-10.47c0.68-6.03,5.54-10.97,11.56-11.74c4.66-0.6,9.24,1.25,12.16,4.86
	c14.87-0.39,30.34-2.47,43.67-5.87c0.32-0.08,0.58-0.35,0.68-0.71c0.11-0.4,0.02-0.76-0.22-1c-9.84-9.6-22.21-19.14-34.89-26.91
	c-3.76,1.44-7.99,1.12-11.5-0.9c-3.3-1.9-5.64-5.14-6.42-8.87c-0.78-3.73,0.08-7.64,2.36-10.73c3.6-4.89,10.28-6.73,15.88-4.39
	c4.33,1.82,7.37,5.71,8.1,10.29c13.08,7.1,27.53,13.04,40.77,16.76c0.32,0.09,0.68-0.02,0.94-0.27c0.28-0.28,0.39-0.64,0.3-0.96
	c-3.72-13.24-9.66-27.69-16.76-40.77c-3.98-0.63-7.49-3.02-9.51-6.52c-1.9-3.3-2.31-7.27-1.12-10.89c1.19-3.62,3.89-6.57,7.41-8.11
	c5.57-2.43,12.27-0.69,15.95,4.14c2.85,3.74,3.53,8.63,1.87,12.96c7.78,12.68,17.31,25.05,26.91,34.89c0.23,0.24,0.6,0.33,0.95,0.23
	c0.4-0.11,0.67-0.37,0.76-0.69c3.4-13.33,5.47-28.8,5.87-43.67c-3.13-2.54-4.97-6.36-4.97-10.4c0-3.81,1.63-7.45,4.47-9.99
	c2.84-2.54,6.65-3.75,10.47-3.32c6.04,0.68,10.97,5.54,11.74,11.56c0.59,4.66-1.26,9.24-4.86,12.16
	c0.39,14.87,2.47,30.34,5.86,43.67c0.08,0.32,0.35,0.58,0.71,0.68c0.4,0.11,0.76,0.02,0.99-0.22c9.6-9.84,19.14-22.2,26.92-34.89
	c-1.44-3.76-1.12-7.99,0.9-11.5c1.9-3.3,5.13-5.64,8.87-6.42c3.73-0.78,7.64,0.08,10.73,2.36c4.89,3.6,6.73,10.28,4.39,15.88
	c-1.81,4.33-5.71,7.37-10.29,8.1c-7.1,13.08-13.04,27.53-16.76,40.77c-0.09,0.33,0.01,0.68,0.27,0.94c0.28,0.28,0.64,0.39,0.96,0.3
	c13.24-3.72,27.69-9.66,40.77-16.76c0.63-3.98,3.02-7.49,6.52-9.51c3.3-1.9,7.26-2.31,10.89-1.12c3.62,1.19,6.57,3.89,8.11,7.41
	c2.43,5.57,0.69,12.27-4.14,15.95c-3.74,2.84-8.63,3.53-12.96,1.87c-12.68,7.78-25.05,17.31-34.89,26.91
	c-0.24,0.23-0.33,0.59-0.23,0.95c0.11,0.4,0.37,0.67,0.69,0.76c13.33,3.4,28.8,5.47,43.67,5.87c2.92-3.61,7.5-5.46,12.16-4.86
	c6.02,0.77,10.88,5.71,11.56,11.74c0.43,3.81-0.78,7.63-3.32,10.47c-2.54,2.84-6.18,4.47-9.99,4.47c-4.04,0-7.87-1.84-10.4-4.97
	c-14.87,0.39-30.35,2.47-43.67,5.86c-0.32,0.08-0.58,0.35-0.68,0.71c-0.11,0.4-0.02,0.77,0.22,1c9.84,9.6,22.2,19.14,34.89,26.91
	c3.76-1.44,8-1.12,11.5,0.9c3.3,1.91,5.64,5.14,6.42,8.87c0.78,3.73-0.08,7.64-2.36,10.72c-3.6,4.89-10.28,6.73-15.88,4.39
	c-4.33-1.82-7.37-5.71-8.1-10.29c-13.08-7.1-27.53-13.04-40.77-16.76c-0.32-0.09-0.68,0.01-0.94,0.27c-0.28,0.29-0.39,0.64-0.3,0.96
	c3.72,13.24,9.66,27.69,16.76,40.77c3.98,0.63,7.49,3.02,9.51,6.52c1.91,3.3,2.32,7.27,1.12,10.89c-1.19,3.62-3.89,6.57-7.41,8.11
	c-5.57,2.43-12.27,0.69-15.95-4.14c-2.85-3.74-3.53-8.63-1.87-12.96c-7.78-12.68-17.31-25.05-26.91-34.89
	c-0.24-0.24-0.59-0.33-0.95-0.23c-0.4,0.11-0.67,0.37-0.76,0.69c-3.39,13.32-5.47,28.8-5.87,43.67c3.13,2.54,4.97,6.36,4.97,10.4
	c0,1.93-0.41,3.81-1.23,5.58C320.41,431.64,315.53,435.15,310,435.15z M294.68,362.74c0.37,0,0.75,0.05,1.12,0.15
	c1.55,0.41,2.71,1.57,3.09,3.05c3.52,13.81,5.64,29.88,5.99,45.24l0.02,0.87l-0.71,0.5c-2.69,1.9-4.3,4.99-4.3,8.27
	c0,1.48,0.32,2.92,0.96,4.28l0.07,0.19c1.29,3.94,4.94,6.59,9.08,6.59c4.14,0,7.8-2.65,9.08-6.59l0.07-0.19
	c0.64-1.36,0.96-2.8,0.96-4.28c0-3.28-1.61-6.37-4.3-8.27l-0.71-0.5l0.02-0.87c0.34-15.37,2.47-31.44,5.99-45.24
	c0.37-1.47,1.54-2.64,3.04-3.04c1.54-0.41,3.13,0.01,4.18,1.1c9.95,10.2,19.82,23.05,27.81,36.19l0.45,0.74l-0.36,0.79
	c-1.58,3.42-1.14,7.41,1.15,10.42c2.77,3.64,7.83,4.95,12.03,3.12c2.7-1.18,4.69-3.36,5.6-6.13c0.9-2.74,0.59-5.73-0.85-8.23
	c-1.64-2.84-4.57-4.71-7.86-5.01l-0.87-0.08l-0.42-0.76c-7.39-13.48-13.58-28.47-17.44-42.19c-0.41-1.46,0.02-3.05,1.11-4.14
	c1.12-1.12,2.71-1.54,4.16-1.13c13.72,3.85,28.7,10.05,42.19,17.44l0.76,0.42l0.08,0.87c0.34,3.75,2.72,6.99,6.21,8.45
	c4.22,1.77,9.26,0.38,11.98-3.31c1.75-2.37,2.39-5.25,1.79-8.11c-0.59-2.82-2.36-5.26-4.85-6.7c-2.84-1.64-6.32-1.79-9.31-0.41
	l-0.79,0.36l-0.74-0.45c-13.14-7.98-25.99-17.85-36.19-27.81c-1.08-1.06-1.51-2.64-1.11-4.14c0.41-1.55,1.57-2.71,3.05-3.09
	c13.8-3.52,29.87-5.64,45.24-5.99l0.87-0.02l0.5,0.71c1.9,2.69,4.99,4.3,8.27,4.3c2.88,0,5.63-1.23,7.55-3.38
	c1.94-2.18,2.83-4.99,2.51-7.92c-0.51-4.55-4.18-8.28-8.72-8.86c-3.74-0.47-7.43,1.13-9.6,4.21l-0.5,0.71l-0.87-0.02
	c-15.37-0.34-31.43-2.47-45.24-5.99c-1.47-0.38-2.64-1.54-3.04-3.04c-0.41-1.54,0.02-3.12,1.1-4.18
	c10.2-9.95,23.05-19.83,36.19-27.81l0.75-0.45l0.79,0.37c3.42,1.58,7.41,1.14,10.42-1.15c3.64-2.77,4.95-7.83,3.12-12.03
	c-1.18-2.7-3.36-4.69-6.13-5.61c-2.73-0.9-5.73-0.59-8.22,0.85c-2.84,1.64-4.71,4.58-5.01,7.85l-0.08,0.87l-0.76,0.42
	c-13.49,7.39-28.47,13.58-42.19,17.44c-1.46,0.41-3.05-0.02-4.15-1.11c-1.12-1.12-1.54-2.7-1.13-4.17
	c3.86-13.72,10.05-28.7,17.44-42.19l0.42-0.77l0.87-0.08c3.75-0.34,6.99-2.72,8.45-6.21c1.77-4.22,0.38-9.26-3.31-11.98
	c-2.37-1.75-5.25-2.38-8.11-1.79c-2.82,0.59-5.26,2.36-6.7,4.85c-1.64,2.84-1.79,6.32-0.41,9.31l0.37,0.79l-0.45,0.75
	c-7.98,13.14-17.86,25.99-27.81,36.19c-1.06,1.08-2.64,1.51-4.14,1.11c-1.55-0.41-2.71-1.57-3.09-3.05
	c-3.52-13.81-5.64-29.88-5.99-45.24l-0.02-0.87l0.71-0.5c3.08-2.17,4.69-5.85,4.21-9.6c-0.58-4.54-4.3-8.2-8.86-8.71
	c-2.93-0.33-5.74,0.56-7.92,2.51c-2.15,1.92-3.38,4.67-3.38,7.55c0,3.28,1.61,6.37,4.3,8.27l0.71,0.5l-0.02,0.87
	c-0.34,15.36-2.47,31.43-5.99,45.24c-0.38,1.47-1.54,2.64-3.04,3.04c-1.54,0.41-3.12-0.02-4.18-1.1
	c-9.95-10.2-19.83-23.05-27.81-36.19l-0.45-0.75l0.37-0.79c1.58-3.42,1.14-7.41-1.15-10.42c-2.77-3.64-7.83-4.95-12.03-3.12
	c-2.7,1.18-4.69,3.36-5.61,6.13c-0.9,2.73-0.59,5.73,0.85,8.22c1.64,2.84,4.57,4.71,7.86,5.01l0.87,0.08l0.42,0.76
	c7.39,13.48,13.58,28.47,17.44,42.19c0.41,1.46-0.02,3.05-1.11,4.14c-1.12,1.12-2.7,1.55-4.16,1.13
	c-13.72-3.86-28.71-10.05-42.19-17.44l-0.77-0.42l-0.08-0.87c-0.34-3.75-2.72-6.99-6.21-8.45c-4.22-1.77-9.26-0.37-11.98,3.31
	c-1.75,2.37-2.39,5.25-1.79,8.11c0.59,2.82,2.36,5.26,4.85,6.7c2.84,1.64,6.32,1.79,9.31,0.41l0.79-0.37l0.75,0.45
	c13.14,7.98,25.99,17.85,36.19,27.81c1.08,1.06,1.51,2.64,1.11,4.14c-0.41,1.55-1.57,2.71-3.05,3.09
	c-13.81,3.52-29.88,5.64-45.24,5.99l-0.87,0.02l-0.5-0.71c-2.17-3.08-5.85-4.69-9.6-4.21c-4.54,0.58-8.2,4.3-8.71,8.86
	c-0.33,2.93,0.56,5.74,2.51,7.92c1.92,2.15,4.67,3.38,7.55,3.38c3.28,0,6.37-1.61,8.27-4.3l0.5-0.71l0.87,0.02
	c15.37,0.34,31.44,2.47,45.24,5.99c1.47,0.37,2.64,1.54,3.03,3.04c0.41,1.54-0.02,3.13-1.1,4.18c-10.2,9.95-23.05,19.83-36.19,27.8
	l-0.75,0.45l-0.79-0.36c-3.42-1.58-7.41-1.14-10.42,1.15c-3.64,2.77-4.95,7.83-3.12,12.03c1.18,2.7,3.36,4.69,6.13,5.6
	c2.73,0.9,5.73,0.59,8.22-0.85c2.84-1.64,4.71-4.57,5.01-7.86l0.08-0.87l0.76-0.42c13.49-7.39,28.47-13.59,42.19-17.44
	c1.46-0.41,3.05,0.01,4.14,1.11c1.12,1.12,1.54,2.71,1.13,4.16c-3.86,13.72-10.05,28.71-17.44,42.19l-0.42,0.76l-0.87,0.08
	c-3.75,0.34-6.99,2.72-8.45,6.21c-1.77,4.22-0.37,9.26,3.31,11.98c2.37,1.75,5.26,2.39,8.11,1.79c2.82-0.59,5.26-2.36,6.7-4.85
	c1.64-2.84,1.79-6.32,0.41-9.31l-0.37-0.79l0.45-0.75c7.98-13.14,17.85-25.99,27.81-36.19
	C292.45,363.18,293.55,362.74,294.68,362.74z"/>
</svg>