<?xml version="1.0" encoding="utf-8"?>
<!-- Generator: Adobe Illustrator 19.2.1, SVG Export Plug-In . SVG Version: 6.00 Build 0)  -->
<svg version="1.1" id="Hour_Hand" xmlns="http://www.w3.org/2000/svg" xmlns:xlink="http://www.w3.org/1999/xlink" x="0px" y="0px"
	 viewBox="0 0 620 620" style="enable-background:new 0 0 620 620;" xml:space="preserve">
<style type="text/css">
	.st0{opacity:0.06;}
	.st1{fill:#B89D80;}
	.st2{opacity:0.1;fill:#FFFFFF;}
	.st3{opacity:0.2;fill:#FFFFFF;}
</style>
<path id="Drop_3_3_" class="st0" d="M310,82.32c-2.6,0-4.83,1.95-5.18,4.52L281.07,261.5c-0.3,2.22,0.17,4.5,1.32,6.43l3.17,5.29
	c2.88,4.81,4.54,10.32,4.79,15.93c0.14,3.06-0.67,6.37-2.4,9.83c-1.67,3.33-2.54,6.92-2.6,10.66c-0.01,0.11-0.01,0.22-0.01,0.33
	c0,0.02,0,0.03,0,0.04c0,13.6,11.06,24.66,24.66,24.66s24.66-11.06,24.66-24.66c0-0.03,0-0.06,0-0.1c0-0.08,0-0.17-0.01-0.25
	c-0.05-3.75-0.93-7.34-2.6-10.68c-1.73-3.46-2.54-6.77-2.4-9.83c0.26-5.61,1.91-11.11,4.79-15.93l3.17-5.29
	c1.15-1.92,1.62-4.2,1.32-6.43L315.18,86.85C314.83,84.27,312.6,82.32,310,82.32L310,82.32z"/>
<path id="Drop_2_3_" class="st0" d="M310,83.96c-1.82,0-3.31,1.31-3.56,3.11l-23.75,174.65c-0.25,1.85,0.14,3.76,1.1,5.36l3.17,5.29
	c3.02,5.04,4.76,10.82,5.02,16.69c0.15,3.34-0.71,6.92-2.57,10.64c-1.56,3.12-2.38,6.48-2.42,9.98c-0.01,0.09-0.01,0.18-0.01,0.27
	c0,0.02,0,0.03,0,0.04c0,12.7,10.33,23.03,23.03,23.03s23.03-10.33,23.03-23.03c0-0.02,0-0.05,0-0.08c0-0.07,0-0.14-0.01-0.21
	c-0.04-3.51-0.86-6.88-2.42-10c-1.86-3.72-2.73-7.3-2.57-10.64c0.27-5.88,2.01-11.65,5.02-16.69l3.17-5.29
	c0.96-1.61,1.35-3.51,1.1-5.36L313.56,87.07C313.31,85.27,311.82,83.96,310,83.96L310,83.96z"/>
<path id="Drop_1_3_" class="st0" d="M310,85.6c-0.99,0-1.8,0.71-1.93,1.69l-23.75,174.65c-0.2,1.49,0.11,3.01,0.88,4.3l3.17,5.29
	c3.16,5.28,4.97,11.31,5.25,17.46c0.17,3.63-0.76,7.48-2.75,11.45c-1.46,2.91-2.22,6.05-2.25,9.32c-0.01,0.07-0.01,0.13-0.01,0.2
	c0,0.02,0,0.03,0,0.04c0,11.79,9.59,21.39,21.39,21.39s21.39-9.59,21.39-21.39c0-0.02,0-0.04,0-0.06c0-0.05,0-0.11,0-0.16
	c-0.03-3.28-0.79-6.42-2.25-9.33c-1.99-3.97-2.91-7.82-2.75-11.45c0.28-6.15,2.1-12.18,5.25-17.46l3.17-5.29
	c0.77-1.29,1.08-2.81,0.88-4.3L311.94,87.29C311.8,86.31,310.99,85.6,310,85.6L310,85.6z"/>
<path id="Hour_Hand_1_" class="st1" d="M330.23,270.69l3.17-5.29c0.58-0.97,0.82-2.12,0.66-3.24L310.31,87.51
	c-0.05-0.36-0.57-0.36-0.62,0l-23.75,174.65c-0.15,1.12,0.08,2.27,0.66,3.24l3.17,5.29c3.37,5.63,5.2,11.9,5.49,18.23
	c0.19,4.27-1.01,8.44-2.92,12.26c-1.32,2.63-2.06,5.59-2.08,8.72c0,0,0,0.01-0.01,0.01v0h0c0,0.03,0,0.06,0,0.1
	c0,10.91,8.84,19.75,19.75,19.75c10.91,0,19.75-8.84,19.75-19.75c0-0.03,0-0.06,0-0.1h0v0c0,0,0-0.01-0.01-0.01
	c-0.02-3.13-0.76-6.1-2.08-8.72c-1.91-3.82-3.11-7.99-2.92-12.26C325.04,282.59,326.86,276.32,330.23,270.69z"/>
<path id="Mid" class="st2" d="M334.04,263.51c-0.09,0.66-0.3,1.3-0.64,1.88l-3.17,5.29c-3.37,5.63-5.2,11.9-5.49,18.23
	c-0.19,4.27,1.01,8.44,2.92,12.26c0.17,0.34,0.33,0.68,0.48,1.03c-3.03-7.03-10.01-11.95-18.14-11.95V257.9L334.04,263.51z
	 M309.95,87.26c-0.12,0.02-0.24,0.1-0.26,0.25l-23.75,174.65c-0.06,0.45-0.04,0.9,0.02,1.35l24-5.6V87.26z"/>
<path id="Highlight_1_" class="st3" d="M334.04,263.52L334.04,263.52c0.03-0.22,0.05-0.44,0.05-0.65c0-0.23,0-0.47-0.04-0.7
	L310.31,87.51c-0.02-0.18-0.17-0.27-0.31-0.27V257.9L334.04,263.52z"/>
</svg>
