<?xml version="1.0" encoding="utf-8"?>
<!-- Generator: Adobe Illustrator 19.2.1, SVG Export Plug-In . SVG Version: 6.00 Build 0)  -->
<svg version="1.1" id="Minute_Hand" xmlns="http://www.w3.org/2000/svg" xmlns:xlink="http://www.w3.org/1999/xlink" x="0px"
	 y="0px" viewBox="0 0 620 620" style="enable-background:new 0 0 620 620;" xml:space="preserve">
<style type="text/css">
	.st0{opacity:0.06;}
	.st1{fill:#B89D80;}
	.st2{opacity:0.1;fill:#FFFFFF;}
	.st3{opacity:0.2;fill:#FFFFFF;}
</style>
<path id="Drop_3_2_" class="st0" d="M310,11.57c-2.96,0-5.37,2.22-5.61,5.17l-19.82,245.3c-0.15,1.85,0.21,3.71,1.06,5.37l3.43,6.75
	c2.16,4.24,3.45,8.8,3.83,13.55c0.34,4.13-0.58,8.66-2.72,13.46c-1.21,2.71-1.83,5.59-1.87,8.57c0,0.09-0.01,0.18-0.01,0.25
	c0,11.97,9.74,21.7,21.7,21.7c11.97,0,21.7-9.74,21.7-21.7c0-0.03,0-0.06,0-0.09c0-0.09,0-0.18-0.01-0.27
	c-0.05-2.94-0.68-5.79-1.87-8.46c-2.14-4.81-3.05-9.34-2.72-13.46c0.39-4.75,1.68-9.3,3.83-13.55l3.43-6.75
	c0.85-1.66,1.21-3.53,1.05-5.38L315.61,16.75C315.37,13.8,312.96,11.57,310,11.57L310,11.57z"/>
<path id="Drop_2_2_" class="st0" d="M310,13.21c-2.1,0-3.81,1.58-3.98,3.67l-19.82,245.3c-0.13,1.55,0.18,3.1,0.88,4.5l3.43,6.75
	c2.26,4.43,3.6,9.2,4.01,14.16c0.36,4.41-0.6,9.2-2.86,14.26c-1.12,2.51-1.7,5.18-1.73,7.94c0,0.01,0,0.01,0,0.02
	c0,0.07-0.01,0.14-0.01,0.19c0,11.06,9,20.06,20.06,20.06c11.06,0,20.06-9,20.06-20.06c0-0.02,0-0.05,0-0.07
	c0-0.08,0-0.15-0.01-0.23c-0.04-2.73-0.62-5.37-1.73-7.85c-2.25-5.06-3.21-9.86-2.86-14.26c0.4-4.96,1.75-9.72,4.01-14.16l3.43-6.75
	c0.71-1.39,1.01-2.95,0.88-4.51L313.97,16.88C313.8,14.79,312.1,13.21,310,13.21L310,13.21z"/>
<path id="Drop_1_2_" class="st0" d="M310,14.85c-1.24,0-2.24,0.93-2.34,2.16l-19.82,245.3c-0.1,1.25,0.14,2.5,0.71,3.62l3.43,6.75
	c2.35,4.63,3.76,9.59,4.18,14.77c0.38,4.68-0.63,9.75-2.99,15.06c-1.03,2.31-1.56,4.77-1.58,7.32c0,0.02,0,0.03,0,0.05
	c0,0.04,0,0.1,0,0.13c0,10.16,8.27,18.42,18.42,18.42c10.16,0,18.42-8.27,18.42-18.42c0-0.02,0-0.04,0-0.06c0-0.06,0-0.11-0.01-0.17
	c-0.03-2.52-0.56-4.96-1.58-7.25c-2.37-5.31-3.37-10.38-2.99-15.06c0.42-5.17,1.83-10.14,4.18-14.77l3.43-6.75
	c0.57-1.12,0.82-2.37,0.71-3.63L312.34,17.01C312.24,15.78,311.23,14.85,310,14.85L310,14.85z"/>
<path id="Minute_Hand_2_" class="st1" d="M326.78,309.89c-0.02-2.39-0.53-4.66-1.44-6.72c-2.23-5.01-3.57-10.4-3.13-15.86
	c0.43-5.29,1.88-10.52,4.35-15.38l3.43-6.75c0.43-0.85,0.62-1.8,0.54-2.75l-19.82-245.3c-0.07-0.87-1.35-0.87-1.42,0l-19.82,245.3
	c-0.08,0.95,0.11,1.9,0.54,2.75l3.43,6.75c2.47,4.86,3.92,10.08,4.35,15.38c0.44,5.46-0.9,10.86-3.13,15.86
	c-0.91,2.05-1.43,4.33-1.44,6.72l-0.01,0.01h0c0,0.03,0,0.06,0,0.1c0,9.27,7.52,16.79,16.79,16.79s16.79-7.52,16.79-16.79
	c0-0.03,0-0.06,0-0.1h0L326.78,309.89z"/>
<path id="Mid_1_" class="st2" d="M310,256.29l20.47,7.43c-0.09,0.5-0.24,1-0.48,1.46l-3.43,6.75c-2.47,4.86-3.92,10.08-4.35,15.38
	c-0.44,5.46,0.9,10.86,3.13,15.86c0.01,0.03,0.02,0.06,0.04,0.09c-2.59-5.92-8.5-10.06-15.37-10.06V256.29z M310.01,256.29V16.49
	c-0.34,0-0.67,0.22-0.71,0.65l-19.82,245.3c-0.04,0.43-0.01,0.86,0.06,1.29L310.01,256.29z"/>
<path id="Highlight_2_" class="st3" d="M330.47,263.73c0.07-0.42,0.1-0.86,0.06-1.29l-19.82-245.3c-0.04-0.44-0.37-0.65-0.71-0.65
	v239.8L330.47,263.73z"/>
</svg>
