<?xml version="1.0" encoding="utf-8"?>
<svg version="1.1" id="Second_HAnd" xmlns="http://www.w3.org/2000/svg" xmlns:xlink="http://www.w3.org/1999/xlink" x="0px"
	 y="0px" viewBox="0 0 620 620" style="enable-background:new 0 0 620 620;" xml:space="preserve">
<style type="text/css">
	.st0{opacity:0.06;}
	.st1{fill:#B89D80;}
	.st2{opacity:0.2;fill:#FFFFFF;}
	.st3{opacity:0.1;fill:#FFFFFF;}
	.st4{fill:#765431;}
</style>
<path id="Drop_3" class="st0" d="M310,9.98c-1.89,0-3.46,1.48-3.57,3.37l-13.66,234.59c-0.08,1.27,0.04,2.55,0.34,3.8l4.09,17.03
	c2.1,8.74,1.88,17.92-0.63,26.55l-0.02,0.07c-0.72,2.47-1.62,4.86-2.57,7.4l-0.41,1.1c-0.71,1.89-1.08,3.87-1.1,5.9
	c0,0.07-0.01,0.16-0.01,0.21c0,9.67,7.87,17.55,17.55,17.55s17.55-7.87,17.55-17.55c0-0.02,0-0.04,0-0.06c0-0.09,0-0.18-0.01-0.27
	c-0.04-1.99-0.41-3.93-1.1-5.79l-0.41-1.1c-0.95-2.53-1.85-4.93-2.57-7.4l-0.02-0.07c-2.51-8.63-2.73-17.81-0.63-26.55l4.09-17.03
	c0.3-1.25,0.41-2.53,0.33-3.81L313.57,13.36C313.46,11.47,311.89,9.98,310,9.98L310,9.98z"/>
<path id="Drop_2" class="st0" d="M310,11.08c-1.32,0-2.41,1.03-2.48,2.34l-13.66,234.59c-0.07,1.17,0.03,2.34,0.31,3.48l4.09,17.03
	c2.14,8.92,1.92,18.3-0.65,27.11l-0.02,0.07c-0.73,2.51-1.68,5.03-2.6,7.48l-0.41,1.1c-0.66,1.78-1.01,3.64-1.03,5.55l0,0
	c0,0.06-0.01,0.12-0.01,0.18c0,9.07,7.38,16.45,16.45,16.45s16.45-7.38,16.45-16.45c0-0.02,0-0.03,0-0.06c0-0.07,0-0.15-0.01-0.22
	c-0.03-1.87-0.38-3.71-1.03-5.46l-0.41-1.1c-0.92-2.44-1.87-4.97-2.6-7.48l-0.02-0.07c-2.57-8.81-2.79-18.19-0.65-27.11l4.09-17.03
	c0.27-1.14,0.38-2.32,0.31-3.49L312.48,13.42C312.41,12.11,311.32,11.08,310,11.08L310,11.08z"/>
<path id="Drop_1" class="st0" d="M310,12.17c-0.75,0-1.35,0.56-1.39,1.31l-13.66,234.59c-0.06,1.06,0.03,2.13,0.28,3.16l4.09,17.03
	c2.19,9.11,1.96,18.68-0.66,27.67l-0.02,0.07c-0.74,2.55-1.7,5.09-2.62,7.55l-0.41,1.1c-0.62,1.66-0.95,3.41-0.96,5.19
	c0,0.02,0,0.04,0,0.05h0c0,0.03,0,0.08,0,0.1c0,8.47,6.89,15.36,15.36,15.36s15.36-6.89,15.36-15.36c0-0.01,0-0.03,0-0.05
	c0-0.05,0-0.11-0.01-0.16c-0.02-1.76-0.35-3.49-0.96-5.13l-0.41-1.1c-0.92-2.46-1.88-5.01-2.62-7.56l-0.02-0.07
	c-2.62-8.99-2.85-18.56-0.66-27.67l4.09-17.03c0.25-1.04,0.34-2.1,0.28-3.17L311.39,13.48C311.35,12.73,310.75,12.17,310,12.17
	L310,12.17z"/>
<path id="Second_Hand_11_" class="st1" d="M324.27,309.9l-0.01-0.02c-0.01-1.71-0.33-3.34-0.9-4.85c-1.08-2.89-2.2-5.77-3.06-8.73
	l-0.02-0.07c-2.68-9.19-2.91-18.92-0.67-28.23l4.09-17.03c0.22-0.93,0.31-1.89,0.25-2.85L310.3,13.55c-0.02-0.38-0.58-0.38-0.6,0
	l-13.66,234.59c-0.06,0.96,0.03,1.91,0.25,2.85l4.09,17.03c2.24,9.31,2.01,19.04-0.67,28.23l-0.02,0.07
	c-0.86,2.96-1.98,5.84-3.06,8.73c-0.57,1.51-0.88,3.14-0.9,4.85l-0.01,0.02h0c0,0.03,0,0.06,0,0.1c0,7.88,6.39,14.27,14.27,14.27
	s14.27-6.39,14.27-14.27C324.27,309.97,324.26,309.94,324.27,309.9L324.27,309.9z"/>
<path id="Highlight" class="st2" d="M323.94,249.52c0.04-0.46,0.05-0.93,0.02-1.39L310.3,13.55c-0.01-0.21-0.19-0.29-0.35-0.27
	v230.29L323.94,249.52z"/>
<path id="Mid_2_" class="st3" d="M309.95,243.57l13.99,5.96c-0.04,0.49-0.12,0.98-0.23,1.45l-4.09,17.03
	c-2.24,9.31-2.01,19.04,0.67,28.23l0.02,0.07c0.8,2.76,1.83,5.45,2.84,8.14c-2.17-5.12-7.24-8.71-13.15-8.71c-0.02,0-0.03,0-0.05,0
	V243.57z M310.08,243.57V13.28c-0.16-0.03-0.34,0.05-0.35,0.27l-13.66,234.59c-0.03,0.46-0.02,0.93,0.02,1.39L310.08,243.57z"/>
<circle id="Hole" class="st4" cx="310" cy="310" r="7.13"/>
</svg>
