<?xml version="1.0" encoding="utf-8"?>
<!-- Generator: Adobe Illustrator 19.1.1, SVG Export Plug-In . SVG Version: 6.00 Build 0)  -->
<svg version="1.1" id="Liberty_Mask" xmlns="http://www.w3.org/2000/svg" xmlns:xlink="http://www.w3.org/1999/xlink" x="0px"
	 y="0px" viewBox="0 0 720 720" style="enable-background:new 0 0 720 720;" xml:space="preserve">
<path class="st0" d="M175.366,384.272v-3.399l-3.757-4.83v8.229h-4.651v-1.968l-4.294-2.862v19.693h-4.667v-11.629h-6.083v-11.628
	h-2.147v-9.84h-2.505v-8.945h-1.968v8.945h-1.431v6.619h-7.156v3.22h-2.147v5.725h-4.651v5.904h-1.431v4.115h-2.961v-28.392h-3.723
	v-14.415h-1.419v-6.487h-4.28v-7.298h-5.676v-2.703h-1.847v-2.297h-0.517l-0.17-5.135l-0.878-0.721l-0.068-5.113l-0.698-0.563
	l-0.225-5.383l-0.405-0.487v-14.875h-0.169v-4.527h-0.766v-3.536h0.619v-0.586h-1.424l-1.189-2.162h-0.698v-15.643h-0.338v-15.575
	h0.997v-0.574h-1.183v-13.413h-0.422v-7.602h-0.608v7.602h-0.422v13.413h-1.182v0.574h0.997v15.575h-0.338v15.643h-0.698
	l-1.189,2.162h-1.424v0.586h0.619v3.536h-0.766v4.527h-0.169v14.875l-0.405,0.487l-0.225,5.383l-0.698,0.563l-0.068,5.113
	l-0.878,0.721l-0.17,5.135h-0.517v2.297H91.05v2.703h-5.676v7.298h-4.28v6.487h-1.419v14.415h-3.723v30.272h-1.824v62.493h-0.15
	v-67.088h-2.415v-13.283h-0.805v-7.245h-16.64c1.682,62.58,22.153,120.47,55.976,168.241h17.249v-10.285h37.632v-6.812h36.869
	V378.19l-10.198,6.083H175.366z"/>
<path class="st0" d="M604.251,544.333c27.106-35.861,46.5-77.873,55.707-123.578v-32.589h-4.875v-22.333l-30.625-3.75l-8.625,5.375
	v14.5h-2.875l-9.75,5.125v63.975h-2.62v-18.65h-3.623v-13.82h-49.645v6.843h-4.294v-36.362h-36.764v9.124h-3.22v9.929h-9.442
	v-10.705h-1.798l-7.729-12.881h-14.039v-8.483h-4.562v-8.856h-1.208v-40.655h-2.549v40.655h-1.744v8.856h-6.306v12.881h-7.514
	v10.525l-3.27-2.848h-3.354v-5.099h-10.332v5.099h-8.319v26.701h-11.137v2.52h-2.952v-41.565h-1.744v-4.159h-2.415v-4.562h-5.635
	v-2.684h-1.342v-8.587h-1.342v8.587h-1.878v2.684h-3.623v4.562h-2.147v1.878h-6.709v2.281h-9.124v7.111h-0.403v-3.354h-2.36
	c-3.033-12.019-7.684-23.745-14.815-35.02h-1.342c-6.755,11.023-11.624,22.677-14.43,35.02h-2.879v3.354h-2.013v-3.354l-4.612-3.672
	v-21.446h-2.415v-13.283h-0.805v-7.245h-20.797v7.245h-7.38v13.283h-1.744V380H244v53h50.838v32.819H307.5v58.797h77.469v19.718
	H604.251z"/>
<path class="st1" d="M645.75,469.637V416h-5.125v-29.75h-2.5v-17.5h-0.875v17.5h-7.5v-10.125h-0.875v10.125h-6.75v-17.5h-0.875v17.5
	h-2.5l-4.625,3.107v-13.232h-0.875v13.82l-2.5,1.68V416v18.125v21.026l-5.125,2.224v52.5h-6.667l-0.125,3.625h0l-0.886,0.443v-7.187
	h-5.185l1.098-5.754l0.762-0.867h0.606c0.109,0,0.198-0.089,0.198-0.198s-0.089-0.198-0.198-0.198h-0.779l-0.445,0.478h-0.688
	l-1.159-0.635c-0.096-0.053-0.216-0.017-0.269,0.078c-0.053,0.096-0.017,0.216,0.078,0.269l1.23,0.674v0.15h-1.796v-64.478
	c0.426-0.506,1-0.636,1.65-0.394v-0.39c-0.872-0.433-1.933-0.406-3.346,0.404h-0.431v-16.474h-0.965v-3.463h-1.15v-3.265h-0.94
	v-4.428h-0.792v-3.933h-0.414l-0.921-0.842v-2.869h-0.519l-0.92-0.841v-3.595h-0.717l-0.453-4.403h-0.415l-0.347-2.226h-0.088
	v-14.627h-0.923v14.627h-0.088l-0.347,2.226h-0.415l-0.453,4.403h-0.717v3.595l-0.92,0.841h-0.519v2.869l-0.921,0.842h-0.414v3.933
	h-0.792v4.428h-0.94v3.265h-1.15v3.463h-0.965v16.474h-0.431c-1.413-0.81-2.474-0.837-3.346-0.404v0.39
	c0.649-0.242,1.224-0.112,1.65,0.394v64.478h-1.796v-0.15l1.23-0.674c0.096-0.053,0.131-0.173,0.078-0.269
	c-0.053-0.096-0.173-0.131-0.269-0.078l-1.159,0.635h-0.688l-0.445-0.478h-0.779c-0.109,0-0.198,0.089-0.198,0.198
	s0.089,0.198,0.198,0.198h0.606l0.762,0.867l1.098,5.754h-5.185v7.421h-2.441v2.698h-3.87v-3.75h-1.875v-5.875h-2.5v5.875h-0.75
	v-7.375h-6v-22h-3.75v-9.25h-2v-6h-3.75v-3.25h-3.25v-3.5h-3.25v-4.5h-14.125v-17.875h-11.875V438.5h-2.75v-6l-3-0.14V428
	l-22.875-13.375l-22.125,17.5v2.329l-2.976,1.038l-3.774-131.742l-7.733-4.063l4.483-2.437l-2.25-6.25l-10.75-2l-3.134-0.224
	c0.011-0.379,0.134-38.776,0.134-38.776l-2.5-37l-3,37.75v37.643l-5.5-0.393l-11,5.25l3.627,6.045l-6.627,0.955l-4.333,178.35v-31.1
	h-5.25v-5.25h-5V399.5l-3.75-21.25l-1.25,1l-5.5-22l-13.25,14.5l1.465,4.776c-0.575,1.051-1.319,2.398-1.995,3.622l-1.97-8.397
	l-10.75,12l0.304,63.75h-3.387l-1.917,3.417v23.458H318.75v40.375h-2.625l-12.625,3.5v3.5h-8.75v61.875h63V578h38.708v17.25h52.75
	v2.5h57.375l-0.006-6.875h44.381v-2.25h12.402C599.568,556.395,628.065,515.7,645.75,469.637z"/>
<path class="st1" d="M258.625,466.125h-4.875V423.5l-30.625-3.75l-8.625,5.375v14.5h-2.875l-9.75,5.125v13.875h-0.75v-2.5
	l-5.25-7.75H176.75l-5.375,7.125v3.125H168.5v0.625h-9l-7.125,2.066v-21.441h-15.25v-3.75h-3v3.75H131.5l-16,5v47.005l-9.375,2.538
	v-35.292h-4.875V416.5l-30.625-3.75L62,418.125v11.654c13.959,59.847,45.488,112.934,88.844,153.554h1.531v-0.167h13.5v0.167h36
	v0.167h56.75v-0.167H266V515h-7.375V466.125z"/>
<path class="st2" d="M143.924,576.667C199.276,631.868,275.651,666,360,666s160.724-34.132,216.076-89.333H143.924z"/>
<path class="st3" d="M361.625,478.544l-2.094,6.708l-2.272-1.739l-9.512,15.156l-3.443-2.662l0.568-2.84l-12.104-8.057l-3.301-6.744
	c-1.201-13.168-5.746-26.819-10.861-30.312c-1.343-4.708-5.35-6.886-10.79-7.702l-2.644-3.532c0.88-1.019,1.099-2.079,0.692-3.177
	c-1.788-0.503-3.339-1.013-3.478-1.562l-6.176-19.025l3.478-4.401c-1.88-6.68-3.321-13.308-4.259-19.877l2.769-1.704
	c-1.253-2.184-2.261-4.182-2.795-6.398c1.237-2.836,1.779-5.239,1.89-8.119l35.618-2.733l-35.778-3.124l-0.985-5.005l31.368-12.032
	l-34.145,6.886c-0.993-1.582-3.066-3.267-5.324-4.969L307,330.498l-25.485,18.173c-2.877-1.447-6.087-2.194-9.512-2.485
	l-5.182-26.55l-1.562,26.621c-3.843-0.079-7.504,0.831-11.003,2.627l-26.975-17.463l21.154,20.587
	c-2.459,1.498-4.365,3.255-5.608,5.324l-25.147,0.485c0.89-9.368-1.379-19.537-4.455-31.791c-3.033-8.798-4.867-18.039-5.608-27.685
	l0.142-13.985l-0.852-15.688l-4.401-9.37l-2.556-1.846l0.639-6.531l1.704-1.917l0.071-3.762l0.142-0.994l-0.994-0.568l1.136-1.917
	c6.506-0.021,11.969-0.519,11.429-3.762l1.952-1.881l-2.52-5.076l-0.497-1.278c-0.824-2.571,0.493-4.608,3.123-6.318l-2.13,0.213
	l1.207-1.988l-3.478,1.349l-0.071-0.923l-1.349,0.781l0.284-2.627l-3.549,1.562l-0.284-1.633l-2.769,1.846l-0.355-1.846
	l-2.556,0.142l-0.355-1.562l-0.71,0.568l0.852-5.395l-0.426-0.568v-1.065c3.7-1.384,5.259-6.686,5.732-13.967l-0.284-0.692
	c-0.264-0.475-0.299-1.047-0.091-1.549c0.716-1.732,1.326-3.232,0.695-4.308l-0.035-1.473c0.684-1.438,0.627-2.87,0.568-4.33
	c-0.029-0.727-1.342-1.2-1.863-0.621c-0.728,1.739-2.254,2.804-2.449,4.366l-1.81-3.39c-0.446-0.634-2.231-0.617-2.36,0.195
	c0.055,0.706,0.188,1.337-0.213,1.615c-4.354-0.825-6.92,1.283-7.134,4.774l-0.994,0.249c0,0-1.269-0.575-1.686-1.242
	c-0.679-1.087-1.211-2.519-3.123-1.349c-1.474,0.902-0.016,2.472,0.799,3.567c0.403,0.542-0.089,1.704-0.089,1.704
	c-6.523,6.516-7.116,11.241-1.863,16.416l-0.195,1.597l0.639,5.324l-1.349,0.426l-0.284,1.988l-1.562-0.568l-1.278-1.633
	l-0.852,1.42l-4.188-1.491l-0.568,2.485l-1.278,0.71l-2.627-1.704l0.781,2.13l-1.065,0.142l-2.485-0.994
	c0,0-0.007,0.567,0.195,0.745c2.39,2.102,4.52,4.018,2.431,6.282l-2.272,6.389l1.207,1.207l1.136,2.414
	c0.834,1.051,3.592,1.579,6.531,2.059c-0.821,0.564-1.299,1.213-1.278,1.988c0.852,1.875,1.452,3.648,1.633,5.253
	c0.679,2.142,2.603,4.268,4.898,6.389l-2.236,0.728c-2.364,1.606-3.122,3.581-1.225,5.75l1.757,0.692
	c-1.988,0.817-2.13,4.082-0.071,5.324l1.42,2.059c-2.356,1.288-2.614,3.369-1.136,6.105c1.019,3.467,2.221,6.657,4.117,8.802
	l0.426,5.466l-1.491,1.633l0.355,1.633l-0.923,1.491l0.355,1.065l0.781,1.278l-0.568,1.42l1.633-0.284l0.852,3.336l0.426,2.698
	l0.852,1.42c-0.924,22.993-1.027,45.06,6.46,58.565l1.136,11.5c-7.374,11.155-12.76,22.112-14.695,32.726
	c-0.593,10.154,1.114,18.332,5.75,23.994c2.236,0.852,4.401-0.781,6.14,1.313c0.186,0.224,1.14,0.961,1.136,1.242
	c-0.069,4.994,2.144,15.773,7.063,18.457c0,0-1.994,7.755-2.556,10.364c-0.616,2.859,1.116,2.605,2.023,4.011
	c0.79,1.225,0.434,3.074,0.248,4.437c-0.469,3.438-3.771,5.011-3.833,8.164c-0.12,1.722,0.834,3.25,2.698,4.614
	c2.007,1.122,2.28,2.599,2.556,4.33c0.34,2.136,3.692,6.026,5.573,5.892c-1.334,4.851,0.211,7.889,2.768,11.394
	c0.216,0.296,0.036,1.81,0.036,2.449c-7.836,14.579-18.164,32.054-16.611,47.846c2.007,6.487,5.898,10.535,14.695,8.235
	c-0.759,3.669-1.251,7.568-0.973,11.605c0.066,0.958-0.144,1.914-0.55,2.784c-5.05,10.832-8.258,21.295-7.989,28.062
	c0.152,3.818,1.84,6.399,3.194,10.577c0.494,1.525,0.839,3.111,1.135,4.773c41.869,25.047,90.215,40.377,141.936,42.86l-0.563-6.602
	c1.684-5.752-2.251-33.282-5.182-55.974c2.286-1.354,4.346-3.28,6.176-5.785c3.193,0.497,6.198-0.331,9.015-2.485
	c5.613-6.786,9.027-23.034,10.435-40.321l6.744-0.923c2.15-1.181,4.205-2.811,6.176-4.827c5.406-7.838,10.077-15.245,13.523-21.935
	l-4.801-7.276l7.25-12.174l-2.272-1.349l4.685-5.111L361.625,478.544z M219.321,365.611c-1.288-1.885-1.798-3.892-1.69-6.003
	l22.667,2.622c-0.517,1.695-0.789,3.294-0.666,4.738l-15.52,2.329C222.591,366.989,221.157,365.736,219.321,365.611z
	 M242.383,389.489l-0.266,0.745c-1.585,0.855-4.47,4.909-7.17,8.714l-4.064-3.62l-1.012-1.81l-0.036-2.822
	c1.118-1.863,0.621-8.874-1.047-10.08l-2.289-4.401l-0.444-3.563l14.082-0.346c0.518,2.469,1.357,4.751,2.596,6.802
	C241.886,384.893,238.55,387.803,242.383,389.489z M250.884,417.015c-0.985-0.164-1.716-0.459-1.739-1.118
	c0.472-3.553,0.973-7.027,2.076-8.838c0.487-0.009,0.994,0.183,1.526,0.639C252.3,412.107,251.756,415.787,250.884,417.015z
	 M291.596,430.769c-1.934-1.357-3.69-1.198-5.324,0c-1.615-2.875-1.116-7.969-0.231-13.08c0.563,2.472,0.82,5.756,2.609,4.987
	l1.952,1.225l1.615,5.661L291.596,430.769z"/>
</svg>
