<?xml version="1.0" encoding="utf-8"?>
<svg version="1.1" id="Design" xmlns="http://www.w3.org/2000/svg" xmlns:xlink="http://www.w3.org/1999/xlink" x="0px" y="0px" viewBox="0 0 720 720" style="enable-background:new 0 0 720 720;" xml:space="preserve">
<style type="text/css">
 .stroke1{fill:none;stroke-width:3;stroke-linejoin:round;stroke-miterlimit:10;} 
 </style>
<g class="st1">
 <path d="M634.04,294.08l25.57,3.45c1.05,5.08,1.99,10.21,2.78,15.39l-28.35-5.42 c-108.88-20.29-251.23-14.58-378.13,26.33l-11.29,3.67l-1.13-4.5l12.25-3.96C378.87,289.44,505.06,276.91,634.04,294.08z M656.23,436.99l-592.54-0.32c1.69,6.54,3.6,12.99,5.7,19.35l580.92,0.95C652.49,450.41,654.48,443.75,656.23,436.99z M172.33,358.83l-111.5,48.33l3.33,4l94.5-41.33L172.33,358.83z M634.04,334.5c-93.46-14-166.63-17.17-290.96,17.58l-18.33,5.17 l3.63,4.63l14.88-4.21c114.83-35.5,210.58-26.58,290.79-9.75l31.9,7.18c-0.08-5.1-0.29-10.18-0.61-15.22L634.04,334.5z"/>
 <path class="stroke1" d="M119.17,427v-42l17.67,23.33 M146.68,403.54l-17.67-23.33v42 M249.88,346l19.85,22.4 M265.35,372.21 V329.9 M265.35,329.9l23.81,25.94 M278.23,366.46v-42.31 M278.23,324.15l23.81,25.94 M301.23,361.83v-42.31 M301.23,319.52 l23.81,25.94 M315.04,356.65v-42.31 M315.04,314.33l35.71,38.17 M338.74,439.96l-1.88-129.06 M336.42,311.21l35.44,35.81 M353.55,439.96l-1.88-134.19 M351.23,306.08l37.19,36.81 M374.3,439.96l-1.88-135.63 M371.98,304.65l35.19,34.88 M409.67,439.96 l-1.88-141.94 M408.54,301.52l33.88,32.56 M389.55,439.96l-1.88-139.75 M388.42,300.52l36.13,34.69 M425.74,439.96l-1.88-144.38 M424.6,295.9l36.13,34.69 M444.88,439.96l-1.9-144.88 M443.39,297.49l33.16,33.16 M461.55,439.96l-1.88-147.56 M460.42,292.71 l36.13,34.69 M479.49,439.96l-1.88-146.19 M477.04,294.71l34.44,35.38 M497.11,439.96l-1.88-149.38 M495.98,290.9l36.13,35.25 M514.24,439.96l-1.88-149.38 M530.29,290.71l1.88,149.25 M531.04,325.9l35-35.25 M515.79,327.71l36.19-37.38 M548.67,439.96 l-1.88-146.44 M549.04,330.77l33.5-33.69 M566.1,292.08l1.88,147.88 M566.85,327.27l35-35.25 M581.42,295.4l1.88,144.56 M585.23,332.9l35-35.25 M601.04,296.33l1.88,143.63 M601.48,331.52l35-35.25 M615.79,297.71l1.88,142.25 M620.67,337.58l35-35.25 M637.11,439.96l-1.88-135.21 M651.72,439.96l-1.88-133.54 M632.17,340.17l29.79-30 M656.17,341.17l8.61-8.67 M99.33,429.33 l-16.8-28.13v42 M112.5,433.17l-21.13-35.5v40.35"/>
</g>
<path class="st2" d="M597,553.55C540.89,622.18,455.57,666,360,666s-180.89-43.82-237-112.45H597z M302.27,438.07v83.61 l77.96-23.42c3.65-41.47,8.66-81.82,13.92-119.6c0.11-0.79-0.57-1.47-1.37-1.35c-22.74,3.35-44.67,10.87-64.58,21.46L302.27,438.07z M95.67,514.22l49.74,1.18l-37.72-89.82c-16.1-10.43-32.98-17.21-50.39-20.59C63.1,444.34,76.39,481.25,95.67,514.22z M174.17,478.78l70.25-19.33l9.67-81.33c0.57-18.87-1.62-38.2-5.63-58.1c-0.15-0.73-0.85-1.22-1.58-1.1 c-53.07,8.71-95.71,42.84-126.23,105.64L174.17,478.78z"/>
<path class="st1" d="M128.56,493.63l11.2,20.86l-44.24-0.54c-1.99-3.41-3.92-6.87-5.78-10.37l9.82-12.2L128.56,493.63 z M326.71,490.45l-8.96,23.69l59.06-11.08l-9.08-19.92C352.78,485.03,338.84,487.35,326.71,490.45z M460.88,412.22 c-25.34-1.1-49.39,1.48-72.2,7.67c-3.19,25.41-6.1,51.66-8.45,78.39l-1.25,0.38l9.9,20.37l44.32-32.85 c9.39-27.07,18.88-52.24,28.64-72.35C462.19,413.1,461.68,412.25,460.88,412.22z"/>
<path class="st0" d="M477.58,481.73l-39.57-9.25c-1.61,4.5-3.22,9.06-4.82,13.69l22.63,16.27l11.39-8.41l11.16-9.59 C479.25,483.53,478.81,482.02,477.58,481.73z M395.67,480.43L388,503.18l33.83-13.08l2.95-17.68 C414.87,474.07,403.36,477.04,395.67,480.43z M472,553.55V515.5l16.83,4v-12h6.5l5.38-5.38v-10.46h9.04v2.42h1.17v1.75h12v4.92 l2.42,1.42v-2.25h9.08v-1.25h7.25v-9.33h11v-2.83h16v2.33h9.67v6.67l3.58,2.42V496h1.92l4.75-3h4.33v-1.17h1.13v-2.04h7.33v-8.96 h12.42v-7.46h10.42v-2.33h2.96v4.79H631v4.29h10.51c-11.38,26.63-26.43,51.31-44.51,73.43H472z"/>
<path class="st3" d="M479.48,501.88h-8.72v-9.19h-20.75l-9.19-6.6h-31.59l-28.05,12.02l-33.24,0.94l-29,11.71l-5.95,0.01 c7.16-67.36,17.14-132.77,29.37-183.27c0.17-0.7-0.5-1.32-1.19-1.1c-63.17,19.97-107.24,60.76-131.78,117.89 c-35.09-18.89-71.93-25.56-110.41-17.14c-0.94,0.21-1.47,1.22-1.11,2.12l33.19,81.68l-37.26,0.03 c10.67,18.78,23.27,36.31,37.53,52.33l430.67-5.31v-13.44h-82.51V501.88z"/>
<polygon class="st2" points="172.88,492.45 150.6,516.97 309.73,516.97 268.48,487.03 229.58,496.34 "/>
</svg>