<?xml version="1.0" encoding="utf-8"?>
<svg version="1.1" id="Mask_Fish" xmlns="http://www.w3.org/2000/svg" xmlns:xlink="http://www.w3.org/1999/xlink" x="0px" y="0px"
	 viewBox="0 0 720 720" style="enable-background:new 0 0 720 720;" xml:space="preserve">
<style type="text/css">
	.stroke4{fill:none;stroke-width:2.25;}
	.stroke5{fill:none;stroke-width:0.8;}
	.stroke6{fill:none;stroke-width:1.1249;}
	.stroke7{fill:none;stroke-width:1}
	.stroke8{fill:none;stroke-width:0.7874;}
	.stroke9{fill:none;stroke-width:0.6749;}
	.stroke10{fill:none;stroke-width:0.5624;}
	.stroke11{fill:none;stroke-width:0.45;}
</style>
<path class="st2" d="M368.89,665.86c82.74-2.36,157.24-37.57,210.95-93.04c-122.12,13.93-304.3,15.08-436.32,3.44
	c53.32,53.37,126.26,87.14,207.08,89.57c1.7,0.04,3.39,0.08,5.09,0.1c1.43,0.02,2.87,0.05,4.31,0.05c1.68,0,3.36-0.04,5.03-0.06
	C366.32,665.92,367.6,665.89,368.89,665.86z"/>
<path class="st0" d="M483.04,507.58c-7.43-2.46-15-4.98-22.68-7.55c-1.97,0.2-3.94,0.39-5.92,0.58
	c-3.28-0.84-6.58-1.69-9.9-2.55c-2.74,1.14-5.48,2.27-8.23,3.4c-4.87,0.17-9.78,0.34-14.7,0.5c-4.08-1.87-8.19-3.75-12.32-5.65
	c-4.45-0.59-8.91-1.19-13.39-1.8c-8.63,0.96-17.3,1.9-25.98,2.82c-20.69,8.4-41.36,16.59-61.63,24.46
	c-0.02,0.02-14.17,5.34-14.81,5.32c-0.71,0.02-24.47,3.15-24.42,3.12c-10.22,3.25-20.29,6.41-30.18,9.48
	c-18.55-7.03-36.76-14.26-54.23-21.58c-37.63-7.3-71.81-15.11-99.27-23.05c16.23,32.93,38.19,62.51,64.6,87.45
	c36.54,4.4,76.54,7.84,117.66,10.32c4.62,0.5,9.25,0.98,13.9,1.45c30.39,1.06,61.31,1.61,91.94,1.66
	c39.9-6.32,80.1-13.7,118.02-22.08c16.39-20.57,32.22-42.4,46.88-64.37c-7.52,0.59-15.25,1.15-23.15,1.68
	C504.8,510.07,494.06,508.86,483.04,507.58z"/>
<path class="st1" d="M152.81,572.89c3.13,3.75,6.3,7.46,9.51,11.13c-4.14-0.46-8.22-0.94-12.27-1.43
	c-13.52-12.76-25.87-26.74-36.9-41.76c0.14,0.13,0.28,0.26,0.42,0.38c3.99,2.55,8.08,5.09,12.24,7.63c3.59,2.48,7.24,4.94,10.95,7.4
	C141.99,561.85,147.34,567.41,152.81,572.89z M624.68,513.64c-3.21-1.15-6.51-2.33-9.9-3.54c-2.32-0.2-4.69-0.42-7.1-0.64
	c-6.05-3-12.36-6.11-18.94-9.34c-5.8-0.14-11.82-0.31-18.04-0.51c-7.82,0.78-15.97,1.54-24.4,2.25c-2.83,0.24-5.69,0.48-8.59,0.71
	c-4.12,1.71-8.31,3.41-12.56,5.12c-6.16,7.51-12.48,15-18.91,22.43c-29.23,17.38-60.5,34.28-91.6,49.79
	c-13.76,5.57-27.52,10.92-41.16,16.06c5.08,0.13,10.15,0.24,15.2,0.35c2.38-0.16,4.76-0.32,7.13-0.49
	c15.84,0.16,31.54,0.19,46.99,0.08c8.58-0.31,17.09-0.67,25.51-1.06c33.62-1.49,65.8-3.65,95.35-6.47
	C587.72,566.89,608.36,541.68,624.68,513.64C624.68,513.64,624.68,513.64,624.68,513.64z"/>
<path id="Bridge" class="st3" d="M601.94,541.85c0.79,0.04,1.57,0.07,2.35,0.11c-0.03,0.81-0.06,1.62-0.09,2.44
	c3.03-4.01,5.96-8.09,8.8-12.24c-1.08-0.13-2.18-0.27-3.3-0.4c0.49-20.02,0.85-40.2,1.06-60.46c-0.15-0.21-0.3-0.42-0.45-0.63
	c0.08-7.15,0.14-14.3,0.18-21.46c-0.13-0.2-0.26-0.41-0.38-0.61c0.04-6.87,0.07-13.75,0.07-20.63c-0.29-0.6-0.58-1.2-0.87-1.8
	c0-0.39,0-0.77,0-1.16c-0.28,0-0.57,0-0.86,0c0,0.39,0,0.77,0,1.16c-0.29,0.43-0.58,0.86-0.87,1.29c0,0.41,0,0.81,0,1.22
	c-4,0.16-8.17,0.32-12.49,0.48c0-0.2,0-0.41,0-0.61c-0.33-0.53-0.67-1.07-1-1.6c0-0.44,0-0.88,0-1.31c-0.34,0-0.68,0-1.02,0
	c0,0.46,0,0.93,0,1.39c-0.3,0.39-0.6,0.78-0.91,1.17c0,0.86,0,1.72-0.01,2.58c-18.89,68.18-42.31,85.2-68.42,91.56
	c-0.81-0.06-1.62-0.12-2.45-0.2c-49.44-3.28-103.13-48.24-156.09-117.21c-52.29-67.24-103.86-158.47-133.66-214.41
	c0.2-1.08,0.39-2.15,0.59-3.21c-1.36-1.29-2.7-2.58-4.04-3.85c0.19-0.93,0.38-1.84,0.57-2.75c-0.52-0.48-1.04-0.96-1.56-1.44
	c-0.74,0.37-1.47,0.75-2.21,1.13c-0.16,0.74-0.31,1.48-0.47,2.23c-5.34,2.43-10.7,4.97-16.07,7.62c-9.25,0.75-18.48,1.54-27.67,2.37
	c-0.32-0.16-0.64-0.32-0.96-0.48c-0.92,0.08-1.85,0.16-2.77,0.23c0.03-0.17,0.07-0.34,0.1-0.51c-1.51-1.37-3.01-2.74-4.51-4.1
	c0.19-0.97,0.39-1.93,0.58-2.89c-0.53-0.49-1.06-0.98-1.59-1.47c-0.67,0.41-1.34,0.82-2,1.23c-0.16,0.79-0.32,1.59-0.48,2.4
	c-1.87,1.43-3.73,2.88-5.58,4.35c-2.99,15.99-5.6,33.45-7.82,52c-0.44,0.67-0.89,1.35-1.33,2.02c-2.32,19.73-4.21,40.67-5.67,62.36
	c-0.36,0.66-0.72,1.33-1.08,1.99c-1.76,26.77-2.88,54.66-3.34,82.84c-0.26,0.78-0.52,1.57-0.77,2.35
	c-0.48,32.05-0.13,64.44,1.07,95.97c-23.65-3.14-46.22-6.55-65.78-10.22c5,11.64,10.71,22.9,17.06,33.74
	c15.54,2.21,32.42,4.22,50.11,6.03c1.21,21.69,2.85,42.77,4.89,62.82c7.15,6.71,14.63,13.07,22.4,19.07
	c0.09-0.07,0.18-0.15,0.27-0.22c10.43,0.7,21.05,1.33,31.83,1.9c0.9,0.87,1.81,1.73,2.72,2.59c0.05,0.4,0.09,0.8,0.14,1.19
	c-0.91,1.17-1.81,2.33-2.71,3.49c0.36,2.9,0.73,5.75,1.11,8.57c-3.04-0.18-6.04-0.37-9.06-0.56c13.88,8.72,28.5,16.36,43.77,22.79
	c-1.33-6.11-2.62-12.54-3.87-19.25c-1.76-0.65-3.53-1.31-5.29-1.97c-0.37-3.05-0.73-6.16-1.08-9.31c-1.11-1.19-2.23-2.39-3.34-3.6
	c-2.71-24.53-4.8-52.01-6.28-81.06c76.68,5.43,154.09,8.36,217.33,10.27c63.88,1.91,113.59,2.78,149.54,4.1
	c-0.41,8.06-0.86,16.04-1.36,23.97c2.01-2.22,3.97-4.47,5.91-6.74c0.06-1.07,0.12-2.13,0.17-3.2c0.13-0.08,0.25-0.16,0.38-0.25
	c0.41,0.46,0.81,0.91,1.22,1.36c0.47-0.56,0.96-1.12,1.43-1.69c-0.33-0.41-0.65-0.82-0.98-1.23c0.06-0.19,0.13-0.37,0.19-0.56
	c0.84-0.1,1.65-0.21,2.48-0.32c0.57-0.7,1.14-1.41,1.7-2.12c-1.55,0.21-3.09,0.42-4.67,0.63c0.01-0.16,0.02-0.32,0.02-0.48
	c1.28-1.51,2.55-3.01,3.8-4.52c0.19-0.03,0.37-0.06,0.56-0.09c0.66,0.78,1.32,1.56,1.98,2.34c0.49-0.63,0.97-1.27,1.45-1.9
	c-0.61-0.69-1.21-1.39-1.82-2.08c0.01-0.37,0.03-0.73,0.04-1.1C601.18,542.83,601.56,542.34,601.94,541.85z M173,214.76
	c1.04-1.03,2.09-2.05,3.13-3.07c0.69-0.37,1.37-0.73,2.06-1.1c0.55-0.07,1.11-0.13,1.66-0.2c0.35-0.27,0.71-0.54,1.06-0.8
	c0.3-0.03,0.6-0.07,0.9-0.1c5.93,10.99,11.9,21.84,17.71,32.04c-8.23,0.99-16.36,2.03-24.39,3.11c-0.47-0.22-0.94-0.44-1.41-0.65
	c-0.97,0.07-1.94,0.13-2.91,0.2c-0.35-0.19-0.7-0.38-1.04-0.57c-0.26,0.02-0.51,0.04-0.77,0.05C170.24,233.66,171.56,224,173,214.76
	z M162.78,349.92c0.72-2.86,1.45-5.71,2.19-8.55c0.99-1.26,1.98-2.52,2.97-3.77c1.57-0.74,3.15-1.47,4.74-2.21
	c6.81-0.74,13.74-1.45,20.79-2.15c0.83,0.24,1.67,0.48,2.51,0.72c1.05,1.11,2.11,2.22,3.17,3.33c0.5,2.71,1.01,5.43,1.53,8.16
	c-0.57,14.69-0.97,29.65-1.21,44.72c-4.11,1.35-8.19,2.7-12.22,4.04c-5.13,0.37-10.18,0.75-15.16,1.12
	c-3.55-0.76-7.06-1.51-10.53-2.25C161.8,378.57,162.2,364.14,162.78,349.92z M182.9,541.04c0.42,0.02,0.84,0.05,1.26,0.07
	c3.79,4.16,7.63,8.28,11.49,12.38c0.04,0.53,0.08,1.06,0.12,1.59c-7.87-0.44-15.62-0.91-23.23-1.42c-0.03-0.41-0.06-0.83-0.1-1.24
	C175.87,548.68,179.36,544.89,182.9,541.04z M178.72,523.96c2.42,0.16,4.86,0.33,7.31,0.48c-0.96,1.07-1.91,2.14-2.86,3.2
	c-0.35-0.02-0.71-0.04-1.06-0.06C180.97,526.38,179.84,525.17,178.72,523.96z M196.22,560.92c0.03,0.42,0.07,0.84,0.1,1.25
	c-3.26,3.57-6.48,7.09-9.65,10.57c-0.42-0.03-0.83-0.05-1.25-0.08c-3.81-3.85-7.58-7.75-11.31-11.68c-0.04-0.48-0.08-0.96-0.12-1.44
	C181.27,560.04,188.69,560.5,196.22,560.92z M190.53,536.78c-0.08-1.23-0.15-2.45-0.23-3.68c2.31-2.51,4.64-5.04,6.99-7.59
	c0.97,0.05,1.95,0.09,2.93,0.13c0.41,7.68,0.88,15.26,1.39,22.72C197.88,544.52,194.19,540.66,190.53,536.78z M163.47,493.35
	c-0.45-11.53-0.79-23.2-1.02-34.93c0.19-0.07,0.37-0.15,0.56-0.22c-0.08-4.22-0.15-8.45-0.2-12.69c0.28-0.23,0.56-0.46,0.84-0.7
	c-0.03-2.45-0.05-4.9-0.07-7.35c0.19-0.24,0.37-0.47,0.56-0.71c-0.01-1.45-0.02-2.9-0.03-4.35c0.19,0,0.38,0,0.56,0
	c0.87-1.1,1.73-2.21,2.61-3.31c0-0.61,0-1.22-0.01-1.82c0.97,0,1.95,0.01,2.92,0.01c0.74-0.61,1.48-1.22,2.22-1.82
	c5.32-0.12,10.72-0.25,16.2-0.38c1.36,0.51,2.72,1.02,4.09,1.54c0,0.56,0,1.13,0,1.69c0.97,0.89,1.95,1.78,2.93,2.67
	c0.22-0.03,0.45-0.05,0.67-0.08c-0.02,1.53-0.04,3.06-0.05,4.6c0.3,0.32,0.6,0.65,0.91,0.97c0.02,2.37,0.04,4.73,0.06,7.09
	c0.2,0.38,0.41,0.76,0.61,1.13c0.04,4.03,0.1,8.05,0.17,12.06c0.31,0.46,0.62,0.92,0.93,1.38c-0.11,0.11,0.95,39.33,1.08,39.5
	c0,0,0,0,0,0c-12.26-1.36-24.47-2.79-36.5-4.28C163.5,493.35,163.47,493.35,163.47,493.35z M165.54,522.68
	c0.64,0.04,1.28,0.08,1.93,0.11c2.64,2.93,5.3,5.86,7.99,8.78c0.08,1.33,0.17,2.67,0.25,3.99c-2.93,3.37-5.82,6.7-8.68,10
	C166.48,538.04,165.98,530.4,165.54,522.68z M170.79,589.38c-0.84-7.73-1.62-15.65-2.33-23.73c3.5,3.62,7.04,7.21,10.61,10.75
	c0.13,1.39,0.27,2.77,0.41,4.15C176.55,583.53,173.66,586.47,170.79,589.38z M176.55,596.97c-0.05-0.44-0.1-0.89-0.15-1.33
	c3.31-3.45,6.66-6.94,10.06-10.48c0.35,0.02,0.71,0.04,1.06,0.07c4.08,4.03,8.2,7.99,12.33,11.89c0.05,0.43,0.1,0.86,0.14,1.29
	C192.08,597.96,184.26,597.48,176.55,596.97z M193.86,581.21c-0.11-1.14-0.22-2.28-0.33-3.42c3.14-3.2,6.33-6.44,9.56-9.72
	c0.69,8.38,1.45,16.55,2.28,24.49C201.52,588.83,197.68,585.05,193.86,581.21z M203.9,301.74c-0.41,0.68-0.81,1.36-1.22,2.05
	c-1.29,0.06-2.58,0.13-3.86,0.19c-0.34,0.43-0.68,0.86-1.02,1.29c-1.33,0.07-2.66,0.14-3.98,0.21c-0.22,0.34-0.44,0.69-0.65,1.03
	c-7.3,0.78-14.48,1.59-21.53,2.43c-2.26-0.34-4.5-0.67-6.73-1c-0.26-0.33-0.51-0.66-0.77-0.98c0.64-9.47,1.37-18.78,2.18-27.89
	c0.45-2.3,0.91-4.59,1.37-6.86c1.78-1.64,3.57-3.27,5.37-4.9c0.93-0.41,1.86-0.81,2.79-1.21c8.06-1.11,16.26-2.18,24.57-3.2
	c1.81,1.16,3.63,2.32,5.47,3.49c-0.14,0.8-0.27,1.6-0.41,2.4c0.28,0.33,0.56,0.66,0.84,0.98
	C205.42,280.11,204.61,290.79,203.9,301.74z M210.97,236.35c-0.38,0.49-0.76,0.98-1.14,1.48c-0.03,0.26-0.06,0.52-0.09,0.78
	c-0.9,0.13-1.8,0.26-2.7,0.4c-0.26,0.27-0.51,0.55-0.77,0.82c-1.41,0.2-2.81,0.41-4.21,0.61c-0.18,0.28-0.35,0.57-0.53,0.85
	c-6.2-11.13-12.05-21.77-17.64-32.02c8.64-0.94,17.35-1.84,26.11-2.69c0.37,0.14,0.75,0.28,1.12,0.42c0.37-0.01,0.73-0.03,1.1-0.04
	c0.82,0.72,1.64,1.43,2.47,2.15C213.34,217.72,212.11,226.83,210.97,236.35z M220.24,499.82c-2.39-65.17-1.84-135.83,1.68-197.76
	c-0.25-0.54-0.49-1.08-0.74-1.61c0.4-6.63,0.83-13.15,1.29-19.56c53.52,89.45,109.18,152.97,150.15,187.89
	c42,36.21,69.32,43.81,89.91,51.38C400.46,515.75,314.26,509.64,220.24,499.82z M516.55,523.93c-14.35-1.01-30.16-2.1-47.57-3.32
	c-44.05-10.86-88.4-41.92-131.07-87.12c-42.45-44.63-83.22-103.39-115.17-156.32c0.14-1.86,0.28-3.71,0.43-5.54
	c-0.12-0.46-0.24-0.92-0.36-1.37c0.82-10.19,1.73-20.04,2.73-29.48c-0.22-0.98-0.45-1.95-0.67-2.91
	c1.77-16.13,3.81-31.01,6.12-44.25c29.98,57.12,81.49,147.44,133.62,213.71c52.79,67.99,106.21,111.92,155.35,115.89
	c-1.13,0.24-2.27,0.47-3.42,0.69C516.54,523.91,516.55,523.92,516.55,523.93z M588.85,529.57c-18.15-1.71-40.52-3.4-68.75-5.4
	c0.96-0.22,1.91-0.45,2.84-0.69c30.25,2.3,51.59-8.09,67.5-39.2C590.05,499.52,589.52,514.64,588.85,529.57z M592.02,449.7
	c-0.13,0.17-0.26,0.33-0.38,0.5c-0.08,7.43-0.2,14.86-0.35,22.26c-0.2,0.28-0.4,0.55-0.6,0.83c-0.06,3.07-0.13,6.14-0.21,9.2
	c-15.27,30.61-35.37,41.29-63.93,40.01c28.61-8.4,48.66-29.3,65.59-89.47C592.12,438.59,592.08,444.15,592.02,449.7z M606.84,471.02
	c-0.18,0.22-0.35,0.45-0.53,0.67c0,0.14,0,0.29-0.01,0.43c-0.41,0.03-0.82,0.06-1.23,0.09c0,0.13,0,0.25-0.01,0.38
	c-0.44,0.17-0.89,0.33-1.33,0.5c-1.91,0.16-3.85,0.32-5.82,0.47c-0.81-0.13-1.62-0.26-2.43-0.4c1.88-4.62,3.66-9.59,5.35-14.93
	c1.29-0.1,2.57-0.2,3.83-0.3c0.05,0.09,0.1,0.18,0.16,0.27c0.28,0.06,0.55,0.11,0.83,0.17c0.27,0.39,0.54,0.78,0.82,1.16
	c0,0.26-0.01,0.52-0.01,0.78c0.17,0.54,0.33,1.08,0.5,1.62C606.91,464.98,606.88,468,606.84,471.02z M595.09,472.2
	c0.06-3.44,0.12-6.88,0.17-10.33c0.14-0.13,0.27-0.25,0.4-0.38c0-0.32,0.01-0.63,0.01-0.95c0.38-0.53,0.76-1.07,1.14-1.6
	c0.26-0.01,0.51-0.03,0.76-0.04c0.09-0.15,0.17-0.29,0.26-0.44c0.75-0.06,1.5-0.11,2.25-0.17
	C598.5,463.25,596.83,467.89,595.09,472.2z M607.26,437.89c0,0.22,0,0.45,0,0.67c0.11,0.16,0.22,0.32,0.33,0.48
	c-0.01,3.21-0.03,6.42-0.05,9.63c-0.14,0.08-0.28,0.16-0.41,0.24c0,0.2,0,0.4,0,0.6c-0.84,0.3-1.69,0.6-2.54,0.9
	c-0.47,0.03-0.95,0.06-1.43,0.09c1.22-4.3,2.38-8.81,3.5-13.54C606.85,437.28,607.05,437.59,607.26,437.89z M595.08,439.8
	c0.06-0.08,0.13-0.17,0.19-0.26c0-0.31-0.01-0.61-0.01-0.92c0.43-0.53,0.86-1.06,1.29-1.58c0.21,0,0.42-0.01,0.63-0.01
	c0.11-0.14,0.22-0.29,0.33-0.43c2.75-0.12,5.43-0.23,8.05-0.35c0.05,0.06,0.09,0.13,0.14,0.19c0.16,0,0.31,0,0.47,0
	c-1.19,4.95-2.43,9.65-3.72,14.12c-1.66,0.11-3.35,0.22-5.06,0.32c-0.69-0.17-1.39-0.34-2.09-0.51c-0.03-0.18-0.06-0.35-0.09-0.53
	c-0.07-0.03-0.14-0.07-0.21-0.1C595.03,446.43,595.06,443.12,595.08,439.8z M595.25,486.72c0.18-0.29,0.35-0.57,0.53-0.86
	c0.01-0.62,0.03-1.25,0.04-1.87c0.44-0.54,0.88-1.09,1.32-1.63c0.23-0.02,0.47-0.04,0.7-0.06c0.09-0.15,0.18-0.3,0.27-0.45
	c1.91-0.16,3.79-0.32,5.64-0.48c0.06,0.11,0.13,0.22,0.19,0.33c0.2-0.02,0.41-0.04,0.61-0.05c0.37,0.44,0.74,0.87,1.11,1.31
	c-0.01,0.56-0.02,1.13-0.03,1.69c0.15,0.26,0.3,0.52,0.45,0.78c-0.08,4.59-0.17,9.17-0.26,13.74c-1.06,0.5-2.13,1.01-3.2,1.51
	c-1.47,0.18-2.97,0.36-4.48,0.54c-1.08-0.25-2.16-0.5-3.25-0.75C595.01,495.89,595.14,491.31,595.25,486.72z M596.94,544.86
	c-1.08,1.4-2.17,2.8-3.27,4.2c-0.1,0.01-0.2,0.02-0.3,0.04c0.12-2.52,0.24-5.05,0.36-7.59c0.6,0.02,1.19,0.05,1.78,0.07
	c0.5,0.66,0.99,1.31,1.49,1.97C596.98,543.98,596.96,544.42,596.94,544.86z M599.4,541.94c-0.23,0.01-0.45,0.02-0.68,0.04
	c-0.08-0.09-0.15-0.18-0.23-0.27c0.35,0.01,0.69,0.03,1.04,0.05C599.48,541.81,599.44,541.87,599.4,541.94z M594,530
	c0.18-4.27,0.34-8.56,0.49-12.86c0.24-0.99,0.47-1.98,0.71-2.96c0.02-0.46,0.03-0.93,0.05-1.39c0.83-0.82,1.65-1.63,2.47-2.45
	c1.72-0.19,3.42-0.39,5.1-0.59c0.73,0.59,1.45,1.18,2.17,1.77c0.16,1.4,0.32,2.79,0.48,4.18c-0.13,5.19-0.28,10.36-0.43,15.52
	C601.44,530.83,597.76,530.42,594,530z"/>
<g class="st3">
	<path class="stroke4" d="M170.48,187.01c-30.67,15.45-63.55,34.21-92.79,54.72 M64.82,278.56
		c46.47-37.47,109.63-72.13,160.97-95.87"/>
	<path class="stroke5" d="M623.87,515.81c-5.14-24.39-9.26-52.13-13.87-82.5 M595.56,437.01
		c6.17,35.14,11.59,66.99,18.64,93.47"/>
	<path class="stroke6" d="M210.1,190.58c-14.58,74.9-19.73,198.61-15.45,307.99 M194.2,198.83
		c-13.89,76.48-18.73,193.35-14.53,298.01 M164.42,494.83c-4.02-100.06,0.45-210.33,13.42-287.68 M124.53,489.03
		c-3.42-98.04,0.81-203.01,12.7-283.9 M138.75,491.13c-3.89-102.97,1.1-214.8,14.97-295.01 M120.46,214.54
		c-9.62,80.92-13.01,179.2-10.17,272.36 M103.6,224.85c-7.06,80.21-9.51,171.74-7.36,259.83 M86.77,235.77
		c-4.23,78.85-5.67,163.74-4.34,246.73 M69.07,454.97c-0.18-64.62,0.18-129.44,1.07-193.31"/>
	<path class="stroke7" d="M235.17,201.18c-11.57,74.57-15.46,195.76-11.67,301.69 M245.72,219.1
		c-8.78,75.15-11.53,187.57-8.24,286.05 M256.05,238.69c-6.44,74.71-8.25,178.27-5.44,269.23 M267.04,256.83
		c-4.61,72.62-5.78,167.31-3.51,251.13 M278.12,275.95c-3.17,70.19-3.84,156.96-2,234.14 M289.28,294.39
		c-2.1,67.15-2.43,146.6-0.99,217.63 M300.23,311.72c-1.32,63.25-1.45,135.41-0.4,200.45 M310.83,329.11
		c-0.77,59.16-0.78,124.58-0.04,183.95 M321.33,345c-0.39,54.59-0.36,113.44,0.09,167.34 M331.82,360.53
		c-0.16,50.38-0.12,103.59,0.11,152.65 M341.59,375.12c-0.02,45.98-0.01,93.73,0.03,138.08 M351.41,388.52
		c0.04,42.29,0,85.64-0.1,126.1 M360.76,401.66c0.05,38.79-0.04,78.13-0.27,115 M369.94,412.83c0.03,35.51-0.11,71.24-0.44,104.89
		 M378.76,423.84c0,31.84-0.21,63.66-0.6,93.82 M387.04,433.83c-0.05,28.46-0.3,56.76-0.73,83.75 M394.95,442.79
		c-0.1,26-0.39,51.78-0.87,76.43 M402.9,451.37c-0.14,22.6-0.45,44.96-0.93,66.48 M410.21,459c-0.18,20.56-0.52,40.86-1.02,60.46
		 M417.4,465.68c-0.22,18.42-0.57,36.59-1.07,54.2 M424.36,472.48c-0.24,15.85-0.59,31.49-1.05,46.71 M430.95,478.33
		c-0.25,13.99-0.6,27.79-1.04,41.26 M437.17,483.58c-0.27,12.87-0.63,25.56-1.08,37.97 M443.34,488.7
		c-0.27,11.06-0.61,21.97-1.01,32.68 M449.33,492.5c-0.27,9.83-0.59,19.55-0.98,29.1 M454.93,496.99c-0.26,8.37-0.55,16.66-0.9,24.83
		 M460.5,500.49c-0.24,7.31-0.52,14.54-0.84,21.68 M465.65,503.89c-0.21,5.91-0.45,11.76-0.71,17.56 M470.93,506.52
		c-0.21,5.45-0.44,10.86-0.7,16.21 M475.79,509.21c-0.19,4.68-0.4,9.34-0.63,13.95 M480.4,511.37c-0.17,3.89-0.35,7.75-0.54,11.59"/>
	<path class="stroke8" d="M485.19,513.67c-0.14,3.05-0.29,6.08-0.44,9.1 M489.74,515.41c-0.14,2.83-0.28,5.65-0.43,8.45
		 M494.05,516.92c-0.11,2.26-0.23,4.5-0.35,6.74 M498.18,518.19c-0.1,1.89-0.2,3.78-0.3,5.66 M502.29,519.52
		c-0.07,1.38-0.15,2.75-0.22,4.12 M506.23,520.62c-0.06,1.12-0.12,2.23-0.18,3.35 M509.95,521.18c-0.06,1.12-0.12,2.23-0.19,3.34
		 M513.64,521.89c-0.05,0.81-0.09,1.62-0.14,2.43 M517.24,522.45c-0.05,0.83-0.1,1.66-0.14,2.5 M524.15,523
		c-0.04,0.69-0.08,1.37-0.12,2.05"/>
	<path class="stroke9" d="M530.53,521.13c-0.08,1.43-0.16,2.86-0.25,4.28 M527.56,521.97c-0.06,1.13-0.13,2.26-0.2,3.39"/>
	<path class="stroke10" d="M533.35,519.95c-0.1,1.76-0.2,3.52-0.3,5.28 M536.23,518.74c-0.13,2.33-0.26,4.66-0.4,6.98
		 M538.86,517.57c-0.15,2.73-0.3,5.44-0.46,8.15 M541.61,516.11c-0.17,3.28-0.36,6.54-0.55,9.79 M544.24,514.53
		c-0.21,3.94-0.42,7.85-0.66,11.75 M546.74,512.99c-0.23,4.55-0.48,9.07-0.75,13.57 M549.15,511.28c-0.25,5.12-0.53,10.21-0.83,15.26
		 M551.55,509.16c-0.29,6.02-0.61,12-0.96,17.93 M553.95,507.33c-0.31,6.54-0.65,13.03-1.03,19.47 M556.26,505.02
		c-0.34,7.42-0.72,14.79-1.14,22.08 M558.59,502.67c-0.36,8.25-0.77,16.43-1.24,24.53 M560.77,500.21
		c-0.38,9.11-0.83,18.14-1.34,27.08 M562.89,497.56c-0.4,10.05-0.88,20.01-1.45,29.86 M565,494.91c-0.42,11.02-0.93,21.94-1.55,32.72
		 M567.04,492c-0.44,12.1-0.99,24.1-1.65,35.93 M569.1,488.91c-0.45,13.26-1.04,26.39-1.76,39.34 M571.09,485.62
		c-0.46,14.3-1.07,28.47-1.83,42.42 M573.04,482.2c-0.46,15.55-1.1,30.96-1.93,46.11 M574.92,478.79
		c-0.46,16.78-1.13,33.41-2.01,49.75 M576.73,475.2c-0.46,18.04-1.15,35.92-2.08,53.48"/>
	<path class="stroke11" d="M622.47,517.41c0.01-2.7,0.02-5.4,0.03-8.11 M621.58,518.88c0.02-4.56,0.05-9.13,0.07-13.7
		 M620.74,520.48c0.04-6.5,0.08-13.01,0.12-19.53 M619.85,521.73c0.07-8.4,0.13-16.8,0.18-25.22 M618.92,523.23
		c0.1-10.52,0.19-21.06,0.26-31.62 M618.03,524.54c0.14-12.39,0.26-24.8,0.35-37.24 M617.05,526.08c0.19-14.7,0.34-29.46,0.45-44.23
		 M616.08,527.58c0.25-16.99,0.44-34.05,0.57-51.15 M615.05,529.32c0.32-19.39,0.55-38.88,0.7-58.42 M614.02,530.92
		c0.4-21.75,0.67-43.65,0.83-65.61 M612.93,532.53c0.49-24.38,0.82-48.96,0.98-73.6 M611.96,532.44c0.56-26.2,0.92-52.65,1.08-79.17
		 M610.92,532.3c0.65-28.15,1.04-56.6,1.18-85.13 M611.04,440.26c-0.12,31.02-0.56,61.97-1.31,92.53 M596.28,441.33
		c-0.21,30.01-0.91,59.9-2.11,89.15 M597.38,447.69c-0.25,27.95-0.93,55.78-2.02,83.06 M598.53,457.88
		c-0.3,24.49-0.92,48.86-1.85,72.81 M599.7,460.75c-0.31,23.64-0.9,47.16-1.77,70.31 M600.69,466.41
		c-0.31,21.76-0.86,43.4-1.65,64.74 M600.19,530.92c0.59-16.57,1.04-33.32,1.35-50.17 M606.73,435.45
		c-0.11,32.3-0.65,64.55-1.61,96.26 M605.56,440.18c-0.15,30.74-0.71,61.39-1.66,91.54 M604.4,444.53
		c-0.19,29.35-0.76,58.61-1.72,87.39 M603.11,449.17c-0.23,27.63-0.8,55.15-1.74,82.22 M578.48,471.18
		c-0.45,19.47-1.17,38.77-2.16,57.7 M580.2,467.46c-0.43,20.72-1.17,41.28-2.21,61.41 M581.77,463.4
		c-0.41,22.15-1.17,44.13-2.26,65.64 M583.47,459.12c-0.39,23.69-1.16,47.21-2.31,70.21 M585.03,454.83
		c-0.36,25.14-1.14,50.12-2.33,74.53 M586.65,450.35c-0.32,26.65-1.1,53.14-2.35,79.02 M588.15,445.53
		c-0.28,28.4-1.07,56.65-2.37,84.22 M589.61,440.92c-0.23,30.07-1.02,60-2.38,89.19 M591.01,436.15
		c-0.17,31.53-0.95,62.97-2.34,93.61"/>
</g>
</svg>