<?xml version="1.0" encoding="utf-8"?>
<svg version="1.1" id="Fish" xmlns="http://www.w3.org/2000/svg" xmlns:xlink="http://www.w3.org/1999/xlink" x="0px" y="0px" viewBox="0 0 720 720" style="enable-background:new 0 0 720 720;" xml:space="preserve">
<style type="text/css">
 .stroke1{fill:none;stroke-width:3;stroke-linejoin:round;stroke-miterlimit:10;} 
 </style>
 <g class="st1">
	<path d="M69.25,455.59c-2.09-6.37-4-12.82-5.68-19.36c131.46-8.71,458.19-8.61,592.82,0.11 c-1.74,6.79-3.73,13.49-5.92,20.09C516.12,451.99,200.37,451.52,69.25,455.59z M638.52,332.17c-42.3-10.19-84.66-15.34-130.85-15.36 c-46.66,0.22-97.16,5.57-166.57,22.02c-6.8,1.66-13.63,3.36-20.48,5.09c1.27,1.48,2.55,2.97,3.84,4.47 c5.58-1.43,11.15-2.83,16.7-4.22c64.42-17.12,119.52-21.71,169.42-20.13c49.56,1.75,93.92,9.66,128.96,21.28 c9.29,3.18,18.12,6.44,26.4,9.77c0,0,0,0,0,0c-0.02-1.62-0.07-3.23-0.11-4.84c-0.11-3.5-0.28-6.99-0.51-10.46 C656.8,337.17,647.84,334.63,638.52,332.17z M235.42,323.2c0.17,1.32,0.34,2.65,0.52,3.99c4.12-1.22,8.25-2.42,12.38-3.6 c71.01-19.74,139.28-26.76,205.22-29.41c65.62-2.09,128.91,0.2,182.63,12.01c8.97,2.05,17.72,4.2,26.19,6.45 c-0.8-5.15-1.73-10.25-2.78-15.3c-8.12-1.32-16.37-2.58-24.74-3.78c-65.78-8.65-128.79-8.18-191.59-4.58 c-62.95,4.2-125.69,11.53-194.43,30.42C244.35,320.64,239.88,321.91,235.42,323.2z M158.91,350.51 c-38.8,17.89-73.67,37.53-99.21,56.4c0.76,1.26,1.51,2.52,2.27,3.78c21.88-16.03,50.33-32.7,82.22-48.45 C149.01,358.28,153.92,354.36,158.91,350.51z"/>
	<path class="stroke1" d="M103.68,423.85c0.64-14.76,1.54-29.36,2.72-43.66c4.47,7.53,9.02,15.22,13.73,23.09 M129.45,397.71c-4.79-7.87-9.4-15.55-13.92-23.07c-1.36,14.25-2.41,28.87-3.18,43.7 M240.3,334.83 c6.03,6.76,12.31,13.8,18.84,21.12 M254,359.93c1.32-14.34,2.92-27.8,4.78-40.03 M258.78,319.9c7.22,7.31,14.8,15.06,22.74,23.21 M268.61,353.8c1.24-14.09,2.73-27.23,4.45-39.07 M273.07,314.73c7.29,7.11,14.96,14.67,22.98,22.67 M294.31,348.72 c0.98-13.87,2.13-26.72,3.47-38.16 M297.78,310.56c7.53,6.92,15.46,14.33,23.72,22.21 M309.9,343.45 c0.8-13.61,1.74-26.12,2.82-37.16 M312.73,306.29c11.49,9.86,23.85,20.87,36.85,32.9 M334.63,433.43 c-0.37-50.16-0.05-97.17,1.12-129.93 M335.28,303.74c11.82,9.06,24.44,19.21,37.6,30.31 M352.09,433.4 c-0.6-52.19-0.92-100.97-0.78-133.77 M350.85,299.86c12.62,9,26.09,19.22,40.09,30.48 M376.58,433.41 c-0.96-52.74-2.29-102.01-3.81-134.82 M372.33,298.81c12.34,8.47,25.39,18.09,38.85,28.67 M418.14,433.56 c-1.57-55.01-4.75-106.34-9.36-139.36 M409.84,296.68c12.49,7.84,25.51,16.76,38.74,26.55 M394.55,433.45 c-1.23-54.29-3.36-104.94-6.21-137.79 M389.12,295.89c12.92,8.2,26.52,17.61,40.47,28 M436.8,433.69 c-1.84-55.8-5.87-107.87-11.91-141.12 M425.69,292.79c13.54,8.06,27.63,17.41,41.85,27.77 M458.8,433.89 c-2.13-55.75-7.04-107.88-14.57-141.57 M444.98,294.01c12.8,7.92,25.96,17.02,39.15,27.02 M477.65,434.1 c-2.36-56.51-8.08-109.41-16.99-143.58 M461.47,290.75c14.09,8.11,28.53,17.57,42.88,28.03 M497.58,434.38 c-2.54-55.65-8.77-107.92-18.59-142.79 M478.6,292.26c13.79,8.56,27.77,18.49,41.53,29.39 M516.73,434.7 c-2.72-56.46-9.64-109.62-20.66-145.29 M496.89,289.63c14.54,8.5,29.17,18.4,43.41,29.29 M534.87,435.05 c-2.81-56.02-10.03-108.97-21.62-145.56 M531.24,289.67c11.87,37.67,19.23,90.34,22.07,145.79 M539.19,318.67 c9.58-9.96,18.67-19.43,27.75-28.83 M524.1,319.7c10.06-10.57,19.49-20.49,28.73-30.2 M569.7,435.88 c-2.76-53.89-9.87-105.36-21.33-143.91 M558.02,323.8c9.07-9.73,17.79-19.07,26.63-28.43 M567.31,291 c11.24,40.04,18.15,91.67,20.81,145.42 M574.89,321.44c9.33-10.18,18.42-20.05,27.93-30.15 M583.21,293.92 c10.17,40.74,16.43,90.99,18.88,142.96 M593.5,327.59c9.29-10.38,18.46-20.52,28.26-31 M602.76,295.04 c8.81,42.09,14.2,91.63,16.35,142.48 M608.59,327.23c9.27-10.45,18.6-20.75,28.83-31.57 M617.43,296.55 c7.39,42.98,11.9,91.75,13.75,141.49 M626.89,334.25c9.27-10.6,18.74-21.13,29.36-32.26 M646.09,438.77 c-1.31-46.44-4.25-92.4-9.07-135.15 M656.47,437.52c-0.89-44.59-2.64-89-5.52-131.76 M637.33,337.57 c7.71-8.87,15.65-17.72,24.37-26.96 M657.89,340.38c2.17-2.48,4.37-4.96,6.62-7.46 M87.46,427.21c-4.08-9.48-8.02-18.77-11.94-27.89 c-0.49,14.22-0.84,28.55-1.05,42.93 M97.89,430.64c-5.34-12.16-10.4-24-15.39-35.55c-0.63,13.71-1.1,27.56-1.4,41.48"/>
</g>
<path class="st2" d="M94.26,422.9c8.93,30.61,19.17,63.15,31.93,95.98c-10.16-0.65-19.83-1.33-28.96-2.02 C77.1,483.22,63.25,445.39,57.3,404.99c0,0,0,0,0,0C69.12,407.05,81.66,412.78,94.26,422.9z M225.86,456.78 c4.03-31.36,9.2-62.37,15.31-90.46c2.44-19.5,2.41-37.95,1.41-54.42c-0.04-0.6-0.69-0.99-1.46-0.88 c-55.85,7.67-107.35,41.5-136.07,110.19c14.21,18.2,29.85,37.64,47.31,57.86C175.16,471.92,199.91,464.41,225.86,456.78z M383.65,502.32c4.49-49.02,10.2-97.9,14.93-136.95c0.1-0.82-0.7-1.53-1.59-1.42c-25.63,3.25-50.74,11.12-73.95,22.87 c-10.3,14.38-20.73,29.39-31.05,44.64c-0.63,32.29-0.57,65.91,0.18,97.95C322.01,520.7,352.88,511.57,383.65,502.32z M591.85,559.7 c-132.79,7.98-332.24,7.91-463.87-0.21c54.18,62.96,133.54,103.61,222.45,106.34c3.19,0.08,6.38,0.13,9.57,0.16 c3.22-0.03,6.45-0.09,9.67-0.17C458.45,663.08,537.69,622.52,591.85,559.7z"/>
<path class="st1" d="M379.59,507.97c-23.29,4.37-46.63,8.68-69.57,12.85c3.36-9.16,6.79-18.43,10.27-27.76 c14.29-3.64,30.83-6.39,48.59-8.63C372.46,492.3,376.04,500.17,379.59,507.97z M475.61,402.71c-28.28-1.8-55.84,0.71-82.34,7.61 c-3.32,28.84-6.72,60.46-9.61,92c-0.49,0.15-0.99,0.3-1.48,0.45c3.88,8,7.72,15.95,11.51,23.79c17.47-12.74,35-25.73,52.15-38.65 c11.07-31.93,21.27-61.33,30.94-83.4C477.12,403.71,476.51,402.76,475.61,402.71z M86.94,492.12c-0.55,0.94-1.1,1.87-1.64,2.8 c3.6,7.32,7.49,14.47,11.64,21.45c7.67,0.47,15.72,0.92,24.12,1.35c-3.62-7.61-7.09-15.21-10.42-22.75 C102.33,494.01,94.41,493.06,86.94,492.12z"/>
<path class="st0" d="M496.16,482.6c1.35,0.34,1.83,2.09,0.86,3.14c-4.14,3.72-8.31,7.45-12.53,11.19 c-4.3,3.28-8.63,6.57-12.99,9.86c-8.41-6.22-16.97-12.52-25.66-18.87c1.89-5.44,3.75-10.81,5.6-16.1 C466.63,475.45,481.59,479.06,496.16,482.6z M639.05,475.81c0-1.67,0-3.34-0.01-5.01c-0.75-0.01-1.5-0.01-2.26-0.02 c0,0.81,0.01,1.63,0.01,2.44c-2.67-0.01-5.4-0.02-8.18-0.03c0.01,2.63,0,5.26-0.01,7.9c-3.32,0.02-6.71,0.04-10.18,0.06 c-0.01,3.2-0.04,6.4-0.08,9.59c-2.05,0.03-4.13,0.06-6.23,0.09c-0.01,0.73-0.02,1.47-0.03,2.2c-0.32,0.01-0.65,0.01-0.97,0.02 c-0.01,0.42-0.01,0.84-0.02,1.26c-1.25,0.02-2.5,0.04-3.77,0.07c-1.4,1.11-2.82,2.21-4.25,3.33c-0.57,0.01-1.14,0.02-1.71,0.03 c-0.01,0.69-0.03,1.39-0.04,2.08c-1.05-0.85-2.1-1.71-3.17-2.56c0.05-2.42,0.09-4.84,0.12-7.27c-2.91,0.04-5.86,0.07-8.85,0.1 c0.01-0.86,0.02-1.71,0.03-2.57c-4.95,0.05-10,0.09-15.15,0.13c-0.01,1.05-0.02,2.1-0.04,3.15c-3.54,0.04-7.13,0.07-10.76,0.11 c-0.05,3.48-0.12,6.97-0.2,10.44c-2.39,0.04-4.81,0.08-7.24,0.11c-0.01,0.47-0.02,0.93-0.04,1.4c-3.05,0.05-6.12,0.1-9.22,0.14 c-0.02,0.85-0.04,1.69-0.07,2.53c-0.81-0.52-1.62-1.04-2.44-1.56c0.05-1.85,0.09-3.7,0.13-5.55c-4.12,0.05-8.28,0.1-12.49,0.15 c0.01-0.66,0.03-1.33,0.04-1.99c-0.41,0-0.82,0.01-1.23,0.01c0.02-0.92,0.03-1.84,0.05-2.75c-3.18,0.03-6.38,0.05-9.6,0.08 c-0.06,3.99-0.14,7.98-0.25,11.95c-1.97,2.07-3.95,4.14-5.94,6.21c-2.33,0.04-4.68,0.07-7.03,0.1c-0.14,4.57-0.3,9.12-0.49,13.64 c-6.02-1.39-12.12-2.8-18.29-4.23c-0.5,14.48-1.23,28.71-2.21,42.43c37.54-0.99,73.1-2.44,104.86-4.35 c20.61-23.91,37.6-51.04,50.08-80.54c0-1.12,0-2.23,0-3.35C640.98,475.81,640.02,475.81,639.05,475.81z M436.11,471.72 c-11.52,1.94-25.05,5.46-34.14,9.48c-3.03,8.99-6.08,17.97-9.15,26.89c13.33-5.16,26.64-10.34,39.81-15.51 C433.82,485.63,434.98,478.67,436.11,471.72z"/>
<path class="st3" d="M137.35,569.89c127.69,6.12,311.72,4.28,441.98-4.83c0.43-4.69,0.83-9.42,1.19-14.19 c-26.16,1.33-54.71,2.38-84.69,3.16c1.01-15.61,1.71-31.77,2.09-48.14c-3.2,0.03-6.42,0.07-9.66,0.1c0.08-3.54,0.14-7.09,0.19-10.64 c-7.71,0.05-15.51,0.09-23.38,0.14c-3.46-2.55-6.94-5.11-10.45-7.69c-12.1,0.03-24.36,0.06-36.71,0.08 c-10.99,4.75-22.06,9.51-33.14,14.26c-13.11,0.39-26.25,0.76-39.37,1.12c-11.43,4.59-22.8,9.14-34.06,13.64 c-2.32-0.01-4.64-0.02-6.96-0.03c7.15-79.47,21.98-158.84,36.58-200.06c0.2-0.59-0.49-1.11-1.24-0.92 c-67.91,16.2-123.39,58.27-151.13,124.03c-35.77-20.66-70.64-25.62-101.34-14.97c-0.75,0.26-1.19,1.34-0.94,2.25 c7.72,27.7,16.33,56.84,26.93,86.41c-6.34-0.22-12.46-0.45-18.35-0.7C106.82,533.55,121.1,552.66,137.35,569.89z"/>
<path class="st2" d="M151.26,494.31c-7.05,9-13.8,17.83-20.26,26.45c48.85,1.76,108.01,2.86,169.72,3.29 c-16.21-11.66-32.33-23.47-48.02-35.19c-14.68,3.57-29.05,7.09-42.99,10.51C189.25,497.67,169.64,495.98,151.26,494.31z"/>
</svg>