<?xml version="1.0" encoding="utf-8"?>
<!-- Generator: Adobe Illustrator 19.1.1, SVG Export Plug-In . SVG Version: 6.00 Build 0)  -->
<svg version="1.1" id="Layer_4" xmlns="http://www.w3.org/2000/svg" xmlns:xlink="http://www.w3.org/1999/xlink" x="0px" y="0px"
	 viewBox="0 0 720 720" style="enable-background:new 0 0 720 720;" xml:space="preserve">
<path class="st0" d="M68.489,453.25C107.929,576.644,223.521,666,360,666s252.071-89.356,291.511-212.75H68.489z"/>
<path class="st1" d="M157.75,435.25L158,424l-7.5-1.25c-10.707,2.82-21.717,4.016-33,3.75c0,0-1.917,3.25-0.75,6.5
	c-5.833,2.167-10,16.5-10,16.5L99,444.75c0,0-5.25-1.583-5.167,2.833c-6.253,5.507-11.299,23.589-14.051,35.492
	c2.951,6.709,6.135,13.291,9.544,19.737l85.924-3.645L176.5,447l-16.25-7.327L157.75,435.25z"/>
<path class="st1" d="M388.5,482.5l-13.75-9l-3.75-5.25l-10-5l-48.25-11.5l-9.5,0.5l-4-2.5l-5.5,0.5L262,441l-16.25,4.25
	c0,0-1.425,12.099-4.75,13.25v23.583l155.375,8.292L388.5,482.5z"/>
<path class="st1" d="M642.75,443.5l-6-1.5L623,449l-4.25-1.25L604,459.5l-8.25,33h40.151c9.258-19.243,16.544-39.61,21.637-60.831
	L642.75,443.5z"/>
<polygon class="st1" points="511,449.75 497.833,454.083 479.417,455 475.083,457.083 471.083,457.083 469.167,455.5 
	461.667,456.333 437.583,452.417 431.667,454.5 419,464.083 458.167,465.167 456.333,467.333 487.25,467.333 518.167,454.833 
	517,450.833 "/>
<path class="st2" d="M620.75,467c-15.5-3-40.5-17-40.5-17l-11.75-12.25l-20.25,3l-9.5-4.75l-20.25,11.75L500,459.5l-7.25-1.25
	l-46,20.75l-8.5-3.25l-13,0.5l-18.25,3l-7.25-1.75l-11.25,5l-76.222-8.097l-3.528,2.347l-4.406-3.19L261.417,469L241,458.5
	c-13.333-7.833-24.006-13.062-30.422-18.812c-2.095-1.877-12.328-0.938-12.328-0.938l-23,8.25c0,0-28.149,8.807-40.083,16
	c-12.167,7.333-12.752,13.295-14.917,19.083c-5.322,3.436-20.943,10.766-26.333,13.25c-0.754,0.347-1.544-0.401-1.24-1.174
	c0.323-0.822,1.768-2.343,2.232-3.422c0.37-0.86-0.527-1.708-1.367-1.295c-2.822,1.387-6.912,4.241-8.35,5.265
	C135.015,596.159,239.344,666,360,666c130.626,0,242.115-81.86,286.019-197.07C637.166,468.963,628.297,468.461,620.75,467z"/>
<path class="st3" d="M388.027,292.668c-2.811-0.757-11.636-0.465-11.636-0.465c-1.079-5.268-23.992,2.793-23.992,2.793
	l-35.417-0.127l-20.311-7.236l-18.661-2.539l-0.635-11.171l1.016-4.443l-0.762-17.01c-4.401-6.686-17.56-8.251-21.792,0.55
	l-3.978,31.947l-41.891,3.935l-1.396,3.174l-38.971-0.169c-1.658-4.769-9.394-5.753-20.184-4.528l-1.016,1.777l-8.167,0.296
	c-2.599,4.198-2.454,7.843,1.946,8.971c8.719,2.18,17.724,2.934,27.039,2.158l2.92,1.904l17.391,21.58l23.231-0.762l18.153,7.997
	l-0.889,38.971l1.777,4.062l3.174,6.728l0.254,21.707l2.539,3.174l-3.817,82.123l-9.258,2.675v6.728h-4.189l-2.623,42.864h91.399
	l-1.82-42.864h-4.316v-6.728l-11.425-2.376v-49.543h3.427v-28.435h2.285l-1.016-78.451l17.264-5.078l27.356,0.159
	c5.983-3.11,13.446-13.47,14.281-21.993c9.647,0.675,19.209-0.526,28.689-3.554l1.143-1.142c0,0,2.981-1.512,3.766-2.285
	C390.936,296.053,390.414,293.31,388.027,292.668z"/>
<path class="st3" d="M119.312,548.978C175.338,620.235,262.324,666,360,666c32.8,0,64.385-5.181,94.006-14.735L447,603l-65-54
	l-81-21l-111,1l-62,12L119.312,548.978z"/>
</svg>
