<?xml version="1.0" encoding="utf-8"?>
<!-- Generator: Adobe Illustrator 19.1.1, SVG Export Plug-In . SVG Version: 6.00 Build 0)  -->
<svg version="1.1" id="Layer_8" xmlns="http://www.w3.org/2000/svg" xmlns:xlink="http://www.w3.org/1999/xlink" x="0px" y="0px"
	 viewBox="0 0 720 720" style="enable-background:new 0 0 720 720;" xml:space="preserve">
<path class="st1" d="M73.437,467.5C116.961,583.463,228.833,666,360,666s243.039-82.537,286.563-198.5H73.437z"/>
<path class="st0" d="M76.582,475.523l116.441-5.139l-64.384-61.272l-4.279-1.362l-53.948,51.338
	C72.311,464.642,74.376,470.118,76.582,475.523z"/>
<path class="st0" d="M638.781,486.333c3.791-8.352,7.203-16.911,10.245-25.644l-122.801-116.74l-11.671-0.778l-78.367,75.495
	l-24.142-22.976l-4.279-1.167l-20.618-20.618l-1.167-4.474l-33.845-33.456l-5.057,0.194l-31.317,29.955l0.583,2.918l-32.095,30.928
	l-68.274,70.414l165.32,1.163l-15.35,14.788H638.781z"/>
<path class="st3" d="M144.568,571.582h-5.623c1.304,1.362,2.624,2.71,3.953,4.048h1.67V571.582z"/>
<path class="st3" d="M136.834,494.669h6.639v-23.966l-21.954-1.771v-17.174l-55.063-5.138
	c13.688,46.46,38.099,88.318,70.378,122.716v-1.803h7.734v-4.048h-7.734v-4.048h7.734v-4.048h-7.734v-4.048h7.734v-4.048h-7.734
	v-4.048h7.734v-4.048h-7.734v-4.048h7.734v-4.048h-7.734v-4.048h7.734v-4.048h-7.734v-4.048h7.734v-4.048h-7.734v-4.048h7.734
	v-4.048h-7.734v-4.048h7.734v-4.048h-7.734V494.669z"/>
<path class="st3" d="M448.959,652.849l-1.439-97.87l-9.915-3.895l-53.292,2.302v-2.479l-2.39-0.177l-2.744-51.964l-40.456-4.161
	v-2.036l-10.889-1.239l-10.003,2.567v2.833l-25.23,8.853l4.905,154.022C317.681,663.791,338.582,666,360,666
	C390.943,666,420.806,661.39,448.959,652.849z"/>
<path class="st3" d="M274.491,445.412v-2.921l-20.361-6.285v-32.4l-8.321-3.541h-1.682v4.072h-1.682v-5.134h-10.269v-2.921h-22.397
	v-2.036h-0.62v-3.01h-2.125v3.453h-3.452l-1.726,1.726v4.205h-19.874v21.777h-19.226v5.4h5.505v3.984h-5.505v4.78h5.505v4.515
	h-5.505v12.217h6.744v4.957h-6.744v12.571h6.744v4.482h-6.744v4.482h6.744v4.482h-6.744v4.482h6.744v4.482h-6.744v4.482h6.744v4.482
	h-6.744v4.482h6.744v4.482h-6.744v4.482h6.744v4.482h-6.744v4.482h6.744v4.482h-6.744v4.482h6.744v4.482h-6.744v4.482h6.744v4.482
	h-6.744v4.482h6.744v4.482h-6.744l-0.014,37.934c32.858,27.738,71.63,48.687,114.168,60.662l-2.596-200.134l-3.01-3.63v-5.4H274.491
	z"/>
<path class="st3" d="M605.867,542.181l-1.889-50.1l-3.32-1.461l-10.756,0.266v-9.826h-5.179v-3.519h-4.515v3.519h-5.444v-4.515
	h-4.581v4.515h-4.05l-11.685,2.656v5.444h-4.648v-0.528c1.019-0.504,1.726-1.544,1.726-2.758c0-1.705-1.382-3.087-3.087-3.087
	c-1.705,0-3.087,1.382-3.087,3.087c0,0.491,0.125,0.949,0.329,1.361h-3.383v1.925h-10.291v7.436h-8.897l2.131,120.991
	C556.466,597.516,583.797,571.918,605.867,542.181z"/>
<circle class="st3" cx="557.868" cy="479.035" r="1.826"/>
<circle class="st3" cx="528.124" cy="494.439" r="1.693"/>
<path class="st3" d="M497.153,550.149l7.642-5.513l17.31-4.872l-3.528-4.258l-11.874,2.972l-1.68-1.87l11.478-4.711l-6.616-2.695
	l-7.253,4.973l-2.34-0.696l6.191-4.85l2.476-8.871l-3.092-1.06l-5.463,3.345l0.219-5.339l-4.101,3.768l-3.147-0.796l1.959-2.766
	l-6.264-2.069l-1.783,3.907l-3.357-1.116l-0.03-4.148l-4.462-0.45l-0.384,21.32l-4.683-16.235l-5.055-0.919l-0.652,6.422
	l-4.879-7.371l-7.003-0.843l14.076,25.792l-16.109-11.444l-9.836-2.815l-1.049,6.339l9.732,0.999l13.299,12.997l-10.503,2.361
	l-4.293,6.006l14.628-4.26l8.738,5.094l-19.695,94.216c2.493-0.821,4.973-1.671,7.437-2.554l18.25-87.306l1.561,0.789l6.143,17.507
	l-0.015-15.121l5.813,0.594l21.686,13.162l0.181-2.516l-20.101-17.111l21.65,5.078l3.098-4.254l-21.317-5.354l27.942,2.39
	l1.745-4.054l-15.987-4.101L497.153,550.149z"/>
</svg>
