<?xml version="1.0" encoding="utf-8"?>
<!-- Generator: Adobe Illustrator 19.1.1, SVG Export Plug-In . SVG Version: 6.00 Build 0)  -->
<svg version="1.1" id="Layer_4" xmlns="http://www.w3.org/2000/svg" xmlns:xlink="http://www.w3.org/1999/xlink" x="0px" y="0px"
	 viewBox="0 0 720 720" style="enable-background:new 0 0 720 720;" xml:space="preserve">
<path class="st0" d="M651.523,453.212c-127.577-0.766-462.245-0.753-583.034,0.038v0C107.929,576.644,223.521,666,360,666
	C496.493,666,612.095,576.626,651.523,453.212z"/>
<path class="st1" d="M140.379,438.027c-0.745-1.605-1.485-3.206-2.219-4.802c0.148-4.102,0.315-8.199,0.501-12.288
	c-2.28-0.384-4.536-0.764-6.768-1.139c-9.69,3.378-19.122,4.953-28.152,5.023c-0.002,0.003-1.592,3.478-0.71,6.872
	c-4.704,2.455-7.954,17.504-7.942,17.49c-1.962-1.635-3.891-3.257-5.784-4.863c-0.013-0.003-3.827-1.56-3.77,2.99
	c-3.711,4.736-6.646,17.966-8.567,29.162c3.883,9.426,8.22,18.617,12.99,27.542c18.948,0.154,40.979,0.046,65.261-0.292
	c-0.307-19.069-0.182-38.449,0.375-57.783C150.407,443.265,145.333,440.627,140.379,438.027z"/>
<path class="st1" d="M393.17,487.27c-5.393-3.519-10.809-7.056-16.237-10.602c-1.479-2.07-2.959-4.143-4.441-6.217
	c-3.954-1.975-7.911-3.952-11.869-5.93c-19.096-4.551-38.192-9.115-57.018-13.629c-3.709,0.2-7.407,0.4-11.095,0.6
	c-1.551-0.981-3.099-1.962-4.644-2.941c-2.129,0.2-4.254,0.399-6.374,0.599c-12.226-3.609-24.289-7.181-36.113-10.695
	c-6.087,1.684-12.116,3.361-18.077,5.03c-0.016-0.002-1.643,14.008-5.251,15.33c0.014,9.082,0.108,18.159,0.281,27.187
	c56.499,3.864,119.205,7.496,180.056,10.484C399.327,493.427,396.254,490.354,393.17,487.27z"/>
<path class="st1" d="M647.865,443.263c-1.364-0.54-2.751-1.084-4.159-1.631c-3.211,2.314-6.531,4.668-9.957,7.059
	c-1.063-0.446-2.137-0.893-3.221-1.343c-3.737,4.049-7.602,8.165-11.597,12.339c-2.253,11.69-4.668,23.471-7.277,35.274
	c8.308-0.348,16.183-0.717,23.579-1.109c9.571-19.643,17.092-40.463,22.305-62.184C654.432,435.459,651.212,439.325,647.865,443.263
	z"/>
<path class="st1" d="M531.721,448.81c-4.579,1.628-9.217,3.268-13.908,4.921c-6.566,0.342-13.23,0.689-19.98,1.038
	c-1.588,0.803-3.18,1.608-4.778,2.414c-1.475,0-2.953,0.001-4.436,0.001c-0.71-0.613-1.421-1.227-2.134-1.841
	c-2.786,0.322-5.585,0.645-8.396,0.969c-9.026-1.523-18.179-3.06-27.425-4.605c-2.269,0.814-4.544,1.629-6.825,2.445
	c-4.881,3.758-9.796,7.529-14.734,11.307c15.234,0.402,30.282,0.792,45.013,1.167c-0.694,0.845-1.39,1.691-2.086,2.536
	c11.652-0.045,23.112-0.098,34.316-0.158c11.244-4.864,22.213-9.672,32.836-14.392c-0.403-1.514-0.809-3.03-1.219-4.546
	C535.896,449.649,533.814,449.23,531.721,448.81z"/>
<path class="st2" d="M645.944,469.127c-4.685-0.084-9.498-0.558-13.904-1.666c-11.38-2.813-33.047-17.932-33.235-18.014
	c-3.475-4.455-7.038-8.953-10.688-13.484c-6.155,0.983-12.491,1.989-18.991,3.016c-3.08-1.799-6.201-3.609-9.358-5.426
	c-6.587,4.272-13.35,8.617-20.275,13.021c-6.323,4.407-12.784,8.87-19.368,13.372c-2.574-0.474-5.165-0.949-7.77-1.426
	c-16.545,7.977-33.75,16.128-51.34,24.319c-3.215-1.241-6.445-2.487-9.69-3.737c-4.983,0.222-9.993,0.442-15.026,0.661
	c-7.072,1.206-14.187,2.412-21.331,3.615c-2.83-0.676-5.665-1.354-8.506-2.034c-4.424,1.977-8.857,3.954-13.293,5.927
	c-29.977-3.106-60.318-6.349-90.055-9.628c-1.369,0.917-2.737,1.833-4.102,2.747c-1.723-1.257-3.444-2.515-5.162-3.772
	c-16.67-1.85-33.114-3.708-49.157-5.555c-7.657-4.109-15.213-8.196-22.643-12.247c-14.561-9.063-25.704-14.96-32.264-21.416
	c-2.177-2.107-12.64-0.914-12.61-0.916c-7.801,3.193-15.404,6.352-22.781,9.464c-0.245,0.034-26.646,9.962-36.366,17.543
	c-10.228,7.781-10.45,14.023-12.155,20.109c-4.31,3.493-15.927,10.435-19.844,12.797c48.967,98.165,149.12,166.322,265.513,169.481
	c0.596,0.013,1.192,0.026,1.787,0.037c2.219,0.047,4.44,0.084,6.67,0.084C490.552,666,601.988,584.234,645.944,469.127z"/>
<path class="st3" d="M389.838,280.81c-3.036-0.662-12.48-0.457-12.483-0.454c-1.2-4.448-25.686,2.308-25.764,2.359
	c-12.701-0.001-25.387,0.058-38.022,0.176c-7.098-1.978-14.112-3.908-21.041-5.798c-6.49-0.598-12.943-1.181-19.356-1.751
	c0.203-3.075,0.423-6.067,0.659-8.971c0.531-1.162,1.063-2.309,1.594-3.441c0.442-4.312,0.921-8.414,1.438-12.288
	c-3.531-4.453-16.316-5.615-22.025,0.482c-3.055,7.489-6.019,15.784-8.879,24.74c-14.641,1.479-29.19,3.065-43.543,4.77
	c-0.641,0.944-1.28,1.893-1.917,2.849c-13.146,0.498-26.096,1.064-38.803,1.698c-0.872-4.231-8.329-4.74-18.902-3.045
	c-0.412,0.561-0.824,1.123-1.234,1.687c-2.627,0.244-5.242,0.491-7.844,0.743c-3.036,4.047-3.351,7.492,0.649,8.264
	c7.949,1.488,16.457,1.616,25.653,0.35c0.856,0.533,1.714,1.068,2.572,1.603c4.619,6.369,9.329,12.87,14.178,19.544
	c7.74-0.71,15.603-1.387,23.568-2.033c5.862,2.275,11.811,4.59,17.85,6.95c-1.776,12.867-3.328,26.383-4.655,40.34
	c0.523,1.429,1.049,2.864,1.58,4.305c0.96,2.383,1.932,4.781,2.914,7.193c-0.393,7.905-0.716,15.935-0.969,24.052
	c0.861,1.164,1.725,2.331,2.592,3.501c-2.587,30.88-4.205,62.896-4.806,94.111c-3.301,0.964-6.576,1.921-9.825,2.871
	c0.071,2.544,0.149,5.083,0.233,7.616c-1.482-0.033-2.958-0.066-4.429-0.1c-0.375,16.083-0.459,31.898-0.246,47.201
	c31.769,1.346,65.739,2.269,100.523,2.767c-1.224-15.643-2.329-31.919-3.301-48.5c-1.67-0.014-3.339-0.028-5.005-0.042
	c-0.045-2.599-0.086-5.207-0.124-7.82c-4.43-0.956-8.846-1.914-13.244-2.873c-0.302-19.227-0.369-38.768-0.202-58.136
	c1.318-0.006,2.637-0.012,3.959-0.018c0.092-11.125,0.258-22.193,0.497-33.11c0.876-0.01,1.753-0.019,2.63-0.029
	c0.252-30.13,1.058-59.102,2.443-84.966c6.459-1.808,12.922-3.585,19.377-5.33c10.083-0.104,20.216-0.165,30.373-0.183
	c6.77-3.107,15.164-13.055,16.126-20.622c10.503,0.584,20.962-0.485,31.151-3.094c0.402-0.333,0.804-0.665,1.205-0.996
	c0.002-0.001,3.178-1.303,3.995-1.964C393.088,283.703,392.415,281.366,389.838,280.81z"/>
<path class="st3" d="M454.392,615.896c-21.476-15.941-44.892-33.707-69.538-52.988c-30.913-7.375-62.534-15.309-93.671-23.584
	c-42.302-0.255-83.122-1.077-119.883-2.484c-19.483,3.199-37.752,6.092-54.651,8.668c54.087,70.844,138.393,117.368,233.687,120.325
	c3.223,0.08,6.445,0.136,9.664,0.167c33.536,0,65.803-5.413,95.999-15.382C455.75,640.168,455.207,628.524,454.392,615.896z"/>
</svg>
