<?xml version="1.0" encoding="utf-8"?>
<!-- Generator: Adobe Illustrator 19.1.1, SVG Export Plug-In . SVG Version: 6.00 Build 0)  -->
<svg version="1.1" id="Layer_8" xmlns="http://www.w3.org/2000/svg" xmlns:xlink="http://www.w3.org/1999/xlink" x="0px" y="0px"
	 viewBox="0 0 720 720" style="enable-background:new 0 0 720 720;" xml:space="preserve">
<path class="st1" d="M646.62,467.348c-123.953-7.734-444.847-7.823-573.342-0.268C116.688,583.265,228.675,666,360,666
	C491.224,666,603.138,583.391,646.62,467.348z"/>
<path class="st0" d="M73.066,475.204c26.074-2.933,60.492-5.846,99.671-8.59c-20.721-22.349-38.646-42.943-55.402-62.036
	c-1.218-0.365-2.432-0.728-3.641-1.09C95.97,421.84,81.026,440.827,69.051,458.89C70.287,464.372,71.622,469.803,73.066,475.204z"/>
<path class="st0" d="M642.393,486.145c2.494-8.39,4.663-16.872,6.632-25.455c-25.83-40.674-69.906-87.441-120.818-118.589
	c-3.953-0.247-7.911-0.488-11.872-0.723c-19.95,18.945-42.854,40.702-69.902,66.535c-9.566-8.169-19.132-16.048-28.563-23.52
	c-1.598-0.395-3.195-0.788-4.792-1.179c-8.048-6.656-15.98-12.982-23.712-18.906c-0.494-1.278-0.986-2.539-1.476-3.781
	c-12.598-9.345-24.619-17.584-35.757-24.552c-1.687,0.04-3.374,0.081-5.062,0.122c-10.684,6.257-22.059,13.573-33.871,21.806
	c0.132,0.792,0.265,1.591,0.4,2.398c-12.137,8.662-24.719,18.276-37.419,28.581c-27.187,23.426-54.805,50.377-79.794,77.274
	c57.974-0.583,124.236-0.535,189.155,0.081c-5.98,5.744-12.015,11.545-18.073,17.373
	C475.293,483.657,581.776,484.503,642.393,486.145z"/>
<path class="st3" d="M66.456,446.62c11.292,38.326,29.878,73.52,54.162,103.979c-0.079-1.401-0.155-2.803-0.227-4.208
	c2.25,0.099,4.528,0.197,6.832,0.293c-0.078-1.444-0.152-2.89-0.222-4.338c-2.3-0.088-4.574-0.177-6.82-0.268
	c-0.067-1.44-0.13-2.881-0.189-4.324c2.242,0.082,4.513,0.163,6.81,0.243c-0.063-1.452-0.122-2.905-0.177-4.36
	c-2.294-0.071-4.562-0.143-6.801-0.216c-0.053-1.446-0.102-2.894-0.147-4.342c2.236,0.064,4.501,0.127,6.793,0.189
	c-0.048-1.458-0.092-2.917-0.133-4.378c-2.29-0.053-4.552-0.106-6.786-0.16c-0.038-1.451-0.073-2.903-0.105-4.356
	c2.231,0.045,4.492,0.089,6.78,0.132c-0.033-1.463-0.062-2.926-0.088-4.391c-2.287-0.034-4.546-0.068-6.775-0.103
	c-0.024-1.455-0.045-2.91-0.062-4.365c2.229,0.025,4.486,0.049,6.772,0.073c-0.018-1.466-0.033-2.932-0.043-4.398
	c-2.285-0.014-4.542-0.029-6.77-0.043c-0.01-1.456-0.017-2.913-0.02-4.37c2.227,0.004,4.484,0.009,6.769,0.013
	c-0.003-1.467-0.003-2.934,0.001-4.4c-2.285,0.005-4.541,0.011-6.769,0.017c0.004-1.457,0.011-2.913,0.022-4.37
	c1.913-0.014,3.847-0.027,5.802-0.04c0.068-8.673,0.266-17.335,0.594-25.942c-6.467-0.433-12.717-0.844-18.729-1.232
	c0.204-6.051,0.464-12.079,0.777-18.073C92.495,447.945,78.673,447.187,66.456,446.62z"/>
<path class="st3" d="M120.695,550.695c1.192,1.493,2.388,2.983,3.607,4.453c1.144,0.057,2.275,0.114,3.432,0.169
	c-0.093-1.434-0.182-2.871-0.267-4.31C125.184,550.906,122.927,550.801,120.695,550.695z"/>
<path class="st3" d="M461.123,563.16c-3.622-1.385-7.271-2.781-10.946-4.19c-20.145,1.149-40.724,2.211-61.422,3.176
	c0.016-0.933,0.031-1.869,0.046-2.807c-0.928-0.063-1.856-0.126-2.785-0.189c-0.782-19.663-1.746-40.249-2.841-60.8
	c-15.973-1.648-32.023-3.299-47.999-4.936c0.001-0.805,0.002-1.61,0.004-2.414c-4.299-0.487-8.592-0.973-12.877-1.457
	c-3.941,1.017-7.877,2.034-11.803,3.051c-0.004,1.117-0.006,2.234-0.009,3.352c-9.904,3.499-19.748,6.989-29.486,10.453
	c2.048,59.066,7.308,117.576,15.124,152.904C316.732,663.679,338.094,666,360,666c32.177,0,63.189-4.979,92.321-14.188
	C456.868,628.208,459.785,597.1,461.123,563.16z"/>
<path class="st3" d="M261.783,436.929c0.057-1.084,0.115-2.166,0.175-3.244c-7.498-2.192-14.896-4.344-22.182-6.453
	c0.872-11.751,1.962-23.093,3.27-33.822c-2.842-1.092-5.662-2.173-8.461-3.245c-0.597,0.018-1.194,0.035-1.791,0.053
	c-0.181,1.332-0.359,2.674-0.533,4.025c-0.598,0.018-1.196,0.036-1.793,0.054c0.221-1.704,0.449-3.392,0.682-5.066
	c-3.634,0.11-7.251,0.225-10.85,0.345c0.14-0.953,0.281-1.901,0.425-2.844c-7.836,0.259-15.588,0.542-23.243,0.847
	c0.107-0.659,0.216-1.316,0.325-1.97c-0.212,0.008-0.423,0.017-0.635,0.025c0.162-0.968,0.327-1.931,0.493-2.888
	c-0.724,0.028-1.448,0.057-2.171,0.086c-0.192,1.099-0.381,2.205-0.567,3.317c-1.176,0.048-2.349,0.096-3.52,0.145
	c-0.679,0.581-1.357,1.163-2.034,1.748c-0.225,1.363-0.445,2.736-0.66,4.117c-6.735,0.288-13.384,0.596-19.936,0.921
	c-1.121,7.164-2.121,14.536-2.999,22.072c-6.323,0.302-12.535,0.621-18.624,0.957c-0.21,1.859-0.412,3.728-0.607,5.604
	c1.74-0.093,3.49-0.185,5.251-0.275c-0.146,1.387-0.289,2.778-0.427,4.174c-1.759,0.088-3.507,0.177-5.244,0.267
	c-0.163,1.671-0.321,3.349-0.473,5.032c1.735-0.086,3.48-0.171,5.237-0.255c-0.146,1.593-0.287,3.192-0.422,4.795
	c-1.755,0.08-3.498,0.161-5.23,0.243c-0.362,4.327-0.686,8.688-0.974,13.076c2.115-0.085,4.248-0.168,6.399-0.25
	c-0.119,1.788-0.232,3.58-0.338,5.377c-2.149,0.075-4.28,0.15-6.392,0.228c-0.265,4.537-0.492,9.099-0.679,13.679
	c2.108-0.057,4.235-0.112,6.38-0.167c-0.068,1.641-0.131,3.284-0.189,4.929c-2.144,0.047-4.27,0.094-6.376,0.143
	c-0.057,1.638-0.109,3.277-0.156,4.918c2.105-0.04,4.23-0.08,6.373-0.119c-0.048,1.649-0.091,3.3-0.128,4.952
	c-2.143,0.031-4.266,0.062-6.371,0.095c-0.037,1.644-0.069,3.289-0.096,4.935c2.104-0.024,4.227-0.047,6.369-0.07
	c-0.028,1.655-0.05,3.31-0.068,4.966c-2.142,0.014-4.265,0.029-6.368,0.044c-0.017,1.648-0.029,3.296-0.037,4.944
	c2.103-0.006,4.226-0.013,6.367-0.019c-0.007,1.657-0.01,3.314-0.007,4.971c-2.142-0.002-4.264-0.004-6.367-0.007
	c0.003,1.649,0.01,3.297,0.023,4.945c2.103,0.011,4.226,0.022,6.368,0.032c0.013,1.656,0.031,3.313,0.054,4.968
	c-2.142-0.019-4.265-0.038-6.369-0.058c0.023,1.647,0.05,3.293,0.082,4.938c2.104,0.028,4.228,0.056,6.37,0.083
	c0.033,1.653,0.071,3.306,0.114,4.956c-2.143-0.035-4.267-0.071-6.372-0.108c0.042,1.643,0.09,3.283,0.142,4.923
	c2.106,0.045,4.231,0.089,6.375,0.132c0.053,1.647,0.112,3.292,0.175,4.935c-2.145-0.051-4.271-0.103-6.378-0.156
	c0.062,1.635,0.129,3.268,0.202,4.899c2.109,0.061,4.236,0.12,6.382,0.179c0.073,1.638,0.152,3.273,0.236,4.906
	c-2.147-0.066-4.276-0.133-6.386-0.201c0.082,1.625,0.169,3.248,0.261,4.867c2.112,0.075,4.243,0.15,6.391,0.222
	c0.094,1.626,0.193,3.249,0.296,4.868c-2.15-0.079-4.282-0.16-6.396-0.242c0.102,1.612,0.209,3.221,0.321,4.827
	c2.117,0.089,4.251,0.176,6.402,0.262c0.114,1.611,0.233,3.219,0.357,4.821c-2.153-0.092-4.29-0.185-6.409-0.279
	c0.463,6.098,1.009,12.123,1.616,18.079c35.334,34.444,78.96,60.411,127.61,74.624c-10.694-49.05-15.178-133.486-12.948-206.674
	c-1.074-1.353-2.143-2.7-3.206-4.042c0.098-2.022,0.201-4.036,0.31-6.039C259.393,436.967,260.587,436.948,261.783,436.929z"/>
<path class="st3" d="M617.826,524.877c-0.085-11.056-0.306-22.161-0.71-33.271c-0.874-0.523-1.755-1.048-2.642-1.575
	c-2.857,0.054-5.775,0.109-8.753,0.167c-0.039-3.497-0.096-6.991-0.172-10.481c-1.437-0.035-2.888-0.069-4.352-0.103
	c-0.029-1.256-0.06-2.51-0.094-3.765c-1.278-0.035-2.566-0.069-3.863-0.103c0.035,1.259,0.068,2.519,0.097,3.78
	c-1.563-0.035-3.141-0.07-4.733-0.104c-0.04-1.625-0.084-3.249-0.133-4.871c-1.341-0.035-2.691-0.07-4.052-0.104
	c0.05,1.628,0.096,3.258,0.137,4.889c-1.201-0.025-2.41-0.05-3.627-0.074c-3.485,0.892-7.032,1.796-10.639,2.711
	c0.046,1.994,0.085,3.989,0.117,5.987c-1.443-0.016-2.895-0.031-4.356-0.047c-0.003-0.195-0.006-0.389-0.01-0.583
	c0.951-0.547,1.595-1.685,1.568-3.022c-0.038-1.878-1.374-3.421-2.988-3.447c-1.615-0.027-2.897,1.481-2.858,3.369
	c0.011,0.543,0.141,1.052,0.344,1.511c-1.076-0.013-2.156-0.025-3.241-0.038c0.013,0.712,0.026,1.425,0.037,2.138
	c-3.299-0.033-6.642-0.065-10.025-0.096c0.045,2.773,0.076,5.548,0.093,8.324c-2.925-0.01-5.88-0.02-8.864-0.029
	c0.851,39.138-1.1,78.406-5.837,112.68C569.795,586.084,596.847,557.615,617.826,524.877z"/>
<path class="st3" d="M579.01,476.936c0.031,1.101-0.694,1.98-1.626,1.963c-0.931-0.017-1.713-0.928-1.746-2.032
	c-0.032-1.105,0.697-1.983,1.629-1.961C578.199,474.925,578.979,475.835,579.01,476.936z"/>
<path class="st3" d="M550.788,493.641c0.01,1.048-0.737,1.896-1.667,1.893c-0.93-0.003-1.694-0.859-1.703-1.909
	c-0.01-1.051,0.738-1.899,1.669-1.892C550.018,491.738,550.778,492.592,550.788,493.641z"/>
<path class="st3" d="M515.516,556.624c2.817-2.103,5.613-4.209,8.386-6.317c6.114-1.956,12.135-3.911,18.048-5.862
	c-1.1-1.54-2.21-3.085-3.328-4.638c-4.071,1.195-8.192,2.393-12.358,3.593c-0.546-0.683-1.094-1.368-1.644-2.053
	c4.07-1.843,8.095-3.684,12.071-5.52c-2.206-0.958-4.429-1.922-6.669-2.891c-2.569,1.908-5.16,3.819-7.772,5.732
	c-0.805-0.245-1.611-0.49-2.419-0.736c2.247-1.861,4.478-3.721,6.691-5.579c0.982-3.347,1.942-6.701,2.881-10.057
	c-1.057-0.387-2.118-0.775-3.182-1.165c-1.926,1.286-3.865,2.574-5.815,3.864c0.133-2.022,0.258-4.047,0.377-6.073
	c-1.467,1.443-2.943,2.888-4.427,4.335c-1.103-0.29-2.21-0.58-3.32-0.872c0.72-1.059,1.438-2.119,2.153-3.177
	c-2.2-0.767-4.413-1.538-6.639-2.312c-0.664,1.498-1.332,2.995-2.004,4.493c-1.194-0.414-2.391-0.83-3.592-1.247
	c0.021-1.587,0.039-3.175,0.053-4.765c-1.606-0.162-3.218-0.324-4.835-0.488c-0.258,8.19-0.62,16.35-1.086,24.425
	c-1.446-6.121-2.965-12.304-4.551-18.527c-1.84-0.338-3.687-0.678-5.54-1.018c-0.285,2.475-0.58,4.946-0.883,7.413
	c-1.723-2.811-3.465-5.635-5.226-8.47c-2.591-0.309-5.193-0.619-7.806-0.931c5.113,9.962,10.032,19.809,14.719,29.442
	c-5.685-4.212-11.479-8.488-17.37-12.817c-3.644-1.042-7.312-2.09-11.003-3.145c-0.456,2.45-0.92,4.895-1.39,7.332
	c3.664,0.345,7.309,0.687,10.934,1.025c4.801,4.908,9.516,9.756,14.133,14.53c-3.898,0.956-7.819,1.91-11.759,2.861
	c-1.709,2.276-3.425,4.542-5.147,6.799c5.524-1.679,11.016-3.366,16.465-5.058c3.089,1.831,6.151,3.647,9.182,5.446
	c-8.647,31.755-18.869,61.367-29.965,84.409c2.883-1.018,5.749-2.072,8.591-3.173c10.175-21.481,19.505-48.109,27.498-76.613
	c0.537,0.273,1.073,0.545,1.609,0.817c1.698,6.307,3.302,12.496,4.808,18.544c0.563-5.287,1.07-10.671,1.523-16.135
	c2.04,0.154,4.072,0.306,6.095,0.456c7.205,4.505,14.215,8.899,21.04,13.183c0.16-0.88,0.319-1.762,0.476-2.647
	c-6.154-5.719-12.511-11.594-19.081-17.62c7.451,1.627,14.76,3.214,21.916,4.759c1.183-1.563,2.359-3.13,3.527-4.7
	c-7.007-1.668-14.167-3.377-21.471-5.127c9.695,0.598,19.164,1.158,28.369,1.677c0.694-1.484,1.383-2.97,2.066-4.46
	c-5.179-1.299-10.449-2.623-15.807-3.97C527.283,554.611,521.438,555.62,515.516,556.624z"/>
</svg>
