<?xml version="1.0" encoding="utf-8"?>
<svg version="1.1"  xmlns="http://www.w3.org/2000/svg" xmlns:xlink="http://www.w3.org/1999/xlink" x="0px" y="0px" viewBox="0 0 720 720" style="enable-background:new 0 0 720 720;" xml:space="preserve">
<style type="text/css">
 .stroke2{fill:none;stroke-width:6.1581;} 
 .stroke3{fill:none;stroke-width:4.3986;} 
 .stroke4{fill:none;stroke-width:3.5189;stroke-linejoin:round;} 
 .stroke5{fill:none;stroke-width:1.3196;} 
 </style>
<path  class="st0" d="M334.04,664.89c19.14-0.16,38.29-0.32,57.46-0.5c130.89-13.39,237.35-109.27,266.55-234.81 c0,0,0,0,0,0c-8.31-0.56-17.47-1.25-27.38-2.07c-0.06,4.07-0.13,8.13-0.21,12.19c-3.94,0.39-8,0.78-12.16,1.15 c-0.06,2.62-0.13,5.25-0.19,7.86c-6.1,0.59-12.44,1.15-18.98,1.68c-3.15-52.61-7.76-107.71-14.23-162.07c0.01,0-3.07-7.63-3.11-8.75 c0.14-1.27-7.45-52.56-7.62-52.37c-0.64-5.96-1.3-11.88-1.98-17.76c-2.25-6.62-4.55-13.19-6.88-19.71 c-1.96,1.91-3.94,3.83-5.93,5.77c0.04,2.24,0.08,4.48,0.11,6.73c-0.78,0.05-1.56,0.1-2.34,0.15c-0.91-3.63-1.83-7.25-2.75-10.84 c-2.03,41.62-5.27,86.46-9.79,132.49c-0.93,0.24-1.86,0.48-2.79,0.72c-5.06,52.35-11.76,106.21-19.92,157.25 c-3.83,0.21-7.69,0.41-11.57,0.61c0.08-1.82,0.16-3.65,0.23-5.48c-2.25-3.45-4.52-6.93-6.81-10.44c-5.92,0.25-11.9,0.48-17.95,0.7 c-0.05,1.49-0.1,2.97-0.15,4.46c-1.46,0.05-2.93,0.11-4.4,0.16c0.07-2.13,0.14-4.27,0.21-6.42c-3.6,0.12-7.22,0.24-10.86,0.35 c0.24-8.14,0.44-16.35,0.62-24.62c-16.38-1.7-33.16-3.51-50.16-5.43c-0.05,4.53-0.11,9.05-0.18,13.54 c-5.89,0.08-11.8,0.15-17.73,0.21c-0.03,2.87-0.06,5.74-0.09,8.6c-4.75,0.05-9.52,0.1-14.29,0.13c0.03-3.62,0.06-7.26,0.08-10.91 c-8.79,0.06-17.61,0.1-26.43,0.11c0,1.25,0,2.5-0.01,3.75c-6.07,0.01-12.15,0-18.22-0.01c-0.01-2.21-0.01-4.42-0.02-6.63 c-9.07-0.02-18.13-0.07-27.15-0.14c-0.17-20.26-0.27-40.9-0.32-61.66c-1.53-1.53-3.05-3.06-4.58-4.59 c-0.01-4.24-0.01-8.48-0.02-12.73c-2.16,0-4.32,0-6.48,0c0-7.69,0-15.39,0.02-23.08c-11.17,0.03-22.27,0.06-33.25,0.1 c-0.03,9.11-0.04,18.24-0.02,27.36c-4.43-0.01-8.84-0.02-13.23-0.03c0.07,31.28,0.46,62.46,1.18,92.6c-4.06-0.1-8.1-0.2-12.12-0.32 c-0.06-2.35-0.12-4.7-0.18-7.06c-8.34-0.22-16.58-0.46-24.72-0.73c-0.42-14.72-0.75-29.67-0.97-44.72 c-15.17-1.14-29.95-2.31-44.19-3.51c-7.65,1.13-15.14,2.22-22.45,3.29c0.19,10.58,0.45,21.12,0.77,31.57 c-8.82-0.45-17.4-0.93-25.68-1.45c0.11,3.7,0.23,7.39,0.35,11.08c-1.63-0.11-3.25-0.23-4.85-0.35c-0.01,0,1.25,9.73,0.34,9.65 c-0.71-0.05-6.55-0.52-9.23-0.76c-3.39-82.36-20.48-140.98-30.42-139.71c-3.41,0.02-20.92,17.07-25.59,107.46 C90.08,555.55,199.71,653.6,334.04,664.89z"/>
<path  class="st1" d="M113.39,519.15c0.46,8.09,0.96,16.11,1.5,24.05c-3.15-4.21-6.19-8.5-9.12-12.87 c-0.24-4.2-0.48-8.42-0.7-12.66c0.68-0.75,1.36-1.51,2.05-2.26c1.46,0.18,2.92,0.36,4.4,0.54 C112.13,517.02,112.76,518.08,113.39,519.15z M649.19,458.02c-0.82,1.67-1.66,3.35-2.5,5.03c-0.59,0.28-1.18,0.56-1.77,0.84 c-0.15,1.71-0.31,3.41-0.47,5.12c0.53-0.04,1.05-0.07,1.58-0.11c1.39-3.64,2.72-7.3,3.97-11 C649.73,457.94,649.46,457.98,649.19,458.02z M569.45,583.06C514.7,634.49,441.04,666,360,666c-3.18-0.03-6.36-0.08-9.54-0.16 c-92.18-2.82-174.08-46.41-228.32-113.34c-0.12-1.65-0.25-3.3-0.37-4.96c1.26-1.33,2.53-2.66,3.81-4 c-0.65-9.05-1.25-18.21-1.8-27.48c-1.13-1.3-2.24-2.59-3.36-3.89c-0.2-3.55-0.4-7.11-0.58-10.69c1,0.11,2.01,0.21,3.02,0.32 c-0.14-2.61-0.27-5.22-0.4-7.84c3.45-1.24,6.95-2.5,10.49-3.78c0.72,0.07,1.44,0.13,2.16,0.2c-0.12-2.33-0.23-4.67-0.34-7.01 c0.6,0.05,1.2,0.1,1.8,0.16c-0.06-1.35-0.13-2.71-0.19-4.06c1.53,0.13,3.06,0.25,4.6,0.38c0.02,0.5,0.05,1,0.07,1.49 c1.38,0.11,2.77,0.22,4.16,0.33c0.15,3.22,0.31,6.43,0.48,9.63c2.87,0.24,5.77,0.47,8.69,0.7c0.29,5.61,0.6,11.17,0.94,16.7 c17.22,1.44,35.28,2.68,53.93,3.7c0.14,2.62,0.29,5.23,0.44,7.82c-0.41-0.02-0.81-0.05-1.22-0.07c0.84,14.35,1.79,28.32,2.87,41.79 c15.63,0.95,31.61,1.74,47.81,2.37c0.08,1.38,0.17,2.76,0.25,4.13c9.33,0.36,18.74,0.67,28.2,0.93c1.22-2,2.44-4.01,3.68-6.03 c2.31-1.07,4.62-2.16,6.95-3.25c33.37-1.36,62.32,7.03,82.33,21.69c1.88-0.89,3.75-1.81,5.62-2.74c0.08-3.83,0.17-7.72,0.25-11.66 c4.65-0.05,9.29-0.12,13.92-0.2c-0.02,0.75-0.04,1.5-0.07,2.25c1.3-0.02,2.61-0.05,3.91-0.07c26.38-15.21,51.73-34.66,75.02-58.29 c0.64-13.49,1.18-27.32,1.64-41.38c1.9-7.41,3.79-14.88,5.65-22.4c0.06-2.19,0.11-4.38,0.16-6.58c-0.52,0.01-1.04,0.03-1.56,0.04 c0.01-0.58,0.03-1.16,0.04-1.74c0.52-0.01,1.04-0.03,1.56-0.04c0.03-1.23,0.06-2.47,0.08-3.7c0.56-0.01,1.13-0.03,1.69-0.04 c-0.03,1.23-0.06,2.47-0.09,3.7c0.52-0.01,1.03-0.03,1.55-0.04c-0.01,0.58-0.03,1.16-0.04,1.74c-0.52,0.01-1.03,0.03-1.55,0.04 c-0.05,2.14-0.11,4.27-0.16,6.4c1.08,4.21,2.15,8.4,3.2,12.57c0.65-0.02,1.3-0.05,1.95-0.07c0.61-1.73,1.22-3.47,1.83-5.21 c0.51,1.41,1.02,2.82,1.53,4.23c1.02-0.04,2.03-0.08,3.04-0.11c2.85-8.46,5.65-16.98,8.42-25.52c0.22-0.01,0.45-0.01,0.67-0.02 c0.06-2.33,0.11-4.67,0.16-7.01c0.34-0.01,0.69-0.02,1.03-0.03c0.05-2.22,0.09-4.45,0.14-6.68c0.5-0.01,0.99-0.03,1.49-0.04 c0.06-3.01,0.11-6.02,0.16-9.04c0.55-0.01,1.09-0.02,1.64-0.04c-0.05,3.19-0.11,6.37-0.17,9.55c0.62,0.32,1.25,0.64,1.87,0.95 c-0.08,4.07-0.17,8.14-0.27,12.19c1.35,3.92,2.68,7.82,3.99,11.7c0.06,0,0.13-0.01,0.19-0.01c0.06-1.9,0.11-3.81,0.16-5.72 c-0.5,0.02-1,0.04-1.49,0.05c0.02-0.57,0.03-1.15,0.05-1.72c0.5-0.02,1-0.04,1.49-0.05c0.03-1.22,0.06-2.44,0.1-3.66 c0.54-0.02,1.08-0.04,1.62-0.06c-0.03,1.22-0.06,2.44-0.1,3.66c0.5-0.02,0.99-0.04,1.49-0.05c-0.02,0.57-0.03,1.14-0.05,1.72 c-0.5,0.02-0.99,0.04-1.49,0.06c-0.05,1.91-0.11,3.81-0.16,5.72c0.07,0,0.14-0.01,0.21-0.01c1,4.05,1.99,8.07,2.96,12.08 c1.42-1.1,2.83-2.2,4.24-3.3c0.97,3.91,1.93,7.8,2.88,11.67c0.63-3.86,1.26-7.73,1.87-11.61c0.35-0.02,0.71-0.03,1.06-0.05 c0.08-2.34,0.16-4.68,0.23-7.03c-0.49,0.02-0.97,0.04-1.46,0.07c0.02-0.57,0.04-1.13,0.05-1.7c0.49-0.02,0.97-0.04,1.46-0.06 c0.04-1.21,0.07-2.41,0.11-3.62c0.53-0.02,1.05-0.04,1.58-0.07c-0.04,1.21-0.07,2.41-0.11,3.62c0.48-0.02,0.97-0.04,1.45-0.07 c-0.02,0.57-0.04,1.13-0.05,1.7c-0.48,0.02-0.97,0.04-1.45,0.07c-0.07,2.35-0.15,4.69-0.23,7.03c0.3-0.01,0.61-0.03,0.91-0.04 c1.07,5.53,2.12,11.02,3.15,16.47c-0.26,6.22-0.54,12.4-0.84,18.53c24.59-1.6,47.67-3.56,68.55-5.87c0.19-4.6,0.36-9.22,0.53-13.85 c-2.08,1.05-4.18,2.09-6.3,3.14c-0.63,0.02-1.27,0.04-1.91,0.05c1.39-2.1,2.77-4.19,4.14-6.29c0.81-0.03,1.62-0.07,2.43-0.1 c0.61-0.72,1.22-1.44,1.83-2.16c0.44-0.04,0.87-0.09,1.31-0.13c-0.21,6.42-0.45,12.82-0.7,19.19c1.45-0.16,2.89-0.33,4.32-0.49 c0.07-1.86,0.14-3.72,0.21-5.58c0.84-0.09,1.67-0.19,2.5-0.28c-0.04,1.06-0.07,2.12-0.11,3.18c1.02-0.12,2.03-0.24,3.03-0.36 c0.03-0.76,0.05-1.52,0.08-2.28c0.57-0.07,1.13-0.14,1.7-0.2c0.05-1.57,0.1-3.14,0.15-4.71c0.42-0.05,0.84-0.1,1.25-0.15 c-0.05,1.57-0.1,3.14-0.15,4.7c0.38-0.05,0.76-0.09,1.13-0.14c-0.02,0.74-0.05,1.48-0.07,2.22c1.21-0.15,2.41-0.3,3.6-0.46 c0.03-1.05,0.06-2.1,0.09-3.15c0.84-0.11,1.68-0.21,2.52-0.32c-0.05,1.86-0.1,3.71-0.16,5.57c4.81-0.64,9.46-1.31,13.96-1.99 c-2.87,6.89-5.98,13.65-9.33,20.27c-27.69,4.18-60.3,7.54-95.93,10.08c-0.33,5.66-0.68,11.27-1.05,16.83 c-0.7,2.16-1.41,4.31-2.12,6.45c-1.19,17-2.56,33.45-4.13,49.19c5.39-0.4,10.73-0.82,16.02-1.26c-0.39,3.95-0.8,7.85-1.22,11.71 c5.76-0.45,11.46-0.93,17.11-1.43c0.22-2.13,0.44-4.26,0.66-6.41c2.32-0.21,4.63-0.43,6.93-0.65 C569.5,582.59,569.47,582.83,569.45,583.06z M386.1,581.54c-0.32,0.16-0.63,0.31-0.95,0.46c0.31,0,0.63-0.01,0.94-0.01 C386.09,581.84,386.1,581.69,386.1,581.54z M478.39,526.91c0.15-2.83,0.3-5.67,0.44-8.53c-14.77,19.34-30.45,35.3-46.68,48.07 c16.29-10.41,32.08-22.49,47.11-36.22C478.97,529.13,478.68,528.02,478.39,526.91z M410.91,568c-0.69,0.42-1.39,0.83-2.08,1.25 c0.68-0.01,1.36-0.03,2.04-0.04C410.88,568.8,410.9,568.4,410.91,568z M425.27,568.85c18.37-13.6,36.07-31.22,52.62-53.15 c-20.3,20.12-42.11,37.13-64.75,50.95c0.54-0.01,1.09-0.02,1.63-0.04c-0.03,0.83-0.06,1.67-0.1,2.5 C418.22,569.04,421.75,568.95,425.27,568.85z M479.27,540.61c-11.54,12.93-23.64,23.97-36.14,33.26 c11.43-0.39,22.77-0.87,33.97-1.42C477.89,562.16,478.61,551.53,479.27,540.61z M479.72,532.95 c-16.75,15.16-34.43,28.27-52.68,39.33c-0.03,0.7-0.07,1.4-0.1,2.09c4.1-0.11,8.18-0.24,12.26-0.37c14-10.12,27.49-22.45,40.3-37.13 C479.57,535.56,479.64,534.26,479.72,532.95z"/>
<g class="st3">
	<path class="stroke2" d="M474.59,76.36c5.44,105.65-21.51,251.72-62.34,357.57c-40.35,108.67-94.28,177.97-142.51,218.16 M205.82,624.35c18.78-22.7,37.94-49.14,56.56-83.08c20.99-38,41.28-85.57,59.25-140.95c17.96-55.09,33.59-118,45-179.86 c11.4-61.56,18.57-122.07,19.33-165.48 M191.07,615.16c20.76-17.97,41.37-41.75,61.19-74.01c22.99-37.14,44.92-85.71,64.32-142.47 c19.38-56.46,36.22-121.11,48.52-183.34c12.28-61.92,20.03-121.42,20.72-160.46"/>
	<path class="stroke3" d="M428.63,387.5c-33.65-0.87-68.26-1.87-102.48-2.98 M471.95,164.56 c-30.79-3.88-62.5-7.15-94.23-9.81 M386.16,76.36c30.06,2.49,60.35,5.36,90.38,8.77 M348.05,315.39c32.87,1.7,65.87,3.58,97.8,5.58 M367.25,218.05c33.59,2.58,67.16,5.71,99.51,9.32 M296.29,470.84c33.53,1.19,67.77,1.94,101.49,2.23 M272.61,522.09 c32.66,1.4,66.22,2.22,99.58,2.45 M214.82,615.77c29.47,1.51,59.7,2.57,90.2,3.16 M244.34,575.29c30.33,1.75,61.53,2.92,92.85,3.52" />
	<path class="stroke4" d="M375.05,218.73c30.72-20.21,60.41-39.06,88.22-56.31 M475.18,128.97 c-30.91,5.48-63.19,11.63-96.26,18.63c31.58,2.74,63.15,6.08,93.83,10.03c-30.9,4.78-63.2,10.29-96.1,16.56 c26.84,16.42,54.29,34.02,81.25,52.24c-23.25-24.74-46.83-48.54-69.67-70.41 M439.76,64.5c9.62,6.29,19.4,13.1,29.25,20.41 M454.34,82.41c-23.3-8.44-47.64-16.32-69.86-23 M404.01,57.14c-4.67,1.32-9.37,2.66-14.1,4.01 M425.56,61.04 c-12.5,6.63-25.45,13.59-38.86,21.04c28.38,11.14,57.92,23.81,87.36,38.04 M380.21,146.76c33.71-20.69,65.37-38.88,94.7-55.53 M382.71,112.52c31.38-8.15,61.72-15.4,90.87-22.29c-29.61-3.12-59.54-5.72-89.31-7.94 M471.7,156.14 c-29.23-16.14-58.81-31.01-87.43-44.37 M434.68,320.19c-36.62,22.04-74.85,45-112.34,67.45 M347.36,316.43 c25.68,23.95,51.64,48.32,76.83,72.13c-22.34-24.4-45.33-49.33-68.14-73.87 M349.1,305.73c40.18-26.7,79.94-52.59,116.75-76.15 M463.35,232.72c-32.03-3.11-65.24-5.76-98.46-7.9 M362.21,244.79c32.75-4.25,65.3-8.04,96.59-11.26 M454.11,284.69 c-28.71-20.54-58.21-40.88-87.18-60.19c27.19,27.4,55.1,56.44,82.18,85.56 M363.58,243.8c28.23,22.09,56.96,45.2,84.88,68.3 M348.41,308.14c35.4-5.78,70.82-11.32,104.82-16.38 M223.59,633.97c45.59-49.27,91.75-131.69,125.82-242.08 c35.74-111.57,58.33-253.59,58-334.23 M282.82,500.25c27.77,8.46,55.91,16.51,83.65,24 M301.91,460.94 c33.01,0.65,66.65,0.92,99.76,0.78 M427.6,388.54c-41.3,23.8-83.93,47.72-124.71,70.07 M305.8,444.51 c30.73,6.4,61.87,12.54,92.44,18.24c-23.29-24.59-47.41-50.3-71.39-76.15c15.75,13.45,31.56,26.86,47.2,40.06 M402.62,434.37 c-8.45-15.59-17.05-31.44-25.71-47.4c-0.95,16.9-1.92,33.71-2.89,50.29 M395.05,435.45c10.07-13.58,20.15-27.3,30.13-41.03 M362.97,425.67c17.78,0.1,35.54,0.12,53.09,0.06 M298.8,457.56c23.91,23.43,47.89,46.23,71.03,67.61 c-21-24.2-42.84-50.06-64.67-76.61 M272.31,523.01c40.62-18.21,84-38.53,127.28-59.94 M337.16,576.28 c-18.21-21.53-37.16-45.04-56.15-69.69 M367.12,528.6c-42.27,16.72-83.51,31.74-121.96,45.03 M336.21,577.96 c-20.2-17.16-41.06-35.72-61.93-55.2 M233.58,591.86c14.08,19.39,28.19,37.15,41.89,52.6 M236.13,585.73 c22.43,11.22,45.04,21.64,67.22,31.2c-15.2-18.93-30.98-40.19-46.77-62.99 M259.71,546.65c24.73,11.28,49.69,21.94,74.23,31.85 M343.61,568.93c-6.79-14.46-13.75-29.69-20.81-45.49c-3.55,15.98-6.97,31.38-10.22,46.01 M314.29,560.81 c8.31,0.43,16.64,0.81,24.98,1.16 M299.79,620.06c-24.61,5.71-48.48,10.96-71.71,16.09 M213.68,616.22 c20.71,11.04,41.58,21.06,61.98,30 M217.05,614.36c37.3-10.27,77.01-21.45,118.53-34.44 M244.4,576.13 c19.75,15.48,39.53,29.91,58.75,43.01 M446.38,264.75c-9.94-11.99-19.95-23.86-29.94-35.51c0.46,11.36,0.89,22.94,1.29,34.66 M463.85,237.59c-1.18,0.14-22.05,26.27-22.16,26.4 M434.61,135.84c-2.25,5.06-4.53,10.23-6.86,15.5 c7.39-2.84,14.69-5.62,21.91-8.33 M456.92,101.56c-8.6-5.4-17.16-10.56-25.63-15.49c2.45,5.73,4.91,11.71,7.38,17.91 M386.44,82.97 c26.64,20.52,55.2,45.13,83.65,72.51"/>
	<path class="stroke5" d="M383.25,61.62c-36.33,1.36-73.03,2.86-109.74,4.77 M379.39,113 c-59.01-8.18-116.61-13.97-170.94-18.9 M373.48,172.81c-73.78-21.14-143.79-37.19-205.92-50.74 M362.17,221.9 c-75.33-36.51-144.81-66.13-204.67-91.32 M341.99,310.04c-80.94-58.67-153.87-109.78-212.85-150.89 M320.59,378.79 c-66.53-90.59-125.5-174.68-171.36-240.63 M274.08,496.66c-29.06-61.33-57.67-128.6-81.85-190.41 c-22.01-56.08-40.44-107.75-56.77-154.13 M298.75,440.54c-75.87-91.82-142.55-182.83-192.43-252.62 M90.06,215.76 c19.16,46.56,40.27,98.07,65.93,152.98c27.5,59.15,60.36,122.31,93.74,177.36 M226.57,578.75c-23.99-65.42-46.1-145.18-63.51-220.91 c-15.98-69.15-28.09-135-38.1-193.8 M358.1,240c-70.16-47.03-134.03-86.06-188.74-119.38 M442.02,224.5 c-98.12-42.7-195.29-76.09-274.98-102.35 M200.84,607.59c-28.27-54.7-54.31-122.82-75.17-188.56 c-19.64-61.53-34.8-121.01-48.75-175.45 M115.83,176.24c2.49,65.42,7.07,137.46,14.99,210.57c7.84,72.65,19.02,146.36,33.53,208.45 M109.84,536.23c-7.93-111.25-8.83-236.55-3.33-347.68 M218.26,588.63c-24.19-64.34-46.21-143.75-63.45-219.55 c-15.83-69.24-27.74-135.51-37.75-195.15 M77.76,478.42c2.98-88.12,7.69-182.2,17.4-271.81 M73.17,253.16 c-7.16,45.19-12.76,90.13-18.05,133.26 M81.33,233.4c-9.84,59.73-16.79,119.78-23.36,176.67 M66.25,274 c12.87,86.39,28.06,184.48,52.6,274.36 M70.68,260.08c14.17,95.03,31.6,205.35,60.32,302.86 M68.86,454.41 c-4.8-45.61-8.53-90.93-12.19-135.03"/>
	<path d="M432.26,439.16c-9.3-4.69-22.37-7.23-36.8-7.13c-14.43,0.1-27.73,2.82-37.3,7.69 c-10.18,5.17-15.51,12.26-15.48,20.5c0.03,7.92,5.54,15.04,15.46,20.03c9.59,4.82,22.66,7.4,36.78,7.25 c14.12-0.16,27.08-3.03,36.6-8.04c9.84-5.18,15.33-12.34,15.5-20.2C447.19,451.09,442.14,444.15,432.26,439.16z M428.66,456.08 c-1.31-0.03-2.61-0.05-3.92-0.08c0.07-1.9,0.15-3.81,0.22-5.73c-0.6-1.5-1.2-3.01-1.8-4.52c1.89-0.03,3.78-0.05,5.67-0.08 C428.77,449.15,428.71,452.62,428.66,456.08z M413.68,445.87c0.99-0.01,1.98-0.02,2.97-0.04c1.04,2.05,2.09,4.1,3.13,6.14 c-0.03,1.85-0.05,3.69-0.08,5.53c-0.61,0.44-1.22,0.88-1.83,1.31c0.05,0.25,0.1,0.51,0.15,0.76c-1.5,0.02-3,0.04-4.51,0.06 C413.56,455.08,413.63,450.49,413.68,445.87z M392.45,450.45c-1.03,0.22-2.06,0.44-3.09,0.66c-1.18-1.66-2.36-3.32-3.54-4.98 c1.8-0.01,3.6-0.02,5.4-0.04C391.62,447.54,392.04,449,392.45,450.45z M411.51,456.24c-0.41,0.05-0.82,0.1-1.23,0.15 c-0.05,0.61-0.1,1.22-0.15,1.82c-1.02,0.03-2.04,0.07-3.07,0.1c1.04-4.12,2.08-8.25,3.12-12.4c0.49-0.01,0.97-0.01,1.46-0.02 C411.59,449.36,411.55,452.81,411.51,456.24z M379,446.16c0.99,0,1.98-0.01,2.96-0.01c2.29,2.3,4.58,4.6,6.86,6.88 c0.14,1.9,0.27,3.79,0.41,5.68c-0.43,0.41-0.87,0.81-1.3,1.22c-1.1,0.01-2.2,0.02-3.3,0.02c-0.1-2.93-0.2-5.86-0.3-8.81 c-1.47,1.8-2.94,3.6-4.41,5.39c0.13,1.15,0.27,2.29,0.4,3.44c-0.46,0-0.93,0.01-1.39,0.01C378.95,455.39,378.97,450.79,379,446.16z M361.56,446.21c1.68,0,3.36,0,5.04-0.01c-0.65,2.32-1.31,4.63-1.96,6.93c0,2.3-0.01,4.6-0.01,6.9c-1.03,0-2.05,0-3.08,0 C361.55,455.45,361.56,450.84,361.56,446.21z M359.47,472.39c-2.79,0-5.59,0-8.38,0c-3.22-3.06-5.21-6.56-5.7-10.35 c4.7,0.01,9.4,0.02,14.09,0.01C359.48,465.51,359.47,468.96,359.47,472.39z M359.48,460.04c-4.74,0-9.48,0-14.22-0.01 c0.06-5.95,3.38-10.48,7.48-13.81c2.25,0,4.5,0,6.75,0C359.49,450.84,359.49,455.45,359.48,460.04z M361.54,462.05 c1.03,0,2.05,0,3.08-0.01c-0.01,3.46-0.02,6.91-0.02,10.34c-1.02,0-2.05,0-3.07,0.01C361.53,468.95,361.54,465.51,361.54,462.05z M376.79,472.33c-2.51,0.01-5.02,0.02-7.53,0.03c0.25-3.43,0.51-6.88,0.76-10.34c2.28-0.01,4.56-0.02,6.83-0.03 C376.83,465.46,376.81,468.9,376.79,472.33z M376.86,459.99c-2.23,0.01-4.46,0.02-6.7,0.03c0.25-3.41,0.5-6.84,0.75-10.27 c0-1.18,0.01-2.37,0.01-3.55c2-0.01,4-0.01,6.01-0.02C376.91,450.8,376.89,455.4,376.86,459.99z M378.91,461.99 c0.54,0,1.09-0.01,1.63-0.01c0.34,2.93,0.68,5.86,1.01,8.77c-0.9,0.53-1.81,1.05-2.71,1.57 C378.87,468.89,378.89,465.45,378.91,461.99z M407.76,472.04c0.02-1.1,0.03-2.2,0.05-3.3c1.17-0.02,2.35-0.03,3.52-0.05 c-0.02,1.1-0.03,2.2-0.05,3.29C410.11,472.01,408.93,472.02,407.76,472.04z M413.36,468.67c1.39-0.02,2.79-0.04,4.18-0.06 c-1.36-2.01-2.72-4.04-4.08-6.07c0-0.29,0.01-0.59,0.01-0.88c1.64-0.02,3.29-0.05,4.93-0.07c0.2,1.03,0.4,2.05,0.6,3.07 c0.13,2.41,0.26,4.81,0.39,7.21c-2.02,0.03-4.05,0.07-6.08,0.1C413.33,470.86,413.35,469.77,413.36,468.67z M430.38,471.66 c0.07-3.41,0.14-6.84,0.2-10.28c1.27-0.02,2.54-0.05,3.81-0.07c0.04,3.44,0.07,6.86,0.1,10.27 C433.13,471.61,431.76,471.64,430.38,471.66z M436.68,471.53c-0.05-0.68-0.1-1.36-0.14-2.04c1.33-0.05,2.67-0.09,4-0.14 c-0.59,0.73-1.24,1.45-1.95,2.14C437.95,471.51,437.31,471.52,436.68,471.53z M441.01,468.74c-0.19-0.68-0.39-1.37-0.59-2.05 c-0.75-0.1-1.5-0.2-2.25-0.3c0.19-0.98,0.38-1.97,0.57-2.95c0.96-0.75,1.93-1.51,2.89-2.26c0.91-0.02,1.81-0.04,2.71-0.06 C443.95,463.8,442.8,466.36,441.01,468.74z M440.97,459.18c-0.88-0.74-1.76-1.49-2.64-2.24c-0.18-2.92-0.36-5.84-0.55-8.78 c-1.18,0.02-2.36,0.04-3.55,0.06c0.05,3.71,0.1,7.4,0.14,11.08c-1.25,0.02-2.5,0.05-3.75,0.07c0.08-4.56,0.16-9.14,0.23-13.74 c2.21-0.03,4.41-0.07,6.6-0.11c3.95,3.24,7.1,7.68,7.05,13.58C443.33,459.13,442.15,459.16,440.97,459.18z M480.41,268.09 c-9.13-5-21.79-7.97-35.8-8.28c-14.01-0.31-26.97,2.11-36.37,6.8c-9.98,4.98-15.29,12.05-15.23,20.41 c0.05,8.06,5.61,15.42,15.62,20.7c9.67,5.1,22.83,7.97,36.85,8.11c14.03,0.14,26.69-2.45,35.77-7.25c9.39-4.96,14.36-12,14.19-19.89 C495.24,280.51,490.1,273.4,480.41,268.09z M477.59,284.7c-1.27-0.08-2.53-0.16-3.8-0.24c0-1.91,0-3.81,0-5.71 c-0.63-1.52-1.27-3.04-1.9-4.55c1.83,0.05,3.65,0.1,5.47,0.14C477.44,277.79,477.52,281.24,477.59,284.7z M462.72,273.97 c0.96,0.02,1.92,0.05,2.87,0.07c1.08,2.07,2.16,4.14,3.24,6.22c0.04,1.84,0.08,3.69,0.11,5.54c-0.58,0.42-1.16,0.84-1.74,1.25 c0.06,0.26,0.11,0.51,0.17,0.77c-1.46-0.03-2.92-0.06-4.39-0.09C462.91,283.13,462.82,278.54,462.72,273.97z M442.16,277.89 c-1,0.19-2.01,0.39-3.02,0.58c-1.19-1.68-2.39-3.37-3.59-5.04c1.76,0.03,3.53,0.06,5.28,0.09 C441.28,274.97,441.72,276.43,442.16,277.89z M460.94,284.24c-0.4,0.04-0.8,0.07-1.2,0.11c-0.03,0.61-0.06,1.22-0.09,1.83 c-1,0-1.99,0-2.99,0.01c0.89-4.11,1.78-8.21,2.65-12.28c0.47,0.01,0.95,0.02,1.42,0.03C460.81,277.35,460.87,280.79,460.94,284.24z M428.86,273.32c0.97,0.02,1.94,0.03,2.91,0.05c2.3,2.34,4.6,4.67,6.89,7.02c0.18,1.9,0.35,3.81,0.53,5.72 c-0.42,0.4-0.84,0.8-1.25,1.2c-1.08-0.02-2.17-0.03-3.25-0.05c-0.16-2.96-0.32-5.91-0.48-8.86c-1.41,1.77-2.82,3.54-4.23,5.32 c0.15,1.16,0.31,2.32,0.46,3.48c-0.46-0.01-0.91-0.01-1.37-0.02C429,282.54,428.94,277.92,428.86,273.32z M411.68,273.08 c1.66,0.02,3.32,0.04,4.97,0.06c-0.61,2.3-1.22,4.6-1.84,6.9c0.03,2.31,0.05,4.63,0.08,6.96c-1.02-0.01-2.04-0.02-3.06-0.03 C411.79,282.32,411.74,277.69,411.68,273.08z M409.89,299.58c-2.8-0.02-5.6-0.04-8.4-0.06c-3.25-3.18-5.26-6.78-5.77-10.64 c4.7,0.03,9.4,0.07,14.08,0.11C409.83,292.52,409.86,296.04,409.89,299.58z M409.78,286.95c-4.72-0.05-9.45-0.08-14.19-0.12 c0.03-6.04,3.32-10.57,7.35-13.85c2.23,0.02,4.46,0.05,6.69,0.07C409.69,277.67,409.74,282.3,409.78,286.95z M411.85,289.02 c1.02,0.01,2.04,0.02,3.06,0.03c0.04,3.52,0.07,7.04,0.1,10.58c-1.02-0.01-2.04-0.02-3.07-0.03 C411.92,296.06,411.89,292.53,411.85,289.02z M427.17,299.74c-2.5-0.03-5-0.05-7.5-0.08c0.21-3.53,0.41-7.05,0.61-10.56 c2.26,0.03,4.52,0.05,6.77,0.08C427.09,292.69,427.13,296.22,427.17,299.74z M427.02,287.15c-2.21-0.03-4.42-0.06-6.63-0.08 c0.2-3.45,0.39-6.89,0.58-10.32c-0.02-1.18-0.03-2.36-0.05-3.54c1.97,0.03,3.94,0.06,5.91,0.09 C426.9,277.89,426.97,282.51,427.02,287.15z M429.09,289.21c0.54,0.01,1.08,0.01,1.61,0.02c0.39,2.98,0.78,5.97,1.17,8.97 c-0.89,0.52-1.77,1.05-2.66,1.57C429.17,296.24,429.13,292.72,429.09,289.21z M457.76,300.15c-0.02-1.12-0.03-2.25-0.05-3.37 c1.15,0.02,2.3,0.04,3.45,0.06c0.02,1.12,0.03,2.24,0.05,3.37C460.06,300.19,458.91,300.17,457.76,300.15z M463.15,296.87 c1.36,0.02,2.72,0.05,4.08,0.07c-1.39-2.1-2.79-4.2-4.18-6.3c-0.01-0.3-0.01-0.59-0.02-0.89c1.6,0.03,3.21,0.06,4.8,0.1 c0.23,1.04,0.46,2.09,0.69,3.13c0.21,2.45,0.42,4.9,0.62,7.36c-1.98-0.04-3.96-0.07-5.95-0.1 C463.18,299.11,463.17,297.99,463.15,296.87z M479.85,300.54c-0.06-3.48-0.12-6.96-0.19-10.43c1.23,0.03,2.46,0.06,3.69,0.09 c0.17,3.47,0.34,6.94,0.5,10.42C482.52,300.59,481.19,300.57,479.85,300.54z M485.96,300.67c-0.07-0.7-0.15-1.39-0.22-2.09 c1.29,0.01,2.58,0.02,3.86,0.03c-0.54,0.72-1.14,1.42-1.8,2.09C487.19,300.69,486.58,300.68,485.96,300.67z M490.04,298 c-0.22-0.7-0.43-1.41-0.65-2.11c-0.73-0.14-1.46-0.27-2.19-0.41c0.14-0.99,0.29-1.98,0.43-2.97c0.9-0.72,1.8-1.43,2.7-2.15 c0.87,0.02,1.74,0.04,2.61,0.07C492.68,293.13,491.68,295.66,490.04,298z M489.61,288.34c-0.88-0.79-1.76-1.58-2.64-2.37 c-0.29-2.93-0.59-5.85-0.89-8.77c-1.14-0.03-2.27-0.06-3.41-0.1c0.2,3.68,0.39,7.37,0.58,11.07c-1.21-0.03-2.42-0.06-3.63-0.09 c-0.09-4.58-0.2-9.15-0.31-13.7c2.12,0.06,4.24,0.12,6.35,0.18c3.93,3.38,7.15,7.93,7.35,13.85 C491.88,288.4,490.75,288.37,489.61,288.34z M512.82,122.89c0.05-0.04,0.1-0.07,0.15-0.11c-0.07-0.05-0.14-0.11-0.22-0.16 c-0.67-3.1-2.38-6-5.07-8.64c-0.09-0.43-0.18-0.86-0.27-1.29c-0.41-0.02-0.82-0.05-1.24-0.07c-2.3-1.93-5.16-3.69-8.56-5.27 c-8.81-4.08-20.66-6.52-33.49-6.97c-12.83-0.44-24.48,1.15-32.84,4.5c-8.87,3.56-13.47,8.77-13.12,15.22 c0.33,6.21,5.71,12.13,15.21,16.59c9.18,4.32,21.57,7.03,34.64,7.62c13.08,0.59,24.78-1.04,32.98-4.61 c5.78-2.51,9.56-5.9,11.17-9.82c0.18,0.01,0.36,0.02,0.54,0.03c-0.1-0.23-0.2-0.47-0.3-0.7c0.56-1.64,0.77-3.36,0.58-5.15 C512.96,123.68,512.89,123.28,512.82,122.89z M509.69,127.27c0.05-0.65,0.11-1.29,0.16-1.94c0.31,0.02,0.62,0.04,0.93,0.06 c-0.02,0.7-0.12,1.38-0.29,2.04C510.23,127.38,509.96,127.32,509.69,127.27z M509.78,120.36c-0.31-0.24-0.63-0.47-0.94-0.71 c-0.11-0.53-0.21-1.06-0.32-1.59C509.01,118.78,509.43,119.55,509.78,120.36z M502.93,112.54c0.5,0.36,1,0.73,1.48,1.12 c0.48,3.23,0.96,6.5,1.42,9.82c-1.43-0.08-2.86-0.17-4.3-0.25c-0.17-1.62-0.34-3.23-0.52-4.83c-1.12-0.1-2.23-0.2-3.35-0.29 c-0.21-1.98-0.43-3.94-0.65-5.89C498.99,112.33,500.97,112.44,502.93,112.54z M466.45,110.85c0.18,0.41,0.35,0.81,0.53,1.22 c-0.25,0.03-0.49,0.07-0.74,0.1c-0.04-0.45-0.09-0.89-0.13-1.34C466.22,110.84,466.33,110.84,466.45,110.85z M485.59,120.92 c-0.15-1.16-0.31-2.32-0.47-3.47c-0.53,0.02-1.06,0.05-1.59,0.07c0.01,0.47,0.02,0.95,0.03,1.43c-0.39-0.01-0.78-0.02-1.17-0.03 c-0.19-1.92-0.39-3.82-0.58-5.7c0.1-0.56,0.2-1.13,0.3-1.69c2.56,0.12,5.12,0.24,7.68,0.36c0.62,0.9,1.25,1.8,1.87,2.71 c0.16,1.44,0.31,2.88,0.46,4.34c-0.51,0.31-1.02,0.62-1.53,0.93c0.32,0.94,0.64,1.89,0.96,2.84c-1.55-0.08-3.11-0.16-4.67-0.24 C486.45,121.94,486.02,121.43,485.59,120.92z M464.42,112.42c-0.06,0.01-0.11,0.02-0.17,0.02c-0.53-0.58-1.05-1.16-1.58-1.74 c0.53,0.02,1.06,0.04,1.59,0.06C464.31,111.32,464.36,111.87,464.42,112.42z M450.47,110.27c3.15,0.1,6.3,0.22,9.44,0.33 c1.33,1.09,2.67,2.19,4.01,3.3c0.27,1.47,0.54,2.94,0.81,4.43c-0.57,0.48-1.15,0.95-1.73,1.43c-0.76-0.01-1.51-0.03-2.27-0.04 c-0.33-2.51-0.67-4.99-1.01-7.44c-1.19,1.32-2.39,2.65-3.59,3.98c0.37,1.62,0.73,3.25,1.1,4.89c-1.96-0.07-3.92-0.15-5.88-0.22 C451.07,117.32,450.77,113.76,450.47,110.27z M434.73,109.79c2.72,0.07,5.43,0.15,8.14,0.24c-0.27,1.03-0.53,2.07-0.8,3.11 c0.19,2.47,0.38,4.97,0.57,7.5c-2.38-0.08-4.76-0.15-7.15-0.22C435.24,116.81,434.99,113.27,434.73,109.79z M434.23,130.25 c-2.59-0.08-5.18-0.15-7.77-0.22c-3.12-2.58-5.11-5.43-5.72-8.43c4.33,0.1,8.65,0.22,12.96,0.34 C433.88,124.68,434.06,127.45,434.23,130.25z M433.6,120.36c-4.34-0.12-8.69-0.24-13.05-0.34c-0.19-4.66,2.65-8.02,6.2-10.43 c2.04,0.05,4.08,0.1,6.12,0.16C433.11,113.22,433.36,116.76,433.6,120.36z M450.22,130.78c-4.68-0.17-9.38-0.33-14.09-0.47 c-0.18-2.8-0.36-5.57-0.54-8.31c2.39,0.07,4.78,0.15,7.16,0.22c0.17,2.38,0.34,4.78,0.51,7.2c1.4,0.05,2.81,0.1,4.21,0.14 c0.02-2.42,0.03-4.82,0.04-7.19c0.7,0.02,1.39,0.05,2.09,0.07C449.81,125.19,450.02,127.97,450.22,130.78z M449.47,120.86 c-0.65-0.02-1.3-0.05-1.96-0.07c0.01-3.4,0.02-6.75,0.01-10.05c-0.02-0.19-0.03-0.38-0.05-0.57c0.38,0.01,0.75,0.02,1.13,0.04 C448.9,113.7,449.19,117.25,449.47,120.86z M452.11,130.85c-0.21-2.81-0.42-5.59-0.63-8.33c2.04,0.07,4.08,0.15,6.11,0.23 c0.36,1.61,0.71,3.23,1.06,4.86c-0.79,0.39-1.58,0.78-2.37,1.17c3.22,0.17,6.43,0.35,9.64,0.54c0.06,0.7,0.12,1.39,0.17,2.09 C461.44,131.21,456.78,131.02,452.11,130.85z M467.96,131.49c-0.06-0.69-0.11-1.38-0.17-2.07c4.64,0.27,9.26,0.56,13.85,0.86 c0.06,0.62,0.11,1.24,0.17,1.86C477.21,131.91,472.59,131.7,467.96,131.49z M483.66,132.24c-0.15-1.66-0.3-3.31-0.46-4.94 c2.68,0.13,5.36,0.27,8.03,0.41c-0.99-1.2-1.98-2.4-2.97-3.59c1.28,0.07,2.55,0.13,3.83,0.2c0.03,0.09,0.06,0.18,0.09,0.27 c0.39,2.17,0.78,4.37,1.16,6.58c1.3,0.14,2.59,0.27,3.88,0.41c0.05,0.46,0.09,0.93,0.13,1.4 C492.82,132.72,488.25,132.47,483.66,132.24z M499.2,133.08c-0.04-0.43-0.08-0.87-0.13-1.3c1.13,0.12,2.25,0.24,3.37,0.37 c-0.24-2.45-0.49-4.89-0.74-7.3c1.46,0.08,2.91,0.17,4.36,0.25c0.34,2.42,0.67,4.86,1,7.32c0.21,0.01,0.43,0.03,0.64,0.04 c-0.33,0.36-0.68,0.72-1.06,1.06C504.17,133.37,501.69,133.23,499.2,133.08z M508.81,131.07c-0.09-0.45-0.18-0.91-0.27-1.36 c0.36,0.02,0.72,0.04,1.08,0.05C509.38,130.21,509.11,130.65,508.81,131.07z M370.12,572.19c-9.01-4.02-21.64-6.29-35.4-6.41 c-13.76-0.12-26.24,1.95-35.06,5.82c-9.38,4.11-14.05,9.87-13.68,16.57c0.36,6.45,5.77,12.24,15.14,16.36 c9.07,3.98,21.23,6.19,34.38,6.29c13.15,0.09,25.27-1.94,34.25-5.77c9.28-3.96,14.55-9.64,14.7-16.08 C384.61,582.29,379.7,576.45,370.12,572.19z M366.78,586.21c-1.25-0.04-2.5-0.07-3.76-0.11c0.05-1.56,0.1-3.13,0.15-4.71 c-0.59-1.25-1.18-2.5-1.77-3.77c1.82,0,3.63-0.01,5.45-0.02C366.83,580.51,366.8,583.37,366.78,586.21z M352.34,577.62 c0.94,0,1.89,0,2.83,0c1.03,1.72,2.05,3.43,3.07,5.12c0,1.52,0,3.04-0.01,4.54c-0.58,0.35-1.15,0.7-1.73,1.05 c0.05,0.21,0.1,0.41,0.15,0.62c-1.43,0-2.86,0-4.28,0C352.36,585.24,352.35,581.46,352.34,577.62z M332.24,581.13 c-0.97,0.16-1.94,0.33-2.91,0.49c-1.15-1.38-2.31-2.77-3.46-4.17c1.7,0.02,3.4,0.04,5.1,0.05 C331.4,578.72,331.82,579.93,332.24,581.13z M350.42,586.15c-0.39,0.03-0.78,0.07-1.17,0.1c-0.04,0.5-0.08,0.99-0.11,1.49 c-0.97,0.01-1.94,0.03-2.91,0.04c0.91-3.34,1.83-6.73,2.76-10.17c0.46,0,0.93,0,1.39,0C350.39,580.5,350.41,583.34,350.42,586.15z M319.44,577.36c0.93,0.01,1.86,0.03,2.79,0.04c2.22,1.95,4.44,3.88,6.65,5.79c0.17,1.56,0.35,3.11,0.52,4.65 c-0.4,0.32-0.8,0.65-1.19,0.97c-1.03-0.01-2.07-0.02-3.1-0.04c-0.17-2.38-0.34-4.78-0.51-7.21c-1.34,1.46-2.68,2.91-4.01,4.35 c0.16,0.94,0.31,1.88,0.47,2.81c-0.43-0.01-0.87-0.01-1.3-0.02C319.65,584.98,319.55,581.2,319.44,577.36z M303.06,577.08 c1.57,0.03,3.15,0.06,4.72,0.09c-0.54,1.91-1.08,3.8-1.61,5.68c0.07,1.89,0.15,3.77,0.22,5.63c-0.96-0.02-1.91-0.04-2.87-0.06 C303.36,584.7,303.21,580.92,303.06,577.08z M302.05,598.33c-2.59-0.05-5.18-0.11-7.76-0.17c-3.1-2.51-5.09-5.37-5.71-8.45 c4.36,0.11,8.72,0.22,13.1,0.31C301.79,592.83,301.92,595.6,302.05,598.33z M301.6,588.39c-4.42-0.09-8.82-0.2-13.22-0.31 c-0.19-4.84,2.72-8.51,6.43-11.18c2.1,0.05,4.21,0.1,6.32,0.14C301.28,580.88,301.44,584.66,301.6,588.39z M303.59,590.06 c0.96,0.02,1.91,0.04,2.87,0.06c0.11,2.8,0.23,5.57,0.35,8.31c-0.95-0.02-1.9-0.04-2.85-0.05 C303.83,595.63,303.71,592.86,303.59,590.06z M318.15,598.61c-2.34-0.03-4.68-0.07-7.01-0.11c0.12-2.73,0.23-5.49,0.36-8.29 c2.13,0.04,4.26,0.07,6.39,0.1C317.97,593.11,318.06,595.88,318.15,598.61z M317.83,588.68c-2.09-0.03-4.18-0.06-6.27-0.1 c0.12-2.77,0.25-5.57,0.38-8.4c-0.03-0.98-0.06-1.96-0.1-2.94c1.88,0.03,3.76,0.06,5.65,0.09 C317.6,581.17,317.72,584.96,317.83,588.68z M319.81,590.34c0.51,0.01,1.02,0.01,1.53,0.02c0.4,2.38,0.81,4.74,1.21,7.07 c-0.83,0.4-1.66,0.81-2.48,1.21C319.98,595.9,319.89,593.14,319.81,590.34z M347.17,598.86c-0.01-0.87-0.01-1.75-0.02-2.63 c1.11,0,2.22,0.01,3.32,0.01c0,0.88,0.01,1.76,0.01,2.63C349.38,598.87,348.27,598.87,347.17,598.86z M352.39,596.24 c1.32,0,2.64,0,3.95,0c-1.32-1.63-2.64-3.28-3.97-4.94c0-0.24,0-0.48,0-0.72c1.56,0,3.12,0,4.68,0c0.21,0.83,0.41,1.67,0.62,2.5 c0.16,1.95,0.32,3.88,0.48,5.79c-1.92,0-3.83,0-5.75,0C352.4,598,352.4,597.12,352.39,596.24z M368.59,598.85 c0.03-2.73,0.06-5.49,0.09-8.29c1.22-0.01,2.43-0.01,3.65-0.02c0.06,2.8,0.13,5.56,0.19,8.29 C371.2,598.84,369.9,598.84,368.59,598.85z M374.59,598.82c-0.05-0.54-0.1-1.09-0.15-1.64c1.27-0.02,2.55-0.05,3.82-0.07 c-0.56,0.58-1.17,1.15-1.85,1.7C375.8,598.81,375.2,598.81,374.59,598.82z M378.72,596.62c-0.19-0.55-0.38-1.11-0.57-1.66 c-0.72-0.09-1.44-0.18-2.16-0.27c0.17-0.79,0.35-1.59,0.52-2.39c0.92-0.6,1.84-1.21,2.77-1.81c0.87-0.01,1.74-0.02,2.61-0.02 C381.51,592.66,380.42,594.72,378.72,596.62z M378.63,588.87c-0.85-0.62-1.7-1.24-2.55-1.86c-0.19-2.39-0.38-4.81-0.58-7.25 c-1.14,0.01-2.28,0.02-3.42,0.02c0.07,3.08,0.14,6.12,0.21,9.13c-1.2,0.01-2.4,0.01-3.6,0.02c0.04-3.72,0.07-7.5,0.11-11.33 c2.12-0.01,4.25-0.02,6.37-0.04c3.83,2.73,6.89,6.45,6.86,11.28C380.89,588.85,379.76,588.86,378.63,588.87z M269,651.44 l-12.16-2.69l-5.03-3.75c2.84,0.11,10.48,0.22,12.78,0.33c2.88,0.13,5.67,0.26,9.24,0.39L269,651.44z"/>
</g>
</svg>