<svg version="1.1" xmlns="http://www.w3.org/2000/svg" x="0px" y="0px" viewBox="0 0 720 720" >
<path class="st0" d="M661.01,415.29l-20.65,0.18v-16.9l-34.63,7.23v-10.34l-30.27,19.69L572,303.75 c-2.2-0.32-4.37-0.59-6.52-0.83V257.5l2.52-4.44v-9.46c-1.51,0-3.02,0.03-4.52,0.07v-20.69h-26.22c-2.01,0-3.65,1.63-3.65,3.65 v20.46c-3.44,0.7-6.87,1.49-10.31,2.4v8.68l3.46,3.68l0.01,0v43.46c-1.21,0.39-2.41,0.81-3.58,1.29c0.26,30.9-0.97,63.3-3.12,96.93 l-32.71,10.97v12.6l-7.29-6.01h-3.51l-15.11-5.27v-84.45h-3.09l-47.22,11.06v62.61h-2.23v-4.7h-3.26v-5.12h-2.91v-4.28h-5.15v-14.93 h-2.45v-6.94h-1.73l-0.5-12.9h-1.02l-0.5,12.9h-1.73v6.94h-2.45v14.93h-5.15v4.28h-2.91v5.12h-3.26v4.7h-4.14v3.37h-1.72v63.92 l-26.34,5.5v-1.62l-34.91-22.72v19l-16.34,3.41V403.4l-14.02-4.21l-45.57,15.28v12.6l-7.29-6.01h-3.51l-18.09-6.31l-22.79,0.84 l-1.68,30.99h-13.57v-44.47l1.75-1.89v-1.54c-3.41-3.41-12.52-4.47-21.17-3.21v-17.33h-0.84v17.45c-4.03,0.66-7.93,1.83-11.04,3.52 l0,2.38l1.65,0.84v29.78l-36.72-22.49h-5.78v-5.57h-0.97l0.01,14.3h-2.33v0.95h2.33l0.01,7.57h-2.34v0.95h2.34l0.02,10.08 l-26.38,8.85c0,0,0,0,0,0C103.9,573.49,221.13,666,360,666C510.12,666,634.98,557.9,661.01,415.29 C661,415.29,661.01,415.29,661.01,415.29L661.01,415.29z M445.66,367.02l-21.17,4.91l-3.72-18.09l29.52-6.66L445.66,367.02z"/>
<path class="st1" d="M400.85,663.28V532.96l2.73-15.07c-6.83-3.99-13.48-6-19.91-6.08v5.8h-2.8v-5.72 c-5.92,0.46-11.64,2.59-17.11,6.42l1.52,9.32h-15.26v4.21l3.47,1.74v2.37h-4.52v22.2l-15-35.91v-6.94l-61.91-2.73l-5.3,2.35v-3.51 l-4.94-0.2V500.7l1.83-2.61c2.69,0,5.79-0.37,5.79-3.03c0-1.67-4.41-2.86-10.6-3.57c-3.4-3.89-8.38-6.36-13.96-6.36 c-5.41,0-10.26,2.33-13.66,6.02c-6.76,0.57-11.69,1.69-11.69,3.34c0,1.05,2.94,2.5,6.04,2.5l2.69,3.33v9.57l-6.2-0.25l-4.63,2.52 v85.37l-8.23,0.02V444.7h-45.22c-8.16,0.75-15.46,3.59-21.8,8.76v27.91h-8.64v-6.17H88.32c-3.81,0.35-7.43,1.18-10.86,2.47 c0.33,0.79,0.66,1.58,0.99,2.37C125.13,589.37,233.61,666,360,666C373.85,666,387.48,665.06,400.85,663.28z M364.21,533.58 l1.72-0.86v3.23h-1.72V533.58z M408.52,662.16V453.46c6.35-5.17,13.65-8.01,21.8-8.76h45.22v37.76l18.52,12.05v1.62l10.28-2.15 l0.07-8.84l15.84-9.11H557l70.94-27.48l26.35-4.47C622.08,557.07,526.55,643.35,408.52,662.16z"/>
<path class="st2" d="M629.52,505v-74.53c-26.72-1.43-52.14-0.77-75.51,3.15v111.31l-11.9-3.57l-17.62,5.91v-8h-2.24v-15.7 h-2.99l-2.38-2.14v-7.85h-8.71l-6.96-6.27H487.9l-21.59,4.49l-16.95,18.09h-3.1v9.39h-2.66v39.75h-10.87v-3.26h-4.1v-3.37h-34.28 v2.63h-3.26v-5.47c0-2.83-37.96-3.93-67.51-3.3v-1.01c0-1.82-25.98-1.82-25.98,0v2.3c-5.17,0.53-8.31,1.2-8.31,2.01v18.56 l-0.49,0.16h-2.04v0.68l-28.88,9.69v30.73l-6.89-11.48c0.22-0.59,0.36-1.2,0.36-1.86c0-2.76-2.11-5.07-5-5.86l-18.2-30.3 c7.01-5.05,11.78-12.71,12.66-21.43h-2.02v-3.42h2.15c-0.19-11.88-7.56-22.09-18.19-27.03V365.59c8.02-5.29,13.33-14.38,13.33-24.71 c0-14-9.73-25.7-22.79-28.77l-0.94-12.42l1.94-1.09l-0.37-2.1l-1.55-0.52v-30.15c2.63-1.85,4.35-4.9,4.35-8.36 c0-3.25-1.52-6.14-3.88-8.01l1.61-1.39l-5.16-3.6v-31.55l1.01-0.18l0.05-1.68l-2.25-0.88v-33.55l2.52-2.38l-2.8-3.24l-0.66-59.67 h-1.33l-0.66,60l-2.27,1.11l-0.05,1.37l2.04,3.08v32.87l-1.52-0.35l-1.37,1.89l1.69,1.93v30.32l-4.48,1.98l-0.11,1.84l1.71,1.57 c-2.75,1.84-4.56,4.96-4.56,8.52c0,3.46,1.72,6.51,4.35,8.36v29.04l-1.6,0.94l0.05,2l1.7,0.79l-1.05,13.51 c-13.07,3.07-22.81,14.77-22.81,28.78c0,10.33,5.3,19.41,13.33,24.71v164.49c-8.13,5.17-13.66,13.7-14.31,23.48h1.47v2.52h-1.55 c0.06,2.8,0.52,5.5,1.32,8.06h-7.91v-27.06h0.91v-4.35h-1.33v-12.2h1.33v-5.4l-28.74-1.05l-19.35,2.38v5.05h1.75v11.5h-1.75v4.7 h1.26v16.25c22.05,26.87,48.58,49.92,78.46,68.01l-0.92-2.35l0.79-4.21h3.9v8.79c6.88,4.03,13.93,7.81,21.14,11.31l14.58-13.86 c0.55,0.22,1.15,0.37,1.77,0.46l14.82,24.37v2.04C289.82,659.83,324.18,666,360,666C476.53,666,577.84,600.85,629.52,505z M190.49,588.77l-8.21,20.07v-22.96h-2.94v-6.1h2.94v-2.17h-3.01v-8.39c2.57,4.84,6.46,8.95,11.22,11.91V588.77z M202.56,370.18 c1.29,0.17,2.59,0.29,3.93,0.29c0.2,0,0.38-0.03,0.58-0.03v10.86l-4.5,1.74V370.18z M202.56,396.03l3.77,2.73v9.57l-3.77,1.74 V396.03z M205.57,606.72h-2.26l2.26-11.99V606.72z M207.19,518.66h-4.63v-14.58l4.63,2.73V518.66z M207.19,489.46l-4.63,2.07v-14.58 l4.63,2.73V489.46z M207.19,462.38l-4.63,2.07v-14.37l4.63,2.73V462.38z M207.19,435.2l-4.63,2.07v-14.37l4.63,2.73V435.2z M237.64,618.35l-14.69,14.19v-43.48l14.84,24.4c-0.42,0.79-0.68,1.66-0.68,2.59C237.11,616.86,237.31,617.63,237.64,618.35z"/>
</svg>
