<?xml version="1.0" encoding="utf-8"?>
<svg version="1.1" id="Mask" xmlns="http://www.w3.org/2000/svg" xmlns:xlink="http://www.w3.org/1999/xlink" x="0px" y="0px"
	 viewBox="0 0 720 720" style="enable-background:new 0 0 720 720;" xml:space="preserve">
<style type="text/css">
	.st0{fill:#E6E7E8;}
	.st1{fill:#D1D3D4;}
	.stroke1{fill:none;stroke-width:6.1581;stroke-miterlimit:10;}
	.stroke2{fill:none;stroke-width:4.3986;stroke-miterlimit:10;}
	.stroke3{fill:none;stroke-width:3.5189;stroke-linejoin:round;stroke-miterlimit:10;}
	.stroke4{fill:none;stroke-width:1.3196;stroke-miterlimit:10;}
</style>
<path id="_x33_" class="st0" d="M619.36,424.75v11.75h-15.25v7.5h-22.25l-16.39-149.54c0,0-3.1-6.88-3.1-7.92S556.51,238,556.51,238
	l-1.03-16.87l-5.85-18.59l-6.54,6.2l-0.34,6.54l-2.41,0.34l-2.07-10.33l-15.15,122.89l-2.75,0.69L503.48,468.5h-10.97v-5l-6.75-9.75
	h-16.5v4h-4V452h-9.78v-21.75l-44-5.5v11.75h-15.25v7.5h-12.25v-9.5h-22.5v3.25h-15.5V432h-23.13v-52.63l-3.88-3.88v-10.75h-5.5
	v-19.5h-28.5v23.25h-11.5v80h-10.75v-6.25h-22.25V403l-41.25-2.25l-22.25,3.5v28.5h-26.75V443h-5.25c0,0,1,9,0,9
	c-0.76,0-7.16,0-10.18,0c-0.46-76.43-21.96-130.5-34.66-130.5c-4.12,0-29.24,15.78-36.15,116.34
	c31.81,121.29,136.18,213.19,263.93,226.49l72.31-0.97c46.41-6.1,89.54-22.6,126.99-47.08v-14.07h19.76
	c54.81-42.37,94.84-102.92,111.05-172.63L619.36,424.75z"/>
<path id="_x32_" class="st1" d="M360,666c80.63,0,153.96-31.2,208.62-82.17v-6.65h-10.07v-6.25h-7.14v6.76h-17.34v-12.37h-15.94
	v-49.51l1.66-6.12v-16.07h115.56c2.96-6.09,5.72-12.3,8.28-18.62h-25.41v-5.42h-3.16v3.06h-4.45v-2.15h-1.39v-4.54h-1.53v4.54h-2.06
	v2.2h-3.63v-3.06h-2.96v5.37h-5.05v-18.35h-1.53l-2.04,1.89l-2.8-0.13l-4.46,5.61l2.17,0.13l7.14-2.4v13.25h-72.42v-17.09
	l-3.7-15.17h-0.89v-6.34h1.41v-1.53h-1.41v-3.25h-1.53v3.25h-1.41v1.53h1.41v6.34h-1.02l-1.4,10.46l-3.19-10.71l-3.95,2.81
	l-3.19-10.97h-0.2v-5.1h1.41v-1.53h-1.41v-3.25h-1.53v3.25h-1.41v1.53h1.41v5.1h-0.18l-4.06-10.54v-10.77l-1.77-0.88v-8.39h-1.53
	v7.94h-1.39v5.88h-0.96v6.18h-0.62l-7.14,22.44h-2.8l-1.53-3.83l-1.53,4.59h-1.79l-3.25-11.26v-5.65h1.41v-1.53h-1.41v-3.25h-1.53
	v3.25h-1.41v1.53h1.41v5.8l-4.53,19.78v37.81c-20.33,21.14-42.24,39.31-65.58,54.41h-3.52v-2.3h-12.5v12.06
	c-1.67,0.95-3.35,1.9-5.03,2.82c-18.4-15.63-43.77-23.83-73.77-21.76l-6.38,3.44l-3.57,6.25h-25.76v-4.21h-44.63v-40.93h1.15v-7.4
	h-52.53v-15.81h-8.93v-9.05h-4.34v-1.4h-4.85v3.83h-1.91v6.63h-2.29l-11.6,4.59v7.52h-3.32v10.33l3.44,3.44v27.03l-4.46,4.46v15.68
	h-1.66l-5.61-10.46v-32.51l-1.91-2.93h-4.97l-2.49,2.49v33.34h-3.1C170.54,617.67,259.62,666,360,666z M466.36,553.59h-31.48
	c10.99-9.19,21.49-19.83,31.48-31.9V553.59z M466.36,518.06c-11.06,13.65-22.77,25.51-35.09,35.54h-11.2v-2.17
	c16.15-10.91,31.59-23.31,46.28-37.16V518.06z M465.8,511.65c-13.18,12.51-26.96,23.84-41.32,33.96
	c14.21-12.54,27.67-27.64,40.35-45.28v8.09L465.8,511.65z M463.85,497.76c-14.2,19.95-29.4,36.66-45.52,50.1h-9.59v-2.55h-1.47
	C427.24,531.72,446.13,515.85,463.85,497.76z M405.29,546.63v1.23h-1.84C404.07,547.45,404.68,547.04,405.29,546.63z M383.23,560.26
	v0.47h-0.85C382.67,560.57,382.95,560.42,383.23,560.26z M645.09,456.66h2.33v8.6c-0.49,1.35-1.02,2.68-1.53,4.02v-7.52l-5.05,5.2
	l-2.17-0.13l0.54-4.99l2.44-0.57L645.09,456.66z"/>
	<g class="st3">
		<path id="Circle" class="stroke1" d="M471.8,75.07c-18.76,277.43-93.68,458.5-205.45,576.33 M204.13,623.38
			c100.5-120.97,166.58-301.01,181.82-568.29 M187.92,613.07c111.24-94.35,182.29-306.95,197.89-558.12"/>
		<path id="Cross_Beams_1_" class="stroke2" d="M417.67,383.39l-86.8-2.64 M460.48,183.99l-85.04-7.33 M385.12,86.34l86.8,9.38
			 M349.34,322.4l83.28,4.4 M365.76,237.36l87.09,6.74 M304.77,455.24l87.09,1.76 M282.77,502.45l87.39,1.17 M222.37,602.15
			l85.92,0.29 M254.33,556.11l84.75,1.17 M276.03,639.98l-43.11-1.24"/>
		<path id="Support_Beams_1_" class="stroke3" d="M372.51,237.94l80.06-55.72 M466.05,146.74l-89.44,22.58l85.04,7.62l-87.39,19.06
			l70.67,47.51l-60.11-65.69 M431.91,62.5l32.68,33.22 M449.34,92.49L384.24,62 M406.15,57.46l-16.64,7.18 M428.52,61.48l-43.11,32.48
			l80.35,43.11 M377.79,168.44l91.79-65.1 M380.72,131.2l87.68-29.03l-88.56-8.21 M460.77,175.48l-78.59-45.16 M422.94,326.21
			l-95.3,57.18 M348.75,323.28l65.1,60.99l-57.77-62.46 M350.22,314.19l101.76-68.03 M449.63,249.09l-85.92-5.57 M361.36,261.4
			l84.16-11.44 M440.25,295.42l-74.78-52.2l70.09,74.19 M362.54,260.52l72.43,58.65 M349.63,316.24l89.73-14.66 M220.97,632.66
			C333.8,499.6,391.54,302.66,407.27,56.98 M292.45,481.92l72.72,21.41 M309.75,446.44l85.33,0.59 M416.79,384.27l-106.15,60.11
			 M313.27,432.07l78.88,15.84l-60.7-65.39l39.88,34.02 M395.67,423.27l-21.99-40.47l-2.35,42.81 M389.22,424.15l25.51-34.9
			 M361.95,415.65l45.16,0.29 M307.11,443.51l60.99,60.7l-55.42-68.62 M282.48,503.33l110.85-55.13 M339.08,554.64l-48.39-66.86
			 M365.76,507.43l-110.55,46.92 M338.2,556.4l-53.96-53.37 M242.89,574.29l35.19,60.99 M245.83,567.55l60.99,32.55l-39.88-66.27
			 M270.16,526.49l65.98,30.5 M344.94,547.02l-17.89-44.28l-9.97,45.16 M318.84,539.1l22.29,0.88 M303.3,603.91l-85.86,26.92
			 M221.19,602.74l56.89,34.9 M224.71,600.39l112.9-41.93 M254.33,556.99l52.2,45.75 M433.79,278.12l-25.51-31.08l0.59,30.79
			 M449.92,253.48c-1.17,0.29-20.23,24.05-20.23,24.05 M427.64,155.83l-7.04,16.42l20.53-9.38 M451.1,116.54l-23.17-18.18l5.57,21.7
			 M385.12,95.13l74.19,79.76"/>
		<path id="Cars" d="M421.22,427.71c-8.13-4.19-19.38-6.5-31.67-6.5c-12.29,0-23.54,2.31-31.67,6.5
			c-8.63,4.45-13.2,10.61-13.2,17.8c0,6.93,4.69,13.19,13.19,17.64c8.23,4.3,19.48,6.66,31.67,6.66c12.2,0,23.44-2.37,31.67-6.66
			c8.51-4.44,13.2-10.71,13.2-17.64C434.41,438.32,429.85,432.16,421.22,427.71z M418.32,442.41l-3.4-0.13l0.11-5l-1.61-3.96h4.9
			V442.41z M405.25,433.32h2.55l2.77,5.39v4.84l-1.57,1.13l0.14,0.67h-3.89V433.32z M387.1,437.11l-2.64,0.55l-3.05-4.34h4.6
			L387.1,437.11z M403.5,442.33l-1.06,0.11l-0.11,1.59l-2.64,0.05l2.55-10.78h1.25V442.33z M375.6,433.32h2.52l5.89,6.01l0.38,4.96
			l-1.11,1.05h-2.82l-0.3-7.68l-3.74,4.67l0.36,3.01h-1.19V433.32z M360.77,433.32h4.28l-1.66,6.01v6.01h-2.62V433.32z M359.01,456.19
			h-7.17c-2.75-2.7-4.44-5.78-4.85-9.09h12.02V456.19z M359.01,445.34h-12.12c0.06-5.2,2.9-9.14,6.39-12.02h5.74V445.34z
			 M360.77,447.1h2.62v9.09h-2.62V447.1z M373.84,456.19h-6.45l0.62-9.09h5.84V456.19z M373.84,445.34h-5.72l0.61-8.94v-3.08h5.11
			V445.34z M375.6,447.1h1.4l0.92,7.72l-2.31,1.37V447.1z M400.46,456.19v-2.91h3.04v2.91H400.46z M405.25,453.27h3.61l-3.61-5.4
			v-0.78h4.26l0.57,2.71l0.45,6.38h-5.27V453.27z M420.08,456.19v-9.09h3.32l0.28,9.09H420.08z M425.58,456.19l-0.16-1.81l3.5-0.05
			c-0.5,0.64-1.06,1.26-1.67,1.86H425.58z M429.33,453.79l-0.55-1.83l-1.98-0.31l0.44-2.6l2.49-1.94h2.38
			C431.81,449.47,430.85,451.71,429.33,453.79z M429.11,445.34l-2.35-2.02l-0.62-7.7h-3.09l0.29,9.71h-3.27v-12.02h5.74
			c3.49,2.88,6.32,6.82,6.39,12.02H429.11z M464,280.29c-8.13-4.19-19.38-6.5-31.67-6.5s-23.54,2.31-31.67,6.5
			c-8.63,4.45-13.2,10.61-13.2,17.8c0,6.93,4.69,13.19,13.19,17.64c8.23,4.3,19.48,6.66,31.67,6.66s23.44-2.37,31.67-6.66
			c8.51-4.44,13.2-10.71,13.2-17.64C477.19,290.9,472.63,284.74,464,280.29z M461.1,294.99l-3.4-0.13l0.11-5l-1.61-3.96h4.9V294.99z
			 M448.04,285.9h2.55l2.77,5.39v4.84l-1.57,1.13l0.14,0.67h-3.89V285.9z M429.88,289.69l-2.64,0.55l-3.05-4.34h4.6L429.88,289.69z
			 M446.28,294.91l-1.06,0.11l-0.11,1.59l-2.64,0.05l2.55-10.78h1.25V294.91z M418.38,285.9h2.52l5.89,6.01l0.38,4.96l-1.11,1.05
			h-2.82l-0.3-7.68l-3.74,4.67l0.36,3.01h-1.19V285.9z M403.55,285.9h4.28l-1.66,6.01v6.01h-2.62V285.9z M401.79,308.77h-7.17
			c-2.75-2.7-4.44-5.78-4.85-9.09h12.02V308.77z M401.79,297.92h-12.12c0.06-5.2,2.9-9.14,6.39-12.02h5.74V297.92z M403.55,299.68
			h2.62v9.09h-2.62V299.68z M416.62,308.77h-6.45l0.62-9.09h5.84V308.77z M416.62,297.92h-5.72l0.61-8.94v-3.08h5.11V297.92z
			 M418.38,299.68h1.4l0.92,7.72l-2.31,1.37V299.68z M443.24,308.77v-2.91h3.04v2.91H443.24z M448.04,305.86h3.61l-3.61-5.4v-0.78
			h4.26l0.57,2.71l0.44,6.38h-5.27V305.86z M462.86,308.77v-9.09h3.32l0.28,9.09H462.86z M468.36,308.77l-0.16-1.81l3.5-0.05
			c-0.5,0.64-1.06,1.26-1.67,1.86H468.36z M472.11,306.37l-0.55-1.83l-1.98-0.31l0.44-2.6l2.49-1.94h2.38
			C474.59,302.05,473.63,304.29,472.11,306.37z M471.89,297.92l-2.35-2.02l-0.62-7.7h-3.09l0.29,9.71h-3.27V285.9h5.74
			c3.49,2.88,6.32,6.82,6.39,12.02H471.89z M502.95,137.86l0.16-0.13l-0.19-0.17c-0.32-3.37-1.68-6.49-4.02-9.28l-0.12-1.44h-1.21
			c-2.04-2.04-4.63-3.88-7.77-5.5c-8.13-4.19-19.38-6.5-31.67-6.5s-23.54,2.31-31.67,6.5c-8.63,4.45-13.2,10.61-13.2,17.8
			c0,6.93,4.69,13.19,13.19,17.64c8.23,4.3,19.48,6.66,31.67,6.66s23.44-2.37,31.67-6.66c5.79-3.03,9.81-6.9,11.79-11.24l0.53-0.01
			l-0.22-0.74c0.72-1.82,1.1-3.71,1.1-5.65C503,138.72,502.98,138.29,502.95,137.86z M499.43,142.87l0.36-2.13h0.91
			c-0.1,0.76-0.27,1.51-0.49,2.25L499.43,142.87z M500.24,135.27l-0.85-0.73l-0.14-1.75C499.66,133.58,499.99,134.4,500.24,135.27z
			 M494.41,126.96c0.45,0.37,0.89,0.77,1.32,1.18l0.33,10.84h-4.16v-5.32l-3.23-0.12v-6.59H494.41z M459.34,126.96l0.39,1.37
			l-0.71,0.15v-1.52H459.34z M476.72,137.35l-0.11-3.85l-1.54,0.16l-0.11,1.59l-1.12,0.02v-6.39l0.46-1.94h7.38l1.52,2.97v4.84
			l-1.57,1.13l0.64,3.09h-4.47L476.72,137.35z M457.25,128.85l-0.16,0.03l-1.35-1.92h1.52V128.85z M444.19,126.96h8.94l3.52,3.59
			l0.38,4.96l-1.76,1.68l-2.14,0.05l-0.33-8.36l-3.74,4.67l0.65,5.43h-5.52V126.96z M429.36,126.96h7.66l-0.99,3.59v8.43h-6.67V126.96
			z M427.6,149.83h-7.17c-2.75-2.7-4.44-5.78-4.85-9.09h12.02V149.83z M427.6,138.98h-12.12c0.06-5.2,2.9-9.14,6.39-12.02h5.74V138.98
			z M442.43,149.83h-13.07v-9.09h6.67v7.88h3.91l0.53-7.88h1.95V149.83z M442.43,138.98h-1.83l0.77-11.36v-0.66h1.06V138.98z
			 M444.19,149.83v-9.09h5.73l0.63,5.3l-2.31,1.37l9.02,0.16v2.26H444.19z M459.01,149.83v-2.23l13.07,0.23v2H459.01z M473.84,149.83
			v-5.33h7.66l-2.51-3.76h3.66l0.06,0.29l0.49,7.09l3.7,0.21v1.49H473.84z M488.67,149.83v-1.39l3.23,0.18v-7.88h4.21l0.24,7.88h0.62
			c-0.36,0.41-0.73,0.82-1.13,1.21H488.67z M498.18,147.05l-0.13-1.45l1.05-0.01C498.83,146.08,498.52,146.57,498.18,147.05z
			 M368.69,550.37c-8.13-4.19-19.38-6.5-31.67-6.5c-12.29,0-23.54,2.31-31.67,6.5c-8.63,4.45-13.2,10.61-13.2,17.8
			c0,6.93,4.69,13.19,13.19,17.64c8.23,4.3,19.48,6.66,31.67,6.66c12.2,0,23.44-2.37,31.67-6.66c8.51-4.44,13.2-10.71,13.2-17.64
			C381.89,560.97,377.33,554.82,368.69,550.37z M365.8,565.07l-3.4-0.13l0.11-5l-1.61-3.96h4.9V565.07z M352.73,555.97h2.55l2.77,5.39
			v4.84l-1.57,1.13l0.14,0.67h-3.89V555.97z M334.57,559.77l-2.64,0.55l-3.05-4.34h4.6L334.57,559.77z M350.97,564.99l-1.06,0.11
			l-0.11,1.59l-2.64,0.05l2.55-10.78h1.25V564.99z M323.08,555.97h2.52l5.89,6.01l0.38,4.96l-1.11,1.05h-2.82l-0.3-7.68l-3.74,4.67
			l0.36,3.01h-1.19V555.97z M308.25,555.97h4.28l-1.66,6.01V568h-2.62V555.97z M306.49,578.85h-7.17c-2.75-2.7-4.44-5.78-4.85-9.09
			h12.02V578.85z M306.49,568h-12.12c0.06-5.2,2.9-9.14,6.39-12.02h5.74V568z M308.25,569.76h2.62v9.09h-2.62V569.76z M321.32,578.85
			h-6.45l0.62-9.09h5.84V578.85z M321.32,568h-5.72l0.61-8.94v-3.08h5.11V568z M323.08,569.76h1.4l0.92,7.72l-2.31,1.37V569.76z
			 M347.93,578.85v-2.91h3.04v2.91H347.93z M352.73,575.93h3.61l-3.61-5.4v-0.78h4.26l0.57,2.71l0.45,6.38h-5.27V575.93z
			 M367.56,578.85v-9.09h3.32l0.28,9.09H367.56z M373.06,578.85l-0.16-1.81l3.5-0.05c-0.5,0.64-1.06,1.26-1.67,1.86H373.06z
			 M376.8,576.45l-0.55-1.83l-1.98-0.31l0.44-2.6l2.49-1.94h2.38C379.29,572.13,378.33,574.37,376.8,576.45z M376.59,568l-2.35-2.02
			l-0.62-7.7h-3.09l0.29,9.71h-3.27v-12.02h5.74c3.49,2.88,6.32,6.82,6.39,12.02H376.59z"/>
		<path id="Cables" class="stroke4" d="M382.92,65.37l-130.67,7.85 M377.64,131.79L195,102.25 M371.48,194.69l-212.11-65.73
			 M361.36,240.87L152.59,135.02 M344.21,317.85L128.12,160.33 M326.17,375.91L150.65,136.82 M284.83,478.84L140.28,147.03
			 M307.26,428.7L109.32,185.03 M94.37,209.29l166.71,317.06 M237.32,560.66l-105-405.11 M357.84,257.15l-192.3-133.42 M430.86,242.19
			L160.73,127.77 M209.61,593.65L80.89,234.4 M125.56,163.33l51.65,442.1 M122.34,552.76l-4.03-380.46 M228.52,571.65l-104-407.08
			 M84.98,494.32l23.62-308.83 M87.68,220.29L55.22,387.55 M96.87,203.7L58.92,414.97 M69.2,264.49l69.28,306.12 M74.63,249.32
			l75.49,333.35 M78.96,481.24l-21.68-166.2"/>
	</g>
</svg>