<?xml version="1.0" encoding="utf-8"?>
<!-- Generator: Adobe Illustrator 19.1.1, SVG Export Plug-In . SVG Version: 6.00 Build 0)  -->
<svg version="1.1" id="Paris" xmlns="http://www.w3.org/2000/svg" xmlns:xlink="http://www.w3.org/1999/xlink" x="0px" y="0px"
	 viewBox="0 0 720 720" style="enable-background:new 0 0 720 720;" xml:space="preserve">
<style type="text/css">
	.st0{fill:#E6E7E8;}
	.st1{fill:#D1D3D4;}
	.st2{fill:#A7A9AC;}
</style>
<path class="st0" d="M620.091,521.249c-0.789,0.164-1.584,0.328-2.385,0.49c0.014-3.444,0.028-6.888,0.042-10.334
	c-2.95,0.587-5.987,1.16-9.107,1.719c-0.021,1.224-0.042,2.448-0.063,3.672c-5.162,0.933-10.546,1.828-16.133,2.683
	c-0.089,2.521-0.18,5.039-0.274,7.551c-2.042,0.318-4.111,0.631-6.204,0.938c0.105-2.468,0.208-4.94,0.308-7.418
	c-3.865,0.558-7.819,1.099-11.857,1.622c-0.157,3.271-0.32,6.53-0.488,9.778c-5.802,0.769-11.767,1.501-17.881,2.196
	c0.212-3.525,0.415-7.067,0.611-10.625c-1.968,0.218-3.953,0.431-5.953,0.641c0.116-2.046,0.229-4.097,0.339-6.154
	c-5.278,0.542-10.668,1.059-16.158,1.55c-0.145,2.601-0.295,5.191-0.449,7.771c-72.713,6.065-162.709,7.48-246.331,4.334
	c-19.862-2.856-39.418-5.967-58.302-9.308c-50.609,1.399-95.779,0.758-130.496-2.07c52.004,84.399,143.836,141.62,249.302,145.481
	c3.801,0.11,7.599,0.189,11.39,0.233c3.632-0.04,7.27-0.112,10.912-0.214C476.176,662.094,567.904,605.246,620.091,521.249z"/>
<path class="st1" d="M414.129,640.559c19.613-22.58,72.271-29.895,96.769-14.31c14.549-8.264,28.349-17.689,41.285-28.143
	c-1.669-3.219-3.345-6.456-5.032-9.716c1.152-10.558,2.22-21.384,3.203-32.427c-4.573,0.513-9.215,1.005-13.921,1.477
	c-7.618-29.799-15.56-58.713-19.52-85.637c1.106-0.06,2.208-0.12,3.306-0.181c1.245-6.932,2.458-13.899,3.641-20.885
	c-3.022,0.135-6.076,0.265-9.158,0.392c0.03-1.21,0.059-2.421,0.088-3.633c-1.188-0.419-2.381-0.841-3.578-1.263
	c0.074-3.272,0.142-6.55,0.204-9.835c-0.678-0.635-1.358-1.272-2.039-1.91c-6.1-77.15-12.989-181.26-24.905-266.209
	c1.557-1.574,3.105-3.137,4.643-4.691c-0.294-2.789-0.594-5.545-0.901-8.266c-1.382-1.248-2.764-2.486-4.148-3.713
	c-0.397-3.456-0.804-6.853-1.222-10.187c-2.45-0.391-4.904-0.777-7.361-1.157c-1.064-2.004-2.13-3.98-3.197-5.929
	c-1.366-10.614-2.842-20.499-4.429-29.537c-2.395,0-4.789,0-7.184,0c1.524,8.929,2.942,18.728,4.253,29.276
	c-0.586,1.878-1.179,3.777-1.779,5.697c-2.406,0.183-4.819,0.369-7.236,0.556c0.36,3.27,0.711,6.608,1.053,10.012
	c-1.157,1.092-2.319,2.189-3.486,3.294c0.253,2.674,0.501,5.386,0.744,8.136c1.901,1.711,3.803,3.441,5.706,5.188
	c3.783,83.75-0.079,189.224-9.398,268.853c-0.763,0.687-1.527,1.375-2.292,2.062c-0.044,3.375-0.093,6.743-0.146,10.102
	c-1.329,0.505-2.66,1.01-3.993,1.515c-0.019,1.248-0.039,2.495-0.06,3.74c-3.407,0.067-6.83,0.131-10.267,0.19
	c1.04,7.184,2.056,14.316,3.048,21.382c1.232-0.029,2.463-0.058,3.692-0.088c-5.97,28.028-17.539,58.979-30.03,90.193
	c-5.383,0.134-10.784,0.247-16.198,0.34c-0.048,11.042-0.128,21.677-0.242,31.82c-19.136,27.017-37.263,50.123-53.313,68.31
	C347.102,665.775,353.524,666,360,666c13.567,0,26.924-0.894,40.024-2.605C402.769,657.707,407.708,647.983,414.129,640.559z
	 M467.716,475.895c8.018-0.275,15.922-0.58,23.686-0.917c0.43,1.557,0.858,3.111,1.283,4.66c-8.699,0.4-17.575,0.759-26.591,1.076
	C466.635,479.11,467.176,477.504,467.716,475.895z M463.211,490.846c10.497-0.391,20.812-0.842,30.89-1.353
	c3.712,24.693,6.973,48.424,9.772,70.811c-18.208,1.392-37.111,2.508-56.431,3.347C452.881,540.716,458.174,516.182,463.211,490.846
	z M445.772,571.792c20.061-0.861,39.698-2.021,58.612-3.48c0.714,2.689,1.419,5.357,2.115,8.004
	c-20.682,1.62-42.201,2.882-64.189,3.786C443.464,577.359,444.618,574.588,445.772,571.792z"/>
<path class="st2" d="M585.464,566.867c-6.54,0.961-13.243,1.878-20.133,2.74c-1.055,0.132-2.113,0.263-3.176,0.393
	c-2.513,0.307-5.048,0.608-7.603,0.902c-0.034,0.426-0.067,0.852-0.101,1.278c1.322,0.683,2.639,1.363,3.952,2.041
	c-0.089,1.129-0.178,2.255-0.268,3.379c1.093,0.713,2.183,1.424,3.271,2.133c-0.307,3.853-0.625,7.673-0.951,11.469
	C569.249,583.572,577.594,575.441,585.464,566.867z"/>
<path class="st2" d="M366.243,580.488c1.498-0.916,2.999-1.836,4.503-2.761c0.011-1.124,0.022-2.253,0.033-3.386
	c1.658-0.854,3.318-1.713,4.981-2.576c0.006-0.429,0.011-0.859,0.017-1.289c-4.33,0.037-8.663,0.06-12.998,0.071
	c0,0,0,0.001,0,0.001c-5.805,0.014-11.613,0.005-17.415-0.028c-0.076-8.824-0.145-17.926-0.208-27.262
	c-2.535-0.014-5.069-0.032-7.601-0.054c0.102,9.335,0.214,18.437,0.335,27.261c-3.984-0.037-7.964-0.084-11.939-0.143
	c-0.122-5.515-0.237-11.138-0.346-16.858c-2.511-0.036-5.019-0.077-7.525-0.122c0.134,5.719,0.276,11.342,0.425,16.857
	c-8.787-0.161-17.54-0.377-26.234-0.647c-14.274-9.366-28.597-19.151-42.726-29.234c-5.372-0.271-10.7-0.563-15.977-0.875
	c-0.525-9.145-1.001-18.476-1.426-27.959c-2.384-0.126-4.756-0.256-7.116-0.389c0.439,9.464,0.929,18.78,1.471,27.915
	c-13.238-0.839-26.133-1.812-38.575-2.919c0.28,4.361,0.573,8.687,0.878,12.976c-11.49-1.047-22.618-2.212-33.304-3.494
	c-0.559-8.722-1.071-17.558-1.534-26.489c0.808-0.413,1.619-0.826,2.433-1.242c0.194-0.77,0.388-1.541,0.582-2.313
	c-1.077-0.117-2.148-0.235-3.214-0.353c-0.401-7.989-0.763-16.05-1.088-24.17c1.375-1.023,2.759-2.052,4.154-3.088
	c-0.048-1.223-0.096-2.448-0.142-3.674c1.318-0.792,2.644-1.588,3.978-2.389c-0.017-0.463-0.035-0.927-0.052-1.39
	c-2.825-0.236-5.613-0.478-8.362-0.726c-0.739-0.067-1.475-0.134-2.209-0.201c-17.495-1.611-33.369-3.466-47.129-5.567
	c-0.62-0.095-1.235-0.19-1.847-0.285c-2.073-0.324-4.097-0.654-6.069-0.99c0,0.433,0,0.867,0,1.3
	c0.977,1.026,1.969,2.053,2.977,3.084c0.004,1.157,0.009,2.314,0.013,3.471c1.036,1.239,2.089,2.481,3.158,3.726
	c0.104,13.216,0.232,26.402,0.377,39.56c52.372,82.455,143.105,138.129,247.089,141.936c3.799,0.11,7.597,0.189,11.39,0.233
	c1.789,0,3.569-0.037,5.351-0.068C365.717,643.94,366.014,614.529,366.243,580.488z"/>
</svg>
