<?xml version="1.0" encoding="utf-8"?>
<svg version="1.1" id="background" class="gray" xmlns="http://www.w3.org/2000/svg" xmlns:xlink="http://www.w3.org/1999/xlink" x="0px" y="0px"
	 viewBox="0 0 720 720" style="enable-background:new 0 0 720 720;" xml:space="preserve">
<path class="st0" d="M360,666c168.999,0,306-137.001,306-306c0-4.682-0.122-9.334-0.33-13.964
	c-28.123-12.357-79.119-35.152-91.459-42.369c-3.089-1.807-105.448-66.281-105.448-66.281s-34.846-24.549-47.828-28.622
	c-4.802-1.506-6.544,4.485-9.038,5.272c-2.162,0.682-6.783,0.52-9.038,0.753c-6.385,0.659-19.179,4.345-25.483,3.138
	c-1.862-0.356-4.766-3.459-6.653-3.64c-2.262-0.218-6.389,2.753-8.662,2.762c-3.385,0.013-9.545-4.056-12.93-4.017
	c-3.84,0.044-10.722,4.828-14.562,4.896c-2.422,0.043-6.198-5.323-10.796-2.762c-26.362,14.687-112.98,59.503-112.98,59.503
	s-28.908,11.05-38.036,15.817c-10.695,5.586-30.151,20.079-40.673,25.985c-8.041,4.514-25.487,11.05-33.141,16.194
	c-2.933,1.971-7.425,7.755-10.545,9.415c-4.717,2.51-15.439,4.412-20.713,5.272c-3.248,0.53-9.382,0.855-13.444,1.048
	C54.097,352.251,54,356.114,54,360C54,528.999,191.001,666,360,666z"/>
<path class="st1" d="M637.083,460.25v-6.5h-14.75v-9.25h-30.75v-9h-28.5v-7.75h-23.25v7.75h-13.5v54h-30.5v-25.125h-3.313V461.5
	h3.313v-1.25h-49.25v-58h-2.25v-10.5h-23.25v10.5h-36.25v45.5h-36.75V491h-39.75v-16.75h-4.75v-4h-16.75v-15.5h-5v15.5h-14.5v4h-3
	V488h-7v5.75h-10.75v11.5h-11.5V477.5h-5.25v35h-15.167v-3.583h9.75c0,0-6.219-3.739-8.5-4.5c-1.641-0.547-6.833-1.083-6.833-1.083
	V456.75l-3.75-3.75v-8l-8.5-11h-28.25l-6.167,4.083v3.25H127v-23.667h-12v-5.333H89v-15H77.667v-1.167H56.138
	C74.033,548.117,203.24,666,360,666c133.884,0,247.668-85.991,289.18-205.75H637.083z M449.396,464.375h-2.688v-2.063h2.688V464.375
	z"/>
<path class="st3" d="M622.869,516.693h-1.929v-9.041h-0.848v11.584h-4.52v5.274h-1.224v-6.592h-9.888v-10.077h-1.978v-10.548h-0.659
	v10.548h-4.709v-2.354h-1.507v2.354h-2.825v-1.695h-1.036v1.695h-3.108v-10.548h-0.659v10.548h-0.753v10.077h-5.651v-3.39h-1.318
	v3.39h-4.709v1.413h-4.426v8.947h-3.484v-8.717h-2.543v-12.661h-11.678v-4.897h-0.628v-8.287h-1.13v-10.548h-1.005v10.548h-0.879
	v8.287h-0.879v-9.041h-0.377v-8.287h-1.005v8.287h-1.256v9.041h-8.539v2.386h-1.507v2.511h-10.297v71.385h-4.709v16.208
	c-1.54-8.285-2.615-17.797-3.55-29.799h2.887l1.237-8.539l-5.115-0.495l-5.28-78.496l1.671-0.99v-0.701h-0.516v-0.949h0.516v-0.784
	l-1.712-1.134l-0.289-7.425h1.279v-2.949h0.619v-10.168h-1.567v-1.093h-1.815v-11.013h-0.784v-7.631l-0.598-31.287h-1.165v-15.881
	l-0.495,0.846v15.035h-1.165l-0.598,31.287v7.631h-0.784v11.013h-1.815v1.093h-1.567v10.168h0.619v2.949h1.279l-0.289,7.425
	l-1.712,1.134v0.784h0.516v0.949h-0.516v0.701l1.671,0.99l-5.28,78.496l-5.115,0.495l1.237,8.539h2.887
	c-1.142,14.651-2.49,25.597-4.643,35.118v-24.99h-3.669c-0.274-1.448-2.434-2.41-5.214-2.89v-19.775h-1.22v-53.298h-4.223v-2.346
	h-0.751v-9.665h-3.003v9.665h-1.971v2.346h-3.847v-3.753h-6.193v3.753h-4.035v-3.566h-2.815v3.566h-4.692v43.539h-6.944v4.223
	h-4.129v-10.134h-1.126v-37.252h-31.716v37.252h-0.844v15.67h-1.314v24.522h-5.724l-2.534,3.19v3.159h-3.884v-5.912h-5.818v-4.692
	h-1.408v-3.941h-0.563v3.941h-6.85v-1.783h-1.314v1.783H370.3v-3.941h-0.563v3.941h-2.44v4.692h-7.038v51.609h-4.066v-12.949h-0.626
	v-17.203h-0.751v-14.325h-17.641V570.36h-16.765v-14.701h-31.779v14.701h-0.813v5.818H263.61v63.171
	c-7.209-60.307-11.617-162.863-13.617-258.065l11.375-29.946h-1.928l2.056-7.969h-11.439v-9.125h-1.799l-1.285-44.084h1.414v-2.699
	h1.028v-2.056h3.342v-5.013h-1.285v-5.27h1.028v-1.928h-4.113v-4.627h-2.828v-25.705h-6.857v-3.984h0.958v-21.721h-1.074v-0.964
	h1.06v-25.416h-1.06v-1.317h1.06v-6.233h-1.06v-2.153h1.047v-6.683h-1.047v-1.542h1.047v-6.683h-1.047v-1.607h1.047v-6.683h-1.047
	v-1.414h1.047v-6.683h-1.047v-1.864h1.047v-6.683h-1.047v-1.317h2.319v-9.511h-2.319v-1.114h-3.92v1.114h-2.319v9.511h2.319v1.317
	h-1.047v6.683h1.047v1.864h-1.047v6.683h1.047v1.414h-1.047v6.683h1.047v1.607h-1.047v6.683h1.047v1.542h-1.047v6.683h1.047v2.153
	h-1.06v6.233h1.06v1.317h-1.06v25.416h1.06v0.964h-1.074v21.721h0.958v3.984h-6.857v25.705h-2.828v4.627h-4.113v1.928h1.028v5.27
	h-1.285v5.013h3.342v2.056h1.028v2.699h1.414l-1.285,44.084h-1.799v9.125h-11.439l2.056,7.969h-1.928l11.375,29.946
	c-1.097,52.252-2.921,106.718-5.534,155.202h-11.164v3.097h-3.097v9.196h-15.013v64.643C237.381,646.607,296.424,666,360,666
	c46.979,0,91.478-10.6,131.257-29.518v-1.372c6.071-5.307,11.478-7.757,16.922-7.34
	C555.517,601.517,595.156,563.084,622.869,516.693z"/>
<path class="st3" d="M184.511,539.566h-1.689v-8.82h-4.937l-2.548-11.072l-5.23,4.473l-5.23-4.473l-1.965,8.539h-4.018v2.534h-2.252
	v-15.107h-5.384l-3.098-10.556l-4.771,4.457l-4.771-4.457l-2.258,7.694h-2.705v2.862h-3.566v-14.357h-1.877v-3.425h-4.22
	l-1.269-4.424v-9.089h-1.548v5.771l-4.645,4.363l-4.363-4.363v-5.771h-1.548v11.072l-1.466,5.865h-5.712v7.788H102.5v16.305
	c22.024,34.222,50.692,63.756,84.169,86.81v-46.439h-2.158V539.566z"/>
</svg>