<?xml version="1.0" encoding="utf-8"?>
<!-- Generator: Adobe Illustrator 19.1.1, SVG Export Plug-In . SVG Version: 6.00 Build 0)  -->
<svg version="1.1" id="Mask" xmlns="http://www.w3.org/2000/svg" xmlns:xlink="http://www.w3.org/1999/xlink" x="0px" y="0px"
	 viewBox="0 0 720 720" style="enable-background:new 0 0 720 720;" xml:space="preserve">
<path class="st0" d="M664.705,388.085c0.566-9.326,0.974-18.693,1.295-28.085c0-4.723-0.123-9.416-0.335-14.087
	c-16.603-13.929-60.755-41.59-73.485-50.131c-1.108-0.873-27.031-20.8-55.023-39.358c-27.605-18.735-57.28-36.101-56.932-35.929
	c0.023-0.28-39.506-25.259-53.754-28.894c-5.28-1.493-6.858,3.957-9.548,4.65c-2.326,0.587-7.385,0.352-9.845,0.531
	c-6.939,0.489-20.923,3.781-27.913,2.621c-2.062-0.351-5.299-3.252-7.374-3.423c-2.485-0.215-7.011,2.533-9.521,2.544
	c-3.741,0-10.505-3.761-14.214-3.702c-4.208,0.044-11.86,4.535-16.101,4.65c-2.679,0.055-6.668-4.887-11.785-2.443
	c-29.696,12.66-127.264,63.046-126.226,63.755c-0.16-0.045-30.645,13.412-39.65,19.137c-10.999,6.643-30.078,23.431-39.498,30.394
	c-7.464,5.336-22.365,13.391-28.396,19.229c-2.38,2.247-5.974,8.529-8.346,10.421c-3.663,2.873-11.435,5.421-14.995,6.593
	c-2.223,0.714-6.239,1.384-8.819,1.815C54.097,352.232,54,356.104,54,360c0.322,9.391,0.729,18.757,1.295,28.082
	C68.712,535.508,186.678,652.71,334.447,664.929c8.531,0.487,17.059,0.829,25.553,1.071c8.495-0.242,17.023-0.584,25.555-1.071
	C533.322,652.709,651.287,535.509,664.705,388.085z"/>
<path class="st1" d="M648.56,462.01c-0.875,0.08-1.743,0.16-2.631,0.239c0.035-2.228,0.069-4.457,0.1-6.687
	c-3.63,0.293-7.375,0.578-11.229,0.855c0.063-3.217,0.12-6.436,0.172-9.659c-8.005,0.489-16.491,0.95-25.403,1.382
	c0.072-3.218,0.138-6.441,0.196-9.667c-8.246,0.327-16.861,0.634-25.8,0.92c0.058-2.838,0.11-5.68,0.156-8.524
	c-7.289,0.187-14.795,0.364-22.493,0.53c-0.048,2.888-0.102,5.774-0.161,8.655c-4.47,0.12-9.005,0.236-13.598,0.347
	c-0.416,20.236-1.128,40.269-2.137,59.811c-10.358,0.549-20.989,1.048-31.844,1.497c0.437-9.193,0.814-18.507,1.131-27.909
	c-1.184,0.038-2.37,0.075-3.559,0.111c0.036-1.077,0.071-2.156,0.105-3.235c1.19-0.035,2.376-0.071,3.56-0.107
	c0.015-0.469,0.03-0.938,0.045-1.407c-17.607,0.529-35.837,0.961-54.465,1.298c0.502-22.124,0.771-44.752,0.808-67.417
	c-0.857,0.001-1.715,0.002-2.573,0.004c0.006-4.106,0.006-8.213-0.003-12.318c-8.871-0.015-17.834-0.029-26.863-0.04
	c0.006,4.129,0.007,8.26,0.002,12.39c-14.077,0.014-28.316,0.023-42.619,0.029c-0.009,17.989-0.062,35.954-0.16,53.65
	c-14.423,0.059-28.911,0.074-43.368,0.046c0.045,16.833,0.109,33.423,0.192,49.559c-15.424-0.052-30.814-0.19-46.061-0.415
	c-0.136-6.231-0.26-12.529-0.372-18.88c-1.833-0.023-3.663-0.047-5.491-0.072c-0.029-1.516-0.057-3.035-0.085-4.556
	c-6.455-0.085-12.88-0.182-19.267-0.292c-0.135-5.879-0.255-11.802-0.361-17.758c-1.914-0.027-3.824-0.054-5.731-0.083
	c0.112,5.949,0.24,11.865,0.382,17.738c-5.509-0.102-10.987-0.213-16.429-0.334c0.042,1.511,0.086,3.018,0.131,4.523
	c-1.125-0.026-2.248-0.053-3.37-0.08c0.158,5.169,0.33,10.304,0.516,15.399c-2.607-0.072-5.207-0.146-7.797-0.223
	c0.082,2.127,0.167,4.247,0.254,6.36c-3.971-0.123-7.922-0.253-11.849-0.39c0.188,4.215,0.387,8.401,0.597,12.555
	c-4.188-0.157-8.351-0.322-12.486-0.496c-0.54-9.998-1.01-20.176-1.41-30.487c-1.9-0.064-3.793-0.129-5.68-0.195
	c0.517,12.982,1.148,25.756,1.892,38.23c-5.41-0.247-10.77-0.509-16.076-0.785c-0.08-1.272-0.16-2.548-0.237-3.827
	c3.413,0.174,6.849,0.343,10.307,0.505c-0.007,0.002-6.84-4.328-9.279-5.27c-1.769-0.673-7.234-1.527-7.228-1.528
	c-0.976-16.706-1.737-33.863-2.283-51.274c-1.354-1.444-2.703-2.888-4.047-4.331c-0.089-2.991-0.171-5.99-0.246-8.994
	c-3.058-4.211-6.083-8.418-9.074-12.616c-9.671-0.22-19.087-0.458-28.202-0.716c-1.96,1.452-3.904,2.895-5.832,4.331
	c0.026,1.194,0.054,2.387,0.082,3.579c-11.265-0.397-22.047-0.83-32.26-1.299c-0.176-8.461-0.304-16.949-0.384-25.449
	c-3.449-0.074-6.83-0.151-10.142-0.229c-0.016-1.895-0.03-3.791-0.042-5.688c-7.171-0.124-14.011-0.256-20.486-0.393
	c-0.022-5.2-0.033-10.403-0.033-15.605c-2.819,0.001-5.569,0.003-8.246,0.004c0-0.4,0-0.799,0-1.199
	c-4.794,0.011-9.346,0.023-13.658,0.035C74.03,548.114,203.238,666,360,666C493.227,666,606.547,580.849,648.56,462.01z
	 M463.779,475.112c-1.013,0.02-2.027,0.04-3.043,0.059c0.019-0.784,0.038-1.569,0.056-2.354c1.016-0.019,2.031-0.038,3.044-0.058
	C463.818,473.544,463.799,474.328,463.779,475.112z"/>
<path class="st3" d="M618.129,524.391c-0.14,0.015-0.278,0.031-0.418,0.046c0.186-3.45,0.364-6.911,0.535-10.382
	c-0.565,0.059-1.132,0.118-1.701,0.177c0.182-3.637,0.355-7.286,0.52-10.946c-0.188,0.018-0.377,0.037-0.566,0.055
	c-0.166,3.661-0.34,7.311-0.523,10.949c-1.356,0.139-2.721,0.277-4.094,0.414c0.043-0.814,0.085-1.628,0.127-2.443
	c-0.439,0.043-0.879,0.086-1.32,0.129c-0.042,0.816-0.085,1.631-0.128,2.445c-0.828,0.081-1.658,0.162-2.492,0.243
	c0.032-0.587,0.063-1.175,0.095-1.762c-0.306,0.029-0.611,0.058-0.918,0.087c-0.032,0.588-0.063,1.176-0.095,1.763
	c-0.919,0.088-1.843,0.176-2.77,0.263c0.204-3.66,0.398-7.334,0.582-11.02c-0.196,0.017-0.392,0.035-0.588,0.052
	c-0.185,3.688-0.38,7.363-0.584,11.024c-0.225,0.021-0.451,0.042-0.676,0.063c-0.196,3.499-0.402,6.984-0.616,10.455
	c-1.699,0.165-3.41,0.327-5.131,0.488c0.075-1.17,0.148-2.342,0.221-3.516c-0.401,0.037-0.803,0.074-1.205,0.111
	c-0.073,1.174-0.147,2.346-0.222,3.517c-1.439,0.133-2.886,0.265-4.341,0.395c-0.032,0.489-0.064,0.977-0.097,1.465
	c-1.368,0.123-2.743,0.245-4.124,0.366c-0.209,3.094-0.426,6.176-0.65,9.243c-1.09,0.098-2.185,0.195-3.283,0.291
	c0.221-2.991,0.436-5.995,0.642-9.013c-0.799,0.068-1.601,0.136-2.405,0.203c0.303-4.386,0.59-8.8,0.861-13.24
	c-3.681,0.291-7.409,0.575-11.18,0.849c0.108-1.725,0.213-3.454,0.316-5.186c-0.203,0.014-0.405,0.029-0.608,0.043
	c0.174-2.933,0.342-5.878,0.503-8.832c-0.365,0.024-0.73,0.049-1.096,0.073c0.205-3.763,0.398-7.542,0.581-11.336
	c-0.325,0.02-0.65,0.04-0.976,0.059c-0.183,3.796-0.377,7.578-0.582,11.342c-0.285,0.019-0.571,0.037-0.856,0.056
	c-0.161,2.959-0.33,5.907-0.505,8.843c-0.286,0.02-0.572,0.039-0.858,0.059c0.191-3.205,0.375-6.423,0.55-9.654
	c-0.122,0.008-0.245,0.016-0.368,0.024c0.16-2.962,0.314-5.935,0.46-8.917c-0.327,0.019-0.655,0.039-0.982,0.059
	c-0.147,2.984-0.3,5.958-0.461,8.922c-0.41,0.026-0.82,0.052-1.231,0.078c-0.175,3.235-0.359,6.457-0.551,9.665
	c-2.795,0.188-5.615,0.372-8.455,0.551c-0.051,0.849-0.102,1.697-0.154,2.545c-0.501,0.032-1.003,0.064-1.506,0.096
	c-0.055,0.892-0.11,1.783-0.166,2.673c-3.435,0.221-6.901,0.435-10.397,0.643c-1.586,25.379-3.69,49.734-6.311,72.397
	c-1.589,0.103-3.181,0.205-4.778,0.305c-0.592,5.14-1.21,10.19-1.855,15.144c-0.576-7.51-0.592-16.358-0.337-28.024
	c0.985-0.062,1.968-0.125,2.95-0.188c0.709-2.81,1.411-5.644,2.105-8.5c-1.723-0.05-3.451-0.102-5.185-0.155
	c0.683-25.904,0.717-53.687,0.116-82.506c0.598-0.389,1.195-0.778,1.791-1.167c0.011-0.258,0.022-0.516,0.033-0.775
	c-0.179,0.008-0.359,0.015-0.538,0.022c0.015-0.35,0.029-0.699,0.044-1.049c0.179-0.007,0.359-0.015,0.538-0.022
	c0.012-0.289,0.024-0.578,0.036-0.867c-0.578-0.394-1.157-0.789-1.737-1.184c0.01-2.739,0.014-5.487,0.013-8.243
	c0.446-0.016,0.892-0.033,1.338-0.049c0.039-1.095,0.078-2.192,0.116-3.29c0.216-0.008,0.431-0.015,0.646-0.023
	c0.131-3.783,0.251-7.579,0.361-11.387c-0.546,0.017-1.093,0.033-1.64,0.05c0.012-0.41,0.023-0.819,0.035-1.229
	c-0.634,0.019-1.269,0.037-1.905,0.056c0.116-4.133,0.22-8.279,0.312-12.435c-0.275,0.007-0.55,0.013-0.825,0.019
	c0.064-2.881,0.122-5.766,0.174-8.656c0.004-11.843-0.089-23.758-0.279-35.682c-0.41,0.001-0.821,0.002-1.231,0.002
	c0.011-6.057-0.004-12.115-0.042-18.167c-0.172,0.321-0.345,0.642-0.518,0.963c0.034,5.732,0.046,11.469,0.036,17.205
	c-0.411,0.001-0.823,0.001-1.235,0.002c-0.232,11.943-0.56,23.883-0.983,35.757c-0.052,2.895-0.109,5.787-0.172,8.673
	c-0.277,0.006-0.554,0.012-0.831,0.019c-0.091,4.167-0.193,8.324-0.307,12.467c-0.642,0.018-1.284,0.036-1.927,0.053
	c-0.011,0.412-0.023,0.823-0.034,1.234c-0.556,0.015-1.112,0.031-1.669,0.046c-0.106,3.829-0.223,7.646-0.349,11.449
	c0.219-0.007,0.439-0.014,0.658-0.021c-0.037,1.103-0.074,2.205-0.113,3.305c0.453-0.015,0.906-0.03,1.359-0.046
	c-0.199,2.773-0.404,5.538-0.614,8.296c-0.622,0.443-1.244,0.886-1.868,1.329c-0.011,0.291-0.023,0.581-0.035,0.872
	c0.183-0.007,0.365-0.014,0.548-0.021c-0.014,0.351-0.028,0.703-0.042,1.054c-0.182,0.007-0.365,0.014-0.548,0.021
	c-0.011,0.26-0.021,0.519-0.032,0.779c0.577,0.344,1.153,0.687,1.728,1.03c-3.074,29.07-6.731,57.205-10.935,83.313
	c-1.803,0.26-3.611,0.519-5.423,0.776c0.183,2.803,0.357,5.582,0.523,8.336c1.01-0.052,2.019-0.105,3.027-0.159
	c-2.59,14.34-5.187,24.483-8.487,33.094c0.939-7.435,1.82-15.137,2.644-23.075c-1.281,0.064-2.564,0.128-3.848,0.19
	c-0.147-1.366-2.324-2.176-5.217-2.499c0.615-6.316,1.195-12.781,1.74-19.379c-0.433,0.02-0.867,0.041-1.3,0.061
	c1.46-17.781,2.669-36.526,3.625-55.902c-1.527,0.059-3.059,0.118-4.593,0.175c0.041-0.854,0.082-1.709,0.122-2.565
	c-0.273,0.01-0.546,0.02-0.819,0.03c0.165-3.528,0.322-7.077,0.471-10.644c-1.096,0.037-2.193,0.073-3.292,0.109
	c-0.146,3.57-0.3,7.122-0.462,10.652c-0.72,0.025-1.44,0.051-2.161,0.076c-0.039,0.857-0.078,1.714-0.118,2.568
	c-1.407,0.049-2.817,0.098-4.229,0.146c0.062-1.369,0.123-2.741,0.183-4.117c-2.276,0.075-4.56,0.148-6.85,0.219
	c-0.057,1.377-0.115,2.752-0.175,4.122c-1.49,0.047-2.983,0.094-4.479,0.139c0.055-1.303,0.109-2.61,0.161-3.919
	c-1.045,0.031-2.091,0.061-3.138,0.091c-0.052,1.31-0.104,2.617-0.158,3.922c-1.744,0.051-3.491,0.102-5.242,0.15
	c-0.627,15.939-1.388,31.422-2.285,46.251c-2.543,0.085-5.092,0.167-7.647,0.246c-0.081,1.439-0.164,2.871-0.247,4.297
	c-1.516,0.047-3.033,0.093-4.553,0.137c0.192-3.423,0.378-6.882,0.557-10.377c-0.417,0.012-0.833,0.024-1.25,0.036
	c0.651-12.847,1.214-26.163,1.69-39.822c-11.944,0.285-24.022,0.512-36.178,0.681c-0.294,13.715-0.641,27.071-1.042,39.937
	c-0.318,0.005-0.635,0.01-0.953,0.016c-0.166,5.412-0.341,10.737-0.525,15.966c-0.489,0.008-0.979,0.016-1.468,0.024
	c-0.281,8.182-0.584,16.127-0.909,23.798c-2.094,0.033-4.19,0.064-6.288,0.093c-0.965,1.01-1.929,2.016-2.89,3.015
	c-0.035,0.978-0.07,1.952-0.105,2.921c-1.416,0.018-2.833,0.034-4.251,0.05c0.059-1.813,0.117-3.642,0.175-5.488
	c-2.134,0.024-4.269,0.046-6.405,0.066c0.037-1.464,0.074-2.939,0.11-4.424c-0.519,0.005-1.038,0.009-1.556,0.014
	c0.029-1.247,0.057-2.501,0.085-3.762c-0.208,0.002-0.416,0.004-0.625,0.005c-0.027,1.261-0.055,2.515-0.083,3.762
	c-2.525,0.022-5.052,0.04-7.58,0.056c0.009-0.564,0.018-1.13,0.027-1.696c-0.485,0.003-0.971,0.006-1.456,0.009
	c-0.008,0.567-0.017,1.132-0.025,1.696c-1.905,0.011-3.81,0.02-5.715,0.027c0.012-1.247,0.024-2.5,0.037-3.761
	c-0.209,0.001-0.417,0.002-0.626,0.002c-0.011,1.261-0.023,2.514-0.034,3.761c-0.901,0.003-1.802,0.006-2.702,0.008
	c-0.01,1.484-0.021,2.958-0.032,4.422c-2.589,0.007-5.177,0.01-7.766,0.011c-0.004,16.101-0.009,30.956-0.014,44.21
	c-1.421,0-2.842,0-4.263-0.002c-0.02-3.325-0.039-6.752-0.058-10.274c-0.222,0-0.443,0-0.665-0.001
	c-0.029-4.679-0.057-9.525-0.083-14.527c-0.271,0-0.542-0.001-0.813-0.001c-0.026-4.165-0.051-8.437-0.075-12.809
	c-6.449-0.012-12.897-0.044-19.337-0.095c-0.102-4.24-0.2-8.574-0.295-12.993c-6.192-0.052-12.376-0.122-18.548-0.212
	c-0.172-4.681-0.336-9.458-0.493-14.321c-11.825-0.173-23.598-0.416-35.277-0.729c0.272,4.865,0.557,9.647,0.854,14.336
	c-0.296-0.008-0.592-0.016-0.888-0.024c0.119,1.856,0.24,3.698,0.363,5.524c-8.772-0.232-17.497-0.503-26.16-0.813
	c1.7,19.891,3.7,38.111,6.001,54.069c-6.978-22.554-14.087-59.565-19.255-107.45c-5.226-47.453-8.511-105.779-9.182-160.982
	c4.307-11.621,8.711-23.257,13.19-34.834c-0.723,0.011-1.445,0.023-2.167,0.035c0.827-3.073,1.659-6.141,2.496-9.203
	c-4.286,0.078-8.546,0.161-12.779,0.249c0.082-3.477,0.172-6.945,0.268-10.4c-0.665,0.016-1.329,0.032-1.992,0.048
	c-0.004-16.671,0.159-33.057,0.494-48.969c0.515-0.019,1.031-0.038,1.546-0.057c0.049-0.976,0.098-1.949,0.148-2.921
	c0.375-0.014,0.75-0.028,1.125-0.042c0.038-0.741,0.076-1.48,0.115-2.219c1.219-0.046,2.439-0.091,3.662-0.135
	c0.092-1.801,0.186-3.596,0.282-5.385c-0.469,0.017-0.939,0.035-1.407,0.053c0.102-1.88,0.206-3.752,0.312-5.616
	c0.374-0.015,0.749-0.029,1.124-0.043c0.039-0.682,0.078-1.363,0.117-2.044c-1.498,0.058-2.993,0.116-4.485,0.176
	c0.097-1.631,0.195-3.256,0.296-4.875c-1.024,0.042-2.047,0.084-3.068,0.127c0.567-8.991,1.19-17.791,1.87-26.362
	c-2.452,0.108-4.896,0.22-7.333,0.334c0.109-1.328,0.22-2.652,0.333-3.969c0.34-0.016,0.68-0.032,1.02-0.048
	c0.609-7.183,1.259-14.201,1.952-21.031c-0.378,0.017-0.755,0.034-1.132,0.051c0.031-0.303,0.062-0.606,0.093-0.909
	c0.372-0.017,0.745-0.034,1.118-0.051c0.814-7.973,1.686-15.688,2.614-23.109c-0.368,0.014-0.736,0.029-1.103,0.043
	c0.048-0.385,0.097-0.769,0.146-1.152c0.367-0.014,0.735-0.028,1.102-0.043c0.229-1.813,0.462-3.607,0.698-5.384
	c-0.366,0.013-0.732,0.026-1.099,0.04c0.082-0.614,0.164-1.226,0.247-1.835c0.361-0.013,0.722-0.026,1.083-0.038
	c0.256-1.891,0.515-3.761,0.779-5.608c-0.36,0.012-0.719,0.023-1.079,0.035c0.061-0.427,0.122-0.852,0.184-1.277
	c0.359-0.011,0.718-0.023,1.078-0.034c0.265-1.838,0.535-3.653,0.808-5.446c-0.358,0.01-0.716,0.02-1.073,0.03
	c0.066-0.431,0.132-0.861,0.199-1.29c0.357-0.01,0.715-0.019,1.072-0.029c0.275-1.782,0.554-3.541,0.837-5.276
	c-0.356,0.008-0.712,0.016-1.068,0.025c0.06-0.367,0.121-0.734,0.181-1.099c0.356-0.008,0.711-0.016,1.067-0.023
	c0.285-1.725,0.573-3.427,0.866-5.104c-0.354,0.006-0.708,0.012-1.062,0.018c0.082-0.468,0.164-0.934,0.247-1.399
	c0.354-0.006,0.707-0.011,1.061-0.017c0.295-1.664,0.593-3.303,0.896-4.916c-0.352,0.004-0.704,0.008-1.056,0.011
	c0.06-0.318,0.12-0.636,0.18-0.953c0.779-0.008,1.558-0.015,2.337-0.022c0.43-2.279,0.868-4.506,1.314-6.681
	c-0.773,0.001-1.547,0.002-2.321,0.003c0.053-0.255,0.106-0.51,0.159-0.764c-1.307,0-2.613,0-3.92,0
	c-0.054,0.255-0.108,0.512-0.162,0.768c-0.773,0.001-1.547,0.002-2.32,0.003c-0.465,2.201-0.922,4.453-1.371,6.756
	c0.778-0.008,1.557-0.016,2.335-0.023c-0.061,0.318-0.123,0.637-0.184,0.957c-0.352,0.004-0.703,0.008-1.055,0.012
	c-0.312,1.625-0.62,3.275-0.923,4.95c0.353-0.006,0.706-0.012,1.06-0.018c-0.084,0.466-0.168,0.934-0.252,1.404
	c-0.354,0.006-0.707,0.013-1.061,0.019c-0.301,1.688-0.599,3.399-0.892,5.134c0.355-0.008,0.71-0.016,1.065-0.024
	c-0.062,0.367-0.123,0.734-0.185,1.103c-0.355,0.008-0.711,0.017-1.066,0.026c-0.292,1.745-0.579,3.512-0.862,5.302
	c0.357-0.01,0.713-0.02,1.07-0.03c-0.068,0.43-0.135,0.861-0.203,1.294c-0.357,0.01-0.714,0.021-1.071,0.031
	c-0.281,1.801-0.559,3.624-0.832,5.469c0.358-0.012,0.717-0.024,1.075-0.035c-0.063,0.425-0.125,0.852-0.188,1.28
	c-0.359,0.012-0.718,0.024-1.076,0.036c-0.271,1.855-0.539,3.731-0.802,5.629c0.36-0.013,0.72-0.027,1.08-0.04
	c-0.084,0.611-0.168,1.224-0.252,1.839c-0.365,0.014-0.731,0.028-1.096,0.041c-0.243,1.782-0.483,3.582-0.719,5.4
	c0.366-0.015,0.733-0.03,1.099-0.044c-0.05,0.384-0.099,0.769-0.148,1.154c-0.367,0.015-0.734,0.03-1.1,0.045
	c-0.957,7.441-1.855,15.17-2.694,23.153c0.371-0.018,0.742-0.035,1.114-0.053c-0.032,0.303-0.063,0.606-0.095,0.909
	c-0.376,0.018-0.752,0.036-1.128,0.054c-0.713,6.838-1.384,13.86-2.011,21.044c0.338-0.017,0.677-0.033,1.015-0.05
	c-0.115,1.318-0.228,2.641-0.339,3.969c-2.427,0.119-4.847,0.24-7.258,0.366c-0.743,8.571-1.424,17.358-2.044,26.326
	c-1.002,0.05-2.003,0.1-3.002,0.15c-0.113,1.613-0.223,3.233-0.332,4.858c-1.455,0.073-2.906,0.146-4.353,0.221
	c-0.046,0.677-0.092,1.354-0.137,2.032c0.362-0.018,0.724-0.037,1.087-0.055c-0.123,1.855-0.244,3.716-0.362,5.585
	c-0.454,0.022-0.907,0.045-1.36,0.068c-0.113,1.777-0.223,3.56-0.331,5.349c1.179-0.058,2.36-0.115,3.544-0.171
	c-0.044,0.734-0.087,1.47-0.13,2.206c0.364-0.017,0.729-0.034,1.094-0.051c-0.056,0.967-0.112,1.935-0.166,2.905
	c0.502-0.023,1.005-0.046,1.508-0.069c-1.347,15.872-2.516,32.178-3.503,48.734c-0.644,0.019-1.287,0.039-1.929,0.059
	c-0.11,3.422-0.212,6.854-0.306,10.297c-4.087,0.109-8.141,0.222-12.156,0.34c0.637,2.969,1.281,5.949,1.934,8.937
	c-0.679,0.017-1.358,0.034-2.035,0.051c3.723,11.186,7.581,22.521,11.563,33.951c-1.719,60.133-1.626,123.044-0.404,172.591
	c-3.901-0.216-7.776-0.44-11.623-0.672c0.086,1.061,0.172,2.119,0.26,3.174c-1.067-0.065-2.131-0.13-3.193-0.197
	c0.262,3.134,0.532,6.244,0.811,9.33c-5.142-0.324-10.236-0.663-15.277-1.018c1.412,15.344,3.042,30.108,4.881,44.152
	C229.092,643.772,291.947,666,360,666C468.493,666,563.793,609.534,618.129,524.391z"/>
<path class="st3" d="M176.303,604.739c-1.091-8.419-2.107-17.089-3.045-25.987c-0.722-0.051-1.444-0.102-2.164-0.154
	c-0.9-8.532-1.729-17.265-2.489-26.169c-0.564-0.04-1.127-0.081-1.69-0.122c-0.256-2.999-0.504-6.017-0.744-9.053
	c-1.644-0.117-3.282-0.236-4.913-0.357c-1.143-3.87-2.271-7.766-3.383-11.685c-1.608,1.433-3.207,2.859-4.796,4.277
	c-1.819-1.679-3.626-3.361-5.422-5.047c-0.424,2.917-0.84,5.818-1.249,8.704c-1.293-0.105-2.58-0.212-3.863-0.319
	c0.066,0.871,0.132,1.74,0.199,2.608c-0.719-0.061-1.437-0.122-2.153-0.183c-0.396-5.174-0.77-10.392-1.121-15.649
	c-1.707-0.139-3.404-0.28-5.091-0.423c-1.212-3.749-2.408-7.513-3.587-11.289c-1.389,1.439-2.77,2.871-4.143,4.296
	c-1.56-1.68-3.108-3.361-4.643-5.043c-0.534,2.624-1.062,5.236-1.585,7.838c-0.819-0.076-1.635-0.152-2.448-0.229
	c0.059,0.99,0.118,1.98,0.178,2.967c-1.073-0.102-2.142-0.206-3.206-0.31c-0.294-4.95-0.571-9.927-0.829-14.928
	c-0.556-0.051-1.111-0.102-1.665-0.153c-0.061-1.192-0.121-2.385-0.18-3.58c-1.243-0.113-2.479-0.226-3.708-0.341
	c-0.443-1.574-0.883-3.149-1.32-4.726c-0.143-3.169-0.279-6.347-0.409-9.532c-0.446-0.038-0.892-0.076-1.336-0.115
	c0.081,2.02,0.165,4.038,0.251,6.052c-1.271,1.402-2.534,2.798-3.79,4.186c-1.307-1.635-2.601-3.269-3.882-4.901
	c-0.079-2.004-0.155-4.01-0.23-6.019c-0.432-0.04-0.863-0.08-1.293-0.12c0.14,3.85,0.288,7.692,0.445,11.522
	c-0.326,1.988-0.651,3.97-0.974,5.948c-1.595-0.169-3.177-0.339-4.744-0.512c0.004,0.104,0.009,0.208,0.013,0.312
	C112.341,545.026,141.429,578.522,176.303,604.739z"/>
</svg>
