<?xml version="1.0" encoding="utf-8"?>
<!-- Generator: Adobe Illustrator 19.1.1, SVG Export Plug-In . SVG Version: 6.00 Build 0)  -->
<svg version="1.1" xmlns="http://www.w3.org/2000/svg" xmlns:xlink="http://www.w3.org/1999/xlink" x="0px" y="0px"
	 viewBox="0 0 720 720" style="enable-background:new 0 0 720 720;" xml:space="preserve">
<style type="text/css">
	.st0{fill:#E6E7E8;}
	.st1{fill:#D1D3D4;}
	.st2{fill:#A7A9AC;}
	.st4{fill:none;stroke:#010101;stroke-width:3;stroke-miterlimit:10;}
</style>
<g id="Paris">
	<path id="Setting" class="st0" d="M360,666c109.818,0,206.107-57.862,260.091-144.751h-3.321v-10.317h-12.441v3.641h-20.482v7.434
		h-7.434v-7.282h-13.806v9.558h-19.723v-10.317h-6.372v-5.917h-16.84v7.434l-223.02-1.821l-52.797-6.372l-144.98,12.301
		C152.659,607.405,249.483,666,360,666z"/>
	<path id="Tower" class="st1" d="M537.725,578.299l0.593-32.982h-14.492c-10.237-30.733-19.582-58.318-24.331-82.956h3.248
		l2.998-18.74h-8.995v-3.248l-3.498-1.249v-8.745l-1.999-1.749c-7.269-69.335-11.845-154.203-15.242-245.87l4.997-5.497v-9.245
		l-3.654-3.998v-11.9l-7.09-0.999l-2.405-7.09V104.8h-7.184v39.229l-2.405,7.09l-7.09,0.999v11.9l-3.654,3.998v9.245l4.997,5.497
		c-3.397,91.666-7.972,176.535-15.242,245.87l-1.999,1.749v8.745l-3.498,1.249v3.248h-8.995l2.998,18.74h3.248
		c-4.748,24.638-14.094,52.223-24.331,82.956H390.21l0.593,32.982l-50.259,87.068C346.98,665.771,353.463,666,360,666
		c13.354,0,26.506-0.86,39.409-2.519c2.157-8.675,6.418-23.507,12.383-33.459c19.059-31.796,78.506-33.767,101.438-5.105
		c12.926-7.493,25.25-15.906,36.889-25.148L537.725,578.299z M453.368,464.109h21.793l1.347,4.248h-24.487L453.368,464.109z
		 M449.689,477.352h28.485l13.16,67.964h-53.139L449.689,477.352z M434.347,561.809l2.738-8.371h55.36l2.738,8.371H434.347z"/>
	<path id="Right" class="st2" d="M590.742,560.975h-35.148h-3.442h-8.142v1.3l4.423,2.573v3.456l3.719,2.608v27.221
		C566.071,586.886,578.991,574.455,590.742,560.975z"/>
	<path id="Left" class="st2" d="M362.206,550.314h-15.514v-26.653h-6.663v26.653h-10.661v-16.658h-6.663v16.658h-23.616
		l-37.706-26.979H246.53v-26.319h-6.663v26.319h-37.59v12.657h-34.698V510.14l2.738-1.467l0.766-2.298h-3.504v-23.054l4.707-3.3
		v-3.456l4.423-2.573v-1.3h-9.129h-2.454H106.58h-2.637h-8.946v1.3l4.423,2.573v3.456l4.523,3.172v44.374
		C158.608,610.93,252.865,666,360,666c1.789,0,3.568-0.037,5.349-0.068V560.458l4.018-2.817v-3.456l4.423-2.573v-1.3h-11.583
		V550.314z"/>
</g>
</svg>
