<?xml version="1.0" encoding="utf-8"?>
<svg version="1.1" id="Mask" xmlns="http://www.w3.org/2000/svg" xmlns:xlink="http://www.w3.org/1999/xlink" x="0px" y="0px"
	 viewBox="0 0 720 720" style="enable-background:new 0 0 720 720;" xml:space="preserve">
<style type="text/css">
	.stroke4{fill:none;stroke-width:2.25;}
	.stroke5{fill:none;stroke-width:0.8;}
	.stroke6{fill:none;stroke-width:1.1249;}
	.stroke7{fill:none;stroke-width:1}
	.stroke8{fill:none;stroke-width:0.7874;}
	.stroke9{fill:none;stroke-width:0.6749;}
	.stroke10{fill:none;stroke-width:0.5624;}
	.stroke11{fill:none;stroke-width:0.45;}
</style>
<path class="st2" d="M134.35,566.67C190.29,627.71,270.67,666,360,666s169.71-38.29,225.65-99.33H134.35z"/>
<path class="st0" d="M520.5,501.5l-23.26,0.36l-30.96-4.56l-21.09-7.41l-5.32,0.38l-8.93-2.47l-7.22,2.85l-12.92,0.19
	l-10.83-5.13L388.39,484l-22.23,2.28l-52.81,21.66c0,0-12.35,4.94-12.92,4.94c-0.57,0-21.47,3.23-21.47,3.23l-27.36,9.5
	l-49.58-17.86L83.5,491.22c14.15,29.77,32.96,56.89,55.5,80.41l135.98,4.98l12.63,1.14l83.02,1.14l107.71-18.56L520.5,501.5z"/>
<path id="Fore" class="st1" d="M624.68,513.64c-14.44,24.83-32.27,47.44-52.86,67.19l-113.8-0.33h-23.94l-43.22-1.42l-6.46,0.38
	l-13.77-0.57l36.57-15.67l82.26-44.26l17.48-19.85l12.54-4.08l8.93-0.19l26.6-0.57l21.28,1.9l24.51,11.02l9.69,1.52L624.68,513.64z
	 M139.06,571.69l35.71,1.31l-8.64-10.54l-15.39-15.2l-11.3-6.27l-13.2-6.27l-11.4-8.17l-18.89-11.87
	C108.08,535.36,122.57,554.49,139.06,571.69z"/>
<path class="st3" d="M604.15,529.47v-59.38l-0.63-0.65V448.5l-0.54-0.62v-20.07l-1.23-1.76v-1.12h-1.2v1.12l-1.21,1.25
	v1.18l-16.61,0.35v-0.58l-1.28-1.53v-1.25h-1.3v1.32l-1.14,1.11v2.44c-23.2,63.98-46.59,77.63-72.71,82.28
	c-0.82-0.1-1.64-0.2-2.46-0.32c-100.84-14.04-187.21-158.63-270.09-317.28v-4.37l-4.77-5.41v-3.9l-1.86-2.07l-1.97,1.62v3.16
	l-14.48,10.12l-27.21,2.32l-1.05-0.63l-2.74,0.21v-0.63l-5.34-5.27v-3.66l-1.9-1.9l-1.76,1.55v3.02l-4.78,5.27v58.63l-1.12,2.04
	v62.08l-0.98,1.83v76.49l-0.77,2.11v86.98c-26.98-1.9-55.32-3.85-85.08-5.86c4.54,10.78,9.7,21.23,15.4,31.34
	c23.77,0.65,47,1.3,69.68,1.97v82.01l-0.02,0.03c23.27,19.61,49.49,35.82,77.92,47.85h4.92l-1.76-31.5l-4.85-2.04v-10.41l-2.81-3.8
	l-0.14-79.84c139.81,4.73,255.18,10.83,341.56,21.82v27.97l-0.98,1.34v4.94l-1.08,0l-0.39,6.95c3.05-3.03,6.04-6.12,8.96-9.27v-2.63
	l-0.67-0.97l1.22-1.14h3.75c0.59-0.66,1.18-1.32,1.76-1.99h-4.2v-0.46l3.98-3.72h1.3l1.38,1.33c0.5-0.58,0.99-1.16,1.48-1.75
	l-1.14-1.06v-1.42l3.93-3.6l0.49,0.13v1.98c2.23-2.75,4.42-5.53,6.56-8.36v-4.64c1.04,0.16,2.06,0.32,3.09,0.48
	c2.15-2.95,4.27-5.93,6.32-8.95C610.48,530.72,607.35,530.09,604.15,529.47z M179.57,254.43v-31.71l2.67-3.37l1.9-1.17l1.64-0.14
	l0.94-0.89l0.89-0.07c7.77,13.29,15.19,25.8,22.05,37.1l-23.78,1.74l-1.5-0.8h-2.91l-1.12-0.68H179.57z M217.59,595.03l-3.05,3.96
	v9.49l-29.25-0.42v-10.94l-3.05-3.28v-1.27l1.76-1.48h31.24l2.34,2.65V595.03z M214.73,429.91l0.63-0.07l-0.07,4.01l0.84,0.84v6.19
	l0.56,0.98v10.55l0.84,1.2c0,0,0,34.66,0,34.94c0,0,0,0,0,0c-11.46-0.84-23.19-1.69-35.19-2.54c-0.01,0-0.03,0-0.03,0v-31.48
	l0.56-0.21v-11.32l0.84-0.63v-6.54l0.56-0.63v-3.87h0.56l2.6-2.95v-1.62h2.88l2.18-1.62l15.61-0.35l3.87,1.34v1.48L214.73,429.91z
	 M199,529.25h1.22l10.26,11.2v1.52h-22.61v-1.2L199,529.25z M195.95,513.43l7.08,0.09l-2.95,3.12h-1.03L195.95,513.43z
	 M210.48,547.62v1.22l-10.26,11.01H199l-10.17-10.83v-1.41H210.48z M192.3,524.47l-9.33,10.05v-21.58h1.92l7.41,7.78V524.47z
	 M192.39,564.03v4.17l-9.61,9.68v-23.86L192.39,564.03z M187.71,584l11.13-11.57h1.04l10.83,11.6v1.35h-22.99V584z M206.48,567.94
	v-3.44l10.05-10.24v24.68L206.48,567.94z M206.66,524.82v-3.44l7.1-7.38h2.77v21.23L206.66,524.82z M218.1,394.33l-11.46,3.37
	l-14.62,0.77l-10.48-2.18v-38.88l1.83-7.73l2.79-3.33l4.59-1.8l20.04-1.08l2.41,0.75l3.14,3.14l1.76,7.42V394.33z M219.01,314.73
	l-1.03,1.87h-3.66l-0.89,1.17h-3.8l-0.56,0.94l-20.86,1.12l-6.8-1.36l-0.84-0.98v-26.95l0.75-6.75l4.92-4.55l2.67-1.03l23.81-1.69
	l5.58,3.84l-0.19,2.39l0.89,1.03V314.73z M220.19,249.2l-0.94,1.55v0.84l-2.58,0.28l-0.66,0.84l-4.03,0.42l-0.42,0.88
	c-7.32-12.32-14.63-24.69-21.93-37.11l25.53-2.02l1.17,0.56h1.08l2.77,2.72V249.2z M236.2,489.92l-0.31-174.11l-0.77-1.55v-18.68
	C343.32,467.71,411.26,495.6,447.85,508.03C390.25,502.09,320.82,496.22,236.2,489.92z M499.22,513.72
	c-14.26-1.71-29.38-3.4-45.43-5.08c-82.39-23.16-150.86-109.48-218.67-216.7v-5.46l-0.45-1.38v-30.37l-0.94-3.19v-52.4
	c82.38,158.28,168.81,299.04,268.82,314.09c-1.11,0.16-2.23,0.32-3.35,0.46L499.22,513.72z M577.8,524.74
	c-21.99-3.67-46.81-7.17-75.05-10.59c0.94-0.15,1.88-0.31,2.8-0.49c30.57,3.87,53.65-3.94,72.25-32.54V524.74z M578.99,448.28
	l-0.47,0.46v21.14l-0.72,0.76v8.77c-17.88,28.17-39.65,36.4-68.68,33.53c28.65-6.33,49.14-23.97,69.87-80.46V448.28z M583.05,448.52
	l-0.27-0.1v-9.46l0.25-0.24l-0.02-0.88l1.64-1.48l0.82,0l0.42-0.41l10.7-0.18l0.19,0.19l0.64,0.01c-1.61,4.76-3.24,9.25-4.9,13.51
	l-6.64,0.11l-2.69-0.57L583.05,448.52z M583.3,469.87V460l0.51-0.34v-0.9l1.44-1.48h0.99l0.33-0.4l2.93-0.05
	C587.48,461.5,585.42,465.85,583.3,469.87z M597.99,483.48v13.39l-4.18,1.14l-5.77,0.07l-4.15-1.04v-13.23l0.64-0.79v-1.8l1.64-1.47
	h0.9l0.33-0.41l7.36-0.02l0.26,0.34h0.81l1.52,1.37v1.64L597.99,483.48z M588.48,555.57l-3.72,3.47l-0.44-0.13v-8.23l0.44-0.2
	l3.72,3.64V555.57z M590.6,542.26l0.69-0.01l3.98,4.01v0.48l-9.08,0.01v-0.48L590.6,542.26z M590.24,537.83
	c0.43,0.06,0.86,0.12,1.3,0.18l-0.15,0.17l-0.85-0.05L590.24,537.83z M588.5,540.76l-3.76,3.76h-0.36v-7.48
	c0.73,0.1,1.46,0.19,2.18,0.29l1.93,2.13V540.76z M591.46,552.83l-1.36-0.01l-3.41-3.68l0.2-0.53l8.28,0.03l0.2,0.28L591.46,552.83z
	 M597.53,544.84l-0.19,0.01l-4.14-4.02v-1.09l1.35-1.31c1,0.14,1.98,0.28,2.97,0.43V544.84z M598.05,528.3l-13.96-2.57V513.2
	l0.76-2.81v-1.35l3.01-2.13l6.52-0.02l2.9,1.99l0.77,4.17V528.3z M598.73,469.53l-0.71,0.62v0.42h-1.67v0.37l-1.78,0.39l-7.63,0.05
	l-3.13-0.54c2.28-4.31,4.49-8.97,6.64-14.03l5.1-0.09l0.21,0.27l1.12,0.2l1.13,1.17v0.76l0.7,1.6V469.53z M599.38,447.87l-0.57,0.22
	v0.58l-3.46,0.77l-1.93,0.03c1.58-4.09,3.13-8.41,4.64-12.96l0.85,0.9v0.65l0.46,0.48V447.87z"/>
<g class="st3">
	<path class="stroke4" d="M172.09,189.18c-28.91,19.66-60.95,38.41-95.93,56.29 M64.94,278.62
		c60.67-29.72,114.79-61.15,161.57-94.47"/>
	<path class="stroke5" d="M623.49,515.68c-7.56-25.18-14.17-53.06-20.77-82.67 M583.36,436.31
		c8.44,34.72,17.19,67.4,27.84,95.46"/>
	<path class="stroke6" d="M212.45,194.64v294.91 M198.16,204.72v283.8 M183.21,487.3V214.1 M141.44,483.93V209.55
		 M156.87,485.1V199.85 M125.23,218.97V482.8 M108.26,228.67v253 M90.36,238.37v242.32 M71.61,462.55v-205.1"/>
	<path class="stroke7" d="M239.08,209.08v283.47 M251.64,231.3v262.94 M263.28,253.72v242.69 M274.7,273.2v223.01
		 M285.66,292.6v205.29 M296.21,310.46v188.98 M306.19,326.63v172.81 M315.61,342.38v157.76 M324.75,356.44v143 M333.75,369.94
		v130.21 M342.05,382.45v117.69 M350.34,393.84v107.57 M358.22,404.95v98.29 M365.95,414.37v89.85 M373.4,423.65v80.57
		 M380.44,432.09v72.13 M387.18,439.68v66.09 M394,446.99v57.65 M400.33,453.53v52.66 M406.59,459.3v47.39 M412.71,465.2v40.99
		 M418.54,470.33v36.35 M424.09,474.97v33.61 M429.65,479.54v29.04 M435.06,482.99v25.94 M440.19,487.07v22.22 M445.33,490.3v19.47
		 M450.11,493.46v15.82 M455.03,495.96v14.66 M459.6,498.53v12.65 M463.96,500.64v10.55"/>
	<path class="stroke8" d="M468.53,502.89v8.3 M472.89,504.64v7.73 M477.03,506.19v6.19 M481.04,507.53v5.2 M485.05,508.93
		v3.8 M488.92,510.13v3.09 M492.57,510.83v3.09 M496.23,511.67v2.25 M499.81,512.38v2.32 M506.74,513.27v1.92"/>
	<path class="stroke9" d="M513.08,511.88v4.01 M510.11,512.5v3.16"/>
	<path class="stroke10" d="M515.9,510.95v4.94 M518.78,509.99v6.54 M521.43,509.05v7.65 M524.21,507.86v9.19 M526.88,506.54
		v11.04 M529.43,505.26v12.76 M531.89,503.8v14.36 M534.35,501.97v16.89 M536.83,500.41v18.35 M539.22,498.39v20.83 M541.65,496.33
		v23.15 M543.91,494.17v25.57 M546.14,491.81v28.21 M548.38,489.46v30.93 M550.54,486.86v33.99 M552.74,484.08v37.24 M554.88,481.11
		v40.18 M556.99,478.01v43.71 M559.05,474.92v47.19 M561.05,471.65v50.76"/>
	<path class="stroke11" d="M622.64,517.12V513 M621.46,519.01v-10.03 M620.2,521.09v-16.33 M619,523.03v-22.6
		 M617.76,525.08V495.9 M616.47,526.97v-36.04 M615.24,528.84v-42.28 M613.92,530.82v-49.76 M612.61,531.57v-55.94 M611.25,531.36
		V470.1 M609.89,530.87v-66.34 M608.46,530.7v-72.51 M607.17,530.47v-77.87 M605.79,530.19v-83.59 M604.23,439.81v90.69
		 M584.32,440.44v85.79 M585.81,446.54v80.09 M587.45,456.34v70.39 M589.01,459.15v68.09 M590.42,464.66v62.82 M591.86,527.39v-48.83
		 M598.18,435.03v93.77 M596.61,439.58v89.08 M595.06,443.74v84.95 M593.37,448.17V528 M562.98,467.96v54.8 M564.92,464.55v58.37
		 M566.69,460.81v62.43 M568.64,456.85v66.82 M570.45,452.88v70.99 M572.35,448.72v75.33 M574.13,444.22v80.36 M575.88,439.89v85.19
		 M577.59,435.41v89.48"/>
</g>
</svg>
