<?xml version="1.0" encoding="utf-8"?>
<!-- Generator: Adobe Illustrator 19.1.1, SVG Export Plug-In . SVG Version: 6.00 Build 0)  -->
<svg version="1.1" id="Liberty_Mask" xmlns="http://www.w3.org/2000/svg" xmlns:xlink="http://www.w3.org/1999/xlink" x="0px"
	 y="0px" viewBox="0 0 720 720" style="enable-background:new 0 0 720 720;" xml:space="preserve">
<style type="text/css">
	.st0{fill:#E6E7E8;}
	.st1{fill:#D1D3D4;}
	.st2{fill:#BCBEC0;}
	.st3{fill:#A7A9AC;}
</style>
<path class="st0" d="M146.729,528.448c11.887,0.768,24.227,1.462,36.931,2.083c-3.287-50.64-4.102-105.77-2.445-158.636
	c-3.601,2.373-7.167,4.743-10.694,7.106c-5.531,0.147-10.975,0.301-16.323,0.463c0.035-1.257,0.072-2.513,0.11-3.768
	c-1.18-1.743-2.352-3.48-3.517-5.21c-0.102,3.024-0.196,6.055-0.281,9.091c-1.515,0.047-3.023,0.095-4.522,0.143
	c0.02-0.724,0.041-1.448,0.062-2.171c-1.353-1.005-2.699-2.007-4.037-3.004c-0.224,7.208-0.401,14.451-0.53,21.713
	c-1.488,0.032-2.967,0.065-4.438,0.098c0.075-4.274,0.167-8.542,0.275-12.8c-1.918,0.061-3.821,0.123-5.71,0.186
	c0.106-4.24,0.229-8.471,0.367-12.69c-0.667,0.029-1.333,0.057-1.997,0.086c0.117-3.565,0.245-7.122,0.384-10.669
	c-0.775,0.039-1.548,0.079-2.319,0.119c0.126-3.219,0.261-6.43,0.405-9.632c-0.606,0.035-1.211,0.071-1.815,0.107
	c-0.143,3.198-0.277,6.405-0.402,9.62c-0.438,0.023-0.875,0.046-1.311,0.069c-0.092,2.377-0.178,4.758-0.26,7.143
	c-2.179,0.105-4.336,0.211-6.471,0.319c-0.038,1.154-0.075,2.31-0.111,3.466c-0.64,0.031-1.278,0.062-1.915,0.092
	c-0.063,2.052-0.122,4.106-0.178,6.163c-1.377,0.06-2.744,0.12-4.102,0.182c-0.056,2.113-0.108,4.229-0.156,6.346
	c-0.417,0.016-0.833,0.033-1.249,0.049c-0.033,1.474-0.065,2.949-0.095,4.425c-0.858,0.031-1.713,0.062-2.563,0.093
	c0.201-10.158,0.485-20.279,0.853-30.332c-1.078,0.068-2.149,0.137-3.215,0.206c0.181-5.091,0.384-10.165,0.607-15.218
	c-0.409,0.031-0.816,0.063-1.223,0.094c0.099-2.272,0.203-4.54,0.31-6.803c-1.231,0.101-2.454,0.203-3.669,0.306
	c0.116-2.54,0.238-5.075,0.364-7.603c-1.619,0.145-3.224,0.291-4.815,0.439c0.044-0.934,0.089-1.867,0.134-2.799
	c-0.519,0.049-1.036,0.099-1.552,0.148c0.038-0.792,0.076-1.583,0.114-2.373c-0.145,0.014-0.289,0.028-0.434,0.042
	c0.038-1.762,0.079-3.521,0.121-5.278c-0.234-0.222-0.467-0.445-0.7-0.667c0.07-1.75,0.143-3.497,0.218-5.241
	c-0.186-0.172-0.371-0.344-0.557-0.515c0.035-1.831,0.072-3.658,0.112-5.482c-0.105-0.153-0.21-0.307-0.314-0.46
	c0.284-5.056,0.587-10.087,0.908-15.089c-0.048,0.005-0.096,0.011-0.145,0.016c0.098-1.522,0.197-3.042,0.298-4.559
	c-0.22,0.024-0.439,0.048-0.658,0.073c0.078-1.185,0.157-2.368,0.237-3.55c0.178-0.02,0.356-0.039,0.534-0.059
	c0.013-0.196,0.027-0.391,0.04-0.587c-0.41,0.045-0.819,0.09-1.228,0.136c-0.292-0.684-0.585-1.368-0.877-2.051
	c-0.2,0.022-0.4,0.045-0.6,0.067c0.348-5.215,0.716-10.398,1.103-15.546c-0.099,0.011-0.197,0.021-0.296,0.032
	c0.384-5.126,0.787-10.216,1.209-15.268c0.297-0.03,0.594-0.059,0.891-0.088c0.016-0.186,0.032-0.372,0.048-0.558
	c-0.353,0.035-0.706,0.07-1.058,0.104c0.364-4.349,0.742-8.669,1.135-12.958c-0.128,0.011-0.257,0.022-0.385,0.034
	c0.221-2.432,0.447-4.853,0.677-7.265c-0.187,0.015-0.374,0.03-0.56,0.045c-0.228,2.413-0.451,4.836-0.67,7.269
	c-0.128,0.011-0.256,0.023-0.384,0.034c-0.384,4.294-0.753,8.618-1.109,12.97c-0.352,0.035-0.703,0.07-1.053,0.106
	c-0.015,0.187-0.03,0.373-0.045,0.56c0.295-0.03,0.591-0.06,0.887-0.089c-0.41,5.057-0.802,10.151-1.175,15.279
	c-0.098,0.011-0.196,0.021-0.294,0.032c-0.372,5.151-0.726,10.335-1.06,15.55c-0.199,0.023-0.397,0.045-0.596,0.068
	c-0.383,0.76-0.765,1.52-1.145,2.281c-0.402,0.047-0.804,0.093-1.204,0.14c-0.012,0.195-0.023,0.391-0.035,0.587
	c0.174-0.02,0.349-0.041,0.523-0.061c-0.071,1.181-0.141,2.364-0.21,3.548c-0.215,0.025-0.429,0.05-0.644,0.075
	c-0.087,1.516-0.173,3.034-0.257,4.554c-0.047,0.006-0.094,0.011-0.141,0.017c-0.275,4.995-0.535,10.013-0.778,15.052
	c-0.119,0.178-0.237,0.355-0.356,0.533c-0.148,1.831-0.295,3.664-0.438,5.5c-0.198,0.213-0.396,0.425-0.593,0.638
	c-0.095,1.739-0.188,3.48-0.28,5.224c-0.247,0.272-0.492,0.543-0.738,0.815c-0.117,1.754-0.232,3.51-0.345,5.268
	c-0.138,0.015-0.275,0.03-0.413,0.045c-0.03,0.784-0.06,1.568-0.089,2.353c-0.49,0.053-0.978,0.106-1.465,0.159
	c-0.033,0.922-0.066,1.845-0.098,2.768c-1.492,0.16-2.969,0.321-4.431,0.484c-0.076,2.484-0.149,4.971-0.219,7.461
	c-1.094,0.116-2.179,0.233-3.255,0.351c-0.055,2.206-0.107,4.415-0.158,6.625c-0.354,0.037-0.708,0.074-1.06,0.111
	c-0.107,4.906-0.204,9.821-0.291,14.742c-0.912,0.082-1.817,0.164-2.714,0.247c-0.159,10.301-0.28,20.627-0.362,30.967
	c-0.128,0.007-0.672,0.013-1.378,0.02c0.012-1.603,0.01-3.21,0.023-4.812c-0.566,0.033-1.129,0.067-1.689,0.1
	c0.034-4.514,0.073-9.026,0.119-13.535c-0.188,0.015-0.376,0.03-0.564,0.045c0.024-2.457,0.05-4.914,0.077-7.369
	c-3.899,0.35-7.645,0.71-11.229,1.081c0,0.001,0,0.001,0,0.002c0.425,26.707,6.548,60.12,13.201,80.903
	c8.635,26.978,25.623,64.043,45.409,91.138c-0.161-2.43-0.324-4.857-0.474-7.301c11.138,0.978,22.825,1.876,34.969,2.694
	C147.053,533.257,146.888,530.857,146.729,528.448z"/>
<path class="st0" d="M598.512,551.68c30.11-37.418,51.602-82.059,61.446-130.925v0c0-10.863,0-21.726,0-32.589
	c-1.03-0.073-2.075-0.146-3.134-0.218c-0.017-7.486-0.04-14.97-0.067-22.45c-6.793-1.953-14.15-3.908-22.006-5.857
	c-2.16,1.665-4.352,3.347-6.576,5.047c0.127,5.035,0.239,10.081,0.334,15.135c-0.752-0.043-1.507-0.085-2.267-0.127
	c-2.542,1.648-5.129,3.315-7.761,5.001c0.445,22.579,0.52,45.33,0.225,67.967c-0.715,0.022-1.432,0.044-2.153,0.066
	c0.089-6.615,0.145-13.24,0.169-19.868c-0.995,0.008-1.997,0.016-3.005,0.025c0.018-4.928,0.018-9.857,0-14.785
	c-13.814-0.113-28.835-0.214-44.814-0.304c0.012,2.539,0.018,5.079,0.018,7.619c-1.382,0-2.771,0-4.167,0
	c-0.001-13.536-0.168-27.072-0.5-40.511c-11.961-0.332-24.423-0.631-37.289-0.898c0.081,3.443,0.152,6.894,0.214,10.351
	c-1.128-0.018-2.258-0.035-3.392-0.052c0.066,3.768,0.12,7.542,0.162,11.32c-3.325-0.033-6.677-0.064-10.053-0.094
	c-0.044-4.093-0.101-8.18-0.172-12.26c-0.643-0.009-1.286-0.019-1.93-0.028c-2.854-4.952-5.742-9.909-8.659-14.861
	c-5.082-0.097-10.213-0.188-15.389-0.274c-0.073-3.244-0.154-6.48-0.242-9.706c-1.68-0.033-3.364-0.066-5.053-0.098
	c-0.09-3.373-0.187-6.735-0.293-10.084c-0.446-0.01-0.893-0.02-1.34-0.029c-0.481-15.381-1.13-30.49-1.946-45.133
	c-0.932-0.031-1.866-0.061-2.801-0.091c0.802,14.651,1.44,29.77,1.913,45.163c-0.647-0.014-1.295-0.027-1.944-0.041
	c0.102,3.355,0.196,6.723,0.282,10.102c-2.349-0.042-4.706-0.083-7.07-0.122c0.12,4.925,0.224,9.873,0.312,14.84
	c-2.823-0.035-5.658-0.069-8.502-0.102c0.068,4.068,0.126,8.147,0.174,12.235c-1.253-1.116-2.507-2.233-3.764-3.35
	c-1.275-0.011-2.552-0.022-3.831-0.033c-0.024-1.982-0.051-3.961-0.08-5.938c-3.936-0.039-7.889-0.075-11.858-0.109
	c0.026,1.982,0.049,3.967,0.071,5.954c-3.198-0.023-6.406-0.045-9.623-0.066c0.102,10.426,0.157,20.915,0.165,31.41
	c-4.315-0.002-8.647-0.004-12.992-0.006c0.001,0.993,0.001,1.985,0.001,2.978c-1.152,0-2.304,0-3.458,0
	c0.001-16.383-0.088-32.767-0.268-48.926c-0.679-0.005-1.358-0.009-2.037-0.014c-0.017-1.618-0.036-3.233-0.055-4.846
	c-0.94-0.007-1.88-0.014-2.821-0.02c-0.02-1.769-0.041-3.536-0.063-5.299c-2.193-0.017-4.388-0.032-6.586-0.047
	c-0.011-1.038-0.023-2.075-0.035-3.11c-0.523-0.004-1.046-0.007-1.569-0.011c-0.037-3.314-0.077-6.616-0.121-9.904
	c-0.522-0.004-1.044-0.008-1.566-0.012c0.042,3.288,0.081,6.59,0.117,9.905c-0.733-0.005-1.466-0.009-2.199-0.014
	c0.011,1.036,0.021,2.073,0.031,3.112c-1.415-0.008-2.831-0.016-4.249-0.024c0.016,1.766,0.03,3.535,0.044,5.308
	c-0.841-0.004-1.682-0.008-2.523-0.012c0.006,0.73,0.011,1.46,0.016,2.191c-2.63-0.011-5.263-0.022-7.898-0.03
	c0.005,0.888,0.01,1.777,0.014,2.666c-3.585-0.012-7.174-0.021-10.766-0.027c0.009,2.775,0.017,5.556,0.024,8.343
	c-0.159,0-0.317,0-0.476-0.001c-0.003-1.315-0.007-2.628-0.01-3.94c-0.93-0.002-1.859-0.003-2.789-0.004
	c-3.615-14.111-9.147-27.722-17.475-40.526c-0.523,0-1.047,0.001-1.57,0.002c-7.934,12.534-13.749,26.057-17.119,40.544
	c-1.133,0.003-2.266,0.006-3.398,0.009c-0.006,1.311-0.012,2.624-0.017,3.938c-0.792,0.002-1.584,0.004-2.376,0.006
	c0.006-1.314,0.012-2.626,0.019-3.938c-1.806-1.43-3.609-2.857-5.409-4.281c0.055-8.36,0.124-16.659,0.208-24.865
	c-0.942,0.006-1.883,0.011-2.825,0.017c0.056-5.082,0.118-10.128,0.186-15.132c-0.312,0.002-0.624,0.005-0.936,0.007
	c0.038-2.729,0.078-5.445,0.119-8.147c-8.038,0.067-16.05,0.156-24.022,0.266c-0.067,2.697-0.131,5.407-0.192,8.13
	c-2.837,0.036-5.668,0.076-8.494,0.117c-0.127,4.986-0.242,10.015-0.347,15.077c-0.671,0.008-1.341,0.017-2.012,0.026
	c-0.138,6.513-0.257,13.082-0.357,19.693c-19.622,0.189-38.927,0.456-57.656,0.799c-0.508,20.211-0.72,40.779-0.637,61.289
	c18.794,0.058,38.185,0.103,57.903,0.135c0.031,12.899,0.132,25.772,0.303,38.512c4.893,0.042,9.805,0.08,14.734,0.113
	c0.247,22.875,0.674,45.31,1.281,66.664c29.52,0.43,59.545,0.524,89.286,0.281c-0.117,7.172-0.246,14.221-0.386,21.121
	C464.573,560.345,538.529,557.229,598.512,551.68z"/>
<path class="st1" d="M650.617,456.003c0.068-13.383,0.106-26.775,0.084-40.167c-1.157-0.019-2.329-0.038-3.516-0.057
	c-0.022-10.145-0.077-20.287-0.165-30.415c-0.586-0.037-1.175-0.074-1.767-0.11c-0.058-5.973-0.129-11.941-0.213-17.901
	c-0.21-0.018-0.42-0.036-0.631-0.054c0.087,5.965,0.16,11.938,0.221,17.916c-1.785-0.109-3.602-0.218-5.448-0.324
	c-0.044-3.485-0.095-6.968-0.151-10.448c-0.217-0.015-0.434-0.031-0.651-0.046c0.057,3.483,0.109,6.968,0.154,10.457
	c-1.669-0.096-3.362-0.19-5.079-0.283c-0.092-6.069-0.205-12.129-0.339-18.175c-0.224-0.017-0.45-0.034-0.675-0.051
	c0.136,6.051,0.251,12.116,0.345,18.19c-0.638-0.034-1.28-0.069-1.925-0.103c-1.176,1.018-2.361,2.042-3.557,3.071
	c-0.074-4.626-0.163-9.247-0.264-13.86c-0.231-0.015-0.462-0.029-0.694-0.043c0.108,4.821,0.2,9.652,0.278,14.488
	c-0.649,0.557-1.301,1.117-1.955,1.677c0.135,8.553,0.222,17.125,0.26,25.702c0.028,6.378,0.03,12.759,0.004,19.138
	c-0.029,7.399-0.095,14.795-0.197,22.178c-1.371,0.833-2.756,1.668-4.156,2.507c-0.293,18.515-0.828,36.938-1.605,55.114
	c-1.849,0.167-3.719,0.332-5.607,0.494c-0.093,1.263-0.188,2.525-0.284,3.786c0,0,0,0,0,0c-0.259,0.176-0.519,0.352-0.778,0.528
	c0.122-2.494,0.238-4.993,0.35-7.497c-1.471,0.122-2.953,0.244-4.447,0.363c0.41-2.037,0.816-4.076,1.216-6.116
	c0.231-0.32,0.462-0.641,0.692-0.961c0.173-0.013,0.346-0.026,0.519-0.04c0.094-0.007,0.173-0.106,0.178-0.221
	c0.005-0.115-0.067-0.202-0.16-0.195c-0.222,0.017-0.444,0.034-0.667,0.051c-0.134,0.177-0.269,0.355-0.403,0.532
	c-0.197,0.015-0.394,0.03-0.591,0.045c-0.323-0.197-0.646-0.395-0.97-0.594c-0.081-0.05-0.186-0.004-0.235,0.1
	c-0.049,0.104-0.025,0.228,0.056,0.278c0.344,0.21,0.688,0.42,1.03,0.629c-0.002,0.053-0.005,0.105-0.007,0.158
	c-0.515,0.039-1.032,0.078-1.55,0.117c0.986-22.635,1.55-45.678,1.69-68.779c0.366-0.548,0.854-0.694,1.403-0.44
	c0.001-0.139,0.002-0.279,0.002-0.418c-0.736-0.456-1.636-0.419-2.85,0.467c-0.123,0.001-0.246,0.003-0.369,0.004
	c0.035-5.914,0.042-11.831,0.022-17.746c-0.276-0.002-0.552-0.004-0.828-0.006c-0.004-1.245-0.01-2.489-0.017-3.733
	c-0.33-0.003-0.66-0.007-0.991-0.01c-0.007-1.174-0.014-2.348-0.023-3.522c-0.27-0.004-0.541-0.008-0.813-0.011
	c-0.012-1.593-0.026-3.186-0.042-4.779c-0.229-0.004-0.457-0.008-0.687-0.013c-0.015-1.415-0.03-2.831-0.048-4.245
	c-0.12-0.003-0.24-0.005-0.36-0.008c-0.271-0.309-0.542-0.618-0.814-0.927c-0.014-1.033-0.028-2.065-0.044-3.097
	c-0.151-0.004-0.302-0.008-0.453-0.012c-0.273-0.31-0.546-0.619-0.82-0.929c-0.02-1.295-0.042-2.59-0.065-3.884
	c-0.209-0.006-0.419-0.013-0.629-0.019c-0.161-1.59-0.324-3.179-0.49-4.768c-0.122-0.004-0.244-0.008-0.366-0.013
	c-0.119-0.805-0.238-1.61-0.357-2.414c-0.026-0.001-0.052-0.002-0.078-0.003c-0.116-5.264-0.255-10.516-0.418-15.753
	c-0.273-0.014-0.546-0.027-0.82-0.041c0.164,5.24,0.304,10.496,0.421,15.764c-0.026-0.001-0.052-0.002-0.078-0.003
	c-0.085,0.798-0.17,1.597-0.256,2.396c-0.123-0.004-0.246-0.008-0.369-0.012c-0.101,1.583-0.204,3.168-0.31,4.754
	c-0.212-0.006-0.425-0.013-0.638-0.019c0.024,1.299,0.046,2.599,0.067,3.899c-0.268,0.297-0.537,0.594-0.806,0.892
	c-0.154-0.004-0.309-0.008-0.464-0.011c0.016,1.039,0.031,2.078,0.046,3.117c-0.27,0.299-0.541,0.598-0.812,0.898
	c-0.124-0.003-0.248-0.005-0.372-0.008c0.019,1.427,0.036,2.854,0.052,4.282c-0.237-0.004-0.474-0.008-0.711-0.012
	c0.017,1.609,0.033,3.217,0.046,4.827c-0.282-0.004-0.563-0.007-0.846-0.011c0.01,1.188,0.018,2.376,0.025,3.564
	c-0.346-0.003-0.692-0.006-1.038-0.01c0.008,1.261,0.014,2.523,0.019,3.784c-0.291-0.002-0.582-0.003-0.874-0.005
	c0.023,6.006,0.015,12.015-0.024,18.019c-0.13,0.001-0.26,0.003-0.391,0.004c-1.277-0.874-2.248-0.896-3.05-0.413
	c-0.001,0.143-0.002,0.285-0.003,0.427c0.597-0.271,1.12-0.133,1.506,0.417c-0.162,23.538-0.81,47.002-1.944,69.949
	c-0.551,0.035-1.104,0.07-1.657,0.105c0.003-0.053,0.005-0.107,0.008-0.161c0.391-0.264,0.782-0.528,1.171-0.792
	c0.091-0.062,0.13-0.193,0.086-0.292c-0.043-0.099-0.152-0.13-0.244-0.068c-0.367,0.249-0.736,0.497-1.104,0.746
	c-0.212,0.013-0.424,0.027-0.637,0.04c-0.129-0.162-0.258-0.324-0.388-0.486c-0.241,0.015-0.482,0.03-0.723,0.044
	c-0.101,0.006-0.189,0.105-0.195,0.223c-0.006,0.117,0.072,0.207,0.174,0.201c0.188-0.011,0.376-0.023,0.563-0.035
	c0.22,0.295,0.44,0.589,0.66,0.883c0.236,2.029,0.469,4.053,0.698,6.07c-1.599,0.107-3.209,0.213-4.829,0.317
	c-0.145,2.638-0.296,5.269-0.454,7.891c-0.763,0.052-1.53,0.104-2.297,0.156c-0.058,0.954-0.117,1.908-0.176,2.86
	c-1.218,0.084-2.442,0.166-3.671,0.248c0.084-1.326,0.166-2.654,0.246-3.984c-0.595,0.039-1.191,0.077-1.789,0.115
	c0.126-2.086,0.249-4.177,0.366-6.274c-0.796,0.049-1.594,0.097-2.394,0.145c-0.119,2.099-0.241,4.193-0.369,6.281
	c-0.24,0.015-0.481,0.03-0.721,0.045c0.16-2.622,0.313-5.253,0.459-7.893c-1.924,0.113-3.86,0.224-5.808,0.334
	c0.441-7.897,0.821-15.871,1.141-23.902c-1.216,0.053-2.437,0.105-3.663,0.156c0.135-3.384,0.259-6.778,0.373-10.18
	c-0.654,0.023-1.309,0.047-1.965,0.07c0.074-2.21,0.143-4.423,0.208-6.639c-1.231,0.039-2.466,0.077-3.707,0.115
	c0.035-1.203,0.069-2.408,0.102-3.613c-1.075,0.031-2.154,0.061-3.237,0.091c0.035-1.3,0.068-2.602,0.1-3.904
	c-1.083,0.027-2.169,0.055-3.259,0.081c0.041-1.678,0.079-3.357,0.115-5.038c-4.737,0.103-9.544,0.202-14.414,0.296
	c0.141-6.73,0.242-13.484,0.303-20.248c-4.096,0.035-8.237,0.069-12.42,0.102c0.003-0.333,0.006-0.666,0.009-1
	c-0.969,0.007-1.94,0.014-2.913,0.021c0.019-2.289,0.033-4.579,0.043-6.869c-1.062-0.049-2.126-0.099-3.193-0.149
	c0.007-1.667,0.012-3.334,0.014-5.001c-8.128-5.104-16.429-10.269-24.871-15.474c-8.093,6.719-16.342,13.512-24.711,20.348
	c-0.003,0.907-0.006,1.814-0.01,2.722c-1.125,0.407-2.251,0.815-3.379,1.223c-1.191-51.338-3.963-103.268-8.158-148.961
	c-2.932-1.492-5.867-2.976-8.804-4.45c1.605-0.792,3.205-1.581,4.799-2.366c-0.963-2.16-1.927-4.304-2.891-6.433
	c-3.986-0.786-7.98-1.563-11.982-2.331c-1.159-0.104-2.319-0.207-3.48-0.309c0.085-0.988-2.333-37.553-2.427-36.899
	c-1.815-11.039-3.699-21.334-5.64-30.72c0.065,9.553-0.011,20.027-0.22,31.268c0.866,11.231,1.638,23.23,2.318,35.831
	c-2.042-0.176-4.085-0.349-6.131-0.521c-3.991,1.675-8.008,3.37-12.05,5.084c1.435,2.07,2.874,4.157,4.314,6.258
	c-2.471,0.286-4.947,0.576-7.427,0.869c0.46,61.442-0.765,135.577-3.255,204.399c0.14-11.998,0.238-24.159,0.296-36.388
	c-2.059,0.006-4.119,0.012-6.182,0.017c0.009-2.066,0.016-4.134,0.022-6.203c-1.966,0.004-3.933,0.008-5.901,0.011
	c0.045-16.858,0.033-33.814-0.038-50.617c-1.51-8.356-3.031-16.678-4.557-24.932c-0.487,0.386-0.975,0.773-1.463,1.159
	c-2.212-8.555-4.426-17.042-6.633-25.422c-5.128,5.496-10.295,11.049-15.488,16.647c0.578,1.846,1.158,3.696,1.737,5.549
	c-0.676,1.223-1.551,2.791-2.348,4.22c-0.78-3.268-1.558-6.526-2.335-9.772c-4.217,4.635-8.45,9.299-12.691,13.985
	c0.077,24.871,0.189,50.293,0.33,75.425c-1.339-0.001-2.677-0.002-4.016-0.003c-0.756,1.346-1.511,2.692-2.265,4.036
	c0.016,9.234,0.039,18.423,0.07,27.526c-10.168-0.021-20.319-0.062-30.42-0.125c0.161,15.634,0.388,31.015,0.681,45.931
	c-1.01-0.01-2.019-0.021-3.027-0.033c-4.825,1.238-9.629,2.464-14.41,3.675c0.036,1.284,0.073,2.565,0.111,3.841
	c-3.333-0.052-6.659-0.107-9.977-0.167c0.768,22.55,1.782,43.956,3.044,63.483c22.952,0.48,46.191,0.717,69.427,0.711
	c0.001-1.771,0.003-3.558,0.004-5.36c14.35-0.003,28.698-0.1,42.974-0.289c-0.22,5.532-0.453,10.919-0.698,16.145
	c19.154-0.241,38.195-0.644,56.974-1.208c-0.077,0.763-0.154,1.523-0.232,2.28c20.387-0.604,40.471-1.397,60.066-2.377
	c0.288-2.117,0.569-4.253,0.845-6.409c10.221-0.53,20.283-1.118,30.188-1.755C595.239,564.621,631.411,514.173,650.617,456.003z"/>
<path class="st1" d="M252.621,528.145c-2.748-0.07-5.487-0.144-8.217-0.22c-0.832-17.89-1.437-36.399-1.814-55.19
	c-1.827-0.026-3.65-0.052-5.468-0.079c-0.341-16.362-0.503-32.934-0.486-49.497c-11.453-1.448-22.707-2.879-33.701-4.285
	c-3.105,2.071-6.187,4.133-9.243,6.187c-0.001,5.539,0.022,11.078,0.071,16.61c-1.018-0.008-2.034-0.016-3.048-0.024
	c-3.42,1.925-6.808,3.839-10.163,5.74c0.066,5.252,0.156,10.496,0.269,15.724c-0.26-0.005-0.519-0.01-0.779-0.016
	c-0.02-0.942-0.04-1.884-0.059-2.826c-1.875-2.956-3.734-5.908-5.578-8.856c-6.554-0.095-12.988-0.196-19.289-0.302
	c-1.73,2.625-3.443,5.238-5.139,7.838c0.023,1.158,0.048,2.315,0.074,3.472c-0.936-0.024-1.869-0.047-2.799-0.071
	c0.005,0.231,0.01,0.462,0.016,0.693c-2.911-0.076-5.791-0.155-8.639-0.235c-2.237,0.695-4.455,1.385-6.651,2.07
	c-0.184-7.827-0.314-15.683-0.387-23.551c-4.732-0.061-9.368-0.124-13.899-0.189c-0.012-1.36-0.023-2.72-0.031-4.08
	c-0.891-0.009-1.778-0.019-2.662-0.029c0.009,1.357,0.019,2.714,0.031,4.07c-0.773-0.011-1.543-0.023-2.309-0.034
	c-4.657,1.734-9.195,3.441-13.609,5.118c0.173,16.717,0.556,33.385,1.149,49.878c-2.602,0.701-5.166,1.393-7.692,2.073
	c-0.414-12.286-0.722-24.66-0.923-37.076c-1.309-0.055-2.606-0.11-3.89-0.166c-0.227-14.928-0.31-29.913-0.249-44.883
	c-8.026-1.221-15.563-2.395-22.558-3.517c-1.87,1.77-3.694,3.523-5.48,5.261c13.428,70.286,50.891,132.031,103.519,176.364
	c8.75,0.588,17.645,1.135,26.669,1.638c0.006,0.053,0.013,0.107,0.02,0.16c19.346,1.077,39.272,1.957,59.567,2.64
	c-0.005-0.053-0.01-0.106-0.015-0.159c2.638,0.089,5.282,0.174,7.931,0.257C255.228,577.013,253.715,553.195,252.621,528.145z"/>
<path class="st2" d="M360,666c79.136,0,151.254-30.042,205.576-79.341c-124.551,9.37-284.856,9.528-410.616,0.476
	C209.221,636.148,281.122,666,360,666z"/>
<path class="st3" d="M362.444,487.995c-0.826,2.595-1.651,5.182-2.474,7.76c-0.89-0.668-1.78-1.337-2.671-2.006
	c-3.731,5.834-7.444,11.622-11.131,17.35c-1.346-1.01-2.694-2.023-4.042-3.037c0.216-1.077,0.432-2.157,0.649-3.238
	c-4.742-3.082-9.494-6.183-14.25-9.299c-1.311-2.596-2.623-5.2-3.936-7.812c-1.532-15.264-6.97-31.41-13.01-35.544
	c-1.606-5.56-6.333-8.147-12.714-9.126c-1.038-1.392-2.076-2.785-3.112-4.177c1.027-1.201,1.279-2.453,0.801-3.751
	c-2.096-0.598-3.91-1.202-4.074-1.85c-2.421-7.492-4.818-14.984-7.185-22.451c1.357-1.733,2.716-3.466,4.078-5.198
	c-2.153-7.863-3.761-15.635-4.758-23.292c1.079-0.671,2.159-1.342,3.239-2.013c-1.426-2.536-2.563-4.852-3.143-7.418
	c1.482-3.305,2.153-6.095,2.339-9.421c13.762-1.197,27.661-2.357,41.608-3.472c-13.993-1.142-27.912-2.233-41.671-3.266
	c-0.343-1.91-0.683-3.816-1.021-5.716c12.154-4.734,24.386-9.424,36.614-14.044c-13.282,2.688-26.536,5.435-39.679,8.228
	c-1.098-1.78-3.429-3.651-5.958-5.527c7.444-8.042,14.912-15.993,22.358-23.805c-9.91,6.784-19.835,13.686-29.707,20.663
	c-3.22-1.562-6.827-2.322-10.677-2.562c-1.591-9.836-3.1-19.493-4.519-28.921c-1.079,9.524-2.103,19.267-3.067,29.172
	c-4.304,0.014-8.427,1.131-12.393,3.234c-9.72-6.232-19.22-12.316-28.477-18.239c7.111,7.131,14.411,14.436,21.89,21.896
	c-2.783,1.746-4.958,3.77-6.414,6.127c-9.218,0.427-18.302,0.879-27.221,1.357c1.402-10.45-0.447-21.576-2.799-34.551
	c-2.552-9.271-3.697-18.878-3.565-28.704c0.484-4.77,0.992-9.479,1.523-14.121c0.248-5.188,0.527-10.29,0.838-15.299
	c-1.149-2.92-2.279-5.807-3.393-8.662c-0.794-0.531-1.587-1.062-2.377-1.591c0.49-2.05,0.984-4.082,1.484-6.096
	c0.661-0.618,1.323-1.233,1.985-1.847c0.188-1.148,0.378-2.29,0.57-3.426c0.093-0.302,0.185-0.604,0.278-0.905
	c-0.312-0.154-0.623-0.309-0.935-0.463c0.471-0.594,0.943-1.187,1.415-1.777c6.622-0.331,12.299-1.027,12.179-3.86
	c0.751-0.58,1.503-1.157,2.255-1.731c-0.631-1.443-1.257-2.875-1.877-4.297c-0.109-0.36-0.218-0.719-0.327-1.077
	c-0.475-2.17,1.162-3.941,4.09-5.46c-0.734,0.083-1.467,0.167-2.201,0.252c0.506-0.569,1.012-1.135,1.519-1.699
	c-1.246,0.412-2.492,0.826-3.737,1.243c0.021-0.257,0.042-0.513,0.064-0.769c-0.495,0.233-0.991,0.466-1.486,0.7
	c0.225-0.737,0.452-1.47,0.679-2.199c-1.279,0.471-2.557,0.945-3.835,1.423c-0.015-0.452-0.029-0.903-0.042-1.352
	c-1.028,0.543-2.056,1.09-3.082,1.64c-0.027-0.512-0.054-1.023-0.08-1.532c-0.869,0.069-1.738,0.139-2.606,0.209
	c-0.04-0.431-0.08-0.862-0.119-1.291c-0.268,0.166-0.536,0.332-0.804,0.498c0.563-1.511,1.129-3.006,1.698-4.485
	c-0.113-0.151-0.227-0.301-0.34-0.451c0.056-0.29,0.112-0.579,0.169-0.868c3.951-1.23,6.357-5.578,8.048-11.142
	c-0.057-0.175-0.113-0.349-0.169-0.523c-0.185-0.358-0.124-0.792,0.169-1.174c1.012-1.32,1.879-2.44,1.431-3.232
	c0.073-0.364,0.145-0.726,0.218-1.087c0.934-1.062,1.126-2.102,1.324-3.154c0.098-0.523-1.13-0.863-1.754-0.446
	c-1.035,1.254-2.75,2.038-3.219,3.191c-0.407-0.831-0.812-1.657-1.214-2.48c-0.333-0.461-2.122-0.448-2.396,0.147
	c-0.071,0.517-0.05,0.982-0.5,1.188c-4.209-0.593-7.157,0.966-7.984,3.632c-0.346,0.067-0.692,0.133-1.039,0.2
	c0,0-1.17-0.427-1.469-0.932c-0.488-0.823-0.765-1.906-2.886-1.003c-1.635,0.699-0.454,1.894,0.17,2.73
	c0.308,0.413-0.386,1.321-0.386,1.322c-7.655,5.179-9.03,9.129-4.614,13.23c-0.151,0.443-0.302,0.887-0.452,1.332
	c-0.071,1.47-0.138,2.953-0.202,4.447c-0.472,0.137-0.945,0.275-1.417,0.413c-0.198,0.566-0.395,1.134-0.592,1.704
	c-0.492-0.141-0.983-0.281-1.474-0.422c-0.342-0.448-0.683-0.895-1.023-1.341c-0.357,0.414-0.715,0.829-1.071,1.246
	c-1.317-0.368-2.632-0.736-3.945-1.105c-0.317,0.716-0.634,1.435-0.95,2.157c-0.46,0.222-0.92,0.445-1.38,0.668
	c-0.784-0.453-1.567-0.906-2.349-1.358c0.149,0.602,0.299,1.204,0.449,1.809c-0.36,0.057-0.719,0.114-1.079,0.171
	c-0.772-0.251-1.542-0.501-2.313-0.752c0,0-0.094,0.493,0.08,0.639c2.05,1.723,3.876,3.291,1.47,5.393
	c-1.065,1.919-2.123,3.858-3.175,5.816c0.34,0.34,0.681,0.68,1.022,1.02c0.261,0.704,0.522,1.41,0.784,2.118
	c0.678,0.906,3.336,1.229,6.195,1.499c-0.896,0.557-1.46,1.176-1.546,1.881c0.589,1.662,0.946,3.256,0.911,4.728
	c0.389,1.938,2.025,3.8,4.047,5.646c-0.777,0.272-1.553,0.545-2.328,0.818c-2.564,1.652-3.567,3.568-1.948,5.508
	c0.555,0.182,1.11,0.364,1.667,0.547c-2.085,0.9-2.625,4.036-0.719,5.102c0.39,0.63,0.781,1.262,1.174,1.895
	c-2.506,1.398-3.005,3.434-1.842,6.014c0.624,3.326,1.478,6.408,3.153,8.421c-0.052,1.805-0.1,3.618-0.145,5.441
	c-0.555,0.579-1.109,1.16-1.663,1.741c0.063,0.541,0.127,1.083,0.191,1.626c-0.358,0.523-0.716,1.046-1.074,1.57
	c0.083,0.352,0.167,0.704,0.251,1.057c0.219,0.416,0.439,0.832,0.658,1.248c-0.236,0.494-0.472,0.988-0.707,1.484
	c0.555-0.132,1.11-0.264,1.667-0.395c0.178,1.116,0.358,2.235,0.54,3.358c0.059,0.913,0.118,1.828,0.178,2.746
	c0.243,0.47,0.486,0.94,0.729,1.411c-3.027,23.798-4.477,47.864,2.554,62.52c0.21,4.229,0.438,8.48,0.682,12.749
	c-7.986,12.694-13.632,25.082-15.7,37.009c-0.719,11.4,0.97,20.575,5.67,26.983c2.26,0.973,4.453-0.863,6.242,1.514
	c0.191,0.254,1.171,1.094,1.17,1.413c-0.047,5.655,2.368,17.864,7.534,20.99c-0.007,0.006-1.894,8.734-2.39,11.648
	c-0.553,3.202,1.229,2.959,2.211,4.564c0.856,1.398,0.549,3.468,0.404,4.991c-0.369,3.845-3.714,5.498-3.648,9.007
	c-0.052,1.914,0.992,3.647,2.976,5.23c2.124,1.32,2.476,2.972,2.843,4.903c0.449,2.383,4.13,6.815,6.094,6.741
	c-1.144,5.31,0.64,8.704,3.527,12.654c0.244,0.334,0.144,1.983,0.184,2.679c-7.377,15.614-16.497,33.494-13.338,49.574
	c2.691,6.697,7.056,10.946,15.903,9.156c-0.41,3.622-0.503,7.446,0.23,11.394c0.174,0.937,0.065,1.853-0.254,2.673
	c-3.177,8.16-5.014,15.86-5.019,21.744c44.908,30.257,98.278,48.911,155.815,51.68c-0.221-1.338-0.444-2.704-0.667-4.104
	c1.615-3.443-2.87-22.883-6.553-43.378c2.452-1.18,4.658-2.876,6.624-5.125c3.491,0.459,6.757-0.273,9.835-2.226
	c6.109-6.108,10.01-21.308,11.731-39.121c2.55-0.322,5.101-0.648,7.652-0.976c2.451-1.226,4.805-2.92,7.079-5.032
	c6.274-8.192,11.782-16.163,15.888-23.474c-1.783-2.617-3.578-5.253-5.382-7.907c2.862-4.49,5.734-9.026,8.611-13.599
	c-0.868-0.496-1.738-0.992-2.608-1.489c1.842-1.929,3.686-3.865,5.53-5.807C389.529,505.109,376.038,496.618,362.444,487.995z
	 M200.109,357.249c-1.293-2.073-1.745-4.297-1.532-6.654c7.992,0.712,16.124,1.454,24.375,2.226
	c-0.636,1.924-0.997,3.736-0.917,5.367c-5.704,1.015-11.355,2.035-16.946,3.059C203.545,358.691,202.063,357.331,200.109,357.249z
	 M224.379,383.827c-0.104,0.287-0.207,0.574-0.311,0.862c-1.77,1.008-5.039,5.718-8.06,10.134c-1.462-1.372-2.918-2.74-4.368-4.104
	c-0.355-0.687-0.709-1.374-1.062-2.06c0.008-1.078,0.016-2.155,0.026-3.232c1.254-2.158,0.904-10.156-0.862-11.484
	c-0.782-1.652-1.56-3.3-2.334-4.943c-0.119-1.342-0.237-2.683-0.353-4.021c5.066-0.257,10.182-0.508,15.343-0.752
	c0.484,2.792,1.335,5.373,2.641,7.692C223.935,378.552,220.191,381.955,224.379,383.827z M233.446,415.613
	c-1.1-0.187-1.914-0.527-1.937-1.294c0.547-4.134,1.141-8.174,2.395-10.286c0.545-0.014,1.11,0.205,1.701,0.731
	C235.058,409.893,234.428,414.181,233.446,415.613z M279.903,431.701c-2.249-1.602-4.283-1.415-6.17-0.008
	c-1.875-3.385-1.301-9.38-0.259-15.396c0.643,2.907,0.935,6.774,3.009,5.867c0.754,0.48,1.508,0.961,2.263,1.441
	c0.623,2.224,1.249,4.448,1.878,6.673C280.383,430.753,280.143,431.227,279.903,431.701z"/>
</svg>
