<?xml version="1.0" encoding="utf-8"?>
<svg version="1.1" id="Background" xmlns="http://www.w3.org/2000/svg" xmlns:xlink="http://www.w3.org/1999/xlink" x="0px" y="0px"
	 viewBox="0 0 620 620" style="enable-background:new 0 0 620 620;" xml:space="preserve">
<style type="text/css">
	.st0{fill:#C19F5C;}
	.st1{fill:#C7A96C;}
	.st2{fill:url(#Background_Cutouts_1_);}
	.st3{opacity:0.08;}
	.st4{fill:#DAC59D;}
	.st5{opacity:0.13;}
	.st6{fill:#FFFFFF;}
	.st7{opacity:0.25;}
	.st8{fill:#B89245;}
	.st9{fill:#D6C093;}
	.st10{fill:#CCB079;}
	.st11{opacity:0.06;}
	.st12{opacity:0.03;}
	.st13{opacity:0.08;fill:#FFFFFF;}
	.st14{fill:none;stroke:#282828;stroke-width:2;stroke-miterlimit:10;}
	.st15{fill:#282828;}
	.st16{fill:#D5B081;}
	.st17{fill:#CC9F66;}
	.st18{fill:#C79556;stroke:#DAB88F;stroke-width:2;stroke-miterlimit:10;}
	.st19{fill:#DAB88F;}
	.st20{fill:#AB7838;}
	.st21{fill:#D6AB5B;}
	.st22{opacity:0.5;fill:#FFFFFF;}
</style>
<ellipse id="Background_1_" transform="matrix(3.490652e-003 -1 1 3.490652e-003 -1.0802 618.916)" class="st0" cx="310" cy="310" rx="289.77" ry="289.77"/>
<rect id="Days_Backing" x="208.67" y="73.26" class="st1" width="207.39" height="63.45"/>
<linearGradient id="Background_Cutouts_1_" gradientUnits="userSpaceOnUse" x1="203.6981" y1="125.9331" x2="416.4885" y2="494.2242">
	<stop  offset="0" style="stop-color:#D6C093"/>
	<stop  offset="1" style="stop-color:#C7A96C"/>
</linearGradient>
<path id="Background_Cutouts" class="st2" d="M310.92,46.3C165.33,45.79,46.89,163.41,46.38,309
	c-0.51,145.59,117.11,264.03,262.7,264.54c145.59,0.51,264.03-117.11,264.54-262.7S456.51,46.81,310.92,46.3z M393.19,123.15
	c-24.16-10.77-50.81-17-78.91-17.59c-31.14-0.65-60.8,5.69-87.47,17.59l-10.18-22.86c29.94-13.35,63.23-20.47,98.17-19.74
	c31.54,0.66,61.46,7.65,88.57,19.74L393.19,123.15z M445.42,331.94v-43.88h70.39v43.88H445.42z"/>
<g id="Day_Outer" class="st3">
	<path d="M309.91,83.5c1.6,0,3.23,0.02,4.83,0.05c29.43,0.62,57.89,6.76,84.66,18.28l-7.74,17.38
		c-24.46-10.48-50.45-16.08-77.32-16.64c-1.47-0.03-2.96-0.05-4.43-0.05c-28.33,0-55.76,5.61-81.58,16.69l-7.74-17.38
		C248.86,89.66,278.89,83.5,309.91,83.5L309.91,83.5 M309.9,80.5c-33.16,0-64.74,7.06-93.27,19.79l10.18,22.86
		c25.43-11.34,53.56-17.64,83.11-17.64c1.45,0,2.91,0.02,4.37,0.05c28.1,0.59,54.76,6.82,78.91,17.59l10.18-22.86
		c-27.11-12.08-57.03-19.08-88.57-19.74C313.17,80.52,311.53,80.5,309.9,80.5L309.9,80.5z"/>
</g>
<g id="Day_Inner" class="st3">
	<path d="M309.9,82L309.9,82c1.61,0,3.25,0.02,4.87,0.05c30.13,0.63,59.26,7.02,86.61,19l-8.96,20.12
		c-24.67-10.78-50.95-16.54-78.12-17.11c-1.46-0.03-2.94-0.05-4.4-0.05c-28.62,0-56.31,5.77-82.35,17.16l-8.96-20.12
		C247.46,88.41,278.17,82,309.9,82 M309.9,80.5c-33.16,0-64.74,7.06-93.27,19.79l10.18,22.86c25.43-11.34,53.56-17.64,83.11-17.64
		c1.45,0,2.91,0.02,4.37,0.05c28.1,0.59,54.76,6.82,78.91,17.59l10.18-22.86c-27.11-12.08-57.03-19.08-88.57-19.74
		C313.17,80.52,311.53,80.5,309.9,80.5L309.9,80.5z"/>
</g>
<g id="Day_Slope">
	<path class="st4" d="M309.9,80.5c1.63,0,3.26,0.02,4.9,0.05c31.54,0.66,61.46,7.65,88.57,19.74l-10.18,22.86
		c-24.16-10.77-50.81-17-78.91-17.59c-1.46-0.03-2.91-0.05-4.37-0.05c-29.55,0-57.68,6.29-83.11,17.64l-10.18-22.86
		C245.17,87.56,276.75,80.5,309.9,80.5 M309.9,71.5L309.9,71.5c-33.72,0-66.34,6.92-96.94,20.57l-8.21,3.66l3.66,8.22l10.18,22.86
		l3.66,8.23l8.23-3.67c25.08-11.18,51.8-16.86,79.44-16.85c1.39,0,2.79,0.01,4.18,0.04c26.27,0.55,51.65,6.21,75.44,16.81l8.22,3.67
		l3.66-8.23l10.18-22.86l3.66-8.22l-8.22-3.66c-29.03-12.94-60-19.84-92.04-20.52C313.3,71.52,311.59,71.5,309.9,71.5L309.9,71.5z"
		/>
</g>
<g id="Date_Slope" class="st5">
	<path class="st6" d="M530.44,265.25c-3.33-4.4-8.51-7.01-14.02-7.01H445.9c-5,0-9.77,2.14-13.1,5.88
		c-24.71,27.81-26.86,57.95-0.06,91.08c3.34,4.14,8.36,6.57,13.68,6.57h70.21c5.35,0,10.42-2.44,13.74-6.64
		C554.09,325.05,553.04,295.1,530.44,265.25z M515.81,331.94h-70.39v-43.88h70.39V331.94z"/>
</g>
<g id="Date_Slope_Shadow" class="st7">
	<path class="st8" d="M516.42,260.23c4.83,0,9.48,2.33,12.43,6.22c11.12,14.68,16.82,29.37,16.93,43.67
		c0.12,14.61-5.59,29.33-16.97,43.76c-2.95,3.74-7.38,5.88-12.17,5.88h-70.21c-4.71,0-9.13-2.12-12.12-5.83
		c-12.77-15.8-19.11-31.36-18.84-46.25c0.26-14.26,6.6-28.48,18.84-42.25c2.94-3.31,7.17-5.21,11.6-5.21H516.42 M516.42,258.23
		H445.9c-5,0-9.77,2.14-13.1,5.88c-24.71,27.81-26.86,57.95-0.06,91.08c3.34,4.14,8.36,6.57,13.68,6.57h70.21
		c5.35,0,10.42-2.44,13.74-6.64c23.71-30.07,22.67-60.02,0.06-89.88C527.11,260.85,521.93,258.23,516.42,258.23L516.42,258.23z"/>
</g>
<path id="Date_Transition" class="st9" d="M515.81,278.59h-73.82c-3.33,0-6.04,2.7-6.04,6.04v50.74c0,3.33,2.7,6.04,6.04,6.04h77.26
	c3.33,0,6.04-2.7,6.04-6.04v-47.31C525.28,282.83,521.04,278.59,515.81,278.59z M515.81,331.94h-70.39v-43.88h70.39V331.94z"/>
<g id="Date_Trans_Shadow">
	<g>
		<path class="st10" d="M515.81,280.59c4.12,0,7.47,3.35,7.47,7.47v47.31c0,2.23-1.81,4.04-4.04,4.04h-77.26
			c-2.23,0-4.04-1.81-4.04-4.04v-50.74c0-2.23,1.81-4.04,4.04-4.04H515.81 M515.81,278.59h-73.82c-3.33,0-6.04,2.7-6.04,6.04v50.74
			c0,3.33,2.7,6.04,6.04,6.04h77.26c3.33,0,6.04-2.7,6.04-6.04v-47.31C525.28,282.83,521.04,278.59,515.81,278.59L515.81,278.59z"/>
	</g>
</g>
<g id="DateOuter" class="st11">
	<path d="M509.81,294.06v31.88h-58.39v-31.88H509.81 M515.81,288.06h-70.39v43.88h70.39V288.06L515.81,288.06z"/>
</g>
<g id="DateInner" class="st11">
	<path d="M512.81,291.06v37.88h-64.39v-37.88H512.81 M515.81,288.06h-70.39v43.88h70.39V288.06L515.81,288.06z"/>
</g>
<g id="Hour_Markers_Outside" class="st12">
	<path d="M418.93,111.87l8.2,4.73l-32.79,56.79l-8.2-4.73L418.93,111.87 M201.07,111.87l32.79,56.79l-8.2,4.73l-32.79-56.79
		L201.07,111.87 M503.4,192.87l4.73,8.2l-56.79,32.79l-4.73-8.2L503.4,192.87 M116.6,192.87l56.79,32.79l-4.73,8.2l-56.79-32.79
		L116.6,192.87 M149.53,305.27v9.47H83.95v-9.47H149.53 M451.34,386.14l56.79,32.79l-4.73,8.2l-56.79-32.79L451.34,386.14
		 M168.66,386.14l4.73,8.2l-56.79,32.79l-4.73-8.2L168.66,386.14 M394.34,446.61l32.79,56.79l-8.2,4.73l-32.79-56.79L394.34,446.61
		 M225.66,446.61l8.2,4.73l-32.79,56.79l-8.2-4.73L225.66,446.61 M314.73,470.47v65.58h-9.47v-65.58H314.73 M417.83,107.77l-1.5,2.6
		l-32.79,56.79l-1.5,2.6l2.6,1.5l8.2,4.73l2.6,1.5l1.5-2.6l32.79-56.79l1.5-2.6l-2.6-1.5l-8.2-4.73L417.83,107.77L417.83,107.77z
		 M202.17,107.77l-2.6,1.5l-8.2,4.73l-2.6,1.5l1.5,2.6l32.79,56.79l1.5,2.6l2.6-1.5l8.2-4.73l2.6-1.5l-1.5-2.6l-32.79-56.79
		L202.17,107.77L202.17,107.77z M504.5,188.78l-2.6,1.5l-56.79,32.79l-2.6,1.5l1.5,2.6l4.73,8.2l1.5,2.6l2.6-1.5l56.79-32.79
		l2.6-1.5l-1.5-2.6l-4.73-8.2L504.5,188.78L504.5,188.78z M115.5,188.78l-1.5,2.6l-4.73,8.2l-1.5,2.6l2.6,1.5l56.79,32.79l2.6,1.5
		l1.5-2.6l4.73-8.2l1.5-2.6l-2.6-1.5l-56.79-32.79L115.5,188.78L115.5,188.78z M152.53,302.27h-3H83.95h-3v3v9.47v3h3h65.58h3v-3
		v-9.47V302.27L152.53,302.27z M450.24,382.04l-1.5,2.6l-4.73,8.2l-1.5,2.6l2.6,1.5l56.79,32.79l2.6,1.5l1.5-2.6l4.73-8.2l1.5-2.6
		l-2.6-1.5l-56.79-32.79L450.24,382.04L450.24,382.04z M169.76,382.04l-2.6,1.5l-56.79,32.79l-2.6,1.5l1.5,2.6l4.73,8.2l1.5,2.6
		l2.6-1.5l56.79-32.79l2.6-1.5l-1.5-2.6l-4.73-8.2L169.76,382.04L169.76,382.04z M395.43,442.51l-2.6,1.5l-8.2,4.73l-2.6,1.5
		l1.5,2.6l32.79,56.79l1.5,2.6l2.6-1.5l8.2-4.73l2.6-1.5l-1.5-2.6l-32.79-56.79L395.43,442.51L395.43,442.51z M224.57,442.51
		l-1.5,2.6l-32.79,56.79l-1.5,2.6l2.6,1.5l8.2,4.73l2.6,1.5l1.5-2.6l32.79-56.79l1.5-2.6l-2.6-1.5l-8.2-4.73L224.57,442.51
		L224.57,442.51z M317.73,467.47h-3h-9.47h-3v3v65.58v3h3h9.47h3v-3v-65.58V467.47L317.73,467.47z"/>
</g>
<g id="Hour_Markers_Inside" class="st12">
	<path d="M418.93,111.87l8.2,4.73l-32.79,56.79l-8.2-4.73L418.93,111.87 M201.07,111.87l32.79,56.79l-8.2,4.73l-32.79-56.79
		L201.07,111.87 M503.4,192.87l4.73,8.2l-56.79,32.79l-4.73-8.2L503.4,192.87 M116.6,192.87l56.79,32.79l-4.73,8.2l-56.79-32.79
		L116.6,192.87 M149.53,305.27v9.47H83.95v-9.47H149.53 M451.34,386.14l56.79,32.79l-4.73,8.2l-56.79-32.79L451.34,386.14
		 M168.66,386.14l4.73,8.2l-56.79,32.79l-4.73-8.2L168.66,386.14 M394.34,446.61l32.79,56.79l-8.2,4.73l-32.79-56.79L394.34,446.61
		 M225.66,446.61l8.2,4.73l-32.79,56.79l-8.2-4.73L225.66,446.61 M314.73,470.47v65.58h-9.47v-65.58H314.73 M418.38,109.82
		l-0.75,1.3l-32.79,56.79l-0.75,1.3l1.3,0.75l8.2,4.73l1.3,0.75l0.75-1.3l32.79-56.79l0.75-1.3l-1.3-0.75l-8.2-4.73L418.38,109.82
		L418.38,109.82z M201.62,109.82l-1.3,0.75l-8.2,4.73l-1.3,0.75l0.75,1.3l32.79,56.79l0.75,1.3l1.3-0.75l8.2-4.73l1.3-0.75
		l-0.75-1.3l-32.79-56.79L201.62,109.82L201.62,109.82z M503.95,190.82l-1.3,0.75l-56.79,32.79l-1.3,0.75l0.75,1.3l4.73,8.2
		l0.75,1.3l1.3-0.75l56.79-32.79l1.3-0.75l-0.75-1.3l-4.73-8.2L503.95,190.82L503.95,190.82z M116.05,190.82l-0.75,1.3l-4.73,8.2
		l-0.75,1.3l1.3,0.75l56.79,32.79l1.3,0.75l0.75-1.3l4.73-8.2l0.75-1.3l-1.3-0.75l-56.79-32.79L116.05,190.82L116.05,190.82z
		 M151.03,303.77h-1.5H83.95h-1.5v1.5v9.47v1.5h1.5h65.58h1.5v-1.5v-9.47V303.77L151.03,303.77z M450.79,384.09l-0.75,1.3l-4.73,8.2
		l-0.75,1.3l1.3,0.75l56.79,32.79l1.3,0.75l0.75-1.3l4.73-8.2l0.75-1.3l-1.3-0.75l-56.79-32.79L450.79,384.09L450.79,384.09z
		 M169.21,384.09l-1.3,0.75l-56.79,32.79l-1.3,0.75l0.75,1.3l4.73,8.2l0.75,1.3l1.3-0.75l56.79-32.79l1.3-0.75l-0.75-1.3l-4.73-8.2
		L169.21,384.09L169.21,384.09z M394.89,444.56l-1.3,0.75l-8.2,4.73l-1.3,0.75l0.75,1.3l32.79,56.79l0.75,1.3l1.3-0.75l8.2-4.73
		l1.3-0.75l-0.75-1.3l-32.79-56.79L394.89,444.56L394.89,444.56z M225.11,444.56l-0.75,1.3l-32.79,56.79l-0.75,1.3l1.3,0.75
		l8.2,4.73l1.3,0.75l0.75-1.3l32.79-56.79l0.75-1.3l-1.3-0.75l-8.2-4.73L225.11,444.56L225.11,444.56z M316.23,468.97h-1.5h-9.47
		h-1.5v1.5v65.58v1.5h1.5h9.47h1.5v-1.5v-65.58V468.97L316.23,468.97z"/>
</g>
<path id="Hour_Markers" class="st13" d="M201.07,111.87l32.79,56.79l-8.2,4.73l-32.79-56.79L201.07,111.87z M111.87,201.07
	l56.79,32.79l4.73-8.2l-56.79-32.79L111.87,201.07z M149.53,305.27H83.95v9.47h65.58V305.27z M168.66,386.14l-56.79,32.79l4.73,8.2
	l56.79-32.79L168.66,386.14z M225.66,446.61l-32.79,56.79l8.2,4.73l32.79-56.79L225.66,446.61z M305.27,470.47v65.58h9.47v-65.58
	H305.27z M386.14,451.34l32.79,56.79l8.2-4.73l-32.79-56.79L386.14,451.34z M446.61,394.34l56.79,32.79l4.73-8.2l-56.79-32.79
	L446.61,394.34z M451.34,233.86l56.79-32.79l-4.73-8.2l-56.79,32.79L451.34,233.86z M386.14,168.66l8.2,4.73l32.79-56.79l-8.2-4.73
	L386.14,168.66z"/>
<g id="Hour_Dots_Stroke" class="st3">
	<path d="M426.67,103.22c0.8,0,1.61,0.2,2.35,0.63c2.25,1.3,3.02,4.17,1.72,6.42c-0.87,1.51-2.45,2.35-4.07,2.35
		c-0.8,0-1.61-0.2-2.35-0.63c-2.25-1.3-3.02-4.17-1.72-6.42C423.47,104.06,425.05,103.22,426.67,103.22 M193.32,103.22
		c1.62,0,3.2,0.84,4.07,2.35c1.3,2.25,0.53,5.12-1.72,6.42c-0.74,0.43-1.55,0.63-2.35,0.63c-1.62,0-3.2-0.84-4.07-2.35
		c-1.3-2.25-0.53-5.12,1.72-6.42C191.72,103.42,192.53,103.22,193.32,103.22 M512.08,188.63c1.62,0,3.2,0.84,4.07,2.35
		c1.3,2.25,0.53,5.12-1.72,6.42c-0.74,0.43-1.55,0.63-2.35,0.63c-1.62,0-3.2-0.84-4.07-2.35c-1.3-2.25-0.53-5.12,1.72-6.42
		C510.47,188.83,511.28,188.63,512.08,188.63 M107.92,188.63c0.8,0,1.61,0.2,2.35,0.63c2.25,1.3,3.02,4.17,1.72,6.42
		c-0.87,1.51-2.45,2.35-4.07,2.35c-0.8,0-1.61-0.2-2.35-0.63c-2.25-1.3-3.02-4.17-1.72-6.42
		C104.72,189.47,106.3,188.63,107.92,188.63 M76.66,305.3c2.6,0,4.7,2.1,4.7,4.7c0,2.6-2.1,4.7-4.7,4.7c-2.6,0-4.7-2.1-4.7-4.7
		C71.96,307.4,74.06,305.3,76.66,305.3 M512.08,421.97c0.8,0,1.61,0.2,2.35,0.63c2.25,1.3,3.02,4.17,1.72,6.42
		c-0.87,1.51-2.45,2.35-4.07,2.35c-0.8,0-1.61-0.2-2.35-0.63c-2.25-1.3-3.02-4.17-1.72-6.42
		C508.88,422.81,510.46,421.97,512.08,421.97 M107.92,421.97c1.62,0,3.2,0.84,4.07,2.35c1.3,2.25,0.53,5.12-1.72,6.42
		c-0.74,0.43-1.55,0.63-2.35,0.63c-1.62,0-3.2-0.84-4.07-2.35c-1.3-2.25-0.53-5.12,1.72-6.42
		C106.31,422.17,107.12,421.97,107.92,421.97 M426.67,507.38c1.62,0,3.2,0.84,4.07,2.35c1.3,2.25,0.53,5.12-1.72,6.42
		c-0.74,0.43-1.55,0.63-2.35,0.63c-1.62,0-3.2-0.84-4.07-2.35c-1.3-2.25-0.53-5.12,1.72-6.42
		C425.06,507.58,425.87,507.38,426.67,507.38 M193.33,507.38c0.8,0,1.61,0.2,2.35,0.63c2.25,1.3,3.02,4.17,1.72,6.42
		c-0.87,1.51-2.45,2.35-4.07,2.35c-0.8,0-1.61-0.2-2.35-0.63c-2.25-1.3-3.02-4.17-1.72-6.42
		C190.13,508.22,191.71,507.38,193.33,507.38 M310,538.64c2.6,0,4.7,2.1,4.7,4.7s-2.1,4.7-4.7,4.7c-2.6,0-4.7-2.1-4.7-4.7
		S307.4,538.64,310,538.64 M426.67,102.22c-2.03,0-3.93,1.09-4.94,2.85c-1.57,2.72-0.64,6.21,2.09,7.79
		c0.87,0.5,1.85,0.76,2.85,0.76c2.03,0,3.93-1.09,4.94-2.85c1.57-2.72,0.64-6.21-2.09-7.79
		C428.65,102.48,427.67,102.22,426.67,102.22L426.67,102.22z M193.32,102.22L193.32,102.22c-1,0-1.98,0.26-2.85,0.76
		c-2.72,1.57-3.66,5.06-2.09,7.79c1.02,1.76,2.91,2.85,4.94,2.85c1,0,1.98-0.26,2.85-0.76c2.72-1.57,3.66-5.06,2.09-7.79
		C197.25,103.31,195.36,102.22,193.32,102.22L193.32,102.22z M512.08,187.63c-1,0-1.98,0.26-2.85,0.76
		c-1.32,0.76-2.26,1.99-2.66,3.46c-0.39,1.47-0.19,3.01,0.57,4.32c1.02,1.76,2.91,2.85,4.94,2.85c1,0,1.98-0.26,2.85-0.76
		c1.32-0.76,2.26-1.99,2.66-3.46c0.39-1.47,0.19-3.01-0.57-4.32C516,188.72,514.11,187.63,512.08,187.63L512.08,187.63z
		 M107.92,187.63c-2.03,0-3.93,1.09-4.94,2.85c-0.76,1.32-0.96,2.85-0.57,4.32c0.39,1.47,1.34,2.7,2.66,3.46
		c0.87,0.5,1.85,0.76,2.85,0.76c2.03,0,3.93-1.09,4.94-2.85c0.76-1.32,0.96-2.85,0.57-4.32c-0.39-1.47-1.34-2.7-2.66-3.46
		C109.9,187.89,108.92,187.63,107.92,187.63L107.92,187.63z M76.66,304.3c-3.14,0-5.7,2.56-5.7,5.7s2.56,5.7,5.7,5.7
		c3.14,0,5.7-2.56,5.7-5.7S79.8,304.3,76.66,304.3L76.66,304.3z M512.08,420.97c-2.03,0-3.93,1.09-4.94,2.85
		c-1.57,2.72-0.64,6.21,2.09,7.79c0.87,0.5,1.85,0.76,2.85,0.76c2.03,0,3.93-1.09,4.94-2.85c1.57-2.72,0.64-6.21-2.09-7.79
		C514.06,421.23,513.08,420.97,512.08,420.97L512.08,420.97z M107.92,420.97c-1,0-1.98,0.26-2.85,0.76
		c-1.32,0.76-2.26,1.99-2.66,3.46c-0.39,1.47-0.19,3.01,0.57,4.32c1.02,1.76,2.91,2.85,4.94,2.85c1,0,1.98-0.26,2.85-0.76
		c2.72-1.57,3.66-5.06,2.09-7.79C111.84,422.06,109.95,420.97,107.92,420.97L107.92,420.97z M426.67,506.38
		c-1,0-1.98,0.26-2.85,0.76c-2.72,1.57-3.66,5.06-2.09,7.79c1.02,1.76,2.91,2.85,4.94,2.85c1,0,1.98-0.26,2.85-0.76
		c1.32-0.76,2.26-1.99,2.66-3.46c0.39-1.47,0.19-3.01-0.57-4.32C430.59,507.47,428.7,506.38,426.67,506.38L426.67,506.38z
		 M193.33,506.38c-2.03,0-3.93,1.09-4.94,2.85c-1.57,2.72-0.64,6.21,2.09,7.79c0.87,0.5,1.85,0.76,2.85,0.76
		c2.03,0,3.93-1.09,4.94-2.85c0.76-1.32,0.96-2.85,0.57-4.32c-0.39-1.47-1.34-2.7-2.66-3.46
		C195.31,506.64,194.33,506.38,193.33,506.38L193.33,506.38z M310,537.64c-3.14,0-5.7,2.56-5.7,5.7s2.56,5.7,5.7,5.7
		c3.14,0,5.7-2.56,5.7-5.7S313.14,537.64,310,537.64L310,537.64z"/>
</g>
<path id="Hour_Dots" class="st4" d="M197.4,105.57c1.3,2.25,0.53,5.12-1.72,6.42c-2.25,1.3-5.12,0.53-6.42-1.72
	c-1.3-2.25-0.53-5.12,1.72-6.42S196.1,103.32,197.4,105.57z M103.85,190.98c-1.3,2.25-0.53,5.12,1.72,6.42
	c2.25,1.3,5.12,0.53,6.42-1.72c1.3-2.25,0.53-5.12-1.72-6.42C108.02,187.96,105.15,188.73,103.85,190.98z M71.96,310
	c0,2.6,2.1,4.7,4.7,4.7s4.7-2.1,4.7-4.7c0-2.6-2.1-4.7-4.7-4.7S71.96,307.4,71.96,310z M103.85,429.02c1.3,2.25,4.17,3.02,6.42,1.72
	c2.25-1.3,3.02-4.17,1.72-6.42s-4.17-3.02-6.42-1.72S102.55,426.77,103.85,429.02z M190.98,516.15c2.25,1.3,5.12,0.53,6.42-1.72
	c1.3-2.25,0.53-5.12-1.72-6.42c-2.25-1.3-5.12-0.53-6.42,1.72C187.96,511.98,188.73,514.85,190.98,516.15z M310,548.04
	c2.6,0,4.7-2.1,4.7-4.7c0-2.6-2.1-4.7-4.7-4.7c-2.6,0-4.7,2.1-4.7,4.7C305.3,545.94,307.4,548.04,310,548.04z M429.02,516.15
	c2.25-1.3,3.02-4.17,1.72-6.42c-1.3-2.25-4.17-3.02-6.42-1.72c-2.25,1.3-3.02,4.17-1.72,6.42S426.77,517.45,429.02,516.15z
	 M516.15,429.02c1.3-2.25,0.53-5.12-1.72-6.42c-2.25-1.3-5.12-0.53-6.42,1.72c-1.3,2.25-0.53,5.12,1.72,6.42
	C511.98,432.04,514.85,431.27,516.15,429.02z M516.15,190.98c-1.3-2.25-4.17-3.02-6.42-1.72c-2.25,1.3-3.02,4.17-1.72,6.42
	c1.3,2.25,4.17,3.02,6.42,1.72C516.68,196.1,517.45,193.23,516.15,190.98z M429.02,103.85c-2.25-1.3-5.12-0.53-6.42,1.72
	c-1.3,2.25-0.53,5.12,1.72,6.42s5.12,0.53,6.42-1.72S431.27,105.15,429.02,103.85z"/>
<path id="Minute_Markings" class="st14" d="M549.32,310c0,132.17-107.15,239.32-239.32,239.32S70.68,442.17,70.68,310
	S177.83,70.68,310,70.68S549.32,177.83,549.32,310z M283.08,53.86l1.89,17.94 M256.45,58.08l3.75,17.64 M230.41,65.06l5.57,17.16
	 M212.58,91.2l-7.34-16.48 M158.62,101.64l10.6,14.59 M137.67,118.6l12.07,13.41 M118.6,137.67l13.41,12.07 M101.64,158.62
	l14.59,10.6 M91.2,212.58l-16.48-7.34 M65.06,230.41l17.16,5.57 M58.08,256.45l17.64,3.75 M53.86,283.08l17.94,1.89 M53.86,336.92
	l17.94-1.89 M58.08,363.55l17.64-3.75 M65.06,389.59l17.16-5.57 M91.2,407.42l-16.48,7.34 M101.64,461.38l14.59-10.6 M118.6,482.33
	l13.41-12.07 M137.67,501.4l12.07-13.41 M158.62,518.36l10.6-14.59 M205.24,545.28l7.34-16.48 M230.41,554.94l5.57-17.16
	 M256.45,561.92l3.75-17.64 M283.08,566.14l1.89-17.94 M336.92,566.14l-1.89-17.94 M363.55,561.92l-3.75-17.64 M384.01,537.79
	l5.57,17.16 M414.76,545.28l-7.34-16.48 M461.38,518.36l-10.6-14.59 M482.33,501.4l-12.07-13.41 M501.4,482.33l-13.41-12.07
	 M518.36,461.38l-14.59-10.6 M528.8,407.42l16.48,7.34 M554.94,389.59l-17.16-5.57 M544.28,359.8l17.64,3.75 M566.14,336.92
	l-17.94-1.89 M566.14,283.08l-17.94,1.89 M561.92,256.45l-17.64,3.75 M554.94,230.41l-17.16,5.57 M545.28,205.24l-16.48,7.34
	 M518.36,158.62l-14.59,10.6 M501.4,137.67l-13.41,12.07 M482.33,118.6l-12.07,13.41 M450.78,116.23l10.6-14.59 M414.76,74.72
	l-7.34,16.48 M389.59,65.06l-5.57,17.16 M363.55,58.08l-3.75,17.64 M335.04,71.8l1.89-17.94 M315.39,52.51
	C173.18,49.53,55.49,162.4,52.51,304.61c-2.98,142.21,109.89,259.91,252.1,262.89s259.91-109.89,262.89-252.1
	S457.6,55.49,315.39,52.51z"/>
<path id="Hour_Numbers_1_" class="st15" d="M317.2,52.51v17.92h-3.76V52.51H317.2z M319.33,52.68v17.77l3.76,0.22v-17.5
	L319.33,52.68z M312.48,52.92l-4.13-0.47l-3.65,5.89l-3.49-5.63l-4.29,0.21l5.57,8.98l-5.57,8.98l4.37,0.08l3.41-5.5l3.37,5.43
	l4.41-0.01l-5.57-8.98L312.48,52.92z M567.05,301.88h-17.92v3.76h17.92V301.88z M567.05,308.12h-17.92v3.76h17.92V308.12z
	 M567.05,314.36h-17.92v3.76h17.92V314.36z M301.75,567.09v-17.92h-3.76v17.92H301.75z M322.01,566.77l-6.96-17.59l-4.69,0
	l-6.96,17.59l3.9,0.77l5.41-13.66l5.42,13.68L322.01,566.77z M70.62,316.38H52.71v3.76h17.92V316.38z M70.21,315.43l0.47-4.13
	l-5.89-3.65l5.63-3.49l-0.21-4.29l-8.98,5.57l-8.98-5.57l-0.08,4.37l5.5,3.41l-5.43,3.37l0.01,4.41l8.98-5.57L70.21,315.43z
	 M186.68,83.62l8.96,15.52l3.25-1.88l-8.96-15.52L186.68,83.62z M186.06,84.45l-3.81,1.66l-0.22,6.93l-5.84-3.13l-3.61,2.33
	l9.32,4.99l-0.34,10.56l3.83-2.11l0.21-6.47l5.63,3.02l3.82-2.22l-9.32-4.99L186.06,84.45z M98.65,196.97l2.47-3.34l-3.27-6.11
	l6.62-0.21l1.96-3.82l-10.56,0.34l-4.99-9.32l-2.26,3.74l3.06,5.71l-6.39,0.2l-2.2,3.83l10.56-0.34L98.65,196.97z M437.2,86.04
	l-8.89,15.39l3.15,2.07l8.75-15.15L437.2,86.04z M530.87,177.02l-15.52,8.96l1.88,3.25l15.52-8.96L530.87,177.02z M533.66,182.2
	l-15.39,8.89l1.69,3.36l15.15-8.75L533.66,182.2z M538.09,429.56l-15.52-8.96l-1.88,3.25l15.52,8.96L538.09,429.56z M535.33,433.7
	l-18.72-2.77l-2.35,4.06l11.75,14.83l2.61-3l-9.13-11.51l14.56,2.15L535.33,433.7z M446.37,527.46l-14.83-11.75l-4.06,2.34
	l2.77,18.72l3.76-1.29l-2.15-14.53l11.53,9.14L446.37,527.46z M179.05,531.61l8.96-15.52l-3.25-1.88l-8.96,15.52L179.05,531.61z
	 M196.75,541.46l2.77-18.72l-4.06-2.35l-14.83,11.75l3,2.61l11.51-9.13l-2.15,14.56L196.75,541.46z M173.31,528.3l8.96-15.52
	l-3.25-1.88l-8.96,15.52L173.31,528.3z M86.77,437.99l15.52-8.96l-1.88-3.25l-15.52,8.96L86.77,437.99z M97.18,455.37l11.75-14.83
	l-2.34-4.06l-18.72,2.77l1.29,3.76l14.53-2.15l-9.14,11.53L97.18,455.37z M83.68,432.63l15.52-8.96l-1.88-3.25l-15.52,8.96
	L83.68,432.63z M80.58,427.27l15.52-8.96l-1.88-3.25l-15.52,8.96L80.58,427.27z"/>
<g id="Light_Ribs">
	<path class="st16" d="M316.46,1.57C146.12-1.99,5.14,133.2,1.57,303.54S133.2,614.86,303.54,618.43
		c170.34,3.57,311.32-131.63,314.89-301.97C621.99,146.12,486.8,5.14,316.46,1.57z M593.75,315.94
		c-3.28,156.71-132.98,281.09-289.7,277.81c-156.71-3.28-281.09-132.98-277.81-289.7c3.28-156.71,132.98-281.09,289.7-277.81
		S597.03,159.23,593.75,315.94z"/>
</g>
<path id="Dark_Ribs" class="st17" d="M324.34,2L322.55,37H310V2H324.34z M283.16,3.18l3.05,34.86l12.5-1.09l-1.26-35.01L283.16,3.18
	z M256.52,6.68l6.08,34.46l12.36-2.18l-4.31-34.77L256.52,6.68z M230.28,12.5l9.06,33.8l12.12-3.25l-7.32-34.26L230.28,12.5z
	 M204.66,20.58l11.97,32.88l11.79-4.29l-10.28-33.5L204.66,20.58z M179.84,30.86l14.79,31.71l11.37-5.3L192.84,24.8L179.84,30.86z
	 M156,43.27l17.5,30.3l10.87-6.27l-15.94-31.2L156,43.27z M133.34,57.7l20.07,28.66l10.28-7.2l-18.6-29.69L133.34,57.7z
	 M112.02,74.06l22.49,26.8l9.61-8.07l-21.12-27.96L112.02,74.06z M92.21,92.21l24.74,24.74l8.87-8.87l-23.47-26.01L92.21,92.21z
	 M74.06,112.02l26.8,22.49l8.07-9.61l-25.65-23.87L74.06,112.02z M57.7,133.34l28.66,20.07l7.2-10.28l-27.63-21.54L57.7,133.34z
	 M43.27,156l30.3,17.5l6.27-10.87l-29.41-19.05L43.27,156z M30.86,179.84l31.71,14.79l5.3-11.37l-30.95-16.42L30.86,179.84z
	 M20.58,204.66l32.88,11.97l4.29-11.79l-32.27-13.66L20.58,204.66z M12.5,230.29l33.8,9.06l3.25-12.12l-33.33-10.79L12.5,230.29z
	 M6.68,256.52l34.46,6.08l2.18-12.36l-34.15-7.85L6.68,256.52z M3.18,283.16l34.86,3.05l1.09-12.5l-34.7-4.84L3.18,283.16z M2,310
	H37v-12.55L2,295.66V310z M3.18,336.84l34.86-3.05l-1.09-12.5l-35.01,1.26L3.18,336.84z M6.68,363.48l34.46-6.08l-2.18-12.36
	l-34.77,4.31L6.68,363.48z M12.5,389.72l33.8-9.06l-3.25-12.12l-34.26,7.32L12.5,389.72z M20.58,415.34l32.88-11.97l-4.29-11.79
	l-33.5,10.28L20.58,415.34z M30.86,440.16l31.71-14.79L57.27,414L24.8,427.16L30.86,440.16z M43.27,464l30.3-17.5l-6.27-10.87
	l-31.2,15.94L43.27,464z M57.7,486.66l28.66-20.07l-7.2-10.28l-29.69,18.6L57.7,486.66z M74.06,507.98l26.8-22.49l-8.07-9.61
	l-27.96,21.12L74.06,507.98z M92.21,527.79l24.74-24.74l-8.87-8.87l-26.01,23.47L92.21,527.79z M112.02,545.94l22.49-26.8
	l-9.61-8.07l-23.87,25.65L112.02,545.94z M133.34,562.3l20.07-28.66l-10.28-7.2l-21.54,27.63L133.34,562.3z M156,576.73l17.5-30.3
	l-10.87-6.27l-19.05,29.41L156,576.73z M179.84,589.14l14.79-31.71l-11.37-5.3l-16.42,30.95L179.84,589.14z M204.66,599.42
	l11.97-32.88l-11.79-4.29l-13.66,32.27L204.66,599.42z M230.29,607.5l9.06-33.8l-12.12-3.25l-10.79,33.33L230.29,607.5z
	 M256.52,613.32l6.08-34.46l-12.36-2.18l-7.85,34.15L256.52,613.32z M283.16,616.82l3.05-34.86l-12.5-1.09l-4.84,34.7L283.16,616.82
	z M310,618V583h-12.55l-1.8,34.99H310z M336.84,616.82l-3.05-34.86l-12.5,1.09l1.26,35.01L336.84,616.82z M363.48,613.32
	l-6.08-34.46l-12.36,2.18l4.31,34.77L363.48,613.32z M389.72,607.5l-9.06-33.8l-12.12,3.25l7.32,34.26L389.72,607.5z M415.34,599.42
	l-11.97-32.88l-11.79,4.29l10.28,33.5L415.34,599.42z M440.16,589.14l-14.79-31.71l-11.37,5.3l13.16,32.47L440.16,589.14z
	 M464,576.73l-17.5-30.3l-10.87,6.27l15.94,31.2L464,576.73z M486.66,562.3l-20.07-28.66l-10.28,7.2l18.6,29.69L486.66,562.3z
	 M507.98,545.94l-22.49-26.8l-9.61,8.07l21.12,27.96L507.98,545.94z M527.79,527.79l-24.74-24.74l-8.87,8.87l23.47,26.01
	L527.79,527.79z M545.94,507.98l-26.8-22.49l-8.07,9.61l25.65,23.87L545.94,507.98z M562.3,486.66l-28.66-20.07l-7.2,10.28
	l27.63,21.54L562.3,486.66z M576.73,464l-30.3-17.5l-6.27,10.87l29.41,19.05L576.73,464z M589.14,440.16l-31.71-14.79l-5.3,11.37
	l30.95,16.42L589.14,440.16z M599.42,415.34l-32.88-11.97l-4.29,11.79l32.27,13.66L599.42,415.34z M607.5,389.72l-33.8-9.06
	l-3.25,12.12l33.33,10.79L607.5,389.72z M613.32,363.48l-34.46-6.08l-2.18,12.36l34.15,7.85L613.32,363.48z M616.82,336.84
	l-34.86-3.05l-1.09,12.5l34.7,4.84L616.82,336.84z M618,310H583v12.55l34.99,1.8V310z M616.82,283.16l-34.86,3.05l1.09,12.5
	l35.01-1.26L616.82,283.16z M613.32,256.52l-34.46,6.08l2.18,12.36l34.77-4.31L613.32,256.52z M607.5,230.28l-33.8,9.06l3.25,12.12
	l34.26-7.32L607.5,230.28z M599.42,204.66l-32.88,11.97l4.29,11.79l33.5-10.28L599.42,204.66z M589.14,179.84l-31.71,14.79
	l5.3,11.37l32.47-13.16L589.14,179.84z M576.73,156l-30.3,17.5l6.27,10.87l31.2-15.94L576.73,156z M562.3,133.34l-28.66,20.07
	l7.2,10.28l29.69-18.6L562.3,133.34z M545.94,112.02l-26.8,22.49l8.07,9.61l27.96-21.12L545.94,112.02z M527.79,92.21l-24.74,24.74
	l8.87,8.87l26.01-23.47L527.79,92.21z M507.98,74.06l-22.49,26.8l9.61,8.07l23.87-25.65L507.98,74.06z M486.66,57.7l-20.07,28.66
	l10.28,7.2l21.54-27.63L486.66,57.7z M464,43.27l-17.5,30.3l10.87,6.27l19.05-29.41L464,43.27z M440.16,30.86l-14.79,31.71
	l11.37,5.3l16.42-30.95L440.16,30.86z M415.34,20.58l-11.97,32.88l11.79,4.29l13.66-32.27L415.34,20.58z M389.72,12.5l-9.06,33.8
	l12.12,3.25l10.79-33.33L389.72,12.5z M363.48,6.68l-6.08,34.46l12.36,2.18l7.85-34.15L363.48,6.68z M336.84,3.18l-3.05,34.86
	l12.5,1.09l4.84-34.7L336.84,3.18z"/>
<path id="Ribs_Shadow_1_" class="st18" d="M595.87,310l4.05-11.94l-5.11-12.98l3.01-12.25l-6.22-12.49l1.92-12.46l-7.3-11.9
	l0.82-12.57l-8.32-11.21l-0.29-12.61l-9.27-10.44l-1.38-12.52l-10.14-9.59l-2.48-12.36L544.21,146l-3.55-12.09l-11.64-7.65
	l-4.61-11.76l-12.28-6.64l-5.57-11.3l-12.8-5.56l-6.54-10.78L474,75.78l-7.46-10.17L453,62.39l-8.35-9.49l-13.81-2.05l-9.11-8.71
	l-13.93-0.84l-9.84-7.89l-13.96,0.38l-10.49-6.99l-13.86,1.61l-11.06-6.04l-13.67,2.82l-12.98-5.11L310,24.13l-11.94-4.05
	l-12.95,5.11l-12.27-3l-12.49,6.22l-12.46-1.92l-11.9,7.3l-12.58-0.81L212.2,41.3l-12.6,0.29l-10.44,9.27l-12.53,1.38l-9.59,10.14
	l-12.36,2.47l-8.67,10.94l-12.09,3.55L126.24,91l-11.74,4.59l-6.64,12.28l-11.3,5.58L91,126.23l-10.78,6.54L75.79,146l-10.17,7.46
	l-3.25,13.57l-9.47,8.32l-2.05,13.81l-8.71,9.11L41.3,212.2l-7.89,9.84l0.38,13.95l-6.99,10.49l1.61,13.87l-6.04,11.06l2.82,13.68
	l-5.05,11.54L24.13,310l-4.05,11.94l5.11,12.98l-3.01,12.25l6.22,12.49l-1.92,12.46l7.3,11.9l-0.82,12.58l8.32,11.21l0.29,12.6
	l9.27,10.44l1.42,12.59l10.11,9.53l2.47,12.36L75.79,474l3.54,12.09L91,493.77l4.61,11.76l12.25,6.62l5.58,11.3l12.79,5.56
	l6.54,10.78l13.23,4.43l7.46,10.17l13.58,3.25l8.32,9.47l13.8,2.04l9.11,8.71l13.93,0.84l9.84,7.89l13.96-0.38l10.49,6.99
	l13.87-1.61l11.06,6.04l13.67-2.82l11.54,5.05l13.38-3.99l11.94,4.05l12.98-5.11l12.25,3.01l12.49-6.22l12.46,1.92l11.89-7.3
	l12.58,0.82l11.21-8.32l12.6-0.29l10.44-9.27l12.6-1.42l9.53-10.1l12.36-2.47l8.67-10.94l12.09-3.55l7.68-11.66l11.74-4.59
	l6.64-12.28l11.3-5.58l5.56-12.8l10.78-6.54l4.43-13.23l10.17-7.46l3.25-13.57l9.47-8.32l2-13.71l8.76-9.21l0.84-13.93l7.89-9.84
	l-0.38-13.95l6.99-10.49l-1.61-13.87l6.04-11.06l-2.82-13.67l5.05-11.54L595.87,310z M582.94,315.72
	c-3.16,150.74-127.92,270.38-278.66,267.23C153.54,579.79,33.9,455.02,37.06,304.28C40.21,153.54,164.98,33.9,315.72,37.06
	S586.1,164.98,582.94,315.72z"/>
<g id="Ribs_Inset_3_">
	<path class="st19" d="M309.89,37c1.94,0,3.88,0.02,5.83,0.06c150.74,3.16,270.38,127.92,267.23,278.66
		C579.83,464.51,458.22,583,310.11,583c-1.94,0-3.88-0.02-5.83-0.06C153.54,579.79,33.9,455.02,37.06,304.28
		C40.17,155.49,161.78,37,309.89,37 M309.9,27.53V37V27.53c-37.5,0-73.94,7.26-108.33,21.57c-33.26,13.84-63.23,33.69-89.1,58.98
		c-25.89,25.32-46.4,54.87-60.97,87.85c-15.09,34.14-23.13,70.53-23.92,108.16c-0.8,38.12,5.9,75.26,19.89,110.39
		c13.52,33.93,33.25,64.56,58.64,91.03s55.16,47.47,88.5,62.4c34.51,15.46,71.34,23.7,109.46,24.5c2,0.04,4.03,0.06,6.03,0.06
		c37.49,0,73.93-7.26,108.32-21.57c33.26-13.84,63.23-33.69,89.1-58.98c25.89-25.32,46.4-54.87,60.97-87.85
		c15.09-34.14,23.13-70.54,23.92-108.16c0.8-38.12-5.89-75.26-19.89-110.39c-13.52-33.93-33.25-64.56-58.64-91.03
		c-25.39-26.48-55.16-47.47-88.5-62.4c-34.51-15.46-71.34-23.7-109.46-24.5C313.91,27.55,311.89,27.53,309.9,27.53L309.9,27.53z"/>
</g>
<g id="Ribs_Inset_2_">
	<path class="st20" d="M309.9,46.47c1.86,0,3.75,0.02,5.62,0.06c35.57,0.75,69.93,8.43,102.12,22.85
		c31.1,13.93,58.88,33.52,82.57,58.22c23.69,24.71,42.1,53.28,54.71,84.93c13.06,32.76,19.3,67.41,18.55,102.99
		c-1.45,69.4-29.58,134.34-79.2,182.87c-24.13,23.6-52.1,42.12-83.13,55.03c-32.07,13.35-66.06,20.11-101.04,20.11
		c-1.87,0-3.76-0.02-5.63-0.06c-35.57-0.75-69.93-8.43-102.12-22.85c-31.1-13.93-58.88-33.52-82.57-58.22
		c-23.69-24.71-42.1-53.28-54.71-84.93c-13.06-32.76-19.3-67.41-18.55-102.99c1.45-69.4,29.58-134.34,79.2-182.87
		c24.13-23.6,52.1-42.12,83.13-55.03C240.92,53.23,274.91,46.47,309.9,46.47L309.9,46.47 M309.89,37
		C161.78,37,40.17,155.49,37.06,304.28c-3.16,150.74,116.48,275.5,267.23,278.66c1.95,0.04,3.89,0.06,5.83,0.06
		c148.11,0,269.71-118.5,272.83-267.29c3.16-150.74-116.48-275.5-267.23-278.66C313.77,37.02,311.83,37,309.89,37L309.89,37z"/>
</g>
<g id="Outline_4_">
	<path class="st8" d="M309.99,2.84c0.16,0,0.3,0,0.46,0c169.64,0.25,306.96,137.97,306.71,307.6
		c-0.25,169.48-137.72,306.71-307.15,306.71c-0.16,0-0.3,0-0.46,0C139.92,616.91,2.59,479.19,2.84,309.55
		C3.09,140.07,140.56,2.85,309.99,2.84 M309.99,0L309.99,0c-41.8,0-82.35,8.18-120.54,24.32c-36.89,15.58-70.02,37.9-98.48,66.32
		c-28.47,28.42-50.83,61.52-66.47,98.39C8.3,227.19,0.06,267.74,0,309.55c-0.06,41.85,8.08,82.46,24.19,120.7
		c15.56,36.94,37.86,70.12,66.29,98.63s61.55,50.91,98.44,66.58c38.2,16.22,78.78,24.48,120.63,24.54l0.46,0
		c41.8,0,82.35-8.18,120.54-24.31c36.89-15.58,70.02-37.9,98.48-66.32c28.47-28.42,50.83-61.52,66.47-98.39
		c16.19-38.17,24.44-78.72,24.5-120.53c0.06-41.85-8.08-82.46-24.19-120.7c-15.56-36.94-37.86-70.12-66.29-98.63
		c-28.43-28.51-61.55-50.91-98.44-66.58C392.88,8.32,352.3,0.06,310.45,0L309.99,0L309.99,0z"/>
</g>
<path id="Text" class="st15" d="M496.14,313.45c0.02,1.18-0.34,2.27-1.07,3.28c-0.73,1.01-1.79,1.89-3.15,2.66
	c-1.37,0.76-3.02,1.37-4.94,1.81s-4.07,0.69-6.43,0.73c-1.93,0.03-3.75-0.07-5.45-0.31c-1.7-0.24-3.21-0.62-4.54-1.14
	c-1.32-0.52-2.42-1.17-3.28-1.96c-0.86-0.79-1.42-1.72-1.67-2.8l6.09-0.1c0.39,1.4,1.37,2.42,2.94,3.07
	c1.57,0.64,3.52,0.95,5.87,0.91c1.44-0.02,2.74-0.19,3.91-0.5c1.17-0.31,2.17-0.72,3.02-1.24c0.85-0.52,1.5-1.13,1.95-1.81
	c0.46-0.69,0.68-1.42,0.67-2.2c-0.01-0.8-0.26-1.51-0.74-2.14c-0.48-0.63-1.14-1.17-2-1.61c-0.86-0.44-1.89-0.78-3.1-1
	c-1.21-0.22-2.53-0.32-3.96-0.3c-3.31,0.05-6.1,0.73-8.38,2.03l-4.64,0.07l1.75-12.24l24.77-0.4l0.04,2.75l-19.67,0.32l-0.94,6.43
	c2.25-0.97,5.09-1.48,8.52-1.54c1.86-0.03,3.66,0.12,5.4,0.44c1.74,0.32,3.27,0.79,4.59,1.41c1.33,0.62,2.39,1.38,3.21,2.29
	C495.7,311.28,496.12,312.31,496.14,313.45z M254.08,108.73c-1.68,0.47-3.17,0.77-4.48,0.89c-1.31,0.12-2.43,0.09-3.37-0.09
	c-0.94-0.18-1.69-0.49-2.27-0.94c-0.57-0.45-0.97-0.99-1.19-1.64l3.02-0.85c0.21,0.49,0.56,0.86,1.04,1.13
	c0.48,0.26,1.06,0.43,1.74,0.51c0.68,0.07,1.43,0.06,2.27-0.05c0.83-0.11,1.72-0.29,2.64-0.55c0.84-0.24,1.61-0.51,2.29-0.81
	c0.68-0.3,1.25-0.62,1.7-0.96c0.45-0.34,0.78-0.69,0.99-1.05c0.21-0.36,0.26-0.73,0.16-1.09c-0.11-0.38-0.32-0.67-0.65-0.85
	c-0.33-0.19-0.81-0.29-1.44-0.32c-0.64-0.03-1.44,0.01-2.42,0.12c-0.97,0.1-2.16,0.26-3.56,0.48c-1.42,0.22-2.64,0.35-3.65,0.39
	c-1.02,0.04-1.87,0-2.54-0.13c-0.68-0.13-1.2-0.35-1.58-0.66c-0.38-0.31-0.64-0.7-0.77-1.19c-0.15-0.55-0.1-1.11,0.17-1.68
	c0.27-0.57,0.72-1.13,1.34-1.66s1.43-1.04,2.41-1.52c0.98-0.48,2.11-0.89,3.38-1.25c1.32-0.37,2.54-0.62,3.67-0.74
	c1.13-0.12,2.13-0.12,3,0.01c0.88,0.13,1.61,0.38,2.2,0.76c0.59,0.38,0.99,0.89,1.21,1.52l-3.05,0.86c-0.75-1.55-2.9-1.83-6.46-0.83
	c-1.75,0.49-3.05,1.06-3.88,1.7c-0.83,0.64-1.16,1.27-0.99,1.87c0.08,0.28,0.22,0.5,0.43,0.66c0.21,0.16,0.54,0.26,0.99,0.31
	c0.45,0.04,1.04,0.03,1.78-0.04c0.74-0.07,1.67-0.18,2.79-0.35c1.1-0.16,2.08-0.29,2.94-0.39c0.86-0.1,1.61-0.17,2.25-0.23
	c0.61-0.04,1.21-0.04,1.79,0c0.59,0.05,1.13,0.15,1.62,0.31s0.92,0.39,1.27,0.69c0.36,0.3,0.6,0.68,0.73,1.15
	c0.17,0.59,0.1,1.19-0.19,1.81c-0.29,0.62-0.77,1.21-1.43,1.79c-0.66,0.58-1.5,1.12-2.51,1.62
	C256.49,107.94,255.34,108.37,254.08,108.73z M276.08,103.87c-1.42,0.23-2.66,0.36-3.71,0.37c-1.05,0.01-1.95-0.07-2.69-0.24
	c-0.74-0.17-1.35-0.41-1.83-0.73s-0.87-0.68-1.17-1.1c-0.3-0.41-0.53-0.86-0.68-1.35c-0.15-0.48-0.27-0.98-0.35-1.5l-1.33-8.04
	l3.13-0.52l1.32,8c0.15,0.92,0.41,1.65,0.78,2.19c0.37,0.54,0.84,0.92,1.43,1.16c0.58,0.24,1.28,0.35,2.08,0.33
	c0.8-0.01,1.72-0.11,2.75-0.28c1.01-0.17,1.9-0.38,2.67-0.63c0.76-0.25,1.39-0.58,1.86-0.99c0.48-0.41,0.8-0.93,0.98-1.55
	s0.19-1.39,0.03-2.31l-1.32-8l3.15-0.52l1.33,8.04c0.16,0.95,0.16,1.83-0.01,2.64c-0.16,0.81-0.55,1.53-1.18,2.17
	c-0.63,0.64-1.52,1.2-2.69,1.67C279.46,103.17,277.94,103.56,276.08,103.87z M309.51,100.62l-3.32,0.16l-13.24-10.5l0.54,11.11
	l-3.06,0.15l-0.68-14.07l3.29-0.16l13.24,10.48l-0.53-11.1l3.08-0.15L309.51,100.62z M315.45,86.62l7.69,0.52
	c8.27,0.56,12.25,3.15,11.94,7.78c-0.32,4.74-4.61,6.83-12.88,6.27l-7.69-0.52L315.45,86.62z M317.78,99.19l4.44,0.3
	c1.83,0.12,3.35,0.1,4.56-0.07c1.21-0.17,2.17-0.47,2.89-0.89c0.72-0.42,1.24-0.95,1.56-1.6c0.32-0.65,0.51-1.39,0.56-2.23
	c0.05-0.82-0.03-1.56-0.26-2.23c-0.23-0.67-0.68-1.25-1.34-1.75c-0.67-0.5-1.58-0.92-2.76-1.24c-1.17-0.32-2.67-0.55-4.48-0.67
	l-4.44-0.3L317.78,99.19z M358.21,106.15l-3.56-0.64l-2.03-4.74l-10.09-1.81l-3.42,3.76l-3.33-0.6l11.71-12.21l3.38,0.61
	L358.21,106.15z M351.94,99.17l-3.08-7.2l-5.21,5.72L351.94,99.17z M383.3,98.82l-11.49,5.11l-1.67,5.73l-3.07-0.89l1.67-5.73
	l-6.96-10.48l3.75,1.09l5.22,8.27l8.82-4.19L383.3,98.82z M274.19,220.92h-0.85c-0.69,0-0.89-0.09-0.94-0.11
	c-0.1-0.06-0.18-0.17-0.23-0.33c-0.01-0.03-0.04-0.2-0.04-0.97v-4.75h1.53l6.17,8.01h4.44v-1.84h-0.72c-0.33,0-0.62-0.05-0.88-0.16
	c-0.26-0.11-0.52-0.27-0.76-0.49c-0.05-0.05-0.21-0.22-0.67-0.79l-3.91-4.77c1.05-0.08,1.93-0.28,2.63-0.61
	c0.9-0.42,1.6-1.01,2.08-1.75c0.48-0.74,0.73-1.6,0.73-2.55c0-0.93-0.25-1.77-0.75-2.48c-0.5-0.71-1.21-1.26-2.13-1.63
	c-0.9-0.36-2.17-0.54-3.88-0.54h-9.07V207h1.1c0.49,0,0.66,0.07,0.7,0.09c0.09,0.05,0.16,0.14,0.22,0.26
	c0.04,0.09,0.11,0.32,0.11,0.88v10.97c-0.01,0.94-0.03,1.12-0.03,1.13c-0.03,0.15-0.09,0.27-0.16,0.36
	c-0.07,0.08-0.14,0.14-0.22,0.17c-0.03,0.01-0.18,0.06-0.72,0.06h-0.99v1.84h7.25V220.92z M272.13,212.78v-5.48h3.94
	c0.9,0,1.57,0.1,2,0.3c0.41,0.19,0.73,0.48,0.97,0.87c0.24,0.39,0.36,0.89,0.36,1.48c0,0.7-0.17,1.27-0.5,1.71
	c-0.34,0.44-0.79,0.74-1.38,0.91c-0.43,0.13-1.22,0.2-2.35,0.2H272.13z M293.75,223.05c2.59,0,4.75-0.86,6.43-2.56
	c1.68-1.7,2.53-3.92,2.53-6.6c0-1.73-0.38-3.28-1.13-4.61c-0.75-1.32-1.84-2.41-3.23-3.24c-1.29-0.77-2.76-1.17-4.36-1.17
	c-1.7,0-3.29,0.4-4.71,1.19c-1.43,0.8-2.56,1.89-3.34,3.27c-0.78,1.37-1.17,2.93-1.17,4.65c0,2.31,0.7,4.32,2.08,5.99
	C288.53,222.01,290.86,223.05,293.75,223.05z M290.97,207.79c0.83-0.53,1.84-0.79,3.01-0.79c1.09,0,2.01,0.24,2.74,0.7
	c0.72,0.47,1.31,1.21,1.76,2.2c0.54,1.19,0.81,2.52,0.81,3.96c0,1.41-0.27,2.72-0.8,3.87c-0.53,1.14-1.19,1.98-1.98,2.5
	c-0.79,0.52-1.71,0.78-2.74,0.78c-1.04,0-1.98-0.27-2.81-0.8c-0.83-0.53-1.5-1.32-2-2.33c-0.5-1.02-0.76-2.3-0.76-3.79
	c0-1.56,0.26-2.89,0.77-3.94C289.46,209.12,290.14,208.32,290.97,207.79z M317.09,222.76h-12.78v-1.84h0.95
	c0.64,0,0.82-0.07,0.85-0.09c0.09-0.05,0.16-0.13,0.22-0.24c0.03-0.07,0.1-0.29,0.1-0.87V208.3c0-0.73-0.07-0.95-0.1-1
	c-0.06-0.14-0.14-0.19-0.19-0.22c-0.02-0.01-0.18-0.08-0.88-0.08h-0.95v-1.84h7.34V207h-1.02c-0.55,0-0.75,0.07-0.81,0.09
	c-0.11,0.05-0.18,0.11-0.23,0.2c-0.02,0.04-0.09,0.2-0.09,0.72v11.7c0,0.65,0.03,0.8,0.04,0.83l0.08,0.07c0,0,0.15,0.04,0.81,0.04
	h0.9c0.98,0,1.83-0.14,2.54-0.42c0.7-0.28,1.32-0.68,1.83-1.21c0.52-0.54,1.03-1.36,1.52-2.45l0.16-0.34l1.83,0.62L317.09,222.76z
	 M319.54,207h-0.42v-1.84h14.34l1.81,5.07l-1.83,0.69l-0.14-0.39c-0.25-0.68-0.52-1.21-0.81-1.59c-0.28-0.37-0.63-0.69-1.02-0.96
	c-0.39-0.26-0.79-0.43-1.18-0.52c-0.42-0.09-1.2-0.14-2.33-0.14h-3.65v5.31h1.61c0.66,0,1.15-0.1,1.46-0.31
	c0.31-0.21,0.52-0.45,0.63-0.75c0.07-0.16,0.14-0.52,0.14-1.32v-0.69h2.01v8.19h-2.01v-1.05c0-0.64-0.06-0.94-0.11-1.08
	c-0.06-0.18-0.18-0.37-0.36-0.54c-0.18-0.17-0.36-0.29-0.56-0.35c-0.15-0.05-0.48-0.1-1.21-0.1h-1.61v5.03
	c0,0.7,0.04,0.86,0.05,0.88c0.05,0.05,0.2,0.09,0.86,0.09h2.52c1.34,0,2.39-0.16,3.13-0.47c0.73-0.31,1.38-0.79,1.94-1.44
	c0.44-0.51,0.88-1.25,1.29-2.19l0.16-0.35l1.85,0.65l-2.11,5.92h-14.86v-1.84h0.9c0.68,0,0.84-0.06,0.86-0.06
	c0.13-0.06,0.22-0.16,0.29-0.31c0.01-0.02,0.08-0.18,0.08-0.86v-11.55c0-0.64-0.08-0.81-0.1-0.84c-0.05-0.09-0.16-0.17-0.33-0.23
	C320.8,207.05,320.58,207,319.54,207z M338.47,219.67l4.84-5.85l-4.29-5.66c-0.54-0.72-0.83-0.93-0.96-1
	c-0.15-0.08-0.48-0.17-1.19-0.17h-0.42v-1.84h7.24V207h-0.92c-0.45,0-0.64,0.03-0.7,0.05c0.02,0,0.03,0.03,0.04,0.06
	c0.01,0.03,0.08,0.14,0.39,0.57l2.82,3.83l3.09-3.85c0.32-0.4,0.38-0.58,0.39-0.64c-0.03,0.02-0.17-0.02-0.55-0.02h-1.03v-1.84h6.27
	V207h-0.42c-0.73,0-1.06,0.09-1.22,0.16c-0.13,0.06-0.44,0.28-1.04,1.01l-4.16,5l4.96,6.51c0.31,0.4,0.56,0.69,0.76,0.85
	c0.18,0.15,0.36,0.25,0.52,0.3c0.09,0.03,0.33,0.08,0.91,0.08h0.42v1.84h-7.27v-1.84h0.92c0.6,0,0.74-0.05,0.76-0.06l-0.08-0.08
	c-0.02-0.03-0.17-0.24-0.43-0.59l-3.51-4.69l-3.86,4.86c-0.21,0.26-0.34,0.42-0.38,0.5c-0.01,0.03,0.13,0.07,0.68,0.07h0.92v1.84
	h-6.26v-1.84h0.42c0.57,0,0.84-0.05,0.97-0.08c0.18-0.05,0.37-0.15,0.56-0.3C337.79,220.42,338.05,220.19,338.47,219.67z
	 M241.55,227.92c-0.47-0.5-1.04-0.89-1.69-1.16c-0.65-0.27-1.37-0.41-2.15-0.41c-0.77,0-1.48,0.14-2.14,0.41
	c-0.65,0.27-1.22,0.66-1.69,1.16c-0.48,0.5-0.85,1.1-1.11,1.81c-0.27,0.71-0.4,1.49-0.4,2.35c0,0.85,0.13,1.63,0.39,2.34
	c0.26,0.71,0.63,1.31,1.1,1.81c0.47,0.5,1.04,0.89,1.69,1.17c0.65,0.28,1.37,0.42,2.16,0.42s1.51-0.14,2.16-0.42
	c0.65-0.28,1.22-0.67,1.69-1.18c0.47-0.51,0.84-1.11,1.1-1.81c0.26-0.7,0.39-1.48,0.39-2.33c0-0.86-0.13-1.64-0.4-2.35
	C242.39,229.03,242.02,228.42,241.55,227.92z M240.7,233.71c-0.16,0.48-0.38,0.89-0.67,1.22c-0.29,0.33-0.63,0.59-1.02,0.77
	c-0.4,0.18-0.83,0.27-1.31,0.27c-0.47,0-0.9-0.09-1.29-0.27c-0.39-0.18-0.73-0.43-1.02-0.77c-0.29-0.33-0.51-0.74-0.67-1.22
	c-0.16-0.48-0.24-1.03-0.24-1.64c0-0.6,0.08-1.15,0.24-1.63c0.16-0.48,0.39-0.89,0.68-1.22c0.29-0.33,0.63-0.59,1.03-0.76
	c0.4-0.18,0.83-0.26,1.3-0.26c0.46,0,0.88,0.09,1.28,0.26c0.39,0.17,0.73,0.42,1.02,0.75s0.51,0.73,0.67,1.22
	c0.16,0.48,0.24,1.03,0.24,1.64C240.94,232.69,240.86,233.23,240.7,233.71z M251.67,226.53h2.51l-4.4,6.44v4.67h-2.07v-4.67
	l-4.41-6.44h2.51l2.94,4.5L251.67,226.53z M263.36,234.35c0,0.51-0.1,0.98-0.31,1.41c-0.21,0.42-0.5,0.79-0.87,1.09
	c-0.37,0.31-0.82,0.54-1.34,0.71c-0.52,0.17-1.08,0.26-1.69,0.26c-0.8,0-1.49-0.1-2.08-0.31c-0.59-0.21-1.09-0.5-1.49-0.87
	c-0.4-0.37-0.7-0.81-0.91-1.33c-0.21-0.51-0.32-1.08-0.34-1.69h2.01c0.03,0.4,0.13,0.74,0.29,1.03s0.36,0.53,0.6,0.72
	s0.52,0.33,0.84,0.42s0.65,0.14,1.01,0.14c0.34,0,0.64-0.03,0.92-0.1c0.28-0.07,0.52-0.16,0.71-0.29s0.35-0.28,0.46-0.46
	s0.16-0.38,0.16-0.61c0-0.23-0.05-0.42-0.16-0.59s-0.27-0.31-0.51-0.43c-0.23-0.13-0.54-0.24-0.92-0.35s-0.85-0.21-1.41-0.33
	c-0.63-0.14-1.18-0.31-1.64-0.49c-0.46-0.19-0.84-0.41-1.13-0.67s-0.51-0.55-0.66-0.89s-0.21-0.72-0.21-1.15
	c0-0.47,0.1-0.9,0.29-1.29s0.47-0.73,0.83-1.02c0.36-0.29,0.79-0.51,1.28-0.67c0.5-0.16,1.05-0.24,1.66-0.24
	c0.63,0,1.21,0.09,1.74,0.26c0.52,0.17,0.98,0.42,1.36,0.75c0.38,0.32,0.68,0.72,0.9,1.19c0.22,0.47,0.33,1,0.35,1.6h-1.99
	c-0.15-1.26-0.91-1.9-2.29-1.9c-0.67,0-1.19,0.11-1.54,0.34c-0.36,0.23-0.53,0.54-0.53,0.93c0,0.16,0.04,0.3,0.12,0.42
	s0.2,0.23,0.37,0.33c0.17,0.1,0.39,0.19,0.66,0.27c0.27,0.08,0.59,0.16,0.97,0.24c0.33,0.07,0.67,0.14,1.02,0.23
	c0.35,0.08,0.69,0.18,1.03,0.3c0.33,0.12,0.65,0.26,0.94,0.43s0.56,0.37,0.78,0.61c0.22,0.24,0.4,0.52,0.53,0.85
	S263.36,233.91,263.36,234.35z M267.59,228.44h-3.44v-1.91h8.98v1.91h-3.46v9.2h-2.08V228.44z M276.36,228.44v2.51h5.78v1.9h-5.78
	v2.88h6.42v1.91h-8.49v-11.11h8.25v1.91H276.36z M286.53,233.18h2.23c0.23,0,0.45,0.04,0.65,0.11c0.21,0.07,0.39,0.17,0.56,0.3
	s0.32,0.28,0.44,0.45s0.23,0.37,0.31,0.58l1.06,3.02h2.23l-1.19-3.29c-0.3-0.78-0.68-1.35-1.16-1.71c0.58-0.26,1.03-0.63,1.35-1.12
	c0.33-0.49,0.49-1.07,0.49-1.75c0-0.23-0.02-0.46-0.07-0.69c-0.05-0.23-0.11-0.46-0.21-0.67c-0.09-0.21-0.2-0.42-0.34-0.61
	c-0.14-0.19-0.3-0.37-0.48-0.52c-0.21-0.18-0.42-0.31-0.65-0.41c-0.23-0.1-0.46-0.18-0.71-0.23s-0.5-0.08-0.77-0.1
	s-0.55-0.02-0.85-0.02h-4.98v11.11h2.07V233.18z M286.53,228.34h2.97c0.64,0,1.11,0.12,1.42,0.35c0.31,0.23,0.46,0.59,0.46,1.09
	c0,0.27-0.04,0.51-0.12,0.7c-0.08,0.19-0.2,0.34-0.37,0.46s-0.39,0.2-0.65,0.25s-0.58,0.08-0.96,0.08h-2.76V228.34z M307.28,227.83
	c-0.2-0.25-0.43-0.46-0.7-0.63c-0.27-0.17-0.57-0.3-0.89-0.4s-0.67-0.17-1.03-0.22s-0.74-0.06-1.12-0.06h-4.26v11.11h2.07v-4.18
	h2.28c1.42,0,2.48-0.3,3.2-0.89c0.72-0.59,1.07-1.48,1.07-2.66c0-0.45-0.05-0.84-0.16-1.19
	C307.62,228.38,307.47,228.09,307.28,227.83z M305.67,230.64c-0.08,0.2-0.2,0.37-0.37,0.5s-0.39,0.24-0.66,0.31
	c-0.27,0.07-0.59,0.11-0.97,0.11h-2.32v-3.12h2.28c0.29,0,0.56,0.02,0.82,0.06s0.49,0.11,0.69,0.22c0.2,0.11,0.35,0.26,0.47,0.46
	s0.18,0.45,0.18,0.77C305.78,230.2,305.74,230.44,305.67,230.64z M311.5,228.44v2.51h5.78v1.9h-5.78v2.88h6.42v1.91h-8.49v-11.11
	h8.25v1.91H311.5z M328.16,231.52c0.33-0.49,0.49-1.07,0.49-1.75c0-0.23-0.02-0.46-0.07-0.69c-0.05-0.23-0.11-0.46-0.21-0.67
	c-0.09-0.21-0.2-0.42-0.34-0.61c-0.14-0.19-0.3-0.37-0.48-0.52c-0.21-0.18-0.42-0.31-0.65-0.41c-0.23-0.1-0.46-0.18-0.71-0.23
	c-0.25-0.05-0.5-0.08-0.77-0.1c-0.27-0.01-0.55-0.02-0.85-0.02h-4.98v11.11h2.07v-4.47h2.23c0.23,0,0.45,0.04,0.65,0.11
	c0.21,0.07,0.39,0.17,0.56,0.3c0.17,0.13,0.32,0.28,0.44,0.45s0.23,0.37,0.31,0.58l1.06,3.02h2.23l-1.19-3.29
	c-0.3-0.78-0.68-1.35-1.16-1.71C327.38,232.38,327.83,232.01,328.16,231.52z M326.41,230.47c-0.08,0.19-0.2,0.34-0.37,0.46
	c-0.17,0.12-0.39,0.2-0.65,0.25c-0.27,0.05-0.58,0.08-0.96,0.08h-2.76v-2.92h2.97c0.64,0,1.11,0.12,1.42,0.35
	c0.31,0.23,0.46,0.59,0.46,1.09C326.53,230.05,326.49,230.28,326.41,230.47z M337.9,227.21c-0.27-0.17-0.57-0.3-0.89-0.4
	c-0.33-0.1-0.67-0.17-1.03-0.22c-0.36-0.04-0.74-0.06-1.12-0.06h-4.26v11.11h2.07v-4.18h2.28c1.42,0,2.48-0.3,3.2-0.89
	c0.71-0.59,1.07-1.48,1.07-2.66c0-0.45-0.06-0.84-0.17-1.19c-0.11-0.34-0.26-0.64-0.46-0.89
	C338.4,227.58,338.17,227.38,337.9,227.21z M336.99,230.64c-0.08,0.2-0.2,0.37-0.37,0.5c-0.17,0.14-0.39,0.24-0.66,0.31
	c-0.27,0.07-0.59,0.11-0.97,0.11h-2.32v-3.12h2.28c0.29,0,0.56,0.02,0.82,0.06c0.26,0.04,0.49,0.11,0.69,0.22
	c0.2,0.11,0.36,0.26,0.47,0.46s0.18,0.45,0.18,0.77C337.1,230.2,337.06,230.44,336.99,230.64z M342.82,228.44v2.51h5.78v1.9h-5.78
	v2.88h6.42v1.91h-8.49v-11.11H349v1.91H342.82z M350.04,226.53h8.98v1.91h-3.46v9.2h-2.08v-9.2h-3.44V226.53z M367.02,226.53h2.09
	v6.37c0,0.77-0.07,1.46-0.2,2.07c-0.13,0.61-0.37,1.13-0.71,1.55c-0.34,0.42-0.79,0.74-1.37,0.97c-0.57,0.22-1.3,0.33-2.19,0.33
	c-0.7,0-1.29-0.07-1.79-0.21c-0.49-0.14-0.9-0.33-1.23-0.57c-0.33-0.24-0.59-0.52-0.78-0.84s-0.33-0.67-0.43-1.03
	c-0.1-0.36-0.16-0.74-0.18-1.13c-0.02-0.39-0.04-0.77-0.04-1.15v-6.37h2.07v6.35c0,0.63,0.05,1.14,0.16,1.54
	c0.11,0.4,0.26,0.71,0.46,0.93c0.2,0.22,0.45,0.37,0.75,0.45c0.3,0.08,0.63,0.12,1.01,0.12c0.38,0,0.73-0.04,1.02-0.12
	c0.3-0.08,0.55-0.24,0.74-0.46c0.2-0.22,0.35-0.53,0.45-0.93c0.1-0.4,0.15-0.91,0.15-1.54V226.53z M374.13,226.53l-4.27,11.11h2.2
	l1.16-3.18h3.89l1.22,3.18h2.31l-4.52-11.11H374.13z M373.83,232.7l1.27-3.52l1.35,3.52H373.83z M388.49,235.73v1.91h-7.17v-11.11
	h2.07v9.2H388.49z M267.95,240.95h-4.62v14.04h4.62c4.78,0,7.17-2.36,7.17-7.09C275.12,243.27,272.73,240.95,267.95,240.95z
	 M272.24,249.87c-0.14,0.58-0.39,1.07-0.73,1.47s-0.81,0.71-1.39,0.92c-0.58,0.21-1.31,0.32-2.18,0.32h-1.99v-9.21h1.99
	c0.88,0,1.61,0.1,2.19,0.31c0.58,0.21,1.04,0.5,1.39,0.89c0.35,0.39,0.59,0.86,0.73,1.42s0.21,1.2,0.21,1.9
	C272.45,248.63,272.38,249.29,272.24,249.87z M280.92,240.95l-5.39,14.04h2.77l1.46-4.01h4.91l1.54,4.01h2.92l-5.72-14.04H280.92z
	 M280.55,248.75l1.61-4.45l1.7,4.45H280.55z M302.02,240.95l-5.56,8.14v5.9h-2.62v-5.9l-5.57-8.14h3.17l3.71,5.69l3.69-5.69H302.02z
	 M301.63,248.7h5.7v2.42h-5.7V248.7z M313.36,240.95h-4.62v14.04h4.62c4.78,0,7.17-2.36,7.17-7.09
	C320.53,243.27,318.14,240.95,313.36,240.95z M317.64,249.87c-0.14,0.58-0.38,1.07-0.73,1.47c-0.34,0.4-0.81,0.71-1.39,0.92
	c-0.58,0.21-1.31,0.32-2.18,0.32h-1.99v-9.21h1.99c0.88,0,1.61,0.1,2.19,0.31c0.58,0.21,1.04,0.5,1.39,0.89
	c0.34,0.39,0.59,0.86,0.73,1.42s0.21,1.2,0.21,1.9C317.86,248.63,317.78,249.29,317.64,249.87z M326.33,240.95l-5.39,14.04h2.77
	l1.46-4.01h4.91l1.54,4.01h2.92l-5.72-14.04H326.33z M325.96,248.75l1.61-4.45l1.7,4.45H325.96z M334.36,240.95h11.34v2.41h-4.37
	v11.62h-2.63v-11.62h-4.35V240.95z M349.79,252.58h8.11v2.41h-10.73v-14.04h10.42v2.41h-7.8v3.17h7.31v2.4h-7.31V252.58z
	 M235.21,415.26c-0.54,0-1.02-0.07-1.43-0.21s-0.75-0.34-1.02-0.59s-0.48-0.56-0.62-0.91s-0.22-0.74-0.23-1.16h1.38
	c0.02,0.27,0.09,0.51,0.2,0.7c0.11,0.2,0.25,0.36,0.41,0.49c0.17,0.13,0.36,0.23,0.57,0.29c0.22,0.06,0.45,0.09,0.69,0.09
	c0.23,0,0.44-0.02,0.63-0.07s0.35-0.11,0.49-0.2c0.14-0.08,0.24-0.19,0.31-0.31c0.07-0.12,0.11-0.26,0.11-0.42
	c0-0.16-0.04-0.29-0.11-0.4s-0.19-0.21-0.35-0.3c-0.16-0.09-0.37-0.17-0.63-0.24c-0.26-0.07-0.58-0.15-0.96-0.22
	c-0.43-0.1-0.81-0.21-1.12-0.34c-0.31-0.13-0.57-0.28-0.77-0.46c-0.2-0.18-0.35-0.38-0.45-0.61c-0.1-0.23-0.15-0.49-0.15-0.79
	c0-0.32,0.07-0.62,0.2-0.88c0.13-0.27,0.32-0.5,0.57-0.7s0.54-0.35,0.88-0.46s0.72-0.17,1.14-0.17c0.43,0,0.83,0.06,1.19,0.18
	c0.36,0.12,0.67,0.29,0.93,0.51s0.47,0.49,0.61,0.82c0.15,0.32,0.23,0.69,0.24,1.1h-1.36c-0.1-0.87-0.62-1.3-1.57-1.3
	c-0.46,0-0.81,0.08-1.06,0.23c-0.24,0.16-0.37,0.37-0.37,0.64c0,0.11,0.03,0.21,0.08,0.29c0.05,0.08,0.14,0.16,0.26,0.23
	c0.12,0.07,0.27,0.13,0.45,0.19s0.41,0.11,0.67,0.17c0.23,0.05,0.46,0.1,0.7,0.16c0.24,0.06,0.47,0.13,0.7,0.21s0.44,0.18,0.65,0.29
	s0.38,0.25,0.53,0.42c0.15,0.16,0.27,0.36,0.36,0.58c0.09,0.22,0.13,0.48,0.13,0.78c0,0.35-0.07,0.67-0.22,0.96s-0.34,0.54-0.6,0.75
	c-0.26,0.21-0.56,0.37-0.91,0.49C236.01,415.2,235.63,415.26,235.21,415.26z M242.28,415.26c-0.48,0-0.89-0.05-1.22-0.14
	c-0.34-0.1-0.62-0.22-0.84-0.39c-0.23-0.16-0.4-0.36-0.53-0.58s-0.23-0.46-0.3-0.7c-0.07-0.25-0.11-0.51-0.13-0.77
	s-0.02-0.53-0.02-0.79v-4.36h1.42v4.35c0,0.43,0.04,0.78,0.11,1.05s0.18,0.48,0.32,0.64s0.31,0.26,0.51,0.31
	c0.2,0.06,0.43,0.08,0.69,0.08c0.26,0,0.5-0.03,0.7-0.08s0.37-0.16,0.51-0.31s0.24-0.36,0.31-0.63c0.07-0.27,0.11-0.62,0.11-1.05
	v-4.35h1.43v4.36c0,0.53-0.05,1-0.14,1.42s-0.25,0.77-0.48,1.06s-0.54,0.51-0.93,0.66C243.38,415.18,242.88,415.26,242.28,415.26z
	 M246.76,407.53h2.92c0.26,0,0.52,0.01,0.76,0.04c0.25,0.03,0.48,0.08,0.71,0.15c0.22,0.07,0.43,0.16,0.61,0.28
	c0.19,0.11,0.34,0.26,0.48,0.43c0.13,0.17,0.24,0.38,0.31,0.61c0.08,0.23,0.11,0.5,0.11,0.81c0,0.81-0.25,1.42-0.73,1.82
	c-0.49,0.41-1.22,0.61-2.19,0.61h-1.56v2.86h-1.42V407.53z M248.18,410.98h1.59c0.26,0,0.48-0.02,0.67-0.07
	c0.18-0.05,0.33-0.12,0.45-0.21s0.2-0.21,0.25-0.35c0.05-0.14,0.08-0.3,0.08-0.48c0-0.22-0.04-0.39-0.12-0.53s-0.19-0.24-0.32-0.31
	s-0.29-0.13-0.47-0.15c-0.18-0.02-0.37-0.04-0.56-0.04h-1.56V410.98z M259.53,415.14h-5.81v-7.61h5.65v1.31h-4.23v1.72h3.96v1.3
	h-3.96v1.98h4.4V415.14z M267.22,415.14h-1.53l-0.73-2.07c-0.05-0.14-0.12-0.28-0.21-0.4c-0.09-0.12-0.19-0.22-0.3-0.31
	s-0.24-0.16-0.38-0.21c-0.14-0.05-0.29-0.08-0.45-0.08h-1.52v3.06h-1.42v-7.61h3.41c0.2,0,0.4,0,0.58,0.01
	c0.18,0.01,0.36,0.03,0.53,0.07c0.17,0.04,0.33,0.09,0.49,0.16c0.16,0.07,0.3,0.16,0.44,0.28c0.12,0.11,0.23,0.23,0.33,0.36
	c0.09,0.13,0.17,0.27,0.23,0.42c0.06,0.15,0.11,0.3,0.14,0.46c0.03,0.16,0.05,0.32,0.05,0.47c0,0.46-0.11,0.86-0.34,1.2
	c-0.22,0.33-0.53,0.59-0.93,0.76c0.32,0.25,0.59,0.64,0.79,1.17L267.22,415.14z M262.1,410.78h1.89c0.25,0,0.47-0.02,0.65-0.05
	s0.33-0.09,0.45-0.17s0.2-0.19,0.25-0.32c0.05-0.13,0.08-0.29,0.08-0.48c0-0.34-0.11-0.58-0.32-0.74c-0.21-0.16-0.53-0.24-0.97-0.24
	h-2.03V410.78z M273.09,415.14h-4.91v-7.61h1.42v6.3h3.49V415.14z M280.43,415.14h-1.58l-0.83-2.17h-2.66l-0.79,2.17h-1.5l2.92-7.61
	h1.35L280.43,415.14z M277.57,411.76l-0.92-2.41l-0.87,2.41H277.57z M286.48,408.84h-2.37v6.3h-1.42v-6.3h-2.36v-1.31h6.14V408.84z
	 M288.75,415.14h-1.41v-7.61h1.41V415.14z M296.47,407.53l-2.96,7.61h-1.31l-2.96-7.61h1.52l2.08,5.68l2.1-5.68H296.47z
	 M302.85,415.14h-5.81v-7.61h5.65v1.31h-4.23v1.72h3.96v1.3h-3.96v1.98h4.4V415.14z M311.57,410.15c-0.02-0.23-0.07-0.43-0.16-0.61
	c-0.09-0.18-0.21-0.34-0.36-0.47c-0.15-0.13-0.33-0.23-0.53-0.3s-0.42-0.1-0.65-0.1c-0.33,0-0.62,0.06-0.88,0.17
	c-0.26,0.12-0.48,0.29-0.67,0.51s-0.33,0.5-0.43,0.83c-0.1,0.33-0.15,0.71-0.15,1.14s0.05,0.81,0.15,1.14
	c0.1,0.33,0.24,0.61,0.42,0.83s0.4,0.4,0.66,0.52c0.26,0.12,0.55,0.18,0.87,0.18c0.24,0,0.47-0.03,0.67-0.1s0.38-0.17,0.53-0.31
	c0.15-0.14,0.27-0.3,0.36-0.5c0.09-0.2,0.15-0.42,0.17-0.68h1.45c-0.04,0.45-0.15,0.86-0.32,1.21c-0.17,0.35-0.4,0.65-0.68,0.89
	s-0.6,0.43-0.97,0.55c-0.37,0.13-0.77,0.19-1.2,0.19c-0.55,0-1.04-0.09-1.48-0.28c-0.44-0.19-0.81-0.45-1.12-0.79
	s-0.55-0.75-0.71-1.24c-0.17-0.48-0.25-1.03-0.25-1.62c0-0.6,0.08-1.14,0.25-1.62c0.17-0.48,0.41-0.9,0.72-1.24
	c0.31-0.34,0.69-0.61,1.13-0.79s0.93-0.28,1.47-0.28c0.41,0,0.8,0.07,1.16,0.2c0.36,0.13,0.69,0.32,0.97,0.56
	c0.28,0.24,0.52,0.53,0.7,0.87c0.18,0.34,0.29,0.72,0.33,1.13H311.57z M320.25,415.14h-1.43v-3.37h-3.25v3.37h-1.42v-7.61h1.42v2.93
	h3.25v-2.93h1.43V415.14z M328.23,415.14h-1.53l-0.73-2.07c-0.05-0.14-0.12-0.28-0.21-0.4s-0.19-0.22-0.3-0.31s-0.24-0.16-0.38-0.21
	c-0.14-0.05-0.29-0.08-0.45-0.08h-1.52v3.06h-1.42v-7.61h3.41c0.2,0,0.4,0,0.58,0.01c0.18,0.01,0.36,0.03,0.53,0.07
	c0.17,0.04,0.33,0.09,0.49,0.16s0.3,0.16,0.44,0.28c0.12,0.11,0.23,0.23,0.33,0.36s0.17,0.27,0.23,0.42
	c0.06,0.15,0.11,0.3,0.14,0.46c0.03,0.16,0.05,0.32,0.05,0.47c0,0.46-0.11,0.86-0.34,1.2c-0.22,0.33-0.53,0.59-0.93,0.76
	c0.32,0.25,0.59,0.64,0.79,1.17L328.23,415.14z M323.11,410.78H325c0.25,0,0.47-0.02,0.65-0.05c0.18-0.04,0.33-0.09,0.45-0.17
	s0.2-0.19,0.25-0.32c0.05-0.13,0.08-0.29,0.08-0.48c0-0.34-0.11-0.58-0.32-0.74c-0.21-0.16-0.54-0.24-0.97-0.24h-2.04V410.78z
	 M332.56,407.41c0.53,0,1.02,0.09,1.47,0.28c0.45,0.19,0.83,0.45,1.16,0.79s0.58,0.75,0.76,1.24c0.18,0.48,0.27,1.02,0.27,1.61
	c0,0.58-0.09,1.11-0.27,1.59c-0.18,0.48-0.43,0.89-0.75,1.24s-0.71,0.61-1.16,0.81c-0.45,0.19-0.94,0.29-1.48,0.29
	s-1.03-0.09-1.48-0.29c-0.45-0.19-0.83-0.46-1.16-0.8c-0.32-0.34-0.58-0.76-0.75-1.24c-0.18-0.48-0.27-1.02-0.27-1.6
	c0-0.59,0.09-1.13,0.27-1.61c0.18-0.48,0.44-0.9,0.76-1.24c0.33-0.34,0.71-0.61,1.16-0.79C331.54,407.5,332.03,407.41,332.56,407.41
	z M332.56,414c0.32,0,0.62-0.06,0.89-0.18c0.27-0.12,0.51-0.3,0.7-0.53c0.2-0.23,0.35-0.51,0.46-0.84s0.16-0.7,0.16-1.12
	c0-0.42-0.05-0.8-0.17-1.13s-0.26-0.61-0.46-0.83c-0.2-0.23-0.43-0.4-0.7-0.52c-0.27-0.12-0.56-0.18-0.88-0.18
	c-0.32,0-0.62,0.06-0.89,0.18c-0.27,0.12-0.51,0.29-0.71,0.52c-0.2,0.23-0.35,0.51-0.46,0.83s-0.17,0.7-0.17,1.12
	c0,0.42,0.05,0.79,0.17,1.12s0.26,0.61,0.46,0.84c0.2,0.23,0.43,0.4,0.7,0.53C331.94,413.94,332.23,414,332.56,414z M343.45,415.14
	h-1.34l-3.39-5.09v5.09h-1.37v-7.61h1.34l3.38,5.1v-5.1h1.38V415.14z M348.23,407.41c0.53,0,1.02,0.09,1.47,0.28
	c0.45,0.19,0.83,0.45,1.16,0.79s0.58,0.75,0.76,1.24c0.18,0.48,0.27,1.02,0.27,1.61c0,0.58-0.09,1.11-0.27,1.59
	c-0.18,0.48-0.43,0.89-0.75,1.24s-0.71,0.61-1.16,0.81c-0.45,0.19-0.94,0.29-1.48,0.29s-1.03-0.09-1.48-0.29
	c-0.45-0.19-0.83-0.46-1.16-0.8c-0.32-0.34-0.58-0.76-0.75-1.24c-0.18-0.48-0.27-1.02-0.27-1.6c0-0.59,0.09-1.13,0.27-1.61
	c0.18-0.48,0.44-0.9,0.76-1.24c0.33-0.34,0.71-0.61,1.16-0.79C347.21,407.5,347.7,407.41,348.23,407.41z M348.22,414
	c0.32,0,0.62-0.06,0.89-0.18c0.27-0.12,0.51-0.3,0.7-0.53c0.2-0.23,0.35-0.51,0.46-0.84s0.16-0.7,0.16-1.12
	c0-0.42-0.05-0.8-0.17-1.13s-0.26-0.61-0.46-0.83c-0.2-0.23-0.43-0.4-0.7-0.52c-0.27-0.12-0.56-0.18-0.88-0.18
	c-0.32,0-0.62,0.06-0.89,0.18c-0.27,0.12-0.51,0.29-0.71,0.52c-0.2,0.23-0.35,0.51-0.46,0.83s-0.17,0.7-0.17,1.12
	c0,0.42,0.05,0.79,0.17,1.12s0.26,0.61,0.46,0.84c0.2,0.23,0.43,0.4,0.7,0.53C347.6,413.94,347.9,414,348.22,414z M360.24,415.14
	h-1.38v-4.87l-1.64,4.87h-1.19l-1.63-4.87v4.87h-1.37v-7.61h1.84l1.76,5.42l1.77-5.42h1.84V415.14z M367.54,415.14h-5.81v-7.61h5.65
	v1.31h-4.23v1.72h3.96v1.3h-3.96v1.98h4.4V415.14z M374.24,408.84h-2.37v6.3h-1.42v-6.3h-2.36v-1.31h6.14V408.84z M380.85,415.14
	h-5.81v-7.61h5.65v1.31h-4.23v1.72h3.96v1.3h-3.96v1.98h4.4V415.14z M388.54,415.14h-1.53l-0.73-2.07c-0.05-0.14-0.12-0.28-0.21-0.4
	s-0.19-0.22-0.3-0.31s-0.24-0.16-0.38-0.21c-0.14-0.05-0.29-0.08-0.45-0.08h-1.52v3.06H382v-7.61h3.41c0.2,0,0.4,0,0.58,0.01
	c0.18,0.01,0.36,0.03,0.53,0.07c0.17,0.04,0.33,0.09,0.49,0.16s0.3,0.16,0.44,0.28c0.12,0.11,0.23,0.23,0.33,0.36
	s0.17,0.27,0.23,0.42c0.06,0.15,0.11,0.3,0.14,0.46c0.03,0.16,0.05,0.32,0.05,0.47c0,0.46-0.11,0.86-0.34,1.2
	c-0.22,0.33-0.53,0.59-0.93,0.76c0.32,0.25,0.59,0.64,0.79,1.17L388.54,415.14z M383.42,410.78h1.89c0.25,0,0.47-0.02,0.65-0.05
	c0.18-0.04,0.33-0.09,0.45-0.17s0.2-0.19,0.25-0.32c0.05-0.13,0.08-0.29,0.08-0.48c0-0.34-0.11-0.58-0.32-0.74
	c-0.21-0.16-0.54-0.24-0.97-0.24h-2.04V410.78z M255.8,419.73c0.53,0,1.02,0.09,1.47,0.28c0.45,0.19,0.83,0.45,1.16,0.79
	s0.58,0.75,0.76,1.24c0.18,0.48,0.27,1.02,0.27,1.61c0,0.58-0.09,1.11-0.27,1.59c-0.18,0.48-0.43,0.89-0.75,1.24
	c-0.32,0.35-0.71,0.61-1.16,0.81s-0.94,0.29-1.48,0.29c-0.54,0-1.03-0.09-1.48-0.29s-0.83-0.46-1.16-0.8
	c-0.32-0.34-0.58-0.76-0.75-1.24c-0.18-0.48-0.27-1.02-0.27-1.6c0-0.59,0.09-1.13,0.27-1.61c0.18-0.48,0.44-0.9,0.76-1.24
	c0.33-0.34,0.71-0.61,1.16-0.79S255.27,419.73,255.8,419.73z M255.79,426.32c0.32,0,0.62-0.06,0.89-0.18
	c0.27-0.12,0.51-0.3,0.7-0.53c0.2-0.23,0.35-0.51,0.46-0.84c0.11-0.33,0.16-0.7,0.16-1.12c0-0.42-0.06-0.8-0.17-1.13
	c-0.11-0.33-0.26-0.61-0.46-0.83c-0.2-0.23-0.43-0.4-0.7-0.52c-0.27-0.12-0.56-0.18-0.87-0.18c-0.32,0-0.62,0.06-0.89,0.18
	c-0.27,0.12-0.51,0.29-0.71,0.52c-0.2,0.23-0.35,0.51-0.46,0.83s-0.17,0.7-0.17,1.12c0,0.42,0.06,0.79,0.17,1.12
	s0.26,0.61,0.46,0.84c0.2,0.23,0.43,0.4,0.7,0.53C255.18,426.25,255.47,426.32,255.79,426.32z M265.88,421.16h-3.89v1.75h3.38v1.3
	h-3.38v3.24h-1.42v-7.61h5.31V421.16z M272.23,421.16h-3.89v1.75h3.38v1.3h-3.38v3.24h-1.42v-7.61h5.31V421.16z M274.76,427.46
	h-1.41v-7.61h1.41V427.46z M281.05,422.47c-0.02-0.23-0.07-0.43-0.16-0.61c-0.09-0.18-0.21-0.34-0.36-0.47
	c-0.15-0.13-0.33-0.23-0.53-0.3s-0.42-0.1-0.65-0.1c-0.33,0-0.62,0.06-0.88,0.17c-0.26,0.12-0.48,0.29-0.67,0.51
	s-0.33,0.5-0.43,0.83c-0.1,0.33-0.15,0.71-0.15,1.14s0.05,0.81,0.15,1.14c0.1,0.33,0.24,0.61,0.42,0.83s0.4,0.4,0.66,0.52
	c0.26,0.12,0.55,0.18,0.87,0.18c0.24,0,0.47-0.03,0.67-0.1s0.38-0.17,0.53-0.31c0.15-0.14,0.27-0.3,0.36-0.5
	c0.09-0.2,0.15-0.42,0.17-0.68h1.45c-0.04,0.45-0.15,0.86-0.32,1.21c-0.17,0.35-0.4,0.65-0.68,0.89c-0.28,0.24-0.6,0.43-0.97,0.55
	c-0.37,0.13-0.77,0.19-1.2,0.19c-0.55,0-1.04-0.09-1.48-0.28c-0.44-0.19-0.81-0.45-1.12-0.79s-0.55-0.75-0.71-1.24
	c-0.17-0.48-0.25-1.03-0.25-1.62c0-0.6,0.08-1.14,0.25-1.62c0.17-0.48,0.41-0.9,0.72-1.24c0.31-0.34,0.69-0.61,1.13-0.79
	s0.93-0.28,1.47-0.28c0.41,0,0.8,0.07,1.16,0.2c0.36,0.13,0.69,0.32,0.97,0.56s0.51,0.53,0.7,0.87c0.18,0.34,0.29,0.72,0.33,1.13
	H281.05z M285.11,427.46h-1.41v-7.61h1.41V427.46z M292.9,427.46h-1.58l-0.83-2.17h-2.66l-0.79,2.17h-1.5l2.92-7.61h1.35
	L292.9,427.46z M290.05,424.08l-0.92-2.41l-0.87,2.41H290.05z M298.29,427.46h-4.91v-7.61h1.42v6.3h3.49V427.46z M304.06,427.46
	h-4.91v-7.61h1.42v6.3h3.49V427.46z M311.43,419.85l-3.01,4.41v3.2H307v-3.2l-3.02-4.41h1.72l2.01,3.08l2-3.08H311.43z
	 M319.46,422.47c-0.02-0.23-0.07-0.43-0.16-0.61c-0.09-0.18-0.21-0.34-0.36-0.47c-0.15-0.13-0.33-0.23-0.53-0.3s-0.42-0.1-0.65-0.1
	c-0.33,0-0.62,0.06-0.88,0.17s-0.48,0.29-0.67,0.51s-0.33,0.5-0.43,0.83c-0.1,0.33-0.15,0.71-0.15,1.14s0.05,0.81,0.15,1.14
	c0.1,0.33,0.24,0.61,0.42,0.83c0.18,0.23,0.4,0.4,0.66,0.52c0.26,0.12,0.55,0.18,0.87,0.18c0.24,0,0.47-0.03,0.67-0.1
	s0.38-0.17,0.53-0.31c0.15-0.14,0.27-0.3,0.36-0.5c0.09-0.2,0.15-0.42,0.17-0.68h1.45c-0.04,0.45-0.15,0.86-0.32,1.21
	c-0.17,0.35-0.4,0.65-0.68,0.89s-0.6,0.43-0.97,0.55c-0.37,0.13-0.77,0.19-1.2,0.19c-0.55,0-1.04-0.09-1.48-0.28
	s-0.81-0.45-1.12-0.79c-0.31-0.34-0.55-0.75-0.71-1.24c-0.17-0.48-0.25-1.03-0.25-1.62c0-0.6,0.08-1.14,0.25-1.62
	c0.17-0.48,0.41-0.9,0.72-1.24c0.31-0.34,0.69-0.61,1.13-0.79s0.93-0.28,1.47-0.28c0.41,0,0.8,0.07,1.16,0.2
	c0.36,0.13,0.69,0.32,0.97,0.56s0.51,0.53,0.7,0.87c0.18,0.34,0.29,0.72,0.33,1.13H319.46z M327.86,427.46h-5.81v-7.61h5.65v1.31
	h-4.23v1.72h3.96v1.3h-3.96v1.98h4.4V427.46z M335.54,427.46h-1.53l-0.73-2.07c-0.05-0.14-0.12-0.28-0.21-0.4s-0.19-0.22-0.3-0.31
	s-0.24-0.16-0.38-0.21c-0.14-0.05-0.29-0.08-0.45-0.08h-1.52v3.06H329v-7.61h3.41c0.2,0,0.4,0,0.58,0.01
	c0.18,0.01,0.36,0.03,0.53,0.07c0.17,0.04,0.33,0.09,0.49,0.16s0.3,0.16,0.44,0.28c0.12,0.11,0.23,0.23,0.33,0.36
	s0.17,0.27,0.23,0.42c0.06,0.15,0.11,0.3,0.14,0.46c0.03,0.16,0.05,0.32,0.05,0.47c0,0.46-0.11,0.86-0.34,1.2
	c-0.22,0.33-0.53,0.59-0.93,0.76c0.32,0.25,0.59,0.64,0.79,1.17L335.54,427.46z M330.42,423.09h1.89c0.25,0,0.47-0.02,0.65-0.05
	c0.18-0.04,0.33-0.09,0.45-0.17s0.2-0.19,0.25-0.32c0.05-0.13,0.08-0.29,0.08-0.48c0-0.34-0.11-0.58-0.32-0.74
	c-0.21-0.16-0.54-0.24-0.97-0.24h-2.04V423.09z M342.08,421.16h-2.37v6.3h-1.42v-6.3h-2.36v-1.31h6.14V421.16z M344.36,427.46h-1.41
	v-7.61h1.41V427.46z M350.99,421.16h-3.89v1.75h3.38v1.3h-3.38v3.24h-1.42v-7.61h5.31V421.16z M353.52,427.46h-1.41v-7.61h1.41
	V427.46z M360.67,427.46h-5.81v-7.61h5.65v1.31h-4.23v1.72h3.96v1.3h-3.96v1.98h4.4V427.46z M368.21,423.61
	c0,2.56-1.29,3.84-3.88,3.84h-2.51v-7.61h2.51C366.92,419.85,368.21,421.1,368.21,423.61z M366.76,423.61
	c0-0.38-0.04-0.73-0.11-1.03c-0.08-0.3-0.21-0.56-0.39-0.77c-0.19-0.21-0.44-0.37-0.75-0.48s-0.71-0.17-1.19-0.17h-1.08v4.99h1.08
	c0.47,0,0.87-0.06,1.18-0.17c0.31-0.12,0.56-0.28,0.75-0.5c0.19-0.22,0.32-0.48,0.4-0.8C366.72,424.37,366.76,424.01,366.76,423.61z
	 M260.73,541.18c-0.63-0.13-1.16-0.31-1.6-0.53s-0.79-0.47-1.06-0.76c-0.27-0.28-0.45-0.59-0.54-0.93c-0.1-0.33-0.11-0.68-0.05-1.04
	c0.63,0.14,0.94,0.21,1.56,0.34c-0.02,0.24,0.01,0.45,0.1,0.65c0.09,0.19,0.21,0.37,0.38,0.52c0.17,0.15,0.37,0.28,0.6,0.38
	s0.49,0.19,0.77,0.24c0.26,0.05,0.51,0.08,0.73,0.09c0.23,0.01,0.42-0.01,0.59-0.05c0.17-0.04,0.31-0.11,0.41-0.2
	c0.1-0.09,0.17-0.2,0.2-0.33c0.03-0.13,0.01-0.26-0.05-0.37s-0.18-0.22-0.35-0.33c-0.17-0.11-0.39-0.23-0.68-0.35
	c-0.28-0.12-0.64-0.26-1.05-0.42c-0.47-0.18-0.88-0.37-1.21-0.56c-0.33-0.19-0.6-0.38-0.79-0.58c-0.2-0.2-0.33-0.41-0.39-0.63
	s-0.07-0.45-0.02-0.7c0.06-0.27,0.19-0.5,0.39-0.7c0.2-0.19,0.46-0.34,0.77-0.45c0.31-0.11,0.67-0.16,1.07-0.18s0.83,0.03,1.3,0.13
	c0.49,0.1,0.92,0.24,1.3,0.42c0.38,0.18,0.7,0.4,0.95,0.64s0.44,0.52,0.55,0.83c0.11,0.31,0.14,0.63,0.09,0.98
	c-0.62-0.12-0.92-0.18-1.54-0.3c0.03-0.76-0.48-1.24-1.54-1.46c-0.52-0.11-0.93-0.13-1.23-0.05c-0.3,0.07-0.48,0.23-0.53,0.45
	c-0.02,0.09-0.01,0.18,0.04,0.26c0.04,0.08,0.13,0.17,0.25,0.25c0.12,0.09,0.28,0.18,0.47,0.27c0.2,0.09,0.44,0.19,0.72,0.3
	c0.25,0.09,0.5,0.19,0.76,0.29c0.26,0.1,0.51,0.22,0.76,0.34c0.25,0.12,0.47,0.25,0.68,0.39c0.21,0.14,0.39,0.3,0.54,0.48
	s0.25,0.36,0.32,0.57c0.06,0.21,0.07,0.44,0.02,0.69c-0.06,0.3-0.19,0.56-0.4,0.77c-0.21,0.22-0.48,0.38-0.81,0.5
	c-0.33,0.12-0.71,0.19-1.13,0.21S261.21,541.28,260.73,541.18z M276.85,537.18c-1.32,2.48-2,3.71-3.37,6.17
	c-0.58-0.09-0.88-0.13-1.46-0.23c-0.41-2.02-0.61-3.04-1-5.06c-1.01,1.79-1.52,2.69-2.56,4.47c-0.59-0.1-0.88-0.15-1.46-0.26
	c-0.51-2.77-0.74-4.16-1.2-6.93c0.67,0.13,1,0.19,1.67,0.31c0.24,1.85,0.37,2.77,0.64,4.62c0.96-1.63,1.43-2.45,2.36-4.1
	c0.68,0.11,1.02,0.17,1.69,0.28c0.35,1.85,0.53,2.78,0.9,4.63c0.85-1.66,1.27-2.5,2.1-4.17
	C275.84,537.04,276.17,537.09,276.85,537.18z M278.52,544.07c-0.66-0.09-0.98-0.13-1.64-0.22c0.36-2.62,0.54-3.92,0.9-6.54
	c0.64,0.09,0.96,0.13,1.59,0.21C279.03,540.14,278.86,541.45,278.52,544.07z M283.46,544.77c-0.63-0.07-1.18-0.19-1.63-0.37
	s-0.83-0.4-1.12-0.65c-0.29-0.26-0.5-0.55-0.62-0.87c-0.13-0.32-0.17-0.67-0.14-1.03c0.63,0.08,0.95,0.12,1.58,0.19
	c0,0.24,0.05,0.45,0.16,0.63c0.1,0.19,0.25,0.35,0.43,0.48c0.18,0.13,0.39,0.24,0.63,0.32c0.24,0.08,0.51,0.14,0.79,0.17
	c0.27,0.03,0.51,0.04,0.74,0.02c0.22-0.02,0.42-0.05,0.58-0.11c0.16-0.06,0.29-0.14,0.39-0.23c0.1-0.1,0.15-0.21,0.16-0.35
	c0.01-0.14-0.02-0.25-0.09-0.36s-0.2-0.2-0.37-0.3c-0.18-0.09-0.41-0.19-0.7-0.28c-0.29-0.09-0.66-0.2-1.08-0.31
	c-0.49-0.14-0.91-0.29-1.25-0.44c-0.35-0.15-0.63-0.32-0.84-0.5c-0.21-0.18-0.36-0.38-0.45-0.59c-0.09-0.21-0.11-0.44-0.08-0.7
	c0.03-0.28,0.14-0.52,0.32-0.73c0.18-0.21,0.42-0.39,0.72-0.52c0.3-0.14,0.65-0.23,1.04-0.28s0.83-0.05,1.3,0
	c0.49,0.05,0.93,0.15,1.33,0.3c0.4,0.14,0.73,0.33,1.01,0.55c0.28,0.22,0.48,0.48,0.63,0.77c0.14,0.29,0.2,0.62,0.18,0.97
	c-0.62-0.06-0.93-0.09-1.56-0.16c-0.04-0.76-0.59-1.19-1.66-1.31c-0.52-0.06-0.93-0.04-1.22,0.06c-0.29,0.1-0.45,0.27-0.48,0.5
	c-0.01,0.1,0.01,0.18,0.06,0.26c0.05,0.08,0.14,0.15,0.27,0.23c0.13,0.07,0.29,0.15,0.5,0.22c0.2,0.07,0.45,0.15,0.74,0.23
	c0.26,0.07,0.52,0.14,0.78,0.22c0.27,0.08,0.53,0.17,0.78,0.26c0.25,0.1,0.49,0.21,0.71,0.33c0.22,0.12,0.41,0.26,0.58,0.42
	c0.16,0.16,0.29,0.34,0.37,0.54c0.08,0.2,0.11,0.43,0.09,0.69c-0.03,0.3-0.14,0.57-0.33,0.81c-0.19,0.24-0.44,0.43-0.76,0.58
	c-0.31,0.15-0.68,0.26-1.11,0.31C284.4,544.82,283.95,544.83,283.46,544.77z M291.55,545.53c-0.63-0.05-1.18-0.15-1.64-0.32
	c-0.46-0.16-0.84-0.37-1.14-0.62c-0.3-0.25-0.52-0.53-0.65-0.85c-0.14-0.32-0.19-0.66-0.18-1.03c0.63,0.06,0.95,0.09,1.59,0.14
	c0.01,0.24,0.07,0.45,0.18,0.63c0.11,0.18,0.26,0.34,0.44,0.47c0.18,0.13,0.4,0.23,0.64,0.3c0.25,0.07,0.51,0.12,0.79,0.14
	c0.27,0.02,0.51,0.02,0.74-0.01c0.22-0.02,0.42-0.07,0.58-0.13c0.16-0.06,0.29-0.15,0.38-0.25c0.09-0.1,0.14-0.22,0.15-0.35
	c0.01-0.14-0.02-0.25-0.1-0.36s-0.2-0.2-0.38-0.28c-0.18-0.09-0.42-0.17-0.71-0.26c-0.3-0.08-0.66-0.17-1.09-0.28
	c-0.49-0.12-0.91-0.26-1.27-0.4c-0.35-0.14-0.64-0.3-0.85-0.47c-0.22-0.17-0.37-0.36-0.47-0.57c-0.09-0.21-0.13-0.44-0.1-0.7
	c0.03-0.28,0.13-0.52,0.3-0.74c0.17-0.22,0.41-0.4,0.7-0.54s0.64-0.25,1.03-0.31c0.39-0.06,0.83-0.08,1.3-0.04
	c0.49,0.04,0.94,0.12,1.34,0.25c0.4,0.13,0.74,0.3,1.02,0.52c0.28,0.21,0.5,0.46,0.65,0.75c0.15,0.29,0.22,0.61,0.21,0.96
	c-0.62-0.04-0.94-0.06-1.56-0.1c-0.06-0.76-0.63-1.17-1.71-1.25c-0.52-0.04-0.93-0.01-1.22,0.11c-0.29,0.11-0.44,0.28-0.46,0.52
	c-0.01,0.1,0.02,0.18,0.07,0.26c0.05,0.08,0.15,0.15,0.28,0.22c0.13,0.07,0.3,0.14,0.5,0.2c0.21,0.07,0.46,0.13,0.75,0.2
	c0.26,0.06,0.52,0.13,0.79,0.2c0.27,0.07,0.53,0.15,0.79,0.24c0.26,0.09,0.5,0.19,0.72,0.3c0.23,0.12,0.42,0.25,0.59,0.4
	c0.17,0.15,0.3,0.33,0.39,0.53c0.09,0.2,0.13,0.43,0.11,0.69c-0.02,0.3-0.12,0.58-0.3,0.82c-0.18,0.24-0.43,0.44-0.74,0.6
	c-0.31,0.16-0.67,0.28-1.09,0.35C292.49,545.55,292.04,545.56,291.55,545.53z M338.21,544.51c-0.64,0.07-0.96,0.11-1.6,0.18
	c-0.18-1.68-0.28-2.52-0.46-4.2c-0.56,1.76-0.85,2.64-1.45,4.4c-0.55,0.06-0.83,0.08-1.39,0.14c-0.92-1.61-1.37-2.42-2.26-4.04
	c0.15,1.68,0.22,2.53,0.37,4.21c-0.64,0.06-0.96,0.08-1.6,0.13c-0.21-2.63-0.32-3.95-0.53-6.58c0.84-0.07,1.25-0.1,2.09-0.18
	c0.96,1.8,1.46,2.7,2.45,4.49c0.63-1.95,0.94-2.93,1.54-4.89c0.83-0.09,1.25-0.14,2.08-0.23
	C337.76,540.58,337.91,541.89,338.21,544.51z M347.43,543.27c-0.73,0.11-1.1,0.17-1.83,0.28c-0.49-0.69-0.74-1.04-1.23-1.73
	c-1.22,0.17-1.84,0.26-3.06,0.42c-0.27,0.8-0.4,1.19-0.67,1.99c-0.7,0.09-1.05,0.13-1.74,0.21c1.05-2.78,1.55-4.18,2.52-6.97
	c0.61-0.08,0.92-0.12,1.53-0.21C344.69,539.68,345.59,540.88,347.43,543.27z M343.71,540.85c-0.54-0.77-0.81-1.15-1.34-1.93
	c-0.28,0.88-0.43,1.32-0.72,2.21C342.48,541.02,342.89,540.97,343.71,540.85z M354.76,538.63c0.41,2.19-0.87,3.57-3.86,4.08
	c-1.16,0.2-1.74,0.29-2.89,0.47c-0.41-2.61-0.61-3.91-1.02-6.52c1.13-0.18,1.69-0.27,2.82-0.46
	C352.71,535.71,354.36,536.49,354.76,538.63z M353.12,538.93c-0.06-0.33-0.16-0.61-0.29-0.86c-0.13-0.24-0.32-0.44-0.56-0.58
	c-0.24-0.14-0.55-0.23-0.92-0.26c-0.37-0.03-0.83,0-1.37,0.09c-0.49,0.08-0.73,0.12-1.22,0.2c0.28,1.71,0.42,2.56,0.7,4.27
	c0.5-0.08,0.74-0.12,1.24-0.21c0.55-0.09,0.99-0.22,1.33-0.38c0.34-0.16,0.61-0.35,0.79-0.58c0.18-0.22,0.29-0.48,0.33-0.76
	C353.19,539.58,353.18,539.27,353.12,538.93z M363.36,540.26c-2.66,0.6-4,0.87-6.67,1.39c-0.5-2.59-0.76-3.89-1.26-6.48
	c2.53-0.49,3.79-0.75,6.31-1.32c0.1,0.44,0.15,0.66,0.25,1.11c-1.9,0.42-2.84,0.62-4.75,1.01c0.12,0.58,0.18,0.88,0.29,1.46
	c1.79-0.36,2.68-0.55,4.47-0.94c0.1,0.44,0.15,0.66,0.24,1.1c-1.79,0.4-2.69,0.59-4.49,0.95c0.14,0.67,0.2,1.01,0.34,1.68
	c2.01-0.41,3.02-0.62,5.02-1.07C363.21,539.6,363.26,539.82,363.36,540.26z"/>
<g id="Logo_Base">
	<path class="st21" d="M333.61,136.38c-1.99,0-3.61,1.62-3.61,3.61c0,1.34,0.73,2.5,1.81,3.13l-10.89,23.18l1.83-31.6
		c1.9-0.1,3.41-1.67,3.41-3.6c0-1.99-1.62-3.61-3.61-3.61s-3.61,1.62-3.61,3.61c0,1.6,1.04,2.95,2.48,3.43l-7.33,31.05l-3.39-34.27
		c1.66-0.33,2.91-1.79,2.91-3.54c0-1.99-1.62-3.61-3.61-3.61s-3.61,1.62-3.61,3.61c0,1.75,1.25,3.21,2.91,3.54l-3.39,34.27
		l-7.33-31.05c1.44-0.48,2.48-1.83,2.48-3.43c0-1.99-1.62-3.61-3.61-3.61s-3.61,1.62-3.61,3.61c0,1.93,1.51,3.5,3.41,3.6l1.83,31.6
		l-10.89-23.18c1.08-0.62,1.81-1.79,1.81-3.13c0-1.99-1.62-3.61-3.61-3.61c-1.99,0-3.61,1.62-3.61,3.61s1.62,3.61,3.61,3.61
		c0.26,0,0.51-0.03,0.76-0.08c2.22,7.56,7.58,25.82,9.85,33.42c0.99,3.32,6.22,6.11,13.01,6.11s12.02-2.79,13.01-6.11
		c2.26-7.59,7.63-25.86,9.85-33.42c0.24,0.05,0.5,0.08,0.76,0.08c1.99,0,3.61-1.62,3.61-3.61S335.61,136.38,333.61,136.38z
		 M310.02,180.22c-5.87,0-10.63-1.43-10.63-3.2s4.76-3.2,10.63-3.2s10.63,1.43,10.63,3.2S315.89,180.22,310.02,180.22z"/>
</g>
<g id="Logo_Outer">
	<path class="st10" d="M310,124.16c1.99,0,3.61,1.62,3.61,3.61c0,1.75-1.25,3.21-2.91,3.54l3.39,34.27l7.33-31.05
		c-1.44-0.48-2.48-1.83-2.48-3.43c0-1.99,1.62-3.61,3.61-3.61s3.61,1.62,3.61,3.61c0,1.93-1.51,3.5-3.41,3.6l-1.83,31.6l10.89-23.18
		c-1.08-0.62-1.81-1.79-1.81-3.13c0-1.99,1.62-3.61,3.61-3.61c1.99,0,3.61,1.62,3.61,3.61s-1.62,3.61-3.61,3.61
		c-0.26,0-0.51-0.03-0.76-0.08c-2.22,7.56-7.58,25.82-9.85,33.42c-0.99,3.32-6.22,6.11-13.01,6.11c-6.79,0-12.02-2.79-13.01-6.11
		c-2.26-7.59-7.63-25.86-9.85-33.42c-0.24,0.05-0.5,0.08-0.76,0.08c-1.99,0-3.61-1.62-3.61-3.61s1.62-3.61,3.61-3.61
		S290,138,290,139.99c0,1.34-0.73,2.5-1.81,3.13l10.89,23.18l-1.83-31.6c-1.9-0.1-3.41-1.67-3.41-3.6c0-1.99,1.62-3.61,3.61-3.61
		s3.61,1.62,3.61,3.61c0,1.6-1.04,2.95-2.48,3.43l7.33,31.05l3.39-34.27c-1.66-0.33-2.91-1.79-2.91-3.54
		C306.39,125.77,308.01,124.16,310,124.16 M310.02,180.22c5.87,0,10.63-1.43,10.63-3.2s-4.76-3.2-10.63-3.2
		c-5.87,0-10.63,1.43-10.63,3.2S304.15,180.22,310.02,180.22 M310,122.26c-3.04,0-5.51,2.47-5.51,5.51c0,2.01,1.1,3.82,2.78,4.78
		l-2.13,21.54l-4.39-18.59c1.36-1.02,2.2-2.63,2.2-4.4c0-3.04-2.47-5.51-5.51-5.51c-3.04,0-5.51,2.47-5.51,5.51
		c0,2.32,1.44,4.32,3.5,5.12l1.18,20.39l-6.1-12.98c0.87-0.99,1.38-2.28,1.38-3.63c0-3.04-2.47-5.51-5.51-5.51
		c-3.04,0-5.51,2.47-5.51,5.51c0,2.82,2.13,5.14,4.86,5.47c2.4,8.19,7.3,24.86,9.44,32.02c1.31,4.4,7.41,7.46,14.83,7.46
		s13.52-3.07,14.83-7.46c2.13-7.16,7.03-23.83,9.44-32.02c2.73-0.32,4.86-2.65,4.86-5.47c0-3.04-2.47-5.51-5.51-5.51
		c-3.04,0-5.51,2.47-5.51,5.51c0,1.35,0.5,2.64,1.38,3.63l-6.1,12.98l1.18-20.39c2.05-0.8,3.5-2.8,3.5-5.12
		c0-3.04-2.47-5.51-5.51-5.51c-3.04,0-5.51,2.47-5.51,5.51c0,1.77,0.84,3.38,2.2,4.4l-4.39,18.59l-2.13-21.54
		c1.67-0.96,2.78-2.77,2.78-4.78C315.51,124.73,313.04,122.26,310,122.26L310,122.26z M301.82,177.02c1.25-0.59,4.1-1.31,8.2-1.31
		s6.95,0.72,8.2,1.31c-1.25,0.59-4.1,1.31-8.2,1.31S303.07,177.61,301.82,177.02L301.82,177.02z"/>
</g>
<g id="Logo_Inner">
	<path class="st1" d="M310,124.16c1.99,0,3.61,1.62,3.61,3.61c0,1.75-1.25,3.21-2.91,3.54l3.39,34.27l7.33-31.05
		c-1.44-0.48-2.48-1.83-2.48-3.43c0-1.99,1.62-3.61,3.61-3.61s3.61,1.62,3.61,3.61c0,1.93-1.51,3.5-3.41,3.6l-1.83,31.6l10.89-23.18
		c-1.08-0.62-1.81-1.79-1.81-3.13c0-1.99,1.62-3.61,3.61-3.61c1.99,0,3.61,1.62,3.61,3.61s-1.62,3.61-3.61,3.61
		c-0.26,0-0.51-0.03-0.76-0.08c-2.22,7.56-7.58,25.82-9.85,33.42c-0.99,3.32-6.22,6.11-13.01,6.11c-6.79,0-12.02-2.79-13.01-6.11
		c-2.26-7.59-7.63-25.86-9.85-33.42c-0.24,0.05-0.5,0.08-0.76,0.08c-1.99,0-3.61-1.62-3.61-3.61s1.62-3.61,3.61-3.61
		S290,138,290,139.99c0,1.34-0.73,2.5-1.81,3.13l10.89,23.18l-1.83-31.6c-1.9-0.1-3.41-1.67-3.41-3.6c0-1.99,1.62-3.61,3.61-3.61
		s3.61,1.62,3.61,3.61c0,1.6-1.04,2.95-2.48,3.43l7.33,31.05l3.39-34.27c-1.66-0.33-2.91-1.79-2.91-3.54
		C306.39,125.77,308.01,124.16,310,124.16 M310.02,180.22c5.87,0,10.63-1.43,10.63-3.2s-4.76-3.2-10.63-3.2
		c-5.87,0-10.63,1.43-10.63,3.2S304.15,180.22,310.02,180.22 M310,123.21c-2.51,0-4.56,2.04-4.56,4.56c0,1.87,1.15,3.53,2.84,4.22
		l-2.76,27.85l-5.84-24.76c1.42-0.8,2.32-2.3,2.32-3.97c0-2.51-2.04-4.56-4.56-4.56c-2.51,0-4.56,2.04-4.56,4.56
		c0,2.12,1.46,3.93,3.46,4.42l1.5,25.93l-8.47-18.03c0.98-0.86,1.57-2.11,1.57-3.44c0-2.51-2.04-4.56-4.56-4.56
		c-2.51,0-4.56,2.04-4.56,4.56s2.04,4.56,4.56,4.56c0.02,0,0.05,0,0.07,0c2.33,7.93,7.43,25.31,9.63,32.66
		c1.17,3.93,7.03,6.79,13.92,6.79s12.75-2.85,13.92-6.79c2.19-7.36,7.3-24.74,9.63-32.66c0.02,0,0.05,0,0.07,0
		c2.51,0,4.56-2.04,4.56-4.56s-2.04-4.56-4.56-4.56c-2.51,0-4.56,2.04-4.56,4.56c0,1.33,0.58,2.58,1.57,3.44l-8.47,18.03l1.5-25.93
		c1.99-0.49,3.46-2.29,3.46-4.42c0-2.51-2.04-4.56-4.56-4.56c-2.51,0-4.56,2.04-4.56,4.56c0,1.67,0.91,3.18,2.32,3.97l-5.84,24.76
		l-2.76-27.85c1.68-0.69,2.84-2.35,2.84-4.22C314.56,125.26,312.51,123.21,310,123.21L310,123.21z M310.02,179.27
		c-6.29,0-9.68-1.6-9.68-2.26c0-0.66,3.39-2.26,9.68-2.26s9.68,1.6,9.68,2.26C319.7,177.67,316.31,179.27,310.02,179.27
		L310.02,179.27z"/>
</g>
<path id="Logo_Highlight" class="st22" d="M297.44,127.49c1.41,0,2.61,0.81,3.21,1.99c-0.78-0.05-2.98-0.82-4.42,0.04
	c-1.24,0.74-1.62,2.49-1.89,3.42c-0.32-0.54-0.51-1.16-0.51-1.83C293.83,129.11,295.45,127.49,297.44,127.49z M306.39,127.77
	c0,0.87,0.31,1.68,0.83,2.3c0.17-0.85,0.27-2.9,1.51-3.86c1.23-0.95,3.27-0.59,4.18-0.56c-0.66-0.9-1.71-1.49-2.91-1.49
	C308.01,124.16,306.39,125.77,306.39,127.77z M289.62,138.41c-0.59-1.2-1.81-2.03-3.23-2.03c-1.99,0-3.61,1.62-3.61,3.61
	c0,0.52,0.12,1.02,0.32,1.47c0.33-0.9,0.82-2.64,2.11-3.3C286.7,137.39,288.84,138.31,289.62,138.41z M318.95,131.1
	c0,0.61,0.15,1.18,0.42,1.68c0.1-0.99,0.22-2.63,1.25-3.52c1.29-1.12,3.65-0.71,4.38-0.81c-0.64-0.59-1.49-0.96-2.43-0.96
	C320.56,127.49,318.95,129.11,318.95,131.1z M336.02,137.32c-0.64-0.58-1.48-0.94-2.41-0.94c-1.99,0-3.61,1.62-3.61,3.61
	c0,0.27,0.04,0.54,0.1,0.79c0.37-0.44,0.89-2.92,2.53-3.66C333.7,136.65,335.04,137.01,336.02,137.32z"/>
<g id="Rim_1" class="st11">
	<path d="M310,51.2c34.94,0,68.83,6.84,100.74,20.34c30.82,13.03,58.49,31.7,82.26,55.46s42.43,51.45,55.46,82.26
		c13.49,31.9,20.34,65.8,20.34,100.74s-6.84,68.83-20.34,100.74c-13.03,30.82-31.7,58.49-55.46,82.26s-51.45,42.43-82.26,55.46
		c-31.9,13.49-65.8,20.34-100.74,20.34s-68.83-6.84-100.74-20.34c-30.82-13.03-58.49-31.7-82.26-55.46s-42.43-51.45-55.46-82.26
		C58.04,378.83,51.2,344.94,51.2,310s6.84-68.83,20.34-100.74c13.03-30.82,31.7-58.49,55.46-82.26s51.45-42.43,82.26-55.46
		C241.17,58.04,275.06,51.2,310,51.2 M310,46.47C164.45,46.47,46.47,164.45,46.47,310S164.45,573.53,310,573.53
		S573.53,455.55,573.53,310S455.55,46.47,310,46.47L310,46.47z"/>
</g>
<g id="Rim_2" class="st11">
	<path d="M310,55.94c34.3,0,67.57,6.72,98.89,19.96c30.25,12.8,57.42,31.12,80.76,54.45c23.34,23.34,41.66,50.51,54.45,80.76
		c13.25,31.32,19.96,64.59,19.96,98.89s-6.72,67.57-19.96,98.89c-12.8,30.25-31.12,57.42-54.45,80.76
		c-23.34,23.34-50.51,41.66-80.76,54.45c-31.32,13.25-64.59,19.96-98.89,19.96s-67.57-6.72-98.89-19.96
		c-30.25-12.8-57.42-31.12-80.76-54.45c-23.34-23.34-41.66-50.51-54.45-80.76C62.65,377.57,55.94,344.3,55.94,310
		s6.72-67.57,19.96-98.89c12.8-30.25,31.12-57.42,54.45-80.76c23.34-23.34,50.51-41.66,80.76-54.45
		C242.43,62.65,275.7,55.94,310,55.94 M310,46.47C164.45,46.47,46.47,164.45,46.47,310S164.45,573.53,310,573.53
		S573.53,455.55,573.53,310S455.55,46.47,310,46.47L310,46.47z"/>
</g>
<g id="Rim_3" class="st11">
	<path d="M310,60.67c33.67,0,66.32,6.59,97.05,19.59c29.69,12.56,56.35,30.54,79.26,53.44s40.88,49.57,53.44,79.26
		c13,30.73,19.59,63.38,19.59,97.05s-6.59,66.32-19.59,97.05c-12.56,29.69-30.54,56.35-53.44,79.26s-49.57,40.88-79.26,53.44
		c-30.73,13-63.38,19.59-97.05,19.59s-66.32-6.59-97.05-19.59c-29.69-12.56-56.35-30.54-79.26-53.44s-40.88-49.57-53.44-79.26
		c-13-30.73-19.59-63.38-19.59-97.05s6.59-66.32,19.59-97.05c12.56-29.69,30.54-56.35,53.44-79.26s49.57-40.88,79.26-53.44
		C243.68,67.26,276.33,60.67,310,60.67 M310,46.47C164.45,46.47,46.47,164.45,46.47,310S164.45,573.53,310,573.53
		S573.53,455.55,573.53,310S455.55,46.47,310,46.47L310,46.47z"/>
</g>
</svg>