<?xml version="1.0" encoding="utf-8"?>
<!-- Generator: Adobe Illustrator 19.2.1, SVG Export Plug-In . SVG Version: 6.00 Build 0)  -->
<svg version="1.1" id="Hour_Hand" xmlns="http://www.w3.org/2000/svg" xmlns:xlink="http://www.w3.org/1999/xlink" x="0px" y="0px"
	 viewBox="0 0 620 620" style="enable-background:new 0 0 620 620;" xml:space="preserve">
<style type="text/css">
	.st0{opacity:0.03;}
	.st1{fill:#C7A96C;}
	.st2{fill:#CCB079;}
	.st3{fill:none;stroke:#CAAD73;stroke-width:1.8939;stroke-miterlimit:10;}
	.st4{fill:#DBC79F;}
	.st5{fill:#C19F5C;}
</style>
<g id="Shadow_1" class="st0">
	<path d="M317.34,159.01c0.99,0,1.8,0.79,1.83,1.77l3.17,131.39c5.67,3.93,9.37,10.5,9.34,17.91c-0.03,6.98-3.36,13.16-8.49,17.11
		l0.81,33.46h-27.99l1.08-33.26c-5.34-3.97-8.79-10.34-8.76-17.5c0.03-7.6,3.98-14.27,9.91-18.11l4.24-131.02
		c0.04-0.98,0.85-1.76,1.83-1.76H317.34 M317.34,157.01H304.3c-2.06,0-3.75,1.62-3.83,3.68l-4.21,130.02
		c-6.21,4.43-9.91,11.52-9.95,19.18c-0.03,7.14,3.21,13.96,8.73,18.46l-1.04,32.24c-0.02,0.54,0.19,1.07,0.56,1.46
		c0.38,0.39,0.9,0.61,1.44,0.61h27.99c0.54,0,1.05-0.22,1.43-0.6s0.58-0.91,0.57-1.45l-0.78-32.47c5.36-4.49,8.44-11.01,8.47-18.04
		c0.03-7.45-3.45-14.47-9.36-18.96l-3.14-130.4C321.11,158.65,319.43,157.01,317.34,157.01L317.34,157.01z"/>
</g>
<g id="Shadow_2" class="st0">
	<path d="M317.34,159.01c0.99,0,1.8,0.79,1.83,1.77l3.17,131.39c5.67,3.93,9.37,10.5,9.34,17.91c-0.03,6.98-3.36,13.16-8.49,17.11
		l0.81,33.46h-27.99l1.08-33.26c-5.34-3.97-8.79-10.34-8.76-17.5c0.03-7.6,3.98-14.27,9.91-18.11l4.24-131.02
		c0.04-0.98,0.85-1.76,1.83-1.76H317.34 M317.34,155.01H304.3c-3.14,0-5.7,2.46-5.83,5.6l-4.18,129.07
		c-6.25,4.83-9.94,12.23-9.98,20.2c-0.03,7.4,3.18,14.5,8.7,19.37l-1.01,31.28c-0.04,1.08,0.37,2.13,1.12,2.91
		c0.75,0.78,1.79,1.22,2.87,1.22h27.99c1.08,0,2.11-0.43,2.86-1.21s1.16-1.81,1.14-2.89l-0.76-31.53
		c5.36-4.84,8.41-11.63,8.45-18.92c0.03-7.76-3.44-15.07-9.38-19.95l-3.12-129.46C323.08,157.5,320.52,155.01,317.34,155.01
		L317.34,155.01z"/>
</g>
<g id="Shadow_3" class="st0">
	<path d="M317.34,159.01c0.99,0,1.8,0.79,1.83,1.77l3.17,131.39c5.67,3.93,9.37,10.5,9.34,17.91c-0.03,6.98-3.36,13.16-8.49,17.11
		l0.81,33.46h-27.99l1.08-33.26c-5.34-3.97-8.79-10.34-8.76-17.5c0.03-7.6,3.98-14.27,9.91-18.11l4.24-131.02
		c0.04-0.98,0.85-1.76,1.83-1.76H317.34 M317.34,153.01H304.3c-4.22,0-7.66,3.3-7.82,7.52l-4.15,128.16
		c-6.29,5.2-9.97,12.91-10.01,21.18c-0.03,7.66,3.16,15.01,8.67,20.23l-0.98,30.36c-0.05,1.62,0.56,3.2,1.69,4.37
		c1.13,1.17,2.69,1.83,4.31,1.83h27.99c1.62,0,3.16-0.65,4.29-1.81c1.13-1.16,1.74-2.72,1.7-4.34l-0.74-30.64
		c5.36-5.17,8.39-12.21,8.42-19.76c0.04-8.05-3.43-15.65-9.41-20.91l-3.1-128.57C325.04,156.35,321.6,153.01,317.34,153.01
		L317.34,153.01z"/>
</g>
<path id="Base_1_" class="st1" d="M323.99,360.66l-4.82-199.87c-0.03-0.99-0.84-1.77-1.83-1.77H304.3c-0.98,0-1.79,0.78-1.83,1.76
	l-6.47,199.89H323.99z"/>
<path id="Highlight_2_" class="st2" d="M310.18,360.66l0.8-201.65c0.2,0.04,4.02,0.02,6.36,0.01c0.99-0.01,1.81,0.78,1.84,1.77
	l4.82,199.86H310.18z"/>
<line id="Highlight_Fade" class="st3" x1="309.6" y1="360.66" x2="310.4" y2="159.01"/>
<ellipse id="Hour_Ring_1_" transform="matrix(4.363310e-003 -1 1 4.363310e-003 -1.3497 618.6445)" class="st1" cx="310" cy="310" rx="21.68" ry="21.68"/>
<path id="Inset_2_" class="st4" d="M309.71,246.32c2.4,0.01,4.37-1.61,4.39-3.61l0.52-64.18c0.02-2.01-1.93-3.65-4.34-3.66
	c-2.4-0.01-4.37,1.61-4.39,3.61l-0.52,64.18C305.36,244.67,307.3,246.31,309.71,246.32z"/>
<g id="Outer_2_">
	<path class="st2" d="M310.27,174.87l0.01,1.89c0.79,0,1.54,0.29,2.01,0.77c0.21,0.21,0.45,0.55,0.45,0.98l-0.52,64.18
		c-0.01,0.94-1.14,1.73-2.49,1.73c-0.79,0-1.54-0.29-2.01-0.76c-0.21-0.21-0.45-0.55-0.45-0.99l0.52-64.18
		c0.01-0.94,1.14-1.73,2.47-1.73V174.87 M310.27,174.87c-2.4,0-4.35,1.61-4.37,3.61l-0.52,64.18c-0.02,2.01,1.92,3.65,4.33,3.66
		c0,0,0.01,0,0.01,0c0.01,0,0.01,0,0.02,0c2.4,0,4.35-1.61,4.36-3.61l0.52-64.18c0.02-2.01-1.93-3.65-4.34-3.66
		C310.28,174.87,310.27,174.87,310.27,174.87L310.27,174.87z"/>
</g>
<g id="Inner_2_">
	<path class="st5" d="M310.27,174.87l0.01,0.95c1.05,0.01,2.03,0.39,2.68,1.05c0.33,0.34,0.72,0.9,0.72,1.66l-0.52,64.18
		c-0.01,1.47-1.54,2.67-3.44,2.67c-1.05-0.01-2.02-0.39-2.67-1.05c-0.33-0.34-0.72-0.9-0.72-1.66l0.52-64.18
		c0.01-1.47,1.55-2.67,3.42-2.67V174.87 M310.27,174.87c-2.4,0-4.35,1.61-4.37,3.61l-0.52,64.18c-0.02,2.01,1.92,3.65,4.33,3.66
		c0,0,0.01,0,0.01,0c0.01,0,0.01,0,0.02,0c2.4,0,4.35-1.61,4.36-3.61l0.52-64.18c0.02-2.01-1.93-3.65-4.34-3.66
		C310.28,174.87,310.27,174.87,310.27,174.87L310.27,174.87z"/>
</g>
</svg>
