<?xml version="1.0" encoding="utf-8"?>
<!-- Generator: Adobe Illustrator 19.2.1, SVG Export Plug-In . SVG Version: 6.00 Build 0)  -->
<svg version="1.1" id="Minute_Hand" xmlns="http://www.w3.org/2000/svg" xmlns:xlink="http://www.w3.org/1999/xlink" x="0px"
	 y="0px" viewBox="0 0 620 620" style="enable-background:new 0 0 620 620;" xml:space="preserve">
<style type="text/css">
	.st0{opacity:0.03;}
	.st1{fill:#C7A96C;}
	.st2{fill:#CCB079;}
	.st3{fill:none;stroke:#CAAD73;stroke-width:1.8939;stroke-miterlimit:10;}
	.st4{fill:#DBC79F;}
	.st5{fill:#C19F5C;}
</style>
<g id="Shadow_1_1_" class="st0">
	<path d="M314.17,64.36c1.19,0,2.16,0.95,2.18,2.14l4.41,228.99c7.01,5.19,9.43,14.83,5.29,22.83c-1.2,2.31-2.83,4.25-4.74,5.77
		l0.51,26.46c0.03,1.75-1.38,3.19-3.13,3.19h-17.39c-1.75,0-3.17-1.44-3.13-3.19l0.51-26.46c-6.6-5.28-8.78-14.64-4.74-22.43
		c1.31-2.53,3.15-4.6,5.29-6.19l4.41-228.98c0.02-1.19,0.99-2.14,2.18-2.14H314.17 M314.17,62.36h-8.35c-2.26,0-4.14,1.84-4.18,4.11
		l-4.39,228.03c-2.12,1.73-3.83,3.84-5.09,6.26c-4.24,8.18-2.33,18.21,4.5,24.26l-0.49,25.5c-0.03,1.39,0.49,2.7,1.47,3.69
		c0.97,0.99,2.27,1.54,3.66,1.54h17.39c1.39,0,2.69-0.55,3.66-1.54c0.97-0.99,1.49-2.3,1.47-3.69l-0.49-25.51
		c1.85-1.64,3.36-3.57,4.5-5.77c4.4-8.5,2.25-18.74-5.09-24.74l-4.39-228.03C318.31,64.21,316.44,62.36,314.17,62.36L314.17,62.36z"
		/>
</g>
<g id="Shadow_2_1_" class="st0">
	<path d="M314.17,64.36c1.19,0,2.16,0.95,2.18,2.14l4.41,228.99c7.01,5.19,9.43,14.83,5.29,22.83c-1.2,2.31-2.83,4.25-4.74,5.77
		l0.51,26.46c0.03,1.75-1.38,3.19-3.13,3.19h-17.39c-1.75,0-3.17-1.44-3.13-3.19l0.51-26.46c-6.59-5.28-8.78-14.64-4.74-22.43
		c1.31-2.53,3.15-4.6,5.29-6.19l4.41-228.98c0.02-1.19,0.99-2.14,2.18-2.14H314.17 M314.17,60.36h-8.35c-3.35,0-6.12,2.72-6.18,6.07
		l-4.37,227.13c-2,1.78-3.64,3.89-4.88,6.28c-4.51,8.71-2.68,19.34,4.26,26.04l-0.47,24.61c-0.04,1.93,0.69,3.75,2.04,5.13
		c1.35,1.38,3.16,2.14,5.09,2.14h17.39c1.93,0,3.74-0.76,5.09-2.14c1.35-1.38,2.08-3.2,2.04-5.13l-0.47-24.61
		c1.72-1.66,3.15-3.57,4.26-5.71c4.7-9.06,2.61-19.93-4.88-26.6l-4.37-227.14C320.29,63.09,317.52,60.36,314.17,60.36L314.17,60.36z
		"/>
</g>
<g id="Shadow_3_1_" class="st0">
	<path d="M314.17,64.36c1.19,0,2.16,0.95,2.18,2.14l4.41,228.99c7.01,5.19,9.43,14.83,5.29,22.83c-1.2,2.31-2.83,4.25-4.74,5.77
		l0.51,26.46c0.03,1.75-1.38,3.19-3.13,3.19h-17.39c-1.75,0-3.17-1.44-3.13-3.19l0.51-26.46c-6.59-5.28-8.78-14.64-4.74-22.43
		c1.31-2.53,3.15-4.6,5.29-6.19l4.41-228.98c0.02-1.19,0.99-2.14,2.18-2.14H314.17 M314.17,58.36h-8.35c-4.43,0-8.1,3.6-8.18,8.03
		l-4.36,226.27c-1.89,1.81-3.46,3.9-4.67,6.25c-4.78,9.23-3.03,20.44,4.02,27.77l-0.46,23.76c-0.05,2.47,0.88,4.81,2.61,6.57
		c1.73,1.77,4.05,2.74,6.52,2.74h17.39c2.47,0,4.79-0.97,6.52-2.74c1.73-1.77,2.66-4.1,2.61-6.57l-0.46-23.76
		c1.6-1.66,2.95-3.53,4.02-5.6c4.98-9.62,2.96-21.1-4.67-28.41l-4.36-226.28C322.27,61.97,318.6,58.36,314.17,58.36L314.17,58.36z"
		/>
</g>
<path id="Background_2_" class="st1" d="M318.69,353.75h-17.39c-1.75,0-3.17-1.44-3.13-3.19l5.47-284.05
	c0.02-1.19,0.99-2.14,2.18-2.14h8.35c1.19,0,2.16,0.95,2.18,2.14l5.47,284.05C321.86,352.31,320.45,353.75,318.69,353.75z"/>
<path id="Highlight" class="st2" d="M310,64.36h4.17c1.19,0,2.16,0.95,2.18,2.14l5.47,284.05c0.03,1.75-1.38,3.19-3.13,3.19H310
	V64.36z"/>
<line id="Fade" class="st3" x1="310" y1="353.75" x2="310" y2="64.36"/>
<ellipse id="Minute_Ring_1_" transform="matrix(0.4602 -0.8878 0.8878 0.4602 -107.8847 442.5609)" class="st1" cx="310" cy="310" rx="18.08" ry="18.08"/>
<path id="Inset_5_" class="st4" d="M312.47,88.7c0-1.34-1.08-2.42-2.42-2.43h0c-1.34,0-2.42,1.08-2.43,2.42l-0.09,110.87
	c0,1.34,1.08,2.42,2.42,2.43c0,0,0,0,0,0c1.34,0,2.42-1.08,2.43-2.42L312.47,88.7z"/>
<g id="Outer_4_">
	<path class="st1" d="M310.05,87.69L310.05,87.69c0.55,0,1,0.45,1,1l-0.09,110.87c0,0.55-0.45,1-1.01,1c-0.55,0-1-0.45-1-1
		l0.09-110.87C309.04,88.14,309.49,87.69,310.05,87.69L310.05,87.69 M310.05,86.27c-1.34,0-2.42,1.08-2.42,2.42l-0.09,110.87
		c0,1.34,1.08,2.42,2.42,2.43c0,0,0,0,0,0c0,0,0,0,0,0c1.34,0,2.42-1.08,2.42-2.42l0.09-110.87
		C312.47,87.36,311.39,86.27,310.05,86.27L310.05,86.27C310.05,86.27,310.05,86.27,310.05,86.27L310.05,86.27z"/>
</g>
<g id="Inner_5_">
	<path class="st5" d="M310.05,86.27l0,0.71c0.94,0,1.71,0.77,1.71,1.72l-0.09,110.87c0,0.94-0.77,1.71-1.72,1.71
		c-0.94,0-1.71-0.77-1.71-1.72l0.09-110.87c0-0.94,0.77-1.71,1.71-1.71h0V86.27 M310.05,86.27c-1.34,0-2.42,1.08-2.42,2.42
		l-0.09,110.87c0,1.34,1.08,2.42,2.42,2.43c0,0,0,0,0,0c0,0,0,0,0,0c1.34,0,2.42-1.08,2.42-2.42l0.09-110.87
		C312.47,87.36,311.39,86.27,310.05,86.27L310.05,86.27C310.05,86.27,310.05,86.27,310.05,86.27L310.05,86.27z"/>
</g>
</svg>
