<?xml version="1.0" encoding="utf-8"?>
<!-- Generator: Adobe Illustrator 19.2.1, SVG Export Plug-In . SVG Version: 6.00 Build 0)  -->
<svg version="1.1" id="Second_Hand" xmlns="http://www.w3.org/2000/svg" xmlns:xlink="http://www.w3.org/1999/xlink" x="0px"
	 y="0px" viewBox="0 0 620 620" style="enable-background:new 0 0 620 620;" xml:space="preserve">
<style type="text/css">
	.st0{fill:#C7A96C;}
	.st1{opacity:0.03;}
	.st2{opacity:0.5;fill:#FFFFFF;}
</style>
<path id="Base_2_" class="st0" d="M306.47,324.63l-0.85,62.57c-0.01,0.62,0.49,1.13,1.12,1.13l6.45-0.01c0.62,0,1.12-0.51,1.11-1.13
	l-0.61-62.6c2.92-0.74,5.75-2.28,8.04-5.29c3.39-4.46,4.31-10.49,1.96-15.58c-2.02-4.38-5.83-7.27-10.11-8.32l-1.3-203.21
	c0-0.46-0.38-0.83-0.84-0.83l-1.85,0c-0.46,0-0.83,0.37-0.83,0.83l-2.07,203.15c-2.43,0.55-4.81,1.68-6.89,3.65
	c-4.71,4.46-6.17,11.56-3.4,17.42C298.43,320.75,302.22,323.6,306.47,324.63z"/>
<g id="Shadow_1_3_" class="st1">
	<path d="M311.45,91.37c0.46,0,0.83,0.37,0.84,0.83l1.3,203.21c4.28,1.05,8.08,3.94,10.11,8.32c2.35,5.09,1.43,11.11-1.96,15.58
		c-2.29,3.01-5.12,4.55-8.04,5.29l0.61,62.6c0.01,0.62-0.49,1.13-1.11,1.13l-6.45,0.01c0,0,0,0,0,0c-0.62,0-1.12-0.51-1.12-1.13
		l0.85-62.57c-4.25-1.03-8.04-3.88-10.08-8.21c-2.77-5.87-1.31-12.96,3.4-17.42c2.08-1.97,4.46-3.1,6.89-3.65l2.07-203.15
		c0-0.46,0.38-0.83,0.83-0.83L311.45,91.37C311.45,91.37,311.45,91.37,311.45,91.37 M311.45,89.37L311.45,89.37l-1.86,0
		c-1.55,0-2.82,1.26-2.83,2.81l-2.06,201.64c-2.37,0.77-4.48,2.02-6.28,3.72c-5.35,5.07-6.93,13.18-3.84,19.73
		c1.98,4.2,5.52,7.35,9.87,8.85l-0.83,61.06c-0.01,0.84,0.31,1.63,0.9,2.23c0.59,0.6,1.38,0.93,2.22,0.93l6.46-0.01
		c0.84,0,1.62-0.33,2.21-0.92s0.91-1.38,0.9-2.22l-0.6-61.1c3.07-1.07,5.63-2.94,7.62-5.56c3.96-5.21,4.79-11.96,2.18-17.62
		c-1.97-4.26-5.54-7.47-9.93-8.98l-1.3-201.72C314.28,90.64,313,89.37,311.45,89.37L311.45,89.37z"/>
</g>
<g id="Shadow_2_3_" class="st1">
	<path d="M311.45,91.37c0.46,0,0.83,0.37,0.84,0.83l1.3,203.21c4.28,1.05,8.08,3.94,10.11,8.32c2.35,5.09,1.43,11.11-1.96,15.58
		c-2.29,3.01-5.12,4.55-8.04,5.29l0.61,62.6c0.01,0.62-0.49,1.13-1.11,1.13l-6.45,0.01c0,0,0,0,0,0c-0.62,0-1.12-0.51-1.11-1.13
		l0.85-62.57c-4.25-1.03-8.04-3.88-10.08-8.21c-2.77-5.87-1.31-12.96,3.4-17.42c2.08-1.97,4.46-3.1,6.89-3.65l2.07-203.15
		c0-0.46,0.38-0.83,0.83-0.83L311.45,91.37C311.45,91.37,311.45,91.37,311.45,91.37 M311.45,87.37L311.45,87.37l-1.86,0
		c-2.64,0-4.8,2.15-4.83,4.79l-2.04,200.26c-2.1,0.86-4,2.09-5.67,3.67c-5.97,5.65-7.72,14.71-4.27,22.03
		c2,4.24,5.43,7.53,9.66,9.35l-0.81,59.67c-0.02,1.38,0.5,2.68,1.47,3.66c0.97,0.98,2.26,1.52,3.64,1.52l6.46-0.01
		c1.37,0,2.66-0.54,3.63-1.52s1.49-2.27,1.48-3.65l-0.58-59.72c2.85-1.25,5.26-3.16,7.2-5.71c4.41-5.8,5.33-13.34,2.41-19.67
		c-1.99-4.32-5.46-7.67-9.76-9.52l-1.29-200.36C316.27,89.53,314.1,87.37,311.45,87.37L311.45,87.37z"/>
</g>
<g id="Shadow_3_3_" class="st1">
	<path d="M311.45,91.37c0.46,0,0.83,0.37,0.84,0.83l1.3,203.21c4.28,1.05,8.08,3.94,10.11,8.32c2.35,5.09,1.43,11.11-1.96,15.58
		c-2.29,3.01-5.12,4.55-8.04,5.29l0.61,62.6c0.01,0.62-0.49,1.13-1.11,1.13l-6.45,0.01c0,0,0,0,0,0c-0.62,0-1.12-0.51-1.12-1.13
		l0.85-62.57c-4.25-1.03-8.04-3.88-10.08-8.21c-2.77-5.87-1.31-12.96,3.4-17.42c2.08-1.97,4.46-3.1,6.89-3.65l2.07-203.15
		c0-0.46,0.38-0.83,0.83-0.83L311.45,91.37C311.45,91.37,311.45,91.37,311.45,91.37 M311.45,85.37L311.45,85.37l-1.87,0
		c-3.72,0.01-6.79,3.04-6.82,6.77l-2.03,198.98c-1.85,0.9-3.54,2.08-5.06,3.52c-6.59,6.24-8.52,16.25-4.7,24.34
		c2.01,4.27,5.34,7.67,9.45,9.76l-0.79,58.38c-0.03,1.89,0.72,3.75,2.05,5.09c1.33,1.35,3.17,2.12,5.07,2.12l6.46-0.01
		c1.91,0,3.7-0.75,5.05-2.11c1.34-1.36,2.07-3.16,2.06-5.07l-0.57-58.44c2.64-1.37,4.91-3.29,6.78-5.76
		c4.86-6.39,5.86-14.71,2.63-21.72c-2.02-4.37-5.39-7.84-9.58-9.96l-1.28-199.1C318.26,88.42,315.2,85.37,311.45,85.37L311.45,85.37
		z"/>
</g>
<ellipse transform="matrix(0.184 -0.9829 0.9829 0.184 -51.7349 557.6851)" cx="310" cy="310" rx="3.35" ry="3.35"/>
<path class="st2" d="M312.46,312.26c-0.75,0.82-1.9,1.25-3.08,1.03c-1.82-0.34-3.01-2.09-2.67-3.9c0.12-0.64,0.41-1.2,0.82-1.65
	c0.76-0.82,1.9-1.25,3.08-1.03c1.82,0.34,3.01,2.09,2.67,3.9C313.17,311.25,312.87,311.82,312.46,312.26 M313.29,313.02
	L313.29,313.02c0.56-0.61,0.94-1.37,1.1-2.2c0.22-1.17-0.03-2.36-0.7-3.34c-0.67-0.98-1.69-1.65-2.86-1.86
	c-1.52-0.28-3.06,0.23-4.11,1.37c-0.56,0.61-0.94,1.37-1.1,2.2c-0.45,2.42,1.15,4.75,3.56,5.21
	C310.7,314.67,312.24,314.16,313.29,313.02L313.29,313.02z"/>
</svg>
