<?xml version="1.0" encoding="utf-8"?>
<!-- Generator: Adobe Illustrator 19.2.1, SVG Export Plug-In . SVG Version: 6.00 Build 0)  -->
<svg version="1.1" id="Hour_Hand" xmlns="http://www.w3.org/2000/svg" xmlns:xlink="http://www.w3.org/1999/xlink" x="0px" y="0px"
	 viewBox="0 0 720 720" style="enable-background:new 0 0 720 720;" xml:space="preserve">
<style type="text/css">
	.st0{opacity:0.25;}
	.st1{opacity:0.15;}
	.st2{fill:#151515;}
	.st3{fill:#B5664F;}
	.st4{fill:#D2886C;}
	.st5{fill:#BCB186;}
	.st6{opacity:0.13;}
</style>
<g id="Drop_2_">
	<rect x="344.26" y="290.15" class="st0" width="31.39" height="39.41"/>
	<g id="Shadow" class="st1">
		<path d="M359.29,225.78c1.04,0,2.07,0.58,2.5,1.75l20.68,57.21c0.43,1.2,0.61,2.49,0.51,3.76l-7.59,74.63l-6.07,8.92l9.95,14.57
			c0.48,0.76,0.73,1.64,0.73,2.54v13.34c0,1.09-0.37,2.15-1.05,3l-14.77,18.39c-0.96,1.19-2.34,1.79-3.73,1.79
			c-1.39,0-2.77-0.6-3.73-1.79l-14.77-18.39c-0.68-0.85-1.05-1.91-1.05-3v-13.34c0-0.9,0.25-1.78,0.73-2.54l9.12-14.57l-6.04-8.92
			l-7.64-74.62c-0.13-1.29,0.01-2.58,0.43-3.81l19.29-57.12C357.18,226.39,358.23,225.78,359.29,225.78 M350.91,328.43h18.15
			c0.91,0,1.68-0.69,1.77-1.6l2.85-28.74c0.08-0.79-0.38-1.54-1.12-1.83l-10.91-4.3c-0.53-0.21-1.1-0.31-1.66-0.31
			s-1.13,0.1-1.66,0.31l-10.91,4.3c-0.74,0.29-1.2,1.04-1.12,1.83l2.85,28.74C349.23,327.74,349.99,328.43,350.91,328.43
			 M359.29,223.43c-2.18,0-4.05,1.34-4.75,3.41l-19.29,57.12c-0.52,1.55-0.71,3.17-0.54,4.8l7.64,74.62l0.06,0.59l0.33,0.49
			l5.18,7.65l-8.31,13.27c-0.71,1.14-1.09,2.45-1.09,3.79v13.34c0,1.62,0.56,3.21,1.57,4.47l14.77,18.39
			c1.36,1.69,3.39,2.67,5.56,2.67c2.17,0,4.2-0.97,5.56-2.67l14.77-18.39c1.01-1.26,1.57-2.85,1.57-4.47v-13.34
			c0-1.34-0.38-2.65-1.09-3.79l-0.02-0.04l-0.03-0.04l-9.05-13.25l5.17-7.6l0.33-0.49l0.06-0.59l7.59-74.63l0-0.03l0-0.03
			c0.12-1.62-0.09-3.21-0.64-4.74L364,226.74C363.27,224.73,361.42,223.43,359.29,223.43L359.29,223.43z M348.68,298.29l10.51-4.14
			c0.25-0.1,0.52-0.15,0.8-0.15c0.27,0,0.54,0.05,0.8,0.15l10.51,4.14l-2.75,27.79h-17.11L348.68,298.29L348.68,298.29z"/>
	</g>
	<g id="Shadow_1_" class="st1">
		<path d="M359.29,225.78c1.04,0,2.07,0.58,2.5,1.75l20.68,57.21c0.44,1.2,0.61,2.49,0.51,3.76l-7.59,74.63l-6.07,8.92l9.95,14.57
			c0.48,0.76,0.73,1.64,0.73,2.54v13.34c0,1.09-0.37,2.15-1.05,3l-14.77,18.39c-0.96,1.19-2.34,1.79-3.73,1.79
			c-1.39,0-2.77-0.6-3.73-1.79l-14.77-18.39c-0.68-0.85-1.05-1.91-1.05-3v-13.34c0-0.9,0.25-1.78,0.73-2.54l9.12-14.57l-6.04-8.92
			l-7.64-74.62c-0.13-1.29,0.01-2.58,0.43-3.81l19.29-57.12C357.18,226.39,358.23,225.78,359.29,225.78 M350.91,328.43h18.15
			c0.91,0,1.68-0.69,1.77-1.6l2.85-28.74c0.08-0.79-0.38-1.54-1.12-1.83l-10.91-4.3c-0.53-0.21-1.1-0.31-1.66-0.31
			c-0.56,0-1.13,0.1-1.66,0.31l-10.91,4.3c-0.74,0.29-1.2,1.04-1.12,1.83l2.85,28.74C349.23,327.74,349.99,328.43,350.91,328.43
			 M359.29,221.08c-3.16,0-5.96,2.01-6.98,5.01l-19.29,57.12c-0.63,1.88-0.85,3.83-0.65,5.79l7.64,74.62l0.12,1.18l0.66,0.98
			l4.32,6.38l-7.5,11.97c-0.95,1.51-1.45,3.25-1.45,5.04v13.34c0,2.15,0.74,4.27,2.09,5.94l14.77,18.39
			c1.81,2.25,4.51,3.55,7.4,3.55s5.59-1.29,7.4-3.55l14.77-18.39c1.35-1.68,2.09-3.79,2.09-5.94v-13.34c0-1.78-0.5-3.52-1.45-5.04
			l-0.05-0.08l-0.05-0.08l-8.14-11.92l4.26-6.27l0.67-0.98l0.12-1.19l7.59-74.63l0.01-0.06l0-0.06c0.15-1.95-0.11-3.88-0.78-5.72
			l-20.68-57.21C365.14,222.98,362.42,221.08,359.29,221.08L359.29,221.08z M351.19,299.83l8.79-3.46l8.79,3.46l-2.37,23.9h-12.85
			L351.19,299.83L351.19,299.83z"/>
	</g>
</g>
<path id="Bottom" class="st2" d="M369.31,372.06l9.95,14.57c0.48,0.76,0.73,1.64,0.73,2.54h-39.12c0-0.9,0.25-1.78,0.73-2.54
	l9.12-14.57l-6.04-8.92l-4.22-41.23h8.19l0.49,4.92c0.09,0.91,0.86,1.6,1.77,1.6h18.15c0.91,0,1.68-0.69,1.77-1.6l0.49-4.92h9.09
	l-5.03,41.23L369.31,372.06z"/>
<path d="M340.88,389.17v13.34c0,1.09,0.37,2.15,1.05,3l14.77,18.39c1.92,2.38,5.54,2.38,7.46,0l14.77-18.39
	c0.68-0.85,1.05-1.91,1.05-3v-13.34C380,389.15,340.88,389.15,340.88,389.17z"/>
<path id="Base_2_" class="st3" d="M349.11,326.51l-2.81-28.42c-0.08-0.79,0.38-1.54,1.12-1.83l10.91-4.3c1.07-0.42,2.25-0.42,3.32,0
	l10.91,4.3c0.74,0.29,1.2,1.04,1.12,1.83l-2.81,28.42c-0.1,1.03,0.71,1.92,1.74,1.92l5.68,0c0.91,0,1.67-0.7,1.74-1.62l2.94-38.31
	c0.1-1.28-0.08-2.56-0.51-3.76l-20.68-57.21c-0.85-2.36-4.21-2.33-5.01,0.05l-19.29,57.12c-0.41,1.22-0.56,2.52-0.43,3.81
	l3.93,38.34c0.09,0.89,0.84,1.57,1.74,1.57l4.65,0C348.4,328.43,349.21,327.54,349.11,326.51z"/>
<g>
	<path class="st4" d="M359.29,227.55c0.19,0,0.64,0.06,0.84,0.59l20.68,57.21c0.35,0.97,0.49,1.99,0.41,3.03l-2.93,38.3l-5.67,0.02
		l2.81-28.42c0.16-1.57-0.76-3.07-2.23-3.65l-10.91-4.3c-0.74-0.29-1.51-0.44-2.3-0.44s-1.57,0.15-2.3,0.44l-10.91,4.3
		c-1.47,0.58-2.38,2.08-2.23,3.65l2.83,28.4l-4.64,0.01l-3.93-38.34c-0.11-1.04,0.01-2.07,0.34-3.06l19.29-57.12
		C358.63,227.61,359.09,227.55,359.29,227.55 M347.78,287.86c0.53,0,1.06-0.14,1.54-0.4l9.84-4.58l0.08-0.04l0.07-0.04
		c0.21-0.12,0.45-0.19,0.69-0.19s0.48,0.07,0.69,0.19l0.07,0.04l0.08,0.04l9.82,4.57c0.48,0.26,1.01,0.4,1.54,0.4
		c1.03,0,2-0.51,2.61-1.35c0.6-0.84,0.76-1.9,0.42-2.89l-12.28-36.04c-0.45-1.32-1.64-2.17-3.03-2.17c-1.4,0-2.59,0.86-3.03,2.18
		l-12.13,36.06c-0.33,0.99-0.18,2.04,0.43,2.88C345.78,287.35,346.75,287.86,347.78,287.86 M359.29,225.78
		c-1.06,0-2.11,0.6-2.52,1.81l-19.29,57.12c-0.41,1.22-0.56,2.52-0.43,3.81l3.93,38.34c0.09,0.89,0.84,1.57,1.74,1.57l4.65,0
		c1.03,0,1.84-0.89,1.74-1.92l-2.81-28.42c-0.08-0.79,0.38-1.54,1.12-1.83l10.91-4.3c0.53-0.21,1.1-0.31,1.66-0.31
		s1.13,0.1,1.66,0.31l10.91,4.3c0.74,0.29,1.2,1.04,1.12,1.83l-2.81,28.42c-0.1,1.03,0.71,1.92,1.74,1.92l5.68,0
		c0.91,0,1.67-0.7,1.74-1.62l2.94-38.31c0.1-1.28-0.08-2.56-0.51-3.76l-20.68-57.21C361.36,226.37,360.32,225.78,359.29,225.78
		L359.29,225.78z M347.78,286.09c-0.91,0-1.7-0.9-1.36-1.9l12.13-36.06c0.22-0.65,0.79-0.98,1.36-0.98c0.57,0,1.14,0.32,1.36,0.97
		l12.28,36.04c0.34,1-0.45,1.9-1.36,1.9c-0.24,0-0.49-0.06-0.73-0.2l-9.88-4.6c-0.49-0.29-1.04-0.43-1.59-0.43
		c-0.55,0-1.1,0.14-1.59,0.43l-9.9,4.61C348.27,286.03,348.02,286.09,347.78,286.09L347.78,286.09z"/>
</g>
<path class="st5" d="M358.54,248.14l-12.13,36.06c-0.42,1.26,0.94,2.37,2.09,1.69l9.9-4.61c0.98-0.58,2.19-0.58,3.17,0l9.88,4.6
	c1.15,0.68,2.52-0.44,2.09-1.7l-12.28-36.04C360.82,246.83,358.98,246.84,358.54,248.14z"/>
<g class="st6">
	<path d="M359.91,251.45l10.71,31.44l-7.96-3.71c-0.81-0.45-1.73-0.69-2.67-0.69c-0.93,0-1.85,0.24-2.67,0.69l-7.99,3.72
		L359.91,251.45 M359.91,247.16c-0.57,0-1.14,0.33-1.36,0.98l-12.13,36.06c-0.34,1,0.45,1.9,1.36,1.9c0.24,0,0.49-0.06,0.73-0.2
		l9.9-4.61c0.49-0.29,1.04-0.43,1.59-0.43c0.55,0,1.1,0.14,1.59,0.43l9.88,4.6c0.24,0.14,0.49,0.2,0.73,0.2
		c0.91,0,1.7-0.91,1.36-1.9l-12.28-36.04C361.04,247.48,360.47,247.16,359.91,247.16L359.91,247.16z"/>
</g>
</svg>
