<?xml version="1.0" encoding="utf-8"?>
<!-- Generator: Adobe Illustrator 19.2.1, SVG Export Plug-In . SVG Version: 6.00 Build 0)  -->
<svg version="1.1" id="Minute_Hand_1_" xmlns="http://www.w3.org/2000/svg" xmlns:xlink="http://www.w3.org/1999/xlink" x="0px"
	 y="0px" viewBox="0 0 720 720" style="enable-background:new 0 0 720 720;" xml:space="preserve">
<style type="text/css">
	.st0{opacity:0.25;}
	.st1{opacity:0.15;}
	.st2{fill:#151515;}
	.st3{fill:#B5664F;}
	.st4{fill:#D2886C;}
	.st5{fill:#BCB186;}
	.st6{opacity:0.13;}
</style>
<g id="Drop_12_">
	<polygon id="Hole_Drop" class="st0" points="347.5,244.12 373.24,244.12 371.13,332.5 349.9,332.5 	"/>
	<g class="st1">
		<path d="M360.37,149.78c1.09,0,2.18,0.63,2.59,1.89l14.01,43.66c0.79,2.46,1.15,5.04,1.08,7.62l-3.45,118.52l-0.72,24.87
			c3.05,3.34,4.92,7.77,4.92,12.65c0,5.68-2.53,10.75-6.5,14.2l5.36,6.91v25.39l-14.95,14.21c-0.75,0.72-1.72,1.08-2.69,1.08
			s-1.94-0.36-2.69-1.08l-14.95-14.21V380.1l5.36-6.91c-3.98-3.45-6.5-8.52-6.5-14.2c0-5.25,2.16-10,5.64-13.41l-0.7-24.11
			l-3.45-118.52c-0.08-2.58,0.29-5.16,1.08-7.62l14.01-43.66C358.18,150.41,359.28,149.78,360.37,149.78 M354.75,326.08h11.52
			c0.96,0,1.75-0.77,1.77-1.73l0-0.09l0,0l1.43-65.14c0.02-0.93-0.37-1.81-1.07-2.42l-5.86-5.08c-0.58-0.51-1.31-0.76-2.04-0.76
			s-1.45,0.25-2.04,0.76l-5.86,5.08c-0.7,0.61-1.09,1.49-1.07,2.42l1.43,65.14l0,0l0,0.09C353,325.31,353.79,326.08,354.75,326.08
			 M360.37,147.43c-2.25,0-4.14,1.38-4.83,3.52l-14.01,43.66c-0.87,2.72-1.27,5.55-1.19,8.41l3.45,118.52l0.67,23.12
			c-3.62,3.92-5.61,8.97-5.61,14.33c0,5.38,2.06,10.52,5.7,14.42l-4.06,5.24l-0.49,0.64v0.81v25.39v1.01l0.73,0.7l14.95,14.21
			c1.17,1.11,2.7,1.72,4.31,1.72s3.14-0.61,4.31-1.72l14.95-14.21l0.73-0.7v-1.01V380.1v-0.81l-0.49-0.64l-4.06-5.24
			c3.65-3.9,5.7-9.05,5.7-14.42c0-4.94-1.73-9.7-4.9-13.5l0.7-23.95l3.45-118.52c0.08-2.86-0.32-5.69-1.19-8.41l-14.01-43.66
			C364.51,148.81,362.61,147.43,360.37,147.43L360.37,147.43z M355.32,323.73l-1.42-64.66c-0.01-0.23,0.09-0.44,0.26-0.59l5.86-5.08
			c0.18-0.15,0.37-0.19,0.5-0.19c0.13,0,0.32,0.03,0.5,0.19l5.86,5.08c0.17,0.15,0.27,0.36,0.26,0.59l-1.42,64.66H355.32
			L355.32,323.73z"/>
	</g>
	<g class="st1">
		<path d="M360.37,149.78c1.09,0,2.18,0.63,2.59,1.89l14.01,43.66c0.79,2.46,1.15,5.04,1.08,7.62l-3.45,118.52l-0.72,24.87
			c3.05,3.34,4.92,7.77,4.92,12.65c0,5.68-2.53,10.75-6.5,14.2l5.36,6.91v25.39l-14.95,14.21c-0.75,0.72-1.72,1.08-2.69,1.08
			s-1.94-0.36-2.69-1.08l-14.95-14.21V380.1l5.36-6.91c-3.98-3.45-6.5-8.52-6.5-14.2c0-5.25,2.16-10,5.64-13.41l-0.7-24.11
			l-3.45-118.52c-0.08-2.58,0.29-5.16,1.08-7.62l14.01-43.66C358.18,150.41,359.28,149.78,360.37,149.78 M354.75,326.08h11.52
			c0.96,0,1.75-0.77,1.77-1.73l0-0.09l0,0l1.43-65.14c0.02-0.93-0.37-1.81-1.07-2.42l-5.86-5.08c-0.58-0.51-1.31-0.76-2.04-0.76
			s-1.45,0.25-2.04,0.76l-5.86,5.08c-0.7,0.61-1.09,1.49-1.07,2.42l1.43,65.14l0,0l0,0.09C353,325.31,353.79,326.08,354.75,326.08
			 M360.37,145.08c-3.24,0-6.08,2.07-7.07,5.16l-14.01,43.66c-0.96,2.98-1.39,6.07-1.3,9.2l3.45,118.52l0.65,22.19
			c-3.61,4.24-5.58,9.56-5.58,15.2c0,5.3,1.79,10.39,5.02,14.5l-2.89,3.73l-0.99,1.27v1.61v25.39v2.02l1.46,1.39l14.95,14.21
			c1.61,1.53,3.72,2.37,5.93,2.37c2.22,0,4.33-0.84,5.93-2.37l14.95-14.21l1.46-1.39v-2.02V380.1v-1.61l-0.99-1.27l-2.89-3.73
			c3.23-4.11,5.02-9.2,5.02-14.5c0-5.19-1.72-10.2-4.87-14.29l0.67-23.09l3.45-118.52c0.09-3.13-0.35-6.22-1.3-9.2l-14.01-43.66
			C366.45,147.15,363.61,145.08,360.37,145.08L360.37,145.08z M356.26,259.76l4.25-3.68l4.25,3.68l-1.36,61.61h-5.78L356.26,259.76
			L356.26,259.76z"/>
	</g>
</g>
<path class="st2" d="M378.79,358.99c0-4.88-1.87-9.31-4.92-12.65l0.72-24.87h-6.49l-0.06,2.88c-0.02,0.96-0.81,1.73-1.77,1.73
	h-11.52c-0.96,0-1.75-0.77-1.77-1.73l-0.06-2.88h-6.78l0.7,24.11c-3.47,3.41-5.64,8.15-5.64,13.41c0,5.68,2.53,10.75,6.5,14.2
	l-5.36,6.91h35.29l-5.36-6.91C376.27,369.74,378.79,364.66,378.79,358.99z"/>
<path class="st3" d="M352.98,324.26l-1.43-65.14c-0.02-0.93,0.37-1.81,1.07-2.42l5.86-5.08c1.17-1.01,2.91-1.01,4.08,0l5.86,5.08
	c0.7,0.61,1.09,1.49,1.07,2.42l-1.43,65.14c-0.02,1,0.78,1.82,1.78,1.82h2.9c0.96,0,1.75-0.77,1.78-1.73l3.54-121.4
	c0.08-2.58-0.29-5.16-1.08-7.62l-14.01-43.66c-0.81-2.52-4.37-2.52-5.18,0l-14.01,43.66c-0.79,2.46-1.15,5.04-1.08,7.62l3.54,121.4
	c0.03,0.96,0.82,1.73,1.78,1.73h3.19C352.2,326.08,353,325.26,352.98,324.26z"/>
<g>
	<path class="st4" d="M360.37,151.55c0.21,0,0.72,0.06,0.91,0.66l14.01,43.66c0.73,2.28,1.07,4.64,1,7.03l-3.55,121.42l-2.92-0.02
		l1.43-65.14c0.03-1.46-0.58-2.84-1.68-3.79l-5.86-5.08c-0.89-0.77-2.02-1.19-3.19-1.19c-1.17,0-2.31,0.42-3.19,1.19l-5.86,5.08
		c-1.1,0.95-1.71,2.34-1.68,3.79l1.42,65.16l-3.21-0.02l-3.54-121.4c-0.07-2.39,0.27-4.76,1-7.03l14.01-43.66
		C359.65,151.61,360.16,151.55,360.37,151.55 M352.46,247.12c0.75,0,1.47-0.27,2.04-0.77l4.84-4.24c0.32-0.28,0.74-0.44,1.17-0.44
		s0.84,0.15,1.16,0.43l4.85,4.25c0.57,0.5,1.3,0.77,2.04,0.77c1.7,0,3.07-1.33,3.12-3.02l1.2-41.17c0.05-1.75-0.19-3.49-0.73-5.16
		l-8.41-26.19c-0.45-1.41-1.75-2.36-3.23-2.36c-1.48,0-2.78,0.95-3.23,2.36l-8.41,26.19c-0.54,1.67-0.78,3.41-0.73,5.16l1.2,41.17
		C349.39,245.79,350.76,247.12,352.46,247.12 M360.37,149.78c-1.09,0-2.18,0.63-2.59,1.89l-14.01,43.66
		c-0.79,2.46-1.15,5.04-1.08,7.62l3.54,121.4c0.03,0.96,0.82,1.73,1.78,1.73h3.19c1,0,1.8-0.82,1.78-1.82l-1.43-65.14
		c-0.02-0.93,0.37-1.81,1.07-2.42l5.86-5.08c0.58-0.51,1.31-0.76,2.04-0.76s1.45,0.25,2.04,0.76l5.86,5.08
		c0.7,0.61,1.09,1.49,1.07,2.42l-1.43,65.14c-0.02,1,0.78,1.82,1.78,1.82h2.9c0.96,0,1.75-0.77,1.78-1.73l3.54-121.4
		c0.08-2.58-0.29-5.16-1.08-7.62l-14.01-43.66C362.55,150.41,361.46,149.78,360.37,149.78L360.37,149.78z M352.46,245.36
		c-0.68,0-1.33-0.52-1.35-1.31l-1.2-41.17c-0.05-1.55,0.17-3.1,0.65-4.57l8.41-26.19c0.24-0.76,0.9-1.13,1.55-1.13
		s1.31,0.38,1.55,1.13l8.41,26.19c0.47,1.48,0.69,3.02,0.65,4.57l-1.2,41.17c-0.02,0.79-0.67,1.31-1.35,1.31
		c-0.3,0-0.62-0.1-0.88-0.34l-4.85-4.25c-0.67-0.58-1.49-0.87-2.32-0.87c-0.83,0-1.66,0.29-2.32,0.87l-4.85,4.25
		C353.07,245.25,352.76,245.36,352.46,245.36L352.46,245.36z"/>
</g>
<path id="Inset_10_" class="st5" d="M358.19,240.77c1.33-1.16,3.31-1.16,4.65,0l4.85,4.25c0.86,0.75,2.2,0.17,2.23-0.97l1.2-41.17
	c0.05-1.55-0.17-3.1-0.65-4.57l-8.41-26.19c-0.48-1.51-2.62-1.51-3.11,0l-8.41,26.19c-0.47,1.48-0.69,3.02-0.65,4.57l1.2,41.17
	c0.03,1.14,1.38,1.72,2.23,0.97L358.19,240.77z"/>
<g id="Inset_9_" class="st6">
	<path d="M360.51,174.97l7.72,24.05c0.39,1.23,0.57,2.5,0.54,3.79l-1.14,39.03l-3.26-2.85c-1.07-0.93-2.44-1.44-3.86-1.44
		s-2.79,0.51-3.87,1.45l-3.25,2.84l-1.14-39.03c-0.04-1.29,0.14-2.56,0.54-3.79L360.51,174.97 M360.51,170.98
		c-0.66,0-1.31,0.38-1.55,1.13l-8.41,26.19c-0.47,1.48-0.69,3.02-0.65,4.57l1.2,41.17c0.02,0.79,0.67,1.31,1.35,1.31
		c0.3,0,0.62-0.1,0.88-0.34l4.85-4.25c0.67-0.58,1.49-0.87,2.32-0.87s1.66,0.29,2.32,0.87l4.85,4.25c0.26,0.23,0.58,0.34,0.88,0.34
		c0.68,0,1.33-0.52,1.35-1.31l1.2-41.17c0.05-1.55-0.17-3.1-0.65-4.57l-8.41-26.19C361.82,171.36,361.17,170.98,360.51,170.98
		L360.51,170.98z"/>
</g>
<path d="M342.35,380.1v25.39l14.95,14.21c1.51,1.43,3.88,1.43,5.39,0l14.95-14.21V380.1H342.35z"/>
<g id="Center_4_" class="st0">
	<path d="M360,340.2c10.38,0,18.79,8.41,18.79,18.79c0,10.38-8.41,18.79-18.79,18.79s-18.79-8.41-18.79-18.79
		C341.21,348.61,349.62,340.2,360,340.2 M360,338.43c-11.34,0-20.56,9.22-20.56,20.56s9.22,20.56,20.56,20.56
		s20.56-9.22,20.56-20.56S371.34,338.43,360,338.43L360,338.43z"/>
</g>
</svg>
