<?xml version="1.0" encoding="utf-8"?>
<!-- Generator: Adobe Illustrator 19.2.1, SVG Export Plug-In . SVG Version: 6.00 Build 0)  -->
<svg version="1.1" id="Second_Hand" xmlns="http://www.w3.org/2000/svg" xmlns:xlink="http://www.w3.org/1999/xlink" x="0px"
	 y="0px" viewBox="0 0 720 720" style="enable-background:new 0 0 720 720;" xml:space="preserve">
<style type="text/css">
	.st0{opacity:0.13;}
	.st1{fill:#DE1F2B;}
	.st2{fill:#151515;}
</style>
<g id="Drop_4_" class="st0">
	<path d="M361.18,147.78l1.65,200.18c5.47,1.28,9.55,6.18,9.55,12.04c0,5.79-3.98,10.64-9.35,11.99l0.52,63.04
		c0.02,1.97-1.58,3.57-3.54,3.58c0,0,0,0,0,0c-1.97,0-3.56-1.6-3.55-3.57l0.46-63.06c-5.34-1.37-9.29-6.21-9.29-11.97
		c0-5.83,4.03-10.7,9.46-12.02l1.45-200.2L361.18,147.78 M364.09,144.84l-2.92,0l-2.65,0l-2.92,0l-0.02,2.92l-1.43,198.08
		c-5.68,2.33-9.48,7.86-9.48,14.15c0,6.19,3.71,11.68,9.27,14.06l-0.44,60.95c-0.01,1.74,0.66,3.38,1.88,4.62
		c1.23,1.24,2.86,1.92,4.6,1.92c1.75,0,3.38-0.68,4.61-1.92c1.23-1.24,1.89-2.88,1.88-4.62l-0.5-60.92
		c5.59-2.37,9.33-7.87,9.33-14.09c0-6.35-3.83-11.89-9.57-14.19l-1.63-198.05L364.09,144.84L364.09,144.84z"/>
</g>
<path id="Needle_1_" class="st1" d="M358.53,147.78l2.65,0l2.37,287.25c0.02,1.97-1.58,3.57-3.54,3.58l0,0
	c-1.97,0-3.56-1.6-3.55-3.57L358.53,147.78z"/>
<g id="Base_3_">
	<path class="st2" d="M360,370.91c-6.01,0-10.91-4.89-10.91-10.91c0-6.01,4.89-10.91,10.91-10.91c6.01,0,10.91,4.89,10.91,10.91
		C370.91,366.01,366.01,370.91,360,370.91z"/>
	<path d="M360,350.56c5.2,0,9.44,4.23,9.44,9.44s-4.23,9.44-9.44,9.44s-9.44-4.23-9.44-9.44S354.8,350.56,360,350.56 M360,347.62
		c-6.84,0-12.38,5.54-12.38,12.38s5.54,12.38,12.38,12.38s12.38-5.54,12.38-12.38S366.84,347.62,360,347.62L360,347.62z"/>
</g>
</svg>
