<?xml version="1.0" encoding="utf-8"?>
<svg version="1.1" id="Background" xmlns="http://www.w3.org/2000/svg" xmlns:xlink="http://www.w3.org/1999/xlink" x="0px" y="0px"
	 viewBox="0 0 620 620" style="enable-background:new 0 0 620 620;" xml:space="preserve">
<style type="text/css">
	.st0{fill:#282828;}
	.st1{fill:#E5E3DA;}
	.st2{fill:none;stroke:#282828;stroke-miterlimit:10;}
	.st3{fill:#FFFFFF;stroke:#282828;stroke-width:2;stroke-miterlimit:10;}
	.st4{fill:none;stroke:#79151F;stroke-width:2;stroke-miterlimit:10;}
	.st5{fill:#5A5A59;}
	.st6{fill:#71706E;}
	.st7{opacity:0.08;fill:none;stroke:#000000;stroke-width:4;stroke-miterlimit:10;}
	.st8{opacity:0.1;}
	.st9{fill:#79151F;}
	.st10{fill:none;stroke:#282828;stroke-width:6.6;stroke-miterlimit:10;}
	.st11{fill:none;stroke:#282828;stroke-width:2;stroke-linecap:round;stroke-miterlimit:10;}
	.st12{opacity:0.13;}
</style>
<circle class="st0" cx="310" cy="310" r="310"/>
<ellipse transform="matrix(3.490652e-003 -1 1 3.490652e-003 -1.0802 618.9161)" class="st1" cx="310" cy="310" rx="306" ry="306"/>
<path class="st2" d="M303.56,2.54l0.19,9.15 M297.12,2.74l0.38,9.15 M291.26,12.21l-0.57-9.14 M284.27,3.55
	l0.77,9.12 M271.46,4.89l1.15,9.08 M265.08,5.77l1.34,9.06 M258.71,6.78l1.53,9.03 M254.09,16.91l-1.72-8.99 M239.78,10.6l2.09,8.91
	 M233.52,12.13L235.8,21 M227.3,13.8l2.46,8.82 M221.11,15.6l2.65,8.76 M208.86,19.58l3.01,8.65 M202.8,21.76l3.19,8.58
	 M196.79,24.07l3.37,8.51 M190.83,26.5l3.55,8.44 M179.06,31.74l3.9,8.28 M173.26,34.54l4.07,8.2 M167.52,37.47l4.24,8.11
	 M161.85,40.51l4.41,8.02 M150.69,46.95l4.74,7.83 M145.22,50.34l4.91,7.73 M144.88,61.48l-5.07-7.63 M134.49,57.47l5.22,7.52
	 M124.07,65.04l5.54,7.29 M118.98,68.99l5.69,7.17 M119.81,80.1l-5.84-7.05 M109.05,77.2l5.98,6.93 M99.48,85.82l6.27,6.67
	 M94.83,90.28l6.41,6.54 M90.28,94.83l6.54,6.41 M92.49,105.75l-6.67-6.27 M84.13,115.04l-6.93-5.98 M73.04,113.97l7.05,5.84
	 M68.99,118.98l7.17,5.69 M65.04,124.07l7.29,5.54 M57.47,134.49l7.52,5.22 M53.85,139.82l7.63,5.07 M50.34,145.22l7.73,4.91
	 M46.95,150.69l7.83,4.74 M40.51,161.85l8.02,4.41 M37.47,167.52l8.11,4.24 M34.54,173.26l8.2,4.07 M31.74,179.06l8.28,3.9
	 M26.5,190.83l8.44,3.55 M24.07,196.79l8.51,3.37 M30.34,205.99l-8.58-3.19 M19.58,208.86l8.65,3.01 M15.6,221.11l8.76,2.65
	 M13.8,227.3l8.82,2.46 M21,235.8l-8.87-2.28 M10.6,239.78l8.91,2.09 M7.92,252.37l8.99,1.72 M6.78,258.71l9.03,1.53 M14.83,266.41
	l-9.06-1.34 M4.9,271.46l9.08,1.15 M3.55,284.27l9.12,0.77 M3.08,290.69l9.14,0.57 M2.74,297.12l9.15,0.38 M2.54,303.56l9.15,0.19
	 M2.54,316.44l9.15-0.19 M2.74,322.88l9.15-0.38 M3.08,329.31l9.14-0.57 M3.55,335.73l9.12-0.77 M4.9,348.54l9.08-1.15 M5.77,354.92
	l9.06-1.34 M6.78,361.29l9.03-1.53 M7.92,367.63l8.99-1.72 M10.6,380.22l8.91-2.09 M12.13,386.48L21,384.2 M13.8,392.7l8.82-2.46
	 M15.6,398.89l8.76-2.65 M19.58,411.14l8.65-3.01 M30.34,414.01l-8.58,3.19 M24.07,423.21l8.51-3.37 M26.5,429.17l8.44-3.55
	 M31.74,440.94l8.28-3.9 M34.54,446.74l8.2-4.07 M37.47,452.48l8.11-4.24 M40.51,458.15l8.02-4.41 M46.95,469.31l7.83-4.74
	 M50.34,474.78l7.73-4.91 M53.85,480.18l7.63-5.07 M57.47,485.51l7.52-5.22 M65.04,495.93l7.29-5.54 M68.99,501.02l7.17-5.69
	 M73.04,506.03l7.05-5.84 M77.2,510.95l6.93-5.98 M92.49,514.25l-6.67,6.27 M90.28,525.17l6.54-6.41 M94.83,529.72l6.41-6.54
	 M99.48,534.18l6.27-6.67 M109.05,542.8l5.98-6.93 M113.97,546.96l5.84-7.05 M118.98,551.01l5.69-7.17 M124.07,554.96l5.54-7.29
	 M134.49,562.53l5.22-7.52 M144.88,558.52l-5.07,7.63 M145.22,569.66l4.91-7.73 M150.69,573.05l4.74-7.83 M161.85,579.49l4.41-8.02
	 M167.52,582.53l4.24-8.11 M173.26,585.46l4.07-8.2 M179.06,588.26l3.9-8.28 M194.38,585.06l-3.55,8.44 M200.16,587.42l-3.37,8.51
	 M202.8,598.24l3.19-8.58 M208.86,600.42l3.01-8.65 M223.76,595.64l-2.65,8.76 M227.3,606.2l2.46-8.82 M233.52,607.87l2.28-8.87
	 M239.78,609.4l2.09-8.91 M252.37,612.08l1.72-8.99 M258.71,613.22l1.53-9.03 M265.08,614.23l1.34-9.06 M271.46,615.11l1.15-9.08
	 M284.27,616.45l0.77-9.12 M290.69,616.92l0.57-9.14 M297.12,617.26l0.38-9.15 M303.56,617.46l0.19-9.15 M316.44,617.46l-0.19-9.15
	 M322.88,617.26l-0.38-9.15 M329.31,616.92l-0.57-9.14 M335.73,616.45l-0.77-9.12 M347.4,606.02l1.15,9.08 M353.59,605.17l1.34,9.06
	 M361.29,613.22l-1.53-9.03 M367.63,612.08l-1.72-8.99 M380.22,609.4l-2.09-8.91 M386.48,607.87L384.2,599 M392.7,606.2l-2.46-8.82
	 M396.24,595.64l2.65,8.76 M411.14,600.42l-3.01-8.65 M417.2,598.24l-3.19-8.58 M419.84,587.42l3.37,8.51 M429.17,593.5l-3.55-8.44
	 M440.94,588.26l-3.9-8.28 M442.67,577.26l4.07,8.2 M448.24,574.42l4.24,8.11 M453.74,571.47l4.41,8.02 M469.31,573.05l-4.74-7.83
	 M469.88,561.93l4.91,7.73 M475.12,558.52l5.07,7.63 M485.51,562.53l-5.22-7.52 M490.4,547.66l5.54,7.29 M501.02,551.01l-5.69-7.17
	 M506.03,546.96l-5.84-7.05 M510.95,542.8l-5.98-6.93 M514.25,527.51l6.27,6.67 M525.17,529.72l-6.41-6.54 M529.72,525.17
	l-6.54-6.41 M527.51,514.25l6.67,6.27 M542.8,510.95l-6.93-5.98 M546.96,506.03l-7.05-5.84 M551.01,501.02l-7.17-5.69 M547.66,490.4
	l7.29,5.54 M555.01,480.29l7.52,5.22 M566.15,480.18l-7.63-5.07 M569.66,474.78l-7.73-4.91 M573.05,469.31l-7.83-4.74
	 M571.47,453.74l8.02,4.41 M582.53,452.48l-8.11-4.24 M585.46,446.74l-8.2-4.07 M588.26,440.94l-8.28-3.9 M585.06,425.62l8.44,3.55
	 M595.93,423.21l-8.51-3.37 M598.24,417.2l-8.58-3.19 M600.42,411.14l-8.65-3.01 M604.4,398.89l-8.76-2.65 M597.38,390.24l8.82,2.46
	 M607.87,386.48L599,384.2 M609.4,380.22l-8.91-2.09 M603.09,365.91l8.99,1.72 M613.22,361.29l-9.03-1.53 M614.23,354.92l-9.06-1.34
	 M606.02,347.4l9.08,1.15 M616.45,335.73l-9.12-0.77 M616.92,329.31l-9.14-0.57 M608.11,322.49l9.15,0.38 M608.31,316.25l9.15,0.19
	 M617.46,303.56l-9.15,0.19 M617.26,297.12l-9.15,0.38 M616.92,290.69l-9.14,0.57 M616.45,284.27l-9.12,0.77 M615.11,271.46
	l-9.08,1.15 M614.23,265.08l-9.06,1.34 M604.2,260.24l9.03-1.53 M612.08,252.37l-8.99,1.72 M609.4,239.78l-8.91,2.09 M599,235.8
	l8.87-2.28 M606.2,227.3l-8.82,2.46 M595.64,223.76l8.76-2.65 M591.78,211.87l8.65-3.01 M598.24,202.8l-8.58,3.19 M595.93,196.79
	l-8.51,3.37 M585.06,194.37l8.44-3.55 M588.26,179.06l-8.28,3.9 M585.46,173.26l-8.2,4.07 M582.53,167.52l-8.11,4.24 M579.49,161.85
	l-8.02,4.41 M573.05,150.69l-7.83,4.74 M569.66,145.22l-7.73,4.91 M566.15,139.82l-7.63,5.07 M562.53,134.49l-7.52,5.22
	 M554.96,124.07l-7.29,5.54 M551.01,118.98l-7.17,5.69 M539.9,119.81l7.05-5.84 M542.8,109.05l-6.93,5.98 M534.18,99.48l-6.67,6.27
	 M529.72,94.83l-6.54,6.41 M525.17,90.28l-6.41,6.54 M520.52,85.82l-6.27,6.67 M510.95,77.2l-5.98,6.93 M506.03,73.04l-5.84,7.05
	 M501.02,68.99l-5.69,7.17 M495.93,65.04l-5.54,7.29 M485.51,57.47l-5.22,7.52 M480.18,53.85l-5.07,7.63 M474.78,50.34l-4.91,7.73
	 M469.31,46.95l-4.74,7.83 M458.15,40.51l-4.41,8.02 M452.48,37.47l-4.24,8.11 M442.67,42.74l4.07-8.2 M440.94,31.74l-3.9,8.28
	 M429.17,26.5l-3.55,8.44 M423.21,24.07l-3.37,8.51 M417.2,21.76l-3.19,8.58 M411.14,19.58l-3.01,8.65 M398.89,15.6l-2.65,8.76
	 M392.7,13.8l-2.46,8.82 M386.48,12.13L384.2,21 M380.22,10.6l-2.09,8.91 M367.63,7.92l-1.72,8.99 M361.29,6.78l-1.53,9.03
	 M354.92,5.77l-1.34,9.06 M347.4,13.98l1.15-9.08 M335.73,3.55l-0.77,9.12 M329.31,3.08l-0.57,9.14 M322.88,2.74l-0.38,9.15
	 M316.44,2.54l-0.19,9.15"/>
<path class="st3" d="M280.55,29.79l-2.69-25.64 M246.06,9.19l5.36,25.22 M214.97,17.52l7.97,24.52 M184.92,29.06
	l10.49,23.55 M129.24,61.2l15.15,20.86 M104.22,81.46l17.25,19.16 M81.46,104.22l19.16,17.25 M82.06,144.39L61.2,129.24
	 M29.06,184.92l23.55,10.49 M17.52,214.97l24.52,7.97 M34.41,251.42l-25.22-5.36 M4.15,277.85l25.64,2.69 M4.15,342.15l25.64-2.69
	 M9.19,373.94l25.22-5.36 M17.52,405.03l24.52-7.97 M29.06,435.08l23.55-10.49 M61.2,490.76l20.86-15.15 M81.46,515.78l19.16-17.25
	 M104.22,538.54l17.25-19.16 M129.24,558.8l15.15-20.86 M184.92,590.94l10.49-23.55 M214.97,602.48l7.97-24.52 M251.42,585.59
	l-5.36,25.22 M277.85,615.85l2.69-25.64 M342.15,615.85l-2.69-25.64 M373.94,610.81l-5.36-25.22 M405.03,602.48l-7.97-24.52
	 M435.08,590.94l-10.49-23.55 M490.76,558.8l-15.15-20.86 M498.53,519.38l17.25,19.16 M538.54,515.78l-19.16-17.25 M558.8,490.76
	l-20.86-15.15 M567.39,424.6l23.55,10.49 M602.48,405.03l-24.52-7.97 M585.59,368.58l25.22,5.36 M615.85,342.15l-25.64-2.69
	 M590.21,280.55l25.64-2.69 M610.81,246.06l-25.22,5.36 M602.48,214.97l-24.52,7.97 M590.94,184.92l-23.55,10.49 M558.8,129.24
	l-20.86,15.15 M538.54,104.22l-19.16,17.25 M515.78,81.46l-17.25,19.16 M490.76,61.2l-15.15,20.86 M435.08,29.06L424.6,52.61
	 M405.03,17.52l-7.97,24.52 M373.94,9.19l-5.36,25.22 M342.15,4.15l-2.69,25.64"/>
<path class="st4" d="M310,9.94 M159.97,50.14l-2.99-5.18 M44.96,156.98l5.18,2.99 M9.94,310H4 M44.96,463.02
	l5.18-2.99 M156.97,575.05l2.99-5.19 M310,616v-5.94 M463.02,575.04l-2.99-5.17 M575.05,463.03l-5.19-3 M610.06,310H616
	 M575.04,156.98l-5.18,2.99 M463.03,44.95l-3,5.19 M310,9.94V4"/>
<path class="st5" d="M184.8,79.46c1.89,3.27,0.77,7.46-2.5,9.34c-3.27,1.89-7.46,0.77-9.34-2.5
	c-1.89-3.27-0.77-7.46,2.5-9.34C178.72,75.07,182.91,76.19,184.8,79.46z M76.96,175.45c-1.89,3.27-0.77,7.46,2.5,9.34
	c3.27,1.89,7.46,0.77,9.34-2.5c1.89-3.27,0.77-7.46-2.5-9.34C83.03,171.06,78.85,172.18,76.96,175.45z M76.96,444.55
	c1.89,3.27,6.07,4.39,9.34,2.5c3.27-1.89,4.39-6.07,2.5-9.34s-6.07-4.39-9.34-2.5C76.19,437.09,75.07,441.28,76.96,444.55z
	 M175.45,543.04c3.27,1.89,7.46,0.77,9.34-2.5c1.89-3.27,0.77-7.46-2.5-9.34c-3.27-1.89-7.46-0.77-9.34,2.5
	S172.18,541.15,175.45,543.04z M444.55,543.04c3.27-1.89,4.39-6.07,2.5-9.34c-1.89-3.27-6.07-4.39-9.34-2.5
	c-3.27,1.89-4.39,6.07-2.5,9.34C437.09,543.81,441.28,544.93,444.55,543.04z M543.04,444.55c1.89-3.27,0.77-7.46-2.5-9.34
	c-3.27-1.89-7.46-0.77-9.34,2.5c-1.89,3.27-0.77,7.46,2.5,9.34C536.97,448.94,541.15,447.82,543.04,444.55z M543.04,175.45
	c-1.89-3.27-6.07-4.39-9.34-2.5c-3.27,1.89-4.39,6.07-2.5,9.34c1.89,3.27,6.07,4.39,9.34,2.5
	C543.81,182.91,544.93,178.72,543.04,175.45z M444.55,76.96c-3.27-1.89-7.46-0.77-9.34,2.5c-1.89,3.27-0.77,7.46,2.5,9.34
	s7.46,0.77,9.34-2.5C448.94,83.03,447.82,78.85,444.55,76.96z"/>
<path class="st6" d="M177.54,84.11c-1.72-0.3-2.86-1.94-2.56-3.65s1.94-2.86,3.65-2.56c1.72,0.3,2.86,1.94,2.56,3.65
	S179.26,84.41,177.54,84.11z M84.81,176.13c-0.6-1.64-2.41-2.48-4.04-1.89c-1.64,0.6-2.48,2.41-1.89,4.04s2.41,2.48,4.04,1.89
	C84.56,179.57,85.41,177.76,84.81,176.13z M82.55,435.97c-1.72-0.3-3.35,0.84-3.65,2.56c-0.3,1.72,0.84,3.35,2.56,3.65
	c1.72,0.3,3.35-0.84,3.65-2.56C85.41,437.91,84.27,436.27,82.55,435.97z M177.13,532.02c-1.64,0.6-2.48,2.41-1.89,4.04
	c0.6,1.64,2.41,2.48,4.04,1.89s2.48-2.41,1.89-4.04C180.57,532.27,178.76,531.43,177.13,532.02z M437.14,534.78
	c-0.3,1.72,0.84,3.35,2.56,3.65c1.72,0.3,3.35-0.84,3.65-2.56c0.3-1.72-0.84-3.35-2.56-3.65
	C439.08,531.92,437.44,533.07,437.14,534.78z M533.1,440.46c0.6,1.64,2.41,2.48,4.04,1.89c1.64-0.6,2.48-2.41,1.89-4.04
	c-0.6-1.64-2.41-2.48-4.04-1.89C533.35,437.01,532.51,438.82,533.1,440.46z M535.62,180.03c1.72,0.3,3.35-0.84,3.65-2.56
	s-0.84-3.35-2.56-3.65s-3.35,0.84-3.65,2.56S533.9,179.73,535.62,180.03z M441.75,83.63c1.64-0.6,2.48-2.41,1.89-4.04
	c-0.6-1.64-2.41-2.48-4.04-1.89c-1.64,0.6-2.48,2.41-1.89,4.04S440.11,84.23,441.75,83.63z"/>
<path class="st7" d="M160.67,225.33v174.5 M178.67,225.33v174.5 M196.67,225.33v174.5 M214.67,225.33v174.5
	 M142.67,225.33v174.5 M124.67,225.33v174.5 M106.67,225.33v174.5 M309.97,374.66v166.98 M327.97,374.66v166.98 M345.97,374.66
	v166.98 M363.97,374.66v166.98 M291.97,374.66v166.98 M273.97,374.66v166.98 M255.97,374.66v166.98 M459.33,225.33v191.33
	 M477.33,225.33v191.33 M495.33,225.33v191.33 M513.33,225.33v191.33 M441.33,225.33v191.33 M423.33,225.33v191.33 M405.33,225.33
	v191.33"/>
<path class="st7" d="M397.07,458.86h-171.9 M397.07,440.86h-171.9 M397.07,422.86h-171.9 M397.07,404.86
	h-171.9 M397.07,476.86h-171.9 M397.07,494.86h-171.9 M397.07,512.86h-171.9 M541.5,309.53H79 M541.5,291.53H79 M541.5,273.53H79
	 M541.5,255.53H79 M541.5,327.53H79 M541.5,345.53H79 M541.5,363.53H79"/>
<path class="st8" d="M459.33,245c35.84,0,65,29.16,65,65s-29.16,65-65,65s-65-29.16-65-65S423.49,245,459.33,245 M160.67,245
	c35.84,0,65,29.16,65,65s-29.16,65-65,65s-65-29.16-65-65S124.83,245,160.67,245 M310,394.33c35.84,0,65,29.16,65,65
	s-29.16,65-65,65s-65-29.16-65-65S274.16,394.33,310,394.33 M459.33,237c-40.32,0-73,32.68-73,73c0,40.32,32.68,73,73,73
	c40.32,0,73-32.68,73-73C532.33,269.68,499.65,237,459.33,237L459.33,237z M160.67,237c-40.32,0-73,32.68-73,73
	c0,40.32,32.68,73,73,73c40.32,0,73-32.68,73-73C233.67,269.68,200.99,237,160.67,237L160.67,237z M310,386.33
	c-40.32,0-73,32.68-73,73s32.68,73,73,73s73-32.68,73-73S350.32,386.33,310,386.33L310,386.33z"/>
<path class="st8" d="M459.33,241c38.05,0,69,30.95,69,69s-30.95,69-69,69s-69-30.95-69-69S421.28,241,459.33,241 M160.67,241
	c38.05,0,69,30.95,69,69s-30.95,69-69,69s-69-30.95-69-69S122.62,241,160.67,241 M310,390.33c38.05,0,69,30.95,69,69
	c0,38.05-30.95,69-69,69s-69-30.95-69-69C241,421.28,271.95,390.33,310,390.33 M459.33,237c-40.32,0-73,32.68-73,73
	c0,40.32,32.68,73,73,73s73-32.68,73-73C532.33,269.68,499.65,237,459.33,237L459.33,237z M160.67,237c-40.32,0-73,32.68-73,73
	c0,40.32,32.68,73,73,73s73-32.68,73-73C233.67,269.68,200.99,237,160.67,237L160.67,237z M310,386.33c-40.32,0-73,32.68-73,73
	s32.68,73,73,73s73-32.68,73-73S350.32,386.33,310,386.33L310,386.33z"/>
<path class="st1" d="M310,61.7C172.87,61.7,61.7,172.87,61.7,310S172.87,558.3,310,558.3S558.3,447.13,558.3,310
	S447.13,61.7,310,61.7z M160.67,383c-40.32,0-73-32.68-73-73s32.68-73,73-73c40.32,0,73,32.68,73,73S200.99,383,160.67,383z
	 M310,532.33c-40.32,0-73-32.68-73-73s32.68-73,73-73s73,32.68,73,73S350.32,532.33,310,532.33z M459.33,383
	c-40.32,0-73-32.68-73-73s32.68-73,73-73c40.32,0,73,32.68,73,73S499.65,383,459.33,383z"/>
<path class="st0" d="M459.33,237c40.32,0,73,32.68,73,73s-32.68,73-73,73c-40.32,0-73-32.68-73-73S419.01,237,459.33,237
	 M160.67,237c40.32,0,73,32.68,73,73s-32.68,73-73,73c-40.32,0-73-32.68-73-73S120.35,237,160.67,237 M310,386.33
	c40.32,0,73,32.68,73,73c0,40.32-32.68,73-73,73s-73-32.68-73-73C237,419.01,269.68,386.33,310,386.33 M459.33,235
	c-41.36,0-75,33.64-75,75s33.64,75,75,75s75-33.64,75-75S500.68,235,459.33,235L459.33,235z M160.67,235c-41.36,0-75,33.64-75,75
	s33.64,75,75,75s75-33.64,75-75S202.03,235,160.67,235L160.67,235z M310,384.33c-41.36,0-75,33.64-75,75s33.64,75,75,75
	s75-33.64,75-75S351.36,384.33,310,384.33L310,384.33z"/>
<path class="st9" d="M308.84,14.78l-1.26,1.59l-3.29-1.55c-0.45,0.65-0.78,1.27-0.97,1.87
	c-0.26,0.85-0.39,1.67-0.39,2.47c0,0.21,0.01,0.46,0.04,0.74l4.04-2.68c0.83,0.33,1.45,0.78,1.86,1.33
	c0.41,0.55,0.61,1.18,0.61,1.89c0,0.87-0.25,1.65-0.75,2.34c-0.71,0.99-1.82,1.91-3.33,2.74c-1.42-0.48-2.47-1.19-3.16-2.11
	c-0.69-0.93-1.04-2.04-1.04-3.34c0-0.98,0.17-1.84,0.5-2.58c0.33-0.74,0.85-1.5,1.55-2.27s1.45-1.45,2.24-2.02L308.84,14.78z
	 M303.03,20.39c0.23,0.93,0.71,1.71,1.44,2.32c0.73,0.62,1.61,1.01,2.65,1.18c0.59-0.63,0.89-1.34,0.89-2.13
	c0-0.6-0.22-1.16-0.66-1.69c-0.44-0.53-1.12-0.93-2.03-1.22L303.03,20.39z M314.57,13.2c1.35,0.46,2.4,1.2,3.15,2.22
	s1.12,2.22,1.12,3.6c0,1.35-0.35,2.59-1.04,3.69c-0.7,1.11-1.64,2.05-2.83,2.82c-0.85-0.2-1.63-0.58-2.32-1.14
	c-0.69-0.56-1.22-1.25-1.59-2.09c-0.37-0.83-0.55-1.7-0.55-2.59c0-1.28,0.37-2.53,1.11-3.74C312.35,14.76,313.33,13.84,314.57,13.2z
	 M313.03,14.84c-0.83,0.93-1.24,2.06-1.24,3.37c0,0.93,0.2,1.8,0.6,2.62s0.97,1.5,1.71,2.03c0.74,0.53,1.5,0.86,2.27,0.97
	c0.43-0.59,0.74-1.14,0.92-1.65c0.18-0.51,0.27-1.08,0.27-1.71c0-0.86-0.17-1.67-0.52-2.45c-0.35-0.78-0.87-1.43-1.56-1.97
	C314.77,15.52,313.96,15.12,313.03,14.84z M456.52,51.63l4.8,2.77l-1.44,1.14l-4.08-2.36l-2.69,3.3l4.54-0.31
	c0.64,0.87,1.01,1.74,1.1,2.61c0.09,0.87-0.08,1.66-0.5,2.39c-0.53,0.93-1.33,1.6-2.4,2.03c-1.06,0.43-2.41,0.35-4.03-0.23
	l-1.92-3.47l1.8-0.56l2.34,4.09c0.51-0.09,0.91-0.22,1.2-0.41c0.44-0.27,0.78-0.62,1.02-1.04c0.41-0.71,0.56-1.47,0.45-2.29
	c-0.11-0.82-0.54-1.66-1.3-2.54l-3.21,0.21L456.52,51.63z M561.81,155.85l2.74,1c0.08,0.58,0.02,1.07-0.17,1.49
	c-0.19,0.41-0.55,0.77-1.06,1.06l-6.46,3.73c-0.18,0.1-0.3,0.21-0.35,0.32c-0.1,0.2-0.17,0.51-0.22,0.93l1.17,0.44l-0.12,0.4
	l-2.83-1.09l0.15-2.58l0.99,0.12l5.78-3.34c0.39-0.23,0.65-0.41,0.77-0.55c0.2-0.23,0.32-0.46,0.37-0.71
	c0.03-0.17,0.02-0.31-0.03-0.39c-0.06-0.1-0.22-0.2-0.47-0.3c-0.15-0.06-0.28-0.11-0.38-0.15L561.81,155.85z M569.49,165.42
	c0.27,1.4,0.16,2.68-0.35,3.84c-0.51,1.16-1.36,2.08-2.55,2.77c-1.17,0.68-2.41,0.99-3.72,0.94c-1.31-0.05-2.59-0.39-3.86-1.04
	c-0.25-0.84-0.31-1.7-0.17-2.58c0.14-0.88,0.47-1.69,1.01-2.42c0.54-0.73,1.19-1.32,1.97-1.77c1.11-0.64,2.38-0.95,3.79-0.91
	C567.03,164.28,568.32,164.67,569.49,165.42z M567.3,164.91c-1.22-0.25-2.4-0.04-3.54,0.61c-0.8,0.46-1.46,1.07-1.97,1.83
	c-0.51,0.75-0.81,1.59-0.91,2.49c-0.09,0.91,0,1.72,0.29,2.45c0.72,0.08,1.36,0.07,1.89-0.03c0.54-0.1,1.07-0.3,1.61-0.62
	c0.74-0.43,1.36-0.99,1.86-1.67c0.5-0.69,0.81-1.47,0.92-2.34C567.59,166.76,567.53,165.85,567.3,164.91z M604.93,302.92l1.87,2.23
	c-0.22,0.54-0.52,0.94-0.89,1.2c-0.37,0.26-0.86,0.39-1.45,0.39h-7.46c-0.21,0-0.36,0.04-0.46,0.11c-0.18,0.12-0.4,0.36-0.65,0.7
	l0.79,0.97l-0.3,0.29l-1.91-2.36l1.42-2.16l0.79,0.6h6.67c0.45,0,0.76-0.03,0.94-0.09c0.29-0.1,0.51-0.24,0.68-0.43
	c0.11-0.14,0.17-0.26,0.17-0.36c0-0.12-0.09-0.28-0.26-0.49c-0.1-0.13-0.18-0.23-0.25-0.32L604.93,302.92z M606.64,312.9v5.54
	l-1.71-0.68v-4.71l-4.2-0.68l2.54,3.78c-0.43,0.99-1,1.74-1.71,2.25c-0.71,0.51-1.48,0.76-2.32,0.76c-1.07,0-2.05-0.35-2.95-1.06
	c-0.9-0.71-1.51-1.91-1.82-3.61l2.04-3.4l1.38,1.28l-2.37,4.07c0.33,0.4,0.65,0.68,0.95,0.84c0.45,0.24,0.92,0.37,1.42,0.37
	c0.82,0,1.56-0.25,2.21-0.75c0.65-0.5,1.17-1.3,1.55-2.4l-1.78-2.68L606.64,312.9z M155.65,56.02l4.8-2.77l0.27,1.82l-4.08,2.36
	l1.51,3.98l2-4.09c1.08-0.12,2.01,0,2.81,0.36c0.79,0.36,1.4,0.9,1.82,1.62c0.53,0.93,0.72,1.96,0.56,3.09
	c-0.16,1.13-0.9,2.26-2.21,3.38l-3.96-0.07l0.41-1.84l4.71,0.02c0.18-0.49,0.26-0.9,0.25-1.24c-0.01-0.51-0.14-0.98-0.39-1.41
	c-0.41-0.71-1-1.22-1.76-1.54c-0.76-0.32-1.71-0.36-2.86-0.14l-1.43,2.88L155.65,56.02z M163.7,51.37l4.8-2.77l0.27,1.82l-4.08,2.36
	l1.51,3.98l2-4.09c1.08-0.12,2.01,0,2.81,0.36c0.79,0.36,1.4,0.9,1.82,1.62c0.53,0.93,0.72,1.96,0.56,3.09
	c-0.16,1.13-0.9,2.26-2.21,3.38l-3.96-0.07l0.41-1.84l4.71,0.02c0.18-0.49,0.26-0.9,0.25-1.24c-0.01-0.51-0.14-0.98-0.39-1.41
	c-0.41-0.71-1-1.22-1.76-1.54c-0.76-0.31-1.71-0.36-2.85-0.14l-1.43,2.88L163.7,51.37z M49.29,168.06l2.77-4.8l1.14,1.44l-2.36,4.08
	l3.3,2.69l-0.31-4.54c0.87-0.64,1.74-1.01,2.61-1.1c0.87-0.09,1.66,0.08,2.39,0.5c0.93,0.53,1.6,1.33,2.03,2.4
	c0.42,1.06,0.35,2.41-0.23,4.03l-3.47,1.92l-0.56-1.8l4.09-2.34c-0.09-0.51-0.22-0.91-0.41-1.2c-0.27-0.44-0.62-0.78-1.04-1.02
	c-0.71-0.41-1.47-0.56-2.29-0.45c-0.82,0.11-1.66,0.54-2.54,1.3l0.21,3.21L49.29,168.06z M54.87,158.06
	c1.08-0.94,2.24-1.48,3.5-1.61c1.26-0.14,2.48,0.14,3.68,0.83c1.17,0.68,2.07,1.59,2.68,2.75c0.61,1.16,0.95,2.44,1.03,3.86
	c-0.6,0.64-1.32,1.12-2.15,1.44c-0.83,0.32-1.7,0.43-2.6,0.34c-0.9-0.1-1.74-0.37-2.52-0.82c-1.11-0.64-2.01-1.59-2.69-2.83
	C55.11,160.76,54.81,159.45,54.87,158.06z M55.52,160.22c0.4,1.18,1.16,2.1,2.3,2.76c0.8,0.46,1.66,0.73,2.57,0.79
	c0.91,0.06,1.78-0.09,2.61-0.46c0.83-0.37,1.49-0.87,1.98-1.48c-0.29-0.67-0.62-1.21-0.97-1.62c-0.35-0.41-0.8-0.78-1.34-1.09
	c-0.74-0.43-1.53-0.69-2.38-0.77c-0.84-0.09-1.67,0.04-2.49,0.37C56.99,159.04,56.23,159.55,55.52,160.22z M20,310.82l1.6-0.34v2.17
	h1.84l0.27-0.54c0.09-0.2,0.13-0.33,0.13-0.4c0-0.1-0.05-0.21-0.14-0.32l-0.26-0.31l0.31-0.26l1.78,2.14l-1.33,2.13l-0.77-0.57H21.6
	v4.23l-1.73,0.37l-6.67-4.98c0.06-0.42,0.27-0.78,0.63-1.06c0.36-0.29,0.87-0.43,1.52-0.43H20V310.82z M20,314.52h-3.72
	c-0.34,0-0.61,0.04-0.79,0.12c-0.18,0.08-0.33,0.21-0.43,0.38l4.94,3.69V314.52z M13.36,307.73v-5.54l1.71,0.68v4.71l4.2,0.68
	l-2.54-3.78c0.43-0.99,1-1.74,1.71-2.25c0.71-0.51,1.48-0.76,2.32-0.76c1.07,0,2.05,0.35,2.95,1.06c0.9,0.71,1.51,1.91,1.82,3.61
	l-2.04,3.4l-1.38-1.28l2.37-4.07c-0.33-0.4-0.65-0.68-0.95-0.84c-0.45-0.24-0.92-0.37-1.42-0.37c-0.82,0-1.56,0.25-2.21,0.75
	c-0.65,0.5-1.17,1.3-1.55,2.4l1.78,2.68L13.36,307.73z M554.43,462.02l-0.55-4.6l4.38-2.43c0.31,0.15,0.57,0.29,0.77,0.4
	c0.84,0.49,1.43,1.13,1.76,1.94c0.33,0.81,0.48,2.28,0.46,4.41c-0.01,0.96,0.03,1.66,0.11,2.1c0.08,0.44,0.23,0.88,0.45,1.33
	c0.08-0.79,0.21-1.45,0.36-1.98c0.16-0.53,0.37-1.02,0.63-1.47c0.22-0.39,0.48-0.76,0.77-1.13c0.29-0.37,0.53-0.64,0.71-0.82
	l1.09-0.97l0.69,2.19c-0.74,0.64-1.23,1.09-1.46,1.35c-0.37,0.41-0.67,0.81-0.91,1.23c-0.45,0.78-0.76,1.74-0.94,2.87
	c-0.03,0.24-0.06,0.38-0.08,0.41c-0.02,0.03-0.04,0.05-0.07,0.05c-0.04,0.01-0.08-0.01-0.13-0.04c-0.25-0.14-0.5-0.4-0.76-0.78
	c-0.35-0.51-0.64-1.11-0.87-1.81c-0.16-0.5-0.33-1.25-0.49-2.26s-0.31-1.72-0.44-2.15c-0.2-0.6-0.46-1.13-0.78-1.58
	c-0.33-0.45-0.74-0.82-1.24-1.11c-0.75-0.43-1.52-0.5-2.32-0.22l0.6,4.62L554.43,462.02z M558.62,449.2
	c1.08-0.94,2.24-1.48,3.5-1.61c1.26-0.14,2.48,0.14,3.68,0.83c1.17,0.68,2.07,1.59,2.68,2.75c0.61,1.16,0.95,2.44,1.03,3.86
	c-0.6,0.64-1.32,1.12-2.15,1.44c-0.83,0.32-1.7,0.43-2.6,0.34c-0.9-0.1-1.74-0.37-2.52-0.82c-1.11-0.64-2.01-1.58-2.69-2.83
	C558.86,451.91,558.55,450.59,558.62,449.2z M559.27,451.36c0.39,1.18,1.16,2.1,2.3,2.76c0.8,0.46,1.66,0.73,2.57,0.79
	s1.78-0.09,2.61-0.46c0.83-0.37,1.49-0.87,1.98-1.48c-0.29-0.67-0.62-1.21-0.97-1.62c-0.35-0.41-0.8-0.78-1.34-1.09
	c-0.74-0.43-1.53-0.69-2.38-0.77c-0.84-0.09-1.67,0.04-2.49,0.37C560.73,450.18,559.97,450.69,559.27,451.36z M446.2,563.19
	l1.82-4.26l5.01,0.09c0.19,0.29,0.35,0.53,0.46,0.73c0.49,0.84,0.67,1.7,0.55,2.56c-0.12,0.86-0.72,2.22-1.81,4.06
	c-0.49,0.83-0.81,1.45-0.96,1.87c-0.15,0.42-0.24,0.88-0.27,1.37c0.47-0.64,0.9-1.15,1.3-1.53c0.4-0.38,0.83-0.7,1.28-0.96
	c0.39-0.22,0.8-0.42,1.23-0.6c0.44-0.18,0.78-0.29,1.02-0.36l1.42-0.3l-0.5,2.24c-0.97,0.18-1.61,0.33-1.94,0.44
	c-0.52,0.17-0.99,0.37-1.4,0.61c-0.78,0.45-1.53,1.12-2.24,2.01c-0.15,0.19-0.24,0.3-0.27,0.31s-0.06,0.02-0.09,0.01
	c-0.04-0.01-0.07-0.05-0.1-0.1c-0.14-0.25-0.23-0.6-0.27-1.05c-0.05-0.62,0-1.28,0.15-2c0.11-0.51,0.34-1.25,0.71-2.2
	s0.59-1.65,0.69-2.08c0.13-0.62,0.17-1.2,0.11-1.76c-0.06-0.56-0.23-1.08-0.52-1.58c-0.43-0.75-1.06-1.2-1.9-1.35l-1.79,4.3
	L446.2,563.19z M454.46,555.39l4.8-2.77l0.27,1.82l-4.08,2.36l1.51,3.98l2-4.09c1.08-0.12,2.01,0,2.81,0.36
	c0.79,0.36,1.4,0.9,1.82,1.63c0.53,0.93,0.72,1.96,0.56,3.09c-0.16,1.13-0.9,2.26-2.21,3.38l-3.96-0.07l0.41-1.84l4.71,0.02
	c0.18-0.49,0.26-0.9,0.25-1.24c-0.01-0.51-0.14-0.98-0.39-1.41c-0.41-0.71-1-1.22-1.76-1.54c-0.76-0.31-1.71-0.36-2.85-0.14
	l-1.43,2.88L454.46,555.39z M304.81,594.46l4.18,1.83c0.04,0.22,0.05,0.42,0.05,0.59c0,0.72-0.22,1.35-0.66,1.88
	c-0.44,0.54-1.02,0.98-1.76,1.33c0.99,0.23,1.74,0.62,2.24,1.18c0.5,0.56,0.75,1.16,0.75,1.8c0,0.68-0.28,1.3-0.84,1.84
	c-0.72,0.71-2.04,1.34-3.98,1.88l-3.57-2.76l1.28-1.28l3.98,3.05c0.33-0.3,0.57-0.62,0.73-0.96s0.23-0.77,0.23-1.28
	c0-0.97-0.28-1.73-0.83-2.31c-0.56-0.57-1.3-0.86-2.23-0.86c-0.3,0-0.62,0.03-0.96,0.08v-0.65h0.18c1.03,0,1.84-0.28,2.41-0.84
	c0.57-0.56,0.86-1.32,0.86-2.3c0-0.39-0.06-0.67-0.18-0.82c-0.12-0.16-0.26-0.24-0.42-0.24c-0.17,0-0.37,0.09-0.6,0.28l-0.14,0.11
	l-2.44,1.73l-1.17-1.2L304.81,594.46z M314.78,594.46c1.35,0.46,2.4,1.2,3.15,2.22c0.75,1.02,1.12,2.22,1.12,3.6
	c0,1.35-0.35,2.59-1.04,3.69c-0.7,1.11-1.64,2.05-2.83,2.82c-0.85-0.2-1.63-0.58-2.32-1.14c-0.69-0.56-1.22-1.25-1.59-2.09
	c-0.37-0.83-0.55-1.7-0.55-2.59c0-1.28,0.37-2.53,1.11-3.74C312.56,596.02,313.54,595.1,314.78,594.46z M313.24,596.1
	c-0.83,0.93-1.24,2.06-1.24,3.37c0,0.93,0.2,1.8,0.6,2.62c0.4,0.82,0.97,1.5,1.71,2.03c0.74,0.53,1.5,0.86,2.27,0.97
	c0.43-0.59,0.74-1.14,0.92-1.65c0.18-0.51,0.27-1.08,0.27-1.71c0-0.86-0.17-1.67-0.52-2.45c-0.35-0.78-0.87-1.43-1.56-1.97
	C314.98,596.78,314.17,596.38,313.24,596.1z M163.77,553.85l2.71,3.67c-0.08,0.21-0.16,0.39-0.25,0.54
	c-0.36,0.62-0.86,1.06-1.51,1.3s-1.38,0.34-2.19,0.28c0.75,0.69,1.2,1.4,1.35,2.14c0.16,0.73,0.07,1.38-0.25,1.94
	c-0.34,0.59-0.89,0.98-1.65,1.18c-0.98,0.26-2.44,0.14-4.39-0.36l-1.71-4.18l1.75-0.47l1.92,4.63c0.43-0.09,0.81-0.25,1.11-0.47
	c0.31-0.22,0.59-0.55,0.84-0.99c0.48-0.84,0.63-1.64,0.43-2.41c-0.2-0.77-0.7-1.39-1.5-1.86c-0.26-0.15-0.55-0.29-0.87-0.41
	l0.33-0.56l0.15,0.09c0.9,0.52,1.73,0.68,2.5,0.48c0.77-0.2,1.4-0.72,1.89-1.56c0.2-0.34,0.28-0.61,0.25-0.8
	c-0.03-0.2-0.11-0.34-0.25-0.42c-0.14-0.08-0.36-0.1-0.66-0.06l-0.18,0.02l-2.98,0.28l-0.41-1.63L163.77,553.85z M170.46,557.89
	l4.8,2.77l-1.44,1.14l-4.08-2.36l-2.69,3.3l4.54-0.31c0.64,0.87,1.01,1.74,1.1,2.61c0.09,0.87-0.08,1.66-0.5,2.39
	c-0.53,0.93-1.33,1.6-2.4,2.03c-1.06,0.43-2.41,0.35-4.03-0.23l-1.92-3.47l1.8-0.56l2.34,4.09c0.51-0.09,0.91-0.22,1.2-0.41
	c0.44-0.27,0.78-0.62,1.03-1.04c0.41-0.71,0.56-1.47,0.45-2.29c-0.11-0.82-0.54-1.66-1.3-2.54l-3.21,0.21L170.46,557.89z
	 M58.02,455.7l-1.21,1.09l-1.09-1.88l-1.6,0.92l0.04,0.6c0.02,0.21,0.05,0.35,0.08,0.41c0.05,0.09,0.14,0.16,0.28,0.21l0.38,0.14
	l-0.14,0.38l-2.62-0.96l0.09-2.5l0.95,0.11l1.6-0.92l-2.12-3.67l1.31-1.19l8.26,0.98c0.16,0.4,0.15,0.81-0.02,1.23
	s-0.54,0.81-1.11,1.13l-4.02,2.32L58.02,455.7z M56.17,452.5l3.22-1.86c0.3-0.17,0.51-0.34,0.62-0.5c0.12-0.16,0.18-0.34,0.18-0.54
	l-6.13-0.73L56.17,452.5z M66.53,456.83c0.27,1.4,0.16,2.68-0.35,3.84c-0.51,1.16-1.36,2.08-2.55,2.77
	c-1.17,0.68-2.41,0.99-3.72,0.94c-1.31-0.05-2.59-0.39-3.86-1.04c-0.25-0.84-0.31-1.7-0.17-2.58c0.14-0.88,0.47-1.69,1.01-2.42
	c0.54-0.73,1.19-1.32,1.97-1.77c1.11-0.64,2.38-0.95,3.79-0.91S65.36,456.08,66.53,456.83z M64.34,456.32
	c-1.22-0.25-2.4-0.04-3.54,0.61c-0.8,0.46-1.46,1.07-1.97,1.83c-0.51,0.75-0.81,1.59-0.91,2.49c-0.09,0.91,0,1.72,0.29,2.45
	c0.72,0.08,1.36,0.07,1.89-0.03c0.54-0.1,1.07-0.3,1.61-0.62c0.74-0.43,1.36-0.99,1.86-1.67c0.5-0.69,0.81-1.47,0.92-2.34
	C64.62,458.17,64.57,457.27,64.34,456.32z"/>
<path class="st0" d="M305.77,585.53l-14.5-27.42h7.41l7.47,14.2l7.47-14.2h6.52l-13.65,27.41
	c-0.1,0.2-0.28,0.22-0.36,0.22C306.06,585.72,305.87,585.72,305.77,585.53z M53.88,304.61l7.6-7.25v-4.71h-4.01l-9.52,8.94
	l-9.52-8.94h-4.01v4.93l7.37,7.03l-7.37,7.03v4.93h4.01l9.52-8.94l9.52,8.94h4.01v-4.71L53.88,304.61z M298.63,42.71l-7.25-7.6
	h-4.71v4.01l8.94,9.52l-8.94,9.52v4.01h4.93l7.03-7.37l7.03,7.37h4.93v-4.01l-8.94-9.52l8.94-9.52V35.1h-4.71L298.63,42.71z"/>
<path class="st10" d="M325.75,585.53v-27.67 M62.3,324.04H34.63 M318.06,34.23V61.7 M330.15,34.83V62.5
	 M585.87,310H558.2 M585.87,297.04H558.2 M585.87,322.96H558.2"/>
<path class="st11" d="M591.52,310c0,155.48-126.04,281.52-281.52,281.52S28.48,465.48,28.48,310S154.52,28.48,310,28.48
	S591.52,154.52,591.52,310z M310,34.11C157.63,34.11,34.11,157.63,34.11,310S157.63,585.89,310,585.89S585.89,462.37,585.89,310
	S462.37,34.11,310,34.11z M310,61.7C172.87,61.7,61.7,172.87,61.7,310S172.87,558.3,310,558.3S558.3,447.13,558.3,310
	S447.13,61.7,310,61.7z M392.67,202.5h-161"/>
<path class="st12" d="M309.89,9c2.12,0,4.28,0.02,6.42,0.07c40.63,0.85,79.87,9.63,116.64,26.1c35.52,15.91,67.25,38.28,94.31,66.5
	s48.08,60.86,62.49,97.01c14.91,37.43,22.04,77,21.19,117.63c-0.84,40.1-9.41,78.88-25.48,115.25
	c-15.52,35.13-37.38,66.63-64.97,93.61c-27.56,26.96-59.51,48.11-94.95,62.86C388.9,603.27,350.08,611,310.13,611
	c-2.13,0-4.3-0.02-6.43-0.07c-40.63-0.85-79.87-9.63-116.64-26.1c-35.52-15.91-67.25-38.28-94.31-66.5s-48.08-60.86-62.49-97.01
	c-14.91-37.43-22.04-77-21.19-117.63c0.84-40.1,9.41-78.88,25.49-115.25c15.52-35.13,37.38-66.63,64.97-93.61
	c27.56-26.96,59.51-48.11,94.95-62.86C231.1,16.73,269.92,9,309.89,9L309.89,9 M309.87,4C143.86,4,7.56,136.82,4.07,303.59
	c-3.54,168.96,130.56,308.8,299.52,312.34c2.19,0.05,4.36,0.07,6.53,0.07c166.01,0,302.31-132.82,305.81-299.59
	C619.47,147.45,485.37,7.61,316.41,4.07C314.22,4.02,312.05,4,309.87,4L309.87,4z"/>
<path class="st12" d="M309.88,14L309.88,14c2.1,0,4.22,0.02,6.32,0.07c39.96,0.84,78.55,9.47,114.7,25.66c34.93,15.64,66.13,37.65,92.74,65.4
	c26.61,27.75,47.29,59.85,61.46,95.4c14.66,36.8,21.68,75.72,20.84,115.68c-0.83,39.44-9.26,77.57-25.06,113.34
	c-15.26,34.55-36.76,65.52-63.89,92.06c-27.11,26.51-58.52,47.31-93.37,61.81C387.59,598.4,349.41,606,310.13,606
	c-2.1,0-4.22-0.02-6.32-0.07c-39.96-0.84-78.55-9.47-114.7-25.66c-34.93-15.64-66.13-37.65-92.74-65.4
	c-26.61-27.75-47.29-59.85-61.45-95.4c-14.66-36.8-21.68-75.72-20.84-115.68c0.83-39.44,9.26-77.57,25.06-113.34
	c15.26-34.55,36.76-65.52,63.89-92.06c27.11-26.51,58.52-47.31,93.37-61.81C232.41,21.6,270.59,14,309.88,14 M309.87,4
	C143.86,4,7.56,136.82,4.07,303.59c-3.54,168.96,130.56,308.8,299.52,312.34c2.19,0.05,4.36,0.07,6.53,0.07
	c166.01,0,302.31-132.82,305.81-299.59C619.47,147.45,485.37,7.61,316.41,4.07C314.22,4.02,312.05,4,309.87,4L309.87,4z"/>
<path class="st12" d="M309.89,19c2.05,0,4.14,0.02,6.2,0.07c39.28,0.82,77.22,9.31,112.76,25.23c34.34,15.38,65.01,37.01,91.18,64.29
	s46.49,58.84,60.42,93.79c14.42,36.18,21.31,74.44,20.48,113.72c-0.81,38.78-9.1,76.26-24.63,111.42
	c-15.01,33.97-36.14,64.42-62.82,90.51c-26.65,26.07-57.54,46.51-91.8,60.77C386.29,593.53,348.75,601,310.13,601
	c-2.06,0-4.16-0.02-6.22-0.07c-39.28-0.82-77.22-9.31-112.76-25.23c-34.34-15.38-65.01-37.01-91.18-64.29
	c-26.16-27.28-46.49-58.84-60.42-93.79c-14.42-36.18-21.31-74.44-20.49-113.72c0.81-38.78,9.1-76.26,24.63-111.42
	c15.01-33.97,36.14-64.42,62.82-90.5c26.65-26.07,57.54-46.51,91.8-60.77C233.71,26.47,271.25,19,309.89,19L309.89,19 M309.87,4
	C143.86,4,7.56,136.82,4.07,303.59c-3.54,168.96,130.56,308.8,299.52,312.34c2.19,0.05,4.36,0.07,6.53,0.07
	c166.01,0,302.31-132.82,305.81-299.59C619.47,147.45,485.37,7.61,316.41,4.07C314.22,4.02,312.05,4,309.87,4L309.87,4z"/>
<path class="st12" d="M310,38.11c149.92,0,271.89,121.97,271.89,271.89S459.92,581.89,310,581.89S38.11,459.92,38.11,310S160.08,38.11,310,38.11
	 M310,562.3c67.39,0,130.75-26.24,178.4-73.9c47.65-47.65,73.9-111.01,73.9-178.4c0-67.39-26.24-130.75-73.9-178.4
	C440.75,83.94,377.39,57.7,310,57.7c-67.39,0-130.75,26.24-178.4,73.9C83.94,179.25,57.7,242.61,57.7,310
	c0,67.39,26.24,130.75,73.9,178.4C179.25,536.06,242.61,562.3,310,562.3 M310,35.11C158.43,35.11,35.11,158.43,35.11,310
	c0,151.57,123.31,274.89,274.89,274.89c151.57,0,274.89-123.32,274.89-274.89C584.89,158.43,461.57,35.11,310,35.11L310,35.11z
	 M310,559.3c-66.59,0-129.2-25.93-176.28-73.02C86.63,439.2,60.7,376.59,60.7,310s25.93-129.2,73.02-176.28
	C180.8,86.63,243.41,60.7,310,60.7s129.2,25.93,176.28,73.02C533.37,180.8,559.3,243.41,559.3,310s-25.93,129.2-73.02,176.28
	S376.59,559.3,310,559.3L310,559.3z"/>
<path class="st12" d="M310,41.11c148.27,0,268.89,120.62,268.89,268.89S458.27,578.89,310,578.89S41.11,458.27,41.11,310S161.73,41.11,310,41.11
	 M310,565.3c68.19,0,132.3-26.56,180.52-74.78C538.74,442.3,565.3,378.19,565.3,310c0-68.19-26.56-132.31-74.78-180.52
	C442.3,81.26,378.19,54.7,310,54.7c-68.19,0-132.31,26.56-180.52,74.78C81.26,177.69,54.7,241.81,54.7,310
	c0,68.19,26.56,132.3,74.78,180.52C177.69,538.74,241.81,565.3,310,565.3 M310,35.11C158.43,35.11,35.11,158.43,35.11,310
	c0,151.57,123.32,274.89,274.89,274.89c151.57,0,274.89-123.32,274.89-274.89C584.89,158.43,461.57,35.11,310,35.11L310,35.11z
	 M310,559.3c-66.59,0-129.2-25.93-176.28-73.02C86.63,439.2,60.7,376.59,60.7,310s25.93-129.2,73.02-176.28
	C180.8,86.63,243.41,60.7,310,60.7s129.2,25.93,176.28,73.02C533.37,180.8,559.3,243.41,559.3,310s-25.93,129.2-73.02,176.28
	S376.59,559.3,310,559.3L310,559.3z"/>
<path class="st0" d="M253.32,170.25h4.14l-12.62,29.01h-1.27l-12.44-29.01h4.13l8.95,20.89L253.32,170.25z M260.51,199.26
	h3.78v-29.01h-3.78V199.26z M280.4,191.14l-8.95-20.89h-4.14l12.45,29.01h1.27l12.62-29.01h-4.14L280.4,191.14z M309.36,170.25
	l13.53,29.01h-4.11l-4.4-9.22h-11.44l-4.38,9.22h-4.23l13.71-29.01H309.36z M308.69,177.84l-4.02,8.48h8L308.69,177.84z
	 M345.18,190.85l-17.88-20.6h-1.34v29.01h3.88v-20.34l17.76,20.34h1.36v-29.01h-3.78V190.85z M352.03,173.99h6.26v25.27h3.84v-25.27
	h6.25v-3.74h-16.35V173.99z M388.47,174.03v-3.78h-17.05v29.01h16.94v-3.78H375.2v-9.97h13.16v-3.76H375.2v-7.72H388.47z
	 M250.38,226.35c0-0.35-0.19-0.53-0.57-0.53l-4.01-0.01v-18.65l-1.7,0.01c-0.22,1.04-1.28,1.55-3.18,1.55h-1.93
	c-0.28,0-0.42,0.13-0.42,0.4v0.84c0,0.24,0.02,0.38,0.07,0.43s0.19,0.07,0.42,0.07h4.64v15.37h-3.94c-0.31,0-0.47,0.14-0.47,0.41
	v0.94c0,0.24,0.04,0.38,0.13,0.44c0.06,0.05,0.22,0.07,0.48,0.07h10.03c0.29,0,0.44-0.18,0.44-0.53V226.35z M263.97,216.77
	c2.16-0.7,3.24-2.21,3.24-4.52c0-1.63-0.64-2.91-1.92-3.85c-1.14-0.85-2.56-1.27-4.25-1.27c-1.54,0-2.86,0.42-3.94,1.26
	c-1.18,0.92-1.77,2.13-1.77,3.63c0,0.28,0.02,0.46,0.07,0.54c0.07,0.11,0.24,0.16,0.5,0.16h0.89c0.32,0,0.47-0.15,0.47-0.44
	c0-1.01,0.4-1.82,1.2-2.44c0.73-0.55,1.62-0.83,2.65-0.83c1.09,0,2.01,0.31,2.75,0.92c0.78,0.66,1.17,1.53,1.17,2.6
	c0,1.04-0.39,1.88-1.16,2.51c-0.73,0.59-1.62,0.89-2.69,0.89c-0.39,0-0.59,0.13-0.59,0.38v1.3c0,0.14,0.14,0.21,0.43,0.21
	c1.27,0,2.32,0.36,3.14,1.07c0.88,0.75,1.32,1.75,1.32,2.99c0,1.29-0.39,2.31-1.18,3.06s-1.83,1.13-3.13,1.13
	c-2.84,0-4.26-1.5-4.26-4.51c0-0.31-0.06-0.51-0.18-0.6c-0.12-0.09-0.34-0.13-0.68-0.13h-0.4c-0.34,0-0.56,0.1-0.65,0.29
	c-0.05,0.11-0.07,0.37-0.07,0.79c0,1.88,0.58,3.36,1.73,4.45s2.67,1.63,4.56,1.63s3.44-0.52,4.66-1.57
	c1.28-1.11,1.92-2.59,1.92-4.45C267.81,219.45,266.53,217.71,263.97,216.77z M291.94,206.16h-2.15v14.46c0,1.77-0.1,2.95-0.3,3.56
	c-0.2,0.61-0.55,1.1-1.04,1.48c-0.49,0.38-1.06,0.56-1.69,0.56c-0.47,0-0.95-0.11-1.44-0.32c-0.75-0.32-1.69-0.87-2.8-1.66
	l-1.14,1.71c1.84,1.52,3.63,2.29,5.38,2.29c1.15,0,2.13-0.26,2.94-0.79c1.03-0.65,1.69-1.66,1.99-3c0.18-0.75,0.26-2,0.26-3.75
	V206.16z M309.55,206.16H297.2v21.55h12.26v-2.14h-10.12v-8.44h10.12v-2.12h-10.12v-6.71h10.21V206.16z M335.85,206.16l-4.48,15.53
	l-6.11-15.53h-0.44l-6.18,15.53l-4.39-15.53h-2.2l6.08,21.55h0.41l6.52-16.3l6.39,16.3h0.41l6.18-21.55H335.85z M354.43,206.16
	h-12.35v21.55h12.26v-2.14h-10.12v-8.44h10.12v-2.12h-10.12v-6.71h10.21V206.16z M368.59,225.62h-8.29v-19.45h-2.15v21.55h10.44
	V225.62z M380.79,218.46c-0.72-0.87-1.82-1.85-3.29-2.93c-1.59-1.18-2.52-1.9-2.79-2.15c-0.91-0.9-1.36-1.83-1.36-2.8
	c0-0.82,0.29-1.49,0.88-1.99c0.56-0.5,1.25-0.75,2.08-0.75c0.83,0,1.59,0.27,2.28,0.81c0.46,0.36,1.02,0.98,1.67,1.84l1.76-1.33
	c-1.72-2.35-3.6-3.53-5.65-3.53c-0.96,0-1.84,0.22-2.65,0.66c-1.72,0.94-2.58,2.4-2.58,4.39c0,1.17,0.38,2.27,1.14,3.29
	c0.57,0.76,1.74,1.8,3.51,3.1c1.73,1.29,2.92,2.39,3.55,3.29c0.49,0.69,0.73,1.4,0.73,2.12c0,0.63-0.17,1.23-0.5,1.8
	c-0.72,1.24-1.89,1.86-3.49,1.86c-1.69,0-3.18-1.18-4.48-3.54l-1.83,1.1c1.66,3.04,3.83,4.56,6.5,4.56c1.65,0,3.07-0.55,4.26-1.66
	c1.23-1.13,1.85-2.52,1.85-4.15C382.39,221.09,381.86,219.76,380.79,218.46z"/>
</svg>