<?xml version="1.0" encoding="utf-8"?>
<svg version="1.1" id="Hour_Hand" xmlns="http://www.w3.org/2000/svg" xmlns:xlink="http://www.w3.org/1999/xlink" x="0px" y="0px"
	 viewBox="0 0 620 620" style="enable-background:new 0 0 620 620;" xml:space="preserve">
<style type="text/css">
	.st0{opacity:0.13;}
	.st1{fill:#302C2D;}
</style>
<path class="st0" d="M310,44.96c-2.32,0-4.21,1.5-4.61,3.64l-0.03,0.17l-0.01,0.17l-0.94,14.19l-0.01,0.08
	l0,0.08l-2.68,222.26c-10.43,3.5-17.53,13.24-17.53,24.44c0,14.23,11.57,25.8,25.8,25.8s25.8-11.57,25.8-25.8
	c0-11.2-7.1-20.93-17.53-24.44L315.59,63.3l0-0.08l-0.01-0.08l-0.94-14.19l-0.01-0.17l-0.03-0.17
	C314.21,46.46,312.32,44.96,310,44.96L310,44.96z"/>
<path class="st0" d="M310,46.46c-1.58,0-2.87,0.99-3.13,2.41l-0.02,0.09l-0.01,0.09l-0.94,14.19l0,0.04l0,0.04
	l-2.7,223.35c-10.37,3-17.51,12.43-17.51,23.33c0,13.4,10.9,24.3,24.3,24.3s24.3-10.9,24.3-24.3c0-10.9-7.14-20.34-17.51-23.33
	l-2.7-223.35l0-0.04l0-0.04l-0.94-14.19l-0.01-0.09l-0.02-0.09C312.87,47.45,311.58,46.46,310,46.46L310,46.46z"/>
<path class="st1" d="M315.3,287.83l-2.71-224.49l-0.94-14.19c-0.29-1.58-3.02-1.58-3.31,0l-0.94,14.19l-2.71,224.49
	c-10.03,2.39-17.5,11.41-17.5,22.17c0,12.59,10.21,22.8,22.8,22.8s22.8-10.21,22.8-22.8C332.8,299.23,325.34,290.22,315.3,287.83z"
	/>
</svg>