<?xml version="1.0" encoding="utf-8"?>
<svg version="1.1" id="Minute_Hand" xmlns="http://www.w3.org/2000/svg" xmlns:xlink="http://www.w3.org/1999/xlink" x="0px"
	 y="0px" viewBox="0 0 620 620" style="enable-background:new 0 0 620 620;" xml:space="preserve">
<style type="text/css">
	.st0{opacity:0.13;}
	.st1{fill:#302C2D;}
</style>
<path class="st0" d="M310,13.13c-2.19,0-4.01,1.57-4.35,3.73L305.63,17l-0.01,0.15l-0.78,14.19l0,0.07l0,0.07
	l-2.25,253.81c-10.79,3.23-18.39,13.25-18.39,24.72c0,14.23,11.57,25.8,25.8,25.8s25.8-11.57,25.8-25.8
	c0-11.46-7.6-21.49-18.39-24.72l-2.25-253.81l0-0.07l0-0.07l-0.78-14.19L314.37,17l-0.02-0.14C314.01,14.7,312.19,13.13,310,13.13
	L310,13.13z"/>
<path class="st0" d="M310,14.63c-1.46,0-2.64,1.01-2.86,2.46l-0.01,0.07l0,0.07l-0.78,14.19l0,0.03l0,0.03
	l-2.26,254.94c-10.72,2.68-18.38,12.4-18.38,23.57c0,13.4,10.9,24.3,24.3,24.3s24.3-10.9,24.3-24.3c0-11.17-7.66-20.89-18.38-23.57
	l-2.26-254.94l0-0.03l0-0.03l-0.78-14.19l0-0.07l-0.01-0.07C312.64,15.64,311.46,14.63,310,14.63L310,14.63z"/>
<path class="st1" d="M314.43,287.63L312.16,31.5l-0.78-14.19c-0.24-1.58-2.52-1.58-2.76,0l-0.78,14.19l-2.27,256.13
	c-10.47,2.06-18.37,11.29-18.37,22.37c0,12.59,10.21,22.8,22.8,22.8s22.8-10.21,22.8-22.8C332.8,298.92,324.9,289.69,314.43,287.63z
	"/>
</svg>