<?xml version="1.0" encoding="utf-8"?>
<svg version="1.1" id="Second_Hand" xmlns="http://www.w3.org/2000/svg" xmlns:xlink="http://www.w3.org/1999/xlink" x="0px"
	 y="0px" viewBox="0 0 620 620" style="enable-background:new 0 0 620 620;" xml:space="preserve">
<style type="text/css">
	.st0{opacity:0.13;}
	.st1{fill:#79151F;}
	.st2{fill:#67171F;}
	.st3{fill:#59131A;}
	.st4{fill:#8C191F;}
	.st5{fill:#9C463C;}
	.st6{fill:#6D1420;}
</style>
<path class="st0" d="M314.36,14.36h-2.98h-2.76h-2.98l-0.02,2.98l-2.01,271.59c-9.19,2.77-15.63,11.27-15.63,21.06
	c0,9.9,6.78,18.6,16.15,21.2v39.55c0,3.02-0.67,5.97-1.93,8.55c-1.54,3.14-2.38,7.23-2.38,11.52c0,9.99,4.38,17.52,10.19,17.52
	s10.19-7.53,10.19-17.52c0-4.29-0.85-8.39-2.38-11.52c-1.26-2.58-1.93-5.53-1.93-8.55V331.2c9.37-2.61,16.15-11.3,16.15-21.2
	c0-9.8-6.44-18.29-15.63-21.06l-2.01-271.59L314.36,14.36L314.36,14.36z"/>
<path class="st0" d="M312.87,15.86h-1.49h-2.76h-1.49l-0.01,1.49l-2.02,272.73c-9.12,2.23-15.62,10.41-15.62,19.92
	c0,9.61,6.86,18,16.15,20.03v40.72c0,3.24-0.72,6.43-2.08,9.21c-1.44,2.94-2.23,6.79-2.23,10.86c0,8.98,3.82,16.02,8.69,16.02
	c4.87,0,8.69-7.04,8.69-16.02c0-4.07-0.79-7.93-2.23-10.86c-1.36-2.78-2.08-5.96-2.08-9.21v-40.72
	c9.29-2.03,16.15-10.42,16.15-20.03c0-9.5-6.5-17.69-15.62-19.92l-2.02-272.73L312.87,15.86L312.87,15.86z"/>
<path class="st1" d="M329.02,310c0-9.34-6.74-17.09-15.61-18.7l-2.03-273.94h-2.76l-2.03,273.94
	c-8.88,1.61-15.61,9.36-15.61,18.7c0,9.53,7.01,17.39,16.15,18.78v41.97c0,3.42-0.73,6.8-2.24,9.87c-1.28,2.62-2.08,6.22-2.08,10.2
	c0,8.02,3.22,14.52,7.19,14.52s7.19-6.5,7.19-14.52c0-3.98-0.79-7.58-2.08-10.2c-1.5-3.07-2.24-6.45-2.24-9.87v-41.97
	C322.01,327.39,329.02,319.53,329.02,310z"/>
<path class="st2" d="M310,300.87c-5.04,0-9.13,4.1-9.13,9.13s4.1,9.13,9.13,9.13s9.13-4.1,9.13-9.13
	S315.04,300.87,310,300.87L310,300.87z"/>
<path class="st3" d="M310,301.87c-4.48,0-8.13,3.65-8.13,8.13s3.65,8.13,8.13,8.13s8.13-3.65,8.13-8.13
	S314.48,301.87,310,301.87L310,301.87z"/>
<circle class="st4" cx="310" cy="310" r="7.13"/>
<circle class="st5" cx="308.71" cy="308.44" r="3.15"/>
<path class="st6" d="M309.97,376.41c1.94,0,3.7,1.53,4.99,4.02c-0.9-2.27-1.25-2.98-1.74-5.64c-0.93-0.46-2.21-0.85-3.25-0.85l0,0
	c-1.03,0-2.23,0.41-3.18,0.84c-0.39,2.49-0.8,3.02-1.58,5.22C306.48,377.76,308.15,376.41,309.97,376.41"/>
</svg>