<?xml version="1.0" encoding="utf-8"?>
<!-- Generator: Adobe Illustrator 20.0.0, SVG Export Plug-In . SVG Version: 6.00 Build 0)  -->
<svg version="1.1" id="Face" xmlns="http://www.w3.org/2000/svg" xmlns:xlink="http://www.w3.org/1999/xlink" x="0px" y="0px"
	 viewBox="0 0 620 620" style="enable-background:new 0 0 620 620;" xml:space="preserve">
<style type="text/css">
	.st0{fill:#DDDCDC;}
	.st1{opacity:0.1;}
	.st2{fill:none;stroke:#282828;stroke-width:2;stroke-miterlimit:10;}
	.st3{fill:none;stroke:#282828;stroke-width:9;stroke-miterlimit:10;}
	.st4{fill:#A11F29;}
	.st5{fill:#282828;}
	.st6{fill:none;stroke:#A21F2A;stroke-width:1.7;stroke-miterlimit:10;}
	.st7{fill:none;stroke:#646665;stroke-width:1.5;stroke-miterlimit:10;}
</style>
<path id="Ring" d="M310,0c-41.85,0-82.45,8.2-120.67,24.36C152.42,39.98,119.26,62.33,90.8,90.8
	c-28.47,28.47-50.82,61.62-66.43,98.54C8.2,227.55,0,268.15,0,310s8.2,82.45,24.36,120.67c15.61,36.92,37.97,70.07,66.43,98.54
	c28.47,28.47,61.62,50.82,98.54,66.43C227.55,611.8,268.15,620,310,620s82.45-8.2,120.67-24.36c36.92-15.61,70.07-37.97,98.54-66.43
	c28.47-28.47,50.82-61.62,66.43-98.54C611.8,392.45,620,351.85,620,310s-8.2-82.45-24.36-120.67
	c-15.61-36.92-37.97-70.07-66.43-98.54c-28.47-28.47-61.62-50.82-98.54-66.43C392.45,8.2,351.85,0,310,0L310,0z"/>
<circle id="Face_8_" class="st0" cx="310" cy="310" r="304.29"/>
<path id="Inset_Rim_2" class="st1" d="M310,149.11c42.97,0,83.38,16.73,113.76,47.12c30.39,30.39,47.12,70.79,47.12,113.76
	s-16.73,83.38-47.12,113.76c-30.39,30.39-70.79,47.12-113.76,47.12s-83.38-16.73-113.76-47.12
	c-30.39-30.39-47.12-70.79-47.12-113.76s16.73-83.38,47.12-113.76C226.62,165.85,267.03,149.11,310,149.11 M310,145.69
	c-90.75,0-164.31,73.57-164.31,164.31S219.25,474.31,310,474.31S474.31,400.75,474.31,310S400.75,145.69,310,145.69L310,145.69z"/>
<path id="Inset_Rim_1" class="st1" d="M310,152.54c42.06,0,81.6,16.38,111.34,46.12c29.74,29.74,46.12,69.28,46.12,111.34
	s-16.38,81.6-46.12,111.34c-29.74,29.74-69.28,46.12-111.34,46.12s-81.6-16.38-111.34-46.12c-29.74-29.74-46.12-69.28-46.12-111.34
	s16.38-81.6,46.12-111.34S267.94,152.54,310,152.54 M310,145.69c-90.75,0-164.31,73.57-164.31,164.31S219.25,474.31,310,474.31
	S474.31,400.75,474.31,310S400.75,145.69,310,145.69L310,145.69z"/>
<path id="Minutes_1_" class="st2" d="M281.37,37.64l1.26,12.03 M253.06,42.13l2.52,11.83 M229.11,61.05l-3.74-11.5 M198.61,59.82
	l4.92,11.05 M149.03,88.45l7.11,9.79 M126.75,106.48l8.09,8.99 M106.48,126.75l8.99,8.09 M98.23,156.14l-9.79-7.11 M70.87,203.53
	l-11.05-4.92 M49.55,225.37l11.5,3.74 M42.13,253.06l11.83,2.52 M37.64,281.37l12.03,1.26 M37.64,338.63l12.03-1.26 M42.13,366.94
	l11.83-2.52 M49.55,394.63l11.5-3.74 M59.82,421.39l11.05-4.92 M98.23,463.86l-9.79,7.11 M106.48,493.25l8.99-8.09 M126.75,513.52
	l8.09-8.99 M149.03,531.55l7.11-9.79 M198.61,560.18l4.92-11.05 M225.37,570.45l3.74-11.5 M253.06,577.87l2.52-11.83 M281.37,582.36
	l1.26-12.03 M338.63,582.36l-1.26-12.03 M364.42,566.04l2.52,11.83 M390.89,558.95l3.74,11.5 M421.39,560.18l-4.92-11.05
	 M470.97,531.55l-7.11-9.79 M493.25,513.52l-8.09-8.99 M513.52,493.25l-8.99-8.09 M521.77,463.86l9.79,7.11 M560.18,421.39
	l-11.05-4.92 M570.45,394.63l-11.5-3.74 M577.87,366.94l-11.83-2.52 M582.36,338.63l-12.03-1.26 M582.36,281.37l-12.03,1.26
	 M577.87,253.06l-11.83,2.52 M570.45,225.37l-11.5,3.74 M560.18,198.61l-11.05,4.92 M531.55,149.03l-9.79,7.11 M513.52,126.75
	l-8.99,8.09 M493.25,106.48l-8.09,8.99 M470.97,88.45l-7.11,9.79 M416.47,70.87l4.92-11.05 M394.63,49.55l-3.74,11.5 M366.94,42.13
	l-2.52,11.83 M338.63,37.64l-1.26,12.03"/>
<path id="Hours_1_" class="st3" d="M310,36.14v12.1 M173.07,72.83l6.05,10.48 M83.31,179.12l-10.48-6.05 M48.24,310h-12.1
	 M72.83,446.93l10.48-6.05 M173.07,547.17l6.05-10.48 M310,583.86v-12.1 M446.93,547.17l-6.05-10.48 M536.69,440.88l10.48,6.05
	 M583.86,310h-12.1 M547.17,173.07l-10.48,6.05 M446.93,72.83l-6.05,10.48"/>
<path id="Numbers_1_" class="st4" d="M307.8,13.09l-2.37,2.99l-6.17-2.9c-0.85,1.22-1.46,2.39-1.82,3.52
	c-0.49,1.59-0.74,3.14-0.74,4.65c0,0.39,0.02,0.86,0.07,1.39l7.58-5.04c1.56,0.63,2.73,1.46,3.5,2.49c0.77,1.04,1.16,2.22,1.16,3.55
	c0,1.63-0.47,3.1-1.4,4.4c-1.34,1.86-3.42,3.58-6.26,5.16c-2.66-0.9-4.64-2.23-5.94-3.97c-1.3-1.74-1.95-3.83-1.95-6.28
	c0-1.84,0.31-3.46,0.94-4.86c0.63-1.4,1.59-2.82,2.91-4.27s2.72-2.72,4.21-3.8L307.8,13.09z M296.88,23.63
	c0.43,1.75,1.34,3.21,2.71,4.37c1.37,1.16,3.03,1.9,4.98,2.21c1.11-1.18,1.67-2.52,1.67-4c0-1.13-0.41-2.18-1.24-3.17
	s-2.1-1.75-3.82-2.29L296.88,23.63z M318.56,10.13c2.54,0.87,4.51,2.26,5.91,4.18s2.11,4.17,2.11,6.76c0,2.54-0.65,4.86-1.96,6.94
	c-1.31,2.08-3.08,3.85-5.32,5.3c-1.6-0.38-3.05-1.09-4.36-2.14c-1.3-1.05-2.3-2.36-2.99-3.92c-0.69-1.56-1.03-3.19-1.03-4.87
	c0-2.41,0.69-4.76,2.08-7.03C314.39,13.06,316.24,11.32,318.56,10.13z M315.67,13.21c-1.55,1.75-2.33,3.86-2.33,6.33
	c0,1.74,0.37,3.38,1.12,4.92c0.75,1.54,1.82,2.81,3.21,3.82c1.39,1,2.81,1.61,4.26,1.82c0.81-1.11,1.38-2.14,1.73-3.11
	c0.34-0.97,0.51-2.03,0.51-3.21c0-1.61-0.33-3.14-0.98-4.6c-0.65-1.46-1.63-2.69-2.94-3.7S317.42,13.72,315.67,13.21z M456.15,48.47
	l9.02,5.21l-2.71,2.15l-7.67-4.43l-5.05,6.2l8.53-0.58c1.21,1.64,1.89,3.27,2.06,4.9c0.16,1.63-0.15,3.12-0.94,4.49
	c-1,1.74-2.51,3.01-4.5,3.81c-2,0.8-4.52,0.65-7.58-0.43l-3.61-6.51l3.38-1.05l4.39,7.69c0.96-0.17,1.71-0.42,2.26-0.76
	c0.82-0.51,1.46-1.16,1.93-1.96c0.77-1.33,1.05-2.77,0.85-4.3c-0.2-1.53-1.02-3.13-2.45-4.78l-6.03,0.39L456.15,48.47z
	 M559.54,149.51l5.14,1.87c0.15,1.09,0.04,2.02-0.32,2.79c-0.37,0.77-1.03,1.44-2,2l-12.14,7.01c-0.34,0.2-0.56,0.4-0.65,0.61
	c-0.18,0.38-0.32,0.96-0.41,1.74l2.2,0.83l-0.22,0.75l-5.32-2.04l0.28-4.85l1.85,0.23l10.86-6.27c0.73-0.42,1.21-0.77,1.44-1.02
	c0.37-0.42,0.61-0.87,0.7-1.33c0.05-0.33,0.04-0.57-0.06-0.74c-0.11-0.19-0.41-0.38-0.88-0.56c-0.28-0.11-0.52-0.2-0.71-0.29
	L559.54,149.51z M573.98,167.48c0.51,2.63,0.29,5.04-0.66,7.21c-0.95,2.17-2.55,3.91-4.8,5.2c-2.2,1.27-4.54,1.86-6.99,1.77
	c-2.46-0.09-4.87-0.74-7.25-1.95c-0.47-1.57-0.58-3.19-0.33-4.84c0.26-1.65,0.89-3.17,1.9-4.55c1.01-1.38,2.24-2.49,3.7-3.33
	c2.09-1.21,4.46-1.78,7.13-1.72C569.35,165.33,571.78,166.07,573.98,167.48z M569.86,166.51c-2.29-0.47-4.51-0.08-6.64,1.15
	c-1.51,0.87-2.74,2.01-3.7,3.43c-0.96,1.42-1.53,2.98-1.7,4.69c-0.18,1.7,0.01,3.24,0.55,4.6c1.36,0.15,2.55,0.13,3.55-0.06
	c1.01-0.19,2.02-0.57,3.03-1.16c1.39-0.8,2.56-1.85,3.49-3.15c0.94-1.29,1.51-2.76,1.74-4.4
	C570.4,169.99,570.29,168.29,569.86,166.51z M606.36,295.78l3.52,4.19c-0.41,1.02-0.97,1.77-1.67,2.26s-1.61,0.73-2.73,0.73h-14.01
	c-0.39,0-0.68,0.07-0.87,0.2c-0.35,0.23-0.75,0.67-1.22,1.31l1.49,1.82l-0.57,0.54l-3.58-4.43l2.66-4.06l1.49,1.12h12.54
	c0.85,0,1.44-0.06,1.76-0.17c0.54-0.18,0.96-0.45,1.27-0.81c0.21-0.26,0.32-0.48,0.32-0.67c0-0.22-0.16-0.53-0.48-0.92
	c-0.19-0.23-0.35-0.44-0.47-0.6L606.36,295.78z M609.57,314.53v10.42l-3.21-1.27v-8.86l-7.9-1.27l4.77,7.09
	c-0.81,1.87-1.89,3.28-3.21,4.23c-1.33,0.96-2.78,1.43-4.35,1.43c-2.01,0-3.86-0.67-5.55-2c-1.69-1.33-2.83-3.59-3.41-6.78
	l3.83-6.38l2.6,2.4l-4.46,7.65c0.62,0.75,1.22,1.27,1.79,1.57c0.85,0.46,1.73,0.69,2.66,0.69c1.54,0,2.92-0.47,4.15-1.42
	c1.23-0.94,2.2-2.45,2.91-4.51l-3.35-5.03L609.57,314.53z M149,57.04l9.02-5.21l0.51,3.42l-7.67,4.43l2.85,7.48l3.76-7.68
	c2.02-0.23,3.78-0.01,5.27,0.67c1.49,0.67,2.63,1.69,3.42,3.05c1,1.74,1.35,3.67,1.04,5.81c-0.31,2.13-1.69,4.24-4.16,6.34
	l-7.44-0.13l0.78-3.45l8.85,0.04c0.33-0.92,0.49-1.69,0.47-2.34c-0.03-0.96-0.27-1.85-0.74-2.65c-0.77-1.33-1.87-2.3-3.3-2.89
	c-1.43-0.59-3.22-0.68-5.36-0.27l-2.68,5.41L149,57.04z M164.14,48.3l9.02-5.21l0.51,3.42l-7.67,4.43l2.84,7.48l3.76-7.68
	c2.02-0.23,3.78-0.01,5.27,0.67c1.49,0.67,2.63,1.69,3.42,3.05c1,1.74,1.35,3.67,1.04,5.81c-0.31,2.13-1.69,4.24-4.16,6.34
	l-7.44-0.13l0.78-3.45l8.85,0.04c0.34-0.91,0.49-1.69,0.47-2.34c-0.03-0.96-0.27-1.85-0.74-2.65c-0.77-1.33-1.87-2.29-3.3-2.89
	c-1.43-0.59-3.22-0.68-5.36-0.27l-2.68,5.41L164.14,48.3z M44.09,171.43l5.21-9.02l2.15,2.71l-4.43,7.67l6.2,5.05l-0.58-8.53
	c1.64-1.21,3.27-1.89,4.9-2.06c1.63-0.16,3.12,0.15,4.49,0.94c1.74,1,3.01,2.5,3.81,4.5c0.8,2,0.65,4.52-0.43,7.58l-6.51,3.61
	l-1.05-3.38l7.69-4.39c-0.17-0.96-0.42-1.71-0.76-2.26c-0.51-0.82-1.16-1.46-1.96-1.92c-1.33-0.77-2.77-1.05-4.3-0.85
	c-1.53,0.2-3.13,1.02-4.78,2.45l0.39,6.03L44.09,171.43z M54.58,152.65c2.02-1.76,4.21-2.77,6.57-3.03s4.66,0.26,6.9,1.55
	c2.2,1.27,3.88,3,5.03,5.17c1.15,2.17,1.79,4.59,1.93,7.25c-1.13,1.2-2.47,2.1-4.03,2.7c-1.56,0.6-3.19,0.81-4.89,0.63
	c-1.7-0.19-3.28-0.7-4.74-1.54c-2.09-1.21-3.77-2.98-5.05-5.32C55.04,157.73,54.46,155.26,54.58,152.65z M55.81,156.7
	c0.74,2.22,2.18,3.95,4.32,5.18c1.51,0.87,3.12,1.37,4.82,1.49c1.71,0.12,3.34-0.17,4.91-0.87c1.56-0.7,2.8-1.63,3.71-2.78
	c-0.55-1.25-1.16-2.27-1.83-3.05c-0.67-0.78-1.5-1.46-2.52-2.05c-1.39-0.8-2.88-1.29-4.47-1.45c-1.59-0.16-3.15,0.07-4.67,0.69
	C58.55,154.49,57.13,155.43,55.81,156.7z M22.9,311.28l3-0.64v4.08h3.47l0.5-1.02c0.17-0.37,0.25-0.62,0.25-0.75
	c0-0.19-0.09-0.39-0.26-0.6l-0.49-0.58l0.59-0.49l3.35,4.03l-2.49,3.99l-1.44-1.07H25.9v7.95l-3.25,0.7l-12.52-9.36
	c0.11-0.79,0.51-1.46,1.19-1.99c0.68-0.54,1.64-0.8,2.86-0.8h8.72V311.28z M22.9,318.23h-7c-0.65,0-1.14,0.08-1.49,0.23
	c-0.35,0.15-0.61,0.39-0.8,0.71l9.29,6.94V318.23z M10.43,305.47v-10.42l3.21,1.27v8.86l7.9,1.27l-4.77-7.09
	c0.81-1.87,1.89-3.28,3.21-4.23c1.33-0.96,2.78-1.43,4.35-1.43c2.01,0,3.86,0.67,5.55,2c1.69,1.33,2.83,3.59,3.41,6.78l-3.83,6.38
	l-2.6-2.4l4.46-7.65c-0.62-0.75-1.22-1.27-1.79-1.57c-0.85-0.46-1.74-0.69-2.66-0.69c-1.54,0-2.92,0.47-4.15,1.42
	c-1.23,0.94-2.2,2.45-2.91,4.51l3.35,5.03L10.43,305.47z M546.02,465.05l-1.04-8.64l8.24-4.56c0.58,0.28,1.06,0.54,1.44,0.75
	c1.58,0.91,2.68,2.13,3.3,3.65c0.62,1.52,0.91,4.28,0.87,8.29c-0.01,1.81,0.05,3.12,0.2,3.95c0.15,0.83,0.43,1.66,0.85,2.49
	c0.16-1.48,0.39-2.72,0.68-3.71c0.3-0.99,0.69-1.92,1.18-2.77c0.42-0.72,0.9-1.43,1.45-2.13s0.99-1.21,1.33-1.54l2.04-1.82l1.3,4.11
	c-1.4,1.2-2.31,2.05-2.74,2.54c-0.69,0.76-1.26,1.53-1.7,2.3c-0.85,1.47-1.43,3.26-1.76,5.38c-0.07,0.45-0.11,0.71-0.15,0.76
	c-0.03,0.06-0.08,0.09-0.13,0.1c-0.07,0.01-0.15-0.01-0.25-0.07c-0.47-0.27-0.94-0.76-1.43-1.46c-0.67-0.95-1.21-2.08-1.63-3.39
	c-0.31-0.94-0.61-2.35-0.91-4.24c-0.3-1.89-0.58-3.23-0.84-4.04c-0.37-1.13-0.86-2.12-1.47-2.97s-1.39-1.55-2.33-2.09
	c-1.4-0.81-2.85-0.95-4.36-0.41l1.13,8.68L546.02,465.05z M553.89,440.97c2.02-1.76,4.21-2.77,6.57-3.03
	c2.36-0.26,4.66,0.26,6.91,1.55c2.2,1.27,3.88,3,5.03,5.17c1.15,2.17,1.79,4.59,1.93,7.25c-1.13,1.2-2.47,2.1-4.03,2.7
	c-1.56,0.6-3.19,0.81-4.89,0.63c-1.7-0.19-3.28-0.7-4.74-1.54c-2.09-1.21-3.77-2.98-5.05-5.31
	C554.34,446.04,553.77,443.57,553.89,440.97z M555.11,445.01c0.74,2.22,2.18,3.95,4.32,5.18c1.51,0.87,3.12,1.37,4.82,1.49
	c1.71,0.12,3.34-0.17,4.91-0.87c1.56-0.7,2.8-1.63,3.71-2.78c-0.55-1.25-1.16-2.27-1.83-3.05c-0.67-0.78-1.51-1.46-2.52-2.05
	c-1.39-0.8-2.88-1.29-4.47-1.45c-1.59-0.16-3.15,0.07-4.67,0.69S556.43,443.75,555.11,445.01z M437.12,562.14l3.42-8.01l9.41,0.17
	c0.36,0.54,0.65,1,0.87,1.37c0.91,1.58,1.26,3.19,1.04,4.81c-0.22,1.62-1.35,4.16-3.39,7.62c-0.91,1.56-1.51,2.73-1.8,3.52
	c-0.28,0.79-0.45,1.65-0.51,2.58c0.88-1.2,1.69-2.16,2.45-2.87c0.75-0.71,1.56-1.31,2.41-1.81c0.72-0.42,1.5-0.79,2.32-1.12
	s1.46-0.55,1.92-0.67l2.67-0.55l-0.93,4.21c-1.81,0.34-3.03,0.62-3.64,0.83c-0.98,0.32-1.85,0.7-2.63,1.14
	c-1.47,0.85-2.87,2.11-4.21,3.78c-0.28,0.36-0.45,0.55-0.51,0.59c-0.06,0.03-0.11,0.04-0.16,0.02c-0.07-0.03-0.13-0.09-0.18-0.18
	c-0.27-0.47-0.44-1.12-0.5-1.98c-0.1-1.16,0-2.41,0.29-3.75c0.2-0.97,0.65-2.34,1.33-4.13c0.68-1.79,1.12-3.09,1.3-3.92
	c0.25-1.16,0.32-2.26,0.21-3.31c-0.11-1.05-0.43-2.04-0.97-2.97c-0.81-1.4-2-2.25-3.57-2.54l-3.36,8.08L437.12,562.14z
	 M452.64,547.5l9.02-5.21l0.51,3.42l-7.67,4.43l2.84,7.48l3.76-7.68c2.02-0.23,3.78-0.01,5.27,0.67c1.49,0.67,2.63,1.69,3.42,3.05
	c1,1.74,1.35,3.67,1.04,5.81c-0.31,2.13-1.69,4.24-4.16,6.34l-7.44-0.13l0.77-3.45l8.85,0.04c0.34-0.91,0.49-1.69,0.47-2.34
	c-0.03-0.96-0.27-1.85-0.74-2.65c-0.77-1.33-1.87-2.3-3.3-2.89c-1.43-0.59-3.22-0.68-5.36-0.27l-2.68,5.41L452.64,547.5z
	 M300.13,586.7l7.86,3.43c0.07,0.41,0.1,0.78,0.1,1.11c0,1.35-0.41,2.53-1.24,3.54c-0.83,1.01-1.93,1.84-3.3,2.5
	c1.86,0.42,3.27,1.16,4.21,2.21c0.94,1.05,1.41,2.18,1.41,3.38c0,1.28-0.52,2.44-1.57,3.47c-1.35,1.34-3.84,2.52-7.47,3.53
	l-6.71-5.19l2.41-2.41l7.47,5.74c0.62-0.56,1.08-1.16,1.37-1.81c0.29-0.65,0.44-1.45,0.44-2.4c0-1.81-0.52-3.26-1.57-4.33
	c-1.04-1.07-2.44-1.61-4.19-1.61c-0.56,0-1.16,0.05-1.81,0.15v-1.22h0.33c1.94,0,3.45-0.52,4.52-1.57c1.07-1.05,1.61-2.49,1.61-4.32
	c0-0.74-0.11-1.25-0.34-1.55c-0.23-0.3-0.49-0.44-0.79-0.44c-0.31,0-0.69,0.17-1.14,0.52l-0.27,0.2l-4.58,3.25l-2.2-2.26
	L300.13,586.7z M318.85,586.7c2.54,0.87,4.51,2.26,5.91,4.18c1.41,1.91,2.11,4.17,2.11,6.76c0,2.54-0.65,4.86-1.96,6.94
	c-1.31,2.08-3.08,3.85-5.32,5.3c-1.6-0.38-3.05-1.09-4.36-2.14c-1.3-1.05-2.3-2.36-2.99-3.92c-0.69-1.56-1.03-3.19-1.03-4.87
	c0-2.41,0.69-4.76,2.08-7.03S316.53,587.89,318.85,586.7z M315.96,589.78c-1.55,1.75-2.33,3.86-2.33,6.33
	c0,1.74,0.37,3.38,1.12,4.92c0.75,1.54,1.82,2.81,3.21,3.82c1.39,1,2.81,1.61,4.26,1.82c0.81-1.11,1.38-2.14,1.73-3.11
	c0.34-0.97,0.51-2.03,0.51-3.21c0-1.61-0.33-3.14-0.98-4.6c-0.65-1.46-1.63-2.69-2.94-3.7
	C319.24,591.06,317.71,590.29,315.96,589.78z M163.34,544.83l5.09,6.9c-0.15,0.39-0.3,0.73-0.47,1.01
	c-0.68,1.17-1.62,1.99-2.84,2.45c-1.22,0.46-2.59,0.63-4.11,0.52c1.4,1.3,2.25,2.64,2.54,4.02s0.14,2.59-0.47,3.64
	c-0.64,1.11-1.67,1.85-3.09,2.22c-1.84,0.49-4.58,0.26-8.24-0.68l-3.22-7.85l3.29-0.89l3.6,8.7c0.82-0.17,1.51-0.47,2.09-0.88
	c0.58-0.42,1.11-1.04,1.58-1.85c0.91-1.57,1.18-3.08,0.81-4.53c-0.37-1.45-1.31-2.62-2.83-3.49c-0.48-0.28-1.03-0.54-1.64-0.77
	l0.61-1.06l0.29,0.17c1.68,0.97,3.25,1.27,4.7,0.9c1.45-0.37,2.64-1.35,3.55-2.93c0.37-0.64,0.53-1.14,0.48-1.51
	c-0.05-0.37-0.2-0.63-0.47-0.78c-0.27-0.16-0.68-0.2-1.24-0.12l-0.33,0.04l-5.59,0.53l-0.78-3.05L163.34,544.83z M175.91,552.44
	l9.02,5.21l-2.71,2.15l-7.67-4.43l-5.05,6.2l8.53-0.58c1.21,1.64,1.9,3.27,2.06,4.9c0.16,1.63-0.15,3.12-0.94,4.49
	c-1,1.74-2.51,3.01-4.51,3.81c-2,0.8-4.52,0.65-7.57-0.43l-3.61-6.51l3.38-1.05l4.39,7.69c0.96-0.17,1.71-0.42,2.26-0.76
	c0.82-0.51,1.46-1.16,1.93-1.96c0.77-1.33,1.05-2.77,0.85-4.3c-0.2-1.54-1.02-3.13-2.45-4.78l-6.03,0.39L175.91,552.44z
	 M58.82,453.89l-2.28,2.05l-2.04-3.54l-3,1.73l0.08,1.14c0.04,0.4,0.09,0.66,0.16,0.78c0.09,0.16,0.27,0.3,0.53,0.39l0.72,0.26
	l-0.26,0.71l-4.91-1.81l0.16-4.71l1.78,0.21l3-1.73l-3.98-6.89l2.46-2.23l15.53,1.84c0.3,0.74,0.29,1.52-0.03,2.32
	c-0.32,0.8-1.01,1.51-2.08,2.13l-7.55,4.36L58.82,453.89z M55.34,447.87l6.06-3.5c0.56-0.32,0.95-0.64,1.17-0.94
	c0.22-0.31,0.34-0.64,0.34-1.02l-11.51-1.37L55.34,447.87z M74.8,456.02c0.51,2.63,0.29,5.03-0.66,7.21
	c-0.95,2.18-2.55,3.91-4.8,5.2c-2.2,1.27-4.53,1.86-6.99,1.77c-2.46-0.09-4.87-0.74-7.25-1.95c-0.47-1.57-0.58-3.19-0.33-4.84
	c0.26-1.65,0.89-3.17,1.9-4.55c1.01-1.38,2.24-2.49,3.7-3.33c2.09-1.21,4.46-1.78,7.13-1.72C70.18,453.88,72.61,454.61,74.8,456.02z
	 M70.69,455.06c-2.29-0.47-4.51-0.08-6.64,1.15c-1.51,0.87-2.74,2.01-3.7,3.43c-0.96,1.42-1.53,2.98-1.7,4.69
	c-0.18,1.7,0.01,3.24,0.55,4.6c1.36,0.15,2.55,0.13,3.55-0.06c1.01-0.19,2.02-0.57,3.03-1.16c1.39-0.8,2.56-1.85,3.49-3.15
	c0.94-1.29,1.51-2.76,1.74-4.39C71.22,458.54,71.12,456.83,70.69,455.06z"/>
<path id="Vivante" class="st5" d="M250.37,232.69l14.64-7.74c2.73,3.95,4.09,8.06,4.09,12.33c0,3.2-0.7,6.13-2.11,8.79
	c-1.9,3.61-5.75,8.41-11.52,14.39c-1.01-0.67-1.89-1.14-2.64-1.39c-0.75-0.26-1.53-0.39-2.34-0.39c-0.95,0-1.86,0.12-2.71,0.36
	c-0.86,0.24-1.95,0.71-3.27,1.42l-0.71-0.62c1.26-2.36,2.1-4.2,2.52-5.54c0.43-1.33,0.64-2.55,0.64-3.64c0-1.65-0.46-2.99-1.38-4
	c-0.92-1.01-1.97-1.52-3.16-1.52c-0.55,0-0.98,0.08-1.3,0.25c-0.32,0.16-0.63,0.46-0.92,0.9l-0.79-0.57
	c0.38-1.06,0.91-1.84,1.62-2.35c0.7-0.51,1.52-0.76,2.46-0.76c0.59,0,1.16,0.1,1.69,0.29c0.53,0.2,1.24,0.61,2.13,1.23
	c-0.16-5.28-1.24-9.45-3.26-12.52c-1.13-1.72-2.34-2.58-3.64-2.58c-0.66,0-1.19,0.23-1.6,0.68c-0.55,0.61-0.95,1.7-1.22,3.26
	l-0.9-0.29c0.09-1.81,0.36-3.25,0.8-4.33s1.08-1.91,1.93-2.5s1.75-0.89,2.71-0.89c1.44,0,2.88,0.58,4.34,1.73
	C247.91,227.85,249.21,229.85,250.37,232.69z M262.24,248.38c-1.37-0.59-2.47-0.98-3.29-1.17c-0.82-0.19-1.73-0.28-2.73-0.28
	c-0.78,0-1.61,0.08-2.5,0.25c-0.89,0.16-1.83,0.42-2.83,0.76c-0.5,1.66-1.05,3.11-1.66,4.38c-1.01,2.09-2.23,4.21-3.65,6.35
	c1.69-1.28,3.12-2.16,4.31-2.64c1.56-0.62,3.06-0.93,4.49-0.93c1.03,0,2.22,0.21,3.56,0.63c1.09-1.44,1.94-2.68,2.55-3.73
	C261.09,250.94,261.68,249.74,262.24,248.38z M250.72,233.8c0.53,1.72,0.89,3.37,1.08,4.95c2.11,0.67,4.01,1.01,5.71,1.01
	c2.18,0,4.47-0.52,6.86-1.57c-0.12-1.69-0.45-3.32-0.98-4.89c-0.53-1.57-1.36-3.22-2.48-4.96L250.72,233.8z M264.36,239.35
	c-1.42,0.58-2.63,0.99-3.64,1.2c-1.01,0.22-2.09,0.32-3.26,0.32c-1.78,0-3.64-0.34-5.59-1.03c0.06,0.75,0.09,1.31,0.09,1.69
	c0,1.52-0.25,3.25-0.75,5.2c0.94-0.3,1.83-0.52,2.67-0.66c0.84-0.14,1.63-0.21,2.36-0.21c2.06,0,4.2,0.51,6.44,1.52
	C263.71,244.43,264.27,241.75,264.36,239.35z M276.84,235.48l4.16,3.46l-1.85,1.79v12.75c0,1.34,0.11,2.22,0.34,2.63
	c0.23,0.41,0.46,0.61,0.7,0.61c0.17,0,0.32-0.04,0.47-0.12c0.2-0.11,0.61-0.42,1.23-0.94l0.57,0.73l-5.03,4.08
	c-1.26-0.89-2.06-1.73-2.42-2.52c-0.36-0.79-0.54-2.17-0.54-4.14v-13.08l-1.76-1.79L276.84,235.48z M278.61,227.47h2.98l-3.23,5.06
	h-0.94L278.61,227.47z M292.09,241.2l7.18-5.72c1.59,1.25,2.63,2.33,3.11,3.25c0.48,0.91,0.73,2.1,0.73,3.55v14.06
	c-1.34,0.33-2.59,0.79-3.76,1.39s-2.5,1.51-4.01,2.73c-1.71-1.34-3.28-2.29-4.72-2.84c-1.44-0.55-3.05-0.84-4.83-0.89v-0.59
	c0.59-0.36,1-0.78,1.21-1.25c0.21-0.48,0.32-1.38,0.32-2.71v-10.48c0-0.55-0.06-0.98-0.17-1.29c-0.11-0.31-0.41-0.8-0.91-1.47
	c-0.5-0.66-0.85-1.26-1.04-1.79s-0.29-1.13-0.29-1.8c0-1.23,0.37-2.33,1.11-3.29c0.74-0.96,2.15-2,4.21-3.13l0.49,0.63
	c-1.61,1.17-2.41,2.29-2.41,3.35c0,0.39,0.08,0.73,0.23,1.01c0.19,0.38,0.66,0.97,1.42,1.78c0.75,0.81,1.31,1.66,1.67,2.53
	C291.89,238.92,292.05,239.91,292.09,241.2z M292.09,242.47v11.37l6.19,2.79v-13.11c0-1.14-0.15-1.99-0.43-2.54
	c-0.29-0.55-0.9-1.12-1.83-1.7L292.09,242.47z M324.11,236.49l0.84,0.33c-0.84,1.31-1.38,2.32-1.61,3.01s-0.34,1.64-0.34,2.82v9.99
	c0,1.66,0.12,2.69,0.35,3.11c0.23,0.41,0.52,0.62,0.84,0.62c0.17,0,0.35-0.04,0.53-0.13c0.11-0.07,0.45-0.34,1-0.8l0.57,0.73
	l-4.98,4.31c-1.21-0.94-2.02-1.78-2.42-2.52s-0.64-1.78-0.68-3.11l-7.11,5.63c-2.68-2.19-4.02-4.35-4.02-6.48
	c0-1.42,0.29-2.76,0.87-4.01c0.77-1.64,2.09-3.56,3.98-5.75l-2.82-6.03l0.33-0.61c0.61,0.05,1.06,0.07,1.36,0.07
	c1.84,0,3.46-0.73,4.86-2.18c1.14,0.67,2.38,1.2,3.73,1.6c1.35,0.4,2.38,0.6,3.1,0.6c0.33,0,0.58-0.06,0.75-0.17
	C323.42,237.4,323.71,237.06,324.11,236.49z M318.23,240.95l-8.02-2.46l2.85,6.04l5.16,2.42V240.95z M318.23,247.93l-5.67-2.66
	c-0.88,1.91-1.31,3.58-1.31,5.02c0,2.53,1.15,4.62,3.45,6.27l3.54-2.86V247.93z M343.58,235.48l3.2,3.52l2.29-2.2l0.67,0.63
	c-1.11,1-1.77,1.76-2.01,2.28c-0.32,0.69-0.47,1.64-0.47,2.85v11.18c0,1.03,0.17,1.8,0.49,2.31c0.2,0.33,0.43,0.49,0.68,0.49
	c0.22,0,0.74-0.3,1.55-0.91l0.57,0.73l-5.03,4.13c-1.3-0.98-2.14-1.84-2.51-2.6c-0.37-0.75-0.55-1.97-0.55-3.64v-12.83l-2.07-2.19
	l-4,3.21v13l1.76,1.68l-4.14,3.36l-4.16-3.36l1.76-1.68v-11.96c0-1.7-0.17-2.85-0.52-3.44c-0.24-0.41-0.5-0.61-0.8-0.61
	c-0.31,0-0.78,0.3-1.41,0.91l-0.57-0.73l4.98-4.13c1.38,1.03,2.24,1.84,2.59,2.44s0.52,1.42,0.52,2.49v0.84L343.58,235.48z
	 M352.73,238.04l6.54-8.07h0.68l-0.23,6.47h4.71v2.63h-4.71v15.8l2.63,1.95l1.5-1.17l0.59,0.7l-5.17,4.13
	c-1.76-1.8-3.74-3.02-5.96-3.66v-0.47c0.63-0.42,1.04-0.86,1.24-1.31c0.27-0.58,0.4-1.42,0.4-2.51v-13.45h-2.2V238.04z
	 M377.04,235.48l6.61,7.71l-10.5,7.36v4.27l5.44,2.16l3.68-2.51l0.52,0.7l-7.58,5.3c-1.55-0.83-2.83-1.42-3.83-1.78
	c-1-0.36-2.43-0.73-4.27-1.13v-0.59c0.53-0.31,0.89-0.7,1.07-1.16c0.18-0.46,0.27-1.46,0.27-2.99v-13.41
	c1.47-0.53,2.69-1.02,3.66-1.45C372.8,237.64,374.44,236.81,377.04,235.48z M373.48,238.18l-0.33,0.16v10.64l6.17-4.33
	L373.48,238.18z"/>
<g id="_x32_3_Jewels">
	<path class="st5" d="M247.06,381.24l6.27-4.7l7.26,4.37c0.04,0.58,0.06,1.07,0.06,1.46c0,1.65-0.45,3.05-1.36,4.22
		s-2.93,2.64-6.07,4.41c-1.41,0.8-2.41,1.45-2.99,1.93c-0.58,0.49-1.1,1.08-1.56,1.79c1.22-0.54,2.29-0.92,3.2-1.14
		c0.91-0.22,1.8-0.32,2.69-0.32c0.75,0,1.52,0.06,2.31,0.17c0.79,0.11,1.39,0.23,1.8,0.34l2.33,0.77l-2.62,2.86
		c-1.57-0.55-2.64-0.88-3.21-0.99c-0.9-0.19-1.76-0.29-2.56-0.29c-1.53,0-3.19,0.35-4.99,1.05c-0.38,0.15-0.6,0.23-0.66,0.23
		s-0.11-0.02-0.14-0.06c-0.04-0.05-0.06-0.13-0.06-0.23c0-0.48,0.17-1.07,0.5-1.77c0.44-0.95,1.08-1.88,1.91-2.8
		c0.59-0.66,1.56-1.54,2.89-2.62c1.34-1.08,2.26-1.91,2.77-2.47c0.71-0.79,1.26-1.62,1.65-2.48c0.39-0.86,0.58-1.78,0.58-2.75
		c0-1.46-0.55-2.65-1.64-3.59l-6.25,4.78L247.06,381.24z M268.25,372.42l7.07,3.09c0.06,0.37,0.09,0.7,0.09,0.99
		c0,1.22-0.37,2.28-1.12,3.19c-0.74,0.91-1.73,1.66-2.97,2.25c1.68,0.38,2.94,1.04,3.79,1.99c0.85,0.94,1.27,1.96,1.27,3.04
		c0,1.16-0.47,2.2-1.41,3.12c-1.21,1.21-3.46,2.27-6.73,3.18l-6.04-4.67l2.16-2.17l6.73,5.16c0.56-0.5,0.97-1.04,1.24-1.63
		c0.26-0.59,0.4-1.3,0.4-2.16c0-1.63-0.47-2.93-1.41-3.9c-0.94-0.97-2.2-1.45-3.77-1.45c-0.5,0-1.04,0.05-1.63,0.14v-1.1h0.3
		c1.75,0,3.1-0.47,4.07-1.42c0.96-0.94,1.45-2.24,1.45-3.88c0-0.66-0.1-1.13-0.31-1.39c-0.21-0.27-0.44-0.4-0.71-0.4
		c-0.28,0-0.62,0.16-1.02,0.47l-0.24,0.18l-4.12,2.93l-1.98-2.03L268.25,372.42z M305.1,361.19l0.53,0.5
		c-1.3,1.42-2.18,2.66-2.66,3.71c-0.48,1.06-0.72,2.21-0.72,3.46c0,0.62,0.02,1.73,0.06,3.33c0.02,0.84,0.03,1.72,0.03,2.62
		c0,2.78-0.35,4.86-1.04,6.24c-0.91,1.81-2.41,3.4-4.49,4.76c-1.72,1.14-3.23,1.7-4.53,1.7c-0.36,0-0.68-0.03-0.96-0.1
		c-0.28-0.07-0.72-0.21-1.33-0.44c-0.83-0.33-1.51-0.5-2.03-0.5c-0.44,0-0.8,0.1-1.08,0.29c-0.19,0.13-0.37,0.41-0.54,0.83
		l-0.61-0.26c0.26-0.99,0.6-1.72,1.02-2.2c0.68-0.74,1.59-1.11,2.71-1.11c0.47,0,1,0.1,1.58,0.29c0.83,0.27,1.45,0.41,1.85,0.41
		c0.78,0,1.42-0.25,1.91-0.75c0.49-0.5,0.73-1.15,0.73-1.97c0-1.12-0.39-2.21-1.16-3.28c-1.07-1.49-2.39-2.23-3.96-2.23
		c-0.29,0-0.65,0.05-1.08,0.15l-0.34-0.53c0.94-0.57,1.83-0.85,2.67-0.85c0.45,0,0.87,0.06,1.25,0.17c0.38,0.12,0.85,0.34,1.4,0.67
		c-0.11-0.89-0.29-1.57-0.54-2.03c-0.33-0.61-0.78-1.09-1.33-1.44c-0.56-0.35-1.1-0.52-1.62-0.52c-0.47,0-0.97,0.18-1.49,0.53
		l-0.41-0.52c0.57-0.47,1.09-0.8,1.57-0.99c0.47-0.19,1-0.28,1.58-0.28c0.77,0,1.63,0.27,2.56,0.8c0.04-1.15,0.19-2.06,0.45-2.73
		c0.26-0.68,0.74-1.38,1.45-2.11c0.7-0.73,1.84-1.6,3.42-2.61c-1.44,0.45-2.64,0.68-3.6,0.68c-0.99,0-2.1-0.22-3.32-0.65
		c-1.22-0.44-2.15-0.66-2.8-0.66c-0.85,0-1.53,0.2-2.02,0.61c-0.49,0.41-0.74,0.82-0.74,1.24c0,0.13,0.04,0.24,0.11,0.32
		c0.07,0.08,0.17,0.12,0.28,0.12c0.1,0,0.25-0.05,0.46-0.14c0.21-0.09,0.39-0.14,0.55-0.14c0.34,0,0.63,0.12,0.87,0.37
		c0.24,0.25,0.36,0.55,0.36,0.91c0,0.4-0.13,0.74-0.4,1.01c-0.27,0.27-0.6,0.41-1.02,0.41c-0.53,0-1-0.23-1.41-0.69
		c-0.41-0.46-0.61-1.06-0.61-1.82c0-1.1,0.5-2.1,1.51-3.01c1-0.91,2.24-1.37,3.69-1.37c0.91,0,2.46,0.25,4.64,0.74
		c1.75,0.4,3.12,0.6,4.11,0.6c0.93,0,1.73-0.12,2.39-0.35C303.67,362.13,304.36,361.74,305.1,361.19z M302.94,363.32
		c-1.42,0.69-2.47,1.36-3.15,2c-0.89,0.87-1.57,1.89-2.02,3.03s-0.68,2.72-0.68,4.71l0.09,6.67c0,1.64-0.2,2.91-0.62,3.83
		c-0.29,0.66-0.91,1.37-1.86,2.12c1.11-0.46,1.91-0.88,2.41-1.26c0.68-0.53,1.22-1.22,1.61-2.07c0.39-0.85,0.59-1.92,0.59-3.23
		l-0.11-6.84c0-2.05,0.35-3.86,1.04-5.42C300.72,365.77,301.62,364.59,302.94,363.32z M313.74,368.98l4.25,4.96l-6.75,4.73v2.74
		l3.5,1.39l2.37-1.61l0.33,0.45l-4.88,3.41c-1-0.53-1.82-0.91-2.46-1.15c-0.64-0.23-1.56-0.47-2.75-0.72v-0.38
		c0.34-0.2,0.57-0.45,0.69-0.75c0.12-0.3,0.17-0.94,0.17-1.92v-8.62c0.94-0.34,1.73-0.65,2.35-0.93
		C311.01,370.37,312.07,369.84,313.74,368.98z M311.45,370.71l-0.21,0.11v6.84l3.97-2.78L311.45,370.71z M331.01,374.67l4.48-3.63
		c0.94,0.67,1.55,1.27,1.83,1.79c0.39,0.7,0.59,1.52,0.59,2.46v9.13c-1.06,0.33-1.95,0.7-2.67,1.1s-1.46,0.93-2.2,1.58
		c-1.7-1.07-3.11-1.61-4.25-1.61c-1.06,0-2.13,0.54-3.19,1.61c-1-0.82-1.95-1.42-2.86-1.79c-0.91-0.37-1.9-0.58-2.98-0.64v-0.36
		c0.45-0.18,0.77-0.44,0.96-0.78c0.19-0.34,0.28-0.99,0.28-1.97v-5.71c0-0.89-0.03-1.44-0.08-1.64c-0.06-0.19-0.22-0.45-0.49-0.76
		c-0.43-0.5-0.72-0.93-0.87-1.29c-0.15-0.36-0.23-0.77-0.23-1.23c0-0.84,0.26-1.58,0.78-2.22c0.52-0.64,1.44-1.28,2.76-1.92
		l0.27,0.39c-1.08,0.75-1.63,1.49-1.63,2.2c0,0.25,0.06,0.49,0.18,0.71c0.06,0.11,0.43,0.54,1.1,1.28c0.45,0.49,0.8,1.04,1.04,1.64
		c0.14,0.36,0.24,0.88,0.29,1.55l4.39-3.54c0.8,0.53,1.39,1.08,1.78,1.66C330.66,373.27,330.91,373.93,331.01,374.67z M324.1,375.31
		v7.74l3.8,1.58v-8.21c0-0.86-0.09-1.47-0.27-1.82c-0.18-0.35-0.59-0.73-1.24-1.15L324.1,375.31z M331.01,375.44v7.54l3.83,1.61
		v-8.38c0-0.74-0.07-1.25-0.22-1.53c-0.15-0.28-0.57-0.68-1.26-1.21L331.01,375.44z M346.84,374.13l4.25,4.96l-6.75,4.73v2.74
		l3.5,1.39l2.37-1.61l0.33,0.45l-4.88,3.41c-1-0.53-1.82-0.91-2.46-1.15c-0.64-0.23-1.56-0.47-2.75-0.72v-0.38
		c0.34-0.2,0.57-0.45,0.69-0.75c0.12-0.3,0.17-0.94,0.17-1.92v-8.62c0.94-0.34,1.73-0.65,2.35-0.93
		C344.12,375.51,345.18,374.98,346.84,374.13z M344.55,375.86l-0.21,0.11v6.84l3.97-2.78L344.55,375.86z M359.03,372.71v0.39
		c-0.79,0.41-1.35,0.92-1.68,1.51c-0.33,0.6-0.49,1.5-0.49,2.72v13.4l1.72,1.28l0.66-0.54l0.38,0.54l-3.02,2.29
		c-0.91-0.79-1.59-1.32-2.05-1.58c-0.45-0.26-1.05-0.5-1.79-0.71v-0.33c0.28-0.17,0.5-0.39,0.65-0.65c0.16-0.26,0.26-0.57,0.32-0.92
		c0.02-0.12,0.04-0.72,0.05-1.81v-10.76c0-0.91-0.04-1.55-0.11-1.91c-0.07-0.36-0.21-0.7-0.42-1.02c-0.21-0.33-0.57-0.69-1.07-1.09
		l0.24-0.3c0.92,0.26,1.74,0.79,2.46,1.6c0.75-0.79,1.43-1.34,2.04-1.63C357.54,372.9,358.24,372.74,359.03,372.71z M369.01,387.94
		l3.5,1.83v6.34c-0.84,0.08-1.61,0.29-2.29,0.62c-0.68,0.33-1.46,0.89-2.32,1.69c-0.74-0.44-1.39-0.75-1.94-0.92
		s-1.13-0.26-1.74-0.26c-0.95,0-1.79,0.29-2.52,0.86c-0.27,0.21-0.47,0.32-0.59,0.32c-0.11,0-0.22-0.06-0.33-0.17
		s-0.17-0.22-0.17-0.33c0-0.12,0.11-0.28,0.32-0.48c0.12-0.12,0.33-0.35,0.62-0.69l1.37-1.7l1.94-2.58l-3.3-1.77v-5.62
		c1.04-0.32,1.85-0.68,2.44-1.08s1.16-0.94,1.7-1.64c1.28,0.54,2.32,0.92,3.1,1.15c0.56,0.15,1.1,0.23,1.61,0.23
		c0.56,0,1-0.12,1.32-0.37c0.31-0.25,0.47-0.51,0.47-0.78c0-0.18-0.1-0.36-0.3-0.54c-0.39-0.35-0.59-0.69-0.59-1.02
		c0-0.31,0.09-0.56,0.26-0.75c0.17-0.18,0.36-0.28,0.57-0.28c0.28,0,0.53,0.13,0.76,0.38c0.23,0.26,0.34,0.59,0.34,1.02
		c0,0.43-0.09,0.85-0.27,1.27s-0.53,0.94-1.04,1.6L369.01,387.94z M367.19,390.36l-3.63,4.87c0.44-0.15,0.85-0.26,1.24-0.33
		c0.38-0.07,0.73-0.11,1.04-0.11c1.16,0,2.36,0.38,3.6,1.15v-4.37L367.19,390.36z M364.59,388.98l2.06,1.07l3.28-4.37
		c-0.67,0.19-1.26,0.29-1.75,0.29c-1.24,0-2.44-0.41-3.6-1.24V388.98z"/>
</g>
<path id="Roman_Numerals_1_" class="st5" d="M399.98,166.36l-12.72-7.35c-0.3-0.17-0.51-0.45-0.6-0.78
	c-0.09-0.33-0.04-0.68,0.13-0.98c0.36-0.62,1.15-0.83,1.76-0.47l2.58,1.49l40.46-70.07L429,86.71c-0.62-0.36-0.83-1.15-0.47-1.77
	c0.17-0.3,0.45-0.51,0.78-0.6c0.33-0.09,0.68-0.04,0.98,0.13l12.72,7.35c0.62,0.36,0.83,1.15,0.47,1.77
	c-0.17,0.3-0.45,0.51-0.78,0.6c-0.33,0.09-0.68,0.04-0.98-0.13l-2.58-1.49l-40.46,70.07l2.58,1.49c0.62,0.36,0.83,1.15,0.47,1.77
	c-0.17,0.3-0.45,0.51-0.78,0.6c-0.11,0.03-0.22,0.04-0.34,0.04C400.4,166.54,400.18,166.48,399.98,166.36z M522.27,171.98
	c-0.36-0.62-0.14-1.41,0.47-1.77c0.3-0.17,0.65-0.22,0.98-0.13c0.33,0.09,0.61,0.3,0.78,0.6l11.59,20.08
	c0.36,0.62,0.14,1.41-0.47,1.77c-0.62,0.36-1.41,0.14-1.77-0.47l-1.94-3.37l-70.07,40.45l1.94,3.37c0.36,0.62,0.14,1.41-0.47,1.76
	c-0.2,0.12-0.43,0.17-0.64,0.17c-0.45,0-0.88-0.23-1.12-0.65l-11.59-20.08c-0.36-0.62-0.14-1.41,0.47-1.77
	c0.3-0.17,0.65-0.22,0.98-0.13c0.33,0.09,0.61,0.3,0.78,0.6l1.94,3.37l70.07-40.46L522.27,171.98z M528.46,182.7l-0.78-1.36
	l-70.07,40.46l0.78,1.36L528.46,182.7z M564.44,294.16v31.68c0,0.71-0.58,1.29-1.29,1.29c-0.71,0-1.29-0.58-1.29-1.29v-3.89h-80.91
	v3.89c0,0.71-0.58,1.29-1.29,1.29c-0.71,0-1.29-0.58-1.29-1.29v-31.68c0-0.71,0.58-1.29,1.29-1.29c0.71,0,1.29,0.58,1.29,1.29v3.89
	h80.91v-3.89c0-0.71,0.58-1.29,1.29-1.29C563.86,292.87,564.44,293.45,564.44,294.16z M561.86,315.03v-1.57h-80.91v1.57H561.86z
	 M561.86,306.54v-1.57h-80.91v1.57H561.86z M541.06,417.43c0.09,0.33,0.04,0.68-0.13,0.98l-20.08,34.78
	c-0.17,0.3-0.45,0.51-0.78,0.6c-0.11,0.03-0.22,0.04-0.34,0.04c-0.22,0-0.45-0.06-0.65-0.17c-0.62-0.36-0.83-1.15-0.47-1.76
	l1.94-3.37l-70.07-40.45l-1.94,3.37c-0.36,0.62-1.15,0.83-1.76,0.47c-0.3-0.17-0.51-0.45-0.6-0.78c-0.09-0.33-0.04-0.68,0.13-0.98
	l20.08-34.78c0.36-0.62,1.15-0.83,1.77-0.47c0.62,0.36,0.83,1.15,0.47,1.77l-1.94,3.37l70.07,40.46l1.94-3.37
	c0.17-0.3,0.45-0.51,0.78-0.6c0.33-0.09,0.68-0.04,0.98,0.13C540.76,416.81,540.98,417.09,541.06,417.43z M532.51,427.83l0.78-1.36
	l-70.07-40.46l-0.79,1.36L532.51,427.83z M528.26,435.19l0.79-1.36l-70.07-40.46l-0.78,1.36L528.26,435.19z M524.02,442.54
	l0.78-1.36l-70.07-40.46l-0.78,1.36L524.02,442.54z M448.56,521.46c-0.33-0.09-0.68-0.04-0.98,0.13l-2.52,1.46l-49.62-65.19
	c-0.77-1.02-2.19-1.3-3.3-0.66c-0.94,0.54-1.42,1.64-1.17,2.79l0.13,0.4c0.02,0.05,0.04,0.09,37.4,72.24l-3.51,2.03
	c-0.62,0.36-0.83,1.15-0.47,1.77c0.24,0.41,0.67,0.65,1.12,0.65c0.22,0,0.44-0.06,0.64-0.17l8.64-4.99c0.3-0.17,0.51-0.45,0.6-0.79
	c0.09-0.33,0.04-0.68-0.13-0.98c-0.36-0.62-1.15-0.83-1.76-0.47l-2.58,1.49l-23.93-46.25l32.17,41.5l-2.64,1.53
	c-0.62,0.36-0.83,1.15-0.47,1.76c0.36,0.62,1.15,0.83,1.77,0.47l10.95-6.32c0.62-0.36,0.83-1.15,0.47-1.77
	C449.17,521.76,448.9,521.55,448.56,521.46z M231.98,461.35l-31.65,75.57l2.52,1.46c0.62,0.36,0.83,1.15,0.47,1.76
	c-0.24,0.41-0.68,0.65-1.12,0.65c-0.22,0-0.44-0.06-0.64-0.17l-10.95-6.32c-0.62-0.36-0.83-1.15-0.47-1.76
	c0.17-0.3,0.45-0.51,0.78-0.6c0.33-0.09,0.68-0.04,0.98,0.13l2.64,1.53l19.86-48.61l-28.09,43.85l2.58,1.49
	c0.3,0.17,0.51,0.45,0.6,0.78c0.09,0.33,0.04,0.68-0.13,0.98c-0.17,0.3-0.45,0.51-0.79,0.6c-0.33,0.09-0.68,0.04-0.98-0.13
	l-23.21-13.4c-0.3-0.17-0.51-0.45-0.6-0.78c-0.09-0.33-0.04-0.68,0.13-0.98c0.17-0.3,0.45-0.51,0.79-0.6
	c0.33-0.09,0.68-0.04,0.98,0.13l3.36,1.94l40.45-70.07l-3.37-1.94c-0.62-0.36-0.83-1.15-0.47-1.76c0.17-0.3,0.45-0.51,0.79-0.6
	c0.33-0.09,0.68-0.04,0.98,0.13l19.99,11.54c0.62,0.36,0.83,1.15,0.47,1.76c-0.36,0.62-1.15,0.83-1.77,0.47l-3.37-1.94l-40.46,70.07
	l1.46,0.84c43.8-68.43,43.83-68.47,43.87-68.51l0.28-0.3c0.88-0.79,2.06-0.93,3-0.38C232.01,458.8,232.48,460.17,231.98,461.35z
	 M215.49,452.25l-40.45,70.07l1.27,0.73l40.46-70.07L215.49,452.25z M103.75,457.13c0.17,0.3,0.22,0.65,0.13,0.98
	c-0.09,0.33-0.3,0.61-0.6,0.78c-0.2,0.12-0.42,0.17-0.64,0.17c-0.11,0-0.23-0.01-0.34-0.04c-0.33-0.09-0.61-0.3-0.78-0.6
	l-6.32-10.95c-0.17-0.3-0.22-0.65-0.13-0.98c0.09-0.33,0.3-0.61,0.6-0.79c0.62-0.36,1.41-0.14,1.76,0.47l1.53,2.64l41.5-32.17
	L94.2,440.58l1.49,2.58c0.36,0.62,0.14,1.41-0.47,1.76c-0.62,0.35-1.41,0.14-1.77-0.47l-17.71-30.67c-0.17-0.3-0.22-0.65-0.13-0.98
	c0.09-0.33,0.3-0.61,0.6-0.78c0.3-0.17,0.65-0.22,0.98-0.13c0.33,0.09,0.61,0.3,0.78,0.6l1.94,3.37l70.07-40.46l-1.94-3.37
	c-0.36-0.62-0.14-1.41,0.47-1.77c0.62-0.36,1.41-0.14,1.77,0.47l15.27,26.44c0.17,0.3,0.22,0.65,0.13,0.98
	c-0.09,0.33-0.3,0.61-0.6,0.79c-0.62,0.36-1.41,0.14-1.76-0.47l-1.94-3.37L91.3,435.56l1.42,2.47
	c72.14-37.36,72.19-37.38,72.24-37.4l0.39-0.13c1.15-0.24,2.25,0.23,2.79,1.17c0.64,1.11,0.35,2.53-0.66,3.3l-65.2,49.62
	L103.75,457.13z M153.45,381.39l-70.07,40.46l0.48,0.84l70.07-40.46L153.45,381.39z M157.4,388.22l-70.07,40.46l0.51,0.89
	l70.07-40.46L157.4,388.22z M139.06,322.78H58.15v3.89c0,0.71-0.58,1.29-1.29,1.29c-0.71,0-1.29-0.58-1.29-1.29V306.4
	c0-0.71,0.58-1.29,1.29-1.29c0.71,0,1.29,0.58,1.29,1.29v1.6l25.38-3.5l-25.38-4.72v2.96c0,0.71-0.58,1.29-1.29,1.29
	c-0.71,0-1.29-0.58-1.29-1.29v-9.4c0-0.71,0.58-1.29,1.29-1.29c0.71,0,1.29,0.58,1.29,1.29v3.44l34.62,6.44l46.29-6.39v-3.29
	c0-0.71,0.58-1.29,1.29-1.29c0.71,0,1.29,0.58,1.29,1.29v13.58c0,0.71-0.58,1.29-1.29,1.29c-0.71,0-1.29-0.58-1.29-1.29v-2.94
	l-23.61,3.26l23.61,4.39v-1.87c0-0.71,0.58-1.29,1.29-1.29c0.71,0,1.29,0.58,1.29,1.29v16.71c0,0.71-0.58,1.29-1.29,1.29
	c-0.71,0-1.29-0.58-1.29-1.29V322.78z M139.06,315.86v-1.03l-32.86-6.11l-48.05,6.64v0.51H139.06z M83.38,194.4
	c0.3,0.17,0.65,0.22,0.98,0.13c0.33-0.09,0.61-0.3,0.78-0.6l2.32-4.01l44.93,18.28l25.4,21.72l-2.26,3.92
	c-0.36,0.62-0.14,1.41,0.47,1.77c0.2,0.12,0.42,0.17,0.64,0.17c0.45,0,0.88-0.23,1.12-0.65l4.7-8.14c0.17-0.3,0.22-0.65,0.13-0.98
	s-0.3-0.61-0.6-0.79c-0.62-0.36-1.41-0.14-1.77,0.47l-0.94,1.62l-18.25-15.61l22.08,8.98l-1.47,2.54c-0.17,0.3-0.22,0.65-0.13,0.98
	s0.3,0.61,0.6,0.78c0.3,0.17,0.65,0.22,0.98,0.13c0.33-0.09,0.61-0.3,0.78-0.6l6.79-11.76c0.17-0.3,0.22-0.65,0.13-0.98
	s-0.3-0.61-0.6-0.79c-0.62-0.36-1.41-0.14-1.76,0.47l-1.65,2.85l-43.28-17.61l-26.76-22.89l1.72-2.98c0.36-0.62,0.14-1.41-0.47-1.77
	c-0.62-0.35-1.41-0.14-1.77,0.47l-4.7,8.14c-0.36,0.62-0.14,1.41,0.47,1.77c0.62,0.36,1.41,0.14,1.77-0.47l1.48-2.56l19.62,16.78
	l-23.73-9.65l0.8-1.38c0.36-0.62,0.14-1.41-0.47-1.77c-0.3-0.17-0.65-0.22-0.98-0.13c-0.33,0.09-0.61,0.3-0.78,0.6l-6.79,11.76
	C82.56,193.26,82.77,194.05,83.38,194.4z M241.28,152.38c0.36,0.62,0.14,1.41-0.47,1.77l-19.1,11.03c-0.3,0.17-0.65,0.22-0.98,0.13
	c-0.33-0.09-0.61-0.3-0.78-0.6c-0.17-0.3-0.22-0.65-0.13-0.98c0.09-0.33,0.3-0.61,0.6-0.79l2.54-1.47l-14.63-18.82l8,22.65
	l1.62-0.94c0.3-0.17,0.65-0.22,0.98-0.13c0.33,0.09,0.61,0.3,0.79,0.6c0.17,0.3,0.22,0.65,0.13,0.98c-0.09,0.33-0.3,0.61-0.6,0.78
	l-8.14,4.7c-0.2,0.11-0.42,0.17-0.64,0.17c-0.11,0-0.23-0.02-0.34-0.04c-0.33-0.09-0.61-0.3-0.78-0.6c-0.17-0.3-0.22-0.65-0.13-0.98
	c0.09-0.33,0.3-0.61,0.6-0.79l3.92-2.26l-11.13-31.51l-29.77-38.3l-4.01,2.32c-0.62,0.36-1.41,0.14-1.77-0.47
	c-0.36-0.62-0.14-1.41,0.47-1.77l11.76-6.79c0.62-0.36,1.41-0.14,1.77,0.47c0.36,0.62,0.14,1.41-0.47,1.77l-1.38,0.8l15.72,20.23
	l-8.6-24.34l-2.56,1.48c-0.62,0.36-1.41,0.14-1.77-0.47c-0.17-0.3-0.22-0.65-0.13-0.98c0.09-0.33,0.3-0.61,0.6-0.78l15.31-8.84
	c0.3-0.17,0.65-0.22,0.98-0.13c0.33,0.09,0.61,0.3,0.78,0.6c0.36,0.62,0.14,1.41-0.47,1.77l-3.37,1.94l40.45,70.07l3.37-1.94
	C240.14,151.55,240.93,151.76,241.28,152.38z M188.92,87.69l11.73,33.21l28.68,36.89l0.83-0.48L189.7,87.24L188.92,87.69z
	 M327.88,57.68v80.91h3.89c0.71,0,1.29,0.58,1.29,1.29s-0.58,1.29-1.29,1.29H301.1c-0.71,0-1.29-0.58-1.29-1.29s0.58-1.29,1.29-1.29
	h2.94l-3.26-23.61l-4.39,23.61h1.87c0.71,0,1.29,0.58,1.29,1.29s-0.58,1.29-1.29,1.29h-9.4c-0.71,0-1.29-0.58-1.29-1.29
	s0.58-1.29,1.29-1.29h4.52l6.11-32.86l-6.64-48.05h-4.63c-0.71,0-1.29-0.58-1.29-1.29c0-0.71,0.58-1.29,1.29-1.29h13.58
	c0.71,0,1.29,0.58,1.29,1.29c0,0.71-0.58,1.29-1.29,1.29h-1.6l3.5,25.38l4.72-25.38h-2.96c-0.71,0-1.29-0.58-1.29-1.29
	c0-0.71,0.58-1.29,1.29-1.29h26.29c0.71,0,1.29,0.58,1.29,1.29c0,0.71-0.58,1.29-1.29,1.29H327.88z M319.27,57.68v80.91h1.69V57.68
	H319.27z M305,92.31l6.39,46.29h0.96V57.68h-0.91L305,92.31z"/>
<circle id="Second_Face" class="st0" cx="310" cy="485.15" r="91.29"/>
<path id="Second_Rim" class="st1" d="M310,398.44c47.81,0,86.71,38.9,86.71,86.71c0,47.81-38.9,86.71-86.71,86.71
	s-86.71-38.9-86.71-86.71C223.29,437.34,262.19,398.44,310,398.44 M310,393.87c-50.42,0-91.29,40.87-91.29,91.29
	s40.87,91.29,91.29,91.29s91.29-40.87,91.29-91.29S360.42,393.87,310,393.87L310,393.87z"/>
<g id="Second_Rim_2" class="st1">
	<path d="M310,395.87c49.23,0,89.29,40.05,89.29,89.29s-40.05,89.29-89.29,89.29c-49.23,0-89.29-40.05-89.29-89.29
		S260.77,395.87,310,395.87 M310,393.87c-50.42,0-91.29,40.87-91.29,91.29s40.87,91.29,91.29,91.29s91.29-40.87,91.29-91.29
		S360.42,393.87,310,393.87L310,393.87z"/>
</g>
<path id="Second_Numbers" class="st5" d="M364.79,445.01l2.67,0.97c0.08,0.57,0.02,1.05-0.17,1.45c-0.19,0.4-0.54,0.75-1.04,1.04
	l-6.3,3.64c-0.18,0.1-0.29,0.21-0.34,0.32c-0.09,0.19-0.16,0.5-0.21,0.9l1.14,0.43l-0.12,0.39l-2.76-1.06l0.14-2.52l0.96,0.12
	l5.64-3.25c0.38-0.22,0.63-0.4,0.75-0.53c0.19-0.22,0.31-0.45,0.36-0.69c0.03-0.17,0.02-0.3-0.03-0.39c-0.06-0.1-0.21-0.2-0.46-0.29
	c-0.15-0.06-0.27-0.11-0.37-0.15L364.79,445.01z M372.28,454.34c0.27,1.37,0.15,2.61-0.34,3.74c-0.49,1.13-1.32,2.03-2.49,2.7
	c-1.14,0.66-2.35,0.97-3.63,0.92c-1.28-0.05-2.53-0.39-3.76-1.01c-0.25-0.82-0.3-1.65-0.17-2.51c0.13-0.86,0.46-1.65,0.99-2.36
	c0.52-0.71,1.16-1.29,1.92-1.73c1.08-0.63,2.32-0.92,3.7-0.89S371.14,453.61,372.28,454.34z M370.15,453.84
	c-1.19-0.24-2.34-0.04-3.45,0.6c-0.78,0.45-1.42,1.05-1.92,1.78c-0.5,0.74-0.79,1.55-0.88,2.43c-0.09,0.89,0,1.68,0.28,2.39
	c0.71,0.08,1.32,0.07,1.85-0.03c0.52-0.1,1.05-0.3,1.57-0.6c0.72-0.42,1.33-0.96,1.81-1.63c0.49-0.67,0.78-1.43,0.9-2.28
	C370.42,455.64,370.37,454.76,370.15,453.84z M246.73,456.37l2.7-4.68l1.11,1.41l-2.3,3.98l3.22,2.62l-0.3-4.43
	c0.85-0.63,1.7-0.98,2.54-1.07c0.84-0.08,1.62,0.08,2.33,0.49c0.9,0.52,1.56,1.3,1.98,2.34c0.42,1.04,0.34,2.35-0.22,3.93
	l-3.38,1.87l-0.55-1.75l3.99-2.28c-0.09-0.5-0.22-0.89-0.4-1.17c-0.26-0.43-0.6-0.76-1.02-1c-0.69-0.4-1.44-0.55-2.23-0.44
	c-0.8,0.11-1.62,0.53-2.48,1.27l0.2,3.13L246.73,456.37z M252.17,446.62c1.05-0.91,2.19-1.44,3.41-1.57
	c1.23-0.14,2.42,0.13,3.59,0.8c1.14,0.66,2.01,1.55,2.61,2.68c0.6,1.13,0.93,2.38,1,3.76c-0.58,0.62-1.28,1.09-2.09,1.4
	c-0.81,0.31-1.66,0.42-2.54,0.33c-0.88-0.1-1.7-0.36-2.46-0.8c-1.08-0.63-1.96-1.54-2.62-2.76
	C252.41,449.26,252.11,447.97,252.17,446.62z M252.81,448.72c0.39,1.15,1.13,2.05,2.24,2.69c0.78,0.45,1.62,0.71,2.5,0.77
	c0.89,0.06,1.73-0.08,2.55-0.45c0.81-0.36,1.46-0.84,1.93-1.44c-0.29-0.65-0.6-1.18-0.95-1.58c-0.35-0.4-0.78-0.76-1.31-1.06
	c-0.72-0.42-1.5-0.67-2.32-0.75c-0.82-0.08-1.63,0.04-2.43,0.36C254.23,447.58,253.49,448.07,252.81,448.72z M357.76,522.49
	l-0.54-4.49l4.28-2.37c0.3,0.15,0.55,0.28,0.75,0.39c0.82,0.47,1.39,1.11,1.71,1.89c0.32,0.79,0.47,2.22,0.45,4.3
	c-0.01,0.94,0.03,1.62,0.11,2.05c0.08,0.43,0.22,0.86,0.44,1.29c0.08-0.77,0.2-1.41,0.35-1.93c0.15-0.52,0.36-0.99,0.61-1.44
	c0.22-0.38,0.47-0.74,0.75-1.11c0.28-0.36,0.51-0.63,0.69-0.8l1.06-0.94l0.67,2.14c-0.73,0.62-1.2,1.06-1.42,1.32
	c-0.36,0.4-0.65,0.79-0.88,1.2c-0.44,0.76-0.74,1.69-0.91,2.79c-0.03,0.24-0.06,0.37-0.08,0.4s-0.04,0.05-0.07,0.05
	c-0.04,0.01-0.08-0.01-0.13-0.03c-0.24-0.14-0.49-0.39-0.74-0.76c-0.35-0.49-0.63-1.08-0.84-1.76c-0.16-0.49-0.32-1.22-0.47-2.2
	c-0.16-0.98-0.3-1.68-0.43-2.1c-0.19-0.59-0.45-1.1-0.77-1.54c-0.32-0.44-0.72-0.8-1.21-1.08c-0.73-0.42-1.48-0.49-2.26-0.21
	l0.59,4.5L357.76,522.49z M361.85,509.99c1.05-0.91,2.19-1.44,3.41-1.57c1.23-0.14,2.42,0.13,3.58,0.8
	c1.14,0.66,2.01,1.55,2.61,2.68c0.6,1.13,0.93,2.38,1,3.76c-0.58,0.62-1.28,1.09-2.09,1.4c-0.81,0.31-1.66,0.42-2.54,0.33
	c-0.88-0.1-1.7-0.36-2.46-0.8c-1.08-0.63-1.96-1.54-2.62-2.76C362.08,512.62,361.78,511.34,361.85,509.99z M362.48,512.09
	c0.39,1.15,1.13,2.05,2.24,2.69c0.78,0.45,1.62,0.71,2.5,0.77c0.89,0.06,1.74-0.09,2.55-0.45c0.81-0.36,1.45-0.84,1.93-1.44
	c-0.29-0.65-0.6-1.18-0.95-1.58c-0.35-0.4-0.78-0.76-1.31-1.06c-0.72-0.42-1.5-0.67-2.32-0.75c-0.82-0.08-1.63,0.04-2.43,0.36
	C363.9,510.95,363.17,511.44,362.48,512.09z M304.86,542.47l4.08,1.78c0.03,0.21,0.05,0.41,0.05,0.57c0,0.7-0.21,1.31-0.64,1.84
	s-1,0.96-1.71,1.3c0.97,0.22,1.7,0.6,2.18,1.15c0.49,0.54,0.73,1.13,0.73,1.76c0,0.67-0.27,1.27-0.81,1.8
	c-0.7,0.7-1.99,1.31-3.88,1.83l-3.48-2.69l1.25-1.25l3.88,2.98c0.32-0.29,0.56-0.6,0.71-0.94c0.15-0.34,0.23-0.75,0.23-1.24
	c0-0.94-0.27-1.69-0.81-2.25c-0.54-0.56-1.27-0.84-2.18-0.84c-0.29,0-0.6,0.03-0.94,0.08v-0.63h0.17c1.01,0,1.79-0.27,2.35-0.82
	c0.56-0.54,0.83-1.29,0.83-2.24c0-0.38-0.06-0.65-0.18-0.8c-0.12-0.15-0.26-0.23-0.41-0.23c-0.16,0-0.36,0.09-0.59,0.27l-0.14,0.1
	l-2.38,1.69l-1.14-1.17L304.86,542.47z M314.58,542.47c1.32,0.45,2.34,1.18,3.07,2.17c0.73,0.99,1.1,2.16,1.1,3.51
	c0,1.32-0.34,2.52-1.02,3.6c-0.68,1.08-1.6,2-2.76,2.75c-0.83-0.2-1.58-0.57-2.26-1.11c-0.68-0.54-1.19-1.22-1.55-2.03
	c-0.36-0.81-0.54-1.65-0.54-2.53c0-1.25,0.36-2.47,1.08-3.65C312.42,543.99,313.38,543.09,314.58,542.47z M313.08,544.07
	c-0.8,0.91-1.21,2-1.21,3.28c0,0.9,0.19,1.75,0.58,2.55c0.39,0.8,0.94,1.46,1.66,1.98c0.72,0.52,1.46,0.84,2.21,0.95
	c0.42-0.57,0.72-1.11,0.9-1.61c0.18-0.5,0.27-1.06,0.27-1.66c0-0.83-0.17-1.63-0.51-2.39c-0.34-0.76-0.85-1.4-1.52-1.92
	C314.78,544.73,313.99,544.34,313.08,544.07z M254.36,516.67l-1.18,1.06l-1.06-1.84l-1.56,0.9l0.04,0.59
	c0.02,0.21,0.05,0.34,0.08,0.4c0.05,0.09,0.14,0.15,0.27,0.2l0.37,0.14l-0.14,0.37l-2.55-0.94l0.08-2.44l0.92,0.11l1.56-0.9
	l-2.06-3.57l1.28-1.16l8.06,0.96c0.16,0.39,0.15,0.79-0.02,1.2c-0.17,0.42-0.53,0.79-1.08,1.1l-3.92,2.26L254.36,516.67z
	 M252.56,513.55l3.14-1.81c0.29-0.17,0.49-0.33,0.61-0.49c0.12-0.16,0.17-0.33,0.18-0.53l-5.98-0.71L252.56,513.55z M262.65,517.78
	c0.27,1.37,0.15,2.61-0.34,3.74c-0.49,1.13-1.32,2.03-2.49,2.7c-1.14,0.66-2.35,0.97-3.63,0.92c-1.28-0.05-2.53-0.39-3.76-1.01
	c-0.25-0.82-0.3-1.65-0.17-2.51c0.13-0.86,0.46-1.65,0.99-2.36c0.52-0.71,1.16-1.29,1.92-1.73c1.08-0.63,2.32-0.92,3.7-0.89
	C260.25,516.67,261.52,517.05,262.65,517.78z M260.52,517.28c-1.19-0.24-2.34-0.04-3.45,0.6c-0.78,0.45-1.42,1.05-1.92,1.78
	c-0.5,0.74-0.79,1.55-0.88,2.43c-0.09,0.89,0,1.68,0.28,2.39c0.71,0.08,1.32,0.07,1.84-0.03c0.52-0.1,1.05-0.3,1.57-0.6
	c0.72-0.42,1.33-0.96,1.81-1.63c0.49-0.67,0.79-1.43,0.9-2.28C260.8,519.09,260.74,518.2,260.52,517.28z M308.85,417.34l-1.23,1.55
	l-3.2-1.51c-0.44,0.63-0.76,1.24-0.94,1.83c-0.26,0.82-0.38,1.63-0.38,2.41c0,0.2,0.01,0.44,0.03,0.72l3.94-2.62
	c0.81,0.32,1.42,0.76,1.82,1.29c0.4,0.54,0.6,1.15,0.6,1.84c0,0.85-0.24,1.61-0.73,2.28c-0.69,0.97-1.78,1.86-3.25,2.68
	c-1.38-0.47-2.41-1.16-3.08-2.06c-0.68-0.9-1.01-1.99-1.01-3.26c0-0.96,0.16-1.8,0.49-2.52c0.32-0.72,0.83-1.46,1.51-2.22
	c0.68-0.75,1.41-1.41,2.19-1.97L308.85,417.34z M303.18,422.81c0.23,0.91,0.69,1.66,1.41,2.27c0.71,0.6,1.57,0.98,2.59,1.15
	c0.58-0.61,0.87-1.31,0.87-2.08c0-0.58-0.21-1.13-0.64-1.65s-1.09-0.91-1.98-1.19L303.18,422.81z M314.43,415.81
	c1.32,0.45,2.34,1.18,3.07,2.17c0.73,0.99,1.1,2.16,1.1,3.51c0,1.32-0.34,2.52-1.02,3.6s-1.6,2-2.76,2.75
	c-0.83-0.2-1.58-0.57-2.26-1.11c-0.68-0.54-1.19-1.22-1.55-2.03c-0.36-0.81-0.54-1.65-0.54-2.53c0-1.25,0.36-2.47,1.08-3.65
	C312.27,417.33,313.23,416.43,314.43,415.81z M312.93,417.41c-0.8,0.91-1.21,2-1.21,3.28c0,0.9,0.19,1.75,0.58,2.55
	c0.39,0.8,0.94,1.46,1.66,1.98c0.72,0.52,1.46,0.84,2.21,0.95c0.42-0.57,0.72-1.11,0.9-1.61c0.18-0.5,0.27-1.06,0.27-1.66
	c0-0.83-0.17-1.63-0.51-2.39c-0.34-0.76-0.85-1.4-1.52-1.92C314.64,418.07,313.84,417.67,312.93,417.41z"/>
<path id="Second_Markers_H" class="st6" d="M269.26,414.59l5.36,9.28 M228.53,485.15h10.72 M269.26,555.71l5.36-9.28 M350.74,555.71
	l-5.36-9.28 M391.47,485.15h-10.72 M350.74,414.59l-5.36,9.28 M310,409.45v-5.77 M244.44,447.3l-5-2.88 M239.44,525.89l5-2.88
	 M310,566.62v-5.77 M375.56,523l5,2.88 M380.56,444.42l-5,2.88"/>
<path id="Second_Markers_M" class="st7" d="M325.78,410.9l1.16-5.44 M318.52,404.13l-0.58,5.53 M301.48,404.13l0.58,5.53
	 M294.22,410.9l-1.16-5.44 M284.82,407.67l1.72,5.29 M279.12,415.8l-2.26-5.08 M262.11,419.24l3.27,4.5 M255.48,424.61l3.72,4.13
	 M249.45,430.64l4.13,3.72 M248.59,440.53l-4.5-3.27 M235.57,452.01l5.08,2.26 M232.51,459.98l5.29,1.72 M230.31,468.21l5.44,1.16
	 M228.97,476.64l5.53,0.58 M228.97,493.67l5.53-0.58 M235.75,500.93l-5.44,1.16 M232.51,510.33l5.29-1.72 M235.57,518.29l5.08-2.26
	 M244.09,533.04l4.5-3.27 M249.45,539.67l4.13-3.72 M255.48,545.7l3.72-4.13 M262.11,551.06l3.27-4.5 M276.86,559.58l2.26-5.08
	 M284.82,562.64l1.72-5.29 M294.22,559.4l-1.16,5.44 M301.48,566.18l0.58-5.53 M318.52,566.18l-0.58-5.53 M326.94,564.84l-1.16-5.44
	 M335.18,562.64l-1.72-5.29 M340.88,554.5l2.26,5.08 M357.89,551.06l-3.27-4.5 M364.52,545.7l-3.72-4.13 M370.55,539.67l-4.13-3.72
	 M375.91,533.04l-4.5-3.27 M384.43,518.29l-5.08-2.26 M387.49,510.33l-5.29-1.72 M389.69,502.09l-5.44-1.16 M385.49,493.09
	l5.53,0.58 M391.03,476.64l-5.53,0.58 M389.69,468.21l-5.44,1.16 M387.49,459.98l-5.29,1.72 M384.43,452.01l-5.08,2.26
	 M375.91,437.26l-4.5,3.27 M370.55,430.64l-4.13,3.72 M364.52,424.61l-3.72,4.13 M357.89,419.24l-3.27,4.5 M340.88,415.8l2.26-5.08
	 M335.18,407.67l-1.72,5.29"/>
<g id="Rim_1" class="st1">
	<path d="M310,10.71c40.41,0,79.6,7.91,116.49,23.52c35.64,15.07,67.65,36.65,95.13,64.14c27.49,27.49,49.07,59.49,64.14,95.13
		c15.6,36.89,23.52,76.09,23.52,116.49s-7.91,79.6-23.52,116.49c-15.07,35.64-36.65,67.65-64.14,95.13
		c-27.49,27.49-59.49,49.07-95.13,64.14c-36.89,15.6-76.09,23.52-116.49,23.52s-79.6-7.91-116.49-23.52
		c-35.64-15.07-67.65-36.65-95.13-64.14c-27.49-27.49-49.07-59.49-64.14-95.13C18.63,389.6,10.71,350.41,10.71,310
		s7.91-79.6,23.52-116.49c15.07-35.64,36.65-67.65,64.14-95.13c27.49-27.49,59.49-49.07,95.13-64.14
		C230.4,18.63,269.59,10.71,310,10.71 M310,5.71C141.95,5.71,5.71,141.95,5.71,310S141.95,614.29,310,614.29
		S614.29,478.05,614.29,310S478.05,5.71,310,5.71L310,5.71z"/>
</g>
<g id="Rim_2" class="st1">
	<path d="M310,15.71c39.73,0,78.27,7.78,114.55,23.12c35.04,14.82,66.52,36.04,93.54,63.07c27.03,27.03,48.25,58.5,63.07,93.54
		c15.34,36.27,23.12,74.81,23.12,114.55s-7.78,78.27-23.12,114.55c-14.82,35.04-36.04,66.52-63.07,93.54
		c-27.03,27.03-58.5,48.25-93.54,63.07c-36.27,15.34-74.81,23.12-114.55,23.12s-78.27-7.78-114.55-23.12
		c-35.04-14.82-66.52-36.04-93.54-63.07c-27.03-27.03-48.25-58.5-63.07-93.54C23.49,388.27,15.71,349.73,15.71,310
		s7.78-78.27,23.12-114.55c14.82-35.04,36.04-66.52,63.07-93.54c27.03-27.03,58.5-48.25,93.54-63.07
		C231.73,23.49,270.27,15.71,310,15.71 M310,5.71C141.95,5.71,5.71,141.95,5.71,310S141.95,614.29,310,614.29
		S614.29,478.05,614.29,310S478.05,5.71,310,5.71L310,5.71z"/>
</g>
<g id="Rim_3" class="st1">
	<path d="M310,20.71c39.06,0,76.94,7.65,112.6,22.73c34.45,14.57,65.38,35.43,91.96,62c26.57,26.57,47.43,57.51,62,91.96
		c15.08,35.65,22.73,73.54,22.73,112.6s-7.65,76.94-22.73,112.6c-14.57,34.45-35.43,65.38-62,91.96
		c-26.57,26.57-57.51,47.43-91.96,62c-35.65,15.08-73.54,22.73-112.6,22.73s-76.94-7.65-112.6-22.73
		c-34.45-14.57-65.38-35.43-91.96-62c-26.57-26.57-47.43-57.51-62-91.96C28.36,386.94,20.71,349.06,20.71,310
		s7.65-76.94,22.73-112.6c14.57-34.45,35.43-65.38,62-91.96c26.57-26.57,57.51-47.43,91.96-62C233.06,28.36,270.94,20.71,310,20.71
		 M310,5.71C141.95,5.71,5.71,141.95,5.71,310S141.95,614.29,310,614.29S614.29,478.05,614.29,310S478.05,5.71,310,5.71L310,5.71z"
		/>
</g>
</svg>
