<?xml version="1.0" encoding="utf-8"?>
<!-- Generator: Adobe Illustrator 20.0.0, SVG Export Plug-In . SVG Version: 6.00 Build 0)  -->
<svg version="1.1" id="Hour_Hand_1_" xmlns="http://www.w3.org/2000/svg" xmlns:xlink="http://www.w3.org/1999/xlink" x="0px"
	 y="0px" viewBox="0 0 620 620" style="enable-background:new 0 0 620 620;" xml:space="preserve">
<style type="text/css">
	.st0{opacity:0.1;}
	.st1{fill:#1E1E1E;}
</style>
<g id="Drop_2_2_" class="st0">
	<path d="M310.28,108.26c0.4,0,0.73,0.32,0.74,0.73l0.99,68.1c0,0.25,0.1,0.51,0.31,0.65c0.36,0.24,0.78,0.35,1.21,0.35
		c0.45,0,0.92-0.13,1.35-0.37c0.18-0.1,0.3-0.29,0.35-0.49c1.13-4.55,3.14-8.5,6.6-11.39c0,0,1.7-1.54,3.86-1.54
		c3.18,0,5.67,2.9,4.98,6.2c-0.42,1.99-2.08,3.57-4.09,3.91c-0.3,0.05-0.6,0.08-0.89,0.08c-2.09,0-3.87-1.26-4.65-3.06
		c-0.43,0.58-0.82,1.23-1.2,1.99c-1.29,2.57-1.96,5.42-2.03,8.29c-0.18,6.64,2.35,13.44,8.65,19.74c0.22,0.22,0.07,0.59-0.24,0.59
		h-4.04c-0.27,0-0.53-0.12-0.71-0.32c-3.16-3.53-5.23-6.5-6.43-10.36c-0.08-0.24-0.26-0.45-0.5-0.52c-0.32-0.09-0.67-0.13-1.01-0.13
		c-0.33,0-0.65,0.04-0.95,0.13c-0.35,0.1-0.58,0.43-0.58,0.8l0,94.11c12.5,1.02,22.34,11.47,22.34,24.24
		c0,13.44-10.9,24.34-24.34,24.34s-24.34-10.9-24.34-24.34c0-12.77,9.84-23.23,22.35-24.24v-94.1c0-0.36-0.23-0.69-0.57-0.8
		c-0.3-0.09-0.63-0.14-0.96-0.14c-0.34,0-0.69,0.05-1.01,0.14c-0.25,0.07-0.43,0.28-0.5,0.52c-1.2,3.86-3.27,6.84-6.43,10.36
		c-0.18,0.2-0.44,0.32-0.71,0.32h-4.04c-0.31,0-0.46-0.37-0.24-0.59c6.3-6.31,8.83-13.11,8.65-19.75c-0.08-2.87-0.75-5.71-2.03-8.28
		c-0.38-0.76-0.77-1.41-1.2-1.99c-0.79,1.8-2.57,3.06-4.65,3.06c-0.29,0-0.59-0.02-0.89-0.08c-2.01-0.34-3.67-1.92-4.09-3.91
		c-0.69-3.3,1.8-6.2,4.98-6.2c2.16,0,3.86,1.54,3.86,1.54c3.46,2.88,5.47,6.83,6.6,11.39c0.05,0.2,0.17,0.39,0.35,0.49
		c0.43,0.24,0.9,0.37,1.36,0.37c0.39,0,0.77-0.09,1.11-0.29c0.26-0.15,0.42-0.43,0.42-0.73l0.99-68.09c0.01-0.4,0.33-0.73,0.74-0.73
		H310.28 M310.28,106.26h-0.55c-1.49,0-2.72,1.21-2.74,2.7l-0.95,65.49c-1.41-4.27-3.57-7.6-6.57-10.11
		c-0.36-0.32-2.43-2.02-5.17-2.02c-2.15,0-4.16,0.96-5.51,2.63c-1.35,1.67-1.87,3.85-1.42,5.99c0.59,2.79,2.88,4.99,5.71,5.47
		c0.41,0.07,0.82,0.1,1.22,0.1c1.62,0,3.15-0.56,4.37-1.52c0.93,2.08,1.45,4.41,1.51,6.79c0.18,6.6-2.54,12.75-8.07,18.28
		c-0.68,0.68-0.88,1.68-0.51,2.56c0.36,0.88,1.21,1.44,2.16,1.44h4.04c0.84,0,1.64-0.36,2.2-0.99c2.54-2.84,4.58-5.5,5.98-8.76
		v89.67c-12.67,1.94-22.35,13.03-22.35,26.02c0,14.53,11.82,26.34,26.34,26.34s26.34-11.82,26.34-26.34
		c0-12.98-9.67-24.07-22.34-26.02l0-89.64c1.41,3.25,3.44,5.91,5.97,8.73c0.56,0.63,1.36,0.99,2.2,0.99h4.04
		c0.95,0,1.8-0.57,2.16-1.44c0.37-0.88,0.16-1.89-0.51-2.56c-5.53-5.53-8.24-11.68-8.07-18.28c0.06-2.38,0.59-4.71,1.51-6.79
		c1.22,0.97,2.76,1.52,4.37,1.52c0.41,0,0.82-0.03,1.22-0.1c2.83-0.48,5.12-2.68,5.71-5.47c0.45-2.14-0.07-4.32-1.42-5.99
		c-1.35-1.67-3.36-2.63-5.51-2.63c-2.74,0-4.81,1.7-5.17,2.02c-2.99,2.51-5.15,5.82-6.56,10.07l-0.95-65.45
		C313,107.47,311.77,106.26,310.28,106.26L310.28,106.26z"/>
</g>
<g id="Drop_1_1_" class="st0">
	<path d="M310.28,108.26c0.4,0,0.73,0.32,0.74,0.73l0.99,68.1c0,0.25,0.1,0.51,0.31,0.65c0.36,0.24,0.78,0.35,1.21,0.35
		c0.45,0,0.92-0.13,1.35-0.37c0.18-0.1,0.3-0.29,0.35-0.49c1.13-4.55,3.14-8.5,6.6-11.39c0,0,1.7-1.54,3.86-1.54
		c3.18,0,5.67,2.9,4.98,6.2c-0.42,1.99-2.08,3.57-4.09,3.91c-0.3,0.05-0.6,0.08-0.89,0.08c-2.09,0-3.87-1.26-4.65-3.06
		c-0.43,0.58-0.82,1.23-1.2,1.99c-1.29,2.57-1.96,5.42-2.03,8.29c-0.18,6.64,2.35,13.44,8.65,19.74c0.22,0.22,0.07,0.59-0.24,0.59
		h-4.04c-0.27,0-0.53-0.12-0.71-0.32c-3.16-3.53-5.23-6.5-6.43-10.36c-0.08-0.24-0.26-0.45-0.5-0.52c-0.32-0.09-0.67-0.13-1.01-0.13
		c-0.33,0-0.65,0.04-0.95,0.13c-0.35,0.1-0.58,0.43-0.58,0.8l0,94.11c12.5,1.02,22.34,11.47,22.34,24.24
		c0,13.44-10.9,24.34-24.34,24.34s-24.34-10.9-24.34-24.34c0-12.77,9.84-23.23,22.35-24.24v-94.1c0-0.36-0.23-0.69-0.57-0.8
		c-0.3-0.09-0.63-0.14-0.96-0.14c-0.34,0-0.69,0.05-1.01,0.14c-0.25,0.07-0.43,0.28-0.5,0.52c-1.2,3.86-3.27,6.84-6.43,10.36
		c-0.18,0.2-0.44,0.32-0.71,0.32h-4.04c-0.31,0-0.46-0.37-0.24-0.59c6.3-6.31,8.83-13.11,8.65-19.75c-0.08-2.87-0.75-5.71-2.03-8.28
		c-0.38-0.76-0.77-1.41-1.2-1.99c-0.79,1.8-2.57,3.06-4.65,3.06c-0.29,0-0.59-0.02-0.89-0.08c-2.01-0.34-3.67-1.92-4.09-3.91
		c-0.69-3.3,1.8-6.2,4.98-6.2c2.16,0,3.86,1.54,3.86,1.54c3.46,2.88,5.47,6.83,6.6,11.39c0.05,0.2,0.17,0.39,0.35,0.49
		c0.43,0.24,0.9,0.37,1.36,0.37c0.39,0,0.77-0.09,1.11-0.29c0.26-0.15,0.42-0.43,0.42-0.73l0.99-68.09c0.01-0.4,0.33-0.73,0.74-0.73
		H310.28 M310.28,107.26h-0.55c-0.94,0-1.72,0.77-1.74,1.71l-0.99,68c-0.16,0.08-0.34,0.11-0.53,0.11c-0.25,0-0.51-0.06-0.76-0.18
		c-1.3-5.16-3.56-9.03-6.9-11.83c-0.05-0.05-1.98-1.77-4.5-1.77c-1.85,0-3.57,0.82-4.74,2.26c-1.16,1.43-1.61,3.31-1.22,5.15
		c0.5,2.4,2.47,4.28,4.9,4.69c0.35,0.06,0.71,0.09,1.05,0.09c1.83,0,3.52-0.82,4.66-2.19c0.1,0.18,0.2,0.37,0.3,0.57
		c1.19,2.37,1.85,5.09,1.93,7.86c0.19,6.88-2.63,13.28-8.36,19.02c-0.39,0.39-0.5,0.97-0.29,1.47c0.21,0.5,0.69,0.83,1.24,0.83h4.04
		c0.55,0,1.08-0.24,1.46-0.65c3.01-3.36,5.28-6.45,6.6-10.62c0.19-0.04,0.4-0.06,0.59-0.06c0.19,0,0.37,0.02,0.53,0.06v93.07
		c-12.61,1.49-22.35,12.36-22.35,25.15c0,13.97,11.37,25.34,25.34,25.34s25.34-11.37,25.34-25.34c0-12.78-9.74-23.65-22.34-25.15
		l0-93.08c0.16-0.04,0.34-0.06,0.52-0.06c0.2,0,0.4,0.02,0.59,0.06c1.32,4.17,3.6,7.26,6.6,10.62c0.37,0.41,0.9,0.65,1.46,0.65h4.04
		c0.54,0,1.03-0.32,1.24-0.83c0.21-0.51,0.09-1.09-0.29-1.47c-5.73-5.74-8.54-12.13-8.36-19.01c0.07-2.78,0.74-5.5,1.93-7.87
		c0.1-0.2,0.2-0.39,0.3-0.57c1.14,1.37,2.84,2.19,4.66,2.19c0.35,0,0.7-0.03,1.05-0.09c2.43-0.41,4.39-2.3,4.9-4.69
		c0.39-1.84-0.06-3.72-1.22-5.15c-1.16-1.43-2.89-2.26-4.74-2.26c-2.52,0-4.45,1.72-4.53,1.8c-3.32,2.77-5.58,6.64-6.87,11.8
		c-0.25,0.12-0.51,0.18-0.76,0.18c-0.19,0-0.36-0.04-0.52-0.11l-0.99-68.01C312,108.03,311.22,107.26,310.28,107.26L310.28,107.26z"
		/>
</g>
<path id="Hand_2_" class="st1" d="M334.34,310c0-12.77-9.83-23.22-22.34-24.24l0-94.11c0-0.36,0.23-0.69,0.58-0.8
	c0.61-0.18,1.33-0.17,1.96,0c0.25,0.07,0.43,0.28,0.5,0.52c1.2,3.86,3.27,6.84,6.43,10.36c0.18,0.2,0.44,0.32,0.71,0.32h4.04
	c0.31,0,0.46-0.37,0.24-0.59c-6.3-6.31-8.83-13.1-8.65-19.74c0.08-2.87,0.75-5.72,2.03-8.29c0.38-0.76,0.77-1.41,1.2-1.99
	c0.9,2.05,3.08,3.4,5.54,2.99c2.01-0.34,3.67-1.92,4.09-3.91c0.69-3.3-1.8-6.2-4.98-6.2c-2.16,0-3.86,1.54-3.86,1.54
	c-3.46,2.88-5.46,6.83-6.6,11.39c-0.05,0.2-0.17,0.39-0.35,0.49c-0.84,0.47-1.82,0.5-2.56,0.02c-0.21-0.14-0.31-0.4-0.31-0.65
	l-0.99-68.1c-0.01-0.4-0.33-0.73-0.74-0.73h-0.55c-0.4,0-0.73,0.32-0.74,0.73l-0.99,68.09c0,0.3-0.16,0.58-0.42,0.73
	c-0.73,0.42-1.66,0.37-2.47-0.08c-0.18-0.1-0.3-0.29-0.35-0.49c-1.13-4.55-3.14-8.5-6.6-11.39c0,0-1.7-1.54-3.86-1.54
	c-3.18,0-5.67,2.9-4.98,6.2c0.42,1.99,2.08,3.57,4.09,3.91c2.46,0.42,4.64-0.94,5.54-2.99c0.43,0.58,0.82,1.23,1.2,1.99
	c1.29,2.57,1.96,5.41,2.03,8.28c0.18,6.65-2.35,13.44-8.65,19.75c-0.22,0.22-0.07,0.59,0.24,0.59h4.04c0.27,0,0.53-0.12,0.71-0.32
	c3.16-3.53,5.23-6.5,6.43-10.36c0.08-0.24,0.26-0.45,0.5-0.52c0.64-0.17,1.36-0.19,1.97,0c0.34,0.11,0.57,0.43,0.57,0.8v94.1
	c-12.51,1.02-22.35,11.47-22.35,24.24c0,13.44,10.9,24.34,24.34,24.34S334.34,323.44,334.34,310z"/>
</svg>
