<?xml version="1.0" encoding="utf-8"?>
<!-- Generator: Adobe Illustrator 20.0.0, SVG Export Plug-In . SVG Version: 6.00 Build 0)  -->
<svg version="1.1" id="Minute_Hand_1_" xmlns="http://www.w3.org/2000/svg" xmlns:xlink="http://www.w3.org/1999/xlink" x="0px"
	 y="0px" viewBox="0 0 620 620" style="enable-background:new 0 0 620 620;" xml:space="preserve">
<style type="text/css">
	.st0{opacity:0.1;}
	.st1{fill:#1E1E1E;}
	.st2{fill:#2D2C19;}
	.st3{fill:#1C1B13;}
	.st4{fill:#2B2617;}
</style>
<g id="Drop_2" class="st0">
	<path d="M310.4,11.97c0.33,0,0.6,0.27,0.6,0.6l0.43,83.58c0.2,0.16,0.44,0.28,0.73,0.28c0.26,0,0.57-0.09,0.95-0.32
		c1.18-4.77,3.67-8.84,7.2-11.79c0.06-0.05,1.87-1.67,4.23-1.67c1.71,0,3.32,0.76,4.4,2.1c0.83,1.02,1.26,2.28,1.26,3.58
		c0,0.4-0.04,0.81-0.13,1.21c-0.47,2.24-2.31,3.99-4.58,4.37c-0.32,0.05-0.65,0.08-0.96,0.08c-2.31,0-4.35-1.37-5.22-3.47
		c-5.5,7.99-4.42,19.18,2.97,30.21c0.22,0.32,0.21,0.72-0.02,1.03c-0.17,0.23-0.43,0.36-0.71,0.36c-0.09,0-0.18-0.01-0.27-0.04
		l-2.63-0.82c-0.33-0.1-0.62-0.33-0.79-0.63c-2.55-4.49-4.23-8.93-4.99-13.21c-0.25-0.08-0.49-0.12-0.71-0.12
		c-0.26,0-0.5,0.05-0.73,0.15v182.92c10.22,0.74,18.29,9.24,18.29,19.65c0,10.89-8.83,19.72-19.72,19.72
		c-0.36,0-0.72-0.01-1.07-0.03c-9.84-0.52-17.94-8.51-18.6-18.34c-0.73-11.02,7.59-20.23,18.25-21V107.43
		c-0.23-0.1-0.48-0.16-0.74-0.16c-0.22,0-0.46,0.04-0.71,0.12c-0.77,4.28-2.45,8.73-4.99,13.21c-0.17,0.3-0.45,0.53-0.78,0.63
		l-2.63,0.82c-0.09,0.03-0.18,0.04-0.27,0.04c-0.27,0-0.54-0.13-0.71-0.36c-0.23-0.31-0.24-0.71-0.02-1.03
		c7.4-11.03,8.47-22.23,2.97-30.21c-0.86,2.07-2.9,3.48-5.22,3.48c0,0,0,0,0,0c-0.35,0-1.1-0.09-1.38-0.17
		c-4.62-1.39-5.51-6.35-2.58-9.33c1.32-1.34,2.72-1.81,4.01-1.81c1.77,0,3.33,0.89,4.2,1.67c3.51,2.93,6,7,7.18,11.77
		c0.37,0.23,0.68,0.32,0.95,0.32c0.3,0,0.54-0.12,0.74-0.28L309,12.56c0-0.33,0.27-0.6,0.6-0.6H310.4 M310.4,9.97h-0.8
		c-1.43,0-2.59,1.16-2.6,2.59l-0.39,77.21c-1.42-2.68-3.3-5.03-5.59-6.95c-0.61-0.54-2.66-2.16-5.51-2.16
		c-2.01,0-3.89,0.83-5.44,2.41c-1.93,1.96-2.69,4.67-2.04,7.23c0.67,2.6,2.66,4.58,5.47,5.42c0.53,0.16,1.5,0.26,1.96,0.26
		c1.88,0,3.64-0.68,4.99-1.85c3.27,7.05,1.71,16.35-4.41,25.47c-0.69,1.03-0.65,2.37,0.09,3.35c0.54,0.72,1.4,1.16,2.31,1.16
		c0.29,0,0.58-0.04,0.86-0.13l2.64-0.82c0.82-0.26,1.5-0.81,1.93-1.55c1.04-1.83,1.94-3.66,2.7-5.48v172.46
		c-10.95,1.74-18.99,11.64-18.24,22.91c0.72,10.76,9.72,19.63,20.49,20.2c0.4,0.02,0.79,0.03,1.18,0.03
		c11.98,0,21.72-9.74,21.72-21.72c0-10.69-7.89-19.77-18.29-21.43V116.13c0.76,1.81,1.66,3.64,2.7,5.46
		c0.42,0.75,1.11,1.3,1.93,1.55l2.63,0.82c0.28,0.09,0.57,0.13,0.87,0.13c0.91,0,1.77-0.44,2.31-1.17c0.73-0.98,0.76-2.33,0.07-3.34
		c-6.11-9.11-7.67-18.4-4.41-25.46c1.36,1.17,3.11,1.84,4.99,1.84c0.43,0,0.86-0.04,1.29-0.11c3.08-0.51,5.57-2.89,6.21-5.93
		c0.11-0.53,0.17-1.08,0.17-1.62c0-1.76-0.61-3.48-1.71-4.84c-1.46-1.8-3.63-2.84-5.95-2.84c-2.94,0-5.15,1.82-5.53,2.15
		c-2.29,1.92-4.18,4.27-5.61,6.96L313,12.55C313,11.13,311.83,9.97,310.4,9.97L310.4,9.97z"/>
</g>
<g id="Drop_1" class="st0">
	<path d="M310.4,11.97c0.33,0,0.6,0.27,0.6,0.6l0.43,83.58c0.2,0.16,0.44,0.28,0.74,0.28c0.26,0,0.57-0.09,0.95-0.32
		c1.18-4.77,3.67-8.84,7.2-11.79c0.06-0.05,1.87-1.67,4.23-1.67c1.71,0,3.32,0.76,4.4,2.1c0.83,1.02,1.26,2.28,1.26,3.58
		c0,0.4-0.04,0.81-0.13,1.21c-0.47,2.24-2.31,3.99-4.58,4.37c-0.32,0.05-0.65,0.08-0.96,0.08c-2.31,0-4.35-1.37-5.22-3.47
		c-5.5,7.99-4.42,19.18,2.97,30.21c0.22,0.32,0.21,0.72-0.02,1.03c-0.17,0.23-0.43,0.36-0.71,0.36c-0.09,0-0.18-0.01-0.27-0.04
		l-2.63-0.82c-0.33-0.1-0.62-0.33-0.79-0.63c-2.55-4.49-4.23-8.93-4.99-13.21c-0.25-0.08-0.49-0.12-0.71-0.12
		c-0.26,0-0.5,0.05-0.73,0.15v182.92c10.22,0.74,18.29,9.24,18.29,19.65c0,10.89-8.83,19.72-19.72,19.72
		c-0.36,0-0.72-0.01-1.07-0.03c-9.84-0.52-17.94-8.51-18.6-18.34c-0.73-11.02,7.59-20.23,18.25-21V107.43
		c-0.23-0.1-0.48-0.16-0.74-0.16c-0.22,0-0.46,0.04-0.71,0.12c-0.77,4.28-2.45,8.73-4.99,13.21c-0.17,0.3-0.45,0.53-0.78,0.63
		l-2.63,0.82c-0.09,0.03-0.18,0.04-0.27,0.04c-0.27,0-0.54-0.13-0.71-0.36c-0.23-0.31-0.24-0.71-0.02-1.03
		c7.4-11.03,8.47-22.23,2.97-30.21c-0.86,2.07-2.9,3.48-5.22,3.48c0,0,0,0,0,0c-0.35,0-1.1-0.09-1.38-0.17
		c-4.62-1.39-5.51-6.35-2.58-9.33c1.32-1.34,2.72-1.81,4.01-1.81c1.77,0,3.33,0.89,4.2,1.67c3.51,2.93,6,7,7.18,11.77
		c0.37,0.23,0.68,0.32,0.95,0.32c0.3,0,0.54-0.12,0.74-0.28L309,12.56c0-0.33,0.27-0.6,0.6-0.6H310.4 M310.4,10.97h-0.8
		c-0.88,0-1.6,0.71-1.6,1.59l-0.42,82.28c-1.32-4.54-3.81-8.42-7.23-11.28c-1-0.91-2.82-1.9-4.84-1.9c-1.73,0-3.37,0.73-4.72,2.11
		c-1.68,1.71-2.35,4.06-1.78,6.28c0.58,2.26,2.32,3.98,4.79,4.72c0.43,0.13,1.29,0.21,1.67,0.21c2.09,0,4-0.96,5.24-2.55
		c4.25,7.52,2.87,17.75-3.83,27.73c-0.45,0.67-0.43,1.55,0.05,2.19c0.36,0.48,0.91,0.76,1.51,0.76c0.19,0,0.38-0.03,0.57-0.09
		l2.63-0.82c0.58-0.18,1.06-0.57,1.36-1.09c2.12-3.73,3.65-7.44,4.57-11.07v179.41c-10.87,1.27-18.98,10.93-18.24,21.97
		c0.68,10.26,9.27,18.72,19.54,19.27c0.38,0.02,0.75,0.03,1.13,0.03c11.42,0,20.72-9.29,20.72-20.72c0-10.49-7.96-19.34-18.29-20.55
		V110.06c0.92,3.61,2.45,7.32,4.57,11.04c0.3,0.52,0.78,0.91,1.36,1.09l2.63,0.82c0.19,0.06,0.38,0.09,0.57,0.09
		c0.6,0,1.15-0.28,1.51-0.76c0.48-0.64,0.5-1.52,0.05-2.19c-6.69-9.98-8.07-20.2-3.83-27.72c1.24,1.59,3.15,2.55,5.24,2.55
		c0.37,0,0.75-0.03,1.13-0.09c2.67-0.44,4.84-2.51,5.4-5.15c0.1-0.47,0.15-0.94,0.15-1.42c0-1.53-0.53-3.03-1.49-4.21
		c-1.27-1.57-3.16-2.47-5.18-2.47c-2.77,0-4.82,1.86-4.91,1.94c-3.39,2.83-5.88,6.71-7.21,11.24L312,12.56
		C312,11.68,311.28,10.97,310.4,10.97L310.4,10.97z"/>
</g>
<path id="Hand" class="st1" d="M310.4,11.97h-0.8c-0.33,0-0.6,0.27-0.6,0.6l-0.43,83.58c-0.38,0.3-0.88,0.46-1.69-0.04
	c-1.18-4.77-3.67-8.84-7.18-11.77c-1.49-1.35-5.09-3.02-8.21,0.14c-2.93,2.98-2.04,7.95,2.58,9.33c0.28,0.08,1.03,0.17,1.38,0.17
	c2.32,0,4.36-1.41,5.22-3.48c5.5,7.98,4.43,19.18-2.97,30.21c-0.21,0.32-0.21,0.73,0.02,1.03c0.23,0.31,0.61,0.43,0.98,0.32
	l2.63-0.82c0.33-0.1,0.61-0.33,0.78-0.63c2.55-4.48,4.23-8.93,4.99-13.21c0.54-0.17,1.02-0.16,1.45,0.04v182.92
	c-10.66,0.76-18.98,9.98-18.25,21c0.66,9.83,8.76,17.82,18.6,18.34c11.38,0.6,20.79-8.44,20.79-19.69
	c0-10.41-8.07-18.91-18.29-19.65V107.43c0.43-0.19,0.9-0.2,1.44-0.04c0.77,4.28,2.45,8.72,4.99,13.21c0.17,0.3,0.46,0.53,0.79,0.63
	l2.63,0.82c0.37,0.11,0.75-0.01,0.98-0.32c0.23-0.31,0.24-0.71,0.02-1.03c-7.4-11.03-8.47-22.22-2.97-30.21
	c0.99,2.39,3.5,3.84,6.18,3.4c2.27-0.38,4.11-2.13,4.58-4.37c0.08-0.4,0.13-0.81,0.13-1.21c0-1.3-0.44-2.56-1.26-3.58
	c-1.08-1.33-2.69-2.1-4.4-2.1c-2.36,0-4.17,1.62-4.23,1.67c-3.53,2.94-6.01,7.02-7.19,11.79c-0.81,0.5-1.31,0.34-1.68,0.05
	L311,12.56C311,12.23,310.73,11.97,310.4,11.97z"/>
<path id="Outer" d="M300.07,298.57c-6.3,5.48-6.97,15.06-1.49,21.36s15.06,6.97,21.36,1.49s6.97-15.06,1.49-21.36
	S306.37,293.09,300.07,298.57L300.07,298.57z"/>
<ellipse id="Base" transform="matrix(0.7547 -0.6561 0.6561 0.7547 -127.3383 279.4183)" class="st2" cx="310" cy="310" rx="14" ry="14"/>
<g id="Ring_2_">
	<path class="st3" d="M309.99,301.05c2.6,0,5.07,1.12,6.77,3.08c3.24,3.73,2.84,9.4-0.88,12.64c-1.63,1.41-3.71,2.19-5.87,2.19
		c-2.6,0-5.07-1.12-6.77-3.08c-3.24-3.73-2.84-9.4,0.88-12.64C305.75,301.83,307.83,301.05,309.99,301.05 M309.99,300.05
		c-2.32,0-4.64,0.8-6.53,2.44c-4.14,3.6-4.58,9.9-0.98,14.05c1.97,2.26,4.74,3.42,7.52,3.42c2.32,0,4.64-0.8,6.53-2.44
		c4.14-3.6,4.58-9.9,0.98-14.05C315.55,301.21,312.78,300.05,309.99,300.05L309.99,300.05z"/>
</g>
<path id="Shadow" class="st3" d="M306.33,305.78c-2.33,2.02-2.57,5.56-0.55,7.88c2.02,2.33,5.56,2.57,7.88,0.55
	c2.33-2.02,2.57-5.56,0.55-7.88C312.2,304.01,308.66,303.76,306.33,305.78L306.33,305.78z"/>
<ellipse id="Center" transform="matrix(0.7547 -0.6561 0.6561 0.7547 -127.3383 279.4183)" class="st4" cx="310" cy="310" rx="4.73" ry="4.73"/>
</svg>
