<?xml version="1.0" encoding="utf-8"?>
<!-- Generator: Adobe Illustrator 20.0.0, SVG Export Plug-In . SVG Version: 6.00 Build 0)  -->
<svg version="1.1" id="Second_Hand" xmlns="http://www.w3.org/2000/svg" xmlns:xlink="http://www.w3.org/1999/xlink" x="0px"
	 y="0px" viewBox="0 0 620 620" style="enable-background:new 0 0 620 620;" xml:space="preserve">
<style type="text/css">
	.st0{opacity:0.1;}
	.st1{fill:#1E1E1E;}
	.st2{fill:#1C1B13;}
	.st3{fill:#3D3C2A;}
	.st4{fill:#2D2C18;}
</style>
<g id="Drop_Stroke" class="st0">
	<path d="M310,224.21c0.63,0,1.14,0.51,1.14,1.14v72.13c0,0.75,0.53,1.39,1.26,1.55c5.05,1.1,8.83,5.6,8.83,10.98
		s-3.78,9.88-8.83,10.98c-0.73,0.16-1.26,0.8-1.26,1.55v20.42c0,0.51,0.2,1,0.57,1.36l2.37,2.37c0.6,0.6,0.6,1.56,0,2.15l-1.1,1.1
		c-1.18,1.18-1.84,2.77-1.84,4.43v3.52c0,0.63-0.51,1.14-1.14,1.14s-1.14-0.51-1.14-1.14v-3.52c0-1.66-0.66-3.26-1.84-4.43l-1.1-1.1
		c-0.6-0.6-0.6-1.56,0-2.16l2.37-2.37c0.36-0.36,0.57-0.85,0.57-1.36v-20.42c0-0.75-0.53-1.39-1.26-1.55
		c-5.05-1.1-8.83-5.6-8.83-10.98s3.78-9.88,8.83-10.98c0.73-0.16,1.26-0.8,1.26-1.55v-72.13C308.86,224.72,309.37,224.21,310,224.21
		 M310,221.71c-2.01,0-3.64,1.63-3.64,3.64v71.42c-5.89,1.62-10.09,7.08-10.09,13.25s4.2,11.63,10.09,13.25v19.47l-2.2,2.2
		c-0.76,0.76-1.18,1.77-1.18,2.85s0.42,2.09,1.18,2.85l1.1,1.1c0.71,0.71,1.1,1.66,1.1,2.67v3.52c0,2.01,1.63,3.64,3.64,3.64
		c2.01,0,3.64-1.63,3.64-3.64v-3.52c0-1.01,0.39-1.95,1.1-2.67l1.1-1.1c1.57-1.57,1.57-4.12,0-5.69l-2.2-2.2v-19.47
		c5.89-1.62,10.09-7.08,10.09-13.25s-4.2-11.62-10.09-13.25v-71.42C313.64,223.34,312.01,221.71,310,221.71L310,221.71z"/>
</g>
<path id="Base_1_" class="st1" d="M321.24,310.01c0-5.38-3.78-9.88-8.83-10.98c-0.73-0.16-1.26-0.8-1.26-1.55v-72.13
	c0-0.63-0.51-1.14-1.14-1.14c-0.63,0-1.14,0.51-1.14,1.14v72.13c0,0.75-0.53,1.39-1.26,1.55c-5.05,1.1-8.83,5.6-8.83,10.98
	c0,5.38,3.78,9.88,8.83,10.98c0.73,0.16,1.26,0.8,1.26,1.55v20.42c0,0.51-0.2,1-0.57,1.36l-2.37,2.37c-0.6,0.6-0.6,1.56,0,2.16
	l1.1,1.1c1.18,1.18,1.84,2.77,1.84,4.43v3.52c0,0.63,0.51,1.14,1.14,1.14c0.63,0,1.14-0.51,1.14-1.14v-3.52
	c0-1.66,0.66-3.26,1.84-4.43l1.1-1.1c0.6-0.6,0.6-1.56,0-2.15l-2.37-2.37c-0.36-0.36-0.57-0.85-0.57-1.36v-20.42
	c0-0.75,0.53-1.39,1.26-1.55C317.45,319.89,321.24,315.39,321.24,310.01z"/>
<path id="Nut_Shadow" class="st2" d="M311.45,306.01h-2.89c-0.53,0-1.03,0.29-1.3,0.75l-1.45,2.51c-0.27,0.46-0.27,1.03,0,1.5
	l1.45,2.51c0.27,0.46,0.76,0.75,1.3,0.75h2.89c0.53,0,1.03-0.29,1.3-0.75l1.45-2.51c0.27-0.46,0.27-1.03,0-1.5l-1.45-2.51
	C312.47,306.3,311.98,306.01,311.45,306.01L311.45,306.01z"/>
<path id="Nut" class="st3" d="M312.25,307.05c-0.16-0.29-0.47-0.46-0.8-0.46h-2.89c-0.33,0-0.64,0.18-0.8,0.46l-1.45,2.51
	c-0.16,0.29-0.16,0.64,0,0.92l1.45,2.51c0.16,0.29,0.47,0.46,0.8,0.46h2.89c0.33,0,0.64-0.18,0.8-0.46l1.45-2.51
	c0.16-0.29,0.16-0.64,0-0.92L312.25,307.05z"/>
<path id="Bolt_Shadow" class="st2" d="M310,312.09c-1.14,0-2.07-0.93-2.07-2.07s0.93-2.07,2.07-2.07s2.07,0.93,2.07,2.07
	S311.14,312.09,310,312.09z"/>
<circle id="Bolt" class="st4" cx="310" cy="310.01" r="1.5"/>
</svg>
