<?xml version="1.0" encoding="utf-8"?>
<!-- Generator: Adobe Illustrator 20.0.0, SVG Export Plug-In . SVG Version: 6.00 Build 0)  -->
<svg version="1.1" id="Triangle_Cardinals" xmlns="http://www.w3.org/2000/svg" xmlns:xlink="http://www.w3.org/1999/xlink" x="0px"
	 y="0px" viewBox="0 0 720 720" style="enable-background:new 0 0 720 720;" xml:space="preserve">
<style type="text/css">
	.st0{fill:#F2F2F3;}
	.st1{fill:#E6E6E6;}
	.st2{fill:#C8C8C8;}
</style>
<g id="Drop_2">
	<path class="st0" d="M369.38,76.9c1.49,0,2.31,1.74,1.36,2.89l-9.4,11.33c-0.35,0.42-0.85,0.64-1.36,0.64s-1-0.21-1.36-0.64
		l-9.38-11.31c-0.95-1.15-0.14-2.89,1.35-2.89L369.38,76.9C369.38,76.9,369.38,76.9,369.38,76.9 M500.32,106.63
		c0.61,0,1.22,0.15,1.79,0.48l5.85,3.38c1.71,0.99,2.3,3.18,1.31,4.9l-3.39,5.87c-0.66,1.15-1.87,1.79-3.11,1.79
		c-0.61,0-1.22-0.15-1.79-0.48l-5.85-3.38c-1.71-0.99-2.3-3.18-1.31-4.9l3.39-5.87C497.87,107.27,499.08,106.63,500.32,106.63
		 M219.68,106.63c1.24,0,2.44,0.64,3.11,1.79l3.39,5.87c0.99,1.71,0.4,3.91-1.31,4.9l-5.85,3.38c-0.56,0.33-1.18,0.48-1.79,0.48
		c-1.24,0-2.44-0.64-3.11-1.79l-3.39-5.87c-0.99-1.71-0.4-3.91,1.31-4.9l5.85-3.38C218.46,106.78,219.07,106.63,219.68,106.63
		 M606.41,210.25c1.24,0,2.44,0.64,3.11,1.79l3.38,5.85c0.99,1.71,0.4,3.91-1.31,4.9l-5.87,3.39c-0.56,0.33-1.18,0.48-1.79,0.48
		c-1.24,0-2.44-0.64-3.11-1.79l-3.38-5.85c-0.99-1.71-0.4-3.91,1.31-4.9l5.87-3.39C605.18,210.41,605.8,210.25,606.41,210.25
		 M113.59,210.25c0.61,0,1.22,0.15,1.79,0.48l5.87,3.39c1.71,0.99,2.3,3.18,1.31,4.9l-3.38,5.85c-0.66,1.15-1.87,1.79-3.11,1.79
		c-0.61,0-1.22-0.15-1.79-0.48l-5.87-3.39c-1.71-0.99-2.3-3.18-1.31-4.9l3.38-5.85C111.15,210.89,112.35,210.25,113.59,210.25
		 M641.31,348.84c0.91,0,1.77,0.71,1.77,1.76l0.02,18.78c0,1.05-0.86,1.77-1.77,1.77c-0.38,0-0.78-0.13-1.12-0.41l-11.33-9.4
		c-0.85-0.7-0.85-2.01,0-2.71l11.31-9.38C640.53,348.97,640.92,348.84,641.31,348.84 M78.67,348.85c0.38,0,0.78,0.13,1.12,0.41
		l11.33,9.4c0.85,0.7,0.85,2.01,0,2.71l-11.31,9.38c-0.34,0.28-0.73,0.41-1.12,0.41c-0.91,0-1.77-0.71-1.77-1.76l-0.02-18.78
		C76.9,349.57,77.76,348.85,78.67,348.85 M603.92,493.34c0.61,0,1.22,0.15,1.79,0.48l5.87,3.39c1.71,0.99,2.3,3.18,1.31,4.9
		l-3.38,5.85c-0.66,1.15-1.87,1.79-3.11,1.79c-0.61,0-1.22-0.15-1.79-0.48l-5.87-3.39c-1.71-0.99-2.3-3.18-1.31-4.9l3.38-5.85
		C601.47,493.98,602.68,493.34,603.92,493.34 M116.08,493.34c1.24,0,2.44,0.64,3.11,1.79l3.38,5.85c0.99,1.71,0.4,3.91-1.31,4.9
		l-5.87,3.39c-0.56,0.33-1.18,0.48-1.79,0.48c-1.24,0-2.44-0.64-3.11-1.79l-3.38-5.85c-0.99-1.71-0.4-3.91,1.31-4.9l5.87-3.39
		C114.86,493.49,115.47,493.34,116.08,493.34 M502.77,596.95c1.24,0,2.44,0.64,3.11,1.79l3.39,5.87c0.99,1.71,0.4,3.91-1.31,4.9
		l-5.85,3.38c-0.56,0.33-1.18,0.48-1.79,0.48c-1.24,0-2.44-0.64-3.11-1.79l-3.39-5.87c-0.99-1.71-0.4-3.91,1.31-4.9l5.85-3.38
		C501.55,597.11,502.16,596.95,502.77,596.95 M217.23,596.95c0.61,0,1.22,0.15,1.79,0.48l5.85,3.38c1.71,0.99,2.3,3.18,1.31,4.9
		l-3.39,5.87c-0.66,1.15-1.87,1.79-3.11,1.79c-0.61,0-1.22-0.15-1.79-0.48l-5.85-3.38c-1.71-0.99-2.3-3.18-1.31-4.9l3.39-5.87
		C214.79,597.6,215.99,596.95,217.23,596.95 M360.01,628.25c0.5,0,1,0.21,1.36,0.64l9.38,11.31c0.95,1.15,0.14,2.89-1.35,2.89
		l-18.78,0.02c0,0,0,0,0,0c-1.49,0-2.31-1.74-1.36-2.89l9.4-11.33C359.01,628.46,359.51,628.25,360.01,628.25 M369.38,73.9
		L369.38,73.9l-18.78,0.02c-1.86,0-3.52,1.05-4.31,2.74c-0.79,1.69-0.54,3.63,0.65,5.06l9.38,11.31c0.91,1.09,2.24,1.72,3.67,1.72
		s2.76-0.63,3.67-1.72l9.4-11.33c1.19-1.44,1.44-3.38,0.65-5.07C372.9,74.95,371.25,73.9,369.38,73.9L369.38,73.9z M500.32,103.63
		c-2.35,0-4.53,1.26-5.71,3.29l-3.39,5.87c-0.88,1.52-1.11,3.3-0.66,5s1.54,3.12,3.07,4l5.85,3.38c1,0.58,2.14,0.88,3.29,0.88
		c2.35,0,4.53-1.26,5.71-3.29l3.39-5.87c1.82-3.14,0.73-7.18-2.41-8.99l-5.85-3.38C502.61,103.93,501.47,103.63,500.32,103.63
		L500.32,103.63z M219.68,103.63L219.68,103.63c-1.15,0-2.29,0.31-3.29,0.88l-5.85,3.38c-1.52,0.88-2.61,2.3-3.07,4
		c-0.46,1.7-0.22,3.47,0.66,5l3.39,5.87c1.17,2.03,3.36,3.29,5.71,3.29c1.15,0,2.29-0.31,3.29-0.88l5.85-3.38
		c1.52-0.88,2.61-2.3,3.07-4c0.46-1.7,0.22-3.47-0.66-5l-3.39-5.87C224.22,104.89,222.03,103.63,219.68,103.63L219.68,103.63z
		 M606.41,207.25c-1.15,0-2.29,0.31-3.29,0.88l-5.87,3.39c-3.14,1.82-4.23,5.85-2.41,8.99l3.38,5.85c1.17,2.03,3.36,3.29,5.71,3.29
		c1.15,0,2.29-0.31,3.29-0.88l5.87-3.39c1.52-0.88,2.61-2.3,3.07-4c0.46-1.7,0.22-3.47-0.66-5l-3.38-5.85
		C610.94,208.51,608.75,207.25,606.41,207.25L606.41,207.25z M113.59,207.25c-2.35,0-4.53,1.26-5.71,3.29l-3.38,5.85
		c-1.82,3.14-0.73,7.18,2.41,8.99l5.87,3.39c1,0.58,2.14,0.88,3.29,0.88c2.35,0,4.53-1.26,5.71-3.29l3.38-5.85
		c1.82-3.14,0.73-7.18-2.41-8.99l-5.87-3.39C115.88,207.56,114.75,207.25,113.59,207.25L113.59,207.25z M641.31,345.84
		c-1.1,0-2.18,0.39-3.03,1.1l-11.31,9.38c-1.09,0.91-1.72,2.24-1.72,3.67c0,1.42,0.63,2.76,1.72,3.67l11.33,9.4
		c0.86,0.71,1.93,1.1,3.03,1.1c1.23,0,2.39-0.46,3.29-1.31c0.96-0.9,1.49-2.13,1.48-3.46l-0.02-18.78
		C646.08,347.98,643.94,345.84,641.31,345.84L641.31,345.84z M78.67,345.85c-1.23,0-2.39,0.46-3.29,1.31
		c-0.96,0.9-1.49,2.13-1.49,3.46l0.02,18.78c0,2.63,2.14,4.76,4.77,4.76c1.1,0,2.18-0.39,3.03-1.1l11.31-9.38
		c1.09-0.91,1.72-2.24,1.72-3.67c0-1.42-0.63-2.76-1.72-3.67l-11.33-9.4C80.85,346.24,79.77,345.85,78.67,345.85L78.67,345.85z
		 M603.92,490.34c-2.35,0-4.53,1.26-5.71,3.29l-3.38,5.85c-1.82,3.14-0.73,7.18,2.41,9l5.87,3.39c1,0.58,2.14,0.88,3.29,0.88
		c2.35,0,4.53-1.26,5.71-3.29l3.38-5.85c0.88-1.52,1.11-3.3,0.66-5c-0.46-1.7-1.54-3.12-3.07-4l-5.87-3.39
		C606.21,490.64,605.07,490.34,603.92,490.34L603.92,490.34z M116.08,490.34c-1.15,0-2.29,0.31-3.29,0.88l-5.87,3.39
		c-1.52,0.88-2.61,2.3-3.07,4c-0.46,1.7-0.22,3.47,0.66,5l3.38,5.85c1.17,2.03,3.36,3.29,5.71,3.29c1.15,0,2.29-0.31,3.29-0.88
		l5.87-3.39c3.14-1.82,4.23-5.85,2.41-9l-3.38-5.85C120.61,491.6,118.43,490.34,116.08,490.34L116.08,490.34z M502.77,593.95
		c-1.15,0-2.29,0.31-3.29,0.88l-5.85,3.38c-1.52,0.88-2.61,2.3-3.07,4c-0.46,1.7-0.22,3.47,0.66,5l3.39,5.87
		c1.17,2.03,3.36,3.29,5.71,3.29c1.15,0,2.29-0.31,3.29-0.88l5.85-3.38c3.14-1.82,4.23-5.85,2.41-8.99l-3.39-5.87
		C507.3,595.21,505.12,593.95,502.77,593.95L502.77,593.95z M217.23,593.95c-2.35,0-4.53,1.26-5.71,3.29l-3.39,5.87
		c-1.82,3.14-0.73,7.18,2.41,8.99l5.85,3.38c1,0.58,2.14,0.88,3.29,0.88c2.35,0,4.53-1.26,5.71-3.29l3.39-5.87
		c0.88-1.52,1.11-3.3,0.66-5c-0.46-1.7-1.54-3.12-3.07-4l-5.85-3.38C219.52,594.26,218.38,593.95,217.23,593.95L217.23,593.95z
		 M360.01,625.25c-1.42,0-2.76,0.63-3.67,1.72l-9.4,11.33c-1.19,1.44-1.44,3.38-0.65,5.07c0.79,1.69,2.44,2.74,4.31,2.74l18.78-0.02
		c1.86,0,3.52-1.05,4.31-2.74c0.79-1.69,0.54-3.63-0.65-5.06l-9.38-11.31C362.77,625.87,361.43,625.25,360.01,625.25L360.01,625.25z
		"/>
</g>
<g id="Drop_1_1_">
	<path class="st1" d="M369.38,76.9c1.49,0,2.31,1.74,1.36,2.89l-9.4,11.33c-0.35,0.42-0.85,0.64-1.36,0.64s-1-0.21-1.36-0.64
		l-9.38-11.31c-0.95-1.15-0.14-2.89,1.35-2.89L369.38,76.9C369.38,76.9,369.38,76.9,369.38,76.9 M500.32,106.63
		c0.61,0,1.22,0.15,1.79,0.48l5.85,3.38c1.71,0.99,2.3,3.18,1.31,4.9l-3.39,5.87c-0.66,1.15-1.87,1.79-3.11,1.79
		c-0.61,0-1.22-0.15-1.79-0.48l-5.85-3.38c-1.71-0.99-2.3-3.18-1.31-4.9l3.39-5.87C497.87,107.27,499.08,106.63,500.32,106.63
		 M219.68,106.63c1.24,0,2.44,0.64,3.11,1.79l3.39,5.87c0.99,1.71,0.4,3.91-1.31,4.9l-5.85,3.38c-0.56,0.33-1.18,0.48-1.79,0.48
		c-1.24,0-2.44-0.64-3.11-1.79l-3.39-5.87c-0.99-1.71-0.4-3.91,1.31-4.9l5.85-3.38C218.46,106.78,219.07,106.63,219.68,106.63
		 M606.41,210.25c1.24,0,2.44,0.64,3.11,1.79l3.38,5.85c0.99,1.71,0.4,3.91-1.31,4.9l-5.87,3.39c-0.56,0.33-1.18,0.48-1.79,0.48
		c-1.24,0-2.44-0.64-3.11-1.79l-3.38-5.85c-0.99-1.71-0.4-3.91,1.31-4.9l5.87-3.39C605.18,210.41,605.8,210.25,606.41,210.25
		 M113.59,210.25c0.61,0,1.22,0.15,1.79,0.48l5.87,3.39c1.71,0.99,2.3,3.18,1.31,4.9l-3.38,5.85c-0.66,1.15-1.87,1.79-3.11,1.79
		c-0.61,0-1.22-0.15-1.79-0.48l-5.87-3.39c-1.71-0.99-2.3-3.18-1.31-4.9l3.38-5.85C111.15,210.89,112.35,210.25,113.59,210.25
		 M641.31,348.84c0.91,0,1.77,0.71,1.77,1.76l0.02,18.78c0,1.05-0.86,1.77-1.77,1.77c-0.38,0-0.78-0.13-1.12-0.41l-11.33-9.4
		c-0.85-0.7-0.85-2.01,0-2.71l11.31-9.38C640.53,348.97,640.92,348.84,641.31,348.84 M78.67,348.85c0.38,0,0.78,0.13,1.12,0.41
		l11.33,9.4c0.85,0.7,0.85,2.01,0,2.71l-11.31,9.38c-0.34,0.28-0.73,0.41-1.12,0.41c-0.91,0-1.77-0.71-1.77-1.76l-0.02-18.78
		C76.9,349.57,77.76,348.85,78.67,348.85 M603.92,493.34c0.61,0,1.22,0.15,1.79,0.48l5.87,3.39c1.71,0.99,2.3,3.18,1.31,4.9
		l-3.38,5.85c-0.66,1.15-1.87,1.79-3.11,1.79c-0.61,0-1.22-0.15-1.79-0.48l-5.87-3.39c-1.71-0.99-2.3-3.18-1.31-4.9l3.38-5.85
		C601.47,493.98,602.68,493.34,603.92,493.34 M116.08,493.34c1.24,0,2.44,0.64,3.11,1.79l3.38,5.85c0.99,1.71,0.4,3.91-1.31,4.9
		l-5.87,3.39c-0.56,0.33-1.18,0.48-1.79,0.48c-1.24,0-2.44-0.64-3.11-1.79l-3.38-5.85c-0.99-1.71-0.4-3.91,1.31-4.9l5.87-3.39
		C114.86,493.49,115.47,493.34,116.08,493.34 M502.77,596.95c1.24,0,2.44,0.64,3.11,1.79l3.39,5.87c0.99,1.71,0.4,3.91-1.31,4.9
		l-5.85,3.38c-0.56,0.33-1.18,0.48-1.79,0.48c-1.24,0-2.44-0.64-3.11-1.79l-3.39-5.87c-0.99-1.71-0.4-3.91,1.31-4.9l5.85-3.38
		C501.55,597.11,502.16,596.95,502.77,596.95 M217.23,596.95c0.61,0,1.22,0.15,1.79,0.48l5.85,3.38c1.71,0.99,2.3,3.18,1.31,4.9
		l-3.39,5.87c-0.66,1.15-1.87,1.79-3.11,1.79c-0.61,0-1.22-0.15-1.79-0.48l-5.85-3.38c-1.71-0.99-2.3-3.18-1.31-4.9l3.39-5.87
		C214.79,597.6,215.99,596.95,217.23,596.95 M360.01,628.25c0.5,0,1,0.21,1.36,0.64l9.38,11.31c0.95,1.15,0.14,2.89-1.35,2.89
		l-18.78,0.02c0,0,0,0,0,0c-1.49,0-2.31-1.74-1.36-2.89l9.4-11.33C359.01,628.46,359.51,628.25,360.01,628.25 M369.38,75.4
		L369.38,75.4l-18.78,0.02c-1.28,0-2.41,0.72-2.95,1.88c-0.54,1.16-0.37,2.49,0.44,3.47l9.38,11.31c0.62,0.75,1.54,1.18,2.51,1.18
		c0.97,0,1.89-0.43,2.51-1.18l9.4-11.33c0.82-0.98,0.99-2.31,0.44-3.47C371.79,76.12,370.66,75.4,369.38,75.4L369.38,75.4z
		 M500.32,105.13c-1.81,0-3.5,0.97-4.41,2.54l-3.39,5.87c-0.68,1.18-0.86,2.55-0.51,3.86c0.35,1.31,1.19,2.41,2.37,3.09l5.85,3.38
		c0.77,0.45,1.65,0.68,2.54,0.68c1.81,0,3.5-0.97,4.41-2.54l3.39-5.87c1.4-2.43,0.57-5.54-1.86-6.95l-5.85-3.38
		C502.08,105.36,501.21,105.13,500.32,105.13L500.32,105.13z M219.68,105.13L219.68,105.13c-0.89,0-1.77,0.24-2.54,0.68l-5.85,3.38
		c-1.18,0.68-2.02,1.78-2.37,3.09c-0.35,1.31-0.17,2.68,0.51,3.86l3.39,5.87c0.91,1.57,2.59,2.54,4.41,2.54
		c0.89,0,1.77-0.24,2.54-0.68l5.85-3.38c1.18-0.68,2.02-1.78,2.37-3.09c0.35-1.31,0.17-2.68-0.51-3.86l-3.39-5.87
		C223.18,106.1,221.49,105.13,219.68,105.13L219.68,105.13z M606.41,208.75c-0.89,0-1.77,0.24-2.54,0.68l-5.87,3.39
		c-2.43,1.4-3.26,4.52-1.86,6.95l3.38,5.85c0.91,1.57,2.59,2.54,4.41,2.54c0.89,0,1.77-0.24,2.54-0.68l5.87-3.39
		c1.18-0.68,2.02-1.78,2.37-3.09c0.35-1.31,0.17-2.68-0.51-3.86l-3.38-5.85C609.91,209.72,608.22,208.75,606.41,208.75
		L606.41,208.75z M113.59,208.75c-1.81,0-3.5,0.97-4.41,2.54l-3.38,5.85c-1.4,2.43-0.57,5.54,1.86,6.95l5.87,3.39
		c0.77,0.45,1.65,0.68,2.54,0.68c1.81,0,3.5-0.97,4.41-2.54l3.38-5.85c1.4-2.43,0.57-5.54-1.86-6.95l-5.87-3.39
		C115.36,208.99,114.48,208.75,113.59,208.75L113.59,208.75z M641.31,347.34c-0.76,0-1.48,0.26-2.07,0.75l-11.31,9.38
		c-0.75,0.62-1.18,1.54-1.18,2.51c0,0.97,0.43,1.89,1.18,2.51l11.33,9.4c0.6,0.49,1.31,0.76,2.07,0.76c0.83,0,1.65-0.33,2.26-0.9
		c0.66-0.62,1.02-1.46,1.01-2.37l-0.02-18.78C644.58,348.81,643.11,347.34,641.31,347.34L641.31,347.34z M78.67,347.35
		c-0.83,0-1.65,0.33-2.26,0.9c-0.65,0.62-1.02,1.46-1.01,2.37l0.02,18.78c0,1.8,1.47,3.26,3.27,3.26c0.76,0,1.48-0.26,2.07-0.75
		l11.31-9.38c0.75-0.62,1.18-1.54,1.18-2.51c0-0.97-0.43-1.89-1.18-2.51l-11.33-9.4C80.15,347.61,79.44,347.35,78.67,347.35
		L78.67,347.35z M603.92,491.84c-1.81,0-3.5,0.97-4.41,2.54l-3.38,5.85c-0.68,1.18-0.86,2.55-0.51,3.86s1.19,2.41,2.37,3.09
		l5.87,3.39c0.77,0.45,1.65,0.68,2.54,0.68c1.81,0,3.5-0.97,4.41-2.54l3.38-5.85c0.68-1.18,0.86-2.55,0.51-3.86
		c-0.35-1.31-1.19-2.41-2.37-3.09l-5.87-3.39C605.68,492.07,604.81,491.84,603.92,491.84L603.92,491.84z M116.08,491.84
		c-0.89,0-1.77,0.24-2.54,0.68l-5.87,3.39c-1.18,0.68-2.02,1.78-2.37,3.09c-0.35,1.31-0.17,2.68,0.51,3.86l3.38,5.85
		c0.91,1.57,2.59,2.54,4.41,2.54c0.89,0,1.77-0.24,2.54-0.68l5.87-3.39c2.43-1.4,3.26-4.52,1.86-6.95l-3.38-5.85
		C119.58,492.81,117.89,491.84,116.08,491.84L116.08,491.84z M502.77,595.45c-0.89,0-1.77,0.24-2.54,0.68l-5.85,3.38
		c-1.18,0.68-2.02,1.78-2.37,3.09c-0.35,1.31-0.17,2.68,0.51,3.86l3.39,5.87c0.91,1.57,2.59,2.54,4.41,2.54
		c0.89,0,1.77-0.24,2.54-0.68l5.85-3.38c2.43-1.4,3.26-4.52,1.86-6.95l-3.39-5.87C506.27,596.43,504.58,595.45,502.77,595.45
		L502.77,595.45z M217.23,595.45c-1.81,0-3.5,0.97-4.41,2.54l-3.39,5.87c-1.4,2.43-0.57,5.54,1.86,6.95l5.85,3.38
		c0.77,0.45,1.65,0.68,2.54,0.68c1.81,0,3.5-0.97,4.41-2.54l3.39-5.87c0.68-1.18,0.86-2.55,0.51-3.86
		c-0.35-1.31-1.19-2.41-2.37-3.09l-5.85-3.38C219,595.69,218.12,595.45,217.23,595.45L217.23,595.45z M360.01,626.75
		c-0.97,0-1.89,0.43-2.51,1.18l-9.4,11.33c-0.82,0.98-0.99,2.31-0.44,3.47c0.54,1.16,1.67,1.88,2.95,1.88l18.78-0.02
		c1.28,0,2.41-0.72,2.95-1.88c0.54-1.16,0.37-2.49-0.44-3.47l-9.38-11.31C361.9,627.18,360.99,626.75,360.01,626.75L360.01,626.75z"
		/>
</g>
<path id="Base_3_" class="st2" d="M214.12,121.25l-3.39-5.87c-0.99-1.71-0.4-3.91,1.31-4.9l5.85-3.38c1.71-0.99,3.91-0.4,4.9,1.31
	l3.39,5.87c0.99,1.71,0.4,3.91-1.31,4.9l-5.85,3.38C217.3,123.56,215.11,122.97,214.12,121.25z M119.19,224.87l3.38-5.85
	c0.99-1.71,0.4-3.91-1.31-4.9l-5.87-3.39c-1.71-0.99-3.91-0.4-4.9,1.31l-3.38,5.85c-0.99,1.71-0.4,3.91,1.31,4.9l5.87,3.39
	C116.01,227.17,118.2,226.58,119.19,224.87z M76.9,350.62l0.02,18.78c0,1.49,1.74,2.31,2.89,1.35l11.31-9.38
	c0.85-0.7,0.85-2.01,0-2.71l-11.33-9.4C78.64,348.31,76.9,349.12,76.9,350.62z M115.38,509.27l5.87-3.39
	c1.71-0.99,2.3-3.18,1.31-4.9l-3.38-5.85c-0.99-1.71-3.18-2.3-4.9-1.31l-5.87,3.39c-1.71,0.99-2.3,3.18-1.31,4.9l3.38,5.85
	C111.48,509.67,113.67,510.26,115.38,509.27z M222.79,611.58l3.39-5.87c0.99-1.71,0.4-3.91-1.31-4.9l-5.85-3.38
	c-1.71-0.99-3.91-0.4-4.9,1.31l-3.39,5.87c-0.99,1.71-0.4,3.91,1.31,4.9l5.85,3.38C219.61,613.88,221.8,613.29,222.79,611.58z
	 M350.62,643.1l18.78-0.02c1.49,0,2.31-1.74,1.35-2.89l-9.38-11.31c-0.7-0.85-2.01-0.85-2.71,0l-9.4,11.33
	C348.31,641.36,349.12,643.1,350.62,643.1z M502.11,612.89l5.85-3.38c1.71-0.99,2.3-3.18,1.31-4.9l-3.39-5.87
	c-0.99-1.71-3.18-2.3-4.9-1.31l-5.85,3.38c-1.71,0.99-2.3,3.18-1.31,4.9l3.39,5.87C498.2,613.29,500.39,613.88,502.11,612.89z
	 M609.51,507.96l3.38-5.85c0.99-1.71,0.4-3.91-1.31-4.9l-5.87-3.39c-1.71-0.99-3.91-0.4-4.9,1.31l-3.38,5.85
	c-0.99,1.71-0.4,3.91,1.31,4.9l5.87,3.39C606.33,510.26,608.52,509.67,609.51,507.96z M640.19,349.25l-11.31,9.38
	c-0.85,0.7-0.85,2.01,0,2.71l11.33,9.4c1.15,0.95,2.89,0.14,2.89-1.36l-0.02-18.78C643.08,349.12,641.34,348.3,640.19,349.25z
	 M597.43,219.02l3.38,5.85c0.99,1.71,3.18,2.3,4.9,1.31l5.87-3.39c1.71-0.99,2.3-3.18,1.31-4.9l-3.38-5.85
	c-0.99-1.71-3.18-2.3-4.9-1.31l-5.87,3.39C597.03,215.11,596.44,217.3,597.43,219.02z M505.88,121.26l3.39-5.87
	c0.99-1.71,0.4-3.91-1.31-4.9l-5.85-3.38c-1.71-0.99-3.91-0.4-4.9,1.31l-3.39,5.87c-0.99,1.71-0.4,3.91,1.31,4.9l5.85,3.38
	C502.7,123.56,504.89,122.97,505.88,121.26z M361.34,91.12l9.4-11.33c0.95-1.15,0.14-2.89-1.36-2.89l-18.78,0.02
	c-1.49,0-2.31,1.74-1.35,2.89l9.38,11.31C359.34,91.97,360.64,91.97,361.34,91.12z"/>
</svg>
