<?xml version="1.0" encoding="utf-8"?>
<!-- Generator: Adobe Illustrator 20.0.0, SVG Export Plug-In . SVG Version: 6.00 Build 0)  -->
<svg version="1.1" id="Squares_1_" xmlns="http://www.w3.org/2000/svg" xmlns:xlink="http://www.w3.org/1999/xlink" x="0px" y="0px"
	 viewBox="0 0 720 720" style="enable-background:new 0 0 720 720;" xml:space="preserve">
<style type="text/css">
	.st0{fill:#F2F2F3;}
	.st1{fill:#E6E6E6;}
	.st2{fill:#C8C8C8;}
</style>
<g id="Drop_2_13_">
	<path class="st0" d="M369.3,67.63v18.57h-18.6V67.63H369.3 M498.99,105.32l12.08,6.97l-6.96,12.06l-12.08-6.98L498.99,105.32
		 M221.01,105.32l6.96,12.06l-12.08,6.98l-6.96-12.06L221.01,105.32 M607.7,208.93l6.97,12.08l-12.06,6.96l-6.98-12.08L607.7,208.93
		 M112.3,208.93l12.06,6.96l-6.98,12.08l-12.06-6.96L112.3,208.93 M652.37,350.7v18.6h-18.57v-18.6H652.37 M86.19,350.7v18.6H67.63
		v-18.6H86.19 M602.62,492.02l12.06,6.96l-6.97,12.08l-12.06-6.96L602.62,492.02 M117.38,492.02l6.98,12.08l-12.06,6.96l-6.97-12.08
		L117.38,492.02 M504.1,595.65l6.96,12.06l-12.08,6.97l-6.96-12.06L504.1,595.65 M215.9,595.65l12.08,6.98l-6.96,12.06l-12.08-6.97
		L215.9,595.65 M369.3,633.81v18.57h-18.6v-18.57H369.3 M372.3,64.63h-3h-18.6h-3v3v18.57v3h3h18.6h3v-3V67.63V64.63L372.3,64.63z
		 M497.89,101.22l-1.5,2.6l-6.96,12.06l-1.5,2.6l2.6,1.5l12.08,6.98l2.6,1.5l1.5-2.6l6.96-12.06l1.5-2.6l-2.6-1.5l-12.08-6.97
		L497.89,101.22L497.89,101.22z M222.11,101.22l-2.6,1.5l-12.08,6.97l-2.6,1.5l1.5,2.6l6.96,12.06l1.5,2.6l2.6-1.5l12.08-6.98
		l2.6-1.5l-1.5-2.6l-6.96-12.06L222.11,101.22L222.11,101.22z M608.8,204.84l-2.6,1.5l-12.06,6.96l-2.6,1.5l1.5,2.6l6.98,12.08
		l1.5,2.6l2.6-1.5l12.06-6.96l2.6-1.5l-1.5-2.6l-6.97-12.08L608.8,204.84L608.8,204.84z M111.2,204.84l-1.5,2.6l-6.97,12.08
		l-1.5,2.6l2.6,1.5l12.06,6.96l2.6,1.5l1.5-2.6l6.98-12.08l1.5-2.6l-2.6-1.5l-12.06-6.96L111.2,204.84L111.2,204.84z M655.37,347.7
		h-3h-18.57h-3v3v18.6v3h3h18.57h3v-3v-18.6V347.7L655.37,347.7z M89.19,347.7h-3H67.63h-3v3v18.6v3h3h18.57h3v-3v-18.6V347.7
		L89.19,347.7z M601.52,487.92l-1.5,2.6l-6.98,12.08l-1.5,2.6l2.6,1.5l12.06,6.96l2.6,1.5l1.5-2.6l6.97-12.08l1.5-2.6l-2.6-1.5
		l-12.06-6.96L601.52,487.92L601.52,487.92z M118.48,487.92l-2.6,1.5l-12.06,6.96l-2.6,1.5l1.5,2.6l6.97,12.08l1.5,2.6l2.6-1.5
		l12.06-6.96l2.6-1.5l-1.5-2.6l-6.98-12.08L118.48,487.92L118.48,487.92z M505.2,591.55l-2.6,1.5l-12.08,6.98l-2.6,1.5l1.5,2.6
		l6.96,12.06l1.5,2.6l2.6-1.5l12.08-6.97l2.6-1.5l-1.5-2.6l-6.96-12.06L505.2,591.55L505.2,591.55z M214.8,591.55l-1.5,2.6
		l-6.96,12.06l-1.5,2.6l2.6,1.5l12.08,6.97l2.6,1.5l1.5-2.6l6.96-12.06l1.5-2.6l-2.6-1.5l-12.08-6.98L214.8,591.55L214.8,591.55z
		 M372.3,630.81h-3h-18.6h-3v3v18.57v3h3h18.6h3v-3v-18.57V630.81L372.3,630.81z"/>
</g>
<g id="Drop_1_13_">
	<path class="st1" d="M369.3,67.63v18.57h-18.6V67.63H369.3 M498.99,105.32l12.08,6.97l-6.96,12.06l-12.08-6.97L498.99,105.32
		 M221.02,105.32l6.96,12.06l-12.08,6.97l-6.96-12.06L221.02,105.32 M607.7,208.93l6.97,12.08l-12.06,6.96l-6.98-12.08L607.7,208.93
		 M112.3,208.93l12.06,6.96l-6.97,12.08l-12.06-6.96L112.3,208.93 M652.37,350.7v18.6h-18.57v-18.6H652.37 M86.19,350.7v18.6H67.63
		v-18.6H86.19 M602.62,492.02l12.06,6.96l-6.97,12.08l-12.06-6.96L602.62,492.02 M117.38,492.02l6.97,12.08l-12.06,6.96l-6.97-12.08
		L117.38,492.02 M504.1,595.65l6.96,12.06l-12.08,6.97l-6.96-12.06L504.1,595.65 M215.9,595.65l12.08,6.98l-6.96,12.06l-12.08-6.97
		L215.9,595.65 M369.3,633.81v18.57h-18.6v-18.57H369.3 M370.8,66.13h-1.5h-18.6h-1.5v1.5v18.57v1.5h1.5h18.6h1.5v-1.5V67.63V66.13
		L370.8,66.13z M221.56,103.27l-1.3,0.75L208.18,111l-1.3,0.75l0.75,1.3l6.96,12.06l0.75,1.3l1.3-0.75l12.08-6.97l1.3-0.75
		l-0.75-1.3l-6.96-12.06L221.56,103.27L221.56,103.27z M498.44,103.27l-0.75,1.3l-6.96,12.06l-0.75,1.3l1.3,0.75l12.08,6.97
		l1.3,0.75l0.75-1.3l6.96-12.06l0.75-1.3l-1.3-0.75l-12.08-6.97L498.44,103.27L498.44,103.27z M608.25,206.89l-1.3,0.75l-12.06,6.96
		l-1.3,0.75l0.75,1.3l6.98,12.08l0.75,1.3l1.3-0.75l12.06-6.96l1.3-0.75l-0.75-1.3L609,208.18L608.25,206.89L608.25,206.89z
		 M111.75,206.89l-0.75,1.3l-6.97,12.08l-0.75,1.3l1.3,0.75l12.06,6.96l1.3,0.75l0.75-1.3l6.97-12.08l0.75-1.3l-1.3-0.75
		l-12.06-6.96L111.75,206.89L111.75,206.89z M653.87,349.2h-1.5h-18.57h-1.5v1.5v18.6v1.5h1.5h18.57h1.5v-1.5v-18.6V349.2
		L653.87,349.2z M87.69,349.2h-1.5H67.63h-1.5v1.5v18.6v1.5h1.5h18.57h1.5v-1.5v-18.6V349.2L87.69,349.2z M602.07,489.97l-0.75,1.3
		l-6.98,12.08l-0.75,1.3l1.3,0.75l12.06,6.96l1.3,0.75l0.75-1.3l6.97-12.08l0.75-1.3l-1.3-0.75l-12.06-6.96L602.07,489.97
		L602.07,489.97z M117.93,489.97l-1.3,0.75l-12.06,6.96l-1.3,0.75l0.75,1.3l6.97,12.08l0.75,1.3l1.3-0.75l12.06-6.96l1.3-0.75
		l-0.75-1.3l-6.97-12.08L117.93,489.97L117.93,489.97z M215.35,593.6l-0.75,1.3l-6.96,12.06l-0.75,1.3l1.3,0.75l12.08,6.97l1.3,0.75
		l0.75-1.3l6.96-12.06l0.75-1.3l-1.3-0.75l-12.08-6.98L215.35,593.6L215.35,593.6z M504.65,593.6l-1.3,0.75l-12.08,6.98l-1.3,0.75
		l0.75,1.3l6.96,12.06l0.75,1.3l1.3-0.75l12.08-6.97l1.3-0.75l-0.75-1.3l-6.96-12.06L504.65,593.6L504.65,593.6z M370.8,632.31h-1.5
		h-18.6h-1.5v1.5v18.57v1.5h1.5h18.6h1.5v-1.5v-18.57V632.31L370.8,632.31z"/>
</g>
<path id="Base_18_" class="st2" d="M221.02,105.32l6.96,12.06l-12.08,6.98l-6.96-12.06L221.02,105.32z M105.32,221.02l12.06,6.96
	l6.98-12.08l-12.06-6.96L105.32,221.02z M86.19,350.7H67.63v18.6h18.57V350.7z M105.32,498.99l6.97,12.08l12.06-6.96l-6.98-12.08
	L105.32,498.99z M208.93,607.7l12.08,6.97l6.96-12.06l-12.08-6.98L208.93,607.7z M350.7,633.81v18.57h18.6v-18.57H350.7z
	 M492.02,602.62l6.96,12.06l12.08-6.97l-6.96-12.06L492.02,602.62z M595.65,504.1l12.06,6.96l6.97-12.08l-12.06-6.96L595.65,504.1z
	 M652.37,350.7h-18.57v18.6h18.57V350.7z M607.7,208.93l-12.06,6.96l6.98,12.08l12.06-6.96L607.7,208.93z M492.02,117.38l12.08,6.98
	l6.96-12.06l-12.08-6.97L492.02,117.38z M350.7,86.19h18.6V67.63h-18.6V86.19z"/>
</svg>
