<?xml version="1.0" encoding="utf-8"?>
<!-- Generator: Adobe Illustrator 20.0.0, SVG Export Plug-In . SVG Version: 6.00 Build 0)  -->
<svg version="1.1" id="Rounded_1_" xmlns="http://www.w3.org/2000/svg" xmlns:xlink="http://www.w3.org/1999/xlink" x="0px" y="0px"
	 viewBox="0 0 720 720" style="enable-background:new 0 0 720 720;" xml:space="preserve">
<style type="text/css">
	.st0{fill:#F2F2F3;}
	.st1{fill:#E6E6E6;}
	.st2{fill:#C8C8C8;}
</style>
<g id="Drop_2_8_">
	<path class="st0" d="M362.34,67.63c3.85,0,6.96,3.12,6.96,6.96v4.64c0,3.85-3.12,6.96-6.96,6.96h-4.68c-3.85,0-6.96-3.12-6.96-6.96
		v-4.64c0-3.85,3.12-6.96,6.96-6.96H362.34 M501.54,107.87c1.18,0,2.38,0.3,3.47,0.93l0.02,0.01c3.33,1.92,4.47,6.18,2.55,9.51l0,0
		c-1.29,2.23-3.63,3.48-6.04,3.48c-1.18,0-2.38-0.3-3.47-0.93l-0.02-0.01c-3.33-1.92-4.47-6.18-2.55-9.51l0,0
		C496.79,109.12,499.13,107.87,501.54,107.87 M218.46,107.87c2.41,0,4.75,1.25,6.04,3.48c1.92,3.33,0.78,7.59-2.55,9.51l-0.02,0.01
		c-1.1,0.63-2.29,0.93-3.47,0.93c-2.41,0-4.75-1.25-6.04-3.48c-1.92-3.33-0.78-7.59,2.55-9.51l0.02-0.01
		C216.08,108.17,217.28,107.87,218.46,107.87 M605.15,211.48c2.41,0,4.75,1.25,6.04,3.48l0.01,0.02c1.92,3.33,0.78,7.59-2.55,9.51
		c-1.1,0.63-2.29,0.93-3.47,0.93c-2.41,0-4.75-1.25-6.04-3.48l-0.01-0.02c-1.92-3.33-0.78-7.59,2.55-9.51
		C602.77,211.78,603.97,211.48,605.15,211.48 M114.85,211.48c1.18,0,2.38,0.3,3.47,0.93c3.33,1.92,4.47,6.18,2.55,9.51l-0.01,0.02
		c-1.29,2.23-3.63,3.48-6.04,3.48c-1.18,0-2.38-0.3-3.47-0.93c-3.33-1.92-4.47-6.18-2.55-9.51l0.01-0.02
		C110.1,212.73,112.44,211.48,114.85,211.48 M645.41,350.7c3.85,0,6.96,3.12,6.96,6.96v4.68c0,3.85-3.12,6.96-6.96,6.96h-4.64
		c-3.85,0-6.96-3.12-6.96-6.96v-4.68c0-3.85,3.12-6.96,6.96-6.96H645.41 M79.23,350.7c3.85,0,6.96,3.12,6.96,6.96v4.68
		c0,3.85-3.12,6.96-6.96,6.96h-4.64c-3.85,0-6.96-3.12-6.96-6.96v-4.68c0-3.85,3.12-6.96,6.96-6.96H79.23 M605.17,494.57
		c1.18,0,2.38,0.3,3.47,0.93l0,0c3.33,1.92,4.47,6.18,2.55,9.51l-0.01,0.02c-1.29,2.23-3.63,3.48-6.04,3.48
		c-1.18,0-2.38-0.3-3.47-0.93l0,0c-3.33-1.92-4.47-6.18-2.55-9.51l0.01-0.02C600.43,495.82,602.77,494.57,605.17,494.57
		 M114.83,494.57c2.41,0,4.75,1.25,6.04,3.48l0.01,0.02c1.92,3.33,0.78,7.59-2.55,9.51l0,0c-1.1,0.63-2.29,0.93-3.47,0.93
		c-2.41,0-4.75-1.25-6.04-3.48l-0.01-0.02c-1.92-3.33-0.78-7.59,2.55-9.51l0,0C112.45,494.87,113.64,494.57,114.83,494.57
		 M501.55,598.19c2.41,0,4.75,1.25,6.04,3.48l0,0c1.92,3.33,0.78,7.59-2.55,9.51l-0.02,0.01c-1.1,0.63-2.29,0.93-3.47,0.93
		c-2.41,0-4.75-1.25-6.04-3.48l0,0c-1.92-3.33-0.78-7.59,2.55-9.51l0.02-0.01C499.17,598.49,500.37,598.19,501.55,598.19
		 M218.45,598.19c1.18,0,2.38,0.3,3.47,0.93l0.02,0.01c3.33,1.92,4.47,6.18,2.55,9.51c-1.29,2.23-3.63,3.48-6.04,3.48
		c-1.18,0-2.38-0.3-3.47-0.93l-0.02-0.01c-3.33-1.92-4.47-6.18-2.55-9.51C213.7,599.44,216.04,598.19,218.45,598.19 M362.34,633.81
		c3.85,0,6.96,3.12,6.96,6.96v4.64c0,3.85-3.12,6.96-6.96,6.96h-4.68c-3.85,0-6.96-3.12-6.96-6.96v-4.64c0-3.85,3.12-6.96,6.96-6.96
		H362.34 M362.34,64.63h-4.68c-5.49,0-9.96,4.47-9.96,9.96v4.64c0,5.49,4.47,9.96,9.96,9.96h4.68c5.49,0,9.96-4.47,9.96-9.96v-4.64
		C372.3,69.1,367.83,64.63,362.34,64.63L362.34,64.63z M501.54,104.87c-3.55,0-6.86,1.91-8.63,4.98c-1.33,2.3-1.68,4.99-1,7.56
		c0.69,2.57,2.34,4.72,4.64,6.05c1.54,0.89,3.26,1.35,5,1.35c3.55,0,6.86-1.91,8.63-4.98c2.75-4.76,1.11-10.86-3.65-13.61
		C505,105.33,503.28,104.87,501.54,104.87L501.54,104.87z M218.46,104.87L218.46,104.87c-1.74,0-3.46,0.46-4.98,1.34
		c-4.78,2.76-6.41,8.86-3.67,13.62c1.77,3.07,5.08,4.98,8.63,4.98c1.74,0,3.46-0.46,4.97-1.34c4.78-2.76,6.41-8.86,3.67-13.62
		C225.32,106.78,222.01,104.87,218.46,104.87L218.46,104.87z M605.15,208.48c-1.74,0-3.46,0.46-4.97,1.34
		c-2.3,1.33-3.95,3.48-4.64,6.05c-0.69,2.57-0.34,5.26,1,7.56c1.79,3.1,5.1,5,8.65,5c1.74,0,3.46-0.46,4.97-1.34
		c2.3-1.33,3.95-3.48,4.64-6.05c0.69-2.57,0.34-5.26-1-7.56C612.01,210.39,608.7,208.48,605.15,208.48L605.15,208.48z
		 M114.85,208.48c-3.55,0-6.86,1.91-8.63,4.98c-1.34,2.33-1.7,5.01-1.01,7.58c0.69,2.57,2.34,4.72,4.64,6.05
		c1.51,0.87,3.23,1.34,4.97,1.34c3.55,0,6.86-1.91,8.63-4.98c1.34-2.33,1.7-5.01,1.01-7.58c-0.69-2.57-2.34-4.72-4.64-6.05
		C118.31,208.94,116.59,208.48,114.85,208.48L114.85,208.48z M645.41,347.7h-4.64c-5.49,0-9.96,4.47-9.96,9.96v4.68
		c0,5.49,4.47,9.96,9.96,9.96h4.64c5.49,0,9.96-4.47,9.96-9.96v-4.68C655.37,352.17,650.9,347.7,645.41,347.7L645.41,347.7z
		 M79.23,347.7h-4.64c-5.49,0-9.96,4.47-9.96,9.96v4.68c0,5.49,4.47,9.96,9.96,9.96h4.64c5.49,0,9.96-4.47,9.96-9.96v-4.68
		C89.19,352.17,84.72,347.7,79.23,347.7L79.23,347.7z M605.17,491.57c-3.55,0-6.86,1.91-8.63,4.98c-2.76,4.78-1.12,10.88,3.63,13.63
		c1.51,0.87,3.23,1.34,4.98,1.34c3.55,0,6.86-1.91,8.63-4.98c1.34-2.33,1.7-5.01,1.01-7.58s-2.34-4.72-4.64-6.05
		C608.64,492.03,606.92,491.57,605.17,491.57L605.17,491.57z M114.83,491.57c-1.74,0-3.46,0.46-4.97,1.34
		c-4.76,2.75-6.39,8.85-3.65,13.61c1.79,3.1,5.1,5,8.65,5c1.74,0,3.46-0.46,4.97-1.34c4.76-2.75,6.39-8.85,3.65-13.61
		C121.68,493.48,118.38,491.57,114.83,491.57L114.83,491.57z M501.55,595.19c-1.74,0-3.46,0.46-4.97,1.34
		c-2.33,1.34-3.98,3.49-4.66,6.06c-0.69,2.57-0.34,5.26,1,7.56c1.77,3.07,5.08,4.98,8.63,4.98c1.74,0,3.46-0.46,4.97-1.34
		c2.33-1.34,3.98-3.49,4.66-6.06s0.34-5.26-1-7.56C508.41,597.1,505.1,595.19,501.55,595.19L501.55,595.19z M218.45,595.19
		c-3.55,0-6.86,1.91-8.63,4.98c-2.75,4.76-1.11,10.86,3.65,13.61c1.54,0.89,3.26,1.35,5,1.35c3.55,0,6.86-1.91,8.63-4.98
		c2.75-4.76,1.11-10.86-3.65-13.61C221.91,595.65,220.19,595.19,218.45,595.19L218.45,595.19z M362.34,630.81h-4.68
		c-5.49,0-9.96,4.47-9.96,9.96v4.64c0,5.49,4.47,9.96,9.96,9.96h4.68c5.49,0,9.96-4.47,9.96-9.96v-4.64
		C372.3,635.28,367.83,630.81,362.34,630.81L362.34,630.81z"/>
</g>
<g id="Drop_1_8_">
	<path class="st1" d="M362.34,67.63c3.85,0,6.96,3.12,6.96,6.96v4.64c0,3.85-3.12,6.96-6.96,6.96h-4.68c-3.85,0-6.96-3.12-6.96-6.96
		v-4.64c0-3.85,3.12-6.96,6.96-6.96H362.34 M501.54,107.87c1.18,0,2.38,0.3,3.47,0.93l0.02,0.01c3.33,1.92,4.47,6.18,2.55,9.51l0,0
		c-1.29,2.23-3.63,3.48-6.04,3.48c-1.18,0-2.38-0.3-3.47-0.93l-0.02-0.01c-3.33-1.92-4.47-6.18-2.55-9.51l0,0
		C496.79,109.12,499.13,107.87,501.54,107.87 M218.46,107.87c2.41,0,4.75,1.25,6.04,3.48c1.92,3.33,0.78,7.59-2.55,9.51l-0.02,0.01
		c-1.1,0.63-2.29,0.93-3.47,0.93c-2.41,0-4.75-1.25-6.04-3.48c-1.92-3.33-0.78-7.59,2.55-9.51l0.02-0.01
		C216.08,108.17,217.28,107.87,218.46,107.87 M605.15,211.48c2.41,0,4.75,1.25,6.04,3.48l0.01,0.02c1.92,3.33,0.78,7.59-2.55,9.51
		c-1.1,0.63-2.29,0.93-3.47,0.93c-2.41,0-4.75-1.25-6.04-3.48l-0.01-0.02c-1.92-3.33-0.78-7.59,2.55-9.51
		C602.77,211.78,603.97,211.48,605.15,211.48 M114.85,211.48c1.18,0,2.38,0.3,3.47,0.93c3.33,1.92,4.47,6.18,2.55,9.51l-0.01,0.02
		c-1.29,2.23-3.63,3.48-6.04,3.48c-1.18,0-2.38-0.3-3.47-0.93c-3.33-1.92-4.47-6.18-2.55-9.51l0.01-0.02
		C110.1,212.73,112.44,211.48,114.85,211.48 M645.41,350.7c3.85,0,6.96,3.12,6.96,6.96v4.68c0,3.85-3.12,6.96-6.96,6.96h-4.64
		c-3.85,0-6.96-3.12-6.96-6.96v-4.68c0-3.85,3.12-6.96,6.96-6.96H645.41 M79.23,350.7c3.85,0,6.96,3.12,6.96,6.96v4.68
		c0,3.85-3.12,6.96-6.96,6.96h-4.64c-3.85,0-6.96-3.12-6.96-6.96v-4.68c0-3.85,3.12-6.96,6.96-6.96H79.23 M605.17,494.57
		c1.18,0,2.38,0.3,3.47,0.93l0,0c3.33,1.92,4.47,6.18,2.55,9.51l-0.01,0.02c-1.29,2.23-3.63,3.48-6.04,3.48
		c-1.18,0-2.38-0.3-3.47-0.93l0,0c-3.33-1.92-4.47-6.18-2.55-9.51l0.01-0.02C600.43,495.82,602.77,494.57,605.17,494.57
		 M114.83,494.57c2.41,0,4.75,1.25,6.04,3.48l0.01,0.02c1.92,3.33,0.78,7.59-2.55,9.51l0,0c-1.1,0.63-2.29,0.93-3.47,0.93
		c-2.41,0-4.75-1.25-6.04-3.48l-0.01-0.02c-1.92-3.33-0.78-7.59,2.55-9.51l0,0C112.45,494.87,113.64,494.57,114.83,494.57
		 M501.55,598.19c2.41,0,4.75,1.25,6.04,3.48l0,0c1.92,3.33,0.78,7.59-2.55,9.51l-0.02,0.01c-1.1,0.63-2.29,0.93-3.47,0.93
		c-2.41,0-4.75-1.25-6.04-3.48l0,0c-1.92-3.33-0.78-7.59,2.55-9.51l0.02-0.01C499.17,598.49,500.37,598.19,501.55,598.19
		 M218.45,598.19c1.18,0,2.38,0.3,3.47,0.93l0.02,0.01c3.33,1.92,4.47,6.18,2.55,9.51c-1.29,2.23-3.63,3.48-6.04,3.48
		c-1.18,0-2.38-0.3-3.47-0.93l-0.02-0.01c-3.33-1.92-4.47-6.18-2.55-9.51C213.7,599.44,216.04,598.19,218.45,598.19 M362.34,633.81
		c3.85,0,6.96,3.12,6.96,6.96v4.64c0,3.85-3.12,6.96-6.96,6.96h-4.68c-3.85,0-6.96-3.12-6.96-6.96v-4.64c0-3.85,3.12-6.96,6.96-6.96
		H362.34 M362.34,66.13h-4.68c-4.67,0-8.46,3.8-8.46,8.46v4.64c0,4.67,3.8,8.46,8.46,8.46h4.68c4.67,0,8.46-3.8,8.46-8.46v-4.64
		C370.8,69.92,367,66.13,362.34,66.13L362.34,66.13z M501.54,106.37c-3.02,0-5.83,1.62-7.33,4.23c-1.13,1.96-1.43,4.24-0.85,6.42
		c0.59,2.18,1.99,4.01,3.94,5.14c1.31,0.76,2.77,1.15,4.25,1.15c3.02,0,5.83-1.62,7.33-4.23c1.13-1.96,1.43-4.24,0.85-6.42
		c-0.58-2.18-1.99-4.01-3.94-5.14C504.48,106.76,503.02,106.37,501.54,106.37L501.54,106.37z M218.46,106.37L218.46,106.37
		c-1.48,0-2.94,0.39-4.23,1.13c-4.06,2.35-5.45,7.53-3.12,11.57c1.51,2.61,4.32,4.23,7.34,4.23c1.48,0,2.94-0.39,4.22-1.13
		c4.06-2.35,5.45-7.53,3.12-11.57C224.29,107.99,221.48,106.37,218.46,106.37L218.46,106.37z M605.15,209.98
		c-1.48,0-2.94,0.39-4.22,1.13c-1.96,1.13-3.36,2.96-3.94,5.14c-0.59,2.18-0.28,4.46,0.85,6.42c1.52,2.63,4.33,4.25,7.35,4.25
		c1.48,0,2.94-0.39,4.22-1.13c1.96-1.13,3.36-2.96,3.94-5.14c0.59-2.18,0.28-4.46-0.85-6.42
		C610.98,211.6,608.17,209.98,605.15,209.98L605.15,209.98z M114.85,209.98c-3.02,0-5.83,1.62-7.33,4.23
		c-1.14,1.98-1.44,4.26-0.86,6.44c0.58,2.18,1.99,4.01,3.94,5.14c1.29,0.74,2.75,1.13,4.22,1.13c3.02,0,5.83-1.62,7.33-4.23
		c1.14-1.98,1.44-4.26,0.86-6.44c-0.58-2.18-1.99-4.01-3.94-5.14C117.79,210.37,116.33,209.98,114.85,209.98L114.85,209.98z
		 M645.41,349.2h-4.64c-4.67,0-8.46,3.8-8.46,8.46v4.68c0,4.67,3.8,8.46,8.46,8.46h4.64c4.67,0,8.46-3.8,8.46-8.46v-4.68
		C653.87,353,650.08,349.2,645.41,349.2L645.41,349.2z M79.23,349.2h-4.64c-4.67,0-8.46,3.8-8.46,8.46v4.68
		c0,4.67,3.8,8.46,8.46,8.46h4.64c4.67,0,8.46-3.8,8.46-8.46v-4.68C87.69,353,83.9,349.2,79.23,349.2L79.23,349.2z M605.17,493.07
		c-3.02,0-5.83,1.62-7.34,4.23c-2.35,4.06-0.96,9.25,3.08,11.58c1.29,0.74,2.75,1.14,4.23,1.14c3.02,0,5.83-1.62,7.34-4.23
		c2.35-4.06,0.96-9.25-3.08-11.58C608.11,493.46,606.65,493.07,605.17,493.07L605.17,493.07z M114.83,493.07
		c-1.48,0-2.94,0.39-4.22,1.14c-4.04,2.33-5.43,7.52-3.1,11.56c1.52,2.63,4.33,4.25,7.35,4.25c1.48,0,2.94-0.39,4.22-1.13
		c4.04-2.33,5.43-7.52,3.1-11.56C120.65,494.69,117.84,493.07,114.83,493.07L114.83,493.07z M501.55,596.69
		c-1.48,0-2.94,0.39-4.22,1.13c-1.98,1.14-3.38,2.97-3.96,5.15c-0.58,2.18-0.28,4.46,0.85,6.42c1.51,2.61,4.32,4.23,7.34,4.23
		c1.48,0,2.94-0.39,4.22-1.13c1.98-1.14,3.38-2.97,3.96-5.15c0.58-2.18,0.28-4.46-0.85-6.42
		C507.38,598.31,504.57,596.69,501.55,596.69L501.55,596.69z M218.45,596.69c-3.02,0-5.83,1.62-7.34,4.23
		c-2.33,4.04-0.94,9.23,3.1,11.56c1.31,0.76,2.77,1.15,4.25,1.15c3.02,0,5.83-1.62,7.34-4.23c2.33-4.04,0.94-9.23-3.1-11.56
		C221.39,597.08,219.93,596.69,218.45,596.69L218.45,596.69z M362.34,632.31h-4.68c-4.67,0-8.46,3.8-8.46,8.46v4.64
		c0,4.67,3.8,8.46,8.46,8.46h4.68c4.67,0,8.46-3.8,8.46-8.46v-4.64C370.8,636.1,367,632.31,362.34,632.31L362.34,632.31z"/>
</g>
<path id="Base_15_" class="st2" d="M214.96,108.81l0.02-0.01c3.33-1.92,7.59-0.78,9.51,2.55v0c1.92,3.33,0.78,7.59-2.55,9.51
	l-0.02,0.01c-3.33,1.92-7.59,0.78-9.51-2.55v0C210.49,115,211.63,110.74,214.96,108.81z M111.35,224.5L111.35,224.5
	c3.33,1.92,7.59,0.78,9.51-2.55l0.01-0.02c1.92-3.33,0.78-7.59-2.55-9.51h0c-3.33-1.92-7.59-0.78-9.51,2.55l-0.01,0.02
	C106.88,218.32,108.02,222.57,111.35,224.5z M79.23,350.7h-4.64c-3.85,0-6.96,3.12-6.96,6.96v4.68c0,3.85,3.12,6.96,6.96,6.96h4.64
	c3.85,0,6.96-3.12,6.96-6.96v-4.68C86.19,353.82,83.08,350.7,79.23,350.7z M108.8,505.01l0.01,0.02c1.92,3.33,6.18,4.47,9.51,2.55
	l0,0c3.33-1.92,4.47-6.18,2.55-9.51l-0.01-0.02c-1.92-3.33-6.18-4.47-9.51-2.55l0,0C108.02,497.43,106.88,501.68,108.8,505.01z
	 M214.96,611.19l0.02,0.01c3.33,1.92,7.59,0.78,9.51-2.55l0,0c1.92-3.33,0.78-7.59-2.55-9.51l-0.02-0.01
	c-3.33-1.92-7.59-0.78-9.51,2.55l0,0C210.49,605,211.63,609.26,214.96,611.19z M350.7,640.77v4.64c0,3.85,3.12,6.96,6.96,6.96h4.68
	c3.85,0,6.96-3.12,6.96-6.96v-4.64c0-3.85-3.12-6.96-6.96-6.96h-4.68C353.82,633.81,350.7,636.92,350.7,640.77z M495.5,608.65
	L495.5,608.65c1.92,3.33,6.18,4.47,9.51,2.55l0.02-0.01c3.33-1.92,4.47-6.18,2.55-9.51l0,0c-1.92-3.33-6.18-4.47-9.51-2.55
	l-0.02,0.01C494.72,601.06,493.58,605.32,495.5,608.65z M601.67,507.58L601.67,507.58c3.33,1.92,7.59,0.78,9.51-2.55l0.01-0.02
	c1.92-3.33,0.78-7.59-2.55-9.51l0,0c-3.33-1.92-7.59-0.78-9.51,2.55l-0.01,0.02C597.2,501.4,598.34,505.66,601.67,507.58z
	 M645.41,350.7h-4.64c-3.85,0-6.96,3.12-6.96,6.96v4.68c0,3.85,3.12,6.96,6.96,6.96h4.64c3.85,0,6.96-3.12,6.96-6.96v-4.68
	C652.37,353.82,649.25,350.7,645.41,350.7z M601.67,212.42L601.67,212.42c-3.33,1.92-4.47,6.18-2.55,9.51l0.01,0.02
	c1.92,3.33,6.18,4.47,9.51,2.55l0,0c3.33-1.92,4.47-6.18,2.55-9.51l-0.01-0.02C609.26,211.63,605,210.49,601.67,212.42z
	 M498.05,120.86l0.02,0.01c3.33,1.92,7.59,0.78,9.51-2.55l0,0c1.92-3.33,0.78-7.59-2.55-9.51l-0.02-0.01
	c-3.33-1.92-7.59-0.78-9.51,2.55l0,0C493.58,114.68,494.72,118.94,498.05,120.86z M357.66,86.19h4.68c3.85,0,6.96-3.12,6.96-6.96
	v-4.64c0-3.85-3.12-6.96-6.96-6.96h-4.68c-3.85,0-6.96,3.12-6.96,6.96v4.64C350.7,83.08,353.82,86.19,357.66,86.19z"/>
</svg>
