<?xml version="1.0" encoding="utf-8"?>
<!-- Generator: Adobe Illustrator 20.0.0, SVG Export Plug-In . SVG Version: 6.00 Build 0)  -->
<svg version="1.1" id="Diamond_Cardinals_1_" xmlns="http://www.w3.org/2000/svg" xmlns:xlink="http://www.w3.org/1999/xlink"
	 x="0px" y="0px" viewBox="0 0 720 720" style="enable-background:new 0 0 720 720;" xml:space="preserve">
<style type="text/css">
	.st0{fill:#F2F2F3;}
	.st1{fill:#E6E6E6;}
	.st2{fill:#C8C8C8;}
</style>
<g id="Drop_2_1_">
	<path class="st0" d="M360.01,63.77l13.13,13.13l-13.15,13.15l-13.13-13.13L360.01,63.77 M499,105.32l12.06,6.96l-6.97,12.08
		l-12.06-6.96L499,105.32 M221,105.32l6.98,12.08l-12.06,6.96l-6.98-12.08L221,105.32 M607.72,208.94l6.96,12.06l-12.08,6.98
		l-6.96-12.06L607.72,208.94 M112.28,208.94l12.08,6.98l-6.96,12.06L105.32,221L112.28,208.94 M76.9,346.86l13.15,13.15
		l-13.13,13.13l-13.15-13.15L76.9,346.86 M643.08,346.86l13.15,13.15l-13.13,13.13l-13.15-13.15L643.08,346.86 M602.6,492.03
		l12.08,6.98l-6.96,12.06l-12.08-6.97L602.6,492.03 M117.4,492.03l6.96,12.06l-12.08,6.97L105.32,499L117.4,492.03 M504.09,595.64
		l6.97,12.08L499,614.68l-6.98-12.08L504.09,595.64 M215.91,595.64l12.06,6.96L221,614.68l-12.06-6.96L215.91,595.64 M360.01,629.95
		l13.13,13.13l-13.15,13.15l-13.13-13.13L360.01,629.95 M360.01,59.53l-2.12,2.12L344.74,74.8l-2.12,2.12l2.12,2.12l13.13,13.13
		l2.12,2.12l2.12-2.12l13.15-13.15l2.12-2.12l-2.12-2.12l-13.13-13.13L360.01,59.53L360.01,59.53z M497.9,101.22l-1.5,2.6
		l-6.98,12.08l-1.5,2.6l2.6,1.5l12.06,6.96l2.6,1.5l1.5-2.6l6.97-12.08l1.5-2.6l-2.6-1.5l-12.06-6.96L497.9,101.22L497.9,101.22z
		 M222.1,101.22l-2.6,1.5l-12.06,6.96l-2.6,1.5l1.5,2.6l6.98,12.08l1.5,2.6l2.6-1.5l12.06-6.96l2.6-1.5l-1.5-2.6l-6.98-12.08
		L222.1,101.22L222.1,101.22z M608.82,204.84l-2.6,1.5l-12.08,6.98l-2.6,1.5l1.5,2.6l6.96,12.06l1.5,2.6l2.6-1.5l12.08-6.98l2.6-1.5
		l-1.5-2.6l-6.96-12.06L608.82,204.84L608.82,204.84z M111.18,204.84l-1.5,2.6l-6.96,12.06l-1.5,2.6l2.6,1.5l12.08,6.98l2.6,1.5
		l1.5-2.6l6.96-12.06l1.5-2.6l-2.6-1.5l-12.08-6.98L111.18,204.84L111.18,204.84z M76.9,342.62l-2.12,2.12l-13.13,13.13l-2.12,2.12
		l2.12,2.12l13.15,13.15l2.12,2.12l2.12-2.12l13.13-13.13l2.12-2.12l-2.12-2.12l-13.15-13.15L76.9,342.62L76.9,342.62z
		 M643.08,342.62l-2.12,2.12l-13.13,13.13l-2.12,2.12l2.12,2.12l13.15,13.15l2.12,2.12l2.12-2.12l13.13-13.13l2.12-2.12l-2.12-2.12
		l-13.15-13.15L643.08,342.62L643.08,342.62z M601.51,487.93l-1.5,2.6l-6.96,12.06l-1.5,2.6l2.6,1.5l12.08,6.97l2.6,1.5l1.5-2.6
		l6.96-12.06l1.5-2.6l-2.6-1.5l-12.08-6.98L601.51,487.93L601.51,487.93z M118.49,487.93l-2.6,1.5l-12.08,6.98l-2.6,1.5l1.5,2.6
		l6.96,12.06l1.5,2.6l2.6-1.5l12.08-6.97l2.6-1.5l-1.5-2.6l-6.96-12.06L118.49,487.93L118.49,487.93z M505.18,591.54l-2.6,1.5
		l-12.06,6.96l-2.6,1.5l1.5,2.6l6.98,12.08l1.5,2.6l2.6-1.5l12.06-6.96l2.6-1.5l-1.5-2.6l-6.97-12.08L505.18,591.54L505.18,591.54z
		 M214.82,591.54l-1.5,2.6l-6.98,12.08l-1.5,2.6l2.6,1.5l12.06,6.96l2.6,1.5l1.5-2.6l6.98-12.08l1.5-2.6l-2.6-1.5l-12.06-6.96
		L214.82,591.54L214.82,591.54z M360.01,625.71l-2.12,2.12l-13.15,13.15l-2.12,2.12l2.12,2.12l13.13,13.13l2.12,2.12l2.12-2.12
		l13.15-13.15l2.12-2.12l-2.12-2.12l-13.13-13.13L360.01,625.71L360.01,625.71z"/>
</g>
<g id="Drop_1">
	<path class="st1" d="M360.01,63.77l13.13,13.13l-13.15,13.15l-13.13-13.13L360.01,63.77 M499,105.32l12.06,6.96l-6.98,12.08
		l-12.06-6.96L499,105.32 M221,105.32l6.97,12.08l-12.06,6.96l-6.98-12.08L221,105.32 M607.72,208.94l6.96,12.06l-12.08,6.97
		l-6.96-12.06L607.72,208.94 M112.28,208.94l12.08,6.98l-6.96,12.06L105.32,221L112.28,208.94 M76.9,346.86l13.15,13.15
		l-13.13,13.13l-13.15-13.15L76.9,346.86 M643.08,346.86l13.15,13.15l-13.13,13.13l-13.15-13.15L643.08,346.86 M602.6,492.03
		l12.08,6.98l-6.96,12.06l-12.08-6.98L602.6,492.03 M117.4,492.03l6.96,12.06l-12.08,6.98L105.32,499L117.4,492.03 M504.09,595.64
		l6.98,12.08L499,614.68l-6.98-12.08L504.09,595.64 M215.91,595.64l12.06,6.96L221,614.68l-12.06-6.96L215.91,595.64 M360.01,629.95
		l13.13,13.13l-13.15,13.15l-13.13-13.13L360.01,629.95 M360.01,61.65l-1.06,1.06L345.8,75.86l-1.06,1.06l1.06,1.06l13.13,13.13
		l1.06,1.06l1.06-1.06l13.15-13.15l1.06-1.06l-1.06-1.06l-13.13-13.13L360.01,61.65L360.01,61.65z M498.45,103.27l-0.75,1.3
		l-6.98,12.08l-0.75,1.3l1.3,0.75l12.06,6.96l1.3,0.75l0.75-1.3l6.98-12.08l0.75-1.3l-1.3-0.75l-12.06-6.96L498.45,103.27
		L498.45,103.27z M221.55,103.27l-1.3,0.75l-12.06,6.96l-1.3,0.75l0.75,1.3l6.98,12.08l0.75,1.3l1.3-0.75l12.06-6.96l1.3-0.75
		l-0.75-1.3l-6.98-12.08L221.55,103.27L221.55,103.27z M608.27,206.89l-1.3,0.75l-12.08,6.98l-1.3,0.75l0.75,1.3l6.96,12.06
		l0.75,1.3l1.3-0.75l12.08-6.98l1.3-0.75l-0.75-1.3l-6.96-12.06L608.27,206.89L608.27,206.89z M111.73,206.89l-0.75,1.3l-6.96,12.06
		l-0.75,1.3l1.3,0.75l12.08,6.98l1.3,0.75l0.75-1.3l6.96-12.06l0.75-1.3l-1.3-0.75l-12.08-6.98L111.73,206.89L111.73,206.89z
		 M76.9,344.74l-1.06,1.06l-13.13,13.13l-1.06,1.06l1.06,1.06l13.15,13.15l1.06,1.06l1.06-1.06l13.13-13.13l1.06-1.06l-1.06-1.06
		L77.96,345.8L76.9,344.74L76.9,344.74z M643.08,344.74l-1.06,1.06l-13.13,13.13l-1.06,1.06l1.06,1.06l13.15,13.15l1.06,1.06
		l1.06-1.06l13.13-13.13l1.06-1.06l-1.06-1.06l-13.15-13.15L643.08,344.74L643.08,344.74z M602.05,489.98l-0.75,1.3l-6.96,12.06
		l-0.75,1.3l1.3,0.75l12.08,6.98l1.3,0.75l0.75-1.3l6.96-12.06l0.75-1.3l-1.3-0.75l-12.08-6.98L602.05,489.98L602.05,489.98z
		 M117.95,489.98l-1.3,0.75l-12.08,6.98l-1.3,0.75l0.75,1.3l6.96,12.06l0.75,1.3l1.3-0.75l12.08-6.98l1.3-0.75l-0.75-1.3
		l-6.96-12.06L117.95,489.98L117.95,489.98z M504.64,593.59l-1.3,0.75l-12.06,6.96l-1.3,0.75l0.75,1.3l6.98,12.08l0.75,1.3l1.3-0.75
		l12.06-6.96l1.3-0.75l-0.75-1.3l-6.98-12.08L504.64,593.59L504.64,593.59z M215.36,593.59l-0.75,1.3l-6.98,12.08l-0.75,1.3
		l1.3,0.75l12.06,6.96l1.3,0.75l0.75-1.3l6.98-12.08l0.75-1.3l-1.3-0.75l-12.06-6.96L215.36,593.59L215.36,593.59z M360.01,627.83
		l-1.06,1.06l-13.15,13.15l-1.06,1.06l1.06,1.06l13.13,13.13l1.06,1.06l1.06-1.06l13.15-13.15l1.06-1.06l-1.06-1.06l-13.13-13.13
		L360.01,627.83L360.01,627.83z"/>
</g>
<path id="Diamond_Cardinals" class="st2" d="M208.94,112.28l12.06-6.96l6.98,12.08l-12.06,6.96L208.94,112.28z M117.4,227.97
	l6.96-12.06l-12.08-6.98L105.32,221L117.4,227.97z M76.9,346.86l-13.13,13.13l13.15,13.15l13.13-13.13L76.9,346.86z M112.28,511.06
	l12.08-6.97l-6.96-12.06L105.32,499L112.28,511.06z M221,614.68l6.98-12.08l-12.06-6.96l-6.98,12.08L221,614.68z M346.86,643.1
	l13.13,13.13l13.15-13.15l-13.13-13.13L346.86,643.1z M499,614.68l12.06-6.96l-6.97-12.08l-12.06,6.96L499,614.68z M607.72,511.06
	l6.96-12.06l-12.08-6.98l-6.96,12.06L607.72,511.06z M643.08,346.86l-13.13,13.13l13.15,13.15l13.13-13.13L643.08,346.86z
	 M595.64,215.91l6.96,12.06l12.08-6.98l-6.96-12.06L595.64,215.91z M504.09,124.36l6.97-12.08L499,105.32l-6.98,12.08L504.09,124.36
	z M359.99,90.05l13.15-13.15l-13.13-13.13l-13.15,13.15L359.99,90.05z"/>
</svg>
