<?xml version="1.0" encoding="utf-8"?>
<!-- Generator: Adobe Illustrator 20.0.0, SVG Export Plug-In . SVG Version: 6.00 Build 0)  -->
<svg version="1.1" id="Minute" xmlns="http://www.w3.org/2000/svg" xmlns:xlink="http://www.w3.org/1999/xlink" x="0px" y="0px"
	 viewBox="0 0 720 720" style="enable-background:new 0 0 720 720;" xml:space="preserve">
<style type="text/css">
	.st0{opacity:0.05;}
	.st1{fill:#C8C8C8;}
</style>
<g id="Drop_2_7_" class="st0">
	<path d="M361.58,55.53c1.82,0,3.29,1.47,3.29,3.29v301.12h-10V58.82c0-1.82,1.47-3.29,3.29-3.29H361.58 M361.58,51.53h-3.42
		c-4.02,0-7.29,3.27-7.29,7.29v301.12v4h4h10h4v-4V58.82C368.87,54.8,365.6,51.53,361.58,51.53L361.58,51.53z"/>
</g>
<g id="Drop_1_7_" class="st0">
	<path d="M361.58,55.53c1.82,0,3.29,1.47,3.29,3.29v301.12h-10V58.82c0-1.82,1.47-3.29,3.29-3.29H361.58 M361.58,53.53h-3.42
		c-2.92,0-5.29,2.37-5.29,5.29v301.12v2h2h10h2v-2V58.82C366.87,55.9,364.5,53.53,361.58,53.53L361.58,53.53z"/>
</g>
<path id="Base_14_" class="st1" d="M354.87,58.82v301.12h10V58.82c0-1.82-1.47-3.29-3.29-3.29h-3.42
	C356.35,55.53,354.87,57,354.87,58.82z"/>
</svg>
