<?xml version="1.0" encoding="utf-8"?>
<!-- Generator: Adobe Illustrator 20.0.0, SVG Export Plug-In . SVG Version: 6.00 Build 0)  -->
<svg version="1.1" id="Second" xmlns="http://www.w3.org/2000/svg" xmlns:xlink="http://www.w3.org/1999/xlink" x="0px" y="0px"
	 viewBox="0 0 720 720" style="enable-background:new 0 0 720 720;" xml:space="preserve">
<style type="text/css">
	.st0{opacity:0.05;}
	.st1{fill:#A09F9F;}
	.st2{fill:#414042;}
	.st3{fill:#EEEEEE;}
</style>
<g id="Drop_2_9_" class="st0">
	<path d="M360,55.59c1.38,0,2.5,1.12,2.5,2.5v293.08c1.31,0.37,2.56,1.03,3.65,2c3.77,3.39,4.07,9.2,0.68,12.97
		c-1.2,1.34-2.71,2.23-4.33,2.68v43.92c0,1.38-1.12,2.5-2.5,2.5s-2.5-1.12-2.5-2.5v-43.92c-1.31-0.37-2.56-1.03-3.65-2
		c-3.77-3.39-4.07-9.2-0.68-12.97c1.2-1.34,2.71-2.23,4.33-2.68V58.09C357.5,56.71,358.62,55.59,360,55.59 M360,52.59
		c-3.03,0-5.5,2.47-5.5,5.5v291.04c-1.34,0.67-2.54,1.59-3.56,2.71c-2.18,2.42-3.28,5.54-3.11,8.79s1.6,6.24,4.01,8.42
		c0.81,0.73,1.69,1.33,2.65,1.82v41.88c0,3.03,2.47,5.5,5.5,5.5s5.5-2.47,5.5-5.5v-41.88c1.34-0.67,2.54-1.59,3.56-2.71
		c4.5-4.99,4.09-12.71-0.9-17.21c-0.81-0.73-1.69-1.33-2.65-1.82V58.09C365.5,55.06,363.03,52.59,360,52.59L360,52.59z"/>
</g>
<g id="Drop_1_9_" class="st0">
	<path d="M360,55.59c1.38,0,2.5,1.12,2.5,2.5v293.08c1.31,0.37,2.56,1.03,3.65,2c3.77,3.39,4.07,9.2,0.68,12.97
		c-1.2,1.34-2.71,2.23-4.33,2.68v43.92c0,1.38-1.12,2.5-2.5,2.5s-2.5-1.12-2.5-2.5v-43.92c-1.31-0.37-2.56-1.03-3.65-2
		c-3.77-3.39-4.07-9.2-0.68-12.97c1.2-1.34,2.71-2.23,4.33-2.68V58.09C357.5,56.71,358.62,55.59,360,55.59 M360,54.09
		c-2.21,0-4,1.79-4,4v292c-1.51,0.6-2.85,1.54-3.94,2.75c-1.91,2.12-2.88,4.86-2.73,7.71c0.15,2.85,1.4,5.47,3.52,7.38
		c0.93,0.84,1.99,1.5,3.15,1.96v42.85c0,2.21,1.79,4,4,4s4-1.79,4-4V369.9c1.51-0.6,2.85-1.54,3.94-2.75
		c1.91-2.12,2.88-4.86,2.73-7.71c-0.15-2.85-1.4-5.47-3.52-7.38c-0.93-0.84-1.99-1.5-3.15-1.96v-292
		C364,55.89,362.21,54.09,360,54.09L360,54.09z"/>
</g>
<path id="Base_5_" class="st1" d="M366.15,353.17c-1.08-0.97-2.33-1.63-3.65-2V58.09c0-1.38-1.12-2.5-2.5-2.5s-2.5,1.12-2.5,2.5
	v293.08c-1.61,0.45-3.12,1.35-4.33,2.68c-3.39,3.77-3.09,9.58,0.68,12.97c1.08,0.97,2.33,1.63,3.65,2v43.92c0,1.38,1.12,2.5,2.5,2.5
	s2.5-1.12,2.5-2.5v-43.92c1.61-0.45,3.12-1.35,4.33-2.68C370.22,362.38,369.92,356.57,366.15,353.17z"/>
<ellipse id="Center" transform="matrix(0.6691 -0.7431 0.7431 0.6691 -148.4192 386.6451)" class="st2" cx="360" cy="360" rx="5.34" ry="5.34"/>
<g id="highlight">
	<path class="st3" d="M360,354.66c1.27,0,2.55,0.45,3.57,1.37c2.19,1.97,2.37,5.35,0.4,7.55c-1.06,1.17-2.51,1.77-3.97,1.77
		c-1.27,0-2.55-0.45-3.57-1.37c-2.19-1.97-2.37-5.35-0.4-7.55C357.08,355.25,358.54,354.66,360,354.66 M360,353.66
		c-1.8,0-3.52,0.77-4.72,2.1c-1.13,1.26-1.71,2.88-1.62,4.58c0.09,1.69,0.83,3.25,2.09,4.38c1.17,1.05,2.67,1.63,4.24,1.63
		c1.8,0,3.52-0.77,4.72-2.1c1.13-1.26,1.71-2.88,1.62-4.58c-0.09-1.69-0.83-3.25-2.09-4.38C363.08,354.23,361.57,353.66,360,353.66
		L360,353.66z"/>
</g>
</svg>
