<?xml version="1.0" encoding="utf-8"?>
<!-- Generator: Adobe Illustrator 19.2.1, SVG Export Plug-In . SVG Version: 6.00 Build 0)  -->
<svg version="1.1" id="BG" xmlns="http://www.w3.org/2000/svg" xmlns:xlink="http://www.w3.org/1999/xlink" x="0px" y="0px"
	 viewBox="0 0 622 622" style="enable-background:new 0 0 622 622;" xml:space="preserve">
<style type="text/css">
	.st0{fill:#DDDCDC;}
	.st1{fill:#A21F2A;}
	.st2{fill:#323232;}
	.st3{fill:none;stroke:#323232;stroke-width:1.4;stroke-miterlimit:10;}
	.st4{fill:none;stroke:#323232;stroke-width:2;stroke-miterlimit:10;}
	.st5{opacity:0.1;}
</style>
<g id="Face_122_">
	<circle cx="311" cy="311" r="311.25"/>
</g>
<g id="Face_1_">
	<circle class="st0" cx="311" cy="311" r="306"/>
</g>
<path id="Numbers_1_" class="st1" d="M305.42,14.95c-1.72,0-3.23,0.71-4.16,1.79c-0.74-1.81-1.17-5.02,1.61-6.97
	c0.72-0.5,2.81-1.17,4.42,0.22c-0.59,0.19-1.03,0.72-1.03,1.38c0,0.81,0.65,1.46,1.46,1.46c0.65,0,1.18-0.43,1.37-1.01
	c0.17-0.36,0.11-1-0.04-1.36c-0.17-0.42-0.72-1.02-1.06-1.25c-4.47-3-9.93,2.01-9.93,6.3c0,3.58,1.87,6.01,4.5,7.17
	c0.82,0.46,1.8,0.72,2.86,0.72c2.82,0,5.11-1.89,5.11-4.22S308.24,14.95,305.42,14.95z M305.05,22.42c-1.79,0-3.24-1.36-3.24-3.04
	c0-1.68,1.45-3.04,3.24-3.04c1.79,0,3.24,1.36,3.24,3.04C308.29,21.06,306.84,22.42,305.05,22.42z M317.78,8.26
	c-3.38,0-6.13,3.39-6.13,7.57s2.74,7.57,6.13,7.57c3.38,0,6.13-3.39,6.13-7.57S321.16,8.26,317.78,8.26z M317.78,22.62
	c-2.75,0-3.44-3.04-3.44-6.79c0-3.75,1.01-6.79,3.44-6.79c2.41,0,3.44,3.04,3.44,6.79C321.22,19.58,320.15,22.62,317.78,22.62z
	 M166.45,44.87c0.67-0.51,1.79,1.86,3.88,1.11c1.13-0.41,2.03-1.86,2.7-2.76c0.57-0.76,1.04,0.1,0.86,0.66
	c-0.66,2.01-2.07,4.04-3.05,4.49c-0.66,0.3-1.93,0.81-3.01,0.19c0.14,1.14,0.22,1.81,0.31,2.57c1.09-1.4,3.55-2.09,4.9-2
	c1.15,0.07,2.41,0.42,3.3,2.04c1.16,2.1-0.92,5.84-3.66,7.54c-1.56,0.97-4.62,1.69-6.54,0.72c-0.73-0.37-0.64-1.43,0.1-1.09
	c1.48,0.69,3.13,0.96,5.45-0.48c1.05-0.66,2.56-2.8,1.99-4.58c-0.27-0.83-1.58-2.06-2.78-1.91c-0.81,0.1-1.9,0.88-2.18,1.65
	c-0.35,0.96-0.07,2.71,0.07,3.49c0.19,1.02-0.91,0.94-1.12,0.52C167.28,53.42,166.7,48.94,166.45,44.87z M154.43,51.82
	c0.67-0.51,1.79,1.86,3.88,1.11c1.13-0.41,2.03-1.86,2.7-2.76c0.57-0.76,1.04,0.1,0.86,0.66c-0.66,2.01-2.07,4.04-3.05,4.49
	c-0.66,0.3-1.93,0.81-3.01,0.19c0.14,1.14,0.22,1.81,0.31,2.57c1.09-1.4,3.55-2.09,4.9-2c1.15,0.07,2.41,0.42,3.3,2.04
	c1.16,2.1-0.92,5.84-3.66,7.54c-1.56,0.97-4.62,1.69-6.54,0.72c-0.73-0.37-0.64-1.43,0.1-1.09c1.48,0.69,3.13,0.96,5.45-0.48
	c1.05-0.66,2.56-2.8,1.99-4.58c-0.27-0.83-1.58-2.06-2.78-1.91c-0.81,0.1-1.9,0.88-2.18,1.65c-0.35,0.96-0.07,2.71,0.07,3.49
	c0.19,1.02-0.91,0.94-1.12,0.52C155.25,60.37,154.67,55.89,154.43,51.82z M45.9,164.71c0.32-0.78,2.48,0.71,3.91-0.98
	c0.78-0.92,0.83-2.63,0.96-3.74c0.11-0.95,0.95-0.44,1.07,0.14c0.44,2.07,0.23,4.53-0.4,5.41c-0.43,0.59-1.27,1.66-2.51,1.67
	c0.69,0.91,1.1,1.46,1.55,2.07c0.25-1.76,2.03-3.58,3.24-4.18c1.03-0.51,2.3-0.84,3.88,0.11c2.05,1.24,2.12,5.52,0.6,8.36
	c-0.87,1.62-3.16,3.77-5.31,3.9c-0.81,0.05-1.27-0.92-0.46-0.99c1.62-0.14,3.19-0.74,4.48-3.14c0.58-1.09,0.82-3.7-0.57-4.95
	c-0.64-0.58-2.4-0.99-3.36-0.27c-0.65,0.5-1.21,1.72-1.07,2.52c0.18,1.01,1.29,2.38,1.81,2.99c0.67,0.79-0.32,1.26-0.71,1.02
	C50.89,171.71,48.15,168.12,45.9,164.71z M52.52,153.19c-1.69,2.93-0.13,7,3.49,9.09s7.93,1.41,9.62-1.52
	c1.69-2.93,0.13-7-3.49-9.09S54.21,150.26,52.52,153.19z M64.95,160.37c-1.38,2.38-4.35,1.46-7.6-0.42
	c-3.25-1.88-5.38-4.27-4.16-6.37c1.2-2.09,4.35-1.46,7.6,0.42C64.04,155.87,66.14,158.32,64.95,160.37z M613.72,316.05
	c0.11,0.83-2.5,0.63-2.9,2.81c-0.21,1.18,0.6,2.69,1.04,3.72c0.38,0.88-0.6,0.85-1,0.41c-1.41-1.57-2.47-3.81-2.36-4.88
	c0.07-0.73,0.27-2.08,1.34-2.7c-1.06-0.45-1.68-0.72-2.38-1.02c0.66,1.65,0.04,4.11-0.72,5.24c-0.64,0.96-1.57,1.88-3.42,1.84
	c-2.4-0.05-4.6-3.72-4.7-6.94c-0.06-1.84,0.85-4.84,2.65-6.03c0.68-0.45,1.56,0.16,0.89,0.63c-1.33,0.94-2.4,2.24-2.31,4.96
	c0.04,1.24,1.14,3.61,2.97,4.01c0.85,0.18,2.58-0.34,3.04-1.45c0.32-0.76,0.19-2.09-0.34-2.72c-0.66-0.78-2.31-1.41-3.06-1.68
	c-0.98-0.35-0.36-1.25,0.11-1.23C605.9,312.49,610.07,314.22,613.72,316.05z M598.93,309.88c-0.17,0-0.31-0.14-0.31-0.31v-9.73
	c0-0.17,0.14-0.31,0.31-0.31s0.31,0.14,0.31,0.31v3.03h10.87c-0.8-1.1-1.39-2.36-1.53-3.65c0-0.02,0-0.04,0-0.05
	c0-0.24,0.18-0.44,0.42-0.47c0.26-0.03,0.49,0.16,0.52,0.41c0.26,2.3,2.25,4.63,3.99,5.66c0.02,0.01,0.04,0.04,0.06,0.05l0.02,0.01
	c0.01,0,0.01,0.01,0.01,0.02c0.11,0.11,0.16,0.26,0.13,0.41c-0.01,0.2-0.11,0.39-0.31,0.39h-14.17v3.9
	C599.24,309.74,599.1,309.88,598.93,309.88z M565.9,457.1c-1.68-1.48-2.41-2.06-3.91-1.92c-0.47,0.04-1.79-1.06-1.38-1.31
	c3.71-2.37,3.92-5.33,4.51-7.58c0.14-0.54,1.07-1.1,1.23-0.58c0.66,2.14,2.71,9.67,4.63,10.78c1.37,0.79,4.06,0.58,5.04-1.11
	c1.85-3.2-0.55-4.58-1.84-4.9c-2.17-0.54-3.23,1.21-2.12,2.24c0.64,0.59,1.41,0.84,2.44,0.78c0.18-0.01,0.43,0.45,0.3,0.58
	c-0.66,0.65-2.44,0.17-3.67-0.88c-0.78-0.67-1.25-2.45,0.32-4c0.87-0.86,3.22-1.27,4.66-0.03c1.36,1.16,2.77,3.28,0.88,6.56
	c-1.15,1.99-3.18,3.64-5.4,3.2c-1.08-0.21-1.9-1.1-2.54-2.52c-1.07-2.36-2.18-4.98-3.03-6.93c0.11,1.42-0.79,3.18-1.89,4.24
	c-0.34,0.33,1.58,1.78,2.11,2.51C566.66,456.82,566.19,457.36,565.9,457.1z M569.73,468.29c1.69-2.93,0.13-7-3.49-9.09
	c-3.62-2.09-7.93-1.41-9.62,1.52c-1.69,2.93-0.13,7,3.49,9.09C563.73,471.9,568.04,471.22,569.73,468.29z M557.29,461.11
	c1.38-2.38,4.35-1.46,7.6,0.42c3.25,1.88,5.38,4.27,4.16,6.37c-1.2,2.09-4.35,1.46-7.6-0.42
	C558.21,465.61,556.11,463.16,557.29,461.11z M456.59,576.48c-0.67,0.51-1.79-1.86-3.88-1.11c-1.13,0.41-2.03,1.86-2.7,2.76
	c-0.57,0.76-1.04-0.1-0.86-0.66c0.66-2.01,2.07-4.04,3.05-4.49c0.66-0.3,1.93-0.81,3.01-0.19c-0.14-1.14-0.22-1.81-0.31-2.57
	c-1.09,1.4-3.55,2.09-4.9,2c-1.15-0.07-2.41-0.42-3.3-2.04c-1.16-2.1,0.92-5.84,3.66-7.54c1.56-0.97,4.62-1.69,6.54-0.72
	c0.73,0.37,0.64,1.43-0.1,1.09c-1.48-0.69-3.13-0.96-5.45,0.48c-1.05,0.66-2.56,2.8-1.99,4.58c0.27,0.83,1.58,2.06,2.78,1.91
	c0.81-0.1,1.9-0.88,2.18-1.65c0.35-0.96,0.07-2.71-0.07-3.49c-0.19-1.02,0.91-0.94,1.12-0.52
	C455.77,567.93,456.35,572.41,456.59,576.48z M459.5,564.54c-0.71-2.13-1.05-2.99-2.43-3.62c-0.43-0.2-1.02-1.81-0.54-1.83
	c4.4-0.19,6.06-2.65,7.69-4.31c0.4-0.4,1.48-0.41,1.36,0.11c-0.5,2.19-2.49,9.73-1.38,11.65c0.79,1.37,3.23,2.53,4.92,1.56
	c3.2-1.85,1.81-4.24,0.86-5.16c-1.61-1.55-3.4-0.56-2.95,0.88c0.26,0.83,0.8,1.43,1.72,1.9c0.16,0.08,0.15,0.6-0.03,0.65
	c-0.89,0.23-2.2-1.07-2.73-2.6c-0.34-0.97,0.15-2.75,2.28-3.3c1.18-0.31,3.42,0.51,4.05,2.3c0.6,1.69,0.76,4.22-2.52,6.12
	c-1.99,1.15-4.57,1.57-6.28,0.07c-0.82-0.72-1.1-1.9-0.94-3.45c0.25-2.58,0.6-5.4,0.84-7.52c-0.62,1.29-2.27,2.36-3.76,2.73
	c-0.46,0.11,0.48,2.33,0.57,3.23C460.3,564.68,459.62,564.91,459.5,564.54z M317.94,599.87c-2.52,0.38-3.21,2.11-3.15,3.04
	c0.05,0.8,0.84,2.48,1.59,2.64c0.81,0.17,1.68-1.54,2.62-2.78c0.23-0.31,0.89,0.3,0.8,0.75c-1.01,1.52-3.43,4.67-4.74,6.33
	c1.77-1.35,3.82-0.58,5.06-1.49c0.62-0.45,1.49-2.77,2.61-4.04c0.27-0.31,0.73,0.17,0.79,0.47c-1.94,2.48-1.51,4.59-1.71,6.89
	c-0.02,0.28-0.39,0.62-0.66,0.53c-2.23-0.74-5.16-1.62-8.97,1.46c-0.12,0.12-0.19,0.06-0.19-0.01c0.01-0.48,0.06-1.86,0.15-1.96
	c2.29-2.64,0.57-0.76,4.25-4.98c-3.88,1.31-4.7-0.87-4.84-2.32c-0.12-1.19,0.6-5.4,6.1-5.77c3.11-0.21,5.09,1.11,6.26,3.16
	c0.07,0.12-0.23,0.52-0.54,0.4C321.78,600.93,320.97,599.4,317.94,599.87z M304.17,613.74c3.38,0,6.13-3.39,6.13-7.57
	c0-4.18-2.74-7.57-6.13-7.57c-3.38,0-6.13,3.39-6.13,7.57C298.04,610.35,300.79,613.74,304.17,613.74z M304.17,599.38
	c2.75,0,3.44,3.04,3.44,6.79c0,3.75-1.01,6.79-3.44,6.79c-2.41,0-3.44-3.04-3.44-6.79C300.73,602.42,301.8,599.38,304.17,599.38z
	 M153.72,569.76c-0.78-0.32,0.71-2.48-0.98-3.91c-0.92-0.78-2.63-0.83-3.74-0.96c-0.95-0.11-0.44-0.95,0.14-1.07
	c2.07-0.44,4.53-0.23,5.41,0.4c0.59,0.43,1.66,1.27,1.67,2.51c0.92-0.69,1.46-1.1,2.07-1.55c-1.76-0.25-3.58-2.03-4.18-3.24
	c-0.51-1.03-0.84-2.3,0.11-3.88c1.24-2.05,5.52-2.12,8.36-0.6c1.62,0.87,3.77,3.16,3.9,5.31c0.05,0.81-0.92,1.27-0.99,0.46
	c-0.14-1.62-0.74-3.19-3.14-4.48c-1.09-0.58-3.7-0.82-4.95,0.57c-0.58,0.64-0.99,2.4-0.27,3.36c0.5,0.65,1.72,1.21,2.52,1.07
	c1.01-0.18,2.38-1.29,2.99-1.81c0.79-0.67,1.26,0.32,1.02,0.71C160.71,564.77,157.12,567.51,153.72,569.76z M173.54,565.2
	c-2.37-0.93-3.83,0.23-4.25,1.06c-0.36,0.72-0.51,2.57,0.06,3.08c0.62,0.56,2.22-0.49,3.66-1.1c0.36-0.15,0.62,0.7,0.32,1.05
	c-1.64,0.81-5.31,2.33-7.27,3.11c2.21-0.28,3.6,1.4,5.13,1.24c0.76-0.08,2.67-1.65,4.28-2.19c0.39-0.13,0.55,0.52,0.45,0.8
	c-2.92,1.18-3.6,3.22-4.93,5.11c-0.16,0.23-0.65,0.34-0.83,0.13c-1.57-1.76-3.66-3.98-8.5-3.22c-0.16,0.04-0.2-0.04-0.16-0.1
	c0.25-0.41,0.98-1.58,1.11-1.62c3.3-1.14,0.88-0.37,6.17-2.19c-4.02-0.8-3.63-3.1-3.03-4.43c0.49-1.09,3.22-4.38,8.17-1.95
	c2.8,1.37,3.85,3.51,3.84,5.87c0,0.14-0.46,0.34-0.67,0.08C176.34,568.05,176.39,566.32,173.54,565.2z M8.31,303.63
	c-0.11-0.83,2.5-0.63,2.9-2.81c0.21-1.18-0.6-2.69-1.04-3.72c-0.38-0.88,0.6-0.85,1-0.41c1.41,1.57,2.47,3.81,2.36,4.88
	c-0.07,0.73-0.27,2.08-1.34,2.7c1.06,0.45,1.68,0.72,2.38,1.02c-0.66-1.65-0.04-4.11,0.72-5.24c0.64-0.96,1.57-1.88,3.42-1.84
	c2.4,0.05,4.6,3.72,4.7,6.94c0.06,1.84-0.85,4.84-2.65,6.03c-0.68,0.45-1.56-0.16-0.89-0.63c1.33-0.94,2.4-2.24,2.31-4.96
	c-0.04-1.24-1.14-3.61-2.97-4.01c-0.85-0.18-2.58,0.34-3.04,1.45c-0.32,0.76-0.19,2.09,0.34,2.72c0.66,0.78,2.31,1.41,3.06,1.68
	c0.98,0.35,0.36,1.25-0.11,1.23C16.12,307.19,11.96,305.46,8.31,303.63z M22.77,311.24v4.42c0,0.13-0.11,0.24-0.24,0.24h-4.48
	c-0.12,0-0.22-0.1-0.22-0.22v-2.49c0-0.16,0.13-0.29,0.29-0.29h1.94c0.28,0,0.5-0.22,0.5-0.5s-0.22-0.5-0.5-0.5h-7.28
	c-0.28,0-0.5,0.22-0.5,0.5s0.22,0.5,0.5,0.5h3.77c0.16,0,0.29,0.13,0.29,0.29v2.49c0,0.12-0.1,0.22-0.22,0.22H8.74
	c-0.42,0-0.62,0.5-0.33,0.8l8.76,8.8c0.24,0.24,0.65,0.07,0.65-0.27v-7.1c0-0.12,0.1-0.22,0.22-0.22h4.48
	c0.13,0,0.24,0.11,0.24,0.24v3.57c0,0.18,0.15,0.33,0.33,0.33c0.18,0,0.33-0.15,0.33-0.33v-10.47c0-0.18-0.15-0.33-0.33-0.33
	C22.92,310.9,22.77,311.05,22.77,311.24z M16.52,323.63l-5.3-5.43c-0.11-0.11-0.03-0.3,0.13-0.3h5.26c0.12,0,0.22,0.1,0.22,0.22
	v5.38C16.82,323.66,16.63,323.74,16.52,323.63z M575.98,164.57c-1.69-2.93-6-3.61-9.62-1.52s-5.18,6.16-3.49,9.09
	c1.69,2.93,6,3.61,9.62,1.52S577.67,167.5,575.98,164.57z M563.54,171.75c-1.38-2.38,0.91-4.5,4.16-6.37
	c3.25-1.88,6.39-2.52,7.6-0.42c1.2,2.09-0.91,4.5-4.16,6.37C567.89,173.2,564.73,173.8,563.54,171.75z M559.98,166.51
	c-0.15,0.09-0.34,0.04-0.43-0.11l-4.86-8.42c-0.09-0.15-0.04-0.34,0.11-0.43s0.34-0.04,0.43,0.11l1.52,2.63l9.41-5.44
	c-1.24-0.55-2.39-1.35-3.15-2.39c-0.01-0.01-0.02-0.03-0.03-0.04c-0.12-0.2-0.07-0.47,0.13-0.61c0.21-0.15,0.5-0.11,0.66,0.1
	c1.37,1.86,4.26,2.89,6.29,2.91c0.03,0,0.05,0.01,0.08,0.02l0.02,0c0.01,0,0.01,0.01,0.02,0.01c0.15,0.04,0.26,0.15,0.31,0.29
	c0.09,0.18,0.1,0.39-0.07,0.49l-12.27,7.09l1.95,3.38C560.18,166.23,560.13,166.42,559.98,166.51z M462.54,48.97
	c0.78,0.32-0.71,2.48,0.98,3.91c0.92,0.78,2.63,0.83,3.74,0.96c0.95,0.11,0.44,0.95-0.14,1.07c-2.07,0.44-4.53,0.23-5.41-0.4
	c-0.59-0.43-1.66-1.27-1.67-2.51c-0.92,0.69-1.46,1.1-2.07,1.55c1.76,0.25,3.58,2.03,4.18,3.24c0.51,1.03,0.84,2.3-0.11,3.88
	c-1.24,2.05-5.52,2.12-8.36,0.6c-1.62-0.87-3.77-3.16-3.9-5.31c-0.05-0.81,0.92-1.27,0.99-0.46c0.14,1.62,0.74,3.19,3.14,4.48
	c1.09,0.58,3.7,0.82,4.95-0.57c0.58-0.64,0.99-2.4,0.27-3.36c-0.5-0.65-1.72-1.21-2.52-1.07c-1.01,0.18-2.38,1.29-2.99,1.81
	c-0.79,0.67-1.26-0.32-1.02-0.71C455.55,53.96,459.13,51.21,462.54,48.97z M61.03,454.55l2.21,3.83c0.07,0.12,0.03,0.26-0.09,0.33
	l-3.88,2.24c-0.11,0.06-0.24,0.02-0.3-0.08l-1.25-2.16c-0.08-0.14-0.03-0.31,0.1-0.39l1.68-0.97c0.24-0.14,0.32-0.44,0.18-0.68
	s-0.44-0.32-0.68-0.18l-6.3,3.64c-0.24,0.14-0.32,0.44-0.18,0.68c0.14,0.24,0.44,0.32,0.68,0.18l3.26-1.88
	c0.14-0.08,0.31-0.03,0.39,0.1l1.25,2.16c0.06,0.11,0.02,0.24-0.08,0.3l-6.81,3.93c-0.36,0.21-0.29,0.75,0.11,0.86l11.99,3.24
	c0.33,0.09,0.6-0.26,0.43-0.56l-3.55-6.15c-0.06-0.11-0.02-0.24,0.08-0.3l3.88-2.24c0.12-0.07,0.26-0.03,0.33,0.09l1.78,3.09
	c0.09,0.16,0.3,0.21,0.46,0.12s0.21-0.3,0.12-0.46l-5.24-9.07c-0.09-0.16-0.3-0.21-0.46-0.12
	C60.99,454.19,60.94,454.39,61.03,454.55z M61.81,468.41l-7.31-2.05c-0.15-0.04-0.18-0.25-0.04-0.32l4.56-2.63
	c0.11-0.06,0.24-0.02,0.3,0.08l2.69,4.66C62.09,468.28,61.96,468.45,61.81,468.41z M45.01,455.8c1.69,2.93,6,3.61,9.62,1.52
	c3.62-2.09,5.18-6.16,3.49-9.09c-1.69-2.93-6-3.61-9.62-1.52C44.88,448.8,43.32,452.87,45.01,455.8z M57.45,448.62
	c1.38,2.38-0.91,4.5-4.16,6.37c-3.25,1.88-6.39,2.52-7.6,0.42c-1.2-2.09,0.91-4.5,4.16-6.37C53.09,447.16,56.26,446.57,57.45,448.62
	z"/>
<path id="Text" class="st2" d="M271.13,217.22l-0.62-8.26c-0.13-1.69-0.19-2.79-0.19-3.33c0-1.54,0.22-2.96,0.66-4.26
	c0.44-1.3,1.22-2.69,2.34-4.17c-1.33,0-2.69,0.32-4.07,0.96s-2.39,1.38-3.04,2.21c-0.64,0.83-0.96,1.67-0.96,2.52
	c0,0.39,0.12,0.8,0.35,1.23c0.3,0.55,0.45,0.96,0.45,1.25c0,0.26-0.08,0.47-0.24,0.63c-0.16,0.16-0.36,0.24-0.61,0.24
	c-0.36,0-0.68-0.19-0.95-0.56c-0.34-0.5-0.51-1.12-0.51-1.86c0-1.39,0.52-2.73,1.57-4.02c1.05-1.29,2.48-2.24,4.3-2.85
	c1.17-0.4,2.88-0.67,5.12-0.82c0.6-0.05,1.22-0.1,1.84-0.17c-1.54,2.26-2.54,4.14-3.01,5.65s-0.7,3.56-0.7,6.14
	c0,1.98,0.1,3.8,0.31,5.44l3.29-3.5l2.81-2.87c2.83-2.91,4.73-5.2,5.71-6.87c0.74-1.26,1.11-2.42,1.11-3.45
	c0-0.57-0.13-1.2-0.39-1.88c-0.17-0.43-0.26-0.76-0.26-0.99c0-0.31,0.12-0.58,0.35-0.8c0.23-0.23,0.51-0.34,0.83-0.34
	c0.43,0,0.8,0.22,1.09,0.67c0.3,0.44,0.44,1.14,0.44,2.08c0,0.92-0.19,1.9-0.58,2.93s-1.2,2.34-2.45,3.94
	c-1.24,1.6-3.17,3.71-5.76,6.34C276.65,211.18,273.9,214.11,271.13,217.22z M286.08,206.12l-0.75-0.58
	c1.14-1.25,2.18-2.15,3.12-2.67c0.94-0.53,1.74-0.79,2.4-0.79c0.36,0,0.64,0.08,0.84,0.24c0.19,0.16,0.29,0.38,0.29,0.65
	c0,0.33-0.37,1.73-1.11,4.2c-1.2,4.04-1.81,6.48-1.81,7.31c0,0.16,0.04,0.29,0.12,0.4c0.08,0.11,0.17,0.16,0.26,0.16
	c0.36,0,1.3-0.71,2.8-2.12l0.67,0.65c-1.56,1.47-2.7,2.41-3.42,2.82c-0.72,0.41-1.31,0.62-1.76,0.62c-0.4,0-0.71-0.13-0.95-0.38
	c-0.23-0.25-0.35-0.6-0.35-1.04c0-1.42,0.85-4.9,2.56-10.44c0.08-0.26,0.12-0.5,0.12-0.7c0-0.23-0.1-0.34-0.31-0.34
	c-0.23,0-0.49,0.09-0.78,0.27C287.73,204.56,287.08,205.14,286.08,206.12z M292.79,194.81c0.35,0,0.64,0.12,0.87,0.35
	c0.23,0.23,0.34,0.53,0.34,0.9c0,0.5-0.17,0.94-0.52,1.32c-0.35,0.38-0.74,0.57-1.17,0.57c-0.34,0-0.63-0.12-0.85-0.36
	c-0.23-0.24-0.34-0.55-0.34-0.94c0-0.51,0.16-0.95,0.5-1.31C291.95,194.99,292.34,194.81,292.79,194.81z M301.8,203.78
	c-0.88,1.4-1.48,2.64-1.82,3.71c-0.34,1.07-0.5,2.14-0.5,3.2c0,0.98,0.22,2.51,0.65,4.6c2.52-1.91,4.3-3.71,5.35-5.37
	c1.05-1.67,1.57-3.11,1.57-4.32c0-0.35-0.13-0.8-0.39-1.33c-0.28-0.57-0.43-0.99-0.43-1.26c0-0.3,0.1-0.56,0.31-0.78
	c0.21-0.22,0.45-0.33,0.73-0.33c0.38,0,0.68,0.16,0.91,0.49c0.23,0.33,0.34,0.88,0.34,1.65c0,2.43-0.86,4.79-2.58,7.09
	c-2.11,2.83-4.78,5-8.02,6.53c-0.08-0.54-0.24-1.39-0.48-2.56c-0.47-2.36-0.7-4-0.7-4.92c0-1.22,0.29-2.4,0.86-3.55
	c0.57-1.14,1.41-2.14,2.53-2.98c-2.01,0.03-3.44,0.26-4.31,0.67c-0.62,0.3-0.92,0.64-0.92,1.04c0,0.16,0.08,0.43,0.24,0.8
	c0.1,0.26,0.15,0.48,0.15,0.67c0,0.18-0.08,0.34-0.23,0.49c-0.15,0.14-0.34,0.21-0.57,0.21c-0.3,0-0.55-0.13-0.75-0.38
	c-0.21-0.25-0.31-0.59-0.31-1.01c0-0.67,0.22-1.28,0.67-1.82s1.21-0.97,2.31-1.27s2.54-0.45,4.34-0.43
	c0.73-0.32,1.19-0.48,1.38-0.48c0.18,0,0.35,0.07,0.5,0.22c0.15,0.15,0.22,0.31,0.22,0.48C302.84,203.18,302.5,203.5,301.8,203.78z
	 M320.98,201.87l1.13-0.24l-1.28,4.32c-0.51,1.72-1,3.7-1.45,5.95c-0.25,1.22-0.38,2.01-0.38,2.36c0,0.35,0.14,0.53,0.43,0.53
	c0.18,0,0.47-0.12,0.87-0.36c0.71-0.42,1.38-0.95,2.03-1.57l0.55,0.67c-1.3,1.19-2.13,1.9-2.49,2.15c-0.73,0.5-1.42,0.87-2.09,1.11
	c-0.43,0.16-0.85,0.24-1.26,0.24c-0.3,0-0.52-0.07-0.67-0.21c-0.15-0.14-0.22-0.34-0.22-0.6c0-0.17,0.04-0.4,0.14-0.7l0.68-2.32
	c-0.98,1.17-2.15,2.18-3.5,3.02c-0.83,0.52-1.6,0.79-2.29,0.79c-0.66,0-1.17-0.23-1.52-0.7c-0.48-0.63-0.72-1.45-0.72-2.46
	c0-1.21,0.32-2.55,0.97-4.03c0.64-1.48,1.51-2.83,2.59-4.03c1.08-1.21,2.22-2.1,3.42-2.67c0.92-0.43,2.11-0.65,3.55-0.65
	c0.37,0,0.74,0.02,1.11,0.07L320.98,201.87z M318.86,204.48c-0.62-0.13-1.13-0.19-1.55-0.19c-1.03,0-1.92,0.28-2.68,0.85
	c-0.76,0.56-1.47,1.58-2.13,3.04c-0.66,1.46-0.98,2.93-0.98,4.38c0,0.77,0.13,1.33,0.39,1.67c0.26,0.34,0.6,0.51,1.03,0.51
	c0.79,0,1.63-0.42,2.53-1.27c0.9-0.85,1.56-2.07,1.98-3.67L318.86,204.48z M324.53,206.17l-0.58-0.6c1.46-1.4,2.62-2.32,3.49-2.78
	c0.87-0.46,1.61-0.69,2.22-0.69c0.24,0,0.43,0.05,0.56,0.15s0.21,0.22,0.21,0.36c0,0.1-0.03,0.29-0.09,0.55l-0.77,3.44
	c1.16-1.29,2.62-2.49,4.37-3.61c0.93-0.58,1.7-0.87,2.3-0.87c0.44,0,0.79,0.14,1.04,0.43c0.25,0.29,0.38,0.7,0.38,1.23
	c0,0.35-0.05,0.75-0.15,1.2c-0.18,0.74-0.66,2.35-1.43,4.84c-0.73,2.32-1.09,3.87-1.09,4.63c0,0.23,0.03,0.41,0.1,0.53
	c0.07,0.12,0.17,0.18,0.29,0.18c0.33,0,0.85-0.32,1.56-0.96c0.5-0.46,1-0.88,1.5-1.26l0.43,0.62c-1.05,1.16-2.14,2.09-3.26,2.79
	c-0.72,0.45-1.31,0.68-1.78,0.68c-0.43,0-0.77-0.16-1.01-0.47c-0.24-0.31-0.36-0.82-0.36-1.53c0-1.01,0.63-3.54,1.9-7.57
	c0.39-1.44,0.58-2.27,0.58-2.51c0-0.35-0.21-0.53-0.63-0.53c-0.46,0-1.04,0.24-1.76,0.72c-1.07,0.71-1.97,1.54-2.68,2.5
	c-0.46,0.62-0.84,1.6-1.14,2.94l-1.38,5.97h-2.55c0.48-1.71,0.89-3.35,1.25-4.91l1.52-6.5c0.06-0.26,0.08-0.45,0.08-0.56
	c0-0.31-0.11-0.46-0.34-0.46c-0.18,0-0.44,0.12-0.79,0.36C325.81,204.92,325.15,205.5,324.53,206.17z M344.9,199.53l2.71-1.04
	l-1.23,4.78h3.54l-0.27,1.21h-3.54l-1.49,5.73c-0.47,1.72-0.71,2.92-0.71,3.59c0,0.31,0.07,0.53,0.2,0.67s0.31,0.21,0.54,0.21
	c0.35,0,0.89-0.21,1.62-0.63c0.96-0.56,1.87-1.19,2.73-1.9l0.65,0.79c-2.5,1.88-4.16,3.03-5.01,3.45c-0.84,0.42-1.52,0.63-2.03,0.63
	c-0.42,0-0.75-0.15-1-0.46s-0.37-0.81-0.37-1.5c0-0.82,0.22-2.07,0.65-3.76l1.74-6.8h-2.77l0.31-1.21h2.77L344.9,199.53z
	 M360.27,212.24l0.56,0.75c-2.79,2.65-5.18,3.98-7.18,3.98c-0.81,0-1.43-0.27-1.85-0.82c-0.43-0.55-0.64-1.42-0.64-2.63
	c0-2.44,0.74-4.86,2.22-7.28c1.66-2.75,3.65-4.12,5.96-4.12c0.81,0,1.43,0.2,1.85,0.61c0.43,0.4,0.64,0.96,0.64,1.67
	c0,0.74-0.26,1.47-0.77,2.19c-0.51,0.72-1.43,1.46-2.75,2.24c-0.66,0.38-2.07,1.05-4.24,2.03c-0.1,0.62-0.15,1.2-0.15,1.76
	c0,0.81,0.13,1.37,0.38,1.69c0.26,0.32,0.63,0.48,1.12,0.48c0.47,0,0.98-0.13,1.54-0.39C357.72,214.04,358.82,213.32,360.27,212.24z
	 M354.28,209.76c1.83-0.82,3.21-1.7,4.14-2.65c0.63-0.66,0.94-1.32,0.94-1.97c0-0.49-0.13-0.88-0.38-1.17
	c-0.26-0.29-0.59-0.44-1-0.44c-0.42,0-0.83,0.16-1.23,0.48c-0.54,0.42-0.99,1.06-1.35,1.91
	C354.87,207.19,354.5,208.46,354.28,209.76z M267.02,469.37c-0.25-0.18-0.37-0.27-0.62-0.44c0.63-1.13,1.29-1.87,1.97-2.22
	c0.68-0.34,1.44-0.43,2.29-0.25c1.02,0.21,1.83,0.69,2.43,1.46c0.61,0.77,0.91,1.59,0.91,2.46c0,0.54-0.11,1.06-0.33,1.57
	c-0.22,0.51-0.58,1.02-1.08,1.53c-0.32,0.34-1.22,0.99-2.66,1.94c-1.95,1.29-3.32,2.37-4.11,3.24c1.05,0.19,2.14,0.41,3.26,0.65
	c0.36,0.08,0.68,0.15,0.94,0.21c0.59,0.14,0.99,0.17,1.21,0.08c0.22-0.09,0.58-0.49,1.08-1.18c0.33,0.07,0.5,0.1,0.84,0.16
	c-0.65,0.79-1.22,1.79-1.71,3.02c-0.57-0.22-1.18-0.42-1.82-0.61c-0.64-0.19-1.31-0.36-2.01-0.51c-0.83-0.18-2.05-0.4-3.65-0.68
	c0.1-0.28,0.14-0.43,0.24-0.71c0.73-0.93,1.82-1.91,3.28-2.97c1.44-1.05,2.37-1.81,2.79-2.27c0.6-0.66,1.04-1.33,1.32-1.97
	c0.21-0.48,0.31-0.96,0.31-1.45c0-0.73-0.2-1.36-0.59-1.88c-0.4-0.52-0.88-0.84-1.46-0.96c-0.48-0.1-0.96-0.03-1.42,0.22
	C267.99,468.05,267.51,468.57,267.02,469.37z M278.22,470.75c-0.2-0.17-0.3-0.26-0.5-0.44c0.83-0.8,1.44-1.31,1.83-1.5
	c0.71-0.34,1.43-0.46,2.16-0.35c0.75,0.11,1.34,0.39,1.77,0.83c0.43,0.44,0.65,0.96,0.65,1.57c0,1.27-0.96,2.49-2.88,3.63
	c0.66,0.13,1.16,0.32,1.5,0.57c0.34,0.25,0.62,0.6,0.84,1.05c0.22,0.45,0.32,0.96,0.32,1.54c0,1.57-0.79,2.93-2.38,4.04
	c-1.36,0.95-2.75,1.31-4.18,1.06c-0.64-0.11-1.22-0.36-1.73-0.74c-0.51-0.39-0.77-0.8-0.77-1.23c0-0.18,0.07-0.32,0.2-0.43
	c0.13-0.11,0.29-0.15,0.47-0.12c0.24,0.04,0.52,0.24,0.84,0.6c0.41,0.47,0.72,0.77,0.92,0.91c0.28,0.19,0.54,0.3,0.75,0.34
	c0.63,0.11,1.34-0.15,2.12-0.78c1.15-0.91,1.73-2.03,1.73-3.35c0-0.66-0.18-1.21-0.54-1.66c-0.36-0.45-0.83-0.72-1.4-0.81
	c-0.41-0.07-0.89-0.05-1.41,0.05c0.03-0.3,0.05-0.45,0.09-0.74c1.04-0.2,1.97-0.7,2.8-1.5c0.59-0.56,0.88-1.18,0.88-1.85
	c0-0.5-0.13-0.92-0.38-1.24c-0.26-0.32-0.6-0.52-1.04-0.58C279.94,469.48,279.06,469.86,278.22,470.75z M304.13,475.83
	c-0.27-0.01-0.4-0.02-0.66-0.03c0.04-0.63,0.06-1.14,0.06-1.52c0-1.15-0.24-1.96-0.72-2.43c-0.48-0.47-1.08-0.73-1.81-0.77
	c-0.97-0.05-1.98,0.28-3.03,0.99c-1.05,0.71-1.95,1.87-2.7,3.47c-0.75,1.6-1.13,3.28-1.13,5.04c0,1.7,0.35,3.04,1.05,4
	c0.7,0.96,1.58,1.49,2.63,1.56c1.43,0.1,2.75-0.68,3.94-2.33c0.12-0.17,0.25-0.24,0.38-0.24c0.11,0.01,0.2,0.04,0.27,0.12
	c0.07,0.07,0.11,0.15,0.11,0.24c0,0.22-0.27,0.64-0.82,1.25c-0.54,0.62-1.23,1.12-2.06,1.49c-0.83,0.38-1.64,0.54-2.44,0.48
	c-0.97-0.07-1.86-0.39-2.69-0.96c-0.83-0.57-1.47-1.34-1.92-2.31c-0.46-0.97-0.69-2.1-0.69-3.37c0-1.78,0.47-3.51,1.4-5.19
	c0.94-1.68,2.11-2.94,3.51-3.8c1.41-0.86,2.78-1.25,4.12-1.18c0.48,0.03,0.96,0.1,1.44,0.23c0.2,0.06,1.05,0.38,2.53,0.94
	C304.45,472.91,304.19,474.34,304.13,475.83z M305.1,477.76c-0.22-0.17-0.32-0.26-0.54-0.43c0.82-0.87,1.56-1.48,2.24-1.84
	c0.67-0.36,1.25-0.54,1.72-0.53c0.26,0,0.46,0.06,0.6,0.18c0.14,0.12,0.21,0.27,0.21,0.47c0,0.24-0.27,1.24-0.8,2.99
	c-0.87,2.87-1.3,4.61-1.3,5.2c0,0.11,0.03,0.21,0.09,0.29c0.06,0.08,0.12,0.12,0.18,0.12c0.26,0.01,0.93-0.48,2.02-1.48
	c0.19,0.19,0.29,0.28,0.48,0.47c-1.12,1.04-1.94,1.69-2.46,1.98c-0.52,0.28-0.94,0.42-1.27,0.41c-0.29-0.01-0.51-0.1-0.68-0.29
	s-0.25-0.43-0.25-0.75c0-1.02,0.61-3.48,1.84-7.41c0.06-0.19,0.09-0.35,0.09-0.5c0-0.16-0.07-0.25-0.22-0.25
	c-0.16,0-0.35,0.06-0.56,0.18C306.29,476.68,305.82,477.08,305.1,477.76z M309.93,469.78c0.25,0,0.46,0.09,0.63,0.26
	s0.25,0.38,0.25,0.64c0,0.36-0.12,0.67-0.37,0.94c-0.25,0.27-0.53,0.4-0.84,0.4c-0.25,0-0.45-0.09-0.62-0.26
	c-0.16-0.17-0.25-0.4-0.25-0.68c0-0.37,0.12-0.67,0.36-0.93C309.32,469.9,309.6,469.78,309.93,469.78z M313.02,485.3
	c-0.73,0-1.1,0-1.83,0c0.34-1.31,0.52-1.97,0.86-3.28c0.42-1.61,0.78-3.14,1.09-4.59c0.07-0.36,0.11-0.58,0.11-0.67
	c0-0.2-0.09-0.29-0.27-0.29c-0.12,0-0.31,0.09-0.57,0.25c-0.25,0.17-0.71,0.58-1.38,1.24c-0.15-0.17-0.23-0.26-0.38-0.43
	c0.79-0.83,1.57-1.46,2.35-1.89c0.78-0.42,1.38-0.64,1.8-0.65c0.15,0,0.26,0.03,0.35,0.1c0.09,0.07,0.13,0.15,0.13,0.26
	c0,0.11-0.05,0.39-0.16,0.85c-0.21,0.88-0.32,1.32-0.53,2.2c0.83-1.31,1.77-2.44,2.81-3.39c0.5-0.45,0.92-0.69,1.26-0.7
	c0.25-0.01,0.45,0.06,0.62,0.22c0.16,0.15,0.25,0.33,0.25,0.55c0,0.22-0.08,0.41-0.24,0.57c-0.16,0.16-0.56,0.36-1.2,0.59
	c-0.61,0.22-1.1,0.48-1.48,0.77c-0.38,0.29-0.8,0.74-1.25,1.33c-0.46,0.59-0.77,1.11-0.95,1.55c-0.18,0.44-0.46,1.45-0.83,3.04
	C313.35,483.88,313.24,484.35,313.02,485.3z M325.03,482.24c0.1,0.28,0.15,0.41,0.26,0.69c-1.95,1.65-3.59,2.49-4.94,2.55
	c-0.71,0.03-1.23-0.2-1.55-0.7c-0.32-0.49-0.49-1.13-0.49-1.9c0-1.29,0.34-2.62,1.03-4s1.52-2.46,2.51-3.23
	c0.77-0.6,1.64-0.93,2.6-0.98c0.61-0.04,1.06,0.05,1.37,0.25c0.31,0.21,0.47,0.47,0.47,0.8c0,0.25-0.08,0.46-0.25,0.63
	c-0.16,0.17-0.39,0.26-0.69,0.28c-0.29,0.02-0.66-0.09-1.1-0.32c-0.47-0.24-0.86-0.36-1.17-0.35c-0.4,0.02-0.8,0.22-1.2,0.6
	c-0.4,0.38-0.78,1.1-1.14,2.15c-0.36,1.06-0.54,2.11-0.54,3.16c0,0.77,0.16,1.36,0.45,1.77c0.22,0.31,0.53,0.47,0.93,0.45
	C322.57,484.04,323.71,483.43,325.03,482.24z M335.11,474.04c0.7-0.08,1.05-0.12,1.74-0.21c-0.46,1.76-0.69,2.64-1.15,4.4
	c-0.68,2.56-1.01,4-1.01,4.35c0,0.16,0.04,0.27,0.11,0.34c0.07,0.07,0.15,0.1,0.24,0.09c0.14-0.02,0.3-0.09,0.49-0.24
	c0.27-0.22,0.78-0.75,1.53-1.6c0.16,0.16,0.24,0.24,0.4,0.4c-1.64,1.91-2.84,2.89-3.62,2.97c-0.26,0.03-0.48-0.05-0.67-0.23
	c-0.18-0.18-0.28-0.45-0.28-0.82c0-0.42,0.09-1,0.27-1.72c-0.73,0.91-1.62,1.72-2.69,2.45c-0.71,0.48-1.33,0.74-1.85,0.78
	c-0.29,0.02-0.51-0.05-0.67-0.23c-0.16-0.17-0.25-0.47-0.25-0.87c0-0.32,0.04-0.66,0.11-1.03c0.1-0.52,0.38-1.57,0.81-3.16
	c0.55-2.01,0.82-3.21,0.82-3.6c0-0.23-0.08-0.34-0.25-0.32c-0.15,0.01-0.35,0.11-0.6,0.28s-0.69,0.57-1.3,1.19
	c-0.22-0.15-0.32-0.23-0.54-0.39c1.1-1.06,1.93-1.77,2.51-2.12c0.58-0.35,1.04-0.55,1.39-0.58c0.2-0.02,0.36,0.04,0.48,0.17
	c0.12,0.13,0.18,0.35,0.18,0.65c0,0.56-0.3,1.97-0.88,4.23c-0.52,2.02-0.78,3.18-0.78,3.46c0,0.17,0.05,0.31,0.17,0.43
	c0.11,0.11,0.23,0.16,0.36,0.15c0.46-0.04,1.11-0.48,1.95-1.31c0.84-0.83,1.39-1.75,1.65-2.74
	C334.32,477.14,334.58,476.11,335.11,474.04z M338.76,476.11c-0.21-0.14-0.32-0.21-0.54-0.35c0.81-1,1.56-1.74,2.23-2.21
	c0.67-0.47,1.24-0.74,1.71-0.81c0.26-0.04,0.46-0.01,0.6,0.08c0.14,0.09,0.21,0.24,0.21,0.43c0,0.24-0.26,1.28-0.79,3.12
	c-0.86,3.01-1.29,4.82-1.29,5.41c0,0.11,0.03,0.21,0.09,0.27c0.06,0.07,0.12,0.1,0.18,0.09c0.26-0.04,0.93-0.64,2-1.81
	c0.19,0.16,0.28,0.23,0.47,0.39c-1.11,1.22-1.92,2.01-2.44,2.38c-0.51,0.37-0.93,0.57-1.26,0.62c-0.29,0.04-0.51-0.02-0.68-0.18
	c-0.17-0.16-0.25-0.39-0.25-0.71c0-1.02,0.61-3.58,1.83-7.71c0.06-0.2,0.09-0.37,0.09-0.51c0-0.16-0.07-0.23-0.22-0.21
	c-0.16,0.02-0.35,0.11-0.55,0.27C339.94,474.84,339.48,475.31,338.76,476.11z M343.56,467.34c0.25-0.04,0.46,0.01,0.62,0.15
	c0.16,0.14,0.24,0.34,0.24,0.6c0,0.36-0.12,0.69-0.37,1.01c-0.25,0.31-0.53,0.49-0.83,0.54c-0.24,0.04-0.45-0.02-0.61-0.16
	c-0.16-0.15-0.24-0.36-0.24-0.64c0-0.37,0.12-0.69,0.35-0.99C342.95,467.56,343.23,467.39,343.56,467.34z M347.77,470.01
	c0.77-0.43,1.16-0.65,1.93-1.09c-0.35,1.43-0.52,2.15-0.87,3.58c1.01-0.18,1.51-0.28,2.51-0.47c-0.08,0.36-0.12,0.54-0.19,0.9
	c-1,0.2-1.51,0.29-2.51,0.47c-0.42,1.71-0.64,2.57-1.06,4.28c-0.34,1.29-0.5,2.17-0.5,2.65c0,0.22,0.05,0.37,0.14,0.45
	c0.09,0.08,0.22,0.11,0.38,0.08c0.25-0.04,0.64-0.26,1.15-0.66c0.68-0.52,1.33-1.1,1.94-1.72c0.18,0.19,0.28,0.28,0.46,0.47
	c-1.77,1.69-2.96,2.72-3.56,3.13c-0.6,0.41-1.08,0.64-1.45,0.7c-0.3,0.05-0.54-0.02-0.71-0.21c-0.17-0.19-0.26-0.53-0.26-1.03
	c0-0.59,0.15-1.51,0.46-2.76c0.5-2.03,0.74-3.04,1.24-5.07c-0.79,0.14-1.18,0.2-1.97,0.33c0.09-0.36,0.13-0.54,0.22-0.9
	c0.79-0.13,1.18-0.2,1.97-0.33C347.36,471.68,347.49,471.12,347.77,470.01z M357.62,469.89c0.72-0.16,1.27-0.15,1.66,0.04
	c0.39,0.19,0.58,0.47,0.58,0.83c0,0.22-0.08,0.43-0.25,0.63s-0.36,0.33-0.6,0.39c-0.15,0.04-0.28,0.03-0.4-0.01
	c-0.11-0.04-0.27-0.18-0.48-0.41c-0.39-0.44-0.78-0.61-1.17-0.53c-0.33,0.07-0.62,0.27-0.88,0.58c-0.25,0.31-0.38,0.66-0.38,1.04
	c0,0.33,0.08,0.64,0.24,0.92c0.16,0.28,0.57,0.69,1.22,1.25c0.89,0.76,1.34,1.56,1.34,2.42s-0.36,1.7-1.09,2.51
	c-0.72,0.81-1.66,1.34-2.8,1.58c-0.96,0.2-1.67,0.15-2.14-0.15c-0.47-0.3-0.7-0.74-0.7-1.32c0-0.29,0.09-0.54,0.27-0.76
	c0.18-0.22,0.4-0.36,0.65-0.41c0.23-0.05,0.42-0.01,0.58,0.11c0.16,0.12,0.24,0.28,0.24,0.48c0,0.08-0.01,0.19-0.02,0.32
	c-0.01,0.11-0.01,0.2-0.01,0.27c0,0.27,0.12,0.47,0.34,0.61c0.22,0.14,0.51,0.17,0.89,0.09c0.43-0.09,0.81-0.25,1.14-0.47
	c0.33-0.22,0.59-0.51,0.77-0.85c0.18-0.35,0.28-0.67,0.28-0.97c0-0.29-0.09-0.57-0.26-0.82c-0.17-0.25-0.56-0.65-1.17-1.19
	c-0.84-0.76-1.26-1.58-1.26-2.45c0-0.8,0.32-1.56,0.96-2.29C355.83,470.59,356.64,470.11,357.62,469.89z"/>
<g id="Inner_Ring_2_">
	<path class="st2" d="M310.99,124.49c102.84,0,186.51,83.67,186.51,186.51c0,102.84-83.67,186.51-186.51,186.51
		c-102.84,0-186.51-83.67-186.51-186.51C124.48,208.16,208.14,124.49,310.99,124.49 M310.99,123.09
		c-103.62,0-187.91,84.3-187.91,187.91c0,103.62,84.3,187.91,187.91,187.91c103.62,0,187.91-84.3,187.91-187.91
		C498.9,207.38,414.6,123.09,310.99,123.09L310.99,123.09z"/>
</g>
<path id="Numerals_1_" class="st2" d="M329.82,117.21h-4.01V45.94h4.01c0.26,0,0.47-0.21,0.47-0.47S330.07,45,329.82,45l-22.73,0
	c-0.26,0-0.47,0.21-0.47,0.47s0.21,0.47,0.47,0.47l3.34,0l-4.96,26.66l-3.68-26.66h2.13c0.26,0,0.47-0.21,0.47-0.47
	S304.16,45,303.9,45h-11.74c-0.26,0-0.47,0.21-0.47,0.47s0.21,0.47,0.47,0.47h4.57l5.83,42.22l-5.41,29.05h-4.45
	c-0.26,0-0.47,0.21-0.47,0.47s0.21,0.47,0.47,0.47h8.13c0.26,0,0.47-0.21,0.47-0.47s-0.21-0.47-0.47-0.47h-2.4l4.68-25.13
	l3.47,25.13h-3.28c-0.26,0-0.47,0.21-0.47,0.47s0.21,0.47,0.47,0.47h26.52c0.26,0,0.47-0.21,0.47-0.47S330.07,117.21,329.82,117.21z
	 M313.67,117.21h-2.05L306,76.52l5.69-30.58h1.98V117.21z M318.36,117.21V45.94h2.76v71.28H318.36z M44.93,296.39
	c0-0.26-0.21-0.47-0.47-0.47s-0.47,0.21-0.47,0.47v8.13c0,0.26,0.21,0.47,0.47,0.47s0.47-0.21,0.47-0.47v-3.34l26.66,4.96
	l-26.66,3.68v-2.13c0-0.26-0.21-0.47-0.47-0.47s-0.47,0.21-0.47,0.47l0,17.53c0,0.26,0.21,0.47,0.47,0.47s0.47-0.21,0.47-0.47v-4.01
	h71.28v4.01c0,0.26,0.21,0.47,0.47,0.47s0.47-0.21,0.47-0.47v-14.45c0-0.26-0.21-0.47-0.47-0.47s-0.47,0.21-0.47,0.47v2.4
	l-25.13-4.68l25.13-3.47v3.28c0,0.26,0.21,0.47,0.47,0.47s0.47-0.21,0.47-0.47v-11.74c0-0.26-0.21-0.47-0.47-0.47
	s-0.47,0.21-0.47,0.47v3.41l-40.7,5.62l-30.58-5.69V296.39z M116.21,314.44v2.08H44.93v-1.66l42.22-5.83L116.21,314.44z
	 M226.72,134.83l-3.47,2.01l-35.64-61.73l3.47-2.01c0.22-0.13,0.3-0.42,0.17-0.64c-0.13-0.22-0.42-0.3-0.64-0.17l-13.24,7.64
	c-0.22,0.13-0.3,0.42-0.17,0.64s0.42,0.3,0.64,0.17l2.89-1.67l9.03,25.57L173.25,83.4l1.84-1.06c0.22-0.13,0.3-0.42,0.17-0.64
	s-0.42-0.3-0.64-0.17l-10.17,5.87c-0.22,0.13-0.3,0.42-0.17,0.64s0.42,0.3,0.64,0.17l3.96-2.29l26.16,33.65l9.84,27.86l-3.86,2.23
	c-0.22,0.13-0.3,0.42-0.17,0.64s0.42,0.3,0.64,0.17l7.04-4.06c0.22-0.13,0.3-0.42,0.17-0.64s-0.42-0.3-0.64-0.17l-2.08,1.2
	l-8.52-24.1l15.57,20.03l-2.84,1.64c-0.22,0.13-0.3,0.42-0.17,0.64s0.42,0.3,0.64,0.17l16.52-9.54c0.22-0.13,0.3-0.42,0.17-0.64
	C227.23,134.78,226.94,134.7,226.72,134.83z M217.41,140.2l-25.22-32.43l-10.36-29.33l1.71-0.99l35.64,61.73L217.41,140.2z
	 M485.32,221.73l-2.01-3.47l61.73-35.64l2.01,3.47c0.13,0.22,0.42,0.3,0.64,0.17s0.3-0.42,0.17-0.64l-10.03-17.37
	c-0.13-0.22-0.42-0.3-0.64-0.17s-0.3,0.42-0.17,0.64l2.01,3.47l-61.73,35.64l-2.01-3.47c-0.13-0.22-0.42-0.3-0.64-0.17
	s-0.3,0.42-0.17,0.64l10.03,17.37c0.13,0.22,0.42,0.3,0.64,0.17C485.37,222.24,485.45,221.95,485.32,221.73z M479.64,211.89
	l61.73-35.64l1.33,2.3l-61.73,35.64L479.64,211.89z M506.5,324.5v-4.01h71.28v4.01c0,0.26,0.21,0.47,0.47,0.47s0.47-0.21,0.47-0.47
	v-27.4c0-0.26-0.21-0.47-0.47-0.47s-0.47,0.21-0.47,0.47v4.01H506.5v-4.01c0-0.26-0.21-0.47-0.47-0.47s-0.47,0.21-0.47,0.47v27.4
	c0,0.26,0.21,0.47,0.47,0.47S506.5,324.76,506.5,324.5z M506.5,305.8h71.28v2.66H506.5V305.8z M506.5,313.15h71.28v2.66H506.5
	V313.15z M471.62,423.61l2.01-3.47l61.73,35.64l-2.01,3.47c-0.13,0.22-0.05,0.51,0.17,0.64s0.51,0.05,0.64-0.17l17.37-30.08
	c0.13-0.22,0.05-0.51-0.17-0.64s-0.51-0.05-0.64,0.17l-2.01,3.47l-61.73-35.64l2.01-3.47c0.13-0.22,0.05-0.51-0.17-0.64
	s-0.51-0.05-0.64,0.17l-17.37,30.08c-0.13,0.22-0.05,0.51,0.17,0.64S471.49,423.83,471.62,423.61z M483.31,403.35l1.33-2.3
	l61.73,35.64l-1.33,2.3L483.31,403.35z M479.64,409.71l1.33-2.3l61.73,35.64l-1.33,2.3L479.64,409.71z M477.3,413.77l61.73,35.64
	l-1.33,2.3l-61.73-35.64L477.3,413.77z M196.43,472.08l3.47,2.01l-35.64,61.73l-3.47-2.01c-0.22-0.13-0.51-0.05-0.64,0.17
	s-0.05,0.51,0.17,0.64l20.08,11.59c0.22,0.13,0.51,0.05,0.64-0.17s0.05-0.51-0.17-0.64l-2.79-1.61l-0.03-0.01l27.24-42.52
	c0.14-0.22,0.48-0.04,0.38,0.2l-19.26,47.15l-2.93-1.69c-0.22-0.13-0.51-0.05-0.64,0.17s-0.05,0.51,0.17,0.64l9.47,5.47
	c0.22,0.13,0.51,0.05,0.64-0.17s0.05-0.51-0.17-0.64l-2.68-1.55l27.59-65.89c0.3-0.72,0.02-1.55-0.66-1.94
	c-0.59-0.34-1.31-0.23-1.8,0.21l-38.44,59.95l-2.36-1.36l35.64-61.73l3.47,2.01c0.22,0.13,0.51,0.05,0.64-0.17s0.05-0.51-0.17-0.64
	l-17.29-9.98c-0.22-0.13-0.51-0.05-0.64,0.17S196.21,471.95,196.43,472.08z M206.19,477.71l-35.64,61.73l-2.22-1.28l35.64-61.73
	L206.19,477.71z M130.5,389.27l2.01,3.47l-61.73,35.64l-2.01-3.47c-0.13-0.22-0.42-0.3-0.64-0.17c-0.22,0.13-0.3,0.42-0.17,0.64
	l15.32,26.53c0.13,0.22,0.42,0.3,0.64,0.17c0.22-0.13,0.3-0.42,0.17-0.64l-1.63-2.82l44.85-23.21c0.23-0.12,0.43,0.2,0.23,0.36
	l-40.26,31.2l-1.69-2.93c-0.13-0.22-0.42-0.3-0.64-0.17c-0.22,0.13-0.3,0.42-0.17,0.64l5.47,9.47c0.13,0.22,0.42,0.3,0.64,0.17
	c0.22-0.13,0.3-0.42,0.17-0.64l-1.55-2.68l56.84-43.26c0.62-0.47,0.8-1.34,0.4-2.01c-0.34-0.59-1.02-0.85-1.66-0.72l-63.26,32.69
	l-1.87-3.23l61.73-35.64l2.01,3.47c0.13,0.22,0.42,0.3,0.64,0.17s0.3-0.42,0.17-0.64l-13.2-22.87c-0.13-0.22-0.42-0.3-0.64-0.17
	S130.37,389.04,130.5,389.27z M139.35,404.6l-61.73,35.64l-1.09-1.89l61.73-35.64L139.35,404.6z M135.92,398.65l-61.73,35.64
	l-1.07-1.85l61.73-35.64L135.92,398.65z M108.17,191.03l38.05,15.48l1.71-2.96c0.13-0.22,0.42-0.3,0.64-0.17
	c0.22,0.13,0.3,0.42,0.17,0.64l-5.87,10.17c-0.13,0.22-0.42,0.3-0.64,0.17c-0.22-0.13-0.3-0.42-0.17-0.64l1.64-2.84l-23.5-9.56
	l19.42,16.61l1.2-2.08c0.13-0.22,0.42-0.3,0.64-0.17c0.22,0.13,0.3,0.42,0.17,0.64l-4.06,7.04c-0.13,0.22-0.42,0.3-0.64,0.17
	c-0.22-0.13-0.3-0.42-0.17-0.64l2.23-3.86l-22.46-19.21l-39.48-16.06l-2.29,3.96c-0.13,0.22-0.42,0.3-0.64,0.17s-0.3-0.42-0.17-0.64
	l5.87-10.17c0.13-0.22,0.42-0.3,0.64-0.17s0.3,0.42,0.17,0.64l-1.06,1.84l24.93,10.14L83.9,171.92l-1.67,2.89
	c-0.13,0.22-0.42,0.3-0.64,0.17s-0.3-0.42-0.17-0.64l4.06-7.04c0.13-0.22,0.42-0.3,0.64-0.17s0.3,0.42,0.17,0.64l-1.76,3.04
	L108.17,191.03z M413.99,146.03c-0.13,0.22-0.42,0.3-0.64,0.17l-11.01-6.35c-0.22-0.13-0.3-0.42-0.17-0.64s0.42-0.3,0.64-0.17
	l2.8,1.61l35.64-61.73l-2.8-1.61c-0.22-0.13-0.3-0.42-0.17-0.64c0.13-0.22,0.42-0.3,0.64-0.17l11.01,6.35
	c0.22,0.13,0.3,0.42,0.17,0.64c-0.13,0.22-0.42,0.3-0.64,0.17l-2.8-1.61l-35.64,61.73l2.8,1.61
	C414.04,145.52,414.12,145.81,413.99,146.03z M435.94,550.76c-0.13-0.22-0.05-0.51,0.17-0.64l3.57-2.06l-32.69-63.26
	c-0.14-0.64,0.12-1.32,0.72-1.66c0.68-0.39,1.54-0.22,2.01,0.4l43.26,56.84l2.68-1.55c0.22-0.13,0.51-0.05,0.64,0.17
	c0.13,0.22,0.05,0.51-0.17,0.64l-9.47,5.47c-0.22,0.13-0.51,0.05-0.64-0.17c-0.13-0.22-0.05-0.51,0.17-0.64l2.93-1.69l-31.2-40.26
	c-0.16-0.21-0.48,0-0.36,0.23l23.21,44.85l2.82-1.63c0.22-0.13,0.51-0.05,0.64,0.17c0.13,0.22,0.05,0.51-0.17,0.64l-7.48,4.32
	C436.36,551.06,436.07,550.98,435.94,550.76z M295.07,508.04c0-0.26,0.21-0.47,0.47-0.47h12.71c0.26,0,0.47,0.21,0.47,0.47
	s-0.21,0.47-0.47,0.47h-4.01v71.28h3.73l3.32-71.13c0.2-0.62,0.77-1.08,1.45-1.08c0.78,0,1.44,0.58,1.54,1.36l9.05,70.86h3.09
	c0.26,0,0.47,0.21,0.47,0.47s-0.21,0.47-0.47,0.47h-10.94c-0.26,0-0.47-0.21-0.47-0.47s0.21-0.47,0.47-0.47h3.38l-6.89-50.46
	c-0.04-0.26-0.41-0.24-0.43,0.02l-2.33,50.45h3.25c0.26,0,0.47,0.21,0.47,0.47s-0.21,0.47-0.47,0.47h-16.93
	c-0.26,0-0.47-0.21-0.47-0.47s0.21-0.47,0.47-0.47h4.01v-71.28h-4.01C295.28,508.51,295.07,508.3,295.07,508.04z"/>
<path id="Dots_2_" class="st2" d="M557.78,177.94c-0.62,0.31-1.37,0.06-1.68-0.55c-0.31-0.62-0.06-1.37,0.55-1.68
	s1.37-0.06,1.68,0.55C558.64,176.87,558.4,177.63,557.78,177.94z M550.94,163.5c-0.34-0.6-1.11-0.81-1.71-0.46
	c-0.6,0.34-0.81,1.11-0.46,1.71c0.34,0.6,1.11,0.81,1.71,0.46C551.08,164.86,551.28,164.1,550.94,163.5z M547,157.27
	c-0.36-0.59-1.13-0.78-1.72-0.42c-0.59,0.36-0.78,1.13-0.42,1.72c0.36,0.59,1.13,0.78,1.72,0.42
	C547.17,158.63,547.36,157.86,547,157.27z M542.89,151.14c-0.37-0.58-1.15-0.75-1.73-0.37s-0.75,1.15-0.37,1.73
	c0.37,0.58,1.15,0.75,1.73,0.37C543.1,152.5,543.27,151.72,542.89,151.14z M534.21,139.23c-0.4-0.56-1.19-0.69-1.75-0.28
	s-0.69,1.19-0.28,1.75c0.4,0.56,1.19,0.69,1.75,0.28S534.61,139.79,534.21,139.23z M529.63,133.44c-0.42-0.55-1.2-0.65-1.75-0.24
	c-0.55,0.42-0.65,1.2-0.24,1.75c0.42,0.55,1.2,0.65,1.75,0.24C529.95,134.78,530.05,133.99,529.63,133.44z M524.91,127.78
	c-0.43-0.54-1.22-0.62-1.76-0.19c-0.54,0.43-0.62,1.22-0.19,1.76c0.43,0.54,1.22,0.62,1.76,0.19
	C525.26,129.1,525.34,128.32,524.91,127.78z M515.03,116.84c-0.46-0.51-1.25-0.56-1.77-0.1c-0.51,0.46-0.56,1.25-0.1,1.77
	s1.25,0.56,1.77,0.1C515.45,118.14,515.49,117.35,515.03,116.84z M509.88,111.56c-0.47-0.5-1.26-0.53-1.77-0.05
	s-0.53,1.26-0.05,1.77s1.26,0.53,1.77,0.05S510.35,112.06,509.88,111.56z M504.59,106.42c-0.49-0.49-1.28-0.49-1.77-0.01
	c-0.49,0.49-0.49,1.28-0.01,1.77c0.49,0.49,1.28,0.49,1.77,0.01C505.07,107.7,505.07,106.91,504.59,106.42z M493.62,96.57
	c-0.51-0.46-1.3-0.42-1.77,0.09c-0.46,0.51-0.42,1.3,0.09,1.77s1.3,0.42,1.77-0.09C494.17,97.83,494.13,97.04,493.62,96.57z
	 M487.94,91.87c-0.52-0.45-1.31-0.39-1.76,0.13c-0.45,0.52-0.39,1.31,0.13,1.76c0.52,0.45,1.31,0.39,1.76-0.13
	C488.52,93.1,488.46,92.32,487.94,91.87z M482.14,87.31c-0.54-0.44-1.32-0.36-1.76,0.18s-0.36,1.32,0.18,1.76
	c0.54,0.44,1.32,0.36,1.76-0.18C482.76,88.53,482.68,87.74,482.14,87.31z M470.2,78.66c-0.56-0.41-1.34-0.29-1.75,0.27
	c-0.41,0.56-0.29,1.34,0.27,1.75c0.56,0.41,1.34,0.29,1.75-0.27C470.88,79.85,470.76,79.07,470.2,78.66z M464.07,74.57
	c-0.57-0.39-1.35-0.25-1.74,0.32s-0.25,1.35,0.32,1.74s1.35,0.25,1.74-0.32C464.77,75.74,464.63,74.96,464.07,74.57z M457.82,70.64
	c-0.58-0.38-1.35-0.22-1.73,0.36c-0.38,0.58-0.22,1.35,0.36,1.73c0.58,0.38,1.35,0.22,1.73-0.36
	C458.56,71.8,458.4,71.02,457.82,70.64z M445.04,63.29c-0.6-0.35-1.36-0.14-1.71,0.45c-0.35,0.6-0.14,1.36,0.45,1.71
	c0.6,0.35,1.36,0.14,1.71-0.45C445.84,64.4,445.64,63.64,445.04,63.29z M438.51,59.87c-0.61-0.33-1.37-0.11-1.7,0.5
	c-0.33,0.61-0.11,1.37,0.5,1.7c0.61,0.33,1.37,0.11,1.7-0.5C439.34,60.96,439.12,60.2,438.51,59.87z M431.9,56.61
	c-0.61-0.32-1.37-0.07-1.68,0.54c-0.32,0.61-0.07,1.37,0.54,1.68c0.61,0.32,1.37,0.07,1.68-0.54
	C432.75,57.68,432.51,56.93,431.9,56.61z M418.42,50.64c-0.63-0.28-1.37,0-1.65,0.63c-0.28,0.63,0,1.37,0.63,1.65
	c0.63,0.28,1.37,0,1.65-0.63C419.33,51.66,419.05,50.92,418.42,50.64z M411.56,47.91c-0.64-0.27-1.37,0.03-1.64,0.67
	c-0.27,0.64,0.03,1.37,0.67,1.64c0.64,0.27,1.37-0.03,1.64-0.67C412.5,48.91,412.2,48.18,411.56,47.91z M404.64,45.37
	c-0.64-0.25-1.37,0.07-1.62,0.71c-0.25,0.64,0.07,1.37,0.71,1.62c0.64,0.25,1.37-0.07,1.62-0.71
	C405.61,46.34,405.29,45.62,404.64,45.37z M390.61,40.83c-0.66-0.22-1.36,0.14-1.58,0.8c-0.22,0.66,0.14,1.36,0.8,1.58
	s1.36-0.14,1.58-0.8C391.63,41.76,391.27,41.05,390.61,40.83z M383.51,38.84c-0.66-0.2-1.36,0.18-1.56,0.84
	c-0.2,0.66,0.18,1.36,0.84,1.56c0.66,0.2,1.36-0.18,1.56-0.84S384.17,39.04,383.51,38.84z M376.36,37.04
	c-0.67-0.18-1.35,0.21-1.53,0.88c-0.18,0.67,0.21,1.35,0.88,1.53s1.35-0.21,1.53-0.88C377.42,37.9,377.03,37.22,376.36,37.04z
	 M361.94,33.99c-0.67-0.15-1.34,0.28-1.49,0.96c-0.15,0.67,0.28,1.34,0.96,1.49c0.67,0.15,1.34-0.28,1.49-0.96
	C363.04,34.8,362.61,34.14,361.94,33.99z M354.67,32.75c-0.68-0.13-1.33,0.32-1.46,1s0.32,1.33,1,1.46c0.68,0.13,1.33-0.32,1.46-1
	S355.35,32.88,354.67,32.75z M347.37,31.71c-0.68-0.11-1.32,0.35-1.43,1.03c-0.11,0.68,0.35,1.32,1.03,1.43
	c0.68,0.11,1.32-0.35,1.43-1.03C348.51,32.46,348.05,31.82,347.37,31.71z M332.7,30.19c-0.69-0.07-1.3,0.42-1.38,1.11
	c-0.07,0.69,0.42,1.3,1.11,1.38s1.3-0.42,1.38-1.11C333.88,30.88,333.39,30.26,332.7,30.19z M325.34,29.71
	c-0.69-0.06-1.29,0.46-1.35,1.14c-0.06,0.69,0.46,1.29,1.14,1.35c0.69,0.06,1.29-0.46,1.35-1.14S326.03,29.77,325.34,29.71z
	 M317.98,29.43c-0.69-0.04-1.28,0.49-1.32,1.18c-0.04,0.69,0.49,1.28,1.18,1.32c0.69,0.04,1.28-0.49,1.32-1.18
	C319.19,30.06,318.67,29.47,317.98,29.43z M303.23,29.46c-0.69,0-1.25,0.56-1.25,1.25c0,0.69,0.56,1.25,1.25,1.25
	c0.69,0,1.25-0.56,1.25-1.25S303.92,29.46,303.23,29.46z M295.86,29.76c-0.69,0.02-1.24,0.59-1.22,1.28
	c0.02,0.69,0.59,1.24,1.28,1.22c0.69-0.02,1.24-0.59,1.22-1.28C297.13,30.29,296.55,29.74,295.86,29.76z M288.51,30.25
	c-0.69,0.03-1.22,0.62-1.19,1.31c0.03,0.69,0.62,1.22,1.31,1.19s1.22-0.62,1.19-1.31C289.78,30.74,289.2,30.21,288.51,30.25z
	 M273.84,31.81c-0.69,0.07-1.19,0.68-1.12,1.37c0.07,0.69,0.68,1.19,1.37,1.12c0.69-0.07,1.19-0.68,1.12-1.37
	C275.14,32.24,274.53,31.74,273.84,31.81z M266.55,32.88c-0.68,0.09-1.17,0.71-1.08,1.4c0.09,0.68,0.71,1.17,1.4,1.08
	c0.68-0.09,1.17-0.71,1.08-1.4C267.86,33.27,267.23,32.79,266.55,32.88z M259.28,34.14c-0.68,0.11-1.15,0.74-1.04,1.43
	s0.74,1.15,1.43,1.04s1.15-0.74,1.04-1.43S259.96,34.03,259.28,34.14z M244.86,37.22c-0.68,0.14-1.11,0.8-0.97,1.48
	c0.14,0.68,0.8,1.11,1.48,0.97c0.68-0.14,1.11-0.8,0.97-1.48C246.2,37.51,245.54,37.08,244.86,37.22z M237.72,39.05
	c-0.67,0.16-1.09,0.83-0.93,1.5c0.16,0.67,0.83,1.09,1.5,0.93c0.67-0.16,1.09-0.83,0.93-1.5C239.07,39.3,238.39,38.89,237.72,39.05z
	 M230.63,41.06c-0.67,0.18-1.07,0.86-0.89,1.53c0.18,0.67,0.86,1.07,1.53,0.89c0.67-0.18,1.07-0.86,0.89-1.53
	C231.98,41.28,231.29,40.88,230.63,41.06z M216.61,45.64c-0.66,0.21-1.02,0.92-0.81,1.57c0.21,0.66,0.92,1.02,1.57,0.81
	c0.66-0.21,1.02-0.92,0.81-1.57C217.97,45.79,217.27,45.42,216.61,45.64z M209.69,48.2c-0.65,0.23-0.99,0.94-0.77,1.59
	c0.23,0.65,0.94,0.99,1.59,0.77c0.65-0.23,0.99-0.94,0.77-1.59S210.35,47.97,209.69,48.2z M202.85,50.94
	c-0.65,0.25-0.97,0.97-0.72,1.61s0.97,0.97,1.61,0.72c0.65-0.25,0.97-0.97,0.72-1.61S203.5,50.69,202.85,50.94z M189.39,56.96
	c-0.63,0.28-0.92,1.02-0.64,1.65c0.28,0.63,1.02,0.92,1.65,0.64s0.92-1.02,0.64-1.65C190.76,56.96,190.02,56.68,189.39,56.96z
	 M182.78,60.23c-0.62,0.3-0.89,1.04-0.59,1.66c0.3,0.62,1.04,0.89,1.66,0.59c0.62-0.3,0.89-1.04,0.59-1.66
	C184.15,60.2,183.4,59.93,182.78,60.23z M176.26,63.67c-0.62,0.31-0.86,1.06-0.55,1.68c0.31,0.62,1.06,0.86,1.68,0.55
	c0.62-0.31,0.86-1.06,0.55-1.68C177.63,63.6,176.87,63.36,176.26,63.67z M163.5,71.06c-0.6,0.34-0.81,1.11-0.46,1.71
	c0.34,0.6,1.11,0.81,1.71,0.46s0.81-1.11,0.46-1.71C164.86,70.92,164.1,70.72,163.5,71.06z M157.27,75
	c-0.59,0.36-0.78,1.13-0.42,1.72c0.36,0.59,1.13,0.78,1.72,0.42c0.59-0.36,0.78-1.13,0.42-1.72S157.86,74.64,157.27,75z
	 M151.14,79.11c-0.58,0.37-0.75,1.15-0.37,1.73s1.15,0.75,1.73,0.37c0.58-0.37,0.75-1.15,0.37-1.73
	C152.5,78.9,151.72,78.73,151.14,79.11z M139.23,87.79c-0.56,0.4-0.69,1.19-0.28,1.75s1.19,0.69,1.75,0.28
	c0.56-0.4,0.69-1.19,0.28-1.75S139.79,87.39,139.23,87.79z M133.44,92.37c-0.55,0.42-0.65,1.2-0.24,1.75
	c0.42,0.55,1.2,0.65,1.75,0.24c0.55-0.42,0.65-1.2,0.24-1.75S133.99,91.95,133.44,92.37z M127.78,97.09
	c-0.54,0.43-0.62,1.22-0.19,1.76c0.43,0.54,1.22,0.62,1.76,0.19c0.54-0.43,0.62-1.22,0.19-1.76
	C129.1,96.74,128.32,96.66,127.78,97.09z M116.84,106.97c-0.51,0.46-0.56,1.25-0.1,1.77s1.25,0.56,1.77,0.1s0.56-1.25,0.1-1.77
	C118.14,106.55,117.35,106.51,116.84,106.97z M111.56,112.12c-0.5,0.47-0.53,1.26-0.05,1.77c0.47,0.5,1.26,0.53,1.77,0.05
	s0.53-1.26,0.05-1.77S112.06,111.65,111.56,112.12z M106.42,117.41c-0.49,0.49-0.49,1.28-0.01,1.77c0.49,0.49,1.28,0.49,1.77,0.01
	c0.49-0.49,0.49-1.28,0.01-1.77C107.71,116.93,106.91,116.92,106.42,117.41z M96.57,128.38c-0.46,0.51-0.42,1.3,0.09,1.77
	c0.51,0.46,1.3,0.42,1.77-0.09c0.46-0.51,0.42-1.3-0.09-1.77C97.83,127.83,97.04,127.87,96.57,128.38z M91.87,134.06
	c-0.45,0.52-0.39,1.31,0.13,1.76c0.52,0.45,1.31,0.39,1.76-0.13c0.45-0.52,0.39-1.31-0.13-1.76
	C93.11,133.48,92.32,133.54,91.87,134.06z M87.31,139.86c-0.44,0.54-0.36,1.32,0.18,1.76c0.54,0.44,1.32,0.36,1.76-0.18
	c0.44-0.54,0.36-1.32-0.18-1.76C88.53,139.24,87.75,139.32,87.31,139.86z M78.66,151.8c-0.41,0.56-0.29,1.34,0.27,1.75
	c0.56,0.41,1.34,0.29,1.75-0.27c0.41-0.56,0.29-1.34-0.27-1.75C79.85,151.12,79.07,151.24,78.66,151.8z M74.57,157.93
	c-0.39,0.57-0.25,1.35,0.32,1.74s1.35,0.25,1.74-0.32c0.39-0.57,0.25-1.35-0.32-1.74C75.74,157.22,74.96,157.37,74.57,157.93z
	 M70.65,164.18c-0.38,0.58-0.22,1.35,0.36,1.73s1.35,0.22,1.73-0.36c0.38-0.58,0.22-1.35-0.36-1.73
	C71.8,163.44,71.02,163.6,70.65,164.18z M63.29,176.96c-0.35,0.6-0.14,1.36,0.45,1.71s1.36,0.14,1.71-0.45
	c0.35-0.6,0.14-1.36-0.45-1.71C64.4,176.16,63.64,176.36,63.29,176.96z M59.87,183.49c-0.33,0.61-0.11,1.37,0.5,1.7
	s1.37,0.11,1.7-0.5c0.33-0.61,0.11-1.37-0.5-1.7C60.96,182.66,60.2,182.88,59.87,183.49z M56.61,190.1
	c-0.32,0.61-0.07,1.37,0.54,1.68c0.61,0.32,1.37,0.07,1.68-0.54s0.07-1.37-0.54-1.68S56.93,189.49,56.61,190.1z M50.64,203.58
	c-0.28,0.63,0,1.37,0.63,1.65c0.63,0.28,1.37,0,1.65-0.63c0.28-0.63,0-1.37-0.63-1.65C51.66,202.67,50.92,202.95,50.64,203.58z
	 M47.91,210.44c-0.27,0.64,0.03,1.37,0.67,1.64c0.64,0.27,1.37-0.03,1.64-0.67s-0.03-1.37-0.67-1.64
	C48.91,209.5,48.18,209.8,47.91,210.44z M45.37,217.36c-0.25,0.64,0.07,1.37,0.71,1.62c0.64,0.25,1.37-0.07,1.62-0.71
	s-0.07-1.37-0.71-1.62C46.34,216.39,45.62,216.71,45.37,217.36z M40.83,231.39c-0.22,0.66,0.14,1.36,0.8,1.58
	c0.66,0.22,1.36-0.14,1.58-0.8s-0.14-1.36-0.8-1.58C41.76,230.37,41.05,230.73,40.83,231.39z M38.84,238.49
	c-0.2,0.66,0.18,1.36,0.84,1.56c0.66,0.2,1.36-0.18,1.56-0.84c0.2-0.66-0.18-1.36-0.84-1.56C39.74,237.45,39.04,237.82,38.84,238.49
	z M37.04,245.64c-0.18,0.67,0.21,1.35,0.88,1.53c0.67,0.18,1.35-0.21,1.53-0.88s-0.21-1.35-0.88-1.53
	C37.91,244.58,37.22,244.97,37.04,245.64z M33.99,260.06c-0.15,0.67,0.28,1.34,0.96,1.49c0.67,0.15,1.34-0.28,1.49-0.96
	c0.15-0.67-0.28-1.34-0.96-1.49C34.8,258.96,34.14,259.39,33.99,260.06z M32.75,267.33c-0.13,0.68,0.32,1.33,1,1.46
	s1.33-0.32,1.46-1s-0.32-1.33-1-1.46S32.88,266.65,32.75,267.33z M31.71,274.63c-0.11,0.68,0.35,1.32,1.03,1.43
	c0.68,0.11,1.32-0.35,1.43-1.03c0.11-0.68-0.35-1.32-1.03-1.43C32.46,273.49,31.82,273.95,31.71,274.63z M30.19,289.3
	c-0.07,0.69,0.42,1.3,1.11,1.38c0.69,0.07,1.3-0.42,1.38-1.11s-0.42-1.3-1.11-1.38S30.26,288.61,30.19,289.3z M29.71,296.66
	c-0.06,0.69,0.46,1.29,1.14,1.35c0.69,0.06,1.29-0.46,1.35-1.14c0.06-0.69-0.46-1.29-1.14-1.35
	C30.37,295.46,29.77,295.97,29.71,296.66z M29.44,304.02c-0.04,0.69,0.49,1.28,1.18,1.32c0.69,0.04,1.28-0.49,1.32-1.18
	c0.04-0.69-0.49-1.28-1.18-1.32C30.06,302.81,29.47,303.33,29.44,304.02z M29.46,318.77c0,0.69,0.56,1.25,1.25,1.25
	c0.69,0,1.25-0.56,1.25-1.25c0-0.69-0.56-1.25-1.25-1.25C30.02,317.52,29.46,318.08,29.46,318.77z M29.76,326.14
	c0.02,0.69,0.59,1.24,1.28,1.22c0.69-0.02,1.24-0.59,1.22-1.28c-0.02-0.69-0.59-1.24-1.28-1.22
	C30.29,324.87,29.74,325.45,29.76,326.14z M30.25,333.49c0.03,0.69,0.62,1.22,1.31,1.19c0.69-0.03,1.22-0.62,1.19-1.31
	s-0.62-1.22-1.31-1.19C30.75,332.22,30.21,332.8,30.25,333.49z M31.81,348.16c0.07,0.69,0.68,1.19,1.37,1.12
	c0.69-0.07,1.19-0.68,1.12-1.37c-0.07-0.69-0.68-1.19-1.37-1.12C32.24,346.86,31.74,347.47,31.81,348.16z M32.88,355.45
	c0.09,0.68,0.71,1.17,1.4,1.08c0.68-0.09,1.17-0.71,1.08-1.4c-0.09-0.68-0.71-1.17-1.4-1.08C33.27,354.14,32.79,354.77,32.88,355.45
	z M34.14,362.72c0.11,0.68,0.74,1.15,1.43,1.04s1.15-0.74,1.04-1.43c-0.11-0.68-0.74-1.15-1.43-1.04S34.03,362.03,34.14,362.72z
	 M37.22,377.14c0.14,0.68,0.8,1.11,1.48,0.97s1.11-0.8,0.97-1.48c-0.14-0.68-0.8-1.11-1.48-0.97
	C37.52,375.8,37.08,376.46,37.22,377.14z M39.05,384.28c0.16,0.67,0.83,1.09,1.5,0.93c0.67-0.16,1.09-0.83,0.93-1.5
	c-0.16-0.67-0.83-1.09-1.5-0.93C39.31,382.93,38.89,383.61,39.05,384.28z M41.06,391.37c0.18,0.67,0.86,1.07,1.53,0.89
	c0.67-0.18,1.07-0.86,0.89-1.53c-0.18-0.67-0.86-1.07-1.53-0.89C41.28,390.02,40.88,390.71,41.06,391.37z M45.64,405.39
	c0.21,0.66,0.92,1.02,1.57,0.81c0.66-0.21,1.02-0.92,0.81-1.57c-0.21-0.66-0.92-1.02-1.57-0.81S45.43,404.73,45.64,405.39z
	 M48.2,412.3c0.23,0.65,0.94,0.99,1.59,0.77s0.99-0.94,0.77-1.59c-0.23-0.65-0.94-0.99-1.59-0.77S47.97,411.65,48.2,412.3z
	 M50.94,419.15c0.25,0.65,0.97,0.97,1.61,0.72c0.65-0.25,0.97-0.97,0.72-1.61c-0.25-0.65-0.97-0.97-1.61-0.72
	C51.02,417.78,50.69,418.5,50.94,419.15z M56.96,432.61c0.28,0.63,1.02,0.92,1.65,0.64c0.63-0.28,0.92-1.02,0.64-1.65
	c-0.28-0.63-1.02-0.92-1.65-0.64S56.68,431.98,56.96,432.61z M60.23,439.22c0.3,0.62,1.04,0.89,1.66,0.59
	c0.62-0.3,0.89-1.04,0.59-1.66c-0.3-0.62-1.04-0.89-1.66-0.59C60.2,437.85,59.93,438.6,60.23,439.22z M63.67,445.74
	c0.31,0.62,1.06,0.86,1.68,0.55c0.62-0.31,0.86-1.06,0.55-1.68s-1.06-0.86-1.68-0.55C63.6,444.37,63.36,445.12,63.67,445.74z
	 M71.06,458.5c0.34,0.6,1.11,0.81,1.71,0.46s0.81-1.11,0.46-1.71c-0.34-0.6-1.11-0.81-1.71-0.46S70.72,457.9,71.06,458.5z
	 M75,464.73c0.36,0.59,1.13,0.78,1.72,0.42c0.59-0.36,0.78-1.13,0.42-1.72c-0.36-0.59-1.13-0.78-1.72-0.42
	C74.83,463.37,74.64,464.14,75,464.73z M79.11,470.86c0.37,0.58,1.15,0.75,1.73,0.37c0.58-0.37,0.75-1.15,0.37-1.73
	c-0.37-0.58-1.15-0.75-1.73-0.37C78.9,469.5,78.73,470.28,79.11,470.86z M87.79,482.77c0.4,0.56,1.19,0.69,1.75,0.28
	c0.56-0.4,0.69-1.19,0.28-1.75c-0.4-0.56-1.19-0.69-1.75-0.28C87.51,481.43,87.39,482.21,87.79,482.77z M92.37,488.56
	c0.42,0.55,1.2,0.65,1.75,0.24s0.65-1.2,0.24-1.75s-1.2-0.65-1.75-0.24S91.95,488.01,92.37,488.56z M97.09,494.22
	c0.43,0.54,1.22,0.62,1.76,0.19c0.54-0.43,0.62-1.22,0.19-1.76c-0.43-0.54-1.22-0.62-1.76-0.19S96.66,493.68,97.09,494.22z
	 M106.97,505.16c0.46,0.51,1.25,0.56,1.77,0.1s0.56-1.25,0.1-1.77c-0.46-0.51-1.25-0.56-1.77-0.1
	C106.55,503.86,106.51,504.65,106.97,505.16z M112.12,510.44c0.47,0.5,1.26,0.53,1.77,0.05s0.53-1.26,0.05-1.77
	s-1.26-0.53-1.77-0.05S111.65,509.94,112.12,510.44z M117.41,515.58c0.49,0.49,1.28,0.49,1.77,0.01c0.49-0.49,0.49-1.28,0.01-1.77
	c-0.49-0.49-1.28-0.49-1.77-0.01C116.93,514.29,116.93,515.09,117.41,515.58z M128.38,525.43c0.51,0.46,1.3,0.42,1.77-0.09
	s0.42-1.3-0.09-1.77c-0.51-0.46-1.3-0.42-1.77,0.09C127.83,524.17,127.87,524.96,128.38,525.43z M134.06,530.13
	c0.52,0.45,1.31,0.39,1.76-0.13c0.45-0.52,0.39-1.31-0.13-1.76c-0.52-0.45-1.31-0.39-1.76,0.13
	C133.48,528.89,133.54,529.68,134.06,530.13z M139.86,534.69c0.54,0.44,1.32,0.36,1.76-0.18c0.44-0.54,0.36-1.32-0.18-1.76
	c-0.54-0.44-1.32-0.36-1.76,0.18C139.24,533.47,139.32,534.25,139.86,534.69z M151.8,543.34c0.56,0.41,1.34,0.29,1.75-0.27
	c0.41-0.56,0.29-1.34-0.27-1.75s-1.34-0.29-1.75,0.27C151.12,542.15,151.24,542.93,151.8,543.34z M157.93,547.43
	c0.57,0.39,1.35,0.25,1.74-0.32s0.25-1.35-0.32-1.74c-0.57-0.39-1.35-0.25-1.74,0.32S157.37,547.04,157.93,547.43z M164.18,551.35
	c0.58,0.38,1.35,0.22,1.73-0.36c0.38-0.58,0.22-1.35-0.36-1.73c-0.58-0.38-1.35-0.22-1.73,0.36
	C163.44,550.2,163.6,550.98,164.18,551.35z M176.96,558.71c0.6,0.35,1.36,0.14,1.71-0.45c0.35-0.6,0.14-1.36-0.45-1.71
	c-0.6-0.35-1.36-0.14-1.71,0.45S176.36,558.36,176.96,558.71z M183.49,562.13c0.61,0.33,1.37,0.11,1.7-0.5
	c0.33-0.61,0.11-1.37-0.5-1.7s-1.37-0.11-1.7,0.5C182.66,561.04,182.88,561.8,183.49,562.13z M190.1,565.38
	c0.61,0.32,1.37,0.07,1.68-0.54s0.07-1.37-0.54-1.68c-0.61-0.32-1.37-0.07-1.68,0.54C189.25,564.32,189.49,565.07,190.1,565.38z
	 M203.58,571.36c0.63,0.28,1.37,0,1.65-0.63c0.28-0.63,0-1.37-0.63-1.65c-0.63-0.28-1.37,0-1.65,0.63
	C202.67,570.34,202.95,571.08,203.58,571.36z M210.44,574.09c0.64,0.27,1.37-0.03,1.64-0.67s-0.03-1.37-0.67-1.64
	c-0.64-0.27-1.37,0.03-1.64,0.67C209.5,573.09,209.8,573.82,210.44,574.09z M217.36,576.63c0.64,0.25,1.37-0.07,1.62-0.71
	c0.25-0.64-0.07-1.37-0.71-1.62s-1.37,0.07-1.62,0.71C216.39,575.65,216.71,576.38,217.36,576.63z M231.39,581.16
	c0.66,0.22,1.36-0.14,1.58-0.8c0.22-0.66-0.14-1.36-0.8-1.58c-0.66-0.22-1.36,0.14-1.58,0.8
	C230.37,580.24,230.73,580.95,231.39,581.16z M238.49,583.16c0.66,0.2,1.36-0.18,1.56-0.84c0.2-0.66-0.18-1.36-0.84-1.56
	c-0.66-0.2-1.36,0.18-1.56,0.84C237.45,582.26,237.83,582.96,238.49,583.16z M245.64,584.96c0.67,0.18,1.35-0.21,1.53-0.88
	c0.18-0.67-0.21-1.35-0.88-1.53c-0.67-0.18-1.35,0.21-1.53,0.88C244.58,584.09,244.97,584.78,245.64,584.96z M260.06,588.01
	c0.67,0.15,1.34-0.28,1.49-0.96c0.15-0.67-0.28-1.34-0.96-1.49c-0.67-0.15-1.34,0.28-1.49,0.96
	C258.96,587.2,259.39,587.86,260.06,588.01z M267.33,589.24c0.68,0.13,1.33-0.32,1.46-1c0.13-0.68-0.32-1.33-1-1.46
	c-0.68-0.13-1.33,0.32-1.46,1S266.65,589.12,267.33,589.24z M274.63,590.29c0.68,0.11,1.32-0.35,1.43-1.03
	c0.11-0.68-0.35-1.32-1.03-1.43c-0.68-0.11-1.32,0.35-1.43,1.03C273.49,589.54,273.95,590.18,274.63,590.29z M289.3,591.81
	c0.69,0.07,1.3-0.42,1.38-1.11c0.07-0.69-0.42-1.3-1.11-1.38c-0.69-0.07-1.3,0.42-1.38,1.11S288.61,591.74,289.3,591.81z
	 M296.66,592.29c0.69,0.06,1.29-0.46,1.35-1.14c0.06-0.69-0.46-1.29-1.14-1.35s-1.29,0.46-1.35,1.14
	C295.46,591.63,295.97,592.23,296.66,592.29z M304.02,592.56c0.69,0.04,1.28-0.49,1.32-1.18c0.04-0.69-0.49-1.28-1.18-1.32
	c-0.69-0.04-1.28,0.49-1.32,1.18C302.81,591.94,303.33,592.53,304.02,592.56z M318.77,592.54c0.69,0,1.25-0.56,1.25-1.25
	c0-0.69-0.56-1.25-1.25-1.25c-0.69,0-1.25,0.56-1.25,1.25C317.52,591.98,318.08,592.54,318.77,592.54z M326.14,592.24
	c0.69-0.02,1.24-0.59,1.22-1.28s-0.59-1.24-1.28-1.22c-0.69,0.02-1.24,0.59-1.22,1.28C324.87,591.71,325.45,592.26,326.14,592.24z
	 M333.49,591.75c0.69-0.03,1.22-0.62,1.19-1.31c-0.03-0.69-0.62-1.22-1.31-1.19c-0.69,0.03-1.22,0.62-1.19,1.31
	C332.22,591.25,332.8,591.79,333.49,591.75z M348.16,590.19c0.69-0.07,1.19-0.68,1.12-1.37c-0.07-0.69-0.68-1.19-1.37-1.12
	c-0.69,0.07-1.19,0.68-1.12,1.37C346.86,589.76,347.47,590.26,348.16,590.19z M355.45,589.12c0.68-0.09,1.17-0.71,1.08-1.4
	c-0.09-0.68-0.71-1.17-1.4-1.08c-0.68,0.09-1.17,0.71-1.08,1.4C354.14,588.73,354.77,589.21,355.45,589.12z M362.72,587.86
	c0.68-0.11,1.15-0.74,1.04-1.43c-0.11-0.68-0.74-1.15-1.43-1.04c-0.68,0.11-1.15,0.74-1.04,1.43
	C361.4,587.5,362.04,587.97,362.72,587.86z M377.14,584.78c0.68-0.14,1.11-0.8,0.97-1.48c-0.14-0.68-0.8-1.11-1.48-0.97
	c-0.68,0.14-1.11,0.8-0.97,1.48C375.8,584.48,376.46,584.92,377.14,584.78z M384.28,582.95c0.67-0.16,1.09-0.83,0.93-1.5
	s-0.83-1.09-1.5-0.93c-0.67,0.16-1.09,0.83-0.93,1.5C382.93,582.69,383.61,583.11,384.28,582.95z M391.37,580.94
	c0.67-0.18,1.07-0.86,0.89-1.53c-0.18-0.67-0.86-1.07-1.53-0.89c-0.67,0.18-1.07,0.86-0.89,1.53
	C390.02,580.72,390.71,581.12,391.37,580.94z M405.39,576.36c0.66-0.21,1.02-0.92,0.81-1.57s-0.92-1.02-1.57-0.81
	s-1.02,0.92-0.81,1.57C404.03,576.21,404.73,576.57,405.39,576.36z M412.31,573.8c0.65-0.23,0.99-0.94,0.77-1.59
	c-0.23-0.65-0.94-0.99-1.59-0.77c-0.65,0.23-0.99,0.94-0.77,1.59C410.94,573.69,411.65,574.03,412.31,573.8z M419.15,571.06
	c0.65-0.25,0.97-0.97,0.72-1.61c-0.25-0.65-0.97-0.97-1.61-0.72c-0.65,0.25-0.97,0.97-0.72,1.61
	C417.78,570.98,418.5,571.3,419.15,571.06z M432.61,565.04c0.63-0.28,0.92-1.02,0.64-1.65c-0.28-0.63-1.02-0.92-1.65-0.64
	c-0.63,0.28-0.92,1.02-0.64,1.65S431.98,565.32,432.61,565.04z M439.22,561.77c0.62-0.3,0.89-1.04,0.59-1.66
	c-0.3-0.62-1.04-0.89-1.66-0.59c-0.62,0.3-0.89,1.04-0.59,1.66S438.6,562.07,439.22,561.77z M445.74,558.33
	c0.62-0.31,0.86-1.06,0.55-1.68c-0.31-0.62-1.06-0.86-1.68-0.55s-0.86,1.06-0.55,1.68C444.37,558.39,445.13,558.64,445.74,558.33z
	 M458.5,550.94c0.6-0.34,0.81-1.11,0.46-1.71s-1.11-0.81-1.71-0.46c-0.6,0.34-0.81,1.11-0.46,1.71S457.9,551.28,458.5,550.94z
	 M464.73,547c0.59-0.36,0.78-1.13,0.42-1.72c-0.36-0.59-1.13-0.78-1.72-0.42s-0.78,1.13-0.42,1.72S464.14,547.35,464.73,547z
	 M470.86,542.89c0.58-0.37,0.75-1.15,0.37-1.73c-0.37-0.58-1.15-0.75-1.73-0.37c-0.58,0.37-0.75,1.15-0.37,1.73
	C469.5,543.1,470.28,543.26,470.86,542.89z M482.77,534.21c0.56-0.4,0.69-1.19,0.28-1.75c-0.4-0.56-1.19-0.69-1.75-0.28
	c-0.56,0.4-0.69,1.19-0.28,1.75C481.43,534.48,482.21,534.61,482.77,534.21z M488.56,529.63c0.55-0.42,0.65-1.2,0.24-1.75
	c-0.42-0.55-1.2-0.65-1.75-0.24c-0.55,0.42-0.65,1.2-0.24,1.75S488.01,530.05,488.56,529.63z M494.22,524.91
	c0.54-0.43,0.62-1.22,0.19-1.76c-0.43-0.54-1.22-0.62-1.76-0.19c-0.54,0.43-0.62,1.22-0.19,1.76S493.68,525.34,494.22,524.91z
	 M505.16,515.03c0.51-0.46,0.56-1.25,0.1-1.77c-0.46-0.51-1.25-0.56-1.77-0.1s-0.56,1.25-0.1,1.77
	C503.86,515.45,504.65,515.49,505.16,515.03z M510.44,509.88c0.5-0.47,0.53-1.26,0.05-1.77s-1.26-0.53-1.77-0.05
	c-0.5,0.47-0.53,1.26-0.05,1.77C509.14,510.33,509.94,510.35,510.44,509.88z M515.58,504.59c0.49-0.49,0.49-1.28,0.01-1.77
	c-0.49-0.49-1.28-0.49-1.77-0.01c-0.49,0.49-0.49,1.28-0.01,1.77C514.29,505.07,515.09,505.07,515.58,504.59z M525.43,493.62
	c0.46-0.51,0.42-1.3-0.09-1.77c-0.51-0.46-1.3-0.42-1.77,0.09s-0.42,1.3,0.09,1.77C524.17,494.17,524.96,494.13,525.43,493.62z
	 M530.13,487.94c0.45-0.52,0.39-1.31-0.13-1.76c-0.52-0.45-1.31-0.39-1.76,0.13c-0.45,0.52-0.39,1.31,0.13,1.76
	C528.89,488.52,529.68,488.46,530.13,487.94z M534.69,482.14c0.44-0.54,0.36-1.32-0.18-1.76c-0.54-0.44-1.32-0.36-1.76,0.18
	s-0.36,1.32,0.18,1.76C533.47,482.76,534.25,482.68,534.69,482.14z M543.34,470.2c0.41-0.56,0.29-1.34-0.27-1.75
	s-1.34-0.29-1.75,0.27c-0.41,0.56-0.29,1.34,0.27,1.75C542.15,470.88,542.93,470.76,543.34,470.2z M547.43,464.06
	c0.39-0.57,0.25-1.35-0.32-1.74s-1.35-0.25-1.74,0.32c-0.39,0.57-0.25,1.35,0.32,1.74S547.04,464.63,547.43,464.06z M551.35,457.82
	c0.38-0.58,0.22-1.35-0.36-1.73c-0.58-0.38-1.35-0.22-1.73,0.36s-0.22,1.35,0.36,1.73C550.2,458.56,550.98,458.4,551.35,457.82z
	 M558.71,445.04c0.35-0.6,0.14-1.36-0.45-1.71c-0.6-0.35-1.36-0.14-1.71,0.45c-0.35,0.6-0.14,1.36,0.45,1.71
	C557.6,445.84,558.36,445.64,558.71,445.04z M562.13,438.51c0.33-0.61,0.11-1.37-0.5-1.7c-0.61-0.33-1.37-0.11-1.7,0.5
	c-0.33,0.61-0.11,1.37,0.5,1.7C561.04,439.34,561.8,439.12,562.13,438.51z M565.39,431.89c0.32-0.61,0.07-1.37-0.54-1.68
	c-0.61-0.32-1.37-0.07-1.68,0.54s-0.07,1.37,0.54,1.68S565.07,432.51,565.39,431.89z M571.36,418.42c0.28-0.63,0-1.37-0.63-1.65
	c-0.63-0.28-1.37,0-1.65,0.63c-0.28,0.63,0,1.37,0.63,1.65S571.08,419.05,571.36,418.42z M574.09,411.56
	c0.27-0.64-0.03-1.37-0.67-1.64c-0.64-0.27-1.37,0.03-1.64,0.67c-0.27,0.64,0.03,1.37,0.67,1.64
	C573.09,412.5,573.82,412.2,574.09,411.56z M576.63,404.64c0.25-0.64-0.07-1.37-0.71-1.62s-1.37,0.07-1.62,0.71
	c-0.25,0.64,0.07,1.37,0.71,1.62C575.66,405.61,576.38,405.29,576.63,404.64z M581.17,390.61c0.22-0.66-0.14-1.36-0.8-1.58
	s-1.36,0.14-1.58,0.8s0.14,1.36,0.8,1.58S580.95,391.27,581.17,390.61z M583.16,383.51c0.2-0.66-0.18-1.36-0.84-1.56
	s-1.36,0.18-1.56,0.84s0.18,1.36,0.84,1.56C582.26,384.55,582.96,384.17,583.16,383.51z M584.96,376.36
	c0.18-0.67-0.21-1.35-0.88-1.53s-1.35,0.21-1.53,0.88c-0.18,0.67,0.21,1.35,0.88,1.53C584.09,377.42,584.78,377.03,584.96,376.36z
	 M588.01,361.94c0.15-0.67-0.28-1.34-0.96-1.49c-0.67-0.15-1.34,0.28-1.49,0.96c-0.15,0.67,0.28,1.34,0.96,1.49
	C587.2,363.04,587.86,362.61,588.01,361.94z M589.25,354.67c0.13-0.68-0.32-1.33-1-1.46s-1.33,0.32-1.46,1
	c-0.13,0.68,0.32,1.33,1,1.46C588.46,355.79,589.12,355.35,589.25,354.67z M590.29,347.37c0.11-0.68-0.35-1.32-1.03-1.43
	c-0.68-0.11-1.32,0.35-1.43,1.03c-0.11,0.68,0.35,1.32,1.03,1.43C589.54,348.51,590.18,348.05,590.29,347.37z M591.81,332.7
	c0.07-0.69-0.42-1.3-1.11-1.38c-0.69-0.07-1.3,0.42-1.38,1.11c-0.07,0.69,0.42,1.3,1.11,1.38
	C591.12,333.88,591.74,333.39,591.81,332.7z M592.29,325.34c0.06-0.69-0.46-1.29-1.14-1.35s-1.29,0.46-1.35,1.14
	s0.46,1.29,1.14,1.35C591.63,326.54,592.23,326.03,592.29,325.34z M592.56,317.98c0.04-0.69-0.49-1.28-1.18-1.32
	c-0.69-0.04-1.28,0.49-1.32,1.18c-0.04,0.69,0.49,1.28,1.18,1.32C591.94,319.19,592.53,318.66,592.56,317.98z M592.54,303.23
	c0-0.69-0.56-1.25-1.25-1.25c-0.69,0-1.25,0.56-1.25,1.25c0,0.69,0.56,1.25,1.25,1.25C591.98,304.48,592.54,303.92,592.54,303.23z
	 M592.24,295.86c-0.02-0.69-0.59-1.24-1.28-1.22s-1.24,0.59-1.22,1.28c0.02,0.69,0.59,1.24,1.28,1.22
	C591.71,297.13,592.26,296.55,592.24,295.86z M591.75,288.51c-0.03-0.69-0.62-1.22-1.31-1.19c-0.69,0.03-1.22,0.62-1.19,1.31
	s0.62,1.22,1.31,1.19C591.25,289.78,591.79,289.19,591.75,288.51z M590.19,273.84c-0.07-0.69-0.68-1.19-1.37-1.12
	c-0.69,0.07-1.19,0.68-1.12,1.37c0.07,0.69,0.68,1.19,1.37,1.12C589.76,275.14,590.26,274.53,590.19,273.84z M589.12,266.55
	c-0.09-0.68-0.71-1.17-1.4-1.08c-0.68,0.09-1.17,0.71-1.08,1.4c0.09,0.68,0.71,1.17,1.4,1.08
	C588.73,267.86,589.21,267.23,589.12,266.55z M587.86,259.28c-0.11-0.68-0.74-1.15-1.43-1.04c-0.68,0.11-1.15,0.74-1.04,1.43
	c0.11,0.68,0.74,1.15,1.43,1.04C587.5,260.6,587.97,259.96,587.86,259.28z M584.78,244.86c-0.14-0.68-0.8-1.11-1.48-0.97
	c-0.68,0.14-1.11,0.8-0.97,1.48c0.14,0.68,0.8,1.11,1.48,0.97C584.48,246.2,584.92,245.54,584.78,244.86z M582.95,237.72
	c-0.16-0.67-0.83-1.09-1.5-0.93s-1.09,0.83-0.93,1.5c0.16,0.67,0.83,1.09,1.5,0.93C582.69,239.06,583.11,238.39,582.95,237.72z
	 M580.94,230.63c-0.18-0.67-0.86-1.07-1.53-0.89s-1.07,0.86-0.89,1.53c0.18,0.67,0.86,1.07,1.53,0.89
	C580.72,231.98,581.12,231.29,580.94,230.63z M576.36,216.61c-0.21-0.66-0.92-1.02-1.57-0.81s-1.02,0.92-0.81,1.57
	s0.92,1.02,1.57,0.81C576.21,217.97,576.57,217.27,576.36,216.61z M573.8,209.69c-0.23-0.65-0.94-0.99-1.59-0.77
	c-0.65,0.23-0.99,0.94-0.77,1.59c0.23,0.65,0.94,0.99,1.59,0.77C573.69,211.06,574.03,210.35,573.8,209.69z M571.06,202.85
	c-0.25-0.65-0.97-0.97-1.61-0.72c-0.65,0.25-0.97,0.97-0.72,1.61s0.97,0.97,1.61,0.72C570.98,204.22,571.31,203.49,571.06,202.85z
	 M565.04,189.39c-0.28-0.63-1.02-0.92-1.65-0.64c-0.63,0.28-0.92,1.02-0.64,1.65c0.28,0.63,1.02,0.92,1.65,0.64
	S565.32,190.02,565.04,189.39z M561.77,182.78c-0.3-0.62-1.04-0.89-1.66-0.59s-0.89,1.04-0.59,1.66s1.04,0.89,1.66,0.59
	S562.07,183.4,561.77,182.78z"/>
<path id="Stroke_Ring" class="st3" d="M586,311c0,151.88-123.12,275-275,275S36,462.88,36,311S159.12,36,311,36S586,159.12,586,311z
	 M311,25C153.05,25,25,153.05,25,311s128.05,286,286,286s286-128.05,286-286S468.95,25,311,25z"/>
<path id="Stroke_Lines" class="st4" d="M370.51,31.01l-2.32,10.92 M340.92,26.32l-1.17,11.11 M311,24.75v11.17 M281.08,26.32
	l1.17,11.11 M251.49,31.01l2.32,10.92 M222.54,38.76l3.45,10.62 M194.57,49.5l4.54,10.2 M167.88,63.1l5.58,9.67 M142.75,79.42
	l6.56,9.03 M126.93,106.57l-7.47-8.3 M98.27,119.46l8.3,7.47 M79.42,142.75l9.03,6.56 M72.77,173.46l-9.67-5.58 M59.7,199.11
	l-10.2-4.54 M49.38,225.99l-10.62-3.45 M31.01,251.49l10.92,2.32 M26.32,281.08l11.11,1.17 M24.75,311h11.17 M26.32,340.92
	l11.11-1.17 M31.01,370.51l10.92-2.32 M38.76,399.46l10.62-3.45 M49.5,427.43l10.2-4.54 M63.1,454.13l9.67-5.58 M79.42,479.25
	l9.03-6.56 M98.27,502.54l8.3-7.47 M119.46,523.73l7.47-8.3 M142.75,542.58l6.56-9.03 M167.88,558.9l5.58-9.67 M199.11,562.3
	l-4.54,10.2 M225.99,572.62l-3.45,10.62 M253.81,580.07l-2.32,10.92 M281.08,595.68l1.17-11.11 M311,597.25v-11.17 M340.92,595.68
	l-1.17-11.11 M370.51,590.99l-2.32-10.92 M399.46,583.24l-3.45-10.62 M427.43,572.5l-4.54-10.2 M454.13,558.9l-5.58-9.67
	 M472.69,533.55l6.56,9.03 M495.07,515.43l7.47,8.3 M523.73,502.54l-8.3-7.47 M542.58,479.25l-9.03-6.56 M558.9,454.13l-9.67-5.58
	 M572.5,427.43l-10.2-4.54 M583.24,399.46l-10.62-3.45 M590.99,370.51l-10.92-2.32 M595.68,340.92l-11.11-1.17 M597.25,311h-11.17
	 M584.58,282.25l11.11-1.17 M590.99,251.49l-10.92,2.32 M583.24,222.54l-10.62,3.45 M572.5,194.57l-10.2,4.54 M549.23,173.46
	l9.67-5.58 M542.58,142.75l-9.03,6.56 M523.73,119.46l-8.3,7.47 M502.54,98.27l-7.47,8.3 M479.25,79.42l-6.56,9.03 M454.13,63.1
	l-5.58,9.67 M427.43,49.5l-4.54,10.2 M399.46,38.76l-3.45,10.62"/>
<g id="Inner_1" class="st5">
	<path d="M310.99,127.49c101.19,0,183.51,82.32,183.51,183.51c0,101.19-82.32,183.51-183.51,183.51
		c-101.19,0-183.51-82.32-183.51-183.51C127.48,209.81,209.8,127.49,310.99,127.49 M310.99,124.49
		c-102.84,0-186.51,83.67-186.51,186.51c0,102.84,83.67,186.51,186.51,186.51c102.84,0,186.51-83.67,186.51-186.51
		C497.5,208.16,413.83,124.49,310.99,124.49L310.99,124.49z"/>
</g>
<g id="Inner_2" class="st5">
	<path d="M310.99,130.49c99.54,0,180.51,80.98,180.51,180.51c0,99.53-80.98,180.51-180.51,180.51
		c-99.53,0-180.51-80.98-180.51-180.51C130.48,211.47,211.45,130.49,310.99,130.49 M310.99,124.49
		c-102.84,0-186.51,83.67-186.51,186.51c0,102.84,83.67,186.51,186.51,186.51c102.84,0,186.51-83.67,186.51-186.51
		C497.5,208.16,413.83,124.49,310.99,124.49L310.99,124.49z"/>
</g>
<g id="Outer_1" class="st5">
	<path d="M311,10c40.64,0,80.06,7.96,117.16,23.65c35.84,15.16,68.03,36.86,95.68,64.51c27.64,27.64,49.35,59.84,64.51,95.68
		C604.04,230.94,612,270.36,612,311c0,40.64-7.96,80.06-23.65,117.16c-15.16,35.84-36.86,68.03-64.51,95.68
		s-59.84,49.35-95.68,64.51C391.06,604.04,351.64,612,311,612c-40.64,0-80.06-7.96-117.16-23.65
		c-35.84-15.16-68.03-36.86-95.68-64.51C70.52,496.19,48.81,464,33.65,428.16C17.96,391.06,10,351.64,10,311
		c0-40.64,7.96-80.06,23.65-117.16C48.81,158,70.52,125.81,98.16,98.16c27.64-27.64,59.84-49.35,95.68-64.51
		C230.94,17.96,270.36,10,311,10 M311,5C142,5,5,142,5,311s137,306,306,306s306-137,306-306S480,5,311,5L311,5z"/>
</g>
<g id="Outer_2" class="st5">
	<path d="M311,15c39.96,0,78.73,7.82,115.21,23.26c35.25,14.91,66.9,36.25,94.09,63.44c27.19,27.19,48.53,58.84,63.44,94.09
		C599.18,232.27,607,271.04,607,311s-7.82,78.73-23.26,115.21c-14.91,35.25-36.25,66.9-63.44,94.09
		c-27.19,27.19-58.84,48.53-94.09,63.44C389.73,599.18,350.96,607,311,607s-78.73-7.82-115.21-23.26
		c-35.25-14.91-66.9-36.25-94.09-63.44c-27.19-27.19-48.53-58.84-63.44-94.09C22.82,389.73,15,350.96,15,311
		s7.82-78.73,23.26-115.21c14.91-35.25,36.25-66.9,63.44-94.09c27.19-27.19,58.84-48.53,94.09-63.44C232.27,22.82,271.04,15,311,15
		 M311,5C142,5,5,142,5,311s137,306,306,306s306-137,306-306S480,5,311,5L311,5z"/>
</g>
<g id="Outer_3" class="st5">
	<path d="M311,20c39.29,0,77.4,7.69,113.27,22.86c34.65,14.66,65.77,35.64,92.5,62.37c26.73,26.73,47.71,57.85,62.37,92.5
		C594.31,233.6,602,271.71,602,311s-7.69,77.4-22.86,113.27c-14.66,34.65-35.64,65.77-62.37,92.5
		c-26.73,26.73-57.85,47.71-92.5,62.37C388.4,594.31,350.29,602,311,602s-77.4-7.69-113.27-22.86
		c-34.65-14.66-65.77-35.64-92.5-62.37c-26.73-26.73-47.71-57.85-62.37-92.5C27.69,388.4,20,350.29,20,311s7.69-77.4,22.86-113.27
		c14.66-34.65,35.64-65.77,62.37-92.5s57.85-47.71,92.5-62.37C233.6,27.69,271.71,20,311,20 M311,5C142,5,5,142,5,311
		s137,306,306,306s306-137,306-306S480,5,311,5L311,5z"/>
</g>
</svg>
