<?xml version="1.0" encoding="utf-8"?>
<!-- Generator: Adobe Illustrator 19.2.1, SVG Export Plug-In . SVG Version: 6.00 Build 0)  -->
<svg version="1.1" id="Hour_1_" xmlns="http://www.w3.org/2000/svg" xmlns:xlink="http://www.w3.org/1999/xlink" x="0px" y="0px"
	 viewBox="0 0 622 622" style="enable-background:new 0 0 622 622;" xml:space="preserve">
<style type="text/css">
	.st0{opacity:0.13;}
	.st1{fill:#323232;}
</style>
<path id="Outer_4_" class="st0" d="M339.78,310.99c0-6.91-2.49-13.59-7.01-18.81c-3.88-4.48-9.04-7.64-14.73-9.07l0.6-18.55
	c0.01-0.32,0.02-0.64,0.02-0.96c0-0.41-0.01-0.81-0.03-1.22l-2.24-54.05c6.65-2.29,11.39-8.59,11.39-15.6
	c0-0.35-0.01-0.71-0.04-1.07c-0.58-8.76-3.48-13.19-6.03-17.1c-2.1-3.21-3.92-5.99-4.75-11.17c-1.35-8.43-1.83-17.08-2.18-23.4
	c-0.14-2.59-0.26-4.64-0.4-6.15c-0.17-1.74-0.48-4.98-3.52-4.98c-3.12,0-3.4,3.47-3.5,4.78c-0.11,1.36-0.16,3.19-0.23,5.5
	c-0.17,5.7-0.42,14.31-1.83,22.08c-1.04,5.75-3.05,8.95-5.17,12.35c-2.74,4.38-5.58,8.91-5.88,18.1c-0.01,0.19-0.01,0.38-0.01,0.57
	c0,7.12,4.45,13.45,10.88,15.92l-1.74,54.27c-0.01,0.32-0.02,0.64-0.02,0.97c0,0.41,0.01,0.81,0.02,1.21l0.76,18.46
	c-12.67,3.12-21.92,14.67-21.92,27.92c0,15.87,12.91,28.78,28.78,28.78S339.78,326.86,339.78,310.99L339.78,310.99z"/>
<path id="Inner_4_" class="st0" d="M338.28,310.99c0-6.55-2.36-12.88-6.65-17.83c-3.95-4.55-9.28-7.67-15.14-8.87l0.64-19.79
	c0.01-0.31,0.01-0.61,0.01-0.91c0-0.38-0.01-0.77-0.02-1.16l-2.29-55.21c6.61-1.75,11.44-7.77,11.44-14.51
	c0-0.32-0.01-0.64-0.03-0.97c-0.55-8.37-3.22-12.44-5.79-16.37c-2.11-3.22-4.1-6.26-4.97-11.75c-1.36-8.5-1.84-17.2-2.19-23.55
	c-0.14-2.58-0.26-4.61-0.4-6.09c-0.16-1.7-0.35-3.63-2.03-3.63c-1.73,0-1.9,2.04-2,3.4c-0.11,1.32-0.16,3.13-0.23,5.43
	c-0.17,5.74-0.43,14.42-1.86,22.3c-1.09,6.03-3.27,9.51-5.37,12.87c-2.64,4.21-5.36,8.57-5.65,17.36c-0.01,0.17-0.01,0.35-0.01,0.52
	c0,6.86,4.52,12.91,10.92,14.87l-1.78,55.38c-0.01,0.3-0.01,0.61-0.01,0.92c0,0.39,0.01,0.77,0.02,1.15l0.81,19.71
	c-12.62,2.5-21.97,13.76-21.97,26.73c0,15.04,12.24,27.28,27.28,27.28C326.04,338.27,338.28,326.03,338.28,310.99L338.28,310.99z"/>
<g id="Hour_2_">
	<path class="st1" d="M311,336.77c14.24,0,25.78-11.54,25.78-25.78c0-12.89-9.47-23.54-21.83-25.45l0.68-21.08
		c0.02-0.66,0.02-1.3-0.01-1.96l-2.34-56.46c6.58-1.14,11.93-7.06,11.46-14.19c-0.97-14.75-8.73-15.34-10.75-27.99
		c-2.47-15.48-2.09-32.01-3.14-32.01c-1.2,0-0.08,15.9-2.61,29.9c-2.53,13.95-10.5,14.7-11,30.01c-0.23,6.99,4.63,12.83,10.95,14.19
		l-1.82,56.57c-0.02,0.65-0.02,1.31,0.01,1.96l0.86,21.03c-12.45,1.82-22.02,12.52-22.02,25.48
		C285.22,325.23,296.76,336.77,311,336.77z"/>
</g>
</svg>
