<?xml version="1.0" encoding="utf-8"?>
<!-- Generator: Adobe Illustrator 19.2.1, SVG Export Plug-In . SVG Version: 6.00 Build 0)  -->
<svg version="1.1" id="Minute_1_" xmlns="http://www.w3.org/2000/svg" xmlns:xlink="http://www.w3.org/1999/xlink" x="0px" y="0px"
	 viewBox="0 0 622 622" style="enable-background:new 0 0 622 622;" xml:space="preserve">
<style type="text/css">
	.st0{opacity:0.13;}
	.st1{fill:#323232;}
</style>
<path id="Outer_1_" class="st0" d="M317.58,288.35l1.37-46.56c0.05-1.77,0.05-3.57,0-5.34l-2.28-73.91l1.02-75.31
	c0.02-1.71,0-3.44-0.08-5.15l-2.74-61.74l-7.48,0.03l-2.31,61.75c-0.06,1.71-0.08,3.44-0.04,5.15l1.55,75.3l-1.77,73.92
	c-0.04,1.77-0.03,3.57,0.03,5.34l1.67,46c-10.71,2.06-18.89,11.37-19.11,22.71c-0.26,13.03,10.1,23.8,23.13,24.06
	s23.8-10.1,24.06-23.13C334.79,300.56,327.58,291.25,317.58,288.35z"/>
<path id="Inner_1_" class="st0" d="M316.05,289.49l1.4-47.75c0.05-1.74,0.05-3.51,0-5.25l-2.28-73.94l1.02-75.35
	c0.02-1.68,0-3.38-0.08-5.06l-2.68-60.3l-4.6,0.02l-2.26,60.31c-0.06,1.68-0.08,3.38-0.04,5.06l1.55,75.34l-1.77,73.95
	c-0.04,1.74-0.03,3.51,0.03,5.25l1.72,47.32c-10.64,1.41-18.94,10.41-19.16,21.47c-0.24,12.2,9.46,22.29,21.66,22.53
	s22.29-9.46,22.53-21.66C333.29,300.83,325.98,291.82,316.05,289.49z"/>
<g id="Minute_2_">
	<path class="st1" d="M308.06,82.23c-0.06,1.66-0.08,3.32-0.04,4.97l1.55,75.37l-1.77,73.99c-0.04,1.72-0.03,3.44,0.03,5.16
		l1.77,48.75c-10.76,0.72-19.25,9.67-19.21,20.6c0.04,11.38,9.29,20.57,20.67,20.53c11.38-0.04,20.57-9.29,20.53-20.67
		c-0.04-10.15-7.41-18.54-17.07-20.21l1.44-49.03c0.05-1.72,0.05-3.44,0-5.16l-2.29-73.97l1.02-75.38c0.02-1.66,0-3.32-0.08-4.97
		l-2.62-58.86l-1.72,0.01L308.06,82.23z"/>
</g>
</svg>
