<?xml version="1.0" encoding="utf-8"?>
<!-- Generator: Adobe Illustrator 19.2.1, SVG Export Plug-In . SVG Version: 6.00 Build 0)  -->
<svg version="1.1" id="Second" xmlns="http://www.w3.org/2000/svg" xmlns:xlink="http://www.w3.org/1999/xlink" x="0px" y="0px"
	 viewBox="0 0 622 622" style="enable-background:new 0 0 622 622;" xml:space="preserve">
<style type="text/css">
	.st0{opacity:0.13;}
	.st1{fill:#A21F2A;}
	.st2{fill:#79151F;}
	.st3{fill:#8F1E28;}
	.st4{fill:#B8283A;}
</style>
<path id="Outer" class="st0" d="M319.33,422.46c-1.48-1.02-3.14-1.74-4.89-2.12l-0.15-94.41c6.96-1.53,12.11-7.79,11.98-15.19
	c-0.13-7.22-5.25-13.17-12.01-14.64c0,0-0.01-0.01-0.01-0.01l-0.45-278.55l-4.99,0l-0.58,278.46c0,0,0,0,0,0
	c-7.22,1.33-12.63,7.7-12.5,15.28c0.13,7.37,5.47,13.43,12.44,14.74l-0.2,94.43c-0.4,0.1-0.8,0.22-1.2,0.36
	c-2.78,0.98-5.14,2.78-6.81,5.21c-2.11,3.06-2.9,6.76-2.23,10.43c0.67,3.67,2.73,6.85,5.79,8.96c3.66,2.52,8.35,3.15,12.56,1.66
	c2.79-0.98,5.15-2.79,6.83-5.22c2.11-3.06,2.9-6.76,2.23-10.43C324.45,427.75,322.39,424.57,319.33,422.46z M316.51,437.44
	c-0.74,1.08-1.79,1.88-3.03,2.32c-1.87,0.66-3.95,0.38-5.58-0.74c-2.81-1.94-3.52-5.8-1.58-8.61c0.74-1.08,1.79-1.88,3.03-2.32
	c1.87-0.66,3.95-0.38,5.58,0.74C317.74,430.77,318.45,434.63,316.51,437.44z"/>
<path id="Inner" class="st0" d="M318.77,423.28c-1.59-1.09-3.41-1.82-5.32-2.12l-0.15-96.07c0,0,0.01-0.01,0.01-0.02
	c6.89-1.12,12.1-7.15,11.97-14.33c-0.13-7.03-5.31-12.76-12.02-13.83c0,0-0.01,0-0.01,0L312.8,18.53l-3,0l-0.58,278.31
	c-7.16,0.89-12.63,7.05-12.5,14.42c0.13,7.17,5.52,12.99,12.42,13.89c0.01,0,0.02,0.01,0.02,0.01l-0.2,96.09
	c-0.63,0.12-1.26,0.29-1.86,0.5c-2.58,0.91-4.77,2.58-6.32,4.83c-4.05,5.87-2.57,13.94,3.3,18c3.39,2.34,7.75,2.92,11.66,1.54
	c2.59-0.91,4.78-2.59,6.34-4.85c1.96-2.84,2.69-6.28,2.07-9.68C323.51,428.19,321.61,425.24,318.77,423.28z M317.34,438.01
	c-0.87,1.25-2.08,2.19-3.52,2.69c-2.17,0.76-4.59,0.44-6.48-0.86c-3.26-2.25-4.09-6.74-1.84-10c0.87-1.25,2.08-2.19,3.52-2.69
	c2.17-0.76,4.59-0.44,6.48,0.86c1.58,1.09,2.64,2.73,2.98,4.62C318.83,434.52,318.42,436.43,317.34,438.01z"/>
<g id="Base">
	<path class="st1" d="M318.2,424.1c-1.77-1.22-3.75-1.89-5.75-2.06l-0.16-97.83c0.01,0,0.01,0,0.02-0.01
		c6.82-0.67,12.09-6.47,11.96-13.44c-0.12-6.83-5.38-12.36-12.02-12.98L311.8,19.53h-1l-0.58,278.23c0,0-0.01,0-0.01,0
		c-7.07,0.42-12.62,6.33-12.5,13.48c0.12,6.97,5.61,12.59,12.45,13.01l-0.21,97.85c-3.26,0.41-6.35,2.14-8.36,5.05
		c-3.74,5.42-2.37,12.87,3.05,16.6c5.42,3.74,12.87,2.37,16.6-3.05C324.98,435.29,323.62,427.84,318.2,424.1z M318.16,438.58
		c-2.56,3.72-7.67,4.65-11.39,2.09c-3.72-2.56-4.65-7.67-2.09-11.39c2.56-3.72,7.67-4.65,11.39-2.09
		C319.78,429.75,320.72,434.86,318.16,438.58z"/>
</g>
<path id="Center_3_" class="st2" d="M310.99,300.7c-2.89,0-5.76,1.21-7.8,3.56c-3.72,4.3-3.25,10.81,1.05,14.53
	c1.95,1.68,4.35,2.51,6.74,2.51c2.89,0,5.76-1.21,7.8-3.56c3.72-4.3,3.25-10.81-1.05-14.53C315.78,301.53,313.38,300.7,310.99,300.7
	L310.99,300.7z"/>
<path class="st3" d="M316.74,304.35c-1.6-1.38-3.64-2.14-5.75-2.14c-2.56,0-4.99,1.11-6.66,3.05c-3.18,3.67-2.77,9.24,0.9,12.42
	c1.6,1.38,3.64,2.14,5.75,2.14c2.56,0,4.99-1.11,6.66-3.05C320.82,313.09,320.42,307.52,316.74,304.35z"/>
<ellipse id="Center_2_" transform="matrix(0.6541 -0.7564 0.7564 0.6541 -127.6755 342.8203)" class="st4" cx="310.99" cy="311" rx="5.1" ry="5.1"/>
<ellipse id="Center_6_" transform="matrix(0.6541 -0.7564 0.7564 0.6541 -127.6755 342.8203)" cx="310.99" cy="311" rx="3.25" ry="3.25"/>
</svg>
