<?xml version="1.0" encoding="utf-8"?>
<!-- Generator: Adobe Illustrator 20.0.0, SVG Export Plug-In . SVG Version: 6.00 Build 0)  -->
<svg version="1.1" id="Stuff" xmlns="http://www.w3.org/2000/svg" xmlns:xlink="http://www.w3.org/1999/xlink" x="0px" y="0px"
	 viewBox="0 0 620 620" style="enable-background:new 0 0 620 620;" xml:space="preserve">
<style type="text/css">
	.st0{fill:#C8C8C8;}
	.st1{fill:#DEDDDD;}
	.st2{fill:#0F3253;}
	.st3{opacity:0.2;}
	.st4{fill:#FFFFFF;}
	.st5{fill:none;stroke:#A7A9AC;stroke-width:1.5;stroke-miterlimit:10;}
	.st6{fill:none;stroke:#A7A9AC;stroke-width:3;stroke-miterlimit:10;}
	.st7{fill:none;stroke:#F5F5F5;stroke-width:10.5;stroke-miterlimit:10;}
	.st8{fill:#E0E0E0;}
	.st9{opacity:0.25;}
	.st10{fill:#0B2B47;}
	.st11{fill:#1D3D5C;}
	.st12{fill:#304E69;}
	.st13{fill:#A7A9AC;}
	.st14{fill:none;stroke:#A7A9AC;stroke-width:2;stroke-miterlimit:10;}
	.st15{fill:#F4F5F5;}
	.st16{fill:#E6E7E8;}
	.st17{fill:none;stroke:#E6E7E8;stroke-width:2;stroke-miterlimit:10;}
	.st18{fill:none;stroke:#A7A9AC;stroke-width:2;stroke-linecap:round;stroke-miterlimit:10;}
	.st19{fill:#181818;}
	.st20{opacity:0.5;}
	.st21{fill:#F1F2F2;stroke:#F1F2F2;stroke-width:0.5;stroke-miterlimit:10;}
	.st22{font-family:'ArialMT';}
	.st23{font-size:42.5825px;}
	.st24{opacity:0.13;}
</style>
<g id="Background_Elements">
	<g id="Outline">
		<path class="st0" d="M310,618.74c-82.47,0-160-32.11-218.31-90.43C33.38,470,1.26,392.47,1.26,310S33.38,150,91.69,91.69
			C150,33.38,227.53,1.26,310,1.26s160,32.11,218.31,90.43C586.62,150,618.74,227.53,618.74,310s-32.11,160-90.43,218.31
			S392.47,618.74,310,618.74z"/>
		<g>
			<path class="st1" d="M310,2.26c41.55,0,81.85,8.14,119.78,24.18c36.64,15.5,69.56,37.69,97.82,65.95
				c28.26,28.26,50.45,61.17,65.95,97.82c16.05,37.94,24.18,78.24,24.18,119.78s-8.14,81.85-24.18,119.78
				c-15.5,36.64-37.69,69.56-65.95,97.82c-28.26,28.26-61.17,50.45-97.82,65.95c-37.94,16.05-78.24,24.18-119.78,24.18
				s-81.85-8.14-119.78-24.18c-36.64-15.5-69.56-37.69-97.82-65.95c-28.26-28.26-50.45-61.17-65.95-97.82
				C10.4,391.85,2.26,351.55,2.26,310s8.14-81.85,24.18-119.78c15.5-36.64,37.69-69.56,65.95-97.82
				c28.26-28.26,61.17-50.45,97.82-65.95C228.15,10.4,268.45,2.26,310,2.26 M310,0.26C138.94,0.26,0.26,138.94,0.26,310
				S138.94,619.74,310,619.74S619.74,481.06,619.74,310S481.06,0.26,310,0.26L310,0.26z"/>
		</g>
	</g>
	<circle id="Tach_Background" class="st2" cx="310" cy="310" r="302.18"/>
	<circle id="Face_Frame" class="st0" cx="310" cy="310" r="260.35"/>
	<circle id="Background" class="st2" cx="310" cy="310" r="238.61"/>
	<g id="Tach_Shadow" class="st3">
		<path d="M310,10.82c40.39,0,79.57,7.91,116.45,23.51c35.63,15.07,67.62,36.64,95.1,64.12s49.05,59.47,64.12,95.1
			c15.6,36.88,23.51,76.06,23.51,116.45s-7.91,79.57-23.51,116.45c-15.07,35.63-36.64,67.62-64.12,95.1
			c-27.48,27.48-59.47,49.05-95.1,64.12c-36.88,15.6-76.06,23.51-116.45,23.51s-79.57-7.91-116.45-23.51
			c-35.63-15.07-67.62-36.64-95.1-64.12c-27.48-27.48-49.05-59.47-64.12-95.1C18.73,389.57,10.82,350.39,10.82,310
			s7.91-79.57,23.51-116.45c15.07-35.63,36.64-67.62,64.12-95.1s59.47-49.05,95.1-64.12C230.43,18.73,269.61,10.82,310,10.82
			 M310,573.35c35.55,0,70.04-6.96,102.51-20.7c31.36-13.26,59.52-32.25,83.71-56.44c24.18-24.18,43.17-52.35,56.44-83.71
			c13.73-32.47,20.7-66.96,20.7-102.51s-6.96-70.04-20.7-102.51c-13.26-31.36-32.25-59.52-56.44-83.71
			c-24.18-24.18-52.35-43.17-83.71-56.44c-32.47-13.73-66.96-20.7-102.51-20.7s-70.04,6.96-102.51,20.7
			c-31.36,13.26-59.52,32.25-83.71,56.44c-24.18,24.18-43.17,52.35-56.44,83.71c-13.73,32.47-20.7,66.96-20.7,102.51
			s6.96,70.04,20.7,102.51c13.26,31.36,32.25,59.52,56.44,83.71c24.18,24.18,52.35,43.17,83.71,56.44
			C239.96,566.39,274.45,573.35,310,573.35 M310,7.82C143.11,7.82,7.82,143.11,7.82,310S143.11,612.18,310,612.18
			S612.18,476.89,612.18,310S476.89,7.82,310,7.82L310,7.82z M310,570.35C166.21,570.35,49.65,453.79,49.65,310
			S166.21,49.65,310,49.65S570.35,166.21,570.35,310S453.79,570.35,310,570.35L310,570.35z"/>
	</g>
	<g id="Highlight_3_">
		<path class="st4" d="M310,51.65c34.88,0,68.71,6.83,100.56,20.3c30.76,13.01,58.39,31.64,82.12,55.37
			c23.73,23.73,42.36,51.36,55.37,82.12c13.47,31.85,20.3,65.68,20.3,100.56s-6.83,68.71-20.3,100.56
			c-13.01,30.76-31.64,58.39-55.37,82.12c-23.73,23.73-51.36,42.36-82.12,55.37c-31.85,13.47-65.68,20.3-100.56,20.3
			s-68.71-6.83-100.56-20.3c-30.76-13.01-58.39-31.64-82.12-55.37c-23.73-23.73-42.36-51.36-55.37-82.12
			c-13.47-31.85-20.3-65.68-20.3-100.56s6.83-68.71,20.3-100.56c13.01-30.76,31.64-58.39,55.37-82.12
			c23.73-23.73,51.36-42.36,82.12-55.37C241.29,58.48,275.12,51.65,310,51.65 M310,550.52c32.47,0,63.97-6.36,93.62-18.9
			c28.64-12.11,54.36-29.46,76.45-51.54c22.09-22.09,39.43-47.81,51.54-76.45c12.54-29.65,18.9-61.15,18.9-93.62
			c0-32.47-6.36-63.97-18.9-93.62c-12.11-28.64-29.46-54.36-51.54-76.45c-22.09-22.09-47.81-39.43-76.45-51.54
			c-29.65-12.54-61.15-18.9-93.62-18.9s-63.97,6.36-93.62,18.9c-28.64,12.11-54.36,29.46-76.45,51.54
			c-22.09,22.09-39.43,47.81-51.54,76.45c-12.54,29.65-18.9,61.15-18.9,93.62c0,32.47,6.36,63.97,18.9,93.62
			c12.11,28.64,29.46,54.36,51.54,76.45c22.09,22.09,47.81,39.43,76.45,51.54C246.03,544.16,277.53,550.52,310,550.52 M310,49.65
			C166.21,49.65,49.65,166.21,49.65,310S166.21,570.35,310,570.35S570.35,453.79,570.35,310S453.79,49.65,310,49.65L310,49.65z
			 M310,548.52C178.27,548.52,71.48,441.73,71.48,310S178.27,71.48,310,71.48S548.52,178.27,548.52,310S441.73,548.52,310,548.52
			L310,548.52z"/>
	</g>
</g>
<path id="_x31_.5_1_" class="st5" d="M288.77,108.03l-3.22-30.68 M261.36,81.18l6.41,30.17 M237.71,87.52l9.53,29.34 M227.4,124.47
	l-12.55-28.18 M172.5,120.74l18.13,24.96 M153.47,136.15l20.64,22.92 M136.15,153.47l22.92,20.64 M120.74,172.5l24.96,18.13
	 M124.47,227.4l-28.18-12.55 M87.52,237.71l29.34,9.53 M111.35,267.78l-30.17-6.41 M77.35,285.55l30.68,3.22 M77.35,334.45
	l30.68-3.22 M111.35,352.22l-30.17,6.41 M87.52,382.29l29.34-9.53 M96.29,405.15l28.18-12.55 M120.74,447.5l24.96-18.13
	 M136.15,466.53l22.92-20.64 M153.47,483.85l20.64-22.92 M190.63,474.3l-18.13,24.96 M214.85,523.71l12.55-28.18 M237.71,532.48
	l9.53-29.34 M261.36,538.82l6.41-30.17 M285.55,542.65l1.49-14.18 M334.45,542.65l-1.52-14.43 M358.64,538.82l-6.41-30.17
	 M382.29,532.48l-9.53-29.34 M405.15,523.71l-12.55-28.18 M447.5,499.26l-18.13-24.96 M466.53,483.85l-20.64-22.92 M460.92,445.89
	l22.92,20.64 M499.26,447.5l-24.96-18.13 M523.71,405.15l-28.18-12.55 M532.48,382.29l-29.34-9.53 M538.82,358.64l-30.17-6.41
	 M542.65,334.45l-30.68-3.22 M542.65,285.55l-30.68,3.22 M538.82,261.36l-30.17,6.41 M532.48,237.71l-29.34,9.53 M523.71,214.85
	l-28.18,12.55 M499.26,172.5l-24.96,18.13 M483.85,153.47l-22.92,20.64 M466.53,136.15l-20.64,22.92 M447.5,120.74l-18.13,24.96
	 M405.15,96.29l-12.55,28.18 M382.29,87.52l-9.53,29.34 M358.64,81.18l-6.41,30.17 M334.45,77.35l-3.22,30.68 M128.2,162.78
	l6.45,5.23 M120.77,187.11l-6.96-4.52 M101.56,203.8l7.4,3.77 M99.36,229.14l-7.75-2.98 M87.15,274.7l-8.2-1.3 M84.68,298.19
	l-8.29-0.43 M76.39,322.24l8.29-0.43 M87.15,345.3l-8.2,1.3 M99.36,390.86l-7.75,2.98 M101.56,416.2l7.4-3.77 M113.81,437.41
	l6.96-4.52 M128.2,457.22l6.45-5.23 M162.78,491.8l5.23-6.45 M182.59,506.19l4.52-6.96 M203.8,518.44l3.77-7.4 M226.17,528.4
	l2.98-7.75 M273.4,541.05l1.3-8.2 M297.76,543.61l0.43-8.29 M322.24,543.61l-0.43-8.29 M346.6,541.05l-1.3-8.2 M393.83,528.4
	l-2.98-7.75 M416.2,518.44l-3.77-7.4 M437.41,506.19l-4.52-6.96 M451.99,485.35l5.23,6.45 M491.8,457.22l-6.45-5.23 M506.19,437.41
	l-6.96-4.52 M518.44,416.2l-7.4-3.77 M528.4,393.83l-7.75-2.98 M541.05,346.6l-8.2-1.3 M543.61,322.24l-8.29-0.43 M543.61,297.76
	l-8.29,0.43 M541.05,273.4l-8.2,1.3 M528.4,226.17l-7.75,2.98 M518.44,203.8l-7.4,3.77 M506.19,182.59l-6.96,4.52 M491.8,162.78
	l-6.45,5.23 M451.99,134.65l5.23-6.45 M437.41,113.81l-4.52,6.96 M416.2,101.56l-3.77,7.4 M390.86,99.36l2.98-7.75 M346.6,78.95
	l-1.3,8.2 M322.24,76.39l-0.43,8.29 M297.76,76.39l0.43,8.29 M274.7,87.15l-1.3-8.2 M226.17,91.6l2.98,7.75 M207.57,108.96
	l-3.77-7.4 M182.59,113.81l4.52,6.96 M162.78,128.2l5.23,6.45 M144.58,144.58l5.87,5.87 M84.04,249.45l8.02,2.15 M84.04,370.55
	l8.02-2.15 M144.58,475.42l5.87-5.87 M249.45,535.96l2.15-8.02 M370.55,535.96l-2.15-8.02 M475.42,475.42l-5.87-5.87 M535.96,370.55
	l-8.02-2.15 M535.96,249.45l-8.02,2.15 M475.42,144.58l-5.87,5.87 M368.4,92.06l2.15-8.02 M249.45,84.04l2.15,8.02 M150.46,150.46
	l-5.87-5.87 M132.12,158.07l6.31,5.39 M117.21,177.5l6.84,4.7 M104.42,198.38l7.3,3.96 M93.87,220.48l7.67,3.18 M88.15,268.88
	l-8.17-1.51 M76.79,291.65l8.28,0.65 M76.15,316.12l8.3-0.22 M78.07,340.53l8.23-1.08 M89.49,388.09l7.83-2.77 M98.86,410.71
	l7.5-3.58 M110.54,432.23l7.08-4.34 M131,447.35l-6.59,5.06 M158.07,487.88l5.39-6.31 M177.5,502.79l4.7-6.84 M198.38,515.58
	l3.96-7.3 M220.48,526.13l3.18-7.67 M267.37,540.02l1.51-8.17 M291.65,543.21l0.65-8.28 M316.12,543.85l-0.22-8.3 M340.53,541.93
	l-1.08-8.23 M388.09,530.52l-2.77-7.83 M410.71,521.14l-3.58-7.5 M432.23,509.46l-4.34-7.08 M452.41,495.59l-5.06-6.59
	 M487.88,461.93l-6.31-5.39 M502.79,442.5l-6.84-4.7 M515.58,421.62l-7.3-3.96 M526.13,399.52l-7.67-3.18 M531.85,351.12l8.17,1.51
	 M543.21,328.35l-8.28-0.65 M535.55,304.09l8.3-0.22 M541.93,279.47l-8.23,1.08 M530.52,231.91l-7.83,2.77 M521.14,209.29l-7.5,3.58
	 M509.46,187.77l-7.08,4.34 M495.59,167.59l-6.59,5.06 M461.93,132.12l-5.39,6.31 M442.5,117.21l-4.7,6.84 M421.62,104.42l-3.96,7.3
	 M399.52,93.87l-3.18,7.67 M352.63,79.98l-1.51,8.17 M328.35,76.79l-0.65,8.28 M303.88,76.15l0.22,8.3 M280.55,86.3l-1.08-8.23
	 M231.91,89.49l2.77,7.83 M212.86,106.35l-3.58-7.5 M187.77,110.54l4.34,7.08 M167.59,124.41l5.06,6.59 M148.97,140.31l5.72,6.02
	 M85.7,243.56l7.96,2.36 M82.53,364.61l8.08-1.94 M146.33,465.31l-6.02,5.72 M243.56,534.3l2.36-7.96 M362.67,529.39l1.94,8.08
	 M471.03,479.69l-5.72-6.02 M526.34,374.08l7.96,2.36 M537.47,255.39l-8.08,1.94 M473.67,154.69l6.02-5.72 M376.44,85.7l-2.36,7.96
	 M255.39,82.53l1.94,8.08 M148.97,140.31l5.72,6.02 M131,172.65l-6.59-5.06 M110.54,187.77l7.08,4.34 M98.86,209.29l7.5,3.58
	 M89.49,231.91l7.83,2.77 M78.07,279.47l8.23,1.08 M76.15,303.88l8.3,0.22 M76.79,328.35l8.28-0.65 M79.98,352.63l8.17-1.51
	 M93.87,399.52l7.67-3.18 M104.42,421.62l7.3-3.96 M117.21,442.5l6.84-4.7 M138.43,456.53l-6.31,5.39 M167.59,495.59l5.06-6.59
	 M187.77,509.46l4.34-7.08 M209.29,521.14l3.58-7.5 M231.91,530.52l2.77-7.83 M279.47,541.93l1.08-8.23 M303.88,543.85l0.22-8.3
	 M327.7,534.93l0.65,8.28 M352.63,540.02l-1.51-8.17 M399.52,526.13l-3.18-7.67 M421.62,515.58l-3.96-7.3 M442.5,502.79l-4.7-6.84
	 M461.93,487.88l-5.39-6.31 M489,447.35l6.59,5.06 M509.46,432.23l-7.08-4.34 M521.14,410.71l-7.5-3.58 M522.69,385.32l7.83,2.77
	 M541.93,340.53l-8.23-1.08 M543.85,316.12l-8.3-0.22 M543.21,291.65l-8.28,0.65 M540.02,267.37l-8.17,1.51 M518.45,223.66
	l7.67-3.18 M515.58,198.38l-7.3,3.96 M502.79,177.5l-6.84,4.7 M487.88,158.07l-6.31,5.39 M452.41,124.41l-5.06,6.59 M432.23,110.54
	l-4.34,7.08 M410.71,98.86l-3.58,7.5 M388.09,89.49l-2.77,7.83 M339.45,86.3l1.08-8.23 M316.12,76.15l-0.22,8.3 M291.65,76.79
	l0.65,8.28 M267.37,79.98l1.51,8.17 M220.48,93.87l3.18,7.67 M198.38,104.42l3.96,7.3 M177.5,117.21l4.7,6.84 M158.07,132.12
	l5.39,6.31 M146.33,154.69l-6.02-5.72 M90.61,257.33l-8.08-1.94 M85.7,376.44l7.96-2.36 M148.97,479.69l5.72-6.02 M255.39,537.47
	l1.94-8.08 M374.08,526.34l2.36,7.96 M479.69,471.03l-6.02-5.72 M537.47,364.61l-8.08-1.94 M534.3,243.56l-7.96,2.36 M471.03,140.31
	l-5.72,6.02 M364.61,82.53l-1.94,8.08 M245.92,93.66l-2.36-7.96 M140.31,148.97l6.02,5.72"/>
<path id="Hour_Ticks" class="st6" d="M310,76.07v8.51 M193.03,107.41l4.25,7.37 M114.78,197.29l-7.37-4.25 M76.07,310h8.51
	 M107.41,426.97l7.37-4.25 M193.03,512.59l4.25-7.37 M310,543.93v-8.51 M426.97,512.59l-4.25-7.37 M512.59,426.97l-7.37-4.25
	 M543.93,310h-8.51 M512.59,193.03l-7.37,4.25 M426.97,107.41l-4.25,7.37 M310,76.07v8.51"/>
<path id="Hour_Markers" class="st7" d="M310,90.1v52.07 M226.09,164.66l-26.04-45.1 M119.56,200.05l45.1,26.04 M90.1,310h26.02
	 M119.56,419.95l45.1-26.04 M226.09,455.34l-26.04,45.1 M310,529.9v-14.45 M419.95,500.44l-26.04-45.1 M455.34,393.91l45.1,26.04
	 M529.9,310h-25.51 M500.44,200.05l-45.1,26.04 M419.95,119.56l-26.04,45.1 M310,90.1v52.07"/>
<g id="Hour_Stroke">
	<path class="st8" d="M416.41,120.98l4.08,2.36l-23.04,39.9l-4.08-2.36L416.41,120.98 M203.59,120.98l23.04,39.9l-4.08,2.36
		l-23.04-39.9L203.59,120.98 M123.34,199.51l39.9,23.04l-2.36,4.08l-39.9-23.04L123.34,199.51 M496.66,199.51l2.36,4.08l-39.9,23.04
		l-2.36-4.08L496.66,199.51 M526.9,307.64v4.71h-19.51v-4.71H526.9 M113.12,307.64v4.71H93.1v-4.71H113.12 M459.12,393.37
		l39.9,23.04l-2.36,4.08l-39.9-23.04L459.12,393.37 M160.88,393.37l2.36,4.08l-39.9,23.04l-2.36-4.08L160.88,393.37 M397.45,456.76
		l23.04,39.9l-4.08,2.36l-23.04-39.9L397.45,456.76 M222.55,456.76l4.08,2.36l-23.04,39.9l-4.08-2.36L222.55,456.76 M312.36,518.44
		v8.46h-4.71v-8.46H312.36 M315.36,90.1h-10.71H315.36v52.07V90.1L315.36,90.1z M304.64,90.1v52.07h10.71h-10.71V90.1L304.64,90.1z
		 M415.31,116.88l-26.04,45.1l9.28,5.36l26.04-45.1L415.31,116.88L415.31,116.88z M204.69,116.88l-9.28,5.36l26.04,45.1l9.28-5.36
		L204.69,116.88L204.69,116.88z M497.76,195.41l-45.1,26.04l5.36,9.28l45.1-26.04L497.76,195.41L497.76,195.41z M122.24,195.41
		l-5.36,9.28l45.1,26.04l5.36-9.28L122.24,195.41L122.24,195.41z M529.9,304.64h-25.51v10.71h25.51V304.64L529.9,304.64z
		 M116.12,304.64H90.1v10.71h26.02V304.64L116.12,304.64z M458.02,389.27l-5.36,9.28l45.1,26.04l5.36-9.28L458.02,389.27
		L458.02,389.27z M161.98,389.27l-45.1,26.04l5.36,9.28l45.1-26.04L161.98,389.27L161.98,389.27z M398.55,452.66l-9.28,5.36
		l26.04,45.1l9.28-5.36L398.55,452.66L398.55,452.66z M221.45,452.66l-26.04,45.1l9.28,5.36l26.04-45.1L221.45,452.66L221.45,452.66
		z M315.36,515.44h-10.71v14.46h10.71V515.44L315.36,515.44z"/>
</g>
<g id="Hour_Drop" class="st9">
	<path d="M315.36,90.1v52.07V90.1h-10.71H315.36 M304.64,90.1v52.07h10.71h-10.71V90.1 M415.31,116.88l9.28,5.36l-26.04,45.1
		l-9.28-5.36L415.31,116.88 M204.69,116.88l26.04,45.1l-9.28,5.36l-26.04-45.1L204.69,116.88 M497.76,195.41l5.36,9.28l-45.1,26.04
		l-5.36-9.28L497.76,195.41 M122.24,195.41l45.1,26.04l-5.36,9.28l-45.1-26.04L122.24,195.41 M529.9,304.64v10.71h-25.51v-10.71
		H529.9 M116.12,304.64v10.71H90.1v-10.71H116.12 M458.02,389.27l45.1,26.04l-5.36,9.28l-45.1-26.04L458.02,389.27 M161.98,389.27
		l5.36,9.28l-45.1,26.04l-5.36-9.28L161.98,389.27 M398.55,452.66l26.04,45.1l-9.28,5.36l-26.04-45.1L398.55,452.66 M221.45,452.66
		l9.28,5.36l-26.04,45.1l-9.28-5.36L221.45,452.66 M315.36,515.44v14.46h-10.71v-14.46H315.36 M315.36,87.1h-10.71v3h-3v52.07v3h3
		h10.71v-3h3V90.1h-3V87.1L315.36,87.1z M307.64,93.1h4.71v46.07h-4.71V93.1L307.64,93.1z M205.79,112.79l-2.6,1.5l-9.28,5.36
		l-2.6,1.5l1.5,2.6l26.04,45.1l1.5,2.6l2.6-1.5l9.28-5.36l2.6-1.5l-1.5-2.6l-26.04-45.1L205.79,112.79L205.79,112.79z
		 M414.21,112.79l-1.5,2.6l-26.04,45.1l-1.5,2.6l2.6,1.5l9.28,5.36l2.6,1.5l1.5-2.6l26.04-45.1l1.5-2.6l-2.6-1.5l-9.28-5.36
		L414.21,112.79L414.21,112.79z M498.86,191.31l-2.6,1.5l-45.1,26.04l-2.6,1.5l1.5,2.6l5.36,9.28l1.5,2.6l2.6-1.5l45.1-26.04
		l2.6-1.5l-1.5-2.6l-5.36-9.28L498.86,191.31L498.86,191.31z M121.14,191.31l-1.5,2.6l-5.36,9.28l-1.5,2.6l2.6,1.5l45.1,26.04
		l2.6,1.5l1.5-2.6l5.36-9.28l1.5-2.6l-2.6-1.5l-45.1-26.04L121.14,191.31L121.14,191.31z M532.9,301.64h-3h-25.51h-3v3v10.71v3h3
		h25.51h3v-3v-10.71V301.64L532.9,301.64z M119.12,301.64h-3H90.1h-3v3v10.71v3h3h26.02h3v-3v-10.71V301.64L119.12,301.64z
		 M456.92,385.17l-1.5,2.6l-5.36,9.28l-1.5,2.6l2.6,1.5l45.1,26.04l2.6,1.5l1.5-2.6l5.36-9.28l1.5-2.6l-2.6-1.5l-45.1-26.04
		L456.92,385.17L456.92,385.17z M163.08,385.17l-2.6,1.5l-45.1,26.04l-2.6,1.5l1.5,2.6l5.36,9.28l1.5,2.6l2.6-1.5l45.1-26.04
		l2.6-1.5l-1.5-2.6l-5.36-9.28L163.08,385.17L163.08,385.17z M220.35,448.56l-1.5,2.6l-26.04,45.1l-1.5,2.6l2.6,1.5l9.28,5.36
		l2.6,1.5l1.5-2.6l26.04-45.1l1.5-2.6l-2.6-1.5l-9.28-5.36L220.35,448.56L220.35,448.56z M399.65,448.56l-2.6,1.5l-9.28,5.36
		l-2.6,1.5l1.5,2.6l26.04,45.1l1.5,2.6l2.6-1.5l9.28-5.36l2.6-1.5l-1.5-2.6l-26.04-45.1L399.65,448.56L399.65,448.56z
		 M318.36,512.44h-3h-10.71h-3v3v14.46v3h3h10.71h3v-3v-14.46V512.44L318.36,512.44z"/>
</g>
<g id="Small_Dials">
	<path id="Frame" class="st10" d="M119.11,310c0-37.89,30.72-68.61,68.61-68.61s68.61,30.72,68.61,68.61s-30.72,68.61-68.61,68.61
		S119.11,347.89,119.11,310z M432.23,378.61c37.89,0,68.61-30.72,68.61-68.61s-30.72-68.61-68.61-68.61s-68.61,30.72-68.61,68.61
		S394.34,378.61,432.23,378.61z"/>
	<path id="Center" class="st11" d="M134.2,310c0-29.56,23.96-53.52,53.52-53.52s53.52,23.96,53.52,53.52s-23.96,53.52-53.52,53.52
		S134.2,339.56,134.2,310z M432.23,363.52c29.56,0,53.52-23.96,53.52-53.52s-23.96-53.52-53.52-53.52
		c-29.56,0-53.52,23.96-53.52,53.52S402.67,363.52,432.23,363.52z"/>
	<g id="Rim">
		<path class="st12" d="M432.23,243.39c36.73,0,66.61,29.88,66.61,66.61s-29.88,66.61-66.61,66.61s-66.61-29.88-66.61-66.61
			S395.5,243.39,432.23,243.39 M187.72,243.39c36.73,0,66.61,29.88,66.61,66.61s-29.88,66.61-66.61,66.61s-66.61-29.88-66.61-66.61
			S150.99,243.39,187.72,243.39 M432.23,241.39c-37.89,0-68.61,30.72-68.61,68.61s30.72,68.61,68.61,68.61s68.61-30.72,68.61-68.61
			S470.12,241.39,432.23,241.39L432.23,241.39z M187.72,241.39c-37.89,0-68.61,30.72-68.61,68.61s30.72,68.61,68.61,68.61
			c37.89,0,68.61-30.72,68.61-68.61S225.61,241.39,187.72,241.39L187.72,241.39z"/>
	</g>
	<path id="Number_Fill" class="st13" d="M201.62,263.26h-8.86c-1.59,0-2.89,1.29-2.89,2.89v8.64c0,1.59,1.29,2.89,2.89,2.89h8.86
		c1.59,0,2.89-1.29,2.89-2.89v-8.64C204.51,264.56,203.22,263.26,201.62,263.26z M202.5,275.78h-10.61v-10.61h10.61V275.78z
		 M187.62,273.35c0-1.7-1.35-3.08-3.05-3.08h-8.46c-0.77,0-1.39-0.62-1.39-1.39v-2.63c0-0.77,0.62-1.39,1.39-1.39h8.08
		c0.77,0,1.39,0.62,1.39,1.39v0.45h2.02v-0.62c0-1.7-1.38-3.08-3.08-3.08h-8.49c-1.7,0-3.08,1.38-3.08,3.08v8.55
		c0,1.7,1.38,3.08,3.08,3.08h8.49c1.7,0,3.11-1.38,3.11-3.08V273.35z M185.62,274.4c0,0.77-0.62,1.39-1.39,1.39h-8.03
		c-0.77,0-1.39-0.62-1.39-1.39v-1.11c0-0.77,0.62-1.39,1.39-1.39h8.03c0.77,0,1.39,0.62,1.39,1.39V274.4z M173.46,322.81h-8.86
		c-1.59,0-2.89,1.29-2.89,2.89v8.64c0,1.59,1.29,2.89,2.89,2.89h8.86c1.59,0,2.89-1.29,2.89-2.89v-8.64
		C176.34,324.1,175.05,322.81,173.46,322.81z M174.33,335.32h-10.61v-10.61h10.61V335.32z M228.3,322.81h-8.86
		c-1.59,0-2.89,1.29-2.89,2.89v8.64c0,1.59,1.29,2.89,2.89,2.89h8.86c1.59,0,2.89-1.29,2.89-2.89v-8.64
		C231.19,324.1,229.9,322.81,228.3,322.81z M229.18,335.32h-10.61v-10.61h10.61V335.32z"/>
	<path id="_x33__3_" class="st6" d="M244.44,343.02l-8.34-4.82 M187.95,254.01v-9.63 M139.11,337.79l-8.34,4.82 M488.22,310.23h9.63
		 M432.46,254.01v-9.63 M376.23,309.77h-9.63 M432,365.99v9.63"/>
	<path id="_x32__4_" class="st14" d="M215.52,358.61l4.82,8.34 M243.72,310.23h9.63 M236.33,282.21l8.34-4.82 M215.92,261.62
		l4.82-8.34 M155.11,253.05l4.82,8.34 M139.35,281.8l-8.34-4.82 M131.73,309.77h-9.63 M187.49,365.99v9.63 M159.52,358.38
		l-4.82,8.34 M159.23,333.1h-12.37l4.97-8.7h4.99v12.82 M213.95,336.32h-13.33v-0.89c0-0.74,0.39-1.44,1.02-1.83l11.12-6.89v-1.16
		c0-0.77-0.62-1.39-1.39-1.39h-9.35c-0.77,0-1.39,0.62-1.39,1.39v1.58 M460.02,358.61l4.82,8.34 M480.61,338.2l8.34,4.82
		 M480.84,282.21l8.34-4.82 M465.24,253.28l-4.82,8.34 M399.62,253.05l4.82,8.34 M383.85,281.8l-8.34-4.82 M375.28,342.61l8.34-4.82
		 M404.03,358.38l-4.82,8.34 M430.28,267.49v-1.58c0-0.77,0.62-1.39,1.39-1.39h9.35c0.77,0,1.39,0.62,1.39,1.39v1.16l-11.12,6.89
		c-0.63,0.39-1.02,1.08-1.02,1.83v0.89h13.33 M423.33,263.49v14.2 M467.11,314.46v1.28c0,0.88,0.71,1.59,1.59,1.59h9.47
		c0.88,0,1.59-0.71,1.59-1.59v-9.57c0-0.88-0.71-1.59-1.59-1.59h-9.47c-0.88,0-1.59,0.71-1.59,1.59v1.59 M473.01,310.57h6.35"/>
	<path id="_x31_.5" class="st5" d="M174.66,370.19l-0.82,3.95 M181.03,371.23l-0.4,4.01 M193.9,371.28l0.44,4.01 M200.28,370.3
		l0.86,3.94 M206.51,368.66l1.27,3.83 M212.54,366.37l1.66,3.67 M223.72,359.98l2.39,3.25 M228.74,355.95l2.71,2.98 M233.32,351.41
		l3.01,2.68 M237.4,346.41l3.27,2.35 M243.89,335.29l3.69,1.62 M246.22,329.28l3.84,1.22 M247.92,323.06l3.95,0.82 M248.95,316.69
		l4.01,0.4 M249,303.82l4.01-0.44 M248.02,297.45l3.94-0.86 M246.38,291.21l3.83-1.27 M244.09,285.18l3.67-1.66 M237.7,274
		l3.25-2.39 M233.67,268.98l2.98-2.71 M229.13,264.4l2.68-3.01 M224.13,260.32l2.35-3.27 M213.01,253.84l1.62-3.69 M207,251.5
		l1.22-3.84 M200.78,249.81l0.82-3.95 M194.42,248.77l0.4-4.01 M181.54,248.72l-0.44-4.01 M175.17,249.7l-0.86-3.94 M168.93,251.34
		l-1.27-3.83 M162.9,253.63l-1.66-3.67 M151.72,260.02l-2.39-3.25 M146.7,264.05l-2.71-2.98 M142.12,268.59l-3.01-2.68
		 M138.04,273.59l-3.27-2.35 M131.56,284.71l-3.69-1.62 M129.22,290.72l-3.84-1.22 M127.53,296.94l-3.95-0.82 M126.49,303.31
		l-4.01-0.4 M126.44,316.18l-4.01,0.44 M127.42,322.55l-3.94,0.86 M129.06,328.79l-3.83,1.27 M131.35,334.82l-3.67,1.66 M137.74,346
		l-3.25,2.39 M141.78,351.02l-2.98,2.71 M146.32,355.6l-2.68,3.01 M151.31,359.68l-2.35,3.27 M162.43,366.16l-1.62,3.69
		 M168.44,368.5l-1.22,3.84 M419.17,370.19l-0.82,3.95 M425.54,371.23l-0.4,4.01 M438.41,371.28l0.44,4.01 M444.78,370.3l0.86,3.94
		 M451.02,368.66l1.27,3.83 M457.05,366.37l1.66,3.67 M468.23,359.98l2.39,3.25 M473.25,355.95l2.71,2.98 M477.83,351.41l3.01,2.68
		 M481.91,346.41l3.27,2.35 M488.39,335.29l3.69,1.62 M490.73,329.28l3.84,1.22 M492.42,323.06l3.95,0.82 M493.46,316.69l4.01,0.4
		 M493.51,303.82l4.01-0.44 M492.53,297.45l3.94-0.86 M490.89,291.21l3.83-1.27 M488.6,285.18l3.67-1.66 M482.21,274l3.25-2.39
		 M478.18,268.98l2.98-2.71 M473.64,264.4l2.68-3.01 M468.64,260.32l2.35-3.27 M457.52,253.84l1.62-3.69 M451.51,251.5l1.22-3.84
		 M445.29,249.81l0.82-3.95 M438.92,248.77l0.4-4.01 M426.05,248.72l-0.44-4.01 M419.68,249.7l-0.86-3.94 M413.44,251.34l-1.27-3.83
		 M407.41,253.63l-1.66-3.67 M396.23,260.02l-2.39-3.25 M391.21,264.05l-2.71-2.98 M386.63,268.59l-3.01-2.68 M382.55,273.59
		l-3.27-2.35 M376.07,284.71l-3.69-1.62 M373.73,290.72l-3.84-1.22 M372.03,296.94l-3.95-0.82 M371,303.31l-4.01-0.4 M370.95,316.18
		l-4.01,0.44 M371.93,322.55l-3.94,0.86 M373.57,328.79l-3.83,1.27 M375.86,334.82l-3.67,1.66 M382.25,346l-3.25,2.39
		 M386.28,351.02l-2.98,2.71 M390.82,355.6l-2.68,3.01 M395.82,359.68l-2.35,3.27 M406.94,366.16l-1.62,3.69 M412.95,368.5
		l-1.22,3.84 M451.77,344.18l6.22,10.81 M466.24,329.83l10.79,6.25 M466.41,290.46l10.81-6.22 M452.06,275.99l6.25-10.79
		 M412.69,275.82l-6.22-10.81 M398.22,290.17l-10.79-6.25 M398.05,329.54l-10.81,6.22 M412.4,344.01l-6.25,10.79"/>
	<path id="_x39__6" class="st13" d="M439.65,354.11c0-1.7-1.35-3.08-3.05-3.08h-8.46c-0.77,0-1.39-0.62-1.39-1.39v-2.63
		c0-0.77,0.62-1.39,1.39-1.39h8.08c0.77,0,1.39,0.62,1.39,1.39v0.45h2.02v-0.62c0-1.7-1.38-3.08-3.08-3.08h-8.49
		c-1.7,0-3.08,1.38-3.08,3.08v8.55c0,1.7,1.38,3.08,3.08,3.08h8.49c1.7,0,3.11-1.38,3.11-3.08V354.11z M437.65,355.17
		c0,0.77-0.62,1.39-1.39,1.39h-8.03c-0.77,0-1.39-0.62-1.39-1.39v-1.11c0-0.77,0.62-1.39,1.39-1.39h8.03c0.77,0,1.39,0.62,1.39,1.39
		V355.17z M382.49,307.66c0,1.7,1.35,3.08,3.05,3.08H394c0.77,0,1.39,0.62,1.39,1.39v2.63c0,0.77-0.62,1.39-1.39,1.39h-8.08
		c-0.77,0-1.39-0.62-1.39-1.39v-0.45h-2.02v0.62c0,1.7,1.38,3.08,3.08,3.08h8.49c1.7,0,3.08-1.38,3.08-3.08v-8.55
		c0-1.7-1.38-3.08-3.08-3.08h-8.49c-1.7,0-3.11,1.38-3.11,3.08V307.66z M384.49,306.61c0-0.77,0.62-1.39,1.39-1.39h8.03
		c0.77,0,1.39,0.62,1.39,1.39v1.11c0,0.77-0.62,1.39-1.39,1.39h-8.03c-0.77,0-1.39-0.62-1.39-1.39V306.61z"/>
</g>
<g id="Noon_Circles">
	<path class="st15" d="M324.8,143.57c-2.39,0-4.34-1.95-4.34-4.34s1.95-4.34,4.34-4.34s4.34,1.95,4.34,4.34
		S327.19,143.57,324.8,143.57z M295.2,143.57c-2.39,0-4.34-1.95-4.34-4.34s1.95-4.34,4.34-4.34s4.34,1.95,4.34,4.34
		S297.59,143.57,295.2,143.57z"/>
	<path class="st8" d="M324.8,135.89c1.84,0,3.34,1.5,3.34,3.34s-1.5,3.34-3.34,3.34s-3.34-1.5-3.34-3.34S322.96,135.89,324.8,135.89
		 M295.2,135.89c1.84,0,3.34,1.5,3.34,3.34s-1.5,3.34-3.34,3.34s-3.34-1.5-3.34-3.34S293.36,135.89,295.2,135.89 M324.8,133.89
		c-2.95,0-5.34,2.39-5.34,5.34s2.39,5.34,5.34,5.34s5.34-2.39,5.34-5.34S327.74,133.89,324.8,133.89L324.8,133.89z M295.2,133.89
		c-2.95,0-5.34,2.39-5.34,5.34s2.39,5.34,5.34,5.34s5.34-2.39,5.34-5.34S298.15,133.89,295.2,133.89L295.2,133.89z"/>
</g>
<path id="Tach_Numbers" class="st16" d="M495.7,100.52c0.37,0.78,0.55,1.7,0.55,2.72c0,1.12-0.22,2.13-0.65,3.01
	c-0.43,0.89-1,1.58-1.68,2.05c-0.69,0.48-1.51,0.72-2.43,0.72c-1.25,0-2.3-0.42-3.11-1.24c-0.8-0.81-1.27-1.94-1.4-3.33l-0.02-0.25
	l2.2-0.21l0.03,0.24c0.23,1.83,0.98,2.73,2.29,2.73c0.44,0,0.83-0.12,1.18-0.36c0.36-0.24,0.67-0.64,0.94-1.18
	c0.27-0.55,0.41-1.23,0.41-2.02c0-1-0.24-1.81-0.7-2.41c-0.46-0.59-1.06-0.87-1.86-0.87c-0.97,0-1.68,0.45-2.18,1.38l-0.08,0.15
	l-1.96-0.29l1.36-8.47h7.03v2.32h-5.3l-0.56,3.38c0.68-0.45,1.39-0.67,2.13-0.67c0.86,0,1.62,0.24,2.27,0.71
	C494.82,99.1,495.33,99.73,495.7,100.52z M501.85,109.02c-3.04,0-4.58-2.76-4.58-8.19c0-5.45,1.54-8.21,4.58-8.21
	c3.03,0,4.56,2.76,4.56,8.21C506.42,106.27,504.88,109.02,501.85,109.02z M504.24,100.83c0-4.07-0.81-6.13-2.42-6.13
	c-1.58,0-2.38,2.06-2.38,6.13s0.81,6.13,2.41,6.13C503.44,106.96,504.24,104.9,504.24,100.83z M507.56,100.83
	c0-5.45,1.54-8.21,4.58-8.21c3.03,0,4.56,2.76,4.56,8.21c0,5.43-1.54,8.19-4.56,8.19C509.1,109.02,507.56,106.27,507.56,100.83z
	 M509.74,100.83c0,4.07,0.81,6.13,2.41,6.13c1.59,0,2.39-2.06,2.39-6.13s-0.81-6.13-2.42-6.13
	C510.54,94.7,509.74,96.77,509.74,100.83z M526.77,140.53h1.78v2.26h-1.78v3.73h-2.13v-3.73h-5.74v-2.08l0.04-0.06l6.12-10.21h1.72
	V140.53z M524.63,140.53v-5.84l-3.44,5.84H524.63z M529.71,138.58c0-5.45,1.54-8.21,4.58-8.21c3.03,0,4.56,2.76,4.56,8.21
	c0,5.43-1.54,8.19-4.56,8.19C531.25,146.77,529.71,144.02,529.71,138.58z M531.88,138.58c0,4.07,0.81,6.13,2.41,6.13
	c1.59,0,2.39-2.06,2.39-6.13s-0.81-6.13-2.42-6.13C532.68,132.46,531.88,134.52,531.88,138.58z M540,138.58
	c0-5.45,1.54-8.21,4.58-8.21c3.03,0,4.56,2.76,4.56,8.21c0,5.43-1.54,8.19-4.56,8.19C541.54,146.77,540,144.02,540,138.58z
	 M542.17,138.58c0,4.07,0.81,6.13,2.41,6.13c1.59,0,2.39-2.06,2.39-6.13s-0.81-6.13-2.42-6.13
	C542.97,132.46,542.17,134.52,542.17,138.58z M540.81,176.08c0.64,0.39,1.38,0.58,2.2,0.58c1.34,0,2.48-0.49,3.38-1.45
	c0.89-0.95,1.35-2.19,1.35-3.69c0-1.99-0.72-3.3-2.15-3.89c0.99-0.71,1.5-1.75,1.5-3.09c0-1.27-0.4-2.31-1.18-3.1
	c-0.78-0.79-1.78-1.2-2.95-1.2c-2.38,0-3.8,1.43-4.24,4.25l-0.04,0.23l2.11,0.45l0.04-0.27c0.23-1.74,0.94-2.58,2.15-2.58
	c0.56,0,1.01,0.19,1.38,0.58c0.37,0.39,0.55,0.93,0.55,1.59c0,0.29-0.04,0.56-0.11,0.8c-0.07,0.24-0.17,0.45-0.31,0.64
	c-0.14,0.19-0.31,0.35-0.5,0.49c-0.2,0.14-0.41,0.24-0.64,0.31c-0.24,0.07-0.5,0.11-0.75,0.12l-0.62-0.03l-0.25,2.29l0.36-0.11
	c0.43-0.13,0.79-0.2,1.08-0.2c0.69,0,1.24,0.25,1.68,0.76c0.44,0.52,0.67,1.19,0.67,2.02c0,0.59-0.11,1.11-0.33,1.56
	c-0.22,0.44-0.52,0.8-0.89,1.06c-0.37,0.26-0.78,0.39-1.26,0.39c-1.25,0-2.02-0.93-2.35-2.85l-0.04-0.24l-2.11,0.31l0.02,0.23
	c0.08,0.93,0.31,1.75,0.7,2.43C539.65,175.16,540.17,175.7,540.81,176.08z M557.55,168.15c-0.37-0.79-0.88-1.42-1.52-1.89
	c-0.65-0.47-1.42-0.71-2.27-0.71c-0.73,0-1.45,0.23-2.13,0.67l0.56-3.38h5.3v-2.32h-7.03l-1.36,8.47l1.96,0.29l0.08-0.15
	c0.5-0.93,1.21-1.38,2.18-1.38c0.8,0,1.41,0.29,1.86,0.87c0.46,0.6,0.7,1.41,0.7,2.41c0,0.79-0.14,1.47-0.41,2.02
	c-0.27,0.54-0.58,0.94-0.94,1.18c-0.36,0.24-0.74,0.36-1.18,0.36c-1.31,0-2.06-0.89-2.29-2.73l-0.03-0.24l-2.2,0.21l0.02,0.25
	c0.12,1.4,0.59,2.52,1.4,3.33c0.81,0.82,1.85,1.24,3.11,1.24c0.92,0,1.74-0.24,2.43-0.72c0.69-0.47,1.25-1.16,1.68-2.05
	c0.43-0.88,0.65-1.9,0.65-3.01C558.1,169.85,557.92,168.93,557.55,168.15z M559.12,168.46c0-5.45,1.54-8.21,4.58-8.21
	c3.03,0,4.56,2.76,4.56,8.21c0,5.43-1.54,8.19-4.56,8.19C560.67,176.65,559.12,173.89,559.12,168.46z M561.3,168.46
	c0,4.07,0.81,6.13,2.41,6.13c1.59,0,2.39-2.06,2.39-6.13s-0.81-6.13-2.42-6.13C562.1,162.33,561.3,164.39,561.3,168.46z
	 M564.59,216.14c-0.37,0.26-0.78,0.39-1.26,0.39c-1.25,0-2.02-0.93-2.35-2.85l-0.04-0.24l-2.11,0.31l0.02,0.23
	c0.08,0.93,0.31,1.75,0.7,2.43c0.39,0.69,0.92,1.23,1.56,1.61c0.64,0.39,1.38,0.58,2.2,0.58c1.34,0,2.48-0.49,3.38-1.45
	c0.89-0.95,1.35-2.19,1.35-3.69c0-1.99-0.72-3.3-2.15-3.89c0.99-0.71,1.5-1.75,1.5-3.09c0-1.27-0.4-2.31-1.18-3.1
	c-0.78-0.79-1.78-1.2-2.95-1.2c-2.38,0-3.8,1.43-4.24,4.25l-0.04,0.23l2.11,0.45l0.04-0.27c0.23-1.74,0.94-2.58,2.15-2.58
	c0.56,0,1.01,0.19,1.38,0.58c0.37,0.39,0.55,0.93,0.55,1.59c0,0.29-0.04,0.56-0.11,0.8c-0.07,0.24-0.17,0.45-0.31,0.64
	c-0.14,0.19-0.31,0.35-0.5,0.49c-0.2,0.14-0.41,0.24-0.64,0.31c-0.24,0.07-0.5,0.11-0.75,0.12l-0.62-0.03l-0.25,2.29l0.36-0.11
	c0.43-0.13,0.79-0.2,1.08-0.2c0.69,0,1.24,0.25,1.68,0.76c0.44,0.52,0.67,1.19,0.67,2.02c0,0.59-0.11,1.11-0.33,1.56
	C565.26,215.52,564.96,215.88,564.59,216.14z M569.15,210.4c0-5.45,1.54-8.21,4.58-8.21c3.03,0,4.56,2.76,4.56,8.21
	c0,5.43-1.54,8.19-4.56,8.19C570.69,218.58,569.15,215.83,569.15,210.4z M571.32,210.4c0,4.07,0.81,6.13,2.41,6.13
	c1.59,0,2.39-2.06,2.39-6.13s-0.81-6.13-2.42-6.13C572.12,204.27,571.32,206.33,571.32,210.4z M579.44,210.4
	c0-5.45,1.54-8.21,4.58-8.21c3.03,0,4.56,2.76,4.56,8.21c0,5.43-1.54,8.19-4.56,8.19C580.98,218.58,579.44,215.83,579.44,210.4z
	 M581.61,210.4c0,4.07,0.81,6.13,2.41,6.13c1.59,0,2.39-2.06,2.39-6.13s-0.81-6.13-2.42-6.13
	C582.41,204.27,581.61,206.33,581.61,210.4z M577.42,259.9c-0.49,0.56-1.15,1.25-2.03,2.11c-1.18,1.14-2.06,2.18-2.61,3.09
	c-0.57,0.93-0.85,1.89-0.85,2.85v0.25h9.24v-2.34h-6.3c0.19-0.32,0.4-0.6,0.62-0.85c0.32-0.35,0.87-0.91,1.69-1.71
	c1.85-1.83,2.95-3.16,3.37-4.08c0.41-0.91,0.62-1.78,0.62-2.57c0-1.37-0.41-2.49-1.23-3.32c-0.82-0.83-1.88-1.25-3.16-1.25
	c-2.77,0-4.29,1.59-4.54,4.74l-0.02,0.24l2.17,0.26l0-0.28c0.01-0.9,0.23-1.62,0.65-2.13c0.42-0.5,0.97-0.75,1.7-0.75
	c0.44,0,0.83,0.1,1.16,0.31c0.33,0.21,0.6,0.5,0.79,0.86c0.19,0.36,0.29,0.79,0.29,1.28c0,0.49-0.14,1.03-0.42,1.6
	C578.29,258.77,577.9,259.35,577.42,259.9z M587.4,252.06c0.74,0,1.41,0.17,1.97,0.5c0.57,0.33,1.03,0.81,1.37,1.41
	c0.34,0.59,0.56,1.33,0.65,2.19l0.03,0.25l-2.1,0.19l-0.04-0.23c-0.15-0.82-0.4-1.41-0.76-1.74c-0.36-0.33-0.76-0.49-1.23-0.49
	c-0.78,0-1.41,0.44-1.94,1.33c-0.47,0.79-0.74,1.99-0.82,3.58c0.77-0.97,1.76-1.46,2.95-1.46c0.82,0,1.54,0.24,2.16,0.71
	c0.61,0.46,1.1,1.1,1.45,1.89c0.35,0.78,0.53,1.69,0.53,2.7c0,1.73-0.42,3.1-1.26,4.08c-0.85,0.99-1.9,1.49-3.12,1.49
	c-3.22,0-4.86-2.62-4.86-7.8C582.39,254.96,584.07,252.06,587.4,252.06z M585.09,261.24c-0.22,0.47-0.33,1.04-0.33,1.67
	c0,1,0.24,1.84,0.71,2.52c0.46,0.66,1.03,0.98,1.75,0.98c0.67,0,1.2-0.3,1.61-0.93c0.43-0.65,0.64-1.48,0.64-2.47
	c0-0.67-0.11-1.25-0.31-1.74c-0.2-0.48-0.48-0.85-0.82-1.1c-0.34-0.25-0.73-0.37-1.19-0.37c-0.48,0-0.87,0.12-1.22,0.37
	C585.59,260.41,585.3,260.77,585.09,261.24z M592.75,260.27c0-5.45,1.54-8.21,4.58-8.21c3.03,0,4.56,2.76,4.56,8.21
	c0,5.43-1.54,8.19-4.56,8.19C594.29,268.46,592.75,265.7,592.75,260.27z M594.92,260.27c0,4.07,0.81,6.13,2.41,6.13
	c1.59,0,2.39-2.06,2.39-6.13s-0.81-6.13-2.42-6.13C595.72,254.14,594.92,256.2,594.92,260.27z M584.72,327.11h-6.3
	c0.19-0.32,0.4-0.6,0.62-0.85c0.32-0.35,0.89-0.93,1.69-1.71c1.85-1.83,2.95-3.16,3.37-4.08c0.41-0.91,0.62-1.78,0.62-2.57
	c0-1.37-0.41-2.49-1.23-3.32c-0.82-0.83-1.88-1.25-3.16-1.25c-2.77,0-4.29,1.59-4.54,4.74l-0.02,0.24l2.17,0.26l0-0.28
	c0.01-0.9,0.23-1.62,0.65-2.13c0.42-0.5,0.97-0.75,1.7-0.75c0.45,0,0.82,0.1,1.16,0.31c0.33,0.21,0.6,0.5,0.79,0.86
	c0.19,0.36,0.29,0.79,0.29,1.28c0,0.49-0.14,1.03-0.42,1.6c-0.28,0.58-0.67,1.16-1.15,1.71c-0.49,0.56-1.17,1.27-2.03,2.11
	c-1.18,1.14-2.06,2.18-2.61,3.09c-0.57,0.94-0.85,1.89-0.85,2.85v0.25h9.24V327.11z M585.53,323.59l6.12-10.21h1.72v10.09h1.78v2.26
	h-1.78v3.73h-2.13v-3.73h-5.74v-2.08L585.53,323.59z M591.24,323.47v-5.84l-3.44,5.84H591.24z M605.46,321.52
	c0,5.43-1.54,8.19-4.56,8.19c-3.04,0-4.58-2.76-4.58-8.19c0-5.45,1.54-8.21,4.58-8.21C603.92,313.31,605.46,316.07,605.46,321.52z
	 M603.28,321.52c0-4.07-0.81-6.13-2.42-6.13c-1.58,0-2.38,2.06-2.38,6.13s0.81,6.13,2.41,6.13
	C602.48,327.65,603.28,325.59,603.28,321.52z M580.72,365.49h-6.3c0.19-0.32,0.4-0.6,0.62-0.85c0.32-0.35,0.89-0.93,1.69-1.71
	c1.85-1.83,2.95-3.16,3.37-4.08c0.41-0.91,0.62-1.78,0.62-2.57c0-1.37-0.41-2.49-1.23-3.32c-0.82-0.83-1.88-1.25-3.16-1.25
	c-2.77,0-4.29,1.59-4.54,4.74l-0.02,0.24l2.17,0.26l0-0.28c0.01-0.9,0.23-1.62,0.65-2.13c0.42-0.5,0.97-0.75,1.7-0.75
	c0.45,0,0.82,0.1,1.16,0.31c0.33,0.21,0.6,0.5,0.79,0.86c0.19,0.36,0.29,0.79,0.29,1.28c0,0.49-0.14,1.03-0.42,1.6
	c-0.28,0.58-0.67,1.16-1.15,1.71c-0.49,0.56-1.17,1.27-2.03,2.11c-1.18,1.14-2.06,2.18-2.61,3.09c-0.57,0.94-0.85,1.89-0.85,2.85
	v0.25h9.24V365.49z M587.02,362.92c1.85-1.83,2.95-3.16,3.37-4.08c0.41-0.91,0.62-1.78,0.62-2.57c0-1.37-0.41-2.49-1.23-3.32
	c-0.82-0.83-1.88-1.25-3.16-1.25c-2.77,0-4.29,1.59-4.54,4.74l-0.02,0.24l2.17,0.26l0-0.28c0.01-0.9,0.23-1.62,0.65-2.13
	c0.42-0.5,0.97-0.75,1.7-0.75c0.45,0,0.82,0.1,1.16,0.31c0.33,0.21,0.6,0.5,0.79,0.86c0.19,0.36,0.29,0.79,0.29,1.28
	c0,0.49-0.14,1.03-0.42,1.6c-0.28,0.58-0.67,1.16-1.15,1.71c-0.49,0.56-1.17,1.27-2.03,2.11c-1.18,1.14-2.06,2.18-2.61,3.09
	c-0.57,0.94-0.85,1.89-0.85,2.85v0.25h9.24v-2.34h-6.3c0.19-0.32,0.4-0.6,0.62-0.85C585.66,364.28,586.22,363.71,587.02,362.92z
	 M601.46,359.89c0,5.43-1.54,8.19-4.56,8.19c-3.04,0-4.58-2.76-4.58-8.19c0-5.45,1.54-8.21,4.58-8.21
	C599.92,351.69,601.46,354.45,601.46,359.89z M599.28,359.89c0-4.07-0.81-6.13-2.42-6.13c-1.58,0-2.38,2.06-2.38,6.13
	s0.81,6.13,2.41,6.13C598.48,366.02,599.28,363.96,599.28,359.89z M567.49,406.48c1.85-1.83,2.95-3.16,3.37-4.08
	c0.41-0.91,0.62-1.78,0.62-2.57c0-1.37-0.41-2.49-1.23-3.32c-0.82-0.83-1.88-1.25-3.16-1.25c-2.77,0-4.29,1.59-4.54,4.74l-0.02,0.24
	l2.17,0.26l0-0.28c0.01-0.9,0.23-1.62,0.65-2.13c0.42-0.5,0.97-0.75,1.7-0.75c0.45,0,0.82,0.1,1.16,0.31
	c0.33,0.21,0.6,0.5,0.79,0.86c0.19,0.36,0.29,0.79,0.29,1.28c0,0.49-0.14,1.03-0.42,1.6c-0.28,0.58-0.67,1.16-1.15,1.71
	c-0.49,0.56-1.17,1.27-2.03,2.11c-1.18,1.14-2.06,2.18-2.61,3.09c-0.57,0.94-0.85,1.89-0.85,2.85v0.25h9.24v-2.34h-6.3
	c0.19-0.32,0.4-0.6,0.62-0.85C566.12,407.84,566.69,407.27,567.49,406.48z M581.92,403.46c0,5.43-1.54,8.19-4.56,8.19
	c-3.04,0-4.58-2.76-4.58-8.19c0-5.45,1.54-8.21,4.58-8.21C580.38,395.25,581.92,398.01,581.92,403.46z M579.74,403.46
	c0-4.07-0.81-6.13-2.42-6.13c-1.58,0-2.38,2.06-2.38,6.13s0.81,6.13,2.41,6.13C578.94,409.58,579.74,407.52,579.74,403.46z
	 M592.21,403.46c0,5.43-1.54,8.19-4.56,8.19c-3.04,0-4.58-2.76-4.58-8.19c0-5.45,1.54-8.21,4.58-8.21
	C590.67,395.25,592.21,398.01,592.21,403.46z M590.03,403.46c0-4.07-0.81-6.13-2.42-6.13c-1.58,0-2.38,2.06-2.38,6.13
	s0.81,6.13,2.41,6.13C589.23,409.58,590.03,407.52,590.03,403.46z M56.17,440.74c0.45,1.04,0.67,2.63,0.67,4.74
	c0,2.88-0.43,5.04-1.29,6.44c-0.88,1.44-2.13,2.17-3.71,2.17c-0.67,0-1.29-0.14-1.84-0.43c-0.55-0.29-1.03-0.74-1.41-1.35
	c-0.38-0.6-0.62-1.38-0.71-2.3l-0.03-0.25l2.05-0.23l0.04,0.24c0.23,1.52,0.87,2.26,1.95,2.26c0.24,0,0.47-0.04,0.68-0.11
	c0.21-0.07,0.41-0.18,0.59-0.33c0.19-0.15,0.36-0.34,0.52-0.56c0.16-0.22,0.3-0.47,0.42-0.75c0.12-0.28,0.22-0.58,0.31-0.89
	c0.08-0.31,0.15-0.64,0.2-0.99c0.05-0.35,0.08-0.73,0.1-1.14l0-0.14c-0.74,0.96-1.71,1.45-2.9,1.45c-1.23,0-2.25-0.52-3.03-1.56
	c-0.76-1.01-1.15-2.29-1.15-3.8c0-1.08,0.19-2.05,0.57-2.87c0.38-0.83,0.9-1.48,1.55-1.94c0.65-0.46,1.43-0.7,2.29-0.7
	c0.93,0,1.75,0.25,2.44,0.74C55.15,438.92,55.72,439.69,56.17,440.74z M53.88,440.69c-0.42-0.62-0.95-0.92-1.63-0.92
	c-0.72,0-1.29,0.33-1.74,1c-0.47,0.69-0.7,1.53-0.7,2.5c0,0.89,0.23,1.65,0.69,2.24c0.45,0.58,1.01,0.86,1.71,0.86
	c0.71,0,1.26-0.29,1.68-0.87c0.43-0.6,0.65-1.41,0.65-2.39C54.53,442.14,54.31,441.33,53.88,440.69z M67.06,445.9
	c0,5.43-1.54,8.19-4.56,8.19c-3.04,0-4.58-2.76-4.58-8.19c0-5.45,1.54-8.21,4.58-8.21C65.52,437.69,67.06,440.45,67.06,445.9z
	 M64.89,445.9c0-4.07-0.81-6.13-2.42-6.13c-1.58,0-2.38,2.06-2.38,6.13s0.81,6.13,2.41,6.13C64.08,452.02,64.89,449.96,64.89,445.9z
	 M31.53,384.74c0,1.45-0.44,2.65-1.3,3.57c-0.86,0.93-1.98,1.4-3.32,1.4c-1.34,0-2.45-0.47-3.31-1.41
	c-0.85-0.93-1.29-2.14-1.29-3.61c0-1.98,0.73-3.32,2.16-3.97c-1.07-0.65-1.62-1.71-1.62-3.14c0-0.74,0.14-1.42,0.42-2.03
	c0.29-0.62,0.74-1.15,1.35-1.58c0.62-0.43,1.38-0.66,2.27-0.66c0.73,0,1.41,0.17,2.02,0.5c0.61,0.33,1.12,0.84,1.5,1.49
	c0.38,0.65,0.57,1.44,0.57,2.32c0,1.42-0.55,2.46-1.63,3.11C30.8,381.48,31.53,382.82,31.53,384.74z M28.67,386.86
	c0.46-0.54,0.7-1.24,0.7-2.08c0-0.58-0.11-1.09-0.33-1.53c-0.21-0.44-0.51-0.78-0.88-1.03c-0.37-0.25-0.79-0.37-1.27-0.37
	c-0.42,0-0.81,0.11-1.15,0.31c-0.35,0.21-0.64,0.54-0.88,0.97c-0.24,0.44-0.36,0.97-0.36,1.59c0,0.93,0.24,1.66,0.73,2.17
	c0.48,0.52,1.05,0.77,1.73,0.77C27.64,387.65,28.21,387.39,28.67,386.86z M28.81,377.61c0-0.39-0.07-0.75-0.22-1.08
	c-0.14-0.32-0.36-0.6-0.66-0.82c-0.29-0.22-0.62-0.32-1.02-0.32c-0.37,0-0.68,0.09-0.97,0.28c-0.29,0.2-0.52,0.44-0.68,0.76
	c-0.16,0.31-0.25,0.67-0.25,1.09c0,0.69,0.18,1.23,0.54,1.65c0.36,0.41,0.81,0.61,1.37,0.61c0.54,0,0.98-0.19,1.34-0.59
	C28.63,378.77,28.81,378.26,28.81,377.61z M39.79,379.32c-0.65-0.47-1.41-0.71-2.27-0.71c-0.73,0-1.45,0.23-2.13,0.67l0.56-3.38h5.3
	v-2.32h-7.03l-1.36,8.46l1.96,0.29l0.08-0.16c0.5-0.93,1.21-1.38,2.18-1.38c0.8,0,1.41,0.29,1.86,0.87c0.46,0.6,0.7,1.41,0.7,2.41
	c0,0.79-0.14,1.47-0.41,2.02c-0.27,0.54-0.59,0.94-0.94,1.18c-0.36,0.24-0.74,0.36-1.19,0.36c-1.31,0-2.06-0.89-2.29-2.73
	l-0.03-0.24l-2.2,0.21l0.02,0.25c0.12,1.4,0.59,2.52,1.4,3.33c0.81,0.82,1.85,1.24,3.11,1.24c0.92,0,1.74-0.24,2.43-0.72
	c0.69-0.47,1.25-1.16,1.68-2.05c0.43-0.88,0.65-1.9,0.65-3.01c0-1.02-0.19-1.93-0.55-2.72C40.95,380.42,40.44,379.79,39.79,379.32z
	 M21.71,305.87c0,1.45-0.44,2.65-1.3,3.57c-0.86,0.93-1.98,1.4-3.32,1.4c-1.34,0-2.45-0.47-3.31-1.41
	c-0.85-0.93-1.29-2.14-1.29-3.61c0-1.98,0.72-3.32,2.16-3.97c-1.07-0.65-1.62-1.71-1.62-3.14c0-0.74,0.14-1.42,0.42-2.03
	c0.28-0.62,0.74-1.15,1.35-1.58c0.62-0.44,1.38-0.66,2.27-0.66c0.73,0,1.41,0.17,2.02,0.5c0.61,0.34,1.12,0.84,1.5,1.49
	c0.38,0.65,0.57,1.44,0.57,2.32c0,1.42-0.55,2.46-1.63,3.11C20.99,302.61,21.71,303.95,21.71,305.87z M18.86,307.98
	c0.46-0.54,0.7-1.24,0.7-2.08c0-0.58-0.11-1.09-0.33-1.53c-0.21-0.44-0.51-0.78-0.88-1.03c-0.37-0.25-0.79-0.37-1.27-0.37
	c-0.42,0-0.81,0.11-1.15,0.31c-0.35,0.21-0.64,0.54-0.88,0.97c-0.24,0.44-0.36,0.97-0.36,1.59c0,0.93,0.24,1.66,0.73,2.17
	c0.48,0.52,1.05,0.77,1.73,0.77C17.83,308.77,18.4,308.52,18.86,307.98z M19,298.74c0-0.39-0.07-0.75-0.22-1.08
	c-0.14-0.33-0.36-0.6-0.66-0.82c-0.29-0.22-0.62-0.32-1.02-0.32c-0.37,0-0.68,0.09-0.97,0.28c-0.29,0.2-0.52,0.44-0.68,0.75
	c-0.16,0.31-0.25,0.67-0.25,1.09c0,0.68,0.18,1.24,0.54,1.65c0.36,0.41,0.81,0.61,1.37,0.61c0.54,0,0.98-0.19,1.34-0.59
	C18.82,299.9,19,299.39,19,298.74z M31.94,302.65c0,5.43-1.54,8.19-4.56,8.19c-3.04,0-4.58-2.76-4.58-8.19
	c0-5.45,1.54-8.21,4.58-8.21C30.4,294.44,31.94,297.2,31.94,302.65z M29.76,302.65c0-4.07-0.81-6.13-2.42-6.13
	c-1.58,0-2.38,2.06-2.38,6.13s0.81,6.13,2.41,6.13C28.96,308.77,29.76,306.71,29.76,302.65z M32.15,222.32l0,0.25h2.17l0.01-0.24
	c0.13-2.4,0.65-4.88,1.56-7.38c0.9-2.5,2.06-4.64,3.44-6.36l0.06-0.07v-1.83H30.3v2.34h6.25c-1.1,1.58-2.09,3.55-2.94,5.84
	C32.69,217.37,32.2,219.87,32.15,222.32z M49.1,220.07c0.43-0.88,0.65-1.9,0.65-3.01c0-1.02-0.19-1.93-0.55-2.72
	c-0.37-0.79-0.88-1.42-1.52-1.89c-0.65-0.47-1.41-0.71-2.27-0.71c-0.73,0-1.45,0.23-2.13,0.67l0.56-3.38h5.3v-2.32h-7.03l-1.36,8.47
	l1.96,0.29l0.08-0.15c0.5-0.93,1.21-1.38,2.18-1.38c0.8,0,1.41,0.29,1.86,0.87c0.46,0.6,0.7,1.41,0.7,2.41
	c0,0.79-0.14,1.47-0.41,2.02c-0.27,0.54-0.59,0.94-0.94,1.18c-0.36,0.24-0.74,0.36-1.19,0.36c-1.31,0-2.06-0.89-2.29-2.73
	l-0.03-0.24l-2.2,0.21l0.02,0.25c0.12,1.4,0.59,2.52,1.4,3.33c0.81,0.82,1.85,1.24,3.11,1.24c0.92,0,1.74-0.24,2.43-0.72
	C48.1,221.64,48.67,220.95,49.1,220.07z M82.36,120.6h6.25c-1.1,1.58-2.09,3.55-2.94,5.84c-0.92,2.49-1.41,5-1.46,7.44l0,0.25h2.17
	l0.01-0.24c0.13-2.4,0.65-4.88,1.56-7.38c0.9-2.5,2.06-4.64,3.44-6.36l0.06-0.07v-1.83h-9.07V120.6z M101.68,126.21
	c0,5.43-1.54,8.19-4.56,8.19c-3.04,0-4.58-2.76-4.58-8.19c0-5.45,1.54-8.21,4.58-8.21C100.15,118,101.68,120.76,101.68,126.21z
	 M99.51,126.21c0-4.07-0.81-6.13-2.42-6.13c-1.58,0-2.38,2.06-2.38,6.13s0.81,6.13,2.41,6.13
	C98.71,132.34,99.51,130.27,99.51,126.21z M179.01,53.07c0.35,0.78,0.53,1.69,0.53,2.7c0,1.72-0.43,3.1-1.26,4.08
	c-0.85,0.99-1.9,1.49-3.12,1.49c-3.22,0-4.86-2.62-4.86-7.8c0-5.7,1.68-8.6,5.01-8.6c0.74,0,1.41,0.17,1.97,0.5
	c0.57,0.33,1.03,0.81,1.37,1.41c0.34,0.6,0.56,1.33,0.65,2.19l0.03,0.25l-2.1,0.19l-0.04-0.23c-0.15-0.82-0.4-1.41-0.76-1.74
	c-0.36-0.33-0.76-0.49-1.23-0.49c-0.78,0-1.41,0.44-1.94,1.33c-0.47,0.79-0.74,1.99-0.81,3.58c0.77-0.97,1.76-1.46,2.95-1.46
	c0.82,0,1.55,0.24,2.16,0.71C178.17,51.64,178.66,52.28,179.01,53.07z M173,54.11c-0.22,0.47-0.33,1.04-0.33,1.67
	c0,1,0.24,1.84,0.71,2.52c0.46,0.66,1.03,0.98,1.75,0.98c0.67,0,1.2-0.3,1.61-0.93c0.43-0.65,0.64-1.48,0.64-2.47
	c0-0.67-0.1-1.25-0.31-1.74c-0.2-0.48-0.48-0.85-0.82-1.1c-0.34-0.25-0.73-0.37-1.19-0.37c-0.48,0-0.87,0.12-1.22,0.37
	C173.51,53.28,173.22,53.64,173,54.11z M187.86,50.95c-0.65-0.47-1.41-0.71-2.27-0.71c-0.73,0-1.45,0.23-2.13,0.67l0.56-3.38h5.3
	v-2.32h-7.03l-1.36,8.47l1.96,0.29l0.08-0.15c0.5-0.93,1.21-1.38,2.18-1.38c0.8,0,1.41,0.29,1.86,0.87c0.46,0.6,0.7,1.41,0.7,2.41
	c0,0.79-0.14,1.47-0.41,2.02c-0.27,0.54-0.59,0.94-0.94,1.18c-0.36,0.24-0.74,0.36-1.19,0.36c-1.31,0-2.06-0.89-2.29-2.73
	l-0.03-0.24l-2.2,0.21l0.02,0.25c0.12,1.4,0.59,2.52,1.4,3.33c0.81,0.82,1.85,1.24,3.11,1.24c0.92,0,1.74-0.24,2.43-0.72
	c0.69-0.47,1.25-1.16,1.68-2.05c0.43-0.88,0.65-1.9,0.65-3.01c0-1.02-0.19-1.93-0.55-2.72C189.01,52.05,188.5,51.41,187.86,50.95z
	 M313.47,29.22c-0.85,0.99-1.9,1.49-3.12,1.49c-3.22,0-4.86-2.62-4.86-7.8c0-5.7,1.68-8.6,5.01-8.6c0.74,0,1.41,0.17,1.97,0.5
	c0.57,0.33,1.03,0.81,1.37,1.41c0.34,0.59,0.56,1.33,0.65,2.19l0.03,0.25l-2.1,0.19l-0.04-0.23c-0.15-0.82-0.4-1.41-0.76-1.74
	c-0.36-0.33-0.76-0.49-1.23-0.49c-0.78,0-1.41,0.44-1.94,1.33c-0.47,0.79-0.74,1.99-0.81,3.58c0.77-0.97,1.76-1.46,2.95-1.46
	c0.82,0,1.55,0.24,2.16,0.71c0.61,0.46,1.1,1.1,1.45,1.89c0.35,0.78,0.53,1.69,0.53,2.7C314.73,26.86,314.31,28.24,313.47,29.22z
	 M308.19,23.49c-0.22,0.47-0.33,1.04-0.33,1.67c0,1,0.24,1.84,0.71,2.52c0.46,0.66,1.03,0.98,1.75,0.98c0.67,0,1.2-0.3,1.61-0.93
	c0.43-0.65,0.64-1.48,0.64-2.47c0-0.67-0.11-1.25-0.31-1.74c-0.2-0.48-0.48-0.85-0.82-1.1c-0.34-0.25-0.73-0.37-1.19-0.37
	c-0.48,0-0.87,0.12-1.22,0.37C308.69,22.66,308.41,23.02,308.19,23.49z M325,22.52c0,5.43-1.54,8.19-4.56,8.19
	c-3.04,0-4.58-2.76-4.58-8.19c0-5.45,1.54-8.21,4.58-8.21C323.46,14.31,325,17.07,325,22.52z M322.82,22.52
	c0-4.07-0.81-6.13-2.42-6.13c-1.58,0-2.38,2.06-2.38,6.13s0.81,6.13,2.41,6.13C322.02,28.65,322.82,26.59,322.82,22.52z
	 M556.72,458.49c0,1.45-0.44,2.65-1.3,3.57c-0.86,0.93-1.98,1.4-3.32,1.4c-1.34,0-2.45-0.47-3.31-1.41
	c-0.85-0.93-1.29-2.14-1.29-3.61c0-1.98,0.72-3.32,2.16-3.97c-1.07-0.65-1.62-1.71-1.62-3.14c0-0.74,0.14-1.42,0.42-2.03
	c0.29-0.62,0.74-1.15,1.35-1.58c0.62-0.43,1.38-0.66,2.27-0.66c0.73,0,1.41,0.17,2.02,0.5c0.61,0.34,1.12,0.84,1.5,1.49
	c0.38,0.65,0.57,1.43,0.57,2.32c0,1.42-0.55,2.46-1.62,3.11C555.99,455.23,556.72,456.58,556.72,458.49z M553.86,460.61
	c0.46-0.54,0.7-1.24,0.7-2.08c0-0.58-0.11-1.09-0.33-1.53c-0.21-0.43-0.51-0.78-0.88-1.03c-0.37-0.25-0.79-0.37-1.27-0.37
	c-0.42,0-0.81,0.11-1.15,0.31c-0.35,0.21-0.64,0.54-0.88,0.97c-0.24,0.44-0.36,0.97-0.36,1.59c0,0.93,0.24,1.66,0.73,2.17
	c0.48,0.52,1.05,0.77,1.73,0.77C552.83,461.4,553.4,461.14,553.86,460.61z M554,451.37c0-0.38-0.07-0.75-0.22-1.08
	c-0.14-0.32-0.37-0.6-0.66-0.82c-0.29-0.22-0.62-0.32-1.02-0.32c-0.37,0-0.68,0.09-0.97,0.28c-0.29,0.2-0.52,0.44-0.68,0.76
	c-0.16,0.31-0.25,0.67-0.25,1.09c0,0.69,0.18,1.23,0.54,1.65c0.36,0.41,0.81,0.61,1.37,0.61c0.54,0,0.98-0.19,1.34-0.59
	C553.82,452.52,554,452.01,554,451.37z M566.94,455.27c0,5.43-1.54,8.19-4.56,8.19c-3.04,0-4.58-2.76-4.58-8.19
	c0-5.45,1.54-8.21,4.58-8.21C565.4,447.07,566.94,449.83,566.94,455.27z M564.76,455.27c0-4.07-0.81-6.13-2.42-6.13
	c-1.58,0-2.38,2.06-2.38,6.13s0.81,6.13,2.41,6.13C563.96,461.4,564.76,459.34,564.76,455.27z M529.36,478.1h6.25
	c-1.1,1.58-2.09,3.54-2.94,5.84c-0.92,2.49-1.42,5-1.46,7.44l0,0.25h2.17l0.01-0.24c0.13-2.4,0.65-4.88,1.56-7.38
	c0.9-2.5,2.06-4.64,3.44-6.36l0.05-0.07v-1.83h-9.07V478.1z M548.69,483.71c0,5.43-1.54,8.19-4.56,8.19c-3.04,0-4.58-2.76-4.58-8.19
	c0-5.45,1.54-8.21,4.58-8.21C547.15,475.5,548.69,478.26,548.69,483.71z M546.51,483.71c0-4.07-0.81-6.13-2.42-6.13
	c-1.58,0-2.38,2.06-2.38,6.13s0.81,6.13,2.41,6.13C545.71,489.84,546.51,487.78,546.51,483.71z M512.01,512.38
	c0.35,0.78,0.53,1.69,0.53,2.7c0,1.73-0.42,3.1-1.26,4.08c-0.85,0.99-1.9,1.5-3.12,1.5c-3.22,0-4.86-2.62-4.86-7.8
	c0-5.7,1.68-8.6,5.01-8.6c0.74,0,1.41,0.17,1.97,0.5s1.03,0.8,1.37,1.41c0.34,0.59,0.56,1.33,0.65,2.19l0.03,0.25l-2.1,0.19
	l-0.04-0.23c-0.15-0.82-0.4-1.41-0.76-1.74c-0.36-0.33-0.76-0.49-1.23-0.49c-0.78,0-1.41,0.44-1.94,1.33
	c-0.47,0.79-0.74,1.99-0.82,3.58c0.77-0.97,1.76-1.46,2.95-1.46c0.82,0,1.54,0.24,2.16,0.71
	C511.17,510.96,511.66,511.59,512.01,512.38z M506,513.42c-0.22,0.47-0.33,1.04-0.33,1.67c0,1,0.24,1.84,0.71,2.52
	c0.46,0.66,1.03,0.98,1.75,0.98c0.67,0,1.2-0.3,1.61-0.93c0.43-0.65,0.64-1.48,0.64-2.47c0-0.67-0.11-1.25-0.31-1.74
	c-0.2-0.48-0.48-0.85-0.82-1.1c-0.34-0.25-0.73-0.37-1.19-0.37c-0.48,0-0.87,0.12-1.22,0.37C506.51,512.59,506.22,512.96,506,513.42
	z M522.81,512.46c0,5.43-1.54,8.19-4.56,8.19c-3.04,0-4.58-2.76-4.58-8.19c0-5.45,1.54-8.21,4.58-8.21
	C521.27,504.25,522.81,507.01,522.81,512.46z M520.64,512.46c0-4.07-0.81-6.13-2.42-6.13c-1.58,0-2.38,2.06-2.38,6.13
	s0.81,6.13,2.41,6.13C519.83,518.58,520.64,516.52,520.64,512.46z M477.44,538.57c-0.65-0.47-1.42-0.71-2.27-0.71
	c-0.73,0-1.45,0.23-2.13,0.67l0.56-3.38h5.3v-2.32h-7.03l-1.36,8.46l1.96,0.29l0.08-0.16c0.5-0.93,1.21-1.38,2.18-1.38
	c0.8,0,1.41,0.29,1.86,0.87c0.46,0.6,0.7,1.41,0.7,2.41c0,0.79-0.14,1.47-0.41,2.02c-0.27,0.54-0.58,0.94-0.94,1.18
	c-0.36,0.24-0.74,0.36-1.18,0.36c-1.31,0-2.06-0.89-2.29-2.73l-0.03-0.24l-2.2,0.21l0.02,0.25c0.12,1.4,0.59,2.52,1.4,3.33
	c0.81,0.82,1.85,1.24,3.11,1.24c0.92,0,1.74-0.24,2.43-0.72c0.69-0.47,1.25-1.16,1.68-2.05c0.43-0.88,0.65-1.9,0.65-3.01
	c0-1.02-0.19-1.93-0.55-2.72C478.6,539.67,478.09,539.04,477.44,538.57z M489.69,540.77c0,5.43-1.54,8.19-4.56,8.19
	c-3.04,0-4.58-2.76-4.58-8.19c0-5.45,1.54-8.21,4.58-8.21C488.15,532.56,489.69,535.32,489.69,540.77z M487.51,540.77
	c0-4.07-0.81-6.13-2.42-6.13c-1.58,0-2.38,2.06-2.38,6.13s0.81,6.13,2.41,6.13C486.71,546.9,487.51,544.84,487.51,540.77z
	 M433.79,570.34h1.78v2.26h-1.78v3.73h-2.13v-3.73h-5.74v-2.08l0.04-0.06l6.12-10.21h1.72V570.34z M431.65,570.34v-5.84l-3.44,5.84
	H431.65z M445.87,568.39c0,5.43-1.54,8.19-4.56,8.19c-3.04,0-4.58-2.76-4.58-8.19c0-5.45,1.54-8.21,4.58-8.21
	C444.34,560.19,445.87,562.95,445.87,568.39z M443.7,568.39c0-4.07-0.81-6.13-2.42-6.13c-1.58,0-2.38,2.06-2.38,6.13
	s0.81,6.13,2.41,6.13C442.89,574.52,443.7,572.46,443.7,568.39z M379.54,588.58c0.99-0.71,1.5-1.75,1.5-3.09
	c0-1.27-0.4-2.31-1.18-3.1c-0.78-0.79-1.78-1.2-2.95-1.2c-2.38,0-3.8,1.43-4.24,4.25l-0.04,0.23l2.11,0.45l0.04-0.27
	c0.23-1.74,0.94-2.58,2.15-2.58c0.56,0,1.01,0.19,1.38,0.58c0.37,0.4,0.55,0.92,0.55,1.59c0,0.29-0.04,0.56-0.11,0.8
	c-0.07,0.23-0.17,0.45-0.31,0.64c-0.14,0.19-0.31,0.35-0.51,0.49c-0.19,0.13-0.41,0.24-0.64,0.31c-0.24,0.07-0.5,0.11-0.75,0.12
	l-0.62-0.02l-0.25,2.29l0.36-0.11c0.43-0.13,0.79-0.2,1.08-0.2c0.69,0,1.24,0.25,1.68,0.76c0.44,0.52,0.67,1.19,0.67,2.02
	c0,0.59-0.11,1.11-0.33,1.56c-0.22,0.44-0.52,0.8-0.89,1.06c-0.37,0.26-0.78,0.38-1.26,0.38c-1.25,0-2.02-0.93-2.35-2.85l-0.04-0.24
	l-2.11,0.31l0.02,0.23c0.08,0.93,0.31,1.75,0.7,2.43c0.39,0.69,0.92,1.23,1.56,1.61c0.64,0.38,1.38,0.58,2.2,0.58
	c1.34,0,2.48-0.49,3.38-1.45c0.89-0.95,1.35-2.19,1.35-3.69C381.69,590.48,380.97,589.17,379.54,588.58z M391.94,589.39
	c0,5.43-1.54,8.19-4.56,8.19c-3.04,0-4.58-2.76-4.58-8.19c0-5.45,1.54-8.21,4.58-8.21C390.4,581.19,391.94,583.95,391.94,589.39z
	 M389.76,589.39c0-4.07-0.81-6.13-2.42-6.13c-1.58,0-2.38,2.06-2.38,6.13s0.81,6.13,2.41,6.13
	C388.96,595.52,389.76,593.46,389.76,589.39z M305.94,599.29c1.85-1.83,2.95-3.16,3.37-4.08c0.41-0.91,0.62-1.78,0.62-2.57
	c0-1.38-0.41-2.49-1.23-3.32c-0.81-0.83-1.88-1.25-3.16-1.25c-2.77,0-4.3,1.59-4.54,4.74l-0.02,0.24l2.17,0.26l0-0.28
	c0.01-0.9,0.23-1.62,0.65-2.13c0.41-0.5,0.97-0.75,1.7-0.75c0.44,0,0.83,0.1,1.16,0.31c0.34,0.21,0.6,0.49,0.79,0.86
	c0.19,0.36,0.29,0.79,0.29,1.28c0,0.49-0.14,1.03-0.42,1.6c-0.28,0.58-0.67,1.16-1.15,1.71c-0.5,0.57-1.18,1.28-2.03,2.11
	c-1.18,1.14-2.06,2.18-2.61,3.09c-0.57,0.94-0.85,1.89-0.85,2.85v0.25h9.24v-2.34h-6.3c0.19-0.32,0.4-0.6,0.62-0.85
	C304.58,600.65,305.15,600.08,305.94,599.29z M320.37,596.27c0,5.43-1.54,8.19-4.56,8.19c-3.04,0-4.58-2.76-4.58-8.19
	c0-5.45,1.54-8.21,4.58-8.21C318.84,588.06,320.37,590.82,320.37,596.27z M318.2,596.27c0-4.07-0.81-6.13-2.42-6.13
	c-1.58,0-2.38,2.06-2.38,6.13s0.81,6.13,2.41,6.13C317.39,602.4,318.2,600.34,318.2,596.27z M236.29,584.21
	c0,5.43-1.54,8.19-4.56,8.19c-3.04,0-4.58-2.76-4.58-8.19c0-5.45,1.54-8.21,4.58-8.21C234.76,576,236.29,578.76,236.29,584.21z
	 M234.12,584.21c0-4.07-0.81-6.13-2.42-6.13c-1.58,0-2.38,2.06-2.38,6.13s0.81,6.13,2.41,6.13
	C233.31,590.33,234.12,588.27,234.12,584.21z M144.02,538.77c0,5.43-1.54,8.19-4.56,8.19c-3.04,0-4.58-2.76-4.58-8.19
	c0-5.45,1.54-8.21,4.58-8.21C142.48,530.57,144.02,533.33,144.02,538.77z M141.85,538.77c0-4.07-0.81-6.13-2.42-6.13
	c-1.58,0-2.38,2.06-2.38,6.13s0.81,6.13,2.41,6.13C141.04,544.9,141.85,542.84,141.85,538.77z M154.31,538.77
	c0,5.43-1.54,8.19-4.56,8.19c-3.04,0-4.58-2.76-4.58-8.19c0-5.45,1.54-8.21,4.58-8.21C152.77,530.57,154.31,533.33,154.31,538.77z
	 M152.14,538.77c0-4.07-0.81-6.13-2.42-6.13c-1.58,0-2.38,2.06-2.38,6.13s0.81,6.13,2.41,6.13
	C151.33,544.9,152.14,542.84,152.14,538.77z M568.6,422.3c-0.68-0.49-1.5-0.74-2.43-0.74c-0.87,0-1.64,0.23-2.3,0.7
	c-0.65,0.46-1.17,1.11-1.55,1.94c-0.38,0.82-0.57,1.79-0.57,2.87c0,1.51,0.39,2.79,1.15,3.8c0.78,1.03,1.8,1.56,3.03,1.56
	c1.19,0,2.17-0.49,2.9-1.45v0.14c-0.02,0.4-0.05,0.78-0.1,1.14c-0.05,0.36-0.12,0.69-0.2,0.99c-0.09,0.31-0.19,0.61-0.31,0.89
	c-0.12,0.28-0.26,0.53-0.42,0.75c-0.16,0.22-0.33,0.41-0.52,0.56c-0.18,0.15-0.38,0.26-0.59,0.33c-0.21,0.07-0.44,0.11-0.68,0.11
	c-1.08,0-1.72-0.74-1.95-2.26l-0.04-0.24l-2.05,0.24l0.03,0.25c0.1,0.92,0.34,1.7,0.71,2.3c0.38,0.61,0.86,1.07,1.41,1.35
	c0.55,0.28,1.17,0.43,1.84,0.43c1.58,0,2.83-0.73,3.71-2.17c0.86-1.4,1.29-3.57,1.29-6.44c0-2.11-0.23-3.7-0.67-4.74
	C569.84,423.57,569.27,422.79,568.6,422.3z M568.65,426.97c0,0.98-0.22,1.79-0.65,2.39c-0.42,0.59-0.96,0.87-1.68,0.87
	c-0.7,0-1.26-0.28-1.71-0.86c-0.46-0.59-0.69-1.35-0.69-2.24c0-0.96,0.24-1.8,0.7-2.5c0.45-0.67,1.02-1,1.74-1
	c0.68,0,1.21,0.3,1.63,0.92C568.44,425.21,568.65,426.02,568.65,426.97z M576.62,421.56c-3.04,0-4.58,2.76-4.58,8.21
	c0,5.43,1.54,8.19,4.58,8.19c3.03,0,4.56-2.75,4.56-8.19C581.19,424.33,579.65,421.56,576.62,421.56z M576.62,435.9
	c-1.6,0-2.41-2.06-2.41-6.13c0-4.07,0.8-6.13,2.38-6.13c1.61,0,2.42,2.06,2.42,6.13C579.01,433.84,578.21,435.9,576.62,435.9z
	 M555.66,437.96h2.39v-16.4h-2.39V437.96z M542.11,463.46h2.39v-16.4h-2.39V463.46z M523.86,491.9h2.39v-16.4h-2.39V491.9z
	 M497.98,520.65h2.39v-16.4h-2.39V520.65z M464.86,548.96h2.39v-16.4h-2.39V548.96z M421.04,576.59h2.39v-16.4h-2.39V576.59z
	 M367.11,597.59h2.39v-16.4h-2.39V597.59z M295.54,604.46h2.39v-16.4h-2.39V604.46z M215.67,592.4h2.39V576h-2.39V592.4z
	 M221.92,592.4h2.39V576h-2.39V592.4z M128.54,546.96h2.39v-16.4h-2.39V546.96z"/>
<path id="Tach_Circles" class="st16" d="M52.11,377.1c-0.37,1.47-1.86,2.37-3.33,2s-2.37-1.86-2-3.33c0.37-1.47,1.86-2.37,3.33-2
	C51.58,374.14,52.47,375.63,52.11,377.1z M42.56,300.6c-1.32-0.75-3-0.3-3.75,1.02c-0.75,1.32-0.3,3,1.02,3.75s3,0.3,3.75-1.02
	C44.33,303.03,43.88,301.35,42.56,300.6z M58.32,219.07c-1.02-1.12-2.76-1.2-3.88-0.18c-1.12,1.02-1.2,2.76-0.18,3.88
	c1.02,1.12,2.76,1.2,3.88,0.18C59.26,221.93,59.34,220.19,58.32,219.07z M105.8,137.04c-0.57-1.41-2.17-2.09-3.58-1.52
	c-1.41,0.57-2.09,2.17-1.52,3.58s2.17,2.09,3.58,1.52C105.68,140.05,106.36,138.45,105.8,137.04z M192.12,69.76
	c0.04-1.52-1.15-2.78-2.67-2.83c-1.52-0.04-2.78,1.15-2.83,2.67c-0.04,1.52,1.15,2.78,2.67,2.83S192.07,71.27,192.12,69.76z
	 M316.84,42.48c0.74-1.33,0.27-3-1.06-3.74c-1.33-0.74-3-0.27-3.74,1.06c-0.74,1.33-0.27,3,1.06,3.74
	C314.42,44.28,316.1,43.81,316.84,42.48z M496.78,118.36c1.44-0.47,2.24-2.02,1.77-3.46c-0.47-1.44-2.02-2.24-3.46-1.77
	s-2.24,2.02-1.77,3.46S495.34,118.83,496.78,118.36z M528.85,155.99c1.51-0.19,2.57-1.57,2.38-3.08c-0.19-1.51-1.57-2.57-3.08-2.38
	c-1.51,0.19-2.57,1.57-2.38,3.08S527.34,156.18,528.85,155.99z M547.08,185.87c1.52,0,2.75-1.22,2.76-2.74
	c0-1.52-1.22-2.75-2.74-2.76c-1.52,0-2.75,1.22-2.76,2.74C544.33,184.63,545.56,185.87,547.08,185.87z M565.03,228.92
	c1.49,0.27,2.92-0.73,3.19-2.22c0.27-1.5-0.73-2.92-2.22-3.19c-1.49-0.27-2.92,0.73-3.19,2.22S563.53,228.66,565.03,228.92z
	 M575.7,278.15c1.42,0.54,3.01-0.17,3.55-1.58c0.54-1.42-0.17-3.01-1.58-3.55c-1.42-0.54-3.01,0.17-3.55,1.58
	C573.58,276.01,574.29,277.6,575.7,278.15z M577.61,309.83c1.34,0.71,3.01,0.19,3.71-1.15c0.71-1.34,0.19-3.01-1.15-3.71
	c-1.34-0.71-3.01-0.19-3.71,1.15C575.75,307.46,576.26,309.12,577.61,309.83z M575.09,346.61c1.23,0.89,2.95,0.6,3.84-0.63
	c0.89-1.23,0.6-2.95-0.63-3.84s-2.95-0.6-3.84,0.63S573.86,345.73,575.09,346.61z M564.99,391.2c1.07,1.08,2.81,1.1,3.89,0.03
	c1.08-1.07,1.1-2.81,0.03-3.89c-1.07-1.08-2.81-1.1-3.89-0.03C563.94,388.38,563.92,390.12,564.99,391.2z M555.66,416.13
	c0.95,1.18,2.68,1.37,3.87,0.42c1.18-0.95,1.37-2.68,0.42-3.87c-0.95-1.18-2.68-1.37-3.87-0.42S554.71,414.94,555.66,416.13z
	 M542.3,442.85c0.81,1.28,2.51,1.66,3.8,0.85c1.28-0.81,1.66-2.51,0.85-3.8c-0.81-1.28-2.51-1.66-3.8-0.85
	C541.87,439.87,541.49,441.57,542.3,442.85z M524.38,470.17c0.65,1.37,2.29,1.95,3.66,1.3s1.95-2.29,1.3-3.66s-2.29-1.95-3.66-1.3
	C524.31,467.16,523.73,468.8,524.38,470.17z M499.67,498.78c0.45,1.45,2,2.26,3.44,1.8c1.45-0.45,2.26-2,1.8-3.44s-2-2.26-3.44-1.8
	S499.22,497.33,499.67,498.78z M467.43,526.4c0.22,1.5,1.61,2.54,3.12,2.33c1.5-0.22,2.54-1.61,2.33-3.12
	c-0.22-1.5-1.61-2.54-3.12-2.33C468.25,523.5,467.21,524.9,467.43,526.4z M424.94,551.67c-0.06,1.52,1.12,2.8,2.63,2.86
	c1.52,0.06,2.8-1.12,2.86-2.63c0.06-1.52-1.12-2.8-2.63-2.86C426.28,548.97,425,550.15,424.94,551.67z M371.27,570.5
	c-0.38,1.47,0.5,2.97,1.97,3.35s2.97-0.5,3.35-1.97c0.38-1.47-0.5-2.97-1.97-3.35C373.15,568.14,371.65,569.03,371.27,570.5z
	 M304.56,577.55c-0.74,1.33-0.25,3,1.08,3.74s3,0.25,3.74-1.08s0.25-3-1.08-3.74C306.97,575.74,305.3,576.22,304.56,577.55z
	 M227.46,564.56c-1.09,1.06-1.11,2.8-0.05,3.89c1.06,1.09,2.8,1.11,3.89,0.05c1.09-1.06,1.11-2.8,0.05-3.89
	C230.29,563.52,228.55,563.5,227.46,564.56z M145.38,520.98c-1.38,0.62-2,2.25-1.38,3.64s2.25,2,3.64,1.38
	c1.38-0.62,2-2.25,1.38-3.64C148.39,520.97,146.76,520.36,145.38,520.98z M73.36,434.96c-1.52,0-2.75,1.23-2.75,2.75
	c0,1.52,1.23,2.75,2.75,2.75c1.52,0,2.75-1.23,2.75-2.75C76.11,436.19,74.88,434.96,73.36,434.96z"/>
<path id="Tachymetre" class="st16" d="M354.72,28.13c-1.97-0.3-2.95-0.44-4.93-0.7c-0.51,3.81-0.77,5.72-1.28,9.53
	c-0.71-0.1-1.07-0.14-1.78-0.23c0.49-3.82,0.73-5.72,1.22-9.54c-1.98-0.25-2.97-0.37-4.95-0.59c0.06-0.51,0.09-0.77,0.14-1.28
	c4.72,0.52,7.08,0.83,11.76,1.54C354.84,27.37,354.8,27.62,354.72,28.13z M365.72,39.81c-0.75-0.15-1.12-0.22-1.87-0.36
	c-0.29-1.29-0.44-1.94-0.74-3.23c-2.31-0.43-3.47-0.63-5.79-1.01c-0.72,1.11-1.08,1.67-1.8,2.79c-0.72-0.11-1.08-0.17-1.8-0.28
	c2.6-4.02,3.93-6.01,6.67-9.97c0.98,0.17,1.46,0.25,2.44,0.43C364.07,32.82,364.64,35.15,365.72,39.81z M362.79,34.89
	c-0.56-2.28-0.84-3.42-1.43-5.7c-1.33,1.94-1.99,2.91-3.29,4.87C359.95,34.38,360.9,34.54,362.79,34.89z M379.29,42.01
	c-0.35,0.03-0.67,0.07-0.95,0.11c-0.28,0.04-0.65,0.06-1.1,0.07c-0.38,0.01-0.78-0.01-1.22-0.05c-0.43-0.03-0.9-0.11-1.41-0.23
	c-0.95-0.22-1.79-0.52-2.52-0.91c-0.73-0.39-1.34-0.88-1.82-1.46c-0.47-0.57-0.79-1.24-0.97-2.01c-0.18-0.77-0.17-1.61,0.02-2.54
	c0.18-0.88,0.5-1.63,0.96-2.26c0.46-0.63,1.04-1.12,1.74-1.47c0.68-0.34,1.45-0.54,2.33-0.6c0.87-0.06,1.81,0.02,2.81,0.25
	c0.73,0.17,1.44,0.41,2.13,0.72c0.69,0.31,1.44,0.75,2.24,1.31c-0.17,0.67-0.25,1-0.41,1.67c-0.05-0.01-0.08-0.02-0.13-0.03
	c-0.62-0.67-1.27-1.21-1.95-1.6c-0.68-0.4-1.44-0.69-2.27-0.89c-0.69-0.16-1.32-0.21-1.91-0.16c-0.59,0.05-1.14,0.21-1.65,0.49
	c-0.5,0.27-0.92,0.65-1.27,1.15c-0.35,0.5-0.6,1.1-0.75,1.82c-0.16,0.75-0.17,1.42-0.03,2.02c0.14,0.59,0.37,1.1,0.69,1.53
	c0.34,0.44,0.76,0.81,1.28,1.1c0.51,0.29,1.08,0.51,1.69,0.65c0.84,0.19,1.66,0.26,2.45,0.21c0.79-0.06,1.56-0.24,2.32-0.54
	c0.05,0.01,0.07,0.02,0.12,0.03C379.54,41.02,379.46,41.35,379.29,42.01z M392.68,46.49c-0.68-0.21-1.03-0.31-1.71-0.51
	c0.6-2.05,0.9-3.07,1.5-5.12c-2.62-0.77-3.93-1.14-6.57-1.84c-0.55,2.06-0.83,3.09-1.38,5.16c-0.69-0.18-1.03-0.28-1.72-0.46
	c1.1-4.22,1.66-6.33,2.76-10.55c0.72,0.19,1.08,0.28,1.79,0.47c-0.44,1.65-0.66,2.48-1.11,4.13c2.65,0.71,3.97,1.08,6.59,1.85
	c0.48-1.64,0.72-2.46,1.2-4.1c0.71,0.21,1.07,0.31,1.78,0.53C394.56,40.23,393.94,42.32,392.68,46.49z M410.01,40.7
	c-2.67,1.65-3.98,2.49-6.58,4.2c-0.61,1.81-0.92,2.72-1.53,4.53c-0.68-0.23-1.01-0.34-1.69-0.56c0.58-1.76,0.87-2.64,1.45-4.4
	c-1.04-2.99-1.58-4.48-2.71-7.46c0.78,0.24,1.17,0.37,1.95,0.62c0.86,2.32,1.27,3.48,2.07,5.81c2.05-1.37,3.09-2.05,5.18-3.39
	C408.89,40.3,409.26,40.43,410.01,40.7z M420.42,56.4c-0.66-0.27-0.99-0.41-1.65-0.68c1.42-3.48,2.13-5.22,3.56-8.7
	c-2.39,1.78-3.58,2.69-5.92,4.51c-0.4-0.16-0.6-0.24-1-0.39c-0.47-2.93-0.72-4.39-1.25-7.32c-1.32,3.52-1.98,5.28-3.3,8.8
	c-0.62-0.23-0.94-0.35-1.56-0.58c1.51-4.09,2.26-6.14,3.77-10.23c0.95,0.35,1.42,0.53,2.37,0.88c0.53,2.8,0.78,4.19,1.25,6.99
	c2.2-1.75,3.31-2.61,5.55-4.32c0.95,0.39,1.43,0.58,2.38,0.98C422.94,50.36,422.1,52.38,420.42,56.4z M432.97,61.98
	c-3.2-1.51-4.81-2.25-8.05-3.66c1.75-4,2.62-6,4.36-9.99c3.36,1.47,5.03,2.23,8.35,3.8c-0.22,0.47-0.33,0.7-0.55,1.16
	c-2.64-1.25-3.96-1.86-6.63-3.04c-0.49,1.09-0.73,1.64-1.21,2.73c2.64,1.17,3.95,1.77,6.56,3.01c-0.22,0.47-0.33,0.7-0.55,1.16
	c-2.6-1.23-3.91-1.83-6.53-3c-0.66,1.48-0.99,2.22-1.64,3.7c2.59,1.15,3.88,1.74,6.44,2.96C433.3,61.29,433.19,61.52,432.97,61.98z
	 M449.74,59.66c-1.75-0.94-2.63-1.4-4.4-2.3c-1.75,3.42-2.63,5.13-4.39,8.56c-0.64-0.33-0.95-0.49-1.59-0.81
	c1.73-3.43,2.6-5.15,4.33-8.59c-1.77-0.89-2.66-1.33-4.45-2.2c0.22-0.46,0.34-0.7,0.56-1.16c4.25,2.06,6.36,3.13,10.53,5.36
	C450.11,58.98,449.98,59.21,449.74,59.66z M457.6,75.16c-0.8-0.48-1.2-0.72-2-1.19c-0.67-2.41-1.02-3.61-1.76-6.02
	c-0.89-0.51-1.34-0.76-2.23-1.25c-0.84,1.52-1.26,2.27-2.11,3.79c-0.63-0.35-0.94-0.52-1.57-0.86c2.1-3.83,3.14-5.74,5.24-9.56
	c1.37,0.75,2.06,1.13,3.42,1.9c0.74,0.42,1.32,0.8,1.77,1.16c0.45,0.35,0.81,0.74,1.09,1.16c0.31,0.47,0.49,0.94,0.55,1.41
	c0.05,0.47-0.07,0.95-0.36,1.46c-0.4,0.68-0.95,1.12-1.65,1.32c-0.7,0.21-1.49,0.21-2.38,0.01
	C456.45,71.14,456.84,72.48,457.6,75.16z M457.92,66.25c0.16-0.27,0.24-0.55,0.24-0.82c0-0.28-0.1-0.57-0.29-0.88
	c-0.16-0.26-0.39-0.5-0.68-0.73s-0.65-0.47-1.09-0.72c-0.76-0.43-1.14-0.64-1.9-1.06c-0.8,1.44-1.2,2.16-2,3.6
	c0.64,0.36,0.97,0.54,1.61,0.9c0.5,0.28,0.96,0.5,1.37,0.64c0.41,0.14,0.81,0.2,1.18,0.16c0.34-0.04,0.64-0.14,0.89-0.3
	C457.49,66.87,457.72,66.61,457.92,66.25z M467.69,81.5c-2.97-1.95-4.47-2.91-7.5-4.77c2.28-3.72,3.42-5.58,5.71-9.29
	c3.14,1.93,4.7,2.92,7.79,4.95c-0.28,0.43-0.43,0.65-0.71,1.08c-2.45-1.61-3.69-2.4-6.18-3.95c-0.63,1.01-0.95,1.52-1.58,2.54
	c2.46,1.53,3.69,2.32,6.11,3.91c-0.28,0.43-0.42,0.65-0.71,1.08c-2.42-1.59-3.63-2.37-6.09-3.9c-0.86,1.38-1.28,2.06-2.14,3.44
	c2.42,1.51,3.62,2.27,6,3.84C468.12,80.86,467.98,81.07,467.69,81.5z M435.52,48.91l-2.21-2.21l-0.8,0.79l2.21,2.21L435.52,48.91z"
	/>
<path id="Tach_Ticks" class="st17" d="M73.4,452.16l10.05-6.04 M61.07,429.27l10.57-5.07 M55.64,417.18l10.8-4.55 M50.79,404.86
	l11.01-4.03 M46.25,391.39l11.2-3.46 M39.28,363.85l11.5-2.29 M36.8,349.37l11.6-1.67 M35.09,334.78l11.68-1.05 M34.13,319.15
	l11.72-0.39 M34.95,286.9l11.68,0.98 M48.47,271.85l-11.6-1.69 M51.29,255.95l-11.48-2.4 M44.02,236.24l11.3,3.13 M56.2,201.48
	l10.78,4.61 M64.17,184.47l10.44,5.33 M83.81,173.28l-10.03-6.06 M84.73,150.5l9.57,6.78 M111.78,117.91l8.42,8.16 M135.56,111.44
	l-7.74-8.81 M145.43,88.4l6.99,9.41 M164.75,75.28l6.17,9.97 M212.92,64.18l-4.31-10.9 M232.99,44.94l3.27,11.26 M258.99,38.73
	l2.17,11.52 M285.94,35.03l1.02,11.68 M79.83,462.35l9.78-6.47 M86.69,472.24l9.49-6.89 M93.98,481.83l9.18-7.3 M110.53,483.4
	l-13.22,11.49 M181.62,560.88l7.98-15.6 M270.02,571.26l-2.65,17.32 M343.12,589.86l-2.06-17.4 M406.39,574.82l-5.99-16.46
	 M109.45,499.65l8.52-8.06 M117.22,507.55l8.19-8.39 M125.31,515.12l7.85-8.71 M133.69,522.37l7.49-9.02"/>
<path id="OMEGA" class="st13" d="M274.9,186.22c-1.59,0-3.09,0.4-4.45,1.19c-1.37,0.79-2.46,1.9-3.25,3.29
	c-0.79,1.39-1.19,2.93-1.19,4.55c0,2.45,0.88,4.57,2.62,6.3c1.73,1.73,3.89,2.6,6.41,2.6c2.49,0,4.63-0.88,6.36-2.61
	c1.73-1.73,2.61-3.87,2.61-6.36c0-2.51-0.88-4.65-2.62-6.37C279.65,187.09,277.47,186.22,274.9,186.22z M281.34,195.18
	c0,1.19-0.28,2.29-0.83,3.26c-0.55,0.97-1.32,1.74-2.3,2.3c-0.98,0.56-2.07,0.84-3.23,0.84c-1.75,0-3.21-0.6-4.45-1.83
	c-1.24-1.23-1.85-2.71-1.85-4.5c0-1.2,0.28-2.3,0.83-3.27c0.55-0.97,1.33-1.75,2.32-2.33c0.99-0.57,2.04-0.86,3.14-0.86
	c1.12,0,2.2,0.29,3.2,0.87c1,0.57,1.79,1.35,2.34,2.3S281.34,193.99,281.34,195.18z M302.31,186.63l2.46,17.12h-2.59l-1.43-10.35
	l-5.12,10.35h-1.03l-5.18-10.44l-1.42,10.44h-2.57l2.45-17.12h1.01l6.24,12.6l6.18-12.6H302.31z M306.88,186.63h10.24v2.58h-7.63
	v4.05h7.56v2.58h-7.56v5.34h7.56v2.58h-10.17V186.63z M328.46,195.02h7.95l0,0.5c-0.02,2.62-0.81,4.73-2.37,6.29
	c-1.56,1.56-3.65,2.34-6.23,2.34c-3.12,0-5.63-1.08-7.46-3.22c-1.41-1.65-2.13-3.59-2.13-5.75c0-1.61,0.41-3.13,1.22-4.52
	c0.81-1.39,1.94-2.49,3.35-3.27c1.41-0.78,3.02-1.18,4.78-1.18c1.43,0,2.79,0.26,4.05,0.78c1.26,0.51,2.5,1.35,3.68,2.47l0.38,0.36
	l-1.98,1.88l-0.34-0.34c-0.85-0.84-1.79-1.48-2.8-1.91c-2.25-0.96-4.38-0.82-6.31,0.23c-1.06,0.57-1.89,1.36-2.47,2.34
	s-0.87,2.03-0.87,3.12c0,1.12,0.3,2.19,0.91,3.2c0.6,1.01,1.44,1.81,2.51,2.39c1.07,0.58,2.26,0.88,3.53,0.88
	c1.53,0,2.84-0.43,3.89-1.29c0.91-0.74,1.48-1.64,1.75-2.75h-5.04V195.02z M345.88,186.63h-1.03l-8.09,17.12h2.9l2.51-5.31h6.31
	l2.54,5.31h2.84L345.88,186.63z M347.32,195.89h-3.93l1.97-4.17L347.32,195.89z M322.86,179.53l-2.46,2.95h-8v-1.17
	c0,0,5.71-3.13,5.71-9.23c0-5.79-3.92-8.33-7.97-8.33s-7.97,2.54-7.97,8.33c0,6.1,5.71,9.23,5.71,9.23v1.17h-8l-2.46-2.95h2.06
	l1.42,1.45h3.41c0,0-5.26-4.01-5.26-8.74c0-6.61,5.42-9.99,11.1-9.99c5.68,0,11.1,3.38,11.1,9.99c0,4.73-5.26,8.74-5.26,8.74h3.41
	l1.42-1.45H322.86z"/>
<path id="SpeedMaster" class="st18" d="M265.7,215.77c0-2.61-3.11-4.82-7.4-4.82c-4.66,0-6.97,2.71-6.97,4.74
	c0,5.08,9.78,1.67,9.78,7.99c0,2.03-2.83,3.95-6.8,3.95c-5.24,0-7.55-2.95-7.55-5.72 M270.46,216.38l-6.68,11.61 M278.52,221.25
	c0,0-4.71,3.67-5.8,2.49c-1.11-1.2,2.06-4.35,2.76-5.93c0.51-1.15-0.62-2.23-1.64-1.68c-3.06,1.66-9.4,5.27-9.4,5.27 M280.32,222.22
	c0,0,4.17-2.64,6.78-4.32c0.36-0.23-1.95-3.64-5.45-1.24c-2.42,1.66-2.73,4.3-1.84,5.69c0.98,1.51,2.15,2.14,4.91,1.47
	c1.74-0.43,4.85-2.95,4.85-2.95 M290.91,222.22c0,0,4.17-2.64,6.78-4.32c0.36-0.23-1.95-3.64-5.45-1.24
	c-2.42,1.66-2.73,4.3-1.84,5.69c0.98,1.51,2.15,2.14,4.91,1.47c1.39-0.34,3.63-2,4.49-2.68 M354.56,222.22c0,0,4.17-2.64,6.78-4.32
	c0.36-0.23-1.95-3.64-5.45-1.24c-2.42,1.66-2.73,4.3-1.84,5.69c0.98,1.51,2.15,2.14,4.91,1.47c1.74-0.43,3.89-1.9,4.85-2.95
	c1.23-1.36,4.13-6.38,4.13-6.38 M312.04,210.47l-7.23,12.84 M306.75,219.09c0.01-1.16-0.42-2.15-1.27-2.61
	c-1.45-0.79-3.41,0.35-4.68,2.36c-1.71,2.71-0.79,5.15,0.72,5.15c3.22,0,2.8-0.15,3.94-2.24l6.3-11.24 M315.21,223.38
	c0,0,0.99-1.57,2.97-4.74c1.85-2.97,0.13-3.44-4.48-1.4c-0.3,0.13-3.5,5.49-4.18,5.79c-2.44,1.07-4.89,0.62-4.89,0.62
	 M318.39,218.47c0,0,4.34-3.35,5.29-2.17c1.63,2.02-3.55,5.11-1.77,7.48c1,1.34,5.58-2.55,5.58-2.55 M334.41,219.09
	c0.01-1.16-0.42-2.15-1.27-2.61c-1.45-0.79-3.41,0.35-4.68,2.36c-1.71,2.71-0.79,5.15,0.72,5.15c3.22,0,2.8-0.15,3.94-2.24
	l2.98-5.31 M338.38,223.39c4.37,2.34,8.79-2.47,4.06-7.5 M331.66,223.84c0,0,2.52-0.05,3.02-0.32c2.06-1.13,9.03-9.1,9.03-9.1
	 M353.49,210.64c0,0-4.78,7.63-6.36,10.2c-1.67,2.73,0.46,4.86,6.27,0.1 M348.23,214.1h6.28 M347.29,220.44
	c-1.2,0.65-2.42,0.56-3.17,1.47 M366.97,216.6c0,0,2.84-0.08,3.27,0.64c0.8,1.33-2.95,4.86-1.83,5.95c0.91,0.89,4.85-1.61,4.85-1.61
	"/>
<path id="CoAxial_Chronometer" class="st13" d="M252.59,412.72c-0.15,0.35-0.23,0.77-0.23,1.23c0,0.47,0.08,0.88,0.23,1.24
	c0.15,0.35,0.37,0.65,0.65,0.89c0.28,0.24,0.63,0.43,1.03,0.56c0.73,0.23,1.74,0.25,2.5,0.09c0.32-0.07,0.6-0.17,0.83-0.3
	c0.22-0.13,0.4-0.29,0.53-0.47c0.13-0.18,0.2-0.38,0.23-0.61l0.03-0.22h1.99l-0.04,0.28c-0.06,0.45-0.22,0.86-0.49,1.21
	c-0.26,0.35-0.6,0.64-1.01,0.88c-0.4,0.23-0.88,0.41-1.42,0.53c-0.53,0.12-1.11,0.18-1.73,0.18c-0.8,0-1.53-0.1-2.18-0.29
	c-0.65-0.2-1.22-0.48-1.68-0.85c-0.47-0.37-0.83-0.82-1.08-1.35c-0.25-0.52-0.38-1.12-0.38-1.76c0-0.64,0.13-1.24,0.38-1.76
	c0.25-0.53,0.62-0.98,1.09-1.35c0.47-0.37,1.03-0.65,1.68-0.85c0.64-0.19,1.37-0.29,2.17-0.29c0.59,0,1.16,0.06,1.68,0.18
	c0.53,0.12,1.01,0.3,1.42,0.53c0.42,0.23,0.77,0.52,1.04,0.85c0.28,0.34,0.45,0.72,0.51,1.15l0.04,0.29h-2l-0.02-0.23
	c-0.02-0.2-0.09-0.37-0.22-0.53c-0.14-0.17-0.32-0.32-0.55-0.44c-0.24-0.13-0.52-0.23-0.84-0.3c-0.78-0.17-1.75-0.13-2.47,0.09
	c-0.41,0.12-0.76,0.31-1.04,0.55C252.96,412.07,252.74,412.37,252.59,412.72z M268.92,413.02h-5.16v-3.17h-1.94v8.22h1.94v-3.64
	h5.16v3.64h1.95v-8.22h-1.95V413.02z M281.26,415.61l1.26,2.47h-2.13l-1.09-2.21c-0.08-0.15-0.18-0.29-0.32-0.43
	c-0.14-0.13-0.3-0.25-0.48-0.34c-0.19-0.1-0.4-0.18-0.63-0.23c-0.23-0.06-0.47-0.08-0.73-0.08h-2.42v3.3h-1.94v-8.22h5.06
	c0.3,0,0.58,0,0.85,0.01c0.28,0.01,0.54,0.03,0.78,0.07c0.25,0.04,0.5,0.09,0.72,0.16c0.23,0.07,0.45,0.17,0.66,0.29
	c0.36,0.23,0.64,0.51,0.84,0.84c0.19,0.33,0.29,0.68,0.29,1.03c0,0.31-0.07,0.6-0.19,0.86c-0.13,0.26-0.31,0.49-0.55,0.68
	c-0.23,0.19-0.51,0.35-0.84,0.48c-0.09,0.04-0.18,0.07-0.28,0.1C280.59,414.65,280.97,415.06,281.26,415.61z M279.55,411.5
	c-0.35-0.19-0.9-0.29-1.63-0.29h-3.19v2.14h2.98c0.43,0,0.81-0.02,1.11-0.07c0.29-0.04,0.53-0.11,0.72-0.2
	c0.16-0.08,0.28-0.19,0.35-0.31c0.07-0.13,0.11-0.3,0.11-0.5C280,411.91,279.86,411.66,279.55,411.5z M293.75,412.21
	c0.28,0.52,0.42,1.11,0.42,1.75c0,0.63-0.14,1.22-0.41,1.74c-0.27,0.52-0.66,0.97-1.14,1.35c-0.48,0.37-1.06,0.66-1.72,0.86
	c-0.66,0.2-1.39,0.3-2.17,0.3c-0.78,0-1.51-0.1-2.17-0.3c-0.66-0.2-1.24-0.49-1.73-0.86c-0.49-0.37-0.87-0.83-1.15-1.35
	c-0.27-0.53-0.41-1.12-0.41-1.75c0-0.64,0.14-1.23,0.42-1.75c0.28-0.52,0.66-0.97,1.16-1.34c0.48-0.36,1.07-0.65,1.73-0.85
	c1.32-0.39,3.01-0.39,4.31,0c0.66,0.2,1.24,0.48,1.72,0.85C293.09,411.23,293.47,411.69,293.75,412.21z M291.93,412.75
	c-0.17-0.35-0.4-0.65-0.7-0.89c-0.3-0.24-0.67-0.43-1.09-0.56c-0.42-0.13-0.89-0.2-1.4-0.2c-0.51,0-0.99,0.07-1.43,0.2
	c-0.43,0.13-0.8,0.32-1.1,0.57c-0.3,0.24-0.54,0.54-0.71,0.89c-0.17,0.35-0.25,0.75-0.25,1.2c0,0.45,0.08,0.86,0.25,1.21
	s0.4,0.65,0.7,0.9c0.3,0.25,0.67,0.44,1.09,0.57c0.85,0.26,1.98,0.26,2.84,0c0.42-0.13,0.79-0.32,1.09-0.57
	c0.3-0.24,0.54-0.54,0.7-0.9c0.17-0.35,0.25-0.76,0.25-1.21S292.1,413.1,291.93,412.75z M302.76,415.57l-5.32-5.71h-1.85v8.22h1.87
	v-5.71l5.35,5.71h1.84v-8.22h-1.88V415.57z M316.54,412.21c0.28,0.53,0.42,1.11,0.42,1.75c0,0.63-0.14,1.22-0.41,1.74
	c-0.27,0.52-0.66,0.97-1.14,1.35c-0.48,0.37-1.06,0.66-1.72,0.86c-0.66,0.2-1.39,0.3-2.17,0.3s-1.51-0.1-2.17-0.3
	c-0.66-0.2-1.24-0.49-1.73-0.86c-0.49-0.37-0.87-0.83-1.15-1.35c-0.27-0.53-0.41-1.12-0.41-1.75c0-0.64,0.14-1.23,0.42-1.75
	c0.28-0.52,0.66-0.97,1.16-1.34c0.48-0.36,1.07-0.65,1.73-0.85c1.32-0.39,3.01-0.39,4.31,0c0.66,0.2,1.24,0.48,1.72,0.85
	C315.88,411.23,316.27,411.69,316.54,412.21z M314.72,412.75c-0.17-0.35-0.4-0.65-0.7-0.89c-0.3-0.24-0.67-0.43-1.09-0.56
	c-0.42-0.13-0.89-0.2-1.4-0.2c-0.51,0-0.99,0.07-1.42,0.2c-0.43,0.13-0.8,0.32-1.1,0.57c-0.3,0.24-0.54,0.54-0.71,0.89
	c-0.17,0.35-0.25,0.75-0.25,1.2c0,0.45,0.08,0.86,0.25,1.21s0.4,0.65,0.7,0.9c0.3,0.25,0.67,0.44,1.09,0.57
	c0.85,0.26,1.98,0.26,2.84,0c0.42-0.13,0.79-0.32,1.09-0.57c0.3-0.24,0.54-0.54,0.7-0.9c0.17-0.35,0.25-0.76,0.25-1.21
	S314.89,413.1,314.72,412.75z M323.74,415.94l-2.77-6.08h-2.58v8.22h1.87v-5.7l2.69,5.7h1.61l2.7-5.7v5.7h1.87v-8.22h-2.58
	L323.74,415.94z M332.99,414.54H339v-1.42h-6.01v-1.84h6.44v-1.42h-8.38v8.22h8.62v-1.42h-6.68V414.54z M340.31,411.27h3.58v6.8
	h1.94v-6.8h3.6v-1.42h-9.11V411.27z M352.41,414.54h6.01v-1.42h-6.01v-1.84h6.44v-1.42h-8.38v8.22h8.62v-1.42h-6.68V414.54z
	 M370.34,418.07h-2.13l-1.09-2.21c-0.08-0.15-0.18-0.29-0.32-0.43c-0.13-0.13-0.29-0.25-0.48-0.34c-0.18-0.1-0.4-0.18-0.63-0.23
	c-0.23-0.06-0.47-0.08-0.73-0.08h-2.42v3.3h-1.94v-8.22h5.06c0.3,0,0.58,0,0.85,0.01c0.28,0.01,0.54,0.03,0.78,0.07
	c0.26,0.04,0.5,0.09,0.72,0.16c0.23,0.07,0.45,0.17,0.66,0.29c0.36,0.23,0.64,0.51,0.84,0.84c0.19,0.33,0.29,0.68,0.29,1.03
	c0,0.31-0.07,0.6-0.2,0.86c-0.13,0.26-0.31,0.49-0.55,0.68c-0.23,0.19-0.51,0.35-0.84,0.48c-0.09,0.04-0.18,0.07-0.28,0.1
	c0.47,0.27,0.85,0.68,1.14,1.23L370.34,418.07z M367.37,411.49c-0.35-0.19-0.9-0.29-1.63-0.29h-3.19v2.14h2.98
	c0.43,0,0.81-0.02,1.11-0.07c0.29-0.04,0.53-0.11,0.72-0.2c0.16-0.08,0.28-0.19,0.35-0.31c0.07-0.13,0.11-0.3,0.11-0.5
	C367.82,411.91,367.67,411.66,367.37,411.49z M321.27,401.24l-3.21-3.17l-3.21,3.17h-1.55h-1.02h-1.25l-1.3-2.34h-4.39l-1.23,2.34
	h-2.14l4.57-8.22h1.89l4.5,7.6l3.92-3.7l-4.15-3.9h2.55l2.79,2.75l2.81-2.75h2.54l-4.14,3.9l4.58,4.32H321.27z M307.47,394.77
	l-1.47,2.79h3.02L307.47,394.77z M326.45,393.02h-1.98v8.22h1.98V393.02z M334.96,398.89h-4.39l-1.23,2.34h-2.14l4.57-8.22h1.9
	l4.86,8.22h-2.26L334.96,398.89z M332.71,394.77l-1.47,2.79h3.02L332.71,394.77z M346.5,399.82h-5.45v-6.8h-1.98v8.22h7.43V399.82z
	 M275.4,395c0.29-0.24,0.65-0.43,1.07-0.55c0.75-0.22,1.75-0.25,2.55-0.09c0.33,0.07,0.63,0.17,0.87,0.3
	c0.24,0.12,0.43,0.27,0.57,0.44c0.13,0.16,0.2,0.33,0.22,0.52l0.02,0.23h2.04l-0.04-0.29c-0.06-0.42-0.24-0.81-0.52-1.15
	c-0.28-0.33-0.63-0.61-1.07-0.85c-0.42-0.23-0.91-0.4-1.46-0.53c-0.54-0.12-1.12-0.18-1.73-0.18c-0.82,0-1.56,0.1-2.23,0.29
	c-0.67,0.2-1.25,0.48-1.73,0.85c-0.48,0.37-0.86,0.82-1.12,1.35c-0.26,0.53-0.39,1.12-0.39,1.76c0,0.65,0.13,1.24,0.39,1.77
	c0.26,0.53,0.63,0.98,1.11,1.35c0.47,0.36,1.06,0.65,1.73,0.85c0.66,0.19,1.42,0.29,2.24,0.29c0.64,0,1.24-0.06,1.78-0.18
	c0.55-0.12,1.04-0.3,1.46-0.53c0.42-0.24,0.77-0.53,1.04-0.88c0.27-0.35,0.44-0.76,0.5-1.21l0.04-0.28h-2.03l-0.03,0.22
	c-0.03,0.23-0.11,0.43-0.24,0.61c-0.13,0.18-0.32,0.34-0.55,0.47c-0.24,0.13-0.53,0.24-0.86,0.3c-0.78,0.16-1.83,0.14-2.58-0.09
	c-0.41-0.13-0.77-0.32-1.06-0.56c-0.29-0.24-0.51-0.54-0.67-0.89c-0.16-0.35-0.24-0.77-0.24-1.23s0.08-0.88,0.24-1.23
	C274.89,395.54,275.11,395.24,275.4,395z M294.53,395.37c0.29,0.52,0.43,1.11,0.43,1.75c0,0.63-0.14,1.22-0.43,1.74
	c-0.28,0.52-0.68,0.97-1.18,1.35c-0.49,0.37-1.09,0.66-1.77,0.86c-0.68,0.2-1.43,0.3-2.23,0.3c-0.81,0-1.56-0.1-2.23-0.3
	c-0.68-0.2-1.28-0.49-1.77-0.85c-0.5-0.37-0.9-0.82-1.18-1.35c-0.28-0.53-0.43-1.12-0.43-1.75c0-0.64,0.15-1.23,0.43-1.76
	c0.28-0.52,0.68-0.97,1.19-1.34c0.5-0.36,1.1-0.65,1.78-0.85c1.35-0.39,3.09-0.39,4.43,0c0.68,0.2,1.27,0.48,1.77,0.85
	C293.85,394.39,294.24,394.85,294.53,395.37z M292.67,395.91c-0.17-0.35-0.42-0.65-0.72-0.89c-0.31-0.24-0.69-0.43-1.12-0.56
	c-0.44-0.13-0.92-0.2-1.44-0.2c-0.53,0-1.03,0.07-1.47,0.2c-0.44,0.13-0.82,0.32-1.14,0.57c-0.31,0.24-0.56,0.54-0.73,0.89
	c-0.17,0.35-0.26,0.75-0.26,1.2c0,0.45,0.09,0.86,0.26,1.21c0.17,0.35,0.41,0.65,0.72,0.9c0.31,0.25,0.69,0.44,1.13,0.57
	c0.88,0.27,2.04,0.27,2.93,0c0.44-0.13,0.82-0.32,1.13-0.57c0.31-0.24,0.55-0.54,0.73-0.9c0.17-0.35,0.26-0.76,0.26-1.21
	C292.93,396.67,292.84,396.26,292.67,395.91z M299.77,397.63h-3.42v1.17h3.42V397.63z"/>
<path id="Swiss_Made" class="st13" d="M271.5,517.18c-0.1,0.1-0.16,0.2-0.18,0.32c-0.02,0.1,0,0.2,0.04,0.3
	c0.05,0.1,0.12,0.18,0.22,0.25c0.12,0.08,0.27,0.15,0.43,0.2c0.2,0.06,0.53,0.13,0.91,0.21c0.65,0.13,1.06,0.23,1.3,0.3
	c0.27,0.08,0.49,0.19,0.66,0.33c0.46,0.35,0.66,0.81,0.57,1.36c-0.08,0.52-0.38,0.92-0.89,1.18c-0.36,0.19-0.8,0.28-1.29,0.28
	c-0.24,0-0.5-0.02-0.76-0.07c-0.47-0.08-0.88-0.19-1.22-0.34c-0.33-0.15-0.73-0.39-1.17-0.72l-0.48-0.44l0.67-0.7l0.1,0.16
	c0.05,0.08,0.19,0.24,0.55,0.51c0.27,0.2,0.54,0.36,0.79,0.47c0.26,0.11,0.55,0.2,0.86,0.25c0.63,0.11,1.14,0.05,1.5-0.17
	c0.23-0.13,0.35-0.29,0.39-0.51c0.03-0.17,0.02-0.43-0.4-0.64c-0.11-0.06-0.23-0.11-0.35-0.13c-0.14-0.03-0.52-0.12-1.14-0.24
	c-0.46-0.09-0.82-0.19-1.07-0.29c-0.27-0.11-0.5-0.23-0.68-0.38c-0.18-0.15-0.32-0.35-0.41-0.58c-0.09-0.23-0.11-0.46-0.06-0.71
	c0.07-0.42,0.3-0.74,0.66-0.98c0.25-0.16,0.59-0.27,1-0.33c0.39-0.06,0.82-0.05,1.27,0.03c0.37,0.06,0.71,0.16,1,0.28
	c0.3,0.12,0.63,0.3,1,0.53c0.1,0.07,0.21,0.18,0.34,0.35l0.07,0.1l-0.56,0.61l-0.11-0.12c-0.1-0.11-0.23-0.22-0.4-0.33
	c-0.46-0.3-0.99-0.51-1.54-0.6c-0.46-0.08-0.87-0.06-1.23,0.04C271.74,517,271.6,517.08,271.5,517.18z M284.26,517.78
	c-0.74,1.6-1.13,2.43-1.83,3.87c-0.37-1.57-0.57-2.47-0.96-4.18l-0.02-0.1l-0.86-0.11l-0.05,0.09c-0.78,1.56-1.2,2.38-1.95,3.83
	c-0.35-1.58-0.54-2.49-0.89-4.21l-0.02-0.1l-0.1-0.01c-0.27-0.04-0.4-0.06-0.66-0.1l-0.21-0.03l0.04,0.21
	c0.47,2.24,0.71,3.33,1.2,5.53l0.02,0.1l0.1,0.01c0.24,0.03,0.36,0.05,0.6,0.08l0.1,0.01l0.05-0.09c0.83-1.59,1.26-2.42,1.99-3.89
	c0.37,1.61,0.59,2.52,1.01,4.26l0.02,0.1l0.78,0.09l0.05-0.09c1.01-2.03,1.5-3.03,2.46-5.08l0.09-0.19l-0.92-0.09L284.26,517.78z
	 M285.89,517.99c-0.2,2.11-0.3,3.17-0.51,5.28l-0.01,0.15l0.94,0.09l0.01-0.15c0.2-2.11,0.3-3.17,0.49-5.28l0.01-0.15l-0.92-0.09
	L285.89,517.99z M289.05,519.11c0.35-0.14,0.76-0.19,1.23-0.16c0.57,0.04,1.11,0.19,1.6,0.45c0.18,0.1,0.33,0.2,0.43,0.3l0.12,0.11
	l0.51-0.66l-0.08-0.09c-0.14-0.16-0.26-0.26-0.37-0.32c-0.38-0.19-0.74-0.34-1.05-0.44c-0.31-0.1-0.66-0.16-1.03-0.19
	c-0.46-0.03-0.89,0-1.28,0.09c-0.41,0.1-0.73,0.24-0.97,0.42c-0.34,0.26-0.53,0.61-0.57,1.03c-0.02,0.25,0.02,0.49,0.13,0.71
	c0.11,0.22,0.27,0.41,0.46,0.53c0.19,0.13,0.44,0.24,0.72,0.32c0.26,0.07,0.62,0.13,1.1,0.19c0.63,0.07,1.02,0.12,1.16,0.13
	c0.13,0.02,0.25,0.05,0.36,0.1c0.44,0.17,0.47,0.43,0.46,0.61c-0.01,0.22-0.12,0.4-0.34,0.54c-0.34,0.25-0.84,0.34-1.49,0.3
	c-0.33-0.02-0.62-0.08-0.89-0.17c-0.27-0.09-0.55-0.22-0.84-0.4c-0.39-0.23-0.54-0.38-0.6-0.45l-0.12-0.15l-0.61,0.75l0.52,0.39
	c0.47,0.29,0.89,0.5,1.24,0.61c0.35,0.12,0.78,0.2,1.25,0.23c0.13,0.01,0.25,0.01,0.37,0.01c0.67,0,1.23-0.14,1.67-0.42
	c0.49-0.31,0.75-0.73,0.79-1.26c0.03-0.55-0.2-0.99-0.7-1.3c-0.17-0.12-0.4-0.21-0.69-0.27c-0.26-0.05-0.69-0.11-1.33-0.18
	c-0.43-0.05-0.74-0.09-0.94-0.12c-0.17-0.03-0.32-0.08-0.45-0.16c-0.1-0.05-0.18-0.13-0.24-0.23c-0.06-0.09-0.08-0.19-0.07-0.29
	c0.01-0.12,0.06-0.23,0.16-0.34C288.76,519.26,288.89,519.17,289.05,519.11z M298.67,521.24c-0.18-0.11-0.41-0.19-0.7-0.24
	c-0.26-0.04-0.68-0.09-1.34-0.13c-0.52-0.04-0.8-0.07-0.94-0.09c-0.17-0.03-0.33-0.07-0.46-0.14c-0.11-0.05-0.19-0.13-0.25-0.22
	c-0.06-0.09-0.09-0.19-0.08-0.29c0.01-0.12,0.05-0.23,0.14-0.34c0.1-0.12,0.22-0.21,0.38-0.28c0.34-0.15,0.76-0.21,1.22-0.2
	c0.57,0.02,1.12,0.16,1.62,0.4c0.19,0.09,0.34,0.19,0.44,0.28l0.12,0.11l0.48-0.68l-0.09-0.09c-0.15-0.15-0.27-0.25-0.38-0.31
	c-0.4-0.18-0.76-0.32-1.07-0.4c-0.32-0.09-0.67-0.14-1.04-0.15c-0.46-0.02-0.89,0.03-1.28,0.13c-0.41,0.11-0.73,0.26-0.96,0.46
	c-0.33,0.28-0.51,0.63-0.54,1.05c-0.01,0.25,0.04,0.49,0.16,0.7c0.12,0.22,0.28,0.4,0.48,0.52c0.2,0.12,0.44,0.22,0.73,0.29
	c0.26,0.07,0.64,0.12,1.11,0.15c0.64,0.05,1.03,0.08,1.17,0.1c0.13,0.01,0.25,0.04,0.37,0.09c0.44,0.16,0.49,0.41,0.48,0.59
	c-0.01,0.22-0.11,0.4-0.32,0.55c-0.33,0.26-0.83,0.36-1.48,0.35c-0.32-0.01-0.62-0.06-0.9-0.14c-0.27-0.08-0.56-0.2-0.86-0.37
	c-0.4-0.22-0.56-0.36-0.62-0.43l-0.12-0.15l-0.58,0.77l0.53,0.38c0.49,0.27,0.91,0.47,1.27,0.57c0.36,0.11,0.78,0.17,1.26,0.19
	c0.07,0,0.13,0,0.2,0c0.75,0,1.36-0.16,1.83-0.48c0.48-0.33,0.73-0.76,0.75-1.28C299.43,521.96,299.18,521.53,298.67,521.24z
	 M328.42,518.72l-0.01-0.15l-0.15,0.01c-0.31,0.02-0.5,0.03-0.76,0.05l-0.26,0.02l-0.04,0.07c-0.87,1.47-1.31,2.21-2.14,3.56
	c-0.97-1.29-1.49-1.98-2.48-3.35l-0.05-0.06l-1.18,0.03l0,0.15c0.06,1.88,0.08,2.82,0.15,4.7l0.01,0.15l0.98-0.03l-0.01-0.15
	c-0.05-1.41-0.08-2.19-0.12-3.46c0.97,1.33,1.53,2.08,2.58,3.46l0.13,0.17l0.11-0.18c0.94-1.5,1.43-2.3,2.25-3.67
	c0.08,1.27,0.13,2.05,0.22,3.46l0.01,0.15l0.15-0.01c0.31-0.02,0.47-0.03,0.78-0.05l0.15-0.01l-0.01-0.15
	C328.6,521.54,328.54,520.6,328.42,518.72z M336.7,522.66l0.17,0.21l-1.2,0.12l-0.05-0.07c-0.36-0.47-0.55-0.72-0.89-1.17
	c-1.29,0.12-1.97,0.18-3.29,0.29c-0.28,0.51-0.44,0.78-0.74,1.31l-0.04,0.07l-1.1,0.08l0.13-0.24c1.07-1.96,1.58-2.92,2.61-4.91
	l0.04-0.07l0.1-0.01c0.27-0.02,0.41-0.04,0.68-0.06l0.08-0.01l0.05,0.07C334.62,520.07,335.3,520.93,336.7,522.66z M332.86,519.28
	c-0.38,0.76-0.62,1.23-1,1.99c0.9-0.07,1.45-0.12,2.35-0.2C333.69,520.38,333.37,519.96,332.86,519.28z M343.97,519.46
	c0.08,0.57-0.01,1.08-0.29,1.54c-0.24,0.4-0.58,0.71-1.02,0.93c-0.43,0.22-1.01,0.37-1.73,0.47c-1.24,0.16-1.85,0.23-3.09,0.37
	l-0.15,0.02l-0.02-0.15c-0.22-1.87-0.33-2.8-0.54-4.67l-0.02-0.15l0.15-0.02c1.21-0.13,1.81-0.21,3.01-0.36
	c0.77-0.1,1.36-0.1,1.79,0.01c0.55,0.13,1.01,0.4,1.35,0.78C343.71,518.58,343.9,518.99,343.97,519.46z M340.8,521.67
	c0.64-0.08,1.11-0.22,1.4-0.41c0.33-0.21,0.55-0.5,0.66-0.87v0c0.08-0.24,0.09-0.5,0.05-0.78c-0.07-0.5-0.3-0.88-0.69-1.16
	c-0.21-0.15-0.46-0.25-0.73-0.29c-0.29-0.04-0.67-0.03-1.15,0.03c-0.85,0.11-1.3,0.17-2.11,0.26c0.16,1.37,0.25,2.12,0.42,3.48
	C339.47,521.83,339.93,521.78,340.8,521.67z M350.79,520.13l-0.15,0.03c-1.81,0.33-2.71,0.48-4.45,0.75
	c-0.09-0.55-0.14-0.88-0.23-1.43c1.14-0.18,1.75-0.28,2.98-0.49l0.15-0.02l-0.11-0.74l-0.15,0.03c-1.22,0.21-1.83,0.31-2.98,0.49
	l-0.21-1.31c1.69-0.27,2.56-0.41,4.3-0.73l0.15-0.03l-0.13-0.74l-0.15,0.03c-2.08,0.38-3.09,0.55-5.15,0.86l-0.15,0.02l0.02,0.15
	c0.29,1.86,0.43,2.79,0.72,4.65l0.02,0.15l0.15-0.02c2.16-0.33,3.21-0.51,5.36-0.9l0.15-0.03L350.79,520.13z"/>
<path id="Date_BG" class="st19" d="M327.78,504.62l-1.62-38.49c-0.06-1.39-1.28-2.44-2.66-2.27c-9.02,1.1-18.21,1.12-27.38-0.02
	c-1.38-0.17-2.6,0.88-2.66,2.27l-1.62,38.51c-0.06,1.26,0.88,2.36,2.13,2.49c10.6,1.1,21.22,1.08,31.67,0
	C326.9,506.98,327.83,505.88,327.78,504.62z"/>
<g id="Date_Drop">
	<path d="M295.83,465.82l0.05,0c4.62,0.57,9.33,0.86,13.99,0.86c4.62,0,9.29-0.28,13.93-0.85c0.17,0,0.36,0.14,0.37,0.37l1.62,38.5
		c0.01,0.21-0.14,0.39-0.34,0.41c-5.18,0.54-10.45,0.81-15.64,0.81c-5.2,0-10.46-0.27-15.62-0.81c-0.2-0.02-0.35-0.21-0.34-0.42
		l1.62-38.5C295.46,465.97,295.66,465.82,295.83,465.82 M295.83,463.82c-1.25,0-2.31,1-2.37,2.29l-1.62,38.51
		c-0.06,1.26,0.88,2.36,2.13,2.49c5.28,0.55,10.56,0.82,15.82,0.82c5.31,0,10.6-0.27,15.85-0.82c1.26-0.13,2.19-1.23,2.13-2.49
		l-1.62-38.49c-0.06-1.29-1.12-2.29-2.37-2.29c-0.1,0-0.19,0.01-0.29,0.02c-4.51,0.55-9.07,0.83-13.64,0.83
		c-4.57,0-9.16-0.28-13.74-0.85C296.02,463.83,295.92,463.82,295.83,463.82L295.83,463.82z"/>
</g>
<g id="Date_Highlight" class="st20">
	<path class="st4" d="M295.83,463.82c0.1,0,0.19,0.01,0.29,0.02c4.58,0.57,9.17,0.85,13.74,0.85c4.57,0,9.13-0.28,13.64-0.83
		c0.1-0.01,0.19-0.02,0.29-0.02c1.25,0,2.32,1,2.37,2.29l1.62,38.49c0.06,1.26-0.88,2.36-2.13,2.49
		c-5.25,0.54-10.54,0.82-15.85,0.82c-5.26,0-10.54-0.27-15.82-0.82c-1.25-0.13-2.19-1.23-2.13-2.49l1.62-38.51
		C293.51,464.82,294.57,463.82,295.83,463.82 M295.83,462.82L295.83,462.82c-1.81,0-3.29,1.42-3.37,3.24l-1.62,38.51
		c-0.08,1.79,1.25,3.34,3.03,3.53c5.26,0.55,10.62,0.82,15.93,0.82c5.3,0,10.67-0.28,15.95-0.82c1.78-0.18,3.11-1.73,3.03-3.53
		l-1.62-38.49c-0.08-1.82-1.56-3.25-3.37-3.25c-0.14,0-0.27,0.01-0.41,0.03c-4.47,0.55-9.02,0.82-13.52,0.82
		c-4.54,0-9.12-0.28-13.62-0.84C296.1,462.83,295.96,462.82,295.83,462.82L295.83,462.82L295.83,462.82z"/>
</g>
<text id="Date" transform="matrix(0.9375 0 0 1 298.9229 501.9727)" class="st21 st22 st23">8</text>
<g id="Rim_Shadow_4" class="st24">
	<path d="M310,75.39c31.67,0,62.4,6.2,91.32,18.44c27.94,11.82,53.03,28.73,74.58,50.28c21.55,21.55,38.46,46.64,50.28,74.58
		c12.23,28.92,18.44,59.65,18.44,91.32s-6.2,62.4-18.44,91.32c-11.82,27.94-28.73,53.03-50.28,74.58
		c-21.55,21.55-46.64,38.46-74.58,50.28c-28.92,12.23-59.65,18.44-91.32,18.44s-62.4-6.2-91.32-18.44
		c-27.94-11.82-53.03-28.73-74.58-50.28c-21.55-21.55-38.46-46.64-50.28-74.58C81.59,372.4,75.39,341.67,75.39,310
		s6.2-62.4,18.44-91.32c11.82-27.94,28.73-53.03,50.28-74.58c21.55-21.55,46.64-38.46,74.58-50.28
		C247.6,81.59,278.33,75.39,310,75.39 M310,71.39C178.22,71.39,71.39,178.22,71.39,310S178.22,548.61,310,548.61
		S548.61,441.78,548.61,310S441.78,71.39,310,71.39L310,71.39z"/>
</g>
<g id="Rim_Shadow_8" class="st24">
	<path d="M310,79.39c31.14,0,61.34,6.1,89.76,18.12c27.46,11.61,52.12,28.24,73.31,49.43c21.18,21.18,37.81,45.84,49.43,73.31
		c12.02,28.43,18.12,58.63,18.12,89.76s-6.1,61.34-18.12,89.76c-11.61,27.46-28.24,52.12-49.43,73.31
		c-21.18,21.18-45.84,37.81-73.31,49.43c-28.43,12.02-58.63,18.12-89.76,18.12s-61.34-6.1-89.76-18.12
		c-27.46-11.61-52.12-28.24-73.31-49.43c-21.18-21.18-37.81-45.84-49.43-73.31C85.48,371.34,79.39,341.14,79.39,310
		s6.1-61.34,18.12-89.76c11.61-27.46,28.24-52.12,49.43-73.31c21.18-21.18,45.84-37.81,73.31-49.43
		C248.66,85.48,278.86,79.39,310,79.39 M310,71.39C178.22,71.39,71.39,178.22,71.39,310S178.22,548.61,310,548.61
		S548.61,441.78,548.61,310S441.78,71.39,310,71.39L310,71.39z"/>
</g>
<g id="Rim_Shadow_12" class="st24">
	<path d="M310,83.39c30.6,0,60.27,5.99,88.2,17.8c26.98,11.41,51.22,27.75,72.03,48.57c20.82,20.82,37.16,45.05,48.57,72.03
		c11.81,27.93,17.8,57.61,17.8,88.2s-5.99,60.27-17.8,88.2c-11.41,26.98-27.75,51.22-48.57,72.03
		c-20.82,20.82-45.05,37.16-72.03,48.57c-27.93,11.81-57.61,17.8-88.2,17.8s-60.27-5.99-88.2-17.8
		c-26.98-11.41-51.22-27.75-72.03-48.57c-20.82-20.82-37.16-45.05-48.57-72.03c-11.81-27.93-17.8-57.61-17.8-88.2
		s5.99-60.27,17.8-88.2c11.41-26.98,27.75-51.22,48.57-72.03c20.82-20.82,45.05-37.16,72.03-48.57
		C249.73,89.38,279.4,83.39,310,83.39 M310,71.39C178.22,71.39,71.39,178.22,71.39,310S178.22,548.61,310,548.61
		S548.61,441.78,548.61,310S441.78,71.39,310,71.39L310,71.39z"/>
</g>
</svg>
