<?xml version="1.0" encoding="utf-8"?>
<!-- Generator: Adobe Illustrator 19.1.1, SVG Export Plug-In . SVG Version: 6.00 Build 0)  -->
<svg version="1.1" id="Hour_Hand" xmlns="http://www.w3.org/2000/svg" xmlns:xlink="http://www.w3.org/1999/xlink" x="0px" y="0px"
	 viewBox="0 0 619.47 619.47" style="enable-background:new 0 0 619.47 619.47;" xml:space="preserve">
<style type="text/css">
	.st0{fill:none;}
	.st1{opacity:0.13;}
	.st2{fill:#C9C9C9;}
	.st3{opacity:0.75;}
	.st4{fill:#FFFFFF;}
	.st5{fill:#D8E0B8;}
	.st6{opacity:0.2;}
</style>
<path id="Ghost_2_" class="st0" d="M301.3,329.38v115.98c0,1.32,0.31,2.61,0.91,3.79l5.85,11.45c0.7,1.36,2.65,1.36,3.34,0
	l5.85-11.45c0.6-1.17,0.91-2.47,0.91-3.79V329.38c7.61-3.27,12.94-10.83,12.94-19.64c0-11.81-9.57-21.38-21.38-21.38
	c-11.81,0-21.38,9.57-21.38,21.38C288.36,318.54,293.69,326.1,301.3,329.38z"/>
<g id="Drop_6_">
	<g id="_x31__2_" class="st1">
		<path d="M309.74,157.86c0.66,0,1.32,0.34,1.67,1.02l5.85,11.45c0.6,1.17,0.91,2.47,0.91,3.79V290.1
			c7.61,3.27,12.94,10.83,12.94,19.64c0,11.81-9.57,21.38-21.38,21.38c-11.81,0-21.38-9.57-21.38-21.38
			c0-8.81,5.33-16.37,12.94-19.64V174.11c0-1.32,0.31-2.61,0.91-3.79l5.85-11.45C308.41,158.2,309.08,157.86,309.74,157.86
			 M309.74,156.86c-1.09,0-2.07,0.6-2.56,1.57l-5.85,11.45c-0.67,1.31-1.02,2.77-1.02,4.24v115.34
			c-7.88,3.67-12.94,11.56-12.94,20.29c0,12.34,10.04,22.38,22.38,22.38s22.38-10.04,22.38-22.38c0-8.73-5.06-16.62-12.94-20.29
			V174.11c0-1.47-0.35-2.93-1.02-4.24l-5.85-11.45C311.81,157.46,310.82,156.86,309.74,156.86L309.74,156.86z"/>
	</g>
	<g id="_x32__3_" class="st1">
		<path d="M309.74,157.86c0.66,0,1.32,0.34,1.67,1.02l5.85,11.45c0.6,1.17,0.91,2.47,0.91,3.79V290.1
			c7.61,3.27,12.94,10.83,12.94,19.64c0,11.81-9.57,21.38-21.38,21.38c-11.81,0-21.38-9.57-21.38-21.38
			c0-8.81,5.33-16.37,12.94-19.64V174.11c0-1.32,0.31-2.61,0.91-3.79l5.85-11.45C308.41,158.2,309.08,157.86,309.74,157.86
			 M309.74,155.86c-1.46,0-2.79,0.81-3.45,2.11l-5.85,11.45c-0.74,1.45-1.13,3.07-1.13,4.7v114.71
			c-7.9,3.94-12.94,12.01-12.94,20.91c0,12.89,10.49,23.38,23.38,23.38s23.38-10.49,23.38-23.38c0-8.9-5.04-16.97-12.94-20.91
			V174.11c0-1.63-0.39-3.25-1.13-4.7l-5.85-11.45C312.52,156.67,311.2,155.86,309.74,155.86L309.74,155.86z"/>
	</g>
	<g id="_x33__2_" class="st1">
		<path d="M309.74,157.86c0.66,0,1.32,0.34,1.67,1.02l5.85,11.45c0.6,1.17,0.91,2.47,0.91,3.79V290.1
			c7.61,3.27,12.94,10.83,12.94,19.64c0,11.81-9.57,21.38-21.38,21.38c-11.81,0-21.38-9.57-21.38-21.38
			c0-8.81,5.33-16.37,12.94-19.64V174.11c0-1.32,0.31-2.61,0.91-3.79l5.85-11.45C308.41,158.2,309.08,157.86,309.74,157.86
			 M309.74,154.86c-1.84,0-3.51,1.02-4.34,2.66l-5.85,11.45c-0.81,1.59-1.24,3.37-1.24,5.15v114.1
			c-7.92,4.21-12.94,12.45-12.94,21.52c0,13.44,10.93,24.38,24.38,24.38s24.38-10.93,24.38-24.38c0-9.07-5.02-17.32-12.94-21.52
			v-114.1c0-1.78-0.43-3.56-1.24-5.15l-5.85-11.45C313.24,155.88,311.58,154.86,309.74,154.86L309.74,154.86z"/>
	</g>
</g>
<path id="Base" class="st2" d="M318.17,290.1V174.11c0-1.32-0.31-2.61-0.91-3.79l-5.85-11.45c-0.7-1.36-2.65-1.36-3.34,0
	l-5.85,11.45c-0.6,1.17-0.91,2.47-0.91,3.79V290.1c-7.61,3.27-12.94,10.83-12.94,19.64c0,11.81,9.57,21.38,21.38,21.38
	c11.81,0,21.38-9.57,21.38-21.38C331.11,300.93,325.78,293.37,318.17,290.1z"/>
<g id="Highlight_1_" class="st3">
	<path class="st4" d="M309.74,158.86c0.16,0,0.56,0.05,0.78,0.48l5.85,11.45c0.52,1.03,0.8,2.18,0.8,3.33V290.1v0.66l0.6,0.26
		c7.49,3.22,12.33,10.57,12.33,18.72c0,11.23-9.14,20.38-20.38,20.38s-20.38-9.14-20.38-20.38c0-8.15,4.84-15.5,12.33-18.72
		l0.6-0.26v-0.66V174.11c0-1.15,0.28-2.3,0.8-3.33l5.85-11.45C309.18,158.91,309.58,158.86,309.74,158.86 M309.74,157.86
		c-0.66,0-1.32,0.34-1.67,1.02l-5.85,11.45c-0.6,1.17-0.91,2.47-0.91,3.79V290.1c-7.61,3.27-12.94,10.83-12.94,19.64
		c0,11.81,9.57,21.38,21.38,21.38c11.81,0,21.38-9.57,21.38-21.38c0-8.81-5.33-16.37-12.94-19.64V174.11c0-1.32-0.31-2.61-0.91-3.79
		l-5.85-11.45C311.06,158.2,310.4,157.86,309.74,157.86L309.74,157.86z"/>
</g>
<g id="Inset_1_">
	<path class="st5" d="M311.52,279.99h-3.56c-1.19,0-2.16-0.97-2.16-2.16v-99.94c0-1.19,0.97-2.16,2.16-2.16h3.56
		c1.19,0,2.16,0.97,2.16,2.16v99.94C313.67,279.02,312.71,279.99,311.52,279.99z"/>
	<g class="st6">
		<path d="M311.52,176.74c0.64,0,1.16,0.52,1.16,1.16v99.94c0,0.64-0.52,1.16-1.16,1.16h-3.56c-0.64,0-1.16-0.52-1.16-1.16v-99.94
			c0-0.64,0.52-1.16,1.16-1.16H311.52 M311.52,175.74h-3.56c-1.19,0-2.16,0.97-2.16,2.16v99.94c0,1.19,0.97,2.16,2.16,2.16h3.56
			c1.19,0,2.16-0.97,2.16-2.16v-99.94C313.67,176.7,312.71,175.74,311.52,175.74L311.52,175.74z"/>
	</g>
	<g class="st6">
		<path d="M311.52,177.74c0.09,0,0.16,0.07,0.16,0.16v99.94c0,0.09-0.07,0.16-0.16,0.16h-3.56c-0.09,0-0.16-0.07-0.16-0.16v-99.94
			c0-0.09,0.07-0.16,0.16-0.16H311.52 M311.52,175.74h-3.56c-1.19,0-2.16,0.97-2.16,2.16v99.94c0,1.19,0.97,2.16,2.16,2.16h3.56
			c1.19,0,2.16-0.97,2.16-2.16v-99.94C313.67,176.7,312.71,175.74,311.52,175.74L311.52,175.74z"/>
	</g>
</g>
</svg>
