<?xml version="1.0" encoding="utf-8"?>
<!-- Generator: Adobe Illustrator 19.1.1, SVG Export Plug-In . SVG Version: 6.00 Build 0)  -->
<svg version="1.1" id="Hands" xmlns="http://www.w3.org/2000/svg" xmlns:xlink="http://www.w3.org/1999/xlink" x="0px" y="0px"
	 viewBox="0 0 619.47 619.47" style="enable-background:new 0 0 619.47 619.47;" xml:space="preserve">
<style type="text/css">
	.st0{opacity:0.13;fill:none;}
	.st1{fill:none;}
	.st2{opacity:0.1;}
	.st3{fill:#E1E1E1;}
	.st4{opacity:0.13;}
	.st5{fill:#FFFFFF;}
</style>
<g id="Hour_Hand">
	<path id="Board_Ghost_3_" class="st0" d="M309.74,464.62c1.84,0,3.51-1.02,4.34-2.66l5.85-11.45c0.81-1.59,1.24-3.37,1.24-5.15
		v-114.1c7.92-4.21,12.94-12.45,12.94-21.52c0-13.44-10.93-24.38-24.38-24.38s-24.38,10.93-24.38,24.38
		c0,9.07,5.02,17.32,12.94,21.52v114.1c0,1.78,0.43,3.56,1.24,5.15l5.85,11.45C306.23,463.6,307.9,464.62,309.74,464.62
		L309.74,464.62z"/>
	<path id="Ghost_2_" class="st1" d="M301.3,329.38v115.98c0,1.32,0.31,2.61,0.91,3.79l5.85,11.45c0.7,1.36,2.65,1.36,3.34,0
		l5.85-11.45c0.6-1.17,0.91-2.47,0.91-3.79V329.38c7.61-3.27,12.94-10.83,12.94-19.64c0-11.81-9.57-21.38-21.38-21.38
		c-11.81,0-21.38,9.57-21.38,21.38C288.36,318.54,293.69,326.1,301.3,329.38z"/>
	<g id="Drop_6_">
		<g id="_x31__2_" class="st2">
			<path d="M309.74,157.86c0.66,0,1.32,0.34,1.67,1.02l5.85,11.45c0.6,1.17,0.91,2.47,0.91,3.79V290.1
				c7.61,3.27,12.94,10.83,12.94,19.64c0,11.81-9.57,21.38-21.38,21.38c-11.81,0-21.38-9.57-21.38-21.38
				c0-8.81,5.33-16.37,12.94-19.64V174.11c0-1.32,0.31-2.61,0.91-3.79l5.85-11.45C308.41,158.2,309.08,157.86,309.74,157.86
				 M309.74,156.36c-1.27,0-2.43,0.71-3.01,1.84l-5.85,11.45c-0.7,1.38-1.08,2.92-1.08,4.47v115.02
				c-7.89,3.81-12.94,11.79-12.94,20.6c0,12.61,10.26,22.88,22.88,22.88s22.88-10.26,22.88-22.88c0-8.82-5.05-16.8-12.94-20.6
				V174.11c0-1.55-0.37-3.09-1.08-4.47l-5.85-11.45C312.16,157.06,311.01,156.36,309.74,156.36L309.74,156.36z"/>
		</g>
		<g id="_x32__3_" class="st2">
			<path d="M309.74,157.86c0.66,0,1.32,0.34,1.67,1.02l5.85,11.45c0.6,1.17,0.91,2.47,0.91,3.79V290.1
				c7.61,3.27,12.94,10.83,12.94,19.64c0,11.81-9.57,21.38-21.38,21.38c-11.81,0-21.38-9.57-21.38-21.38
				c0-8.81,5.33-16.37,12.94-19.64V174.11c0-1.32,0.31-2.61,0.91-3.79l5.85-11.45C308.41,158.2,309.08,157.86,309.74,157.86
				 M309.74,154.86c-1.84,0-3.51,1.02-4.34,2.66l-5.85,11.45c-0.81,1.59-1.24,3.37-1.24,5.15v114.1
				c-7.92,4.21-12.94,12.45-12.94,21.52c0,13.44,10.93,24.38,24.38,24.38s24.38-10.93,24.38-24.38c0-9.07-5.02-17.32-12.94-21.52
				v-114.1c0-1.78-0.43-3.56-1.24-5.15l-5.85-11.45C313.24,155.88,311.58,154.86,309.74,154.86L309.74,154.86z"/>
		</g>
		<g id="_x33__2_" class="st2">
			<path d="M309.74,157.86c0.66,0,1.32,0.34,1.67,1.02l5.85,11.45c0.6,1.17,0.91,2.47,0.91,3.79V290.1
				c7.61,3.27,12.94,10.83,12.94,19.64c0,11.81-9.57,21.38-21.38,21.38c-11.81,0-21.38-9.57-21.38-21.38
				c0-8.81,5.33-16.37,12.94-19.64V174.11c0-1.32,0.31-2.61,0.91-3.79l5.85-11.45C308.41,158.2,309.08,157.86,309.74,157.86
				 M309.74,153.36c-2.41,0-4.58,1.33-5.68,3.47l-5.85,11.45c-0.92,1.8-1.41,3.81-1.41,5.83v113.21
				c-7.95,4.58-12.94,13.08-12.94,22.41c0,14.27,11.61,25.88,25.88,25.88s25.88-11.61,25.88-25.88c0-9.32-4.99-17.82-12.94-22.41
				V174.11c0-2.02-0.49-4.04-1.41-5.83l-5.85-11.45C314.32,154.69,312.14,153.36,309.74,153.36L309.74,153.36z"/>
		</g>
	</g>
	<path id="Base" class="st3" d="M318.17,290.1V174.11c0-1.32-0.31-2.61-0.91-3.79l-5.85-11.45c-0.7-1.36-2.65-1.36-3.34,0
		l-5.85,11.45c-0.6,1.17-0.91,2.47-0.91,3.79V290.1c-7.61,3.27-12.94,10.83-12.94,19.64c0,11.81,9.57,21.38,21.38,21.38
		c11.81,0,21.38-9.57,21.38-21.38C331.11,300.93,325.78,293.37,318.17,290.1z"/>
	<g id="Highlight_1_" class="st4">
		<path class="st5" d="M309.74,158.86c0.16,0,0.56,0.05,0.78,0.48l5.85,11.45c0.52,1.03,0.8,2.18,0.8,3.33V290.1v0.66l0.6,0.26
			c7.49,3.22,12.33,10.57,12.33,18.72c0,11.23-9.14,20.38-20.38,20.38s-20.38-9.14-20.38-20.38c0-8.15,4.84-15.5,12.33-18.72
			l0.6-0.26v-0.66V174.11c0-1.15,0.28-2.3,0.8-3.33l5.85-11.45C309.18,158.91,309.58,158.86,309.74,158.86 M309.74,157.86
			c-0.66,0-1.32,0.34-1.67,1.02l-5.85,11.45c-0.6,1.17-0.91,2.47-0.91,3.79V290.1c-7.61,3.27-12.94,10.83-12.94,19.64
			c0,11.81,9.57,21.38,21.38,21.38c11.81,0,21.38-9.57,21.38-21.38c0-8.81-5.33-16.37-12.94-19.64V174.11
			c0-1.32-0.31-2.61-0.91-3.79l-5.85-11.45C311.06,158.2,310.4,157.86,309.74,157.86L309.74,157.86z"/>
	</g>
	<g id="Inset_1_">
		<path id="base_1_" class="st5" d="M311.52,279.99h-3.56c-1.19,0-2.16-0.97-2.16-2.16v-99.94c0-1.19,0.97-2.16,2.16-2.16h3.56
			c1.19,0,2.16,0.97,2.16,2.16v99.94C313.67,279.02,312.71,279.99,311.52,279.99z"/>
		<g class="st4">
			<path d="M311.52,176.74c0.64,0,1.16,0.52,1.16,1.16v99.94c0,0.64-0.52,1.16-1.16,1.16h-3.56c-0.64,0-1.16-0.52-1.16-1.16v-99.94
				c0-0.64,0.52-1.16,1.16-1.16H311.52 M311.52,175.74h-3.56c-1.19,0-2.16,0.97-2.16,2.16v99.94c0,1.19,0.97,2.16,2.16,2.16h3.56
				c1.19,0,2.16-0.97,2.16-2.16v-99.94C313.67,176.7,312.71,175.74,311.52,175.74L311.52,175.74z"/>
		</g>
		<g class="st4">
			<path d="M311.52,177.74c0.09,0,0.16,0.07,0.16,0.16v99.94c0,0.09-0.07,0.16-0.16,0.16h-3.56c-0.09,0-0.16-0.07-0.16-0.16v-99.94
				c0-0.09,0.07-0.16,0.16-0.16H311.52 M311.52,175.74h-3.56c-1.19,0-2.16,0.97-2.16,2.16v99.94c0,1.19,0.97,2.16,2.16,2.16h3.56
				c1.19,0,2.16-0.97,2.16-2.16v-99.94C313.67,176.7,312.71,175.74,311.52,175.74L311.52,175.74z"/>
		</g>
	</g>
</g>
</svg>
