<?xml version="1.0" encoding="utf-8"?>
<!-- Generator: Adobe Illustrator 20.0.0, SVG Export Plug-In . SVG Version: 6.00 Build 0)  -->
<svg version="1.1" id="Hands" xmlns="http://www.w3.org/2000/svg" xmlns:xlink="http://www.w3.org/1999/xlink" x="0px" y="0px"
	 viewBox="0 0 620 620" style="enable-background:new 0 0 620 620;" xml:space="preserve">
<style type="text/css">
	.st0{opacity:0.1;}
	.st1{fill:#E1E1E1;}
	.st2{opacity:0.13;}
	.st3{fill:#FFFFFF;}
</style>
<g id="Hour_Hand">
	<g id="Drop_1" class="st0">
		<path d="M310,158.12c0.66,0,1.32,0.34,1.67,1.02l5.85,11.45c0.6,1.17,0.91,2.47,0.91,3.79v115.98
			c7.61,3.27,12.94,10.83,12.94,19.64c0,11.81-9.57,21.38-21.38,21.38c-11.81,0-21.38-9.57-21.38-21.38
			c0-8.81,5.33-16.37,12.94-19.64V174.38c0-1.32,0.31-2.61,0.91-3.79l5.85-11.45C308.68,158.46,309.34,158.12,310,158.12
			 M310,156.62c-1.27,0-2.43,0.71-3.01,1.84l-5.85,11.45c-0.7,1.38-1.08,2.92-1.08,4.47V289.4c-7.89,3.81-12.94,11.79-12.94,20.6
			c0,12.61,10.26,22.88,22.88,22.88s22.88-10.26,22.88-22.88c0-8.82-5.05-16.8-12.94-20.6V174.38c0-1.55-0.37-3.09-1.08-4.47
			l-5.85-11.45C312.43,157.33,311.27,156.62,310,156.62L310,156.62z"/>
	</g>
	<g id="Drop_2" class="st0">
		<path d="M310,158.12c0.66,0,1.32,0.34,1.67,1.02l5.85,11.45c0.6,1.17,0.91,2.47,0.91,3.79v115.98
			c7.61,3.27,12.94,10.83,12.94,19.64c0,11.81-9.57,21.38-21.38,21.38c-11.81,0-21.38-9.57-21.38-21.38
			c0-8.81,5.33-16.37,12.94-19.64V174.38c0-1.32,0.31-2.61,0.91-3.79l5.85-11.45C308.68,158.46,309.34,158.12,310,158.12
			 M310,155.12c-1.84,0-3.51,1.02-4.34,2.66l-5.85,11.45c-0.81,1.59-1.24,3.37-1.24,5.15v114.1c-7.92,4.21-12.94,12.45-12.94,21.52
			c0,13.44,10.93,24.38,24.38,24.38s24.38-10.93,24.38-24.38c0-9.07-5.02-17.32-12.94-21.52v-114.1c0-1.78-0.43-3.56-1.24-5.15
			l-5.85-11.45C313.51,156.14,311.84,155.12,310,155.12L310,155.12z"/>
	</g>
	<g id="Drop_3" class="st0">
		<path d="M310,158.12c0.66,0,1.32,0.34,1.67,1.02l5.85,11.45c0.6,1.17,0.91,2.47,0.91,3.79v115.98
			c7.61,3.27,12.94,10.83,12.94,19.64c0,11.81-9.57,21.38-21.38,21.38c-11.81,0-21.38-9.57-21.38-21.38
			c0-8.81,5.33-16.37,12.94-19.64V174.38c0-1.32,0.31-2.61,0.91-3.79l5.85-11.45C308.68,158.46,309.34,158.12,310,158.12
			 M310,153.62c-2.41,0-4.58,1.33-5.68,3.47l-5.85,11.45c-0.92,1.8-1.41,3.81-1.41,5.83v113.21c-7.95,4.58-12.94,13.08-12.94,22.41
			c0,14.27,11.61,25.88,25.88,25.88s25.88-11.61,25.88-25.88c0-9.32-4.99-17.82-12.94-22.41V174.38c0-2.02-0.49-4.04-1.41-5.83
			l-5.85-11.45C314.58,154.95,312.41,153.62,310,153.62L310,153.62z"/>
	</g>
	<path id="Base" class="st1" d="M318.44,290.36V174.38c0-1.32-0.31-2.61-0.91-3.79l-5.85-11.45c-0.7-1.36-2.65-1.36-3.34,0
		l-5.85,11.45c-0.6,1.17-0.91,2.47-0.91,3.79v115.98c-7.61,3.27-12.94,10.83-12.94,19.64c0,11.81,9.57,21.38,21.38,21.38
		c11.81,0,21.38-9.57,21.38-21.38C331.38,301.19,326.05,293.63,318.44,290.36z"/>
	<g id="Highlight_1_" class="st2">
		<path class="st3" d="M310,159.12c0.16,0,0.56,0.05,0.78,0.48l5.85,11.45c0.52,1.03,0.8,2.18,0.8,3.33v115.98v0.66l0.6,0.26
			c7.49,3.22,12.33,10.57,12.33,18.72c0,11.23-9.14,20.38-20.38,20.38s-20.38-9.14-20.38-20.38c0-8.15,4.84-15.5,12.33-18.72
			l0.6-0.26v-0.66V174.38c0-1.15,0.28-2.3,0.8-3.33l5.85-11.45C309.44,159.17,309.84,159.12,310,159.12 M310,158.12
			c-0.66,0-1.32,0.34-1.67,1.02l-5.85,11.45c-0.6,1.17-0.91,2.47-0.91,3.79v115.98c-7.61,3.27-12.94,10.83-12.94,19.64
			c0,11.81,9.57,21.38,21.38,21.38c11.81,0,21.38-9.57,21.38-21.38c0-8.81-5.33-16.37-12.94-19.64V174.38
			c0-1.32-0.31-2.61-0.91-3.79l-5.85-11.45C311.32,158.46,310.66,158.12,310,158.12L310,158.12z"/>
	</g>
	<path id="Inset" class="st3" d="M311.78,280.25h-3.56c-1.19,0-2.16-0.97-2.16-2.16v-99.94c0-1.19,0.97-2.16,2.16-2.16h3.56
		c1.19,0,2.16,0.97,2.16,2.16v99.94C313.94,279.28,312.97,280.25,311.78,280.25z"/>
	<g id="Inset_Drop_2" class="st2">
		<path d="M311.78,177c0.64,0,1.16,0.52,1.16,1.16v99.94c0,0.64-0.52,1.16-1.16,1.16h-3.56c-0.64,0-1.16-0.52-1.16-1.16v-99.94
			c0-0.64,0.52-1.16,1.16-1.16H311.78 M311.78,176h-3.56c-1.19,0-2.16,0.97-2.16,2.16v99.94c0,1.19,0.97,2.16,2.16,2.16h3.56
			c1.19,0,2.16-0.97,2.16-2.16v-99.94C313.94,176.97,312.97,176,311.78,176L311.78,176z"/>
	</g>
	<g id="Inset_Drop" class="st2">
		<path d="M311.78,178c0.09,0,0.16,0.07,0.16,0.16v99.94c0,0.09-0.07,0.16-0.16,0.16h-3.56c-0.09,0-0.16-0.07-0.16-0.16v-99.94
			c0-0.09,0.07-0.16,0.16-0.16H311.78 M311.78,176h-3.56c-1.19,0-2.16,0.97-2.16,2.16v99.94c0,1.19,0.97,2.16,2.16,2.16h3.56
			c1.19,0,2.16-0.97,2.16-2.16v-99.94C313.94,176.97,312.97,176,311.78,176L311.78,176z"/>
	</g>
</g>
</svg>
