<?xml version="1.0" encoding="utf-8"?>
<!-- Generator: Adobe Illustrator 20.0.0, SVG Export Plug-In . SVG Version: 6.00 Build 0)  -->
<svg version="1.1" id="Hands" xmlns="http://www.w3.org/2000/svg" xmlns:xlink="http://www.w3.org/1999/xlink" x="0px" y="0px"
	 viewBox="0 0 620 620" style="enable-background:new 0 0 620 620;" xml:space="preserve">
<style type="text/css">
	.st0{opacity:0.1;}
	.st1{fill:#E1E1E1;}
	.st2{opacity:0.13;}
	.st3{fill:#FFFFFF;}
</style>
<g id="Minute_Hand">
	<g id="Drop_1_1_" class="st0">
		<path d="M310,92.56c0.29,0,0.58,0.15,0.73,0.45l5.97,11.8c0.31,0.61,0.47,1.28,0.47,1.96v188.22c5.61,2.68,9.49,8.39,9.49,15.02
			c0,9.2-7.46,16.66-16.66,16.66s-16.66-7.46-16.66-16.66c0-6.63,3.88-12.34,9.49-15.02V106.76c0-0.68,0.16-1.35,0.47-1.96
			l5.97-11.8C309.42,92.71,309.71,92.56,310,92.56 M310,91.06c-0.88,0-1.67,0.49-2.07,1.27l-5.97,11.8
			c-0.41,0.81-0.63,1.72-0.63,2.64v187.3c-5.79,3.16-9.49,9.32-9.49,15.94c0,10.01,8.15,18.16,18.16,18.16s18.16-8.15,18.16-18.16
			c0-6.62-3.7-12.78-9.49-15.94v-187.3c0-0.91-0.22-1.82-0.63-2.64l-5.97-11.8C311.67,91.54,310.88,91.06,310,91.06L310,91.06z"/>
	</g>
	<g id="Drop_2_1_" class="st0">
		<path d="M310,92.56c0.29,0,0.58,0.15,0.73,0.45l5.97,11.8c0.31,0.61,0.47,1.28,0.47,1.96v188.22c5.61,2.68,9.49,8.39,9.49,15.02
			c0,9.2-7.46,16.66-16.66,16.66s-16.66-7.46-16.66-16.66c0-6.63,3.88-12.34,9.49-15.02V106.76c0-0.68,0.16-1.35,0.47-1.96
			l5.97-11.8C309.42,92.71,309.71,92.56,310,92.56 M310,89.56c-1.45,0-2.75,0.8-3.41,2.09l-5.97,11.8
			c-0.52,1.02-0.79,2.17-0.79,3.31v186.43c-5.82,3.54-9.49,9.94-9.49,16.81c0,10.84,8.82,19.66,19.66,19.66s19.66-8.82,19.66-19.66
			c0-6.87-3.67-13.27-9.49-16.81V106.76c0-1.15-0.27-2.29-0.79-3.31l-5.97-11.8C312.75,90.36,311.45,89.56,310,89.56L310,89.56z"/>
	</g>
	<g id="Drop_3_1_" class="st0">
		<path d="M310,92.56c0.29,0,0.58,0.15,0.73,0.45l5.97,11.8c0.31,0.61,0.47,1.28,0.47,1.96v188.22c5.61,2.68,9.49,8.39,9.49,15.02
			c0,9.2-7.46,16.66-16.66,16.66s-16.66-7.46-16.66-16.66c0-6.63,3.88-12.34,9.49-15.02V106.76c0-0.68,0.16-1.35,0.47-1.96
			l5.97-11.8C309.42,92.71,309.71,92.56,310,92.56 M310,88.06c-2.02,0-3.83,1.12-4.75,2.92l-5.97,11.8
			c-0.62,1.23-0.95,2.61-0.95,3.99v185.61c-5.84,3.88-9.49,10.53-9.49,17.63c0,11.67,9.49,21.16,21.16,21.16s21.16-9.49,21.16-21.16
			c0-7.1-3.65-13.74-9.49-17.63V106.76c0-1.38-0.33-2.76-0.95-3.99l-5.97-11.8C313.83,89.17,312.02,88.06,310,88.06L310,88.06z"/>
	</g>
	<path id="Base_3_" class="st1" d="M317.17,294.98V106.76c0-0.68-0.16-1.35-0.47-1.96l-5.97-11.8c-0.3-0.6-1.16-0.6-1.46,0
		l-5.97,11.8c-0.31,0.61-0.47,1.28-0.47,1.96v188.22c-5.61,2.68-9.49,8.39-9.49,15.02c0,9.2,7.46,16.66,16.66,16.66
		s16.66-7.46,16.66-16.66C326.66,303.37,322.78,297.66,317.17,294.98z"/>
	<g id="Highlight_2_" class="st2">
		<path class="st3" d="M310,93.78l5.81,11.48c0.24,0.46,0.36,0.99,0.36,1.51v188.22v0.63l0.57,0.27c5.42,2.59,8.92,8.14,8.92,14.12
			c0,8.64-7.03,15.66-15.66,15.66s-15.66-7.03-15.66-15.66c0-5.98,3.5-11.53,8.92-14.12l0.57-0.27v-0.63V106.76
			c0-0.52,0.12-1.04,0.36-1.51L310,93.78 M310,92.56c-0.29,0-0.58,0.15-0.73,0.45l-5.97,11.8c-0.31,0.61-0.47,1.28-0.47,1.96v188.22
			c-5.61,2.68-9.49,8.39-9.49,15.02c0,9.2,7.46,16.66,16.66,16.66s16.66-7.46,16.66-16.66c0-6.63-3.88-12.34-9.49-15.02V106.76
			c0-0.68-0.16-1.35-0.47-1.96l-5.97-11.8C310.58,92.71,310.29,92.56,310,92.56L310,92.56z"/>
	</g>
	<path id="Inset_1_" class="st3" d="M311.2,250.75h-2.4c-0.84,0-1.52-0.68-1.52-1.52V112.27c0-0.84,0.68-1.52,1.52-1.52h2.4
		c0.84,0,1.52,0.68,1.52,1.52v136.97C312.72,250.07,312.04,250.75,311.2,250.75z"/>
	<g id="Inset_Inner" class="st2">
		<path d="M311.2,111.5c0.42,0,0.77,0.34,0.77,0.77v136.97c0,0.42-0.34,0.77-0.77,0.77h-2.4c-0.42,0-0.77-0.34-0.77-0.77V112.27
			c0-0.42,0.34-0.77,0.77-0.77H311.2 M311.2,110.75h-2.4c-0.84,0-1.52,0.68-1.52,1.52v136.97c0,0.84,0.68,1.52,1.52,1.52h2.4
			c0.84,0,1.52-0.68,1.52-1.52V112.27C312.72,111.43,312.04,110.75,311.2,110.75L311.2,110.75z"/>
	</g>
	<g id="Inset_Outer" class="st2">
		<path d="M311.2,112.25l0.02,0.02l-0.02,136.98l-2.42-0.02l0.02-136.98H311.2 M311.2,110.75h-2.4c-0.84,0-1.52,0.68-1.52,1.52
			v136.97c0,0.84,0.68,1.52,1.52,1.52h2.4c0.84,0,1.52-0.68,1.52-1.52V112.27C312.72,111.43,312.04,110.75,311.2,110.75
			L311.2,110.75z"/>
	</g>
</g>
</svg>
