<?xml version="1.0" encoding="utf-8"?>
<!-- Generator: Adobe Illustrator 19.1.1, SVG Export Plug-In . SVG Version: 6.00 Build 0)  -->
<svg version="1.1" id="Minute_Hand" xmlns="http://www.w3.org/2000/svg" xmlns:xlink="http://www.w3.org/1999/xlink" x="0px"
	 y="0px" viewBox="0 0 619.47 619.47" style="enable-background:new 0 0 619.47 619.47;" xml:space="preserve">
<style type="text/css">
	.st0{fill:none;}
	.st1{opacity:0.13;}
	.st2{fill:#C9C9C9;}
	.st3{opacity:0.75;}
	.st4{fill:#FFFFFF;}
	.st5{fill:#D8E0B8;}
	.st6{opacity:0.2;}
</style>
<path id="Ghost_1_" class="st0" d="M302.57,324.76v188.22c0,0.68,0.16,1.35,0.47,1.96l5.97,11.8c0.3,0.6,1.16,0.6,1.46,0l5.97-11.8
	c0.31-0.61,0.47-1.28,0.47-1.96V324.76c5.61-2.68,9.49-8.39,9.49-15.02c0-9.2-7.46-16.66-16.66-16.66s-16.66,7.46-16.66,16.66
	C293.08,316.37,296.96,322.08,302.57,324.76z"/>
<g id="Drop_11_">
	<g id="_x31_" class="st1">
		<path d="M309.74,92.29c0.29,0,0.58,0.15,0.73,0.45l5.97,11.8c0.31,0.61,0.47,1.28,0.47,1.96v188.22
			c5.61,2.68,9.49,8.39,9.49,15.02c0,9.2-7.46,16.66-16.66,16.66s-16.66-7.46-16.66-16.66c0-6.63,3.88-12.34,9.49-15.02V106.5
			c0-0.68,0.16-1.35,0.47-1.96l5.97-11.8C309.16,92.44,309.45,92.29,309.74,92.29 M309.74,91.29c-0.69,0-1.31,0.38-1.62,1
			l-5.97,11.8c-0.38,0.74-0.58,1.58-0.58,2.41v187.6c-5.79,3.03-9.49,9.1-9.49,15.64c0,9.74,7.92,17.66,17.66,17.66
			s17.66-7.92,17.66-17.66c0-6.54-3.7-12.61-9.49-15.64V106.5c0-0.83-0.2-1.67-0.58-2.41l-5.97-11.8
			C311.05,91.68,310.43,91.29,309.74,91.29L309.74,91.29z"/>
	</g>
	<g id="_x32__1_" class="st1">
		<path d="M309.74,92.29c0.29,0,0.58,0.15,0.73,0.45l5.97,11.8c0.31,0.61,0.47,1.28,0.47,1.96v188.22
			c5.61,2.68,9.49,8.39,9.49,15.02c0,9.2-7.46,16.66-16.66,16.66s-16.66-7.46-16.66-16.66c0-6.63,3.88-12.34,9.49-15.02V106.5
			c0-0.68,0.16-1.35,0.47-1.96l5.97-11.8C309.16,92.44,309.45,92.29,309.74,92.29 M309.74,90.29c-1.07,0-2.03,0.59-2.51,1.55
			l-5.97,11.8c-0.45,0.88-0.68,1.87-0.68,2.86v187c-5.8,3.29-9.49,9.53-9.49,16.23c0,10.29,8.37,18.66,18.66,18.66
			s18.66-8.37,18.66-18.66c0-6.71-3.69-12.94-9.49-16.23v-187c0-0.99-0.24-1.98-0.68-2.86l-5.97-11.8
			C311.77,90.89,310.81,90.29,309.74,90.29L309.74,90.29z"/>
	</g>
	<g id="_x33_" class="st1">
		<path d="M309.74,92.29c0.29,0,0.58,0.15,0.73,0.45l5.97,11.8c0.31,0.61,0.47,1.28,0.47,1.96v188.22
			c5.61,2.68,9.49,8.39,9.49,15.02c0,9.2-7.46,16.66-16.66,16.66s-16.66-7.46-16.66-16.66c0-6.63,3.88-12.34,9.49-15.02V106.5
			c0-0.68,0.16-1.35,0.47-1.96l5.97-11.8C309.16,92.44,309.45,92.29,309.74,92.29 M309.74,89.29c-1.45,0-2.75,0.8-3.41,2.09
			l-5.97,11.8c-0.52,1.02-0.79,2.17-0.79,3.31v186.43c-5.82,3.54-9.49,9.94-9.49,16.81c0,10.84,8.82,19.66,19.66,19.66
			s19.66-8.82,19.66-19.66c0-6.87-3.67-13.27-9.49-16.81V106.5c0-1.15-0.27-2.29-0.79-3.31l-5.97-11.8
			C312.49,90.1,311.18,89.29,309.74,89.29L309.74,89.29z"/>
	</g>
</g>
<path id="Base_3_" class="st2" d="M316.91,294.72V106.5c0-0.68-0.16-1.35-0.47-1.96l-5.97-11.8c-0.3-0.6-1.16-0.6-1.46,0l-5.97,11.8
	c-0.31,0.61-0.47,1.28-0.47,1.96v188.22c-5.61,2.68-9.49,8.39-9.49,15.02c0,9.2,7.46,16.66,16.66,16.66s16.66-7.46,16.66-16.66
	C326.4,303.11,322.52,297.4,316.91,294.72z"/>
<g id="Highlight_2_" class="st3">
	<path class="st4" d="M309.74,93.51l5.81,11.48c0.24,0.46,0.36,0.99,0.36,1.51v188.22v0.63l0.57,0.27
		c5.42,2.59,8.92,8.14,8.92,14.12c0,8.64-7.03,15.66-15.66,15.66s-15.66-7.03-15.66-15.66c0-5.98,3.5-11.53,8.92-14.12l0.57-0.27
		v-0.63V106.5c0-0.52,0.12-1.04,0.36-1.51L309.74,93.51 M309.74,92.29c-0.29,0-0.58,0.15-0.73,0.45l-5.97,11.8
		c-0.31,0.61-0.47,1.28-0.47,1.96v188.22c-5.61,2.68-9.49,8.39-9.49,15.02c0,9.2,7.46,16.66,16.66,16.66s16.66-7.46,16.66-16.66
		c0-6.63-3.88-12.34-9.49-15.02V106.5c0-0.68-0.16-1.35-0.47-1.96l-5.97-11.8C310.32,92.44,310.03,92.29,309.74,92.29L309.74,92.29z
		"/>
</g>
<g id="Inset_2_">
	<path id="Base_1_" class="st5" d="M310.94,250.49h-2.4c-0.84,0-1.52-0.68-1.52-1.52V112c0-0.84,0.68-1.52,1.52-1.52h2.4
		c0.84,0,1.52,0.68,1.52,1.52v136.97C312.46,249.81,311.78,250.49,310.94,250.49z"/>
	<g id="Inner" class="st6">
		<path d="M310.94,111.24c0.42,0,0.77,0.34,0.77,0.77v136.97c0,0.42-0.34,0.77-0.77,0.77h-2.4c-0.42,0-0.77-0.34-0.77-0.77V112
			c0-0.42,0.34-0.77,0.77-0.77H310.94 M310.94,110.49h-2.4c-0.84,0-1.52,0.68-1.52,1.52v136.97c0,0.84,0.68,1.52,1.52,1.52h2.4
			c0.84,0,1.52-0.68,1.52-1.52V112C312.46,111.17,311.78,110.49,310.94,110.49L310.94,110.49z"/>
	</g>
	<g id="Outer" class="st6">
		<path d="M310.94,111.99l0.02,0.02l-0.02,136.98l-2.42-0.02l0.02-136.98H310.94 M310.94,110.49h-2.4c-0.84,0-1.52,0.68-1.52,1.52
			v136.97c0,0.84,0.68,1.52,1.52,1.52h2.4c0.84,0,1.52-0.68,1.52-1.52V112C312.46,111.17,311.78,110.49,310.94,110.49L310.94,110.49
			z"/>
	</g>
</g>
</svg>
