<?xml version="1.0" encoding="utf-8"?>
<!-- Generator: Adobe Illustrator 19.1.1, SVG Export Plug-In . SVG Version: 6.00 Build 0)  -->
<svg version="1.1" id="Hands" xmlns="http://www.w3.org/2000/svg" xmlns:xlink="http://www.w3.org/1999/xlink" x="0px" y="0px"
	 viewBox="0 0 619.47 619.47" style="enable-background:new 0 0 619.47 619.47;" xml:space="preserve">
<style type="text/css">
	.st0{opacity:0.13;fill:none;}
	.st1{fill:none;}
	.st2{fill:#232323;}
	.st3{opacity:0.13;}
	.st4{opacity:0.5;}
	.st5{fill:#B7C3AD;}
	.st6{opacity:0.2;}
	.st7{fill:#D8E0B8;}
	.st8{fill:#FFFFFF;}
</style>
<g id="Second_HAnd">
	<path id="Board_Ghost" class="st0" d="M307.96,539.21h2.81c1.66,0,3-1.34,3-3v-46.6l7.93-29.52c0.44-1.64,0.07-3.41-0.98-4.74
		l-5.59-7.08l3.3-128.85c2.73-2.45,4.32-5.96,4.32-9.67c0-3.5-1.38-6.78-3.84-9.21l1.68-65.69c0.02-0.81-0.29-1.59-0.85-2.17
		c-0.56-0.58-1.34-0.91-2.15-0.91h-15.69c-0.81,0-1.58,0.33-2.15,0.9c-0.56,0.58-0.87,1.36-0.85,2.17l1.52,65.85
		c-2.36,2.42-3.68,5.64-3.68,9.06c0,3.59,1.51,7.03,4.11,9.47l2.99,129.02l-5.78,7.06c-1.1,1.34-1.48,3.14-1.03,4.81l7.92,29.5v46.6
		C304.96,537.86,306.3,539.21,307.96,539.21L307.96,539.21z"/>
	<path id="Ghost" class="st1" d="M299.75,309.75c0,3.3,1.61,6.22,4.08,8.04l3.04,131.48l-6.48,7.92c-0.49,0.6-0.66,1.39-0.46,2.13
		l8.03,29.88v47h2.81v-47l8.03-29.9c0.2-0.73,0.04-1.51-0.43-2.1l-6.26-7.93l3.36-131.33c2.59-1.81,4.29-4.8,4.29-8.2
		c0-3.21-1.52-6.06-3.87-7.89l1.72-67.08h-15.69l1.56,67.21C301.2,303.81,299.75,306.61,299.75,309.75z"/>
	<path id="Base_2_" class="st2" d="M319.72,309.73c0-3.3-1.61-6.22-4.08-8.04L312.6,170.2l6.48-7.92c0.49-0.6,0.66-1.39,0.46-2.13
		l-8.03-29.88v-47h-2.81v47l-8.03,29.9c-0.2,0.73-0.04,1.51,0.43,2.1l6.26,7.93l-3.36,131.33c-2.59,1.81-4.29,4.8-4.29,8.2
		c0,3.21,1.52,6.06,3.87,7.89l-1.72,67.08h15.69l-1.56-67.21C318.27,315.67,319.72,312.87,319.72,309.73z"/>
	<g id="Drop_9_">
		<g id="_x31__1_" class="st3">
			<path d="M311.52,83.27v47l8.03,29.88c0.2,0.74,0.03,1.54-0.46,2.13l-6.48,7.92l3.04,131.48c2.47,1.82,4.08,4.74,4.08,8.04
				c0,3.14-1.45,5.94-3.71,7.77l1.56,67.21h-15.69l1.72-67.08c-2.35-1.83-3.87-4.68-3.87-7.89c0-3.4,1.7-6.39,4.29-8.2l3.36-131.33
				l-6.26-7.93c-0.47-0.59-0.63-1.37-0.43-2.1l8.03-29.9v-47H311.52 M311.52,82.27h-2.81c-0.55,0-1,0.45-1,1v46.87l-8,29.78
				c-0.28,1.03-0.05,2.14,0.61,2.98l6.04,7.64l-3.34,130.48c-2.7,2.08-4.3,5.3-4.3,8.72c0,3.24,1.4,6.26,3.86,8.36l-1.7,66.59
				c-0.01,0.27,0.1,0.53,0.28,0.72c0.19,0.19,0.45,0.3,0.72,0.3h15.69c0.27,0,0.53-0.11,0.72-0.3c0.19-0.19,0.29-0.45,0.28-0.72
				l-1.54-66.73c2.36-2.09,3.7-5.06,3.7-8.22c0-3.3-1.52-6.46-4.09-8.54l-3.02-130.64l6.25-7.63c0.69-0.84,0.93-1.97,0.65-3.03
				l-7.99-29.75V83.27C312.52,82.72,312.07,82.27,311.52,82.27L311.52,82.27z"/>
		</g>
		<g id="_x32__2_" class="st3">
			<path d="M311.52,83.27v47l8.03,29.88c0.2,0.74,0.03,1.54-0.46,2.13l-6.48,7.92l3.04,131.48c2.47,1.82,4.08,4.74,4.08,8.04
				c0,3.14-1.45,5.94-3.71,7.77l1.56,67.21h-15.69l1.72-67.08c-2.35-1.83-3.87-4.68-3.87-7.89c0-3.4,1.7-6.39,4.29-8.2l3.36-131.33
				l-6.26-7.93c-0.47-0.59-0.63-1.37-0.43-2.1l8.03-29.9v-47H311.52 M311.52,81.27h-2.81c-1.1,0-2,0.9-2,2V130l-7.96,29.65
				c-0.36,1.33-0.06,2.78,0.79,3.86l5.81,7.36l-3.32,129.65c-2.72,2.27-4.31,5.64-4.31,9.21c0,3.37,1.39,6.53,3.85,8.8l-1.69,66.13
				c-0.01,0.54,0.19,1.06,0.57,1.45c0.38,0.39,0.89,0.6,1.43,0.6h15.69c0.54,0,1.05-0.22,1.43-0.6c0.38-0.39,0.58-0.91,0.57-1.44
				l-1.53-66.28c2.36-2.26,3.69-5.36,3.69-8.65c0-3.45-1.52-6.75-4.1-9.02l-3-129.82l6.02-7.35c0.89-1.09,1.21-2.56,0.84-3.92
				L313.52,130V83.27C313.52,82.16,312.62,81.27,311.52,81.27L311.52,81.27z"/>
		</g>
		<g id="_x33__1_" class="st3">
			<path d="M311.52,83.27v47l8.03,29.88c0.2,0.74,0.03,1.54-0.46,2.13l-6.48,7.92l3.04,131.48c2.47,1.82,4.08,4.74,4.08,8.04
				c0,3.14-1.45,5.94-3.71,7.77l1.56,67.21h-15.69l1.72-67.08c-2.35-1.83-3.87-4.68-3.87-7.89c0-3.4,1.7-6.39,4.29-8.2l3.36-131.33
				l-6.26-7.93c-0.47-0.59-0.63-1.37-0.43-2.1l8.03-29.9v-47H311.52 M311.52,80.27h-2.81c-1.66,0-3,1.34-3,3v46.6l-7.93,29.52
				c-0.44,1.64-0.07,3.41,0.98,4.74l5.59,7.08l-3.3,128.85c-2.73,2.45-4.32,5.96-4.32,9.67c0,3.5,1.38,6.78,3.84,9.21l-1.68,65.69
				c-0.02,0.81,0.29,1.59,0.85,2.17c0.56,0.58,1.34,0.91,2.15,0.91h15.69c0.81,0,1.58-0.33,2.15-0.9c0.56-0.58,0.87-1.36,0.85-2.17
				l-1.52-65.85c2.36-2.42,3.68-5.64,3.68-9.06c0-3.59-1.51-7.03-4.11-9.47l-2.99-129.02l5.78-7.06c1.1-1.34,1.48-3.14,1.03-4.81
				l-7.92-29.5v-46.6C314.52,81.61,313.18,80.27,311.52,80.27L311.52,80.27z"/>
		</g>
	</g>
	<g class="st4">
		<path d="M309.72,304.73c2.76,0,5,2.24,5,5c0,2.76-2.24,5-5,5s-5-2.24-5-5C304.72,306.97,306.96,304.73,309.72,304.73
			 M309.72,303.73c-3.31,0-6,2.69-6,6s2.69,6,6,6s6-2.69,6-6S313.03,303.73,309.72,303.73L309.72,303.73z"/>
	</g>
	<circle cx="309.72" cy="309.73" r="2"/>
	<g id="Inset_3_">
		<path id="base" class="st5" d="M309.25,140.5l-5.07,20.11l5.88,6.78l5.88-6.78l-5.07-20.11
			C310.64,139.67,309.46,139.67,309.25,140.5z"/>
		<g class="st6">
			<path d="M310.05,141.42l4.78,18.93l-4.78,5.51l-4.78-5.51L310.05,141.42 M310.05,139.88c-0.35,0-0.7,0.21-0.8,0.62l-5.07,20.11
				l5.88,6.78l5.88-6.78l-5.07-20.11C310.75,140.09,310.4,139.88,310.05,139.88L310.05,139.88z"/>
		</g>
		<g class="st6">
			<path d="M310.05,145.5l3.68,14.59l-3.68,4.25l-3.68-4.25L310.05,145.5 M310.05,139.88c-0.35,0-0.7,0.21-0.8,0.62l-5.07,20.11
				l5.88,6.78l5.88-6.78l-5.07-20.11C310.75,140.09,310.4,139.88,310.05,139.88L310.05,139.88z"/>
		</g>
	</g>
	<rect x="309.72" y="84.19" class="st7" width="0.73" height="44.99"/>
	<g id="Highlight" class="st3">
		<path class="st8" d="M310.52,84.27v46c0,0.09,0.01,0.17,0.03,0.26l8.03,29.88c0.12,0.43,0.02,0.89-0.27,1.24l-6.48,7.92
			c-0.15,0.18-0.23,0.42-0.23,0.66l3.04,131.48c0.01,0.31,0.16,0.6,0.41,0.78c2.33,1.72,3.67,4.36,3.67,7.24
			c0,2.72-1.22,5.27-3.34,6.99c-0.24,0.19-0.38,0.49-0.37,0.8l1.53,66.18H302.9l1.69-66.06c0.01-0.32-0.14-0.62-0.39-0.82
			c-2.22-1.72-3.49-4.31-3.49-7.1c0-2.93,1.44-5.69,3.86-7.38c0.26-0.18,0.42-0.48,0.43-0.79l3.36-131.33
			c0.01-0.23-0.07-0.46-0.21-0.65l-6.26-7.93c-0.27-0.34-0.36-0.8-0.25-1.22l8.03-29.9c0.02-0.08,0.03-0.17,0.03-0.26v-46H310.52
			 M311.52,83.27h-2.81v47l-8.03,29.9c-0.2,0.73-0.04,1.51,0.43,2.1l6.26,7.93l-3.36,131.33c-2.59,1.81-4.29,4.8-4.29,8.2
			c0,3.21,1.52,6.06,3.87,7.89l-1.72,67.08h15.69l-1.56-67.21c2.26-1.83,3.71-4.63,3.71-7.77c0-3.3-1.61-6.22-4.08-8.04L312.6,170.2
			l6.48-7.92c0.49-0.6,0.66-1.39,0.46-2.13l-8.03-29.88V83.27L311.52,83.27z"/>
	</g>
</g>
</svg>
