<?xml version="1.0" encoding="utf-8"?>
<!-- Generator: Adobe Illustrator 20.0.0, SVG Export Plug-In . SVG Version: 6.00 Build 0)  -->
<svg version="1.1" id="Small_Minute" xmlns="http://www.w3.org/2000/svg" xmlns:xlink="http://www.w3.org/1999/xlink" x="0px"
	 y="0px" viewBox="0 0 620 620" style="enable-background:new 0 0 620 620;" xml:space="preserve">
<style type="text/css">
	.st0{opacity:0.13;}
	.st1{fill:#EBEBEB;}
</style>
<g id="Drop_13_" class="st0">
	<path d="M310.02,249.86l2.69,5.87l0.05,46.31c0.99,0.34,1.94,0.87,2.78,1.61c3.51,3.06,3.88,8.39,0.82,11.9
		c-1.67,1.91-4.01,2.89-6.36,2.89c-1.96,0-3.94-0.68-5.54-2.07c-3.51-3.06-3.88-8.39-0.82-11.9c1.03-1.18,2.32-2,3.71-2.46
		l-0.05-46.27L310.02,249.86 M310.02,247.86c-0.78,0-1.49,0.45-1.81,1.16l-2.72,5.87c-0.12,0.26-0.19,0.55-0.19,0.84l0.04,44.94
		c-1.22,0.61-2.31,1.45-3.21,2.48c-1.83,2.1-2.73,4.79-2.54,7.57c0.19,2.78,1.45,5.32,3.55,7.15c1.9,1.66,4.33,2.57,6.85,2.57
		c3.02,0,5.89-1.3,7.87-3.58c3.78-4.34,3.32-10.94-1.01-14.72c-0.64-0.56-1.34-1.03-2.09-1.41l-0.04-45c0-0.29-0.06-0.57-0.18-0.83
		l-2.69-5.87C311.51,248.31,310.81,247.86,310.02,247.86C310.02,247.86,310.02,247.86,310.02,247.86L310.02,247.86z"/>
</g>
<path id="Base_5_" class="st1" d="M315.54,303.64c-0.84-0.73-1.78-1.26-2.78-1.61l-0.05-46.31l-2.69-5.87l-2.72,5.87l0.05,46.27
	c-1.39,0.46-2.68,1.27-3.71,2.46c-3.06,3.51-2.69,8.84,0.82,11.9c3.51,3.06,8.84,2.69,11.9-0.82
	C319.42,312.03,319.05,306.7,315.54,303.64z"/>
<circle id="Center_3_" cx="310" cy="310" r="2.6"/>
</svg>
