<?xml version="1.0" encoding="utf-8"?>
<!-- Generator: Adobe Illustrator 20.0.0, SVG Export Plug-In . SVG Version: 6.00 Build 0)  -->
<svg version="1.1" id="Small_Second" xmlns="http://www.w3.org/2000/svg" xmlns:xlink="http://www.w3.org/1999/xlink" x="0px"
	 y="0px" viewBox="0 0 620 620" style="enable-background:new 0 0 620 620;" xml:space="preserve">
<style type="text/css">
	.st0{opacity:0.13;}
	.st1{fill:#EBEBEB;}
</style>
<g id="Drop_7_" class="st0">
	<path d="M310.09,249.86l2.69,5.87l-0.01,46.31c0.99,0.34,1.94,0.88,2.77,1.61c3.51,3.06,3.87,8.39,0.8,11.9
		c-1.67,1.91-4,2.89-6.35,2.89c-1.97,0-3.94-0.69-5.54-2.08c-3.51-3.06-3.87-8.39-0.8-11.9c1.03-1.18,2.32-2,3.71-2.45l0.01-46.27
		L310.09,249.86 M310.09,247.86c-0.78,0-1.49,0.45-1.81,1.16l-2.73,5.87c-0.12,0.26-0.19,0.55-0.19,0.84l-0.01,44.94
		c-1.22,0.61-2.32,1.44-3.21,2.47c-1.83,2.1-2.74,4.79-2.55,7.57c0.19,2.78,1.45,5.32,3.55,7.15c1.9,1.66,4.34,2.57,6.86,2.57
		c3.01,0,5.88-1.3,7.86-3.57c3.78-4.33,3.34-10.94-0.99-14.72c-0.64-0.56-1.34-1.03-2.09-1.42l0.01-45c0-0.29-0.06-0.57-0.18-0.83
		l-2.69-5.87C311.59,248.32,310.88,247.86,310.09,247.86C310.1,247.86,310.1,247.86,310.09,247.86L310.09,247.86z"/>
</g>
<path id="Base_4_" class="st1" d="M315.55,303.65c-0.84-0.73-1.78-1.26-2.77-1.61l0.01-46.31l-2.69-5.87l-2.73,5.87L307.36,302
	c-1.39,0.46-2.68,1.27-3.71,2.45c-3.06,3.51-2.7,8.83,0.8,11.9c3.51,3.06,8.83,2.7,11.9-0.8
	C319.41,312.04,319.05,306.71,315.55,303.65z"/>
<circle id="Center_4_" cx="310" cy="310" r="2.6"/>
</svg>
