<?xml version="1.0" encoding="utf-8"?>
<svg version="1.1" id="Small_Arrows" xmlns="http://www.w3.org/2000/svg" xmlns:xlink="http://www.w3.org/1999/xlink" x="0px"
	 y="0px" viewBox="0 0 619.48 619.48" style="enable-background:new 0 0 619.48 619.48;" xml:space="preserve">
	<path fill="none" d="M304.29,315.97c0.82,0.72,1.75,1.24,2.72,1.57l0.04,45.4l2.64,5.75l2.67-5.76l-0.04-45.37
		c1.36-0.45,2.62-1.25,3.63-2.41c3-3.44,2.64-8.66-0.8-11.66c-3.44-3-8.66-2.64-11.66,0.8
		C300.49,307.75,300.85,312.97,304.29,315.97z"/>
	<path opacity="0.26" d="M309.74,250.77l2.64,5.75l0.04,45.4c0.97,0.34,1.9,0.86,2.72,1.57c3.44,3,3.8,8.22,0.8,11.66
		c-1.63,1.88-3.93,2.84-6.24,2.84c-1.93,0-3.86-0.67-5.43-2.03c-3.44-3-3.8-8.22-0.8-11.66c1.01-1.16,2.27-1.96,3.63-2.41
		l-0.04-45.37L309.74,250.77 M309.74,248.77c-0.78,0-1.49,0.45-1.81,1.16l-2.67,5.76c-0.12,0.26-0.19,0.55-0.19,0.84l0.04,44.03
		c-1.19,0.6-2.26,1.42-3.14,2.43c-1.8,2.07-2.69,4.71-2.5,7.45s1.43,5.23,3.5,7.04c1.87,1.63,4.26,2.53,6.74,2.53
		c2.97,0,5.79-1.28,7.74-3.52c3.72-4.27,3.27-10.77-1-14.48c-0.62-0.54-1.31-1.01-2.04-1.38l-0.04-44.09
		c0-0.29-0.06-0.57-0.18-0.83l-2.64-5.75C311.24,249.23,310.53,248.77,309.74,248.77C309.75,248.77,309.74,248.77,309.74,248.77
		L309.74,248.77z"/>
	<path fill="#C9C9C9" d="M315.15,303.5c-0.82-0.72-1.75-1.24-2.72-1.57l-0.04-45.4l-2.64-5.75l-2.67,5.76l0.04,45.37
		c-1.36,0.45-2.62,1.25-3.63,2.41c-3,3.44-2.64,8.66,0.8,11.66c3.44,3,8.66,2.64,11.66-0.8C318.95,311.73,318.59,306.5,315.15,303.5
		z"/>
	<path opacity="0.13" d="M309.72,305.6c0.96,0,1.93,0.33,2.71,1.02c1.72,1.5,1.9,4.11,0.4,5.83c-0.82,0.94-1.96,1.42-3.12,1.42
		c-0.96,0-1.93-0.33-2.71-1.02c-1.72-1.5-1.9-4.11-0.4-5.83C307.42,306.08,308.57,305.6,309.72,305.6 M309.72,304.6L309.72,304.6
		c-1.49,0-2.9,0.64-3.87,1.76c-1.86,2.13-1.64,5.38,0.5,7.24c0.93,0.81,2.13,1.26,3.37,1.26c1.49,0,2.9-0.64,3.87-1.76
		c1.86-2.13,1.64-5.38-0.5-7.24C312.16,305.05,310.96,304.6,309.72,304.6L309.72,304.6z"/>
	<circle id="Center_3_" cx="309.72" cy="309.74" r="1.65"/>
</svg>