<?xml version="1.0" encoding="utf-8"?>
<!-- Generator: Adobe Illustrator 20.0.0, SVG Export Plug-In . SVG Version: 6.00 Build 0)  -->
<svg version="1.1" id="Hands" xmlns="http://www.w3.org/2000/svg" xmlns:xlink="http://www.w3.org/1999/xlink" x="0px" y="0px"
	 viewBox="0 0 620 620" style="enable-background:new 0 0 620 620;" xml:space="preserve">
<style type="text/css">
	.st0{opacity:0.08;}
	.st1{fill:#E1E1E1;}
	.st2{fill:#FFFFFF;}
	.st3{opacity:0.13;}
	.st4{fill:#EBEBEB;}
</style>
<g id="Second_Hand">
	<g id="Drop_1_2_" class="st0">
		<path d="M311.78,83.53v47l8.03,29.88c0.2,0.74,0.03,1.54-0.46,2.13l-6.48,7.92l3.04,131.48c2.47,1.82,4.08,4.74,4.08,8.04
			c0,3.14-1.45,5.94-3.71,7.77l1.56,67.21h-15.69l1.72-67.08c-2.35-1.83-3.87-4.68-3.87-7.89c0-3.4,1.7-6.39,4.29-8.2l3.36-131.33
			l-6.26-7.93c-0.47-0.59-0.63-1.37-0.43-2.1l8.03-29.9v-47H311.78 M311.78,82.53h-2.81c-0.55,0-1,0.45-1,1v46.87l-8,29.78
			c-0.28,1.03-0.05,2.14,0.61,2.98l6.04,7.64l-3.34,130.48c-2.7,2.08-4.3,5.3-4.3,8.72c0,3.24,1.4,6.26,3.86,8.36l-1.7,66.59
			c-0.01,0.27,0.1,0.53,0.28,0.72c0.19,0.19,0.45,0.3,0.72,0.3h15.69c0.27,0,0.53-0.11,0.72-0.3c0.19-0.19,0.29-0.45,0.28-0.72
			l-1.54-66.73c2.36-2.09,3.7-5.06,3.7-8.22c0-3.3-1.52-6.46-4.09-8.54l-3.02-130.64l6.25-7.63c0.69-0.84,0.93-1.97,0.65-3.03
			l-7.99-29.75V83.53C312.78,82.98,312.33,82.53,311.78,82.53L311.78,82.53z"/>
	</g>
	<g id="Drop_2_2_" class="st0">
		<path d="M311.78,83.53v47l8.03,29.88c0.2,0.74,0.03,1.54-0.46,2.13l-6.48,7.92l3.04,131.48c2.47,1.82,4.08,4.74,4.08,8.04
			c0,3.14-1.45,5.94-3.71,7.77l1.56,67.21h-15.69l1.72-67.08c-2.35-1.83-3.87-4.68-3.87-7.89c0-3.4,1.7-6.39,4.29-8.2l3.36-131.33
			l-6.26-7.93c-0.47-0.59-0.63-1.37-0.43-2.1l8.03-29.9v-47H311.78 M311.78,81.53h-2.81c-1.1,0-2,0.9-2,2v46.74L299,159.92
			c-0.36,1.33-0.06,2.78,0.79,3.86l5.81,7.36l-3.32,129.65c-2.72,2.27-4.31,5.64-4.31,9.21c0,3.37,1.39,6.53,3.85,8.8l-1.69,66.13
			c-0.01,0.54,0.19,1.06,0.57,1.45c0.38,0.39,0.89,0.6,1.43,0.6h15.69c0.54,0,1.05-0.22,1.43-0.6c0.38-0.39,0.58-0.91,0.57-1.44
			l-1.53-66.28c2.36-2.26,3.69-5.36,3.69-8.65c0-3.45-1.52-6.75-4.1-9.02l-3-129.82l6.02-7.35c0.89-1.09,1.21-2.56,0.84-3.92
			l-7.96-29.62V83.53C313.78,82.43,312.89,81.53,311.78,81.53L311.78,81.53z"/>
	</g>
	<g id="Drop_3_2_" class="st0">
		<path d="M311.78,83.53v47l8.03,29.88c0.2,0.74,0.03,1.54-0.46,2.13l-6.48,7.92l3.04,131.48c2.47,1.82,4.08,4.74,4.08,8.04
			c0,3.14-1.45,5.94-3.71,7.77l1.56,67.21h-15.69l1.72-67.08c-2.35-1.83-3.87-4.68-3.87-7.89c0-3.4,1.7-6.39,4.29-8.2l3.36-131.33
			l-6.26-7.93c-0.47-0.59-0.63-1.37-0.43-2.1l8.03-29.9v-47H311.78 M311.78,80.53h-2.81c-1.66,0-3,1.34-3,3v46.6l-7.93,29.52
			c-0.44,1.64-0.07,3.41,0.98,4.74l5.59,7.08l-3.3,128.85c-2.73,2.45-4.32,5.96-4.32,9.67c0,3.5,1.38,6.78,3.84,9.21l-1.68,65.69
			c-0.02,0.81,0.29,1.59,0.85,2.17c0.56,0.58,1.34,0.91,2.15,0.91h15.69c0.81,0,1.58-0.33,2.15-0.9c0.56-0.58,0.87-1.36,0.85-2.17
			l-1.52-65.85c2.36-2.42,3.68-5.64,3.68-9.06c0-3.59-1.51-7.03-4.11-9.47l-2.99-129.02l5.78-7.06c1.1-1.34,1.48-3.14,1.03-4.81
			l-7.92-29.5v-46.6C314.78,81.87,313.44,80.53,311.78,80.53L311.78,80.53z"/>
	</g>
	<path id="Base_2_" class="st1" d="M319.98,309.99c0-3.3-1.61-6.22-4.08-8.04l-3.04-131.48l6.48-7.92c0.49-0.6,0.66-1.39,0.46-2.13
		l-8.03-29.88v-47h-2.81v47l-8.03,29.9c-0.2,0.73-0.04,1.51,0.43,2.1l6.26,7.93l-3.36,131.33c-2.59,1.81-4.29,4.8-4.29,8.2
		c0,3.21,1.52,6.06,3.87,7.89l-1.72,67.08h15.69l-1.56-67.21C318.54,315.93,319.98,313.13,319.98,309.99z"/>
	<circle id="Center_2_" cx="309.98" cy="309.99" r="2.6"/>
	<path id="Inset_2_" class="st2" d="M309.51,140.77l-5.07,20.11l5.88,6.78l5.88-6.78l-5.07-20.11
		C310.9,139.94,309.72,139.94,309.51,140.77z"/>
	<g id="Inset_Inner_1_" class="st3">
		<path d="M310.31,141.68l4.78,18.93l-4.78,5.51l-4.78-5.51L310.31,141.68 M310.31,140.14c-0.35,0-0.7,0.21-0.8,0.62l-5.07,20.11
			l5.88,6.78l5.88-6.78l-5.07-20.11C311.01,140.35,310.66,140.14,310.31,140.14L310.31,140.14z"/>
	</g>
	<g id="Inset_Outer_1_" class="st3">
		<path d="M310.31,145.77l3.68,14.59l-3.68,4.25l-3.68-4.25L310.31,145.77 M310.31,140.14c-0.35,0-0.7,0.21-0.8,0.62l-5.07,20.11
			l5.88,6.78l5.88-6.78l-5.07-20.11C311.01,140.35,310.66,140.14,310.31,140.14L310.31,140.14z"/>
	</g>
	<g id="Highlight">
		<path class="st4" d="M310.78,84.53v46c0,0.09,0.01,0.17,0.03,0.26l8.03,29.88c0.12,0.43,0.02,0.89-0.27,1.24l-6.48,7.92
			c-0.15,0.18-0.23,0.42-0.23,0.66l3.04,131.48c0.01,0.31,0.16,0.6,0.41,0.78c2.33,1.72,3.67,4.36,3.67,7.24
			c0,2.72-1.22,5.27-3.34,6.99c-0.24,0.19-0.38,0.49-0.37,0.8l1.53,66.18h-13.64l1.69-66.06c0.01-0.32-0.14-0.62-0.39-0.82
			c-2.22-1.72-3.49-4.31-3.49-7.1c0-2.93,1.44-5.69,3.86-7.38c0.26-0.18,0.42-0.48,0.43-0.79l3.36-131.33
			c0.01-0.23-0.07-0.46-0.21-0.65l-6.26-7.93c-0.27-0.34-0.36-0.8-0.25-1.22l8.03-29.9c0.02-0.08,0.03-0.17,0.03-0.26v-46H310.78
			 M311.78,83.53h-2.81v47l-8.03,29.9c-0.2,0.73-0.04,1.51,0.43,2.1l6.26,7.93l-3.36,131.33c-2.59,1.81-4.29,4.8-4.29,8.2
			c0,3.21,1.52,6.06,3.87,7.89l-1.72,67.08h15.69l-1.56-67.21c2.26-1.83,3.71-4.63,3.71-7.77c0-3.3-1.61-6.22-4.08-8.04
			l-3.04-131.48l6.48-7.92c0.49-0.6,0.66-1.39,0.46-2.13l-8.03-29.88V83.53L311.78,83.53z"/>
	</g>
</g>
</svg>
