<?xml version="1.0" encoding="utf-8"?>
<svg version="1.1" id="Small_Arrows" xmlns="http://www.w3.org/2000/svg" xmlns:xlink="http://www.w3.org/1999/xlink" x="0px"
	 y="0px" viewBox="0 0 619.48 619.48" style="enable-background:new 0 0 619.48 619.48;" xml:space="preserve">
	<path fill="none" d="M304.28,315.96c0.82,0.72,1.75,1.24,2.72,1.58l-0.01,45.4l2.64,5.76l2.67-5.76l0.01-45.37
		c1.36-0.45,2.62-1.25,3.64-2.4c3-3.44,2.65-8.66-0.79-11.66c-3.44-3-8.66-2.65-11.66,0.79
		C300.49,307.74,300.85,312.96,304.28,315.96z"/>
	<path opacity="0.26" d="M309.81,250.77l2.64,5.76l-0.01,45.4c0.97,0.34,1.9,0.86,2.72,1.58c3.44,3,3.79,8.23,0.79,11.66
		c-1.63,1.87-3.93,2.83-6.23,2.83c-1.93,0-3.87-0.67-5.43-2.04c-3.44-3-3.79-8.23-0.79-11.66c1.01-1.16,2.27-1.96,3.64-2.4
		l0.01-45.37L309.81,250.77 M309.81,248.77c-0.78,0-1.49,0.45-1.81,1.16l-2.67,5.76c-0.12,0.26-0.19,0.55-0.19,0.84l-0.01,44.03
		c-1.19,0.59-2.26,1.42-3.14,2.42c-1.8,2.07-2.7,4.71-2.51,7.45c0.18,2.74,1.42,5.24,3.49,7.04c1.87,1.63,4.27,2.53,6.75,2.53
		c2.97,0,5.79-1.28,7.74-3.51c3.72-4.26,3.28-10.76-0.98-14.49c-0.62-0.54-1.3-1.01-2.04-1.38l0.01-44.09
		c0-0.29-0.06-0.57-0.18-0.83l-2.64-5.76C311.31,249.23,310.6,248.78,309.81,248.77C309.82,248.77,309.81,248.77,309.81,248.77
		L309.81,248.77z"/>
	<path fill="#C9C9C9" d="M315.16,303.51c-0.82-0.72-1.75-1.24-2.72-1.58l0.01-45.4l-2.64-5.76l-2.67,5.76l-0.01,45.37
		c-1.36,0.45-2.62,1.25-3.64,2.4c-3,3.44-2.65,8.66,0.79,11.66c3.44,3,8.66,2.65,11.66-0.79
		C318.95,311.74,318.6,306.51,315.16,303.51z"/>
	<path opacity="0.13" d="M309.72,305.6c0.96,0,1.93,0.34,2.72,1.02c1.72,1.5,1.9,4.11,0.39,5.83c-0.82,0.94-1.96,1.41-3.11,1.41
		c-0.96,0-1.93-0.34-2.72-1.02c-1.72-1.5-1.9-4.11-0.39-5.83C307.43,306.08,308.57,305.6,309.72,305.6 M309.72,304.6L309.72,304.6
		c-1.48,0-2.89,0.64-3.87,1.76c-1.86,2.13-1.64,5.38,0.49,7.24c0.94,0.82,2.13,1.27,3.37,1.27c1.48,0,2.89-0.64,3.87-1.76
		c1.86-2.13,1.64-5.38-0.49-7.24C312.16,305.05,310.96,304.6,309.72,304.6L309.72,304.6z"/>
	<circle cx="309.72" cy="309.74" r="1.65"/>
</svg>