<?xml version="1.0" encoding="utf-8"?>
<!-- Generator: Adobe Illustrator 19.1.1, SVG Export Plug-In . SVG Version: 6.00 Build 0)  -->
<svg version="1.1" id="Small_Arrows" xmlns="http://www.w3.org/2000/svg" xmlns:xlink="http://www.w3.org/1999/xlink" x="0px"
	 y="0px" viewBox="0 0 619.47 619.47" style="enable-background:new 0 0 619.47 619.47;" xml:space="preserve">
<style type="text/css">
	.st0{fill:none;}
	.st1{opacity:0.13;}
	.st2{fill:#EBEBEB;}
</style>
<g id="Small_Hour">
	<g id="Second_HAnd_copy_3">
	</g>
	<g>
		<path id="Ghost_7_" class="st0" d="M307.13,321.96l-0.03,29.5l2.67,5.88l2.69-5.87l0.03-29.54c5.57-1.25,9.74-6.22,9.75-12.17
			c0.01-6.9-5.58-12.5-12.48-12.51c-6.9-0.01-12.5,5.58-12.51,12.48C297.24,315.73,301.47,320.75,307.13,321.96z"/>
		<g id="Drop_2_" class="st1">
			<path d="M309.7,262.14l2.67,5.88l-0.03,29.5c5.65,1.2,9.89,6.22,9.88,12.23c-0.01,6.9-5.6,12.48-12.49,12.48c0,0-0.01,0-0.01,0
				c-6.9-0.01-12.49-5.61-12.48-12.51c0.01-5.95,4.17-10.92,9.75-12.17l0.03-29.54L309.7,262.14 M309.7,260.14
				c-0.78,0-1.49,0.46-1.82,1.17l-2.69,5.87c-0.12,0.26-0.18,0.54-0.18,0.83l-0.03,28.04c-5.81,1.99-9.74,7.41-9.75,13.68
				c-0.01,7.99,6.49,14.5,14.48,14.51c8,0,14.5-6.5,14.51-14.48c0.01-6.25-4.06-11.8-9.88-13.75l0.03-27.98
				c0-0.29-0.06-0.57-0.18-0.83l-2.67-5.88C311.2,260.6,310.49,260.14,309.7,260.14C309.7,260.14,309.7,260.14,309.7,260.14
				L309.7,260.14z"/>
		</g>
		<path id="Base_8_" class="st2" d="M312.35,297.52l0.03-29.5l-2.67-5.88l-2.69,5.87l-0.03,29.54c-5.57,1.25-9.74,6.22-9.75,12.17
			c-0.01,6.9,5.58,12.5,12.48,12.51c6.9,0.01,12.5-5.58,12.51-12.48C322.24,303.74,318,298.72,312.35,297.52z"/>
	</g>
</g>
</svg>
