<?xml version="1.0" encoding="utf-8"?>
<!-- Generator: Adobe Illustrator 20.0.0, SVG Export Plug-In . SVG Version: 6.00 Build 0)  -->
<svg version="1.1" id="Small_Hour" xmlns="http://www.w3.org/2000/svg" xmlns:xlink="http://www.w3.org/1999/xlink" x="0px" y="0px"
	 viewBox="0 0 620 620" style="enable-background:new 0 0 620 620;" xml:space="preserve">
<style type="text/css">
	.st0{opacity:0.13;}
	.st1{fill:#EBEBEB;}
</style>
<g id="Drop_2_" class="st0">
	<path d="M309.97,262.4l2.67,5.88l-0.03,29.5c5.65,1.2,9.89,6.22,9.88,12.23c-0.01,6.9-5.6,12.48-12.49,12.48c0,0-0.01,0-0.01,0
		c-6.9-0.01-12.49-5.61-12.48-12.51c0.01-5.95,4.17-10.92,9.75-12.17l0.03-29.54L309.97,262.4 M309.97,260.4
		c-0.78,0-1.49,0.46-1.82,1.17l-2.69,5.87c-0.12,0.26-0.18,0.54-0.18,0.83l-0.03,28.04c-5.81,1.99-9.74,7.41-9.75,13.68
		c-0.01,7.99,6.49,14.5,14.48,14.51c8,0,14.5-6.5,14.51-14.48c0.01-6.25-4.06-11.8-9.88-13.75l0.03-27.98
		c0-0.29-0.06-0.57-0.18-0.83l-2.67-5.88C311.46,260.86,310.75,260.4,309.97,260.4C309.97,260.4,309.97,260.4,309.97,260.4
		L309.97,260.4z"/>
</g>
<path id="Base_8_" class="st1" d="M312.61,297.78l0.03-29.5l-2.67-5.88l-2.69,5.87l-0.03,29.54c-5.57,1.25-9.74,6.22-9.75,12.17
	c-0.01,6.9,5.58,12.5,12.48,12.51c6.9,0.01,12.5-5.58,12.51-12.48C322.5,304,318.26,298.98,312.61,297.78z"/>
</svg>
