<?xml version="1.0" encoding="utf-8"?>
<!-- Generator: Adobe Illustrator 19.1.1, SVG Export Plug-In . SVG Version: 6.00 Build 0)  -->
<svg version="1.1" id="Small_Arrows" xmlns="http://www.w3.org/2000/svg" xmlns:xlink="http://www.w3.org/1999/xlink" x="0px"
	 y="0px" viewBox="0 0 619.47 619.47" style="enable-background:new 0 0 619.47 619.47;" xml:space="preserve">
<style type="text/css">
	.st0{fill:none;}
	.st1{opacity:0.26;}
	.st2{fill:#B7C3AD;}
	.st3{opacity:0.13;}
</style>
<g id="Small_Second">
	<g id="Second_HAnd_copy">
	</g>
	<g>
		<path id="Ghost_3_" class="st0" d="M304.19,316.09c0.84,0.73,1.78,1.26,2.77,1.61l-0.01,46.31l2.69,5.87l2.73-5.87l0.01-46.27
			c1.39-0.46,2.68-1.27,3.71-2.45c3.06-3.51,2.7-8.83-0.8-11.9c-3.51-3.06-8.83-2.7-11.9,0.8
			C300.32,307.7,300.68,313.02,304.19,316.09z"/>
		<g id="Drop_7_" class="st1">
			<path d="M309.83,249.59l2.69,5.87l-0.01,46.31c0.99,0.34,1.94,0.88,2.77,1.61c3.51,3.06,3.87,8.39,0.8,11.9
				c-1.67,1.91-4,2.89-6.35,2.89c-1.97,0-3.94-0.69-5.54-2.08c-3.51-3.06-3.87-8.39-0.8-11.9c1.03-1.18,2.32-2,3.71-2.45l0.01-46.27
				L309.83,249.59 M309.83,247.59c-0.78,0-1.49,0.45-1.81,1.16l-2.73,5.87c-0.12,0.26-0.19,0.55-0.19,0.84l-0.01,44.94
				c-1.22,0.61-2.32,1.44-3.21,2.47c-1.83,2.1-2.74,4.79-2.55,7.57c0.19,2.78,1.45,5.32,3.55,7.15c1.9,1.66,4.34,2.57,6.86,2.57
				c3.01,0,5.88-1.3,7.86-3.57c3.78-4.33,3.34-10.94-0.99-14.72c-0.64-0.56-1.34-1.03-2.09-1.42l0.01-45c0-0.29-0.06-0.57-0.18-0.83
				l-2.69-5.87C311.32,248.05,310.62,247.6,309.83,247.59C309.83,247.59,309.83,247.59,309.83,247.59L309.83,247.59z"/>
		</g>
		<path id="Base_4_" class="st2" d="M315.28,303.39c-0.84-0.73-1.78-1.26-2.77-1.61l0.01-46.31l-2.69-5.87l-2.73,5.87l-0.01,46.27
			c-1.39,0.46-2.68,1.27-3.71,2.45c-3.06,3.51-2.7,8.83,0.8,11.9c3.51,3.06,8.83,2.7,11.9-0.8
			C319.15,311.78,318.79,306.45,315.28,303.39z"/>
		<g id="Bolt_1_" class="st3">
			<path d="M309.74,305.52c0.98,0,1.97,0.34,2.77,1.04c1.75,1.53,1.93,4.19,0.4,5.95c-0.83,0.95-2,1.44-3.18,1.44
				c-0.98,0-1.97-0.34-2.77-1.04c-1.75-1.53-1.93-4.19-0.4-5.95C307.4,306.01,308.56,305.52,309.74,305.52 M309.74,304.52
				L309.74,304.52c-1.51,0-2.94,0.65-3.93,1.78c-0.92,1.05-1.37,2.39-1.28,3.78s0.72,2.66,1.77,3.58c0.95,0.83,2.17,1.29,3.43,1.29
				c1.51,0,2.94-0.65,3.93-1.78c0.92-1.05,1.37-2.39,1.28-3.78s-0.72-2.66-1.77-3.58C312.22,304.98,311,304.52,309.74,304.52
				L309.74,304.52z"/>
		</g>
		<circle id="Center_2_" cx="309.74" cy="309.74" r="1.69"/>
	</g>
</g>
</svg>
