<?xml version="1.0" encoding="utf-8"?>
<svg version="1.1" id="Small_Arrows" xmlns="http://www.w3.org/2000/svg" xmlns:xlink="http://www.w3.org/1999/xlink" x="0px"
	 y="0px" viewBox="0 0 619.48 619.48" style="enable-background:new 0 0 619.48 619.48;" xml:space="preserve">
	<path fill="none" d="M307.16,321.72l-0.03,28.92l2.62,5.76l2.63-5.76l0.03-28.96c5.46-1.23,9.55-6.1,9.56-11.93
		c0.01-6.77-5.47-12.26-12.24-12.26c-6.77-0.01-12.26,5.47-12.26,12.24C297.47,315.62,301.62,320.54,307.16,321.72z"/>
	<path opacity="0.26" d="M309.69,263.07l2.62,5.76l-0.03,28.92c5.54,1.18,9.7,6.1,9.69,11.99c-0.01,6.76-5.49,12.24-12.25,12.24c0,0-0.01,0-0.01,0
		c-6.77-0.01-12.24-5.5-12.24-12.26c0.01-5.83,4.09-10.7,9.56-11.93l0.03-28.96L309.69,263.07 M309.69,261.07
		c-0.78,0-1.49,0.46-1.82,1.17l-2.63,5.76c-0.12,0.26-0.18,0.54-0.18,0.83l-0.03,27.46c-5.69,1.97-9.55,7.28-9.56,13.44
		c0,3.81,1.48,7.39,4.16,10.08c2.69,2.69,6.27,4.18,10.07,4.18c7.86,0,14.26-6.39,14.26-14.24c0.01-6.14-3.98-11.58-9.69-13.51
		l0.03-27.4c0-0.29-0.06-0.57-0.18-0.83l-2.62-5.76C311.18,261.53,310.47,261.07,309.69,261.07
		C309.69,261.07,309.69,261.07,309.69,261.07L309.69,261.07z"/>
	<path fill="#C9C9C9" d="M312.28,297.76l0.03-28.92l-2.62-5.76l-2.63,5.76l-0.03,28.96c-5.46,1.23-9.55,6.1-9.56,11.93
		c-0.01,6.77,5.47,12.26,12.24,12.26s12.26-5.47,12.26-12.24C321.98,303.86,317.82,298.94,312.28,297.76z"/>
</svg>