<?xml version="1.0" encoding="utf-8"?>
<!-- Generator: Adobe Illustrator 19.1.1, SVG Export Plug-In . SVG Version: 6.00 Build 0)  -->
<svg version="1.1" id="Small_Arrows" xmlns="http://www.w3.org/2000/svg" xmlns:xlink="http://www.w3.org/1999/xlink" x="0px"
	 y="0px" viewBox="0 0 619.47 619.47" style="enable-background:new 0 0 619.47 619.47;" xml:space="preserve">
<style type="text/css">
	.st0{fill:none;}
	.st1{opacity:0.13;}
	.st2{fill:#EBEBEB;}
</style>
<g id="Small_Minute">
	<g id="Second_HAnd_copy_2">
	</g>
	<g>
		<path id="Ghost_4_" class="st0" d="M304.2,316.09c0.84,0.73,1.78,1.26,2.78,1.61l0.05,46.31l2.69,5.87l2.72-5.87l-0.05-46.27
			c1.39-0.46,2.68-1.27,3.71-2.46c3.06-3.51,2.69-8.84-0.82-11.9c-3.51-3.06-8.84-2.69-11.9,0.82
			C300.32,307.71,300.69,313.04,304.2,316.09z"/>
		<g id="Drop_13_" class="st1">
			<path d="M309.76,249.59l2.69,5.87l0.05,46.31c0.99,0.34,1.94,0.87,2.78,1.61c3.51,3.06,3.88,8.39,0.82,11.9
				c-1.67,1.91-4.01,2.89-6.36,2.89c-1.96,0-3.94-0.68-5.54-2.07c-3.51-3.06-3.88-8.39-0.82-11.9c1.03-1.18,2.32-2,3.71-2.46
				l-0.05-46.27L309.76,249.59 M309.76,247.59c-0.78,0-1.49,0.45-1.81,1.16l-2.72,5.87c-0.12,0.26-0.19,0.55-0.19,0.84l0.04,44.94
				c-1.22,0.61-2.31,1.45-3.21,2.48c-1.83,2.1-2.73,4.79-2.54,7.57c0.19,2.78,1.45,5.32,3.55,7.15c1.9,1.66,4.33,2.57,6.85,2.57
				c3.02,0,5.89-1.3,7.87-3.58c3.78-4.34,3.32-10.94-1.01-14.72c-0.64-0.56-1.34-1.03-2.09-1.41l-0.04-45
				c0-0.29-0.06-0.57-0.18-0.83l-2.69-5.87C311.25,248.05,310.54,247.6,309.76,247.59C309.76,247.59,309.76,247.59,309.76,247.59
				L309.76,247.59z"/>
		</g>
		<path id="Base_5_" class="st2" d="M315.28,303.38c-0.84-0.73-1.78-1.26-2.78-1.61l-0.05-46.31l-2.69-5.87l-2.72,5.87l0.05,46.27
			c-1.39,0.46-2.68,1.27-3.71,2.46c-3.06,3.51-2.69,8.84,0.82,11.9c3.51,3.06,8.84,2.69,11.9-0.82
			C319.15,311.77,318.79,306.44,315.28,303.38z"/>
		<circle id="Center_3_" cx="309.74" cy="309.74" r="3.37"/>
	</g>
</g>
</svg>
